<?xml version="1.0" encoding="utf-8"?>
<!-- Generator: Adobe Illustrator 16.0.0, SVG Export Plug-In . SVG Version: 6.00 Build 0)  -->
<!DOCTYPE svg PUBLIC "-//W3C//DTD SVG 1.1//EN" "http://www.w3.org/Graphics/SVG/1.1/DTD/svg11.dtd">
<svg version="1.1" id="Layer_1" xmlns="http://www.w3.org/2000/svg" xmlns:xlink="http://www.w3.org/1999/xlink" x="0px" y="0px"
	 width="400px" height="400px" viewBox="0 0 400 400" enable-background="new 0 0 400 400" xml:space="preserve">
<path fill="#4AB9E6" d="M274.955,121.233c-27.307-48.921-54.16-89.71-55.287-91.422L199.999,0l-19.664,29.812
	c-1.132,1.712-27.984,42.501-55.28,91.422C86.452,190.401,67.692,238.31,67.692,267.686C67.692,340.648,127.043,400,199.999,400
	c72.958,0,132.31-59.352,132.31-132.305C332.309,238.31,313.551,190.401,274.955,121.233 M199.999,337.168
	c-37.874,0-68.585-30.702-68.585-68.585c0-37.878,30.711-68.582,68.585-68.582c37.878,0,68.585,30.704,68.585,68.582
	C268.584,306.466,237.877,337.168,199.999,337.168"/>
</svg>
