<svg xmlns="http://www.w3.org/2000/svg" width="400" height="400" viewBox="0 0 400 400"><path fill="#41BBEC" d="M200.285 400c-73.29 0-132.914-59.628-132.914-132.918 0-29.102 17.964-75.435 54.913-141.646 25.787-46.217 51.116-84.68 52.18-86.293L200.285 0l25.826 39.142c2.702 4.107 27.112 41.37 52.18 86.293 36.953 66.21 54.914 112.543 54.914 141.65 0 73.29-59.63 132.915-132.92 132.915z"/><path fill="#41BBEC" d="M200.285 32.106l-11.063 16.772c-1.05 1.595-26.03 39.524-51.498 85.173-34.95 62.627-52.672 107.384-52.672 133.03 0 63.544 51.695 115.238 115.234 115.238 63.543 0 115.238-51.693 115.238-115.232 0-25.648-17.72-70.41-52.67-133.035-24.765-44.373-48.84-81.132-51.505-85.177l-11.065-16.767z"/><path fill="#41BBEC" d="M200.285 341.075c-40.338 0-73.156-32.818-73.156-73.156s32.817-73.153 73.155-73.153 73.156 32.814 73.156 73.152-32.817 73.155-73.155 73.155z"/><path fill="#41BBEC" d="M200.285 212.448c-30.59 0-55.476 24.885-55.476 55.47 0 30.592 24.886 55.477 55.475 55.477 30.59 0 55.477-24.885 55.477-55.476 0-30.588-24.885-55.472-55.477-55.472z"/><circle fill="#FFF" cx="200.288" cy="268" r="56"/></svg>