<?xml version="1.0" encoding="utf-8"?>
<!-- Generator: Adobe Illustrator 17.0.0, SVG Export Plug-In . SVG Version: 6.00 Build 0)  -->
<!DOCTYPE svg PUBLIC "-//W3C//DTD SVG 1.1//EN" "http://www.w3.org/Graphics/SVG/1.1/DTD/svg11.dtd">
<svg version="1.1" id="Layer_1" xmlns="http://www.w3.org/2000/svg" xmlns:xlink="http://www.w3.org/1999/xlink" x="0px" y="0px"
	 width="400px" height="400px" viewBox="0 0 400 400" enable-background="new 0 0 400 400" xml:space="preserve">
<path fill="#41BBEC" d="M200.285,400c-73.29,0-132.914-59.628-132.914-132.918c0-29.102,17.963-75.435,54.912-141.646
	c25.787-46.217,51.116-84.679,52.18-86.293L200.285,0l25.826,39.142c2.702,4.107,27.112,41.369,52.178,86.293
	c36.954,66.211,54.915,112.544,54.915,141.651C333.204,340.376,273.575,400,200.285,400z M200.285,32.106l-11.063,16.772
	c-1.051,1.595-26.029,39.524-51.498,85.173c-34.951,62.626-52.672,107.382-52.672,133.03c0,63.543,51.695,115.238,115.234,115.238
	c63.543,0,115.238-51.694,115.238-115.233c0-25.649-17.719-70.409-52.67-133.035c-24.764-44.374-48.841-81.133-51.505-85.178
	L200.285,32.106z M200.285,341.075c-40.338,0-73.156-32.818-73.156-73.156s32.818-73.152,73.156-73.152s73.156,32.814,73.156,73.152
	S240.623,341.075,200.285,341.075z M200.285,212.448c-30.589,0-55.476,24.885-55.476,55.471c0,30.591,24.887,55.476,55.476,55.476
	c30.591,0,55.476-24.885,55.476-55.476C255.761,237.332,230.877,212.448,200.285,212.448z"/>
<circle fill="#FFFFFF" cx="200.288" cy="268" r="56"/>
</svg>
