<svg xmlns="http://www.w3.org/2000/svg" width="850" height="123.401" viewBox="25 -13.966 850 123.401"><g fill="#41BBEC"><path d="M245.506-6.53c-.336.258-.517 1.422 0 2.017-.427 1.087-.09 1.59-.672 2.846.078.93-.84 1.85-.672 2.78-.09.13-.168.312-.427.312-.078 1.163-1.332 2.018-1.086 3.026-.52.31-.778.905-.778 1.423-1.008.737-1.267 2.25-1.848 3.363-.427.13-.26.49-.427.905-1.01.518-.75 1.424-1.423 2.096-.09.26.26.09.167.336-.425-.077-.257.168-.334.35-.08.078-.324.078-.324.078-.258.336-.337.776-.518 1.165-.75.103-.582 1.1-1.254 1.357-.09.26.258.168.155.414-.828.09-.582 1.164-1.164 1.513 0 .168-.09.336.08.336-.673 1.19-.583 2.793-1.255 3.71.077.673 0 1.255-.35 1.592.09.336 0 .517 0 .93-.75 1.345-.49 3.777-1.5 4.954.077 1.422-.595 2.52-.595 4.112-.155.09-.155.336-.324.426.337.582-.582 1.5-.168 1.94-.414.49-.258 1.578-.672 2.004-.065.26.258.194.18.44-.077.09-.167.336-.258.426-.078.26.09.335.09.518-.555 1.577-.645 4.1-.724 4.94-.09.258-.168.064-.427.064.44.932.182 1.94-.155 2.768-.077.337.26.26.26.518-.428 1.074 0 1.992-.518 3.17 0 .09.18.09.258.09-.582 1.356.26 2.715-.414 3.697.414.52.414 1.514.336 1.94-.078.337.517.84.18 1.513.415 1.165.518 2.434 1.514 3.36.427-.165.776-.346 1.1-.514 3.62-2.938 6.555-6.726 8.896-10.917.17-.076.26-.166.427-.256 2.846-5.562 5.95-10.826 8.886-16.295-.078.426-.337.775-.26 1.358-1.68 3.776-3.012 7.474-4.266 11.51-.168.078-.26.258-.35.337.09.774-.258 1.848-.827 2.2-.84 3.27-2.845 5.363-4.294 8.053-.906 1.01-1.81 2.02-2.497 3.196-1.5 1.42-2.586 3.166-4.785 3.93-1.086.583-2.328 1.01-3.517 1.164-2.78.35-4.953-1.59-6.13-3.36 0-.325-.09-.325.078-.493h-.335c-.583-1.162-.672-2.52-.75-3.62-.167-1.59-.672-3.183-.595-4.525.09-.75 0-1.683.09-2.433.078-.593.168-1.252.414-1.94-.427-.26.324-.995-.09-1.163.064-.26.232-.428.323-.686-.09-.996.168-1.254.077-1.94.26-.828.44-1.746.44-2.845.26-1.424.414-2.432.414-3.623.595-1.914.84-5.108 1.68-6.958.338-2.587 1.166-5.2 1.76-7.475-.077-.517-.077-.44-.077-.867.58-.168.258-1.164.672-1.5-.09-.168-.09-.35-.17-.428.156-.167.156-.582.39-.672.35-1.68.854-3.776 1.112-5.302.26-.646.517-1.577.75-2.417.26-.092 0-.338.427-.338-.258-.35.17-1.164.52-1.423-.182-1.526.827-2.2.827-3.544.09-.168.258-.336.425-.426-.18-.414.08-.84.324-1.086.09-1.526.932-2.846 1.165-4.217.518-.258.35-1.345.945-1.59 1.423-3.685 4.01-6.544 7.63-8.302.854-.104 2.535-.26 2.716.26.997-.183 1.255 1.072 1.165 1.654h.427l-.066.06zM239.3-1.15c-.687 1.68-.687 3.284-1.268 5.042.336 1.1-1.01 2.768-.673 3.945-.428 0-.26.58-.596.646.168 1.034-.75 2.198-.646 3.298.154-1.008 1.318-1.94 1.073-2.78.905-.594.905-1.68 1.682-2.535.077-.26-.09-.26-.09-.414.93-.413.594-1.758 1.512-2.262.09-.26-.077-.348-.077-.517 1.37-1.253 1.293-3.362 1.875-5.042-.168-.155-.168-.388-.168-.75.776-.854.337-2.198.26-3.208-.26-.09-.518-.09-.75-.167-1.1 1.164-1.346 3.013-2.277 4.526.09 0 .168 0 .168.154l-.026.065zm25.94 38.615c.26-.077.17-.492.337-.646-1.008 5.107-3.7 9.22-5.625 13.76-.336.167-.426.58-.672.75-1.008 2.585-2.948 5.38-5.458 6.982-.776.492-1.85 1.085-3.026 1.085-2.716.08-5.147-1.162-6.414-2.947-1.255-2.586-1.255-6.13-.996-8.897 0-.17 0-.337.258-.337-.18-.775.065-1.422.155-2.108.063-.387.258-.905.322-1.318 0-.078-.167-.26-.167-.325 0-.334.258-.672.336-1.034.233-1.42.324-2.844.906-4.085.594-3.62 1.68-6.208 2.52-9.57 1.605-.35 3.105.156 4.45.647.324.517.906.944.996 1.525-.17 1.514-.414 3.104-1.165 4.876-.35 2.108-1.603 3.453-2.198 5.47-.17.168-.26.413-.493.517-.104.232.388.155.065.323-.26.518-.738 1.008-.57 1.68-1.42 1.255-1.164 3.622-1.603 5.37-.08 1.938-.583 2.778-.17 4.784.078.258-.18.258-.18.427.595.84.672 1.68 1.422 2.354.517.167.93.414 1.357.647 1.267.258 2.197-.57 3.103-1.074 3.957-3.103 6.557-7.55 8.574-12.596.257 0 .09-.324.336-.232.582-1.682 1.332-3.285 2.328-4.617.26-.775.518-1.512 1.1-1.85.155 0 0 .338.078.518l.093-.078zM252.88 17.938c.517.414.93.996 1.357 1.513.09.647-.168 1.255 0 1.837-.75.647-1.086 1.76-2.263 2.005-2.613-.336-3.7-3.854-1.85-5.625.336 0 .415-.26.673-.337.724-.168 1.164.672 2.07.594l.013.014zm19.826 33.468c.335 1.01-.518 1.94.167 3.026 0 .17-.077.17-.166.09.09.557.167 1.32-.26 1.812.518.686 0 1.86.35 2.275-.258.75.078 1.682-.517 2.198 0 .064.182.064.26.064-.08 1.293 0 2.2.09 3.362-.428.26-.09 1.27-.337 1.526 0 .064.193.064.26.064-.325.84.516 1.346.18 2.018-.078-.26 0-.39-.168-.75-.388.58-.064.84-.388 1.423.26 1.007-.258 3.194-.686 4.447.414 2.02 0 3.946-.09 5.95.58-.827.155-1.914.75-2.497-.09 1.086-.09 2.264-.673 3.622.078.737 0 1.577-.09 2.51 0 .154-.195.257-.26.413 0 .065.156.065.156.065 0 .35-.335.774-.425 1.1-.09.775.335 1.68-.26 2.365.338.75-.594 1.85-.167 2.198-.583 2.42-.336 4.94-1.253 7.203-.08 1.257-.156 2.522-.906 3.363.155.75-.09 1.164-.518 1.592.09.414-.078 1.007-.517 1.164-.155 1.032-.737 2.028-1.24 3.102-.093 0-.17.18-.26.18-.078-.076-.078 0 0 0-2.263 3.88-8.794 5.627-12.092 2.614 0-.13 0-.194.065-.26-.595-.518-1.604-.943-1.344-1.938-.078-.182-.26-.258-.325-.44 0-.904-.336-2.096-.518-3.025-.154-.905-.154-1.837-.154-2.77l.168-.257c0-.932-.09-1.85-.09-2.846.077-6.232 1.5-12.776 2.585-18.647.092-.687.52-1.268.596-1.94.168-1.85.775-3.44 1.01-4.953 0-.09-.08-.09-.17-.09.686-2.587.854-4.786 1.772-7.14 0-.076-.077-.167-.155-.167 1.085-3.843 1.59-7.204 2.936-11.25 0-.065-.17-.065-.26-.065.595-2.108 1.1-4.037 1.604-6.21h.336c.583-3.697 1.758-6.892 2.43-10.603.428-.324.596-.388.52-1.074.58-1.344.58-2.688 1.42-3.775.26-2.275 1.773-4.37 2.355-6.466.257-.09.257-.428.517-.518.388-2.173 2.172-4.01 2.586-5.95.26.078.168-.167.336-.167.427-1.358 1.604-2.716 2.11-4.293.102 0 .102-.09.257-.09 1.424-3.364 3.623-6.467 5.304-9.894.517-.336.84-.84 1.1-1.513.167-.09.257-.168.413-.26.09-.84.84-1.084 1.345-1.59.18 0 .26.17.26 0 1.344.673 2.52 1.165 3.878 1.682v.258c1.592.414 1.94 2.095 3.363 2.677.155.517.388 1.604.517 2.432 0 .258-.193.35-.26.426.13.35-.258.905.066 1.1-.336 1.422-.75 2.69-.906 3.776-.686.646-.607 2.263-1.525 3.103 0 .077.077.077.167.077-.517.427-.35 1.345-.944 1.772-.077.258.168.258.09.517-.594.49-.594 1.422-1.163 1.914.064.35-.18.35-.104.686-.904.776-1.085 2.2-2.094 2.846.414 1.617-1.758 2.29-1.345 3.543-.84.518-.84 1.77-1.757 2.2 0 .827-1.345 1.835-1.1 2.676-.943.906-1.784 2.458-2.716 3.455-.517 1.745-2.004 3.18-3.27 4.436 1.603-.078 3.025-.414 4.034-1.086 6.286-1.68 10.566-5.562 14.873-9.337.312.09.312.517.57.673-2.458 4.035-6.467 6.465-9.997 9.31-1.682.932-3.26 1.94-4.436 3.364-1.772 1.034-3.195 2.2-5.38 2.715 0 .13.18.13.103.387-.258 0-.44.18-.775.09-.168.427.336.776-.168 1.01.517 1.42.168 3.208.337 4.965-.155.092 0 .092 0 0v.024zM253.73 92.04c-.257-.063-.167.182-.257.26.167 0 .258-.08.258-.26zm.673 1.81c-.09.336.078.414.17.582.438-.077.36-.413.516-.905-.324 0-.415.128-.584.26.09 0 .09.063-.078.063h-.025zm.414 8.15c.09 0 .168.166.168 0 0-.092-.168-.092-.168 0zm.26-14.203c.258-.092-.09-.582-.17-.26.17 0 .08.168 0 .26h.17zm-.09-4.035c.09 0 .166 0 .166-.076-.077 0-.167 0-.167.076zm.336 8.317c.064 0 .064.18.128.18-.063-.26-.063-.673-.322-.75-.168.26-.258.828 0 .996.09-.168-.077-.517.09-.517.078 0 .078 0 .078.088-.26 0 .078.35 0 0h.027zm.555-12.83h-.258c-.233 1.163-.646 2.587-.57 4.138.518-1.1.647-2.586.816-4.14h.012zm-.155 12.195c-.156-.35 0-.595 0-.932-.156.09-.336-.257-.414 0 .063.18-.183.596-.26.854.26.168.337 0 .673.078zm.18 10.475c.415-1.086-.516-1.915.338-2.68-.75.26 0-.58-.582-.75 0 .17-.26.08-.26.26.35.324-.075.905.183 1.425-.452.336-.36 1.422-.128 1.94.26.075.26-.184.427-.184 0 .26.348-.062 0 0l.024-.01zm-.168-11.898c-.258 0-.413.063-.413.323.155-.09.49 0 .413-.335v.012zm0-1.603c-.077-.104-.077 0 0 0v.152h-.155c-.103.066-.103.312-.182.39.415.09-.426.854.26.854.076-.426.387-.596.322-1.164-.09 0-.258 0-.258-.104.09 0 .09-.078.09-.17.414-.673.414-1.5.414-2.508-.427.26-.35 1.1-.776 1.36.26.322 0 .645.18.994 0-.08.092-.08.17-.08v.26h-.078l.013.015zm2.11.282c-.17-.166-.26-.592-.092-.93-.077.338.26 0 0 0 .09-.336.09-.75 0-1.01-.258.092-.258-.077-.414-.077-.518.906 0 2.017-.595 3.104.26.413.077.904-.18 1.255.167 1.268-.416 2.354-.26 3.944-.413.258-.077.775-.49 1.032.166-.024.166.23.413.13.518-.49.518-1.24.518-2.25.583-1.68.077-3.53.996-4.707 0-.258-.168-.336.09-.493 0 .323.335 0 0 0h.012zm-1.94 9.726c.09 0 .167 0 .167-.077-.077 0-.168 0-.168.092v-.014zm.167-9.57c.09 0 .17.167.17 0 0-.078-.183-.078-.183 0h.012zm.35-12.09c-.337.062-.427.812 0 .812.168-.58.168-.903.258-1.512-.09 0-.182 0-.26-.078-.09.18-.166.35-.257.517.09.078.336 0 .258.26zm-.26 3.362c.17 0 .26-.104.26-.26h.077c0-.104 0-.104.064-.104V79.6c-.155 0-.155.076-.155.257-.092.065-.337 0-.26.26l.013.013zm.09 5.04c-.155.132-.077.314.092.39.09-.076.09-.39-.077-.39h-.014zm.35-2.3c-.077.674-.414 1.268-.258 1.94.18-.336.426-.594.686-.842-.104-.09-.18-.167-.26-.257.156-.077.156-.258.493-.167-.078-.26.09-.26.09-.414-.336-.09-.336.09-.517.167-.065-.168 0-.336-.26-.428h.026zm.09-1.318c.156-.337.156-.092.065.153.13 0 .13.09.323.09.078-.696 1.085-.864.646-1.678h-.233c-.167.477-.336.735-1.01.903.066.26-.09.337.156.52l.052.012zm.337.646c-.182 0-.092-.35-.35-.258 0 .168-.09.84.168.516-.258-.09.26-.09.167-.258h.014zm-.26 1.295c.078 0 .078-.105.078-.184-.078 0-.078.077-.078.17v.013zm10.915-31.608c-.518.84-.258 2.107-1.164 2.78-.103.776-.943 1.162-.438 1.77-.168 0 .09.428-.26.26-.153 1.68-1.59 2.676-1.834 4.19.077.517-.09.853-.336 1.164 0-.053-.17-.053-.17 0 .22.255-.128.516-.193.697-.906.09-.428 1.938-1.346 1.77-.323 1.165-.905 2.46-1.332 3.533-.26.09-.414.336-.672.425v-.17c.09-.09 0-.09 0 0-.168 0-.26-.09-.26-.166.26-.157.092-.414.35-.648.17 0 .17-.18.337-.26-.104 0-.182-.09-.182-.18.336.09.168-.413.414-.413 0-1.103 1.512-2.265 1.163-3.53 0 .102 0 .102-.065.102.427-.996.09-1.835.518-2.585 0-.26-.26.257-.26-.092.776-.52.596-1.422 1.01-2.25-.078 0-.168 0-.168-.092.594-.438-.168-1.68.517-2.288-.35-.414.414-.75 0-1.33-.35.646-.26 1.744-1.034 2.067.105.776-.387 1.526-.737 2.106.168 1.773-1.008 3.287-1.164 5.213-.608 1.01-.182 2.198-.854 3.028.077.076.077.257.168.414-.168.09-.26.166-.337.166.168 1.424-1.008 2.433-.517 3.53-.828 1.256-.414 2.522-.996 3.944.077.583.167 1.59-.336 2.355 0 .077-.26 0-.26.077-.154.36-.154.956-.258 1.37.35.337-.065 1.1.18 1.423 0-.58.52-.646.688-1.086-.17-.23-.17.258-.26 0 .09-.49.09-.567.427-.905-.09 0-.168 0-.168-.09.75-.75.415-2.263 1.086-2.768-.078-.258 0-.518-.167-.672 0 .09-.17.09-.26.09-.076.168 0 .647-.322.827.155-.775.155-1.1.387-1.77h.26c.09-1.423.906-2.588 1.035-3.777.388-.26.646-1.332.737-2.006.336-.336.336-.672.672-.904-.104.388.388-.104.388.154-.064.168-.155.518-.258.646.36-.13.36-.736.775-.983 0 .26-.26.597-.08.775-.75.323-.84 1.256-1.007 2.07-.583.517-1.513 1.863-.906 2.367-.104.93-1.293 1.76-.775 2.845-.336.258-.414.775-.26 1.033.092-.102.092-.348.35-.348-.336 1.512-.336 2.354-1.164 3.7.57.515-.182 1.264 0 1.86.232.078.064-.336.388-.26-.828 1.088-1.422 2.523-.905 3.945-.257.17-.594.52-.257.84-.414 0-.26.674-.492.843 1.166-.183.493-1.94 1.5-1.864-.063-.337.105-1.088.44-1.344.26.774-.334 1.42-.425 2.106 0-.09-.065-.09-.155-.09.413.594.258 1.345 0 2.095.258 0 .155.336.413.336.078.26-.426.35-.167.517.232.582-.104 1.837-.104 2.678-.516.09-.427 1.1-.18 1.422-.09.686-.18 1.863-.518 2.458.09.568.168 1.914-.078 2.173.26.518.078 1.112 0 1.423-.168.13 0 .13 0 0 .078 0 .078 0 .078.13 0 .064-.258 0-.258.155.258.348.35.775.258 1.268-.168 0-.414-.09-.336.167.09.183.336.183.336.44-.078.996.168 2.096.26 3.273-.092.167-.428 0-.337.257.517 0 .078.26.414.492 1.1-.518 1.346-1.76 2.2-2.523-.26-.166.322-.904.645-1.085.44-1.605 1.19-3.453 1.772-5.394 1.164-5.533 2.2-10.32 3.27-14.95.17-2.016.75-4.356 1.346-6.465.258-.905.258-2.51.427-3.44.09-.517.427-.906.427-1.423.078-2.068.75-4.357.75-6.724.595-1.836.104-4.01.427-5.78-.17-1.165-.583-3.105-.583-4.526-.322-.428-.322-1.268-.232-1.85-.258-.257-.09-.84-.09-1.42-.336.152-.078-.26-.26-.26-.49.412-.153 1.162-.257 1.68-.155 0-.064-.257-.322-.17 0 .338-.26.338-.26.675h.183c-.258.322-.167.568 0 .903l.025-.148zm-10.5 51.73c0-.078.077-.078.077-.17-.078 0-.078-.078-.26-.078v.26h.182v-.013zm.336-.57c.078 0 .17 0 .17-.092-.065 0-.13 0-.13.09h-.04zm0 1.345c.078 0 .17 0 .17-.09-.065 0-.13 0-.13.063l-.04.027zm.078-13.94c.09 0 .168 0 .168-.09-.077 0-.168 0-.168.13v-.04zm.776-4.372c-.26.167.09.672.26.336-.17 0-.08-.336-.26-.336zm.155-12.337c.077 0 .077 0 .077.077-.078 0-.078 0-.078-.076zm.413 6.04c.168 0 .26-.168.427 0-.258.338-.31.932-.57 1.163-.335-.323.596-.825.17-1.163h-.027zm.168 29.485v-.17h-.13v.17h.156-.025zm.453-28.385c0 .902-.335 1.512-.517 2.43-.155-.337-.078-1.423.35-1.94-.078-.077 0-.323-.26-.257.104-.324.35-.493.517-.738.336 0-.077.39-.077.48l-.013.025zm.08-5.38c0 .167-.066 0-.156 0 0-.078.167-.078.167 0h-.012zm.18-.26c0 .09-.078.09-.17.09 0-.103.105-.103.183-.103l-.013.013zm0-2.766c.09 0 .167 0 .167-.078-.077 0-.167 0-.167.078zm.258-5.02c-.103 0-.103-.18 0-.18V67.455zm.066-.44c0 .093 0 .26-.103.26 0-.09 0-.26.077-.26h.026zm.258 4.787c0 .168 0 .336-.193.336 0-.168-.09-.413.168-.335h.026zm2.237.518c-.334.492-.334 1.333-1.007 1.5.336.335-.168 1.01.427 1.164-.518.854-.776 2.457-1.617 2.624.168-.593.595-1.42.517-2.016.583-.453.324-1.37.583-1.94.414-.26.75-1.112.75-1.553.09-.256.336.104.336.182l.01.038zm-1.486-3.104c0-.104 0-.193.078-.26-.26 0-.427 0-.427.155.13 0 .194.064.36.064l-.01.04zm-.026 7.113c-.077-.077-.077 0 0 0 .092.17.092 0 0 0zm.26-4.086c-.324.234-.26-.606-.078-.943.583.09-.078.84.09.932l-.013.01zm.258-1.37c.168 0 .09.167 0 .26h-.077c0-.093 0-.183.076-.26zm0-7.476c0-.09 0-.26.09-.26 0 .092 0 .26-.09.26zm.672 3.44c-.258.09-.258-.582-.336-.077-.09-.337.26-1.01.596-1.164-.26.39-.17.74-.26 1.24zm-.168 7.734c0 .09-.077.09-.168.09 0-.077.08-.077.168-.077v-.012zm1.358-8.87c.065 1.164-.608 2.003-.685 3.013-.336 0-.09-.17-.26-.335.596-1.242.26-2.51 1.01-3.52.335.17.168.596-.078.854l.013-.012zm.337-6.143c-.09 0-.09-.092-.26-.092-.09.078-.166.518.08.518 0-.18.167-.258.167-.438l.013.013zm.568 2.262c-.168.26-.414.75-.168 1.087-.323.257-.323.827-.49 1.24-.518-1.087 0-1.68.387-2.766.26 0 .168.257.26.438h.01zm3.686-13.28l.258.076c.18-.167-.26-.258-.26-.077zm1.448 23.017c.09 0 .167 0 .167-.104-.09 0-.18 0-.18.092l.013.012zm0 .648c.426.75-.168 1.513.167 2.197.323-.943.155-1.682.49-2.626-.257.09-.077-.258-.335-.258 0 .35-.168.427 0 .686-.078 0-.336-.182-.336 0h.014zm.18-1.268c0 .103-.154.18 0 .26 0-.08.182-.157 0-.26zm1.165-2.923c-.155 0-.31 0-.31.092.155 0-.17.438.076.438.09-.166.18-.335.26-.516l-.027-.013zm.84-1.086c-.168 0-.336 0-.336.17.065.166.312.077.312-.17h.023zm-.258-.167c.18-.09.18-.337.35-.17-.337-.256.258-.427-.26-.517 0 .26-.167.35-.077.687-.168.076 0 .076 0 0h-.013zm1.035 5.625c-.09 0-.09 0-.09-.09-.08 0-.08 0-.08.09-.153-.775.26-1.42.26-2.354.595.906-.078 1.347-.078 2.354h-.012zm.076-2.354c-.323-.517 0-1.512.182-2.196.336.775-.336 1.782-.168 2.196h-.014zm.777-44.59c.064 0 .155 0 .155-.078-.09 0-.168 0-.168.078h.013zm8.303-17.46c-.52 1.165-1.1 1.76-1.772 2.588-.168 1.19-.84 1.94-1.345 2.78.257 0-.053.17 0 .337-.39.258-.39 1.01-.907 1.164.09.427-.517 1.035-.413 1.357h-.26c.26.673-.904 1.682-.75 2.69-.167.078-.257.258-.516.258.18.258-.078.49.09.737-.426.166-.58.516-.517.93-.388.078-.233.672-.57.84-.09 1.086-1.007 2.2-1.163 3.27.233 0-.258.338.156.26.335-.673 1.164-1.268 1.085-2.018.39.078.312-.336.48-.517-.168 0-.337 0-.337-.078.35.13.26-.13.517-.13 1.1-1.42 1.77-3.362 2.937-4.783 0-.518.426-.595.426-1.1 1.267-1.68 1.604-4.035 2.78-5.625 0-.518.26-.777.427-1.19-.168 0 .077-.337 0-.595.168-.078.168-.414.336-.518-.167-.388.08-.49.08-.905 0-.09-.08-.09-.17-.09-.167.168-.335.258-.58.335h-.014zm14.548 44.36c-.388-.025-.725-.025-1.125-.13-.998-.517-1.76-1.242-2.588-1.938-.685-1.06-1.526-2.16-1.604-3.584 2.172-1.1 3.62-3.026 5.69-4.268.517-.853 1.358-1.358 1.785-2.2.582-.09.517-.67 1.163-.67.17-.674.84-.842 1.1-1.423.647-.35 1.23-.776 1.553-1.423 3.296-2.715 6.206-5.638 8.585-9.337.258-.556-.168-.802 0-1.228-.427-.09-.336-.518-.427-.906-.517-.943-1.577-1.356-2.586-2.03-.516-.258-.775-.775-1.1-.93-.167-.078-.167.168-.413.09-.26-.09-.26-.336-.428-.336-3.75-.673-7.204.582-9.57 2.017-4.267 3.273-7.54 7.554-10.307 12.338-.167.777-.426 1.268-.775 1.76-.492 2.457-.996 4.785-.828 7.81.31 1.682.906 3.195 1.422 4.527.815 1.1 1.746 2.11 2.586 3.206 1.513.998 2.936 1.762 4.694 2.266.09-.104.26.064.336-.18.155.167.517.257.777.413.05-.34.478-.17.555-.17.427.052.815.025 1.19.025-.518-1.357-.324-2.637.26-3.673l.052-.024zm.814-22.038c2.936-2.094 6.467-5.275 10.825-4.694.336.336.427.84.516 1.423-.09.335-.428.516-.35 1.007-2.585 3.62-5.95 6.894-9.83 8.924-.49.492-1.33.738-1.757 1.32-2.02.93-3.88 2.108-5.626 3.193.31-4.953 3.673-7.72 6.208-11.174h.013zm67.79 7.165c.26-.077.17-.492.337-.646-1.01 5.107-3.7 9.22-5.625 13.76-.337.167-.415.58-.673.75-1.01 2.585-2.935 5.38-5.458 6.982-.776.492-1.85 1.085-3.026 1.085-2.716.08-5.147-1.162-6.402-2.947-1.268-2.586-1.268-6.13-1.008-8.897 0-.17 0-.337.258-.337-.18-.775.078-1.422.156-2.108.077-.387.26-.905.323-1.318 0-.078-.167-.26-.167-.325 0-.334.26-.672.336-1.034.258-1.42.322-2.844.905-4.085.594-3.62 1.68-6.208 2.534-9.57 1.59-.35 3.102.156 4.447.647.337.517.906.944 1.008 1.525-.167 1.514-.426 3.104-1.162 4.876-.35 2.108-1.617 3.453-2.2 5.47-.167.168-.258.413-.517.517-.077.232.427.155.09.323-.257.518-.75 1.008-.58 1.68-1.423 1.255-1.166 3.622-1.59 5.37-.09 1.938-.597 2.778-.17 4.784.08.258-.167.258-.167.427.58.84.646 1.68 1.422 2.354.516.167.904.414 1.345.647 1.254.258 2.198-.57 3.103-1.074 3.944-3.103 6.557-7.55 8.574-12.596.26 0 .08-.324.337-.232.583-1.682 1.346-3.285 2.33-4.617.258-.775.516-1.512 1.11-1.85.156 0 0 .338.066.518l.063-.078zm-12.362-19.527c.517.414.944.996 1.36 1.513.09.647-.17 1.255 0 1.837-.75.647-1.09 1.76-2.265 2.005-2.585-.336-3.698-3.854-1.85-5.625.338 0 .428-.26.674-.337.736-.168 1.163.672 2.068.594l.014.014zm23.95 48.755h-.167c-.195-1.76-.623-4.01-.52-6.208-.515-1.85-.684-4.035-.942-5.625-.698-1.1-.75-2.846-1.035-4.436-.866-.673-1.487-1.682-1.526-3.105 0-.39 0-.778.027-1.165-.492-1.772-.776-3.75-1.76-5.083.17 0 .26-.18.52-.104-.092-.58-.428-1.008-.686-1.59-.08-1.113-.75-2.367-1.087-3.285.156-.168-.102-.336.065-.595-.84-1.914-.582-4.177-.905-6.026.064-.09.155-.258.324-.35-.156-.077-.324-.167-.26-.413.61-1.76 1.294-3.7 1.94-5.38 1.034-.52 1.034-2.032 2.108-2.368.258-.84.84-1.345 1.345-1.94.26 0 .26-.078.583-.167.167.09.258.35.35.517 0 3.52-1.462 5.69-2.2 8.73.26.064.39.516.26.736.48-.077.814.427 1.24.672.582 0 .905.518 1.165.582.09 0 .09 0 .09.078.583-.065 1.423 0 2.017.18 1.242-.167 2.678-1.008 2.586-2.52.583-.427.337-1.604 1.256-1.862.348-.647.168-1.682.84-2.006.258-1.253.09-2.198 0-3.685-1.5-3.88-6.467-5.21-10.476-6.053-1.358.52-2.367 1.346-3.544 2.018-2.275 2.69-4.63 6.208-4.966 9.998-.258.167-.335.517-.517.75-.322 2.78-.413 5.64-.257 8.405.258 3.944 2.12 7.05 2.975 9.984 0 .167-.104.167-.104.26.517 1.007.84 2.35 1.1 3.53.35.478.426 1.423.685 1.99-.337.26-.17.774-.093 1.165-2.935 2.624-5.12 5.56-7.98 8.146-.335.855-.904 1.528-1.59 2.032-.09.518-.258.854-.672.905-.517 1.203-1.008 2.302-1.94 3.052-.258 1.1-.75 1.938-1.332 2.767-1.513 3.71-3.53 8.757-3.026 13.448.155 1.347.828 2.847 1.68 3.88.156.26.57.322.648.493.182.257.427.67.932.67.167.26.09.26.26.52 1.162.155 1.498.738 2.43 1.33 2.353.17 3.44 1.425 5.69 1.425.18-.168.437-.26.607-.336 1.254.26 2.093-.168 3.026-.52.905.26 1.33-.645 2.263-.645 1.163-.84 2.586-1.863 3.775-3.026-.078-.336 0-.258.092-.595.84-.413 1.254-1.59 1.68-2.768.325-.09.26-.58.648-.58.104-.26-.234-.17-.156-.428.595-.672.517-1.85 1.164-2.77.517-2.585 1.112-6.1 1.358-8.533-.26-1.355-.26-2.715-.078-4.136l.09.04zm-8.483 14.87c-.426.75-1.008 1.257-1.345 2.007-2.353 1.266-3.62 4.46-7.306 3.775-.168.167-.336.26-.673.167-2.768-.58-4.954-2.095-5.303-4.862 0-1.008.104-2.196.18-3.53.647-2.327 1.074-4.656 2.16-6.854.17-1.165.777-1.758.932-2.612-.26-.168-.44.93-.777.687.167-.26.167-.672.414-.904-.156-.854.594-1.36.775-2.2 1.682-2.768 3.854-5.043 5.858-7.474 1.94-1.164 3.104-3.17 5.045-4.347-.08.337-.415.337-.52.674.26-.093.44-.17.52-.428.09.93.516 1.514.335 2.354.854 4.114 1.293 8.316 1.164 12.595-.065 3.702-.983 6.984-1.488 10.994l.027-.04zM365.49 57.9c0-.13.08-.207.26-.207 0 .09-.26.352-.26.168v.04zm.26-.193c0-.078.08-.17.156-.17 0 .092 0 .17-.168.17h.013zm.156-.17c.168-.335.414-.49.672-.645-.17.31-.336.568-.672.646zm.672-.67c.17-.415.427-.648.84-.83-.258.336-.517.674-.84.842v-.013zm67.3-1.942c-.13.065-.182.13-.285.183-1.345-.17-1.513-1.425-2.276-2.098.336-.516-.167-.84-.26-1.342-.154-1.088.777-2.354.855-3.533.077-.336-.09-.414-.168-.58.44-.428.44-1.423.775-1.942-.077-1.5.84-2.43.646-4.007.453-.44.777-1.424.518-2.457.18 0 .18-.08.35-.08.078-1.084.336-1.59.84-2.43.517-1.772.932-4.203 1.19-6.208-.167-1.19.583-3.7-.09-4.966 0-.337.09-.337 0-.582-.168-.26-.26.26-.414 0-.17-.776-.905-.84-1.345-1.345-.337-.09-.09.415-.415.337-.167-.194-.426-.363-.672-.453-.09-.415.337-.415.414-.75-.414-.092-.906-.26-1.422-.17-.09-.258.26-.167.168-.426-.414 0-.646-.258-.906-.155-.426-1.165-2.586-.518-3.104-2.03-.516 0-.595.18-.93.18 0 .517 0 1.008-.26 1.164.428.607.428 1.616.674 2.366-.44 3.013-1.19 6.04-1.772 9.233-.427 1.27-.775 3.104-.93 4.954 0 .168-.22.09-.13.35-.09 1.254-.517 2.094-.595 3.18-.517 1.682-1.604 2.846-2.2 4.528-1.253 1.422-2.675 2.69-3.593 4.37-.777.583-1.514 1.592-2.277 1.85-.427.775-1.267 1.1-1.77 1.682-.17 0-.17.09-.26.09h-.84c-.26.52-.906.582-1.423.75-.518-.168-.414-.827-.75-1.084 0-.414-.09-.647-.26-.996-.167-1.577.337-1.94.337-3.105.517-1.42 1.344-3.012 1.68-4.436 1.01-.685.932-2.2 1.772-3.207-.09-1.036.672-1.165.583-2.2.167-.09.258-.426.517-.426.077-.996.323-2.172 1.163-2.677-.167 0-.257 0-.257-.168.168-.428.517-.673.595-1.27.517-.425.904-1.008 1.163-1.68 2.108-2.457 4.63-4.526 7.152-6.556.517-.078.905-.336 1.346-.583.103-.645.362-1.163.362-1.835-.26-.168-.337-.595-.518-.905-.75 0-1.085-.698-1.94-.608-1.332.776-2.327 1.85-3.427 2.768-.167.518-.412.93-.903 1.1v.31c-.61.426-1.036 1.035-1.293 1.68-3.104 4.036-5.86 8.317-7.89 13.45-.387 1.165-.646 2.264-1.163 3.105 0 .84-.58 1.59-.413 2.353h-.258c-1.243 4.113 0 9.053 3.8 9.572.325-.17.414-.17.75 0 3.454-1.347 5.975-3.44 8.07-6.298.167 0 .09.258.258.258.414-.608.84-1.11 1.513-1.37.093 1.42.777 2.353 1.19 3.45.338-.152.17.093.415.093 0 .168-.26.092-.167.336.775 1.42 1.94 2.353 2.948 3.44 1.346.413 2.52.827 4.034.994.673-.258 1.423-.412 2.354-.412.13-.105.297-.236.44-.338-.686-.647-1.14-1.423-1.164-2.456l-.133.035zm86.284-24.416c0 .26-.337.182-.337.427 0 .09.17.09.258.09-.09.182-.258.182-.427.182-.128-.09-.128 0 0 0v.336c-.697.414-.697 1.087-1.55 1.422 0 .517-.646.336-.582.905-.337.103-.52.36-.906.36 0 .157.077.157.077.325-.646.336-1.163 1.1-1.68 1.772-.078-.09-.078 0 0 0-.157.414-.648.078-.648.672-1.098 0-1.266 1.422-2.198 1.68-.078.17-.26.26-.17.492-.258.09-.412.168-.672.168-.334.517-.84.93-1.512 1.1-.092.078-.092.413-.182.518-1.164.827-2.328 1.576-3.362 2.508-1.165 0-1.5.996-2.328 1.346 0 .49-.26.646-.18 1.163-.26.09-.26-.155-.518-.077.685.75-.49 1.254-.26 2.017-.063 0-.13.077-.31.077v.778c-.427.568-.687 1.422-1.268 1.836-.26.906-.673 2.326-1.345 3.103 0 .26.09.26.335.26-1.01.49-.84 1.254-1.68 2.002.26.17-.078.648.09.777.322 0-.103-.778.322-.687v.673c-.336 0-.425.323-.594.154-.182 1.268-.84 2.78-1.77 3.53.075.595-.183.842-.43 1.1-.077.26.09.26.09.414-.58 1.165-1.42 2.61-2.586 3.453v.388c-.854-.076-.943.582-1.19 1.01-1.848.75-3.53 1.68-5.38 1.85-.774-.325-2.028-.157-2.365-.905-.827.075-.996-.427-1.682-.427-.155-.428-.077-1.27-.49-1.424.232-.17 0-.34.154-.687-.672-1.165.336-2.432.336-3.686.168 0 .168-.104.323-.104.168-1.165.427-2.328 1.165-3-.063-.595.44-.776.518-1.514.426-.08.35-.647.775-.75.828-2.265 2.68-3.532 3.854-5.457 2.782-2.77 5.82-5.123 9.08-7.373.75.064.84-.518 1.423-.607.672-2.587.93-5.95.425-8.795 0-.194.09-.194.183-.258-.338-.517-.17-1.267-.338-1.94-.516-2.276-2.107-5.043-3.88-5.12-.155 0-.735.257-1.072.257-.104 0-.258-.18-.258-.18-.933.258-1.27 1.008-2.277 1.254-.943 1.01-2.457 1.346-2.948 2.69-.517.182-1.007.35-1.007.945-.854.078-.854 1.163-1.526 1.422.167.905-1.1 1.01-1.01 2.095-.168.09-.258.09-.336 0 .078.26 0 .26 0 .595-1.1 1.164-1.604 2.715-2.69 4.01.17.517-.518.71-.167 1.034-.325.26-.648.518-.57 1.164-.842 1.526-1.513 2.794-1.772 4.89-.26 0-.09.335-.35.335-.18 1.033.078 1.358-.35 1.94-.167 3.103-1.422 6.388-2.352 8.988 0 .568.102 1.24-.324 1.422.518.58 0 1.164 0 1.59-.84 0-1.008.905-1.77.647-.182 0 0 .428-.092.596-.595.077-1.68.155-2.276-.18-.168 0-.414-.093-.337.167-.736-.428-1.836-.52-2.675-.854-.08-.233-.26-.492-.08-.828.092-.337-.322-.168-.322-.518 0-.232.26-.232.427-.323.092-1.32.84-2.25.776-3.492.323-.854.155-1.94.568-2.87.843-8.238 2.277-15.028 3.7-22.593.415-.828.336-2.173.517-3.362.57-1.68.155-2.754.828-4.01.077-2.198.75-3.285.75-5.38.336-.335.168-1.085.427-1.512.168-2.354.905-4.695 1.01-6.983 1.267-4.94 1.94-10.307 3.283-15.597.233.09.155-.156.324-.156-.106-.336-.184-.672-.26-1.034 1.76-.646 3.427.362 5.043.776 1.24.672 2.07 2.43 1.332 3.88 0 .49.233 1.073.233 1.577 0 .26-.26.428-.324.673 0 .156.09.517.09.647-.103 1.526-.606 2.367-.517 3.362-.672 2.457-.775 5.38-1.68 7.823 0 .17.076.26.167.337-.582.686-.336 2.367-1.098 2.845.258.35-.17.686.09.944-1.942 4.373-2.198 10.502-3.272 15.7 1.938-2.093 4.11-4.693 6.982-6.207.647-.776 1.914-.84 2.677-1.513 1.94-.517 4.694-1.163 6.467.168 1.5.078 2.17.906 3.27 1.345-.09.583.415.078.337.673.906.155 1.165.905 1.488 1.68.853.74 1.1 1.993 1.77 2.846.183.996.26 1.76.428 2.587 0 .645-.168 1.163.168 1.512-.412 1.267-.516 1.68-.412 2.69-.52.258-.336 1.163-.336 1.85-.17.258-.518.685-.26 1.19 1.515-.777 2.69-2.018 4.14-2.523.154 0 0-.415.154-.518 1.345-.155 1.836-1.423 3.18-1.746.092-.426.778-.336.778-.93 1.24-.416 2.172-1.838 3.595-2.33-.092.066-.092.324 0 .39.167-.066 0-.57.412-.39-.26-.775.854-.685 1.27-.943.515-.26.748-.414 1.344-.582l.106-.063zm-20.744 16.27c0-.078-.09-.078-.168-.078-1.812 1.086-3.75 2.095-5.004 3.775-2.534 1.772-3.62 5.044-5.64 7.306-.076 1.257-.904 2.356-1.162 3.53.336 1.166-1.27 1.94-.352 2.938-.09.337 0 .518.157.75.84-.387 2.107-.736 2.455-1.33.234-.17.39-.337.737-.416.258-.414.57-.75.905-.904.077-.363.26-.687.646-.687 1.294-1.68 2.368-3.515 3.713-5.106.427-1.682 1.85-3.194 2.017-5.134.26.092.26-.167.414-.167 0-.26 0-.492-.076-.584.828-1.01.647-2.587 1.33-3.88l.028-.014zm-6.206 14.534v-.167h-.183v.168H493.21zm22.838-27.983c.077 0 .17 0 .17-.078-.093 0-.17 0-.17.077zm2.197-1.59v-.195h-.18v.168h.167l.013.026zm1.488-1.462c-.52 0-.582.426-1.01.517.168-.35.674-.517.93-.776.053 0 .053.182.053.26h.027zm-2.43 23.484c-.168.168-.09 0-.338 0 0 .595-.568.933-.063 1.346-.337.673-.413 1.008-.077 1.77 0 .195-.183.105-.35.105 0 .258.077.258.336.258-.44.415.568 1.256.324 1.76 0-.09 0-.09-.09-.09 0 .09 0 .09.09.09.335.26.257.84.413 1.164 2.106-1.59 3.53-3.854 5.302-5.688 1.682-2.848 4.1-5.045 5.366-8.318.778-.646 1.1-1.68 1.68-2.508.093-.776.43-1.164.688-1.773 0-.258.26-.18.335-.336 1.166-3.105 2.848-5.64 4.01-8.743.105 0 .105-.078.26-.078.428-1.164 1.036-2.096 1.773-2.936-1.515 5.043-3.52 9.83-5.46 14.2-.076.517-.076 1.035-.516 1.344-.234 1.604-1.5 3.364-1.836 4.786-.518.777-1.164 1.423-1.423 2.522-1.513 1.94-2.69 4.188-4.37 5.872.167.17 0 .257 0 .414-1.255 1.51-2.096 3.024-3.518 4.46-1.682.776-4.786 2.2-6.727.853.092-.104 0-.104 0 0-2.767-.776-3.855-4.047-4.01-6.646.39-.52.066-1.347.233-1.683.104.168.104 0 0 0 .104-5.044 1.163-8.743 1.268-13.71.427-.567.337-1.073.518-2.068.414-.427.582-1.772.414-2.277.995-3.363.995-6.13 1.837-9.08-.428-.582.412-1.422.258-2.263.326-.517.26-1.085.648-1.422 0-.09-.156-.09-.234-.09.26-1.086.414-2.354.906-3.272.104-.336-.156-.26-.232-.427.413-1.333.336-3.105 1.254-4.113.078-.35-.427-.18-.167-.426.258-.103.167.156.335.156.336-.26.414-.75.673-1.087-.518.077-.673.336-.673.827-.75-.646.52-2.508.414-3.103.09-.26.09-.08.337-.08.09-.257-.258-.166-.168-.425.26.103.194-.156.362-.156-.078-.827.336-1.242.517-1.94 0-.13-.09 0-.26 0 0-.13.08-.258.26-.258 0-.39 0-.31-.09-.646.35.09.09-.414.43-.337-.17-.57.167-1.655.67-2.172.583-3.517 2.096-7.798 3.532-11.25.076-.582.258-1.164.672-1.423.905-3.026 3-5.625 4.94-7.98.336-.257.75-.348.84-.775 1.423.09 2.69.518 3.943.182.078 0 .078-.168.078-.26.776.09 1.267.17 1.772.596v.413c2.52 2.277.516 6.208.413 9.234-.673 1.85-1.008 4.035-1.682 5.625.26.608-.413 1.165 0 1.682-.582.685-.672 1.862-1.5 2.29 0 .077 0 .167.194.167-1.422 2.264-2.457 5.044-4.37 6.803-1.346 1.087-2.264 2.678-3.7 3.622.104.065.104.233.104.388-.775 1.358-.906 3.04-1.772 4.462.182.258.26.608-.065.776.673.388-.335.906-.09 1.423-.492-.168-.337.427-.647.647.31.258.066.698.39 1.035-.39.776-1.334 1.513-.906 2.586-.428-.154-.26.363-.518.363.258.905-.584 1.836 0 2.768-.492.673-.647 2.02-1.01 2.846 0 .258.26.168.26.427-.776 1.862 0 3.543-.933 5.134.414.414-.336.776.076 1.008.092.26-.255.09-.255.336.18.933-.26 2.458-.415 3.544 0 .17.258.078.258.258-.09.828-.426 1.164-.257 1.94-.336-.103-.336.233-.673.233 0 .078.09.167.26.167-.09.18-.17.26-.26.427.337 1.162-.337 2.198-.17 3.363-.075 0-.075.09-.257.09.427.996-.078 1.59-.078 2.845.13 0 .194 0 .194.09.336 0 .336-.323.517-.583h.077c-.077.52 0 .52-.155.84l-.115-.116zm-6.13-10.58v-.168h-.17v.13h.17v.038zm0 8.15h.167c.076-.09.076-.17-.092-.26 0 .09 0 .09-.103.09v.13l.027.04zm.258 11.665c.155-.17-.26-.26-.26-.09.077 0 .077 0 .077.09h.182zm3.75-35.953c.182 0 .35 0 .35-.156-.517-.258-.75.414-.674.996.26-.09.09.26.427.155.104-.336-.26-.258-.26-.517.195.104.13-.155.26-.155.44.18.193.776 0 1.034.36-.09.36.155.36.49-.167.092 0 .092 0 0 .17-.412.752-.905.416-1.085h.324c-.26.26.09.673-.26.75-.077.258.26.258.26.427-.168.167-.415.26-.415.582.078.09.415-.078.415.09-.26.078-.582.078-.582.415.335.063-.26.568.167.813-.167.09-.167.336-.335.336-.17-.428.076-1.1.168-1.527-.168-.077-.674-.155-.428-.517h-.414c0 .362.077.258 0 .517-.337 0-.517.09-.517.336.348.258.93-.092.853-.26.103 0 .193.08.193.168-.336.517-1.423.906-1.1 1.604-.427.336-.336 1.268-.518 1.422 0-.155.26 0 .336 0 0-.492.596-.324.52-.905-.18 0-.35 0-.35-.182.26-.336.31-1.01.737-1.01-.428.52.078 1.772-.672 1.94.167.583-.595.415-.776.75.102.078.18.078.35.078-.17.168-.17.518-.338.673.17.167.17-.08.517 0 .078-.26 0-.26.078-.583-.092 0-.17-.09-.26-.09 0-.17.337 0 .518-.078.154 1.42-.685 2.675-.595 3.943.582-.078.338-1.01 1.01-1.01-.168.75-.337 1.424-.595 2.174.258.09.258-.09.414-.09-.092.607-.595 1.526-1.1 1.19-.26.258-.414.517-.26.84-.154 0-.154.09-.323.09.26.26 0 .518.337.75.077-.078 0-.335.168-.335.077.336-.168.336-.09.594.167 0 .427-.336.594-.09-.44 0-.104.336-.18.673-.338-.08-.17.334-.338.413 0-.09-.077-.183-.154-.183-.092.26-.092.35-.337.26-.09.594-.413 1.253-.337 1.94-.168.154-.336.154-.427.323.427 0 .09.35.26.517.335 0 .335-.336.673-.336-.092.09-.092.168-.092.257-.414.26-.517.843-.75 1.257h.336c-.09.09-.168.09-.168.257.336.08.168.415.092.777.154 0 .322 0 .322.065-.26.583 0 1.166-.75 1.346-.17.324.26.065.26.26-.183.22-.43.48-.933.39.414.257.078.853.336 1.1-.48 0-.065.903-.388 1.253.078.258.322.258.322.517-.336.322-.413.828-.258 1.332.258.09.182-.26.428-.168v.09c.168 0 .09.26.257.26 0-.194-.088-.26-.088-.362.103-.17.36-.17.516-.337.518-1.086.427-2.017.595-3.013-.26-1.1.337-2.69.168-3.79.156-.064.067-.387.26-.387-.104-1.604.646-3.04.48-4.46.775-1.166.426-3.197 1.1-4.452-.155-1.073.426-1.745.18-2.663-.167.168-.517.077-.517.335h.26c-.26.324-.26.996-.673 1.164.336-1.165.257-1.682.672-2.69.17.078.258-.26.336 0 0 .337-.518.518-.336.75.258.092.17-.335.336-.335 0 .168.09.258.168.258.582-2.767 1.01-5.457 1.423-8.237-.337.26-.26-.168-.583-.168.092.26 0 .595-.336.595.17-.167.17-.517.26-.84-.427-.09-.595.168-.842.26.065-.35-.103-.52-.438-.428-.078.336.26.517 0 .776.336.066.168-.36.428-.36.063.517.063 1.603-.44 1.164l-.016.048zm-3.687 35.862c.092 0 .168 0 .168-.078-.05 0-.128 0-.128.09l-.04-.012zm.688-18.804c-.066.336-.324.517-.324.995.35 0 .518-.737.35-.995h-.026zm.102 8.302c-.26.337 0 1.1-.427 1.267.167-.427 0-.93.257-1.163 0-.18-.426-.687.092-.607-.078.258-.158.427.09.517l-.014-.015zm-.17 7.06c0-.154-.09-.26-.167-.26 0 .105-.065.105-.065.183.08 0 .08.09.26.09l-.028-.012zm0 3.958c0-.09.093-.09.093-.17-.078 0-.078-.09-.26-.09v.26h.182-.015zm.093-9.492h-.158c0-.077.17-.077.17 0h-.013zm-.158 2.522c.26.336.583 1.165 0 1.422.08.336.17.26.08.673.426.324.426.906.336 1.425h.517c.078-1.683-.933-3.195-.182-4.71-.168-.336-.168-.336-.077-.75-.258-.023-.337.233-.517.323.18.168.18 1.515-.158 1.592v.025zm.26-4.617c0 .102 0 .102-.103.102 0-.09 0-.09.09-.09l.012-.012zm.077-.258c.078 0 .078.104.168.104v.165h-.26c0-.063 0-.128.08-.257l.01-.013zm1.59 10.772c-.607-.17-.775-.776-1.357-.84 0 .167-.414-.09-.26.257.672.078.93.647 1.604.583h.012zm-.44 1.68c-.078-.427-.672-.427-.995-.593 0 .166.154.166.064.427.413-.26.413.26.905.167h.025zm-.905-10.085c-.09.167.156.427.156.167-.078 0-.078-.168-.167-.168h.012zm.647 6.982c-.156-.26-.323-1.034-.647-.687.39.092.077.598.647.674v.014zm-.49-11.43c.076 0 .076.22 0 .22 0-.077-.08-.156 0-.26v.04zm.413-17.59c-.17.09-.414 0-.414.26.415 0 .906-.52.415-.777 0 .13-.08.13-.17.13-.076.31.26.128.17.387zm-.17 14.872h-.258c0-.077.258-.077.258 0zm-.09-.168c-.103 0-.103-.167-.103-.322.336 0 0 .155.09.322h.013zm.066-1.68c-.26-.08 0-.415.17-.415 0 .26-.17.26-.17.427v-.013zm.092-12.752c0 .258-.26.258-.168.595.22.09.387-.672.13-.58l.038-.014zm.077 5.212h-.17c0 .09-.076.09-.076.168.13 0 .22 0 .22-.168h.025zm.167 1.68c0-.167 0-.258-.13-.258v.17c.077 0 .077.088.156.088h-.026zm0 3.944c0 .08-.053.08-.13.08 0-.092.077-.092.156-.092l-.026.012zm-.13 2.587v-.08c.077 0 .077.08 0 .08zm.49-1.294c-.09 0-.09-.194-.09-.26-.26-.102-.064.26-.31.157-.09-.336.258-.258.517-.258 0 .18-.104.258-.104.35l-.012.01zm-.334-6.647c.167.154.258-.26.077-.26 0 .09 0 .09-.077.09v.196-.027zm.412-2.277c-.168.167-.516.594-.335.84.75-.168.414-1.165.75-1.59-.078 0-.156-.17-.26-.17-.155.26-.49.26-.49.674.167 0 .258.13.335.22v.026zm-.077-6.984c-.168 0-.258.103-.258.18.167 0 .258-.077.258-.168V28.4zm-.09 35.64c0 .235.194.235.452.235 0-.26-.18-.26-.426-.26l-.027.026zm.103-25.373c-.075.26.17.26.43.26 0-.26-.157-.26-.416-.26h-.013zm.156-10.5v.258c.26.156.26-.35 0-.258zm.26 9.738c0 .167-.26.078-.26.258.182.26.52-.168.26-.258zm.26.93c0 .156 0 .324-.092.415.26.168.414-.518.076-.414h.015zm.41-8.573c-.256 0-.334.077-.426.258.26 0 .39 0 .39-.258h.037zm.26 3.18c0-.322.427-.645.777-.413-.35.167-.183.257-.596.335v.258c-.09 0-.183 0-.183-.167v-.013zm.336 1.683h-.17c0-.078.17-.078.17 0zm.17-2.51c-.39-.077-.312-1.01.258-.84-.154.31-.077.478-.26.814v.025zm.683-9.92c-.077.26.17.35.09.597-.178.336-.928.84-.515 1.164.17-.233.258-.493.516-.646.066.077.158.154.233.258.09-.104.167-.258.426-.258-.064-.686.26-.93.7-1.1 0 .414-.26.582-.428 1.008.943-.258.686-1.604.943-2.2-.167 0-.167-.076-.334-.076 0 .426-.337.426-.17.84 0-.168-.84-.414-.595-.078-.335.13-.58.31-.84.48l-.025.012zm.337 2.458v-.18c0-.168-.348 0-.516-.078 0 .258-.26.168-.26.414.52-.26.09.128.52.128 0-.155 0-.323.256-.323.078.26.414-.077 0 0v.038zm-.257-.452c.155.156.23-.257.063-.257 0 .09 0 .09-.078.09v.156l.015.01zm.23-1.94v.17h-.167v-.17h.168zm-.075 5.045h-.092c0-.09.092-.09.092 0zm.67-2.522c-.257.077-.517.155-.517.49.26 0 .26.17.595.08 0-.48.414-1.242.09-1.578-.335.18-.167.776-.425.776-.17.337.258.078.258.26v-.027zm-.334-5.522c0 .09-.092.17-.092.337.362 0 .26-.26.13-.336h-.038zm.077 1.1h.167c0-.078 0-.078.09-.078v-.194h-.167c0 .08 0 .08-.065.08v.18l-.025.012zm.335.582c-.258 0-.168.168-.335.258.167.17.335 0 .335-.258zm0-1.423c-.077 0-.077.258 0 .258 0-.09.09-.09.17-.09-.17-.258.09-.258.09-.595-.26 0-.428.09-.428.337.09 0 .17 0 .17.09h-.002zm.35-1.59c0 .413-.09.672-.35 1.085.518.103.518-.725.337-1.06l.013-.026zm12.558-25.62c-.595 1.242-.906 2.51-1.592 3.932v.7c-1.163 2.843-2.108 6.206-3.103 9.232-.09.258.078.336.078.517-.672 1.255-.84 3.105-1.345 4.268 2.238-2.172 4.01-4.784 5.768-7.46.934-2.51 2.264-5.044 2.846-7.72.104-.337.104-.337 0-.674.183-.31.35-.815.26-1.242.672-.414-.077-1.76.595-2.263 0-1.294-.413-2.626-1.422-3.105-.674 1.24-1.513 2.16-1.682 3.673-.258 0-.258.168-.426.168l.026-.026zm9.737 32.5c0 .232-.154.232 0 .387.09 0 .09-.155.09-.31.26-.09.078.258.26.322.674-.22.674.516 1.087.62-.258.595-.413.75-.168 1.255-.313.672-.815 1.422-.906 2.52-.077 0-.167-.18-.257-.18-.157 0 .09.26.18.26-.583 1.008-.75 2.262-1.346 3.36.154 1.087-.774 2.005-.596 3.105-.09.078-.09.337-.337.337-.334 1.68-.67 2.844-1.42 4.112-.26-.17.154-.427.078-.75-.778.323-.842 1.33-.778 2.095.44-.26.104-.84.687-1.01.168 1.086-.517 2.522-1.01 3.195-.192-.427.26-.336.13-.776-.568.103-.258 1.112-.828 1.19.776.93-.75 2.52.09 3.44-.09.194-.258.194-.335.26-.09.36.168.438.168.697-.49-.09 0 .843-.49.75-.168 1.45-.336 1.94-.26 3.467 0 .17.092.258.26.258-.26.647.075 1.424.334 2.07.168 0 0-.323.08-.492.167.17.167.518.257.84 1.01 0 1.163-.904 1.94-1.164 1.073-1.19 2.25-2.275 3.104-3.697.322-.26.646-.597.827-1.1.338-.168.428-.674.842-.84 0-.183.168-.26.09-.52 2.586-3.88 5.043-7.89 7.14-12.337 1.252-1.422 1.834-3.53 3.193-4.875.05-.698.724-.866.724-1.616 1.254-1.422 2.433-2.948 3.53-4.526.48-.104.57-.517.815-.776.516 0 .672-.323 1.162-.323.854.09.946.93 1.862.93 0 .336.09.583.518.518-.09.258-.09.583.26.583-.105.582-.105 1.086-.105 1.836-.09 1.32-.517 2.587-.684 3.672-.077.518-.518.907-.583 1.424-.427 1.77-.596 3.452-1.268 5.38-.076.09-.323.09-.582.09-.18 1.514-.774 3.454-.09 4.786-.09 1.512.077 2.78.582 3.62.387.337.996.673 1.68.583 1.165-.077 2.07-1.344 3-2.353.338-.336.843-.646 1.1-.905.75-.944 1.165-2.276 1.85-3.453.415-.777.906-1.424 1.424-2.278.582-2.263 1.68-4.113 2.78-5.95V34.3c-.337 1.164-.854 2.198-1.1 3.44-1.345 2.936-2.52 5.95-3.775 8.988-.427.414-.774 1.01-.84 1.76-.828.866-1.5 1.94-2.42 2.715-.334-.076-.594.26-.672-.076-2.264 1.164-4.526-.685-5.87-1.94-.26-.84-.776-1.513-.933-2.43.26-1.01-.167-1.94-.49-2.69 0-1.604-.168-2.846.078-4.708.077-.258.336-.258.412-.517-.167-1.32.687-2.846.17-3.933-.35.155-.35.646-.428.828-.09.09-.26.09-.413.09-2.277 3.622-4.45 7.243-6.208 11.446.492 0 .388-.594.492-1.007.84.516-.75 1.512-.414 2.095-.26.154-.324.518-.583.58-.413 1.684-1.162 2.938-2.353 3.855-.31 1.345-1.42 1.94-1.81 3.27-1.94 1.165-3.194 4.036-6.05 3.79-3.44.996-6.805-1.526-7.218-4.965 0-.168 0-.26.167-.26-.26-.58-.26-1.087-.168-1.85-.52-1.422 0-2.094-.26-3.103.336-1.514.09-3.194.336-4.708.426-2.78 1.448-5.82 2.106-8.743.26-1.008.428-1.94.777-2.766.322-1.113.387-2.367.736-3.285.258-.595.518-1.682.932-2.458-.092-.49.168-.737.413-.996 0-.945.26-1.293.596-1.94-.09-.35 0-.44-.09-.776.168-.078.336-.155.336-.415 1.318.646 2.664 1.332 4.423 1.68l.038.04zm-4.358 17.276c0 .168-.17.26-.09.518.31.064.13-.35.063-.518h.027zm1.163-2.457V40c-.077-.025-.077-.025-.154-.025v.167h.168l-.014-.013zm44.928 11.99c-1.423.387-3.015.516-4.954.128-1.008-.49-1.758-1.256-2.586-1.94-.687-1.073-1.525-2.173-1.617-3.595 2.198-1.087 3.62-3.027 5.716-4.268.518-.854 1.345-1.36 1.76-2.2.594-.076.517-.67 1.163-.67.18-.673.852-.842 1.11-1.424.673-.348 1.254-.775 1.59-1.42 3.234-2.69 6.21-5.64 8.536-9.338.26-.556-.155-.8 0-1.23-.414-.077-.335-.516-.414-.904-.516-.944-1.602-1.358-2.612-2.03-.517-.26-.775-.776-1.085-.93-.17-.08-.17.167-.428.09-.258-.09-.258-.337-.426-.337-3.775-.67-7.216.584-9.57 2.02-4.267 3.27-7.552 7.552-10.345 12.337-.13.776-.39 1.267-.737 1.77-.492 2.43-.995 4.785-.827 7.812.336 1.68.93 3.18 1.423 4.527.853 1.085 1.77 2.093 2.613 3.192 1.512 1.01 2.935 1.76 4.706 2.262.078-.088.258.078.322-.18.168.17.52.258.777.426.078-.36.492-.193.57-.193.957.08 1.682-.09 2.457.17.594-.352 1.604-.352 2.107-.945.168 0 .168.258.335.258.905-.297 1.735-.646 2.586-1.06-1.034-.388-1.81-1.254-2.198-2.354l.028.025zm-3.014-21.793c2.938-2.095 6.467-5.276 10.826-4.694.335.336.426.84.516 1.422-.09.336-.427.518-.35 1.01-2.586 3.62-5.947 6.892-9.827 8.923-.49.49-1.333.737-1.76 1.32-1.99.93-3.84 2.106-5.6 3.192.34-4.953 3.7-7.72 6.21-11.173h-.015zM647.015-6.53c-.324.258-.52 1.422 0 2.017-.388 1.087-.064 1.59-.646 2.846.075.93-.855 1.85-.688 2.78-.077.13-.168.312-.414.312-.09 1.163-1.344 2.018-1.1 3.026-.49.31-.748.905-.748 1.423-1.034.737-1.294 2.25-1.877 3.363-.412.13-.258.49-.412.905-1.035.518-.776 1.424-1.423 2.096-.09.26.233.09.154.336-.413-.077-.257.168-.334.35-.09.078-.35.078-.35.078-.258.336-.336.776-.517 1.165-.738.103-.57 1.1-1.243 1.357-.09.26.26.168.168.414-.828.09-.582 1.164-1.164 1.513 0 .168-.076.336.092.336-.673 1.19-.595 2.793-1.268 3.71.066.673 0 1.255-.36 1.592.09.336 0 .517 0 .93-.75 1.345-.52 3.777-1.514 4.954.09 1.422-.582 2.52-.582 4.112-.155.09-.155.336-.324.426.337.582-.595 1.5-.168 1.94-.427.49-.26 1.578-.673 2.004-.09.26.26.194.17.44-.092.09-.17.336-.26.426-.078.26.09.335.09.518-.595 1.577-.67 4.1-.774 4.94-.065.258-.157.064-.39.064.39.932.154 1.94-.182 2.768-.077.337.26.26.26.518-.428 1.074 0 1.992-.518 3.17 0 .09.18.09.258.09-.582 1.356.26 2.715-.414 3.697.414.52.414 1.514.337 1.94-.09.337.492.84.17 1.513.414 1.165.49 2.434 1.5 3.36.388-.165.735-.346 1.072-.514 3.62-2.938 6.544-6.726 8.898-10.917.18-.076.258-.166.44-.256 2.845-5.562 5.947-10.826 8.896-16.295-.092.426-.336.775-.26 1.358-1.68 3.776-3.014 7.474-4.267 11.51-.183.078-.26.258-.35.337.09.774-.26 1.848-.84 2.2-.83 3.27-2.847 5.363-4.27 8.053-.905 1.01-1.85 2.02-2.52 3.196-1.514 1.42-2.588 3.166-4.786 3.93-1.086.583-2.354 1.01-3.518 1.164-2.78.35-4.965-1.59-6.13-3.36 0-.325-.13-.325.053-.493h-.337c-.608-1.162-.687-2.52-.778-3.62-.153-1.59-.646-3.183-.58-4.525.09-.75 0-1.683.09-2.433.077-.593.168-1.252.414-1.94-.415-.26.335-.995-.078-1.163.077-.26.258-.428.323-.686-.065-.996.18-1.254.104-1.94.258-.828.412-1.746.412-2.845.26-1.424.428-2.432.428-3.623.58-1.914.84-5.108 1.68-6.958.338-2.587 1.165-5.2 1.76-7.475-.077-.517-.077-.44-.077-.867.58-.168.258-1.164.646-1.5-.066-.168-.066-.35-.156-.428.168-.167.168-.582.427-.672.336-1.68.84-3.776 1.087-5.302.26-.646.517-1.577.776-2.417.22-.092 0-.338.387-.338-.26-.35.168-1.164.52-1.423-.182-1.526.826-2.2.826-3.544.09-.168.26-.336.428-.426-.168-.414.078-.84.336-1.086.078-1.526.904-2.846 1.163-4.217.518-.258.335-1.345.93-1.59 1.425-3.685 4.036-6.544 7.63-8.302.855-.104 2.536-.26 2.717.26.997-.183 1.24 1.072 1.165 1.654h.414l.065.06zm-6.207 5.38c-.647 1.68-.647 3.284-1.256 5.042.337 1.1-1.008 2.768-.672 3.945-.414 0-.26.58-.582.646.168 1.034-.75 2.198-.673 3.298.194-1.008 1.37-1.94 1.113-2.78.93-.594.93-1.68 1.68-2.535.09-.26-.077-.26-.077-.414.906-.413.57-1.758 1.488-2.262.09-.26-.078-.348-.078-.517 1.32-1.253 1.23-3.362 1.81-5.042-.153-.155-.153-.388-.153-.75.736-.854.322-2.198.26-3.208-.26-.09-.52-.09-.777-.167-1.086 1.164-1.346 3.013-2.263 4.526.078 0 .168 0 .168.154l.013.065zm25.953 38.615c.26-.077.17-.492.34-.646-1.01 5.107-3.7 9.22-5.628 13.76-.336.167-.426.58-.67.75-1.01 2.585-2.94 5.38-5.46 6.982-.736.492-1.81 1.085-3 1.085-2.69.08-5.12-1.162-6.375-2.947-1.268-2.586-1.268-6.13-1.034-8.897 0-.168 0-.337.258-.337-.154-.775.092-1.422.182-2.108.065-.387.26-.905.323-1.318 0-.078-.168-.26-.168-.325 0-.334.26-.672.35-1.034.26-1.42.323-2.844.906-4.085.595-3.62 1.68-6.208 2.522-9.57 1.59-.35 3.103.156 4.447.647.322.517.905.944.996 1.525-.17 1.514-.414 3.104-1.164 4.876-.35 2.108-1.604 3.453-2.198 5.47-.168.168-.26.413-.52.517-.063.232.44.155.105.323-.258.518-.75 1.008-.58 1.68-1.425 1.255-1.165 3.622-1.604 5.37-.078 1.938-.582 2.778-.168 4.784.104.258-.155.258-.155.427.607.84.686 1.68 1.422 2.354.518.167.945.414 1.372.647 1.254.258 2.197-.57 3.103-1.074 3.944-3.103 6.557-7.55 8.562-12.596.26 0 .09-.324.337-.232.606-1.682 1.357-3.285 2.365-4.617.26-.775.517-1.512 1.087-1.85.18 0 0 .338.102.518l-.053-.078zm-12.335-19.527c.49.414.904.996 1.33 1.513.092.647-.167 1.255 0 1.837-.748.647-1.085 1.76-2.262 2.005-2.587-.336-3.697-3.854-1.85-5.625.336 0 .428-.26.673-.337.75-.168 1.164.672 2.095.594l.015.014zm18.724 7.94c-.092 0-.092.09 0 .09.155.62-.427.775-.26 1.422-.257.13-.334.362-.67.26 0 .257.076.437.336.516-.336.258-.168.427-.26.905-.26-.05-.26.13-.414.13 0 .26 0 .324.26.324-.182.26-.35.673-.182 1.01-.078 0-.168 0-.26-.09.182 1.007-.905 2.274-.646 3.193-.182 0-.104-.258-.35-.168.13.232.31.387.31.75-.168 0-.09.258-.336.155.065.336 0 .517.065.93h-.413v.52c.257 0 .348-.183.257-.44.09.09.182.167.35.167-.26.62-.685.518-.853 1.203 0 .09.09.09.09-.078.09 0 .09.078.17.078 0 .09 0 .26.09.26 0 .167-.17.077-.337.077-.156.155-.156.414-.156.646.687-.737 1.424-1.422 1.865-2.418.076 0 .076.09.168.09.672-1.617 2.197-2.793 2.767-4.215h.258c.26-.427.583-.777.997-1.1.596-1.422 2.107-1.94 2.844-3.103 1.447-.867 2.792-2.2 4.395-2.548.235.09.157-.168.325-.168 1.76-.737 3.62-.065 5.302.685.568.843 1.746 1.1 1.837 2.355.256.09.335.258.516.427.13 2.095-.104 4.694-.44 6.375h-.232c.168 1.552-.168 3.052-.518 4.475.26.427-.26 1.165-.155 1.94 0 .076 0 .155-.166.155-.26 2.2-.26 4.63-.52 6.725.352 1.604.183 3.7 1.36 4.45.518.102.518 0 .905.102 1.94-.594 2.714-2.275 4.136-3.36 0-.52.415-.595.492-1.01 1.267-.84 1.94-2.264 2.69-3.62 1.344-1.074 1.76-3.014 2.935-4.268.168-.932.932-1.424 1.1-2.458.26.35-.168 1.035 0 1.45-1.514 3.362-2.935 6.724-4.708 9.74.168.516-.258.516-.168 1.007-.167 0-.167-.09-.335-.09-.337 2.197-2.018 2.947-3.104 4.616h-.427c-.077.17-.077.428-.154.596-.93.517-2.2 1.163-3.453.75-.077 0-.168 0-.168.168-2.43-.323-4.448-2.16-4.616-4.783-.415-.828-.337-1.072-.26-2.25-.077-.26-.258.167-.323-.09.077-.093.077-.26.336-.26-.168-.26-.09-.84-.336-1.01.077-2.172-.26-4.008.517-6.04-.35-2.017 1.423-5.366.997-7.81.077-.776.75-3.104-.258-4.01.09-.44-.338-.943-.673-1.163-1.334.05-2.51.905-3.44 1.487-.7.414-1.294.672-1.617 1.345-.672.063-.776.813-1.164 1.163-.105 0-.105-.09-.105-.18.09-.08 0-.08 0 0h-.336c-.065-.26.103-.324.18-.492-.646.17-1.423.647-1.164 1.254-.26 0-.518-.09-.518.17 0 .335.26.257.428.167-.092.26-.518.35-.674.26-.09.336 0 .258-.09.517-.686-.35-.932.776-.517.828-.336.26-.336.84-.83.93.08.337.157.583-.088.75-.777.17-.854 1.76-1.604 1.94-.775 1.333-1.27 2.51-2.107 3.777 0 .26.09.414.168.673-.26.26-.09.905-.427 1.086.09.518-.26 1.113-.647 1.36-.44 1.68-.774 3.363-1.447 4.695 0 1.1-.647 1.85-.737 2.78-.078 0-.078.077 0 .077-.154.646-.322 1.345-.414 2.106-.078 0-.154 0-.26-.09.182.518-.23.674.182 1.01-.517.428-.09 1.268-.595 1.682 0 .168.09.168.167.26-.077 1.33-.646 2.43-.336 4.008-.413.774.596 1.77-.645 2.198-.104-.09-.26-.09-.35-.26-.26.092-.09.35-.168.776-.595.156-1.01 0-1.268 0-.078.26.168.26 0 .39-1.164-.066-1.94.35-3.105.18 0-.077.09-.168 0-.26-.168 0-.09.26-.26.183v-.078h.092c0-.08-.09-.08-.09 0-.078 0-.078.17-.17.26-.257.075-.336-.518-.516-.09-.064 0-.064-.092-.064-.183.065 0 .065-.078.065-.155-.077-.17-.49-.09-.582 0 0 .076.092.154.26.154 0 .337-.428-.078-.596.168.09-.26 0-.687-.414-.595.08-.168.08-.774-.168-.842.064-.904.647-2.586.57-3.543-.066-.258.18-.167.257-.258-.646-.828.776-1.76 0-2.51.428-.93 0-1.76.596-2.43-.35-.337.078-.673 0-1.27.154.092.322-.076.492.17.09.258 0 .414-.17.518.518 0 .44-.7.26-1.035.518.09.35-.828.18-.995.414-.674.338-1.682.648-2.587-.234-.182-.234-.26-.234-.518.09 0 .09 0 .09-.078-.09 0-.09 0-.09.077h-.258c.257.168.18.75-.156.932 0-.09-.09-.09-.09 0-.156-.26.18-.337-.065-.597.08 0 .17.078.26 0-.09-.427.155-1.1 0-1.36.077-.412.492-.412.413-.903-.09-.26-.168.232-.336 0 .182-.52.672-.932.596-1.268-.092-.09-.092 0 0 0 0 .168-.168.078-.26 0 .26-.258.777-.258.842-.775-.26-.233-.336.427-.646.35.31-.39 0-.996.567-1.075 0-.155 0-.323-.168-.323.09-.157.18-.26.427-.26-.336-.064.09-.387-.336-.49.775-.583.337-1.164.93-2.02-.26-.258-.18.26-.438.183.17-.686.26-1.1.337-1.682 0-.18-.26 0-.17.157-.26-.26.078-.583 0-.997.26-.104.323-.35.583-.44.076.17.076 0 0 0-.26-.167.257-.904-.168-.75 0-.09 0-.09-.092-.09.092-.388.428-.57.428-1.164.324-.414.232-.775.492-1.254 0 .065.077.156.258.156.26-.09.156-.427.156-.777-.26 0-.26.44-.337.61h-.078c0-.104-.168-.182-.168-.26.077-.09 0-.09 0 0-.17 0-.092.26-.17.26-.09-.104-.09-.26-.09-.52h.26c-.092-.516-.17-1.097.414-1.266-.078-.168.168-.582-.17-.49.26-.596 0-.932.26-1.268.17 0 .078-.26.258-.26 0-.076-.18-.076-.26-.076.26-.26.583-.517.52-1.087-.18 0-.18.078-.18.26-.17-.596.41-1.268.58-1.863.09-.336-.17-.336-.17-.582.52-1.94 1.1-4.397 1.425-6.31 0-.26-.258-.26-.413-.428.09-.258.26-.517.09-.854.518-.258.84-.672 1.333-.905.517.324 1.033.156 1.422-.18.518.168 1.034.517 1.267 0 .258 0 .426.09.518.258 1.087 0 2.51.582 2.754 1.423-.388 2.018-.827 3.363-1.332 4.954v-.078l.01-.03zm-11.99 38.795h-.257c0-.074.258-.074.258 0zm-.128-10.266c.092 0 .17 0 .17-.08-.078 0-.17 0-.17.08zm.686-1.734c-.258.08-.414.258-.414.52-.322-.44.35-.44.182-.945.258 0 .258.168.258.426h-.026zm-.167 11.768c.18.16.26-.256.104-.256 0 .077 0 .077-.09.077v.17l-.013.01zm.348-14.534c0 .156.09.414-.168.338 0-.17.09-.17.09-.338h.105-.027zm.52-1.863c-.08.26-.17.428-.26.686.18 0 .35 0 .427.103.077-.336.26-.582.26-1.008-.26 0-.26.257-.44.257-.08-.103-.08 0 0 0l.012-.04zm.167-.257c.154-.156.077-.57.414-.57-.17-.594.076-.517.152-1.008-.153 0-.153.167-.413.09-.17.582-.415.906-.17 1.5l.015-.012zm.077-.74c.168 0 .26-.064.26-.128-.183 0-.26.064-.26.156v-.027zm1.24-9.233c0-.064.092-.128.26-.128 0 .128-.09.128-.26.128zm.338 1.36c-.35 0-.26.35-.09.44-.078-.26.09-.26.09-.428v-.013zm0-2.69v-.324c.232-.092.155.154.232.258-.077 0-.077.064-.26.064h.028zm.49 1.19c-.09 0-.167 0-.258-.09 0 .09-.077.167-.077.335.258 0 .336 0 .336-.26v.014zm-.257-1.682c-.155-.167 0-.595.09-.84h.078c.092.388-.167.48-.167.815v.026zm.775-.09c-.09 0-.09-.168-.18-.168 0 .09-.077.09-.17.09-.09.26.338.363.338.104l.012-.026zm-.257-1.772c.258-.078.17.18.17.35.257 0 .335 0 .335-.26-.35 0 0-.076-.168-.257-.168 0-.26.09-.35.09-.078-.076-.078 0 0 0v.092l.014-.014zm.944-2.43c-.13.167-.26.258-.194.518.26.077.338-.428.17-.52h.024zm.556 31.335h-.17c0 .078-.063.078-.063.155.168 0 .26 0 .26-.155h-.027zm.337.26c-.092-.105-.092 0 0 0-.092.386.258.063 0 0zm2.095-10.76c.077 0 .077.075 0 .075v-.102.027zm1.68-17.37c0-.18 0-.438-.154-.438-.167.167 0 .335.155.426.09.13.09 0 0 0v.014zm5.11 1.164v-.09c-.104 0-.104.09 0 .09zm2.754-3.13c-.26-.18.168-.336.168-.595.26.168-.09.414-.168.582v.013zm.26-.776c0-.063.168-.063.168-.154.257.077-.09.336-.17.167v-.012zm3.542-3.18c.324.09 0-.26 0 0-.18.09 0 .09 0 0zm44.694 11.872c.26-.168.26-.595.58-.595.34.167-.672.595-.335 1.008-.608.26-.865.932-1.033 1.605-1.772 1.68-3.105 3.776-4.954 5.366-2.522 3.232-6.208 5.743-10.346 7.086-.155 0-.155-.258-.324-.258-.517.582-1.512.582-2.095.93-.75-.258-1.5-.102-2.43-.18-.078 0-.492-.168-.583.168-.26-.194-.583-.257-.75-.452-.13.258-.26.092-.362.17-1.77-.52-3.194-1.268-4.708-2.28-.854-1.096-1.772-2.105-2.612-3.19-.518-1.347-1.1-2.848-1.423-4.528-.18-3.025.324-5.38.83-7.824.335-.49.593-.996.774-1.76 2.755-4.784 6.027-9.05 10.31-12.336 2.326-1.422 5.78-2.69 9.568-2.017.168 0 .168.258.414.336.257.08.257-.166.39-.09.347.17.605.672 1.11.932.996.673 2.07 1.086 2.585 2.018.092.427 0 .84.427.905-.18.452.26.698 0 1.293-2.366 3.698-5.302 6.634-8.586 9.31-.323.686-.905 1.113-1.59 1.423-.26.608-.905.777-1.088 1.424-.684 0-.606.606-1.162.698-.454.84-1.294 1.345-1.813 2.2-2.068 1.24-3.49 3.168-5.69 4.268.08 1.42.906 2.52 1.59 3.62.843.648 1.606 1.424 2.59 1.94 6.57 1.32 9.503-2.974 12.956-5.65.066-.26.132-.324.235-.583.076-.09.258-.09.41-.09 1.686-1.76 2.952-3.945 4.71-5.69.517-1.772 2.005-2.12 2.42-4.048.515-.415.93-.906 1.163-1.682.103 0 .182-.077.35-.077.75-1.267 1.576-2.43 2.263-3.878.065 0 .156.103.26.103-.104-.672.814-1.513 1.42-2.107.26 1.292-.696 2.534-1.292 3.453-.063.338-.063.673-.322.673-.064.828-.49 1.255-.827 1.76-.157 1.513-1.243 2.586-1.58 4.19-.774.516-1.008 1.68-1.602 2.366v.088c-.184.08 0 .08 0 0l.154-.016zm-24.87.413c1.772-1.087 3.62-2.263 5.627-3.193.425-.583 1.267-.828 1.77-1.333 3.828-2.02 7.19-5.303 9.83-8.924-.13-.49.22-.646.296-.995-.076-.582-.168-1.085-.49-1.422-4.37-.582-7.89 2.586-10.838 4.694-2.52 3.453-5.872 6.208-6.207 11.173h.012zm23.5 1.527c.09 0 .168 0 .168-.09-.078 0-.17 0-.17.077v.012zm.775-1.1c.257 0 .568-.427.322-.672-.092.258-.26.413-.35.672-.336 0 0 .337 0 0h.027zm2.004-3.452c-.18 0-.35 0-.258.18.155 0 .26-.09.26-.167V38.5z"/><path stroke="#41BBEC" stroke-miterlimit="10" d="M874.775 52.74c-21.787 9.094-45.242 2.99-65.01-12.366-20.595-16-44.975-42.77-68.53-23.288-5.608 4.633-9.946 11.996-13.3 20.02-.207.583.39 1.105.615.537h-.01c7.427-17.795 19.41-27.568 33.494-26.478 15.09 1.166 29.47 15.678 42.38 26.11 12.786 10.31 25.1 18.026 39.705 19.882 8.456 1.072 18.535 1.512 26.744-2.017L875 53.28l-.225-.54zM25.57 18.13C39.218-5.47 60.247-11.16 79.32-7.797c11.627 2.03 23.015 8.212 34.06 14.2 11.27 6.104 22.378 12.932 33.678 18.945 12.506 6.66 24.956 15.738 38.227 17.55 17.686 2.417 33.885-11.55 47.604-28.284.318-.414 0-1.358-.344-.944-15.036 18.363-32.202 31.864-51.41 27.364-6.602-1.552-12.96-5.018-19.234-8.6-8.155-4.656-16.393-8.924-24.58-13.54C116.556 7.19 95.344-7.812 73.112-9.687 55.815-11.122 37.253-3.66 25.09 17.38c-.294.52.184 1.294.48.777v-.026zM350.543 30.637s-.777.71-2.02 1.98c-1.292 1.292-3.01 3.193-5.34 5.276-.594.517-1.228 1.035-1.888 1.55-.646.52-1.33 1.035-2.068 1.553-1.423 1.06-3.014 2.095-4.682 3.104-1.68 1.034-3.4 1.98-5.198 2.975-1.786.982-3.622 1.94-5.496 2.845-1.874.905-3.79 1.72-5.716 2.43-.97.39-1.94.65-2.91.996-.956.26-1.94.52-2.883.737-3.776.83-7.462 1.294-10.604 1.386-1.553.077-3.013 0-4.294-.08-1.266-.13-2.392-.232-3.297-.415-.878-.153-1.552-.28-2.03-.387-.22-.025-.672-.516-.647-.542v-.39c.04 0 .09-.647.84-.607.492.13 1.19.26 2.096.427.866.168 1.94.26 3.156.413 1.228.078 2.612.156 4.137.13 3.065-.077 6.558-.517 10.346-1.293.906-.26 1.85-.48 2.806-.712.957-.297 1.9-.58 2.845-.904 1.888-.698 3.75-1.46 5.64-2.327 1.86-.842 3.71-1.747 5.496-2.69 1.812-.933 3.57-1.89 5.225-2.846 1.68-.957 3.233-1.965 4.683-2.948.723-.48 1.422-.998 2.095-1.49.685-.49 1.293-.97 1.9-1.46 2.367-1.94 4.177-3.815 5.496-5.044 1.292-1.254 2.068-1.94 2.068-1.94l.285.297-.04-.026zM369.1 52.208s.777-.583 2.174-1.59c.684-.52 1.525-1.126 2.482-1.812.956-.738 2.043-1.526 3.298-2.328 1.24-.776 2.586-1.682 4.008-2.587 1.384-.955 2.975-1.77 4.526-2.714 1.617-.906 3.233-1.914 4.98-2.755 1.706-.878 3.452-1.784 5.197-2.676 1.76-.814 3.557-1.63 5.304-2.432 1.744-.853 3.53-1.526 5.224-2.198 1.718-.686 3.335-1.423 4.94-1.94 1.577-.594 3.077-1.124 4.46-1.63 2.78-1.007 5.135-1.68 6.765-2.197 1.628-.518 2.56-.828 2.56-.828l.22.672s-.932.297-2.548.828c-1.604.556-3.958 1.228-6.7 2.263-1.37.518-2.87 1.073-4.436 1.655-1.617.543-3.233 1.294-4.915 1.966-1.68.7-3.464 1.37-5.17 2.2-1.76.827-3.53 1.64-5.303 2.456-1.732.905-3.466 1.81-5.173 2.716-1.708.854-3.312 1.85-4.916 2.767-1.55.958-3.102 1.772-4.487 2.716-1.382.943-2.714 1.81-3.918 2.612-1.214.776-2.3 1.578-3.233 2.302-.97.725-1.81 1.346-2.497 1.848-1.37 1.037-2.16 1.618-2.16 1.618l-.683-.932zM432.507 55.856s1.165-.388 3.182-1.087c.517-.183 1.084-.352 1.68-.597.594-.26 1.228-.517 1.9-.828.673-.297 1.397-.606 2.16-.93.75-.363 1.514-.776 2.328-1.203.802-.426 1.682-.84 2.522-1.333.84-.518 1.706-1.034 2.586-1.604.452-.258.904-.557 1.357-.84.44-.285.88-.596 1.32-.906.904-.646 1.81-1.293 2.74-1.98.88-.724 1.772-1.46 2.678-2.198.467-.388.945-.75 1.372-1.164l1.292-1.23c.854-.827 1.772-1.615 2.588-2.52.776-.906 1.604-1.812 2.405-2.716.775-.88 1.552-1.915 2.302-2.846.774-.97 1.485-1.94 2.158-2.937 1.423-1.94 2.664-3.944 3.88-5.884.607-.97 1.127-1.965 1.68-2.923.57-.97 1.113-1.888 1.592-2.844.97-1.864 1.9-3.623 2.678-5.304.8-1.683 1.5-3.18 2.107-4.552.608-1.36 1.138-2.56 1.552-3.557.802-1.98 1.293-3.104 1.293-3.104l.712.258s-.428 1.165-1.163 3.183c-.39 1.035-.855 2.225-1.426 3.62-.283.7-.582 1.45-.904 2.225-.337.777-.698 1.59-1.087 2.458-.724 1.68-1.628 3.49-2.586 5.393-.93 1.887-2.028 3.878-3.193 5.856-1.216 2.004-2.457 4.06-3.88 6.053-.698 1.033-1.422 2.04-2.172 2.973-.777.996-1.45 1.978-2.302 2.95-.828.904-1.682 1.848-2.496 2.766-.815.93-1.76 1.72-2.64 2.585l-1.33 1.267c-.453.415-.932.776-1.385 1.165-.934.776-1.85 1.514-2.757 2.263-.956.672-1.888 1.332-2.806 1.98-.467.322-.905.646-1.37.956-.466.26-.932.557-1.397.828-.905.556-1.81 1.087-2.664 1.604-.88.49-1.772.904-2.586 1.32-.854.413-1.63.84-2.42 1.187-.774.312-1.55.61-2.248.906-.738.26-1.396.52-2.005.778-.62.23-1.19.387-1.707.555-2.07.62-3.233.982-3.233.982l-.323-1.007.013-.022zM580.97 53.502s1.034-.454 2.922-1.23c.933-.387 2.07-.84 3.362-1.382 1.294-.558 2.807-1.074 4.308-1.9 1.513-.777 3.168-1.607 4.914-2.498.878-.48 1.81-.867 2.69-1.423.866-.557 1.76-1.113 2.676-1.683.906-.57 1.85-1.137 2.793-1.732.943-.583 1.94-1.164 2.806-1.85 1.812-1.357 3.648-2.715 5.498-4.1 1.81-1.395 3.49-2.973 5.224-4.448.828-.776 1.708-1.487 2.497-2.25l2.326-2.328c1.476-1.553 3.002-2.975 4.307-4.476 1.294-1.474 2.51-2.884 3.647-4.19.543-.646 1.087-1.293 1.604-1.875.467-.596.905-1.19 1.345-1.747.853-1.112 1.59-2.07 2.197-2.884 1.242-1.58 1.94-2.497 1.94-2.497l.646.452s-.712.906-1.94 2.535c-.607.776-1.356 1.772-2.197 2.897-.44.556-.906 1.164-1.384 1.784-.518.61-1.036 1.242-1.616 1.902-1.14 1.294-2.354 2.716-3.66 4.268-1.294 1.475-2.845 2.91-4.346 4.475-.776.776-1.553 1.552-2.327 2.354-.776.774-1.68 1.5-2.52 2.263-1.747 1.487-3.43 3.104-5.253 4.526-1.862 1.37-3.725 2.754-5.562 4.136-.88.7-1.86 1.268-2.806 1.863-.943.594-1.875 1.19-2.806 1.76-.906.58-1.81 1.162-2.716 1.68-.866.582-1.81.996-2.69 1.473-1.784.907-3.453 1.773-5.006 2.588-1.51.842-3.012 1.345-4.305 1.915-1.295.543-2.433 1.01-3.363 1.397-1.863.775-2.937 1.214-2.937 1.214l-.388-.97.117-.024z"/></g></svg>