<?xml version="1.0" encoding="utf-8"?>
<!-- Generator: Adobe Illustrator 16.0.0, SVG Export Plug-In . SVG Version: 6.00 Build 0)  -->
<!DOCTYPE svg PUBLIC "-//W3C//DTD SVG 1.1//EN" "http://www.w3.org/Graphics/SVG/1.1/DTD/svg11.dtd">
<svg version="1.1" id="Layer_1" xmlns="http://www.w3.org/2000/svg" xmlns:xlink="http://www.w3.org/1999/xlink" x="0px" y="0px"
	 width="850px" height="123.401px" viewBox="25 -13.966 850 123.401" enable-background="new 25 -13.966 850 123.401"
	 xml:space="preserve">
<g>
	<path fill="#41BBEC" d="M245.506-6.53c-0.336,0.258-0.517,1.422,0,2.017c-0.427,1.087-0.09,1.591-0.672,2.846
		c0.078,0.931-0.84,1.849-0.672,2.78c-0.091,0.13-0.168,0.312-0.427,0.312c-0.078,1.163-1.332,2.018-1.086,3.026
		c-0.518,0.31-0.777,0.904-0.777,1.422c-1.008,0.737-1.267,2.25-1.848,3.363c-0.427,0.129-0.259,0.491-0.427,0.905
		c-1.009,0.517-0.75,1.423-1.423,2.095c-0.09,0.259,0.259,0.09,0.167,0.336c-0.426-0.077-0.258,0.168-0.335,0.35
		c-0.079,0.078-0.324,0.078-0.324,0.078c-0.258,0.336-0.337,0.776-0.518,1.165c-0.75,0.103-0.582,1.099-1.254,1.357
		c-0.09,0.259,0.258,0.168,0.155,0.414c-0.828,0.09-0.582,1.164-1.164,1.513c0,0.169-0.09,0.337,0.078,0.337
		c-0.672,1.19-0.582,2.793-1.254,3.711c0.077,0.672,0,1.254-0.35,1.591c0.09,0.336,0,0.517,0,0.931
		c-0.75,1.344-0.491,3.776-1.5,4.953c0.077,1.422-0.595,2.521-0.595,4.112c-0.155,0.09-0.155,0.336-0.324,0.426
		c0.337,0.582-0.582,1.5-0.168,1.94c-0.414,0.491-0.258,1.578-0.672,2.004c-0.065,0.26,0.258,0.194,0.181,0.44
		c-0.078,0.09-0.168,0.336-0.259,0.426c-0.078,0.259,0.091,0.335,0.091,0.518c-0.556,1.577-0.646,4.101-0.725,4.94
		c-0.091,0.258-0.168,0.064-0.427,0.064c0.439,0.932,0.182,1.939-0.155,2.768c-0.077,0.337,0.26,0.259,0.26,0.518
		c-0.428,1.074,0,1.992-0.518,3.169c0,0.091,0.181,0.091,0.258,0.091c-0.582,1.356,0.26,2.715-0.414,3.697
		c0.414,0.519,0.414,1.514,0.336,1.94c-0.078,0.337,0.517,0.841,0.181,1.513c0.414,1.165,0.517,2.434,1.513,3.361
		c0.427-0.166,0.776-0.347,1.099-0.515c3.622-2.938,6.556-6.726,8.897-10.917c0.169-0.076,0.259-0.166,0.427-0.256
		c2.845-5.563,5.949-10.827,8.885-16.296c-0.078,0.426-0.337,0.775-0.259,1.358c-1.681,3.776-3.013,7.474-4.267,11.509
		c-0.168,0.079-0.259,0.259-0.349,0.338c0.09,0.774-0.259,1.848-0.828,2.199c-0.841,3.271-2.845,5.364-4.294,8.054
		c-0.905,1.011-1.81,2.02-2.496,3.196c-1.5,1.422-2.586,3.167-4.785,3.932c-1.086,0.582-2.328,1.009-3.517,1.163
		c-2.781,0.351-4.954-1.59-6.13-3.361c0-0.324-0.091-0.324,0.077-0.492c-0.077,0-0.258,0-0.335,0
		c-0.583-1.163-0.672-2.521-0.75-3.62c-0.167-1.592-0.672-3.184-0.595-4.526c0.09-0.75,0-1.683,0.09-2.433
		c0.078-0.593,0.168-1.252,0.414-1.939c-0.427-0.26,0.324-0.996-0.09-1.164c0.064-0.259,0.232-0.427,0.323-0.685
		c-0.091-0.996,0.168-1.254,0.077-1.94c0.259-0.828,0.44-1.746,0.44-2.845c0.259-1.423,0.414-2.431,0.414-3.622
		c0.595-1.914,0.841-5.108,1.681-6.958c0.337-2.586,1.165-5.198,1.76-7.474c-0.078-0.517-0.078-0.439-0.078-0.867
		c0.582-0.168,0.259-1.164,0.673-1.5c-0.091-0.168-0.091-0.35-0.169-0.428c0.155-0.167,0.155-0.582,0.389-0.672
		c0.349-1.681,0.854-3.776,1.112-5.302c0.259-0.646,0.517-1.577,0.75-2.417c0.259-0.091,0-0.337,0.427-0.337
		c-0.259-0.349,0.168-1.164,0.518-1.423c-0.181-1.525,0.828-2.198,0.828-3.543c0.09-0.168,0.258-0.336,0.425-0.426
		c-0.18-0.414,0.079-0.841,0.324-1.086c0.091-1.526,0.932-2.846,1.165-4.217c0.517-0.258,0.349-1.345,0.944-1.59
		c1.423-3.685,4.01-6.544,7.63-8.302c0.854-0.104,2.535-0.259,2.716,0.259c0.996-0.182,1.254,1.073,1.164,1.655
		c0.167,0,0.258,0,0.427,0L245.506-6.53z M239.299-1.151c-0.686,1.681-0.686,3.285-1.267,5.043c0.336,1.1-1.009,2.768-0.673,3.945
		c-0.427,0-0.258,0.581-0.595,0.646c0.168,1.034-0.75,2.198-0.646,3.298c0.154-1.009,1.318-1.94,1.073-2.781
		c0.904-0.594,0.904-1.681,1.681-2.535c0.077-0.259-0.091-0.259-0.091-0.414c0.931-0.414,0.595-1.759,1.513-2.263
		c0.091-0.259-0.077-0.348-0.077-0.517c1.371-1.254,1.293-3.363,1.875-5.043c-0.168-0.155-0.168-0.388-0.168-0.75
		c0.776-0.854,0.337-2.198,0.259-3.208c-0.259-0.09-0.517-0.09-0.75-0.167c-1.1,1.164-1.345,3.013-2.276,4.526
		c0.09,0,0.168,0,0.168,0.155L239.299-1.151z M265.241,37.465c0.258-0.077,0.168-0.492,0.336-0.646
		c-1.008,5.108-3.699,9.221-5.625,13.76c-0.336,0.168-0.426,0.582-0.672,0.75c-1.008,2.586-2.948,5.38-5.458,6.983
		c-0.776,0.492-1.849,1.085-3.026,1.085c-2.716,0.079-5.147-1.162-6.414-2.947c-1.255-2.586-1.255-6.13-0.996-8.897
		c0-0.17,0-0.337,0.258-0.337c-0.181-0.775,0.065-1.422,0.155-2.108c0.064-0.387,0.259-0.905,0.323-1.318
		c0-0.078-0.167-0.259-0.167-0.325c0-0.334,0.258-0.672,0.336-1.034c0.232-1.422,0.323-2.845,0.905-4.086
		c0.594-3.621,1.681-6.208,2.521-9.57c1.604-0.349,3.104,0.156,4.449,0.647c0.324,0.517,0.906,0.944,0.996,1.525
		c-0.169,1.514-0.414,3.104-1.165,4.876c-0.349,2.108-1.603,3.453-2.198,5.469c-0.169,0.169-0.259,0.414-0.492,0.518
		c-0.104,0.232,0.388,0.155,0.065,0.323c-0.259,0.518-0.738,1.008-0.569,1.681c-1.422,1.254-1.165,3.621-1.604,5.368
		c-0.078,1.939-0.582,2.779-0.168,4.785c0.077,0.258-0.182,0.258-0.182,0.427c0.596,0.841,0.673,1.681,1.423,2.354
		c0.517,0.167,0.931,0.414,1.357,0.647c1.268,0.258,2.198-0.571,3.104-1.074c3.957-3.104,6.557-7.552,8.574-12.597
		c0.257,0,0.09-0.324,0.336-0.232c0.582-1.682,1.332-3.285,2.328-4.617c0.259-0.775,0.517-1.512,1.099-1.849
		c0.155,0,0,0.337,0.078,0.517L265.241,37.465z M252.878,17.938c0.517,0.414,0.93,0.996,1.357,1.513
		c0.091,0.646-0.168,1.254,0,1.836c-0.75,0.647-1.086,1.759-2.263,2.005c-2.613-0.336-3.699-3.854-1.849-5.625
		c0.335,0,0.414-0.26,0.672-0.337c0.724-0.168,1.164,0.672,2.069,0.594L252.878,17.938z M272.704,51.406
		c0.335,1.01-0.518,1.939,0.167,3.026c0,0.169-0.078,0.169-0.167,0.091c0.089,0.556,0.167,1.318-0.259,1.811
		c0.517,0.686,0,1.861,0.349,2.275c-0.258,0.75,0.078,1.683-0.517,2.199c0,0.064,0.182,0.064,0.259,0.064
		c-0.078,1.293,0,2.199,0.09,3.362c-0.427,0.26-0.09,1.269-0.336,1.526c0,0.064,0.193,0.064,0.259,0.064
		c-0.324,0.841,0.517,1.346,0.181,2.018c-0.078-0.26,0-0.389-0.168-0.75c-0.388,0.581-0.064,0.841-0.388,1.423
		c0.259,1.007-0.258,3.194-0.686,4.447c0.414,2.019,0,3.946-0.091,5.949c0.582-0.826,0.156-1.913,0.75-2.496
		c-0.09,1.086-0.09,2.264-0.672,3.622c0.078,0.737,0,1.577-0.09,2.509c0,0.155-0.195,0.258-0.259,0.414
		c0,0.065,0.155,0.065,0.155,0.065c0,0.349-0.336,0.774-0.426,1.1c-0.09,0.775,0.335,1.681-0.259,2.365
		c0.337,0.75-0.595,1.85-0.168,2.198c-0.583,2.419-0.336,4.939-1.253,7.203c-0.079,1.256-0.156,2.521-0.906,3.362
		c0.156,0.75-0.09,1.164-0.517,1.592c0.09,0.414-0.078,1.007-0.517,1.164c-0.155,1.033-0.737,2.029-1.241,3.103
		c-0.092,0-0.169,0.181-0.259,0.181c-0.078-0.077-0.078,0,0,0c-2.263,3.88-8.794,5.626-12.092,2.613c0-0.13,0-0.194,0.065-0.259
		c-0.595-0.519-1.604-0.944-1.344-1.939c-0.078-0.182-0.259-0.258-0.325-0.439c0-0.905-0.335-2.097-0.517-3.026
		c-0.154-0.905-0.154-1.837-0.154-2.769l0.168-0.258c0-0.932-0.091-1.85-0.091-2.846c0.078-6.232,1.5-12.776,2.586-18.647
		c0.091-0.687,0.518-1.268,0.595-1.939c0.168-1.851,0.775-3.441,1.009-4.954c0-0.089-0.078-0.089-0.168-0.089
		c0.685-2.588,0.853-4.787,1.771-7.142c0-0.075-0.077-0.166-0.155-0.166c1.085-3.843,1.591-7.204,2.936-11.251
		c0-0.064-0.169-0.064-0.259-0.064c0.595-2.108,1.099-4.037,1.604-6.209c0.078,0,0.259,0,0.336,0
		c0.583-3.698,1.758-6.893,2.431-10.604c0.427-0.324,0.595-0.388,0.518-1.074c0.582-1.345,0.582-2.689,1.422-3.776
		c0.259-2.275,1.772-4.371,2.354-6.466c0.257-0.09,0.257-0.427,0.517-0.517c0.388-2.173,2.172-4.009,2.586-5.949
		c0.259,0.077,0.168-0.168,0.336-0.168c0.427-1.358,1.604-2.716,2.109-4.293c0.103,0,0.103-0.091,0.258-0.091
		c1.423-3.363,3.622-6.466,5.303-9.893c0.517-0.336,0.84-0.84,1.099-1.513c0.168-0.09,0.258-0.168,0.414-0.259
		c0.091-0.84,0.84-1.085,1.345-1.59c0.181,0,0.259,0.168,0.259,0c1.345,0.672,2.521,1.164,3.879,1.681c0,0.078,0,0.168,0,0.258
		c1.592,0.414,1.94,2.095,3.363,2.677c0.155,0.517,0.388,1.604,0.517,2.432c0,0.258-0.193,0.349-0.259,0.426
		c0.129,0.35-0.259,0.905,0.065,1.1c-0.336,1.422-0.75,2.689-0.906,3.776c-0.686,0.646-0.607,2.263-1.525,3.103
		c0,0.078,0.077,0.078,0.167,0.078c-0.517,0.427-0.349,1.345-0.944,1.772c-0.077,0.259,0.168,0.259,0.091,0.518
		c-0.595,0.491-0.595,1.422-1.164,1.914c0.064,0.349-0.181,0.349-0.104,0.685c-0.905,0.776-1.086,2.199-2.095,2.846
		c0.414,1.617-1.758,2.289-1.345,3.543c-0.84,0.518-0.84,1.771-1.758,2.199c0,0.828-1.345,1.836-1.099,2.677
		c-0.944,0.905-1.785,2.457-2.717,3.454c-0.517,1.745-2.004,3.181-3.271,4.436c1.604-0.079,3.026-0.415,4.035-1.087
		c6.285-1.681,10.565-5.562,14.872-9.337c0.312,0.091,0.312,0.517,0.569,0.673c-2.457,4.035-6.466,6.465-9.996,9.311
		c-1.682,0.931-3.26,1.94-4.436,3.363c-1.772,1.034-3.195,2.199-5.381,2.715c0,0.13,0.182,0.13,0.104,0.388
		c-0.258,0-0.439,0.18-0.775,0.09c-0.168,0.427,0.336,0.776-0.168,1.009c0.517,1.422,0.168,3.209,0.337,4.966
		c-0.155,0.092,0,0.092,0,0V51.406z M253.731,92.04c-0.258-0.063-0.168,0.182-0.258,0.26
		C253.64,92.299,253.731,92.221,253.731,92.04z M254.403,93.85c-0.09,0.336,0.078,0.414,0.169,0.582
		c0.439-0.077,0.362-0.413,0.517-0.905c-0.323,0-0.414,0.128-0.583,0.26c0.091,0,0.091,0.063-0.078,0.063H254.403z M254.817,101.999
		c0.09,0,0.168,0.167,0.168,0C254.986,101.908,254.817,101.908,254.817,101.999z M255.076,87.797
		c0.259-0.092-0.09-0.582-0.168-0.259c0.168,0,0.078,0.167,0,0.259C254.986,87.797,254.986,87.797,255.076,87.797z M254.986,83.762
		c0.09,0,0.167,0,0.167-0.076C255.076,83.686,254.986,83.686,254.986,83.762z M255.323,92.079c0.064,0,0.064,0.181,0.128,0.181
		c-0.064-0.259-0.064-0.673-0.323-0.751c-0.168,0.26-0.258,0.829,0,0.997c0.09-0.168-0.077-0.517,0.09-0.517
		c0.078,0,0.078,0,0.078,0.089c-0.259,0,0.078,0.351,0,0L255.323,92.079z M255.878,79.249c-0.078,0-0.155,0-0.258,0
		c-0.233,1.164-0.646,2.588-0.569,4.139c0.517-1.099,0.646-2.586,0.815-4.139H255.878z M255.723,91.445c-0.156-0.35,0-0.595,0-0.932
		c-0.156,0.091-0.336-0.257-0.414,0c0.064,0.181-0.182,0.596-0.259,0.854C255.31,91.535,255.387,91.367,255.723,91.445
		L255.723,91.445z M255.904,101.92c0.414-1.086-0.517-1.915,0.337-2.679c-0.75,0.26,0-0.581-0.583-0.75
		c0,0.169-0.259,0.079-0.259,0.259c0.35,0.324-0.076,0.905,0.182,1.425c-0.453,0.336-0.362,1.422-0.129,1.939
		c0.259,0.076,0.259-0.183,0.427-0.183c0,0.259,0.349-0.063,0,0L255.904,101.92z M255.735,90.022c-0.258,0-0.413,0.063-0.413,0.323
		c0.155-0.089,0.491,0,0.413-0.335V90.022z M255.735,88.419C255.658,88.316,255.658,88.419,255.735,88.419c0,0.063,0,0.063,0,0.153
		c-0.077,0-0.077,0-0.155,0c-0.103,0.066-0.103,0.312-0.182,0.39c0.415,0.09-0.426,0.854,0.259,0.854
		c0.077-0.426,0.388-0.596,0.323-1.164c-0.089,0-0.258,0-0.258-0.104c0.09,0,0.09-0.078,0.09-0.17
		c0.414-0.673,0.414-1.501,0.414-2.508c-0.427,0.259-0.349,1.099-0.776,1.359c0.259,0.323,0,0.646,0.181,0.995
		c0-0.079,0.091-0.079,0.168-0.079c0,0.065,0,0.156,0,0.259h-0.077L255.735,88.419z M257.844,88.702
		c-0.168-0.166-0.259-0.592-0.091-0.929c-0.077,0.337,0.259,0,0,0c0.091-0.337,0.091-0.75,0-1.011
		c-0.258,0.092-0.258-0.077-0.414-0.077c-0.517,0.906,0,2.017-0.594,3.104c0.259,0.414,0.077,0.905-0.181,1.256
		c0.168,1.268-0.415,2.354-0.258,3.944c-0.414,0.259-0.078,0.776-0.492,1.033c0.167-0.024,0.167,0.231,0.414,0.131
		c0.518-0.491,0.518-1.241,0.518-2.252c0.583-1.68,0.077-3.529,0.996-4.706c0-0.258-0.168-0.336,0.09-0.493c0,0.323,0.335,0,0,0
		H257.844z M255.904,98.428c0.091,0,0.168,0,0.168-0.077c-0.077,0-0.168,0-0.168,0.091V98.428z M256.072,88.859
		c0.091,0,0.169,0.166,0.169,0c0-0.079-0.182-0.079-0.182,0H256.072z M256.421,76.767c-0.336,0.063-0.426,0.813,0,0.813
		c0.169-0.581,0.169-0.903,0.259-1.512c-0.09,0-0.182,0-0.259-0.078c-0.09,0.181-0.167,0.349-0.258,0.517
		C256.253,76.585,256.499,76.507,256.421,76.767z M256.163,80.13c0.168,0,0.258-0.104,0.258-0.26h0.078c0-0.104,0-0.104,0.065-0.104
		c0-0.076,0-0.076,0-0.167c-0.155,0-0.155,0.077-0.155,0.258c-0.091,0.065-0.336,0-0.259,0.261L256.163,80.13z M256.253,85.171
		c-0.156,0.131-0.078,0.313,0.091,0.39c0.09-0.077,0.09-0.39-0.077-0.39H256.253z M256.602,82.87
		c-0.077,0.674-0.414,1.268-0.258,1.94c0.181-0.336,0.426-0.594,0.686-0.842c-0.104-0.089-0.181-0.167-0.259-0.257
		c0.155-0.078,0.155-0.259,0.492-0.168c-0.078-0.26,0.09-0.26,0.09-0.414c-0.336-0.09-0.336,0.091-0.517,0.168
		c-0.065-0.168,0-0.336-0.259-0.428H256.602z M256.692,81.552c0.156-0.337,0.156-0.092,0.065,0.153c0.129,0,0.129,0.091,0.323,0.091
		c0.078-0.697,1.085-0.865,0.646-1.679c-0.065,0-0.155,0-0.233,0c-0.167,0.477-0.336,0.735-1.009,0.903
		c0.065,0.26-0.091,0.337,0.155,0.519L256.692,81.552z M257.029,82.198c-0.181,0-0.091-0.349-0.349-0.258
		c0,0.168-0.09,0.839,0.168,0.516c-0.258-0.09,0.259-0.09,0.167-0.258H257.029z M256.77,83.493c0.078,0,0.078-0.105,0.078-0.184
		c-0.078,0-0.078,0.078-0.078,0.17V83.493z M267.685,51.885c-0.518,0.841-0.258,2.107-1.164,2.78
		c-0.104,0.776-0.944,1.162-0.439,1.771c-0.168,0,0.09,0.427-0.259,0.258c-0.154,1.682-1.59,2.677-1.835,4.19
		c0.077,0.518-0.091,0.854-0.336,1.165c0-0.052-0.169-0.052-0.169,0c0.22,0.256-0.129,0.517-0.194,0.698
		c-0.905,0.089-0.427,1.938-1.345,1.771c-0.323,1.164-0.905,2.459-1.332,3.532c-0.259,0.089-0.414,0.336-0.672,0.425
		c0-0.089,0-0.089,0-0.169c0.09-0.09,0-0.09,0,0c-0.168,0-0.259-0.09-0.259-0.167c0.259-0.156,0.091-0.413,0.35-0.647
		c0.168,0,0.168-0.18,0.336-0.259c-0.104,0-0.182-0.09-0.182-0.18c0.336,0.09,0.168-0.414,0.414-0.414
		c0-1.102,1.513-2.264,1.164-3.53c0,0.103,0,0.103-0.065,0.103c0.427-0.996,0.091-1.835,0.518-2.585
		c0-0.261-0.259,0.257-0.259-0.092c0.775-0.519,0.595-1.422,1.008-2.25c-0.077,0-0.167,0-0.167-0.092
		c0.594-0.438-0.168-1.679,0.517-2.288c-0.35-0.414,0.414-0.75,0-1.33c-0.35,0.646-0.259,1.744-1.034,2.067
		c0.104,0.776-0.388,1.526-0.738,2.106c0.168,1.773-1.008,3.287-1.164,5.213c-0.607,1.009-0.181,2.197-0.853,3.027
		c0.077,0.076,0.077,0.257,0.168,0.414c-0.168,0.089-0.259,0.166-0.337,0.166c0.168,1.424-1.008,2.433-0.517,3.53
		c-0.828,1.256-0.414,2.522-0.996,3.944c0.077,0.583,0.167,1.591-0.336,2.355c0,0.077-0.259,0-0.259,0.077
		c-0.155,0.361-0.155,0.956-0.259,1.371c0.349,0.336-0.065,1.099,0.181,1.422c0-0.581,0.518-0.646,0.687-1.086
		c-0.169-0.232-0.169,0.257-0.26,0c0.091-0.492,0.091-0.568,0.427-0.906c-0.091,0-0.168,0-0.168-0.089
		c0.75-0.751,0.415-2.264,1.086-2.769c-0.078-0.258,0-0.518-0.167-0.672c0,0.09-0.169,0.09-0.259,0.09
		c-0.077,0.168,0,0.647-0.323,0.827c0.155-0.775,0.155-1.099,0.387-1.771c0.104,0,0.182,0,0.26,0
		c0.09-1.422,0.905-2.587,1.034-3.776c0.388-0.259,0.646-1.332,0.737-2.006c0.336-0.335,0.336-0.671,0.672-0.903
		c-0.104,0.388,0.388-0.104,0.388,0.154c-0.064,0.168-0.155,0.518-0.258,0.646c0.361-0.129,0.361-0.736,0.775-0.983
		c0,0.259-0.258,0.597-0.078,0.775c-0.75,0.323-0.84,1.256-1.008,2.07c-0.583,0.517-1.513,1.863-0.906,2.367
		c-0.104,0.93-1.293,1.759-0.775,2.845c-0.336,0.258-0.414,0.775-0.259,1.033c0.091-0.102,0.091-0.348,0.349-0.348
		c-0.336,1.512-0.336,2.354-1.164,3.7c0.569,0.515-0.182,1.264,0,1.861c0.232,0.077,0.064-0.337,0.388-0.26
		c-0.828,1.087-1.422,2.522-0.905,3.944c-0.258,0.169-0.595,0.519-0.258,0.841c-0.414,0-0.259,0.673-0.492,0.842
		c1.165-0.183,0.492-1.94,1.5-1.864c-0.064-0.336,0.104-1.087,0.44-1.343c0.259,0.774-0.335,1.421-0.426,2.106
		c0-0.09-0.065-0.09-0.155-0.09c0.413,0.594,0.258,1.345,0,2.095c0.258,0,0.155,0.336,0.413,0.336
		c0.078,0.26-0.426,0.349-0.167,0.517c0.232,0.582-0.104,1.837-0.104,2.678c-0.516,0.091-0.427,1.099-0.181,1.422
		c-0.09,0.686-0.18,1.863-0.517,2.458c0.09,0.568,0.168,1.914-0.078,2.173c0.259,0.517,0.078,1.111,0,1.422
		c-0.168,0.129,0,0.129,0,0c0.078,0,0.078,0,0.078,0.129c0,0.065-0.258,0-0.258,0.156c0.258,0.348,0.349,0.775,0.258,1.268
		c-0.168,0-0.414-0.091-0.336,0.167c0.091,0.183,0.336,0.183,0.336,0.44c-0.078,0.996,0.168,2.096,0.259,3.273
		c-0.091,0.167-0.427,0-0.336,0.257c0.517,0,0.078,0.259,0.414,0.492c1.1-0.518,1.345-1.76,2.198-2.523
		c-0.258-0.166,0.323-0.904,0.646-1.085c0.44-1.605,1.19-3.453,1.772-5.394c1.164-5.533,2.199-10.32,3.271-14.949
		c0.168-2.017,0.75-4.357,1.345-6.466c0.258-0.905,0.258-2.51,0.427-3.44c0.091-0.517,0.427-0.906,0.427-1.423
		c0.078-2.068,0.75-4.357,0.75-6.724c0.595-1.837,0.104-4.01,0.427-5.781c-0.169-1.165-0.583-3.105-0.583-4.526
		c-0.323-0.428-0.323-1.268-0.233-1.85c-0.258-0.257-0.09-0.84-0.09-1.421c-0.336,0.153-0.078-0.26-0.259-0.26
		c-0.491,0.413-0.154,1.163-0.258,1.681c-0.156,0-0.065-0.257-0.323-0.169c0,0.337-0.259,0.337-0.259,0.674c0.092,0,0.092,0,0.182,0
		c-0.259,0.323-0.168,0.569,0,0.904L267.685,51.885z M257.184,103.614c0-0.077,0.078-0.077,0.078-0.168
		c-0.078,0-0.078-0.079-0.259-0.079c0,0.079,0,0.17,0,0.261c0.104,0,0.104,0,0.181,0V103.614z M257.521,103.044
		c0.077,0,0.168,0,0.168-0.091c-0.064,0-0.129,0-0.129,0.091H257.521z M257.521,104.39c0.077,0,0.168,0,0.168-0.091
		c-0.064,0-0.129,0-0.129,0.064L257.521,104.39z M257.598,90.449c0.091,0,0.168,0,0.168-0.09c-0.077,0-0.168,0-0.168,0.13V90.449z
		 M258.374,86.078c-0.259,0.167,0.091,0.672,0.259,0.336C258.465,86.414,258.555,86.078,258.374,86.078z M258.529,73.741
		c0.078,0,0.078,0,0.078,0.076C258.529,73.817,258.529,73.817,258.529,73.741z M258.943,79.78c0.168,0,0.259-0.168,0.427,0
		c-0.258,0.338-0.311,0.932-0.569,1.163c-0.336-0.323,0.595-0.825,0.168-1.163H258.943z M259.111,109.265c0-0.091,0-0.091,0-0.169
		c-0.052,0-0.052,0-0.13,0c0,0.078,0,0.078,0,0.169c0.078,0,0.078,0,0.155,0H259.111z M259.563,80.88
		c0,0.902-0.335,1.512-0.517,2.429c-0.155-0.336-0.078-1.422,0.349-1.94c-0.077-0.076,0-0.322-0.259-0.256
		c0.104-0.324,0.35-0.493,0.517-0.738c0.336,0-0.077,0.389-0.077,0.479L259.563,80.88z M259.642,75.5c0,0.167-0.065,0-0.155,0
		c0-0.078,0.167-0.078,0.167,0H259.642z M259.823,75.24c0,0.091-0.078,0.091-0.169,0.091c0-0.104,0.104-0.104,0.182-0.104
		L259.823,75.24z M259.823,72.474c0.09,0,0.167,0,0.167-0.078C259.913,72.396,259.823,72.396,259.823,72.474z M260.081,67.455
		c-0.104,0-0.104-0.18,0-0.18c0,0.077,0,0.077,0,0.168V67.455z M260.146,67.015c0,0.092,0,0.26-0.103,0.26c0-0.09,0-0.26,0.077-0.26
		H260.146z M260.404,71.801c0,0.167,0,0.335-0.193,0.335c0-0.168-0.091-0.413,0.167-0.335H260.404z M262.641,72.318
		c-0.335,0.492-0.335,1.333-1.008,1.499c0.336,0.336-0.168,1.01,0.427,1.165c-0.518,0.854-0.776,2.457-1.617,2.624
		c0.168-0.593,0.595-1.421,0.517-2.016c0.583-0.453,0.324-1.371,0.583-1.939c0.414-0.26,0.75-1.113,0.75-1.554
		c0.091-0.256,0.336,0.104,0.336,0.182L262.641,72.318z M261.154,69.214c0-0.104,0-0.193,0.078-0.259c-0.259,0-0.427,0-0.427,0.154
		c0.129,0,0.194,0.065,0.361,0.065L261.154,69.214z M261.128,76.327C261.051,76.25,261.051,76.327,261.128,76.327
		C261.22,76.496,261.22,76.327,261.128,76.327z M261.387,72.241c-0.323,0.233-0.259-0.607-0.077-0.944
		c0.583,0.091-0.078,0.84,0.09,0.932L261.387,72.241z M261.646,70.87c0.168,0,0.09,0.167,0,0.259h-0.077
		C261.569,71.037,261.569,70.947,261.646,70.87z M261.646,63.394c0-0.09,0-0.259,0.09-0.259
		C261.736,63.226,261.736,63.394,261.646,63.394z M262.318,66.833c-0.258,0.091-0.258-0.581-0.336-0.076
		c-0.089-0.337,0.26-1.011,0.596-1.164C262.318,65.982,262.409,66.332,262.318,66.833L262.318,66.833z M262.15,74.568
		c0,0.091-0.077,0.091-0.168,0.091c0-0.078,0.079-0.078,0.168-0.078V74.568z M263.508,65.698c0.065,1.164-0.608,2.003-0.685,3.013
		c-0.336,0-0.091-0.17-0.26-0.336c0.596-1.242,0.26-2.51,1.01-3.52c0.335,0.169,0.168,0.596-0.078,0.854L263.508,65.698z
		 M263.845,59.555c-0.091,0-0.091-0.092-0.259-0.092c-0.09,0.078-0.167,0.518,0.078,0.518c0-0.182,0.168-0.259,0.168-0.439
		L263.845,59.555z M264.413,61.817c-0.168,0.259-0.414,0.75-0.168,1.087c-0.323,0.257-0.323,0.827-0.491,1.241
		c-0.517-1.088,0-1.681,0.388-2.767c0.26,0,0.168,0.257,0.26,0.438H264.413z M268.099,48.536l0.259,0.077
		C268.539,48.446,268.099,48.355,268.099,48.536z M269.548,71.554c0.089,0,0.167,0,0.167-0.104c-0.09,0-0.181,0-0.181,0.092
		L269.548,71.554z M269.548,72.202c0.426,0.75-0.168,1.513,0.167,2.197c0.323-0.942,0.155-1.681,0.491-2.625
		c-0.258,0.091-0.078-0.258-0.336-0.258c0,0.349-0.168,0.427,0,0.686c-0.078,0-0.336-0.182-0.336,0H269.548z M269.729,70.934
		c0,0.103-0.155,0.181,0,0.259C269.729,71.115,269.91,71.037,269.729,70.934z M270.893,68.011c-0.155,0-0.311,0-0.311,0.091
		c0.156,0-0.168,0.438,0.077,0.438c0.091-0.166,0.182-0.335,0.26-0.516L270.893,68.011z M271.733,66.924
		c-0.168,0-0.336,0-0.336,0.169c0.065,0.167,0.312,0.078,0.312-0.169H271.733z M271.475,66.757c0.181-0.091,0.181-0.337,0.349-0.169
		c-0.336-0.257,0.259-0.428-0.258-0.518c0,0.261-0.168,0.35-0.078,0.687c-0.168,0.076,0,0.076,0,0H271.475z M272.51,72.382
		c-0.091,0-0.091,0-0.091-0.091c-0.078,0-0.078,0-0.078,0.091c-0.154-0.775,0.259-1.421,0.259-2.354
		c0.595,0.906-0.078,1.347-0.078,2.354H272.51z M272.586,70.028c-0.323-0.517,0-1.512,0.182-2.196
		c0.336,0.775-0.336,1.782-0.168,2.196H272.586z M273.363,25.438c0.064,0,0.155,0,0.155-0.078c-0.09,0-0.168,0-0.168,0.078H273.363z
		 M281.666,7.979c-0.519,1.164-1.1,1.759-1.772,2.587c-0.168,1.19-0.84,1.94-1.345,2.781c0.258,0-0.052,0.168,0,0.336
		c-0.388,0.258-0.388,1.009-0.906,1.164c0.091,0.427-0.517,1.035-0.413,1.357c-0.078,0-0.168,0-0.259,0
		c0.259,0.673-0.905,1.682-0.75,2.69c-0.168,0.078-0.258,0.258-0.517,0.258c0.181,0.258-0.078,0.491,0.091,0.737
		c-0.427,0.167-0.582,0.517-0.518,0.931c-0.388,0.078-0.233,0.672-0.569,0.84c-0.091,1.086-1.008,2.199-1.164,3.271
		c0.233,0-0.258,0.337,0.156,0.259c0.335-0.673,1.164-1.268,1.085-2.018c0.389,0.078,0.312-0.336,0.479-0.517
		c-0.167,0-0.336,0-0.336-0.078c0.35,0.13,0.259-0.129,0.517-0.129c1.1-1.422,1.771-3.363,2.937-4.784
		c0-0.518,0.426-0.595,0.426-1.1c1.267-1.681,1.604-4.035,2.78-5.625c0-0.517,0.259-0.776,0.427-1.189c-0.168,0,0.077-0.337,0-0.595
		c0.168-0.078,0.168-0.414,0.336-0.518c-0.168-0.388,0.078-0.491,0.078-0.905c0-0.09-0.078-0.09-0.168-0.09
		c-0.168,0.168-0.336,0.258-0.582,0.335H281.666z M296.214,52.338c-0.388-0.025-0.725-0.025-1.125-0.13
		c-0.997-0.517-1.759-1.242-2.587-1.938c-0.685-1.061-1.526-2.161-1.604-3.584c2.172-1.1,3.621-3.026,5.691-4.268
		c0.516-0.853,1.357-1.358,1.784-2.199c0.582-0.09,0.517-0.672,1.163-0.672c0.169-0.673,0.841-0.841,1.1-1.422
		c0.647-0.35,1.229-0.776,1.553-1.423c3.297-2.715,6.207-5.638,8.586-9.337c0.258-0.556-0.168-0.802,0-1.228
		c-0.427-0.09-0.336-0.518-0.427-0.906c-0.517-0.944-1.577-1.357-2.586-2.03c-0.516-0.259-0.775-0.776-1.099-0.932
		c-0.168-0.077-0.168,0.169-0.414,0.091c-0.259-0.091-0.259-0.336-0.427-0.336c-3.75-0.673-7.204,0.582-9.569,2.017
		c-4.268,3.272-7.541,7.553-10.308,12.337c-0.167,0.777-0.426,1.268-0.775,1.759c-0.492,2.458-0.996,4.786-0.828,7.811
		c0.31,1.682,0.906,3.195,1.422,4.527c0.815,1.1,1.746,2.109,2.586,3.206c1.513,0.997,2.936,1.761,4.694,2.265
		c0.091-0.104,0.259,0.064,0.336-0.18c0.155,0.167,0.517,0.257,0.777,0.413c0.051-0.338,0.478-0.169,0.555-0.169
		c0.427,0.052,0.815,0.025,1.19,0.025c-0.518-1.357-0.324-2.637,0.259-3.673L296.214,52.338z M297.028,30.3
		c2.936-2.094,6.467-5.275,10.825-4.694c0.336,0.336,0.427,0.841,0.516,1.423c-0.089,0.336-0.427,0.517-0.348,1.008
		c-2.586,3.621-5.95,6.894-9.83,8.924c-0.491,0.491-1.332,0.737-1.758,1.318c-2.019,0.931-3.879,2.109-5.626,3.194
		c0.31-4.953,3.673-7.72,6.208-11.174H297.028z M364.819,37.465c0.259-0.077,0.168-0.492,0.336-0.646
		c-1.009,5.108-3.699,9.221-5.625,13.76c-0.337,0.168-0.415,0.582-0.673,0.75c-1.009,2.586-2.935,5.38-5.458,6.983
		c-0.775,0.492-1.849,1.085-3.025,1.085c-2.716,0.079-5.147-1.162-6.402-2.947c-1.268-2.586-1.268-6.13-1.008-8.897
		c0-0.17,0-0.337,0.258-0.337c-0.181-0.775,0.078-1.422,0.156-2.108c0.077-0.387,0.259-0.905,0.323-1.318
		c0-0.078-0.168-0.259-0.168-0.325c0-0.334,0.259-0.672,0.336-1.034c0.259-1.422,0.323-2.845,0.906-4.086
		c0.594-3.621,1.681-6.208,2.534-9.57c1.59-0.349,3.103,0.156,4.448,0.647c0.337,0.517,0.906,0.944,1.008,1.525
		c-0.167,1.514-0.426,3.104-1.162,4.876c-0.35,2.108-1.617,3.453-2.199,5.469c-0.168,0.169-0.259,0.414-0.518,0.518
		c-0.077,0.232,0.427,0.155,0.091,0.323c-0.258,0.518-0.75,1.008-0.582,1.681c-1.422,1.254-1.165,3.621-1.59,5.368
		c-0.09,1.939-0.596,2.779-0.169,4.785c0.079,0.258-0.167,0.258-0.167,0.427c0.582,0.841,0.647,1.681,1.423,2.354
		c0.516,0.167,0.904,0.414,1.345,0.647c1.254,0.258,2.198-0.571,3.103-1.074c3.944-3.104,6.557-7.552,8.574-12.597
		c0.259,0,0.079-0.324,0.337-0.232c0.582-1.682,1.345-3.285,2.328-4.617c0.259-0.775,0.517-1.512,1.111-1.849
		c0.156,0,0,0.337,0.066,0.517L364.819,37.465z M352.456,17.938c0.517,0.414,0.944,0.996,1.359,1.513
		c0.09,0.646-0.169,1.254,0,1.836c-0.75,0.647-1.088,1.759-2.264,2.005c-2.586-0.336-3.699-3.854-1.85-5.625
		c0.337,0,0.427-0.26,0.673-0.337c0.736-0.168,1.163,0.672,2.068,0.594L352.456,17.938z M376.407,66.693c-0.091,0-0.091,0-0.168,0
		c-0.194-1.759-0.622-4.009-0.518-6.208c-0.516-1.85-0.685-4.035-0.943-5.625c-0.698-1.101-0.75-2.846-1.035-4.436
		c-0.866-0.673-1.487-1.682-1.526-3.105c0-0.388,0-0.777,0.027-1.164c-0.492-1.772-0.776-3.75-1.759-5.083
		c0.168,0,0.259-0.181,0.518-0.104c-0.091-0.581-0.427-1.008-0.685-1.59c-0.079-1.113-0.75-2.367-1.087-3.285
		c0.155-0.168-0.103-0.336,0.064-0.595c-0.841-1.914-0.582-4.177-0.905-6.026c0.064-0.091,0.155-0.258,0.324-0.349
		c-0.156-0.078-0.324-0.168-0.259-0.414c0.608-1.759,1.293-3.699,1.939-5.38c1.034-0.518,1.034-2.031,2.108-2.367
		c0.258-0.84,0.841-1.345,1.345-1.94c0.259,0,0.259-0.078,0.583-0.167c0.167,0.09,0.258,0.349,0.349,0.517
		c0,3.519-1.461,5.69-2.198,8.729c0.259,0.065,0.388,0.517,0.259,0.737c0.479-0.077,0.814,0.427,1.241,0.672
		c0.581,0,0.904,0.518,1.164,0.582c0.09,0,0.09,0,0.09,0.078c0.583-0.065,1.423,0,2.017,0.181c1.242-0.168,2.678-1.009,2.586-2.521
		c0.583-0.427,0.337-1.604,1.256-1.862c0.348-0.647,0.168-1.682,0.839-2.006c0.259-1.253,0.091-2.198,0-3.685
		c-1.5-3.88-6.466-5.211-10.475-6.053c-1.358,0.519-2.367,1.346-3.544,2.018c-2.275,2.69-4.629,6.208-4.966,9.998
		c-0.258,0.167-0.335,0.517-0.517,0.75c-0.323,2.78-0.414,5.639-0.258,8.405c0.258,3.944,2.121,7.049,2.975,9.984
		c0,0.168-0.104,0.168-0.104,0.26c0.517,1.008,0.84,2.352,1.099,3.53c0.35,0.479,0.427,1.424,0.686,1.991
		c-0.336,0.259-0.168,0.774-0.092,1.165c-2.935,2.624-5.121,5.559-7.979,8.146c-0.336,0.854-0.905,1.527-1.59,2.031
		c-0.091,0.518-0.259,0.854-0.673,0.905c-0.517,1.203-1.008,2.302-1.94,3.052c-0.258,1.1-0.75,1.939-1.332,2.768
		c-1.513,3.711-3.53,8.757-3.026,13.448c0.155,1.347,0.828,2.847,1.681,3.88c0.155,0.261,0.57,0.322,0.647,0.493
		c0.182,0.257,0.427,0.671,0.932,0.671c0.167,0.26,0.09,0.26,0.259,0.518c1.163,0.156,1.499,0.739,2.431,1.332
		c2.353,0.169,3.439,1.424,5.689,1.424c0.181-0.168,0.438-0.26,0.608-0.336c1.254,0.259,2.093-0.168,3.026-0.519
		c0.905,0.259,1.331-0.646,2.263-0.646c1.163-0.84,2.586-1.863,3.775-3.026c-0.078-0.336,0-0.258,0.092-0.595
		c0.839-0.414,1.254-1.591,1.681-2.769c0.324-0.089,0.259-0.58,0.647-0.58c0.104-0.26-0.234-0.17-0.156-0.428
		c0.595-0.672,0.517-1.849,1.164-2.769c0.517-2.586,1.112-6.102,1.358-8.534c-0.259-1.356-0.259-2.716-0.078-4.137L376.407,66.693z
		 M367.923,81.564c-0.426,0.75-1.008,1.256-1.345,2.006c-2.353,1.266-3.621,4.461-7.306,3.775c-0.168,0.167-0.336,0.259-0.673,0.167
		c-2.767-0.581-4.953-2.095-5.302-4.862c0-1.008,0.104-2.196,0.181-3.53c0.646-2.327,1.073-4.656,2.159-6.854
		c0.17-1.165,0.777-1.758,0.932-2.612c-0.259-0.168-0.439,0.931-0.776,0.687c0.167-0.26,0.167-0.673,0.414-0.905
		c-0.156-0.854,0.594-1.359,0.775-2.2c1.682-2.768,3.854-5.043,5.858-7.474c1.94-1.164,3.104-3.17,5.045-4.347
		c-0.079,0.337-0.415,0.337-0.519,0.674c0.259-0.092,0.439-0.169,0.519-0.427c0.089,0.93,0.516,1.514,0.335,2.354
		c0.854,4.114,1.293,8.316,1.164,12.595c-0.065,3.701-0.983,6.983-1.488,10.993L367.923,81.564z M365.491,57.898
		c0-0.13,0.079-0.207,0.26-0.207c0,0.09-0.26,0.351-0.26,0.167V57.898z M365.751,57.705c0-0.078,0.078-0.169,0.155-0.169
		c0,0.091,0,0.169-0.168,0.169H365.751z M365.906,57.536c0.168-0.336,0.414-0.491,0.672-0.646
		C366.409,57.2,366.242,57.458,365.906,57.536z M366.578,56.864c0.169-0.414,0.427-0.647,0.841-0.828
		c-0.259,0.335-0.518,0.673-0.841,0.841V56.864z M433.877,54.923c-0.128,0.065-0.181,0.13-0.284,0.183
		c-1.345-0.169-1.513-1.425-2.276-2.098c0.336-0.516-0.167-0.839-0.259-1.342c-0.155-1.088,0.776-2.354,0.854-3.533
		c0.077-0.336-0.091-0.414-0.168-0.581c0.439-0.427,0.439-1.422,0.775-1.941c-0.076-1.5,0.842-2.432,0.647-4.008
		c0.453-0.44,0.777-1.424,0.518-2.457c0.181,0,0.181-0.079,0.349-0.079c0.079-1.085,0.337-1.59,0.841-2.431
		c0.517-1.772,0.932-4.203,1.19-6.208c-0.167-1.189,0.583-3.699-0.091-4.966c0-0.337,0.091-0.337,0-0.582
		c-0.167-0.259-0.259,0.259-0.413,0c-0.169-0.776-0.905-0.841-1.345-1.345c-0.337-0.09-0.09,0.415-0.415,0.337
		c-0.167-0.194-0.426-0.363-0.672-0.453c-0.09-0.414,0.337-0.414,0.414-0.75c-0.414-0.091-0.906-0.259-1.422-0.168
		c-0.091-0.259,0.259-0.168,0.168-0.427c-0.414,0-0.646-0.258-0.906-0.155c-0.426-1.164-2.586-0.517-3.104-2.03
		c-0.516,0-0.595,0.181-0.93,0.181c0,0.517,0,1.008-0.259,1.164c0.427,0.607,0.427,1.616,0.673,2.366
		c-0.439,3.013-1.19,6.04-1.772,9.233c-0.427,1.269-0.775,3.104-0.931,4.954c0,0.168-0.22,0.091-0.13,0.349
		c-0.09,1.255-0.516,2.095-0.594,3.182c-0.517,1.681-1.604,2.845-2.199,4.527c-1.254,1.422-2.676,2.69-3.594,4.371
		c-0.777,0.582-1.514,1.591-2.277,1.849c-0.427,0.775-1.267,1.101-1.771,1.682c-0.169,0-0.169,0.091-0.259,0.091h-0.841
		c-0.259,0.518-0.905,0.581-1.422,0.75c-0.518-0.169-0.414-0.828-0.75-1.085c0-0.414-0.091-0.647-0.259-0.996
		c-0.168-1.577,0.336-1.94,0.336-3.105c0.518-1.421,1.345-3.012,1.682-4.436c1.008-0.685,0.931-2.199,1.771-3.207
		c-0.09-1.035,0.672-1.164,0.583-2.199c0.167-0.09,0.258-0.426,0.517-0.426c0.077-0.996,0.323-2.172,1.163-2.677
		c-0.167,0-0.257,0-0.257-0.168c0.168-0.427,0.517-0.672,0.595-1.268c0.517-0.426,0.904-1.009,1.163-1.681
		c2.108-2.457,4.63-4.526,7.152-6.556c0.517-0.078,0.905-0.336,1.346-0.583c0.103-0.646,0.362-1.164,0.362-1.836
		c-0.259-0.168-0.337-0.595-0.518-0.905c-0.75,0-1.085-0.698-1.94-0.608c-1.332,0.776-2.327,1.849-3.427,2.768
		c-0.168,0.518-0.413,0.931-0.904,1.099v0.311c-0.609,0.426-1.036,1.035-1.293,1.681c-3.104,4.035-5.859,8.316-7.89,13.449
		c-0.387,1.165-0.646,2.264-1.163,3.105c0,0.839-0.582,1.59-0.414,2.353h-0.258c-1.242,4.113,0,9.053,3.802,9.572
		c0.324-0.169,0.413-0.169,0.75,0c3.453-1.347,5.974-3.441,8.068-6.298c0.168,0,0.091,0.258,0.259,0.258
		c0.414-0.608,0.841-1.111,1.513-1.371c0.092,1.422,0.776,2.354,1.19,3.452c0.337-0.153,0.168,0.092,0.414,0.092
		c0,0.168-0.259,0.092-0.167,0.336c0.775,1.422,1.939,2.354,2.948,3.44c1.346,0.414,2.521,0.828,4.034,0.995
		c0.673-0.258,1.423-0.412,2.354-0.412c0.13-0.105,0.297-0.236,0.439-0.338c-0.685-0.647-1.138-1.423-1.163-2.456L433.877,54.923z
		 M520.162,30.507c0,0.259-0.337,0.182-0.337,0.427c0,0.091,0.169,0.091,0.258,0.091c-0.089,0.181-0.258,0.181-0.427,0.181
		c-0.128-0.09-0.128,0,0,0c0,0.078,0,0.259,0,0.336c-0.697,0.414-0.697,1.087-1.55,1.422c0,0.517-0.646,0.336-0.582,0.905
		c-0.337,0.104-0.519,0.362-0.906,0.362c0,0.156,0.077,0.156,0.077,0.324c-0.646,0.336-1.163,1.099-1.68,1.772
		c-0.078-0.091-0.078,0,0,0c-0.157,0.414-0.648,0.078-0.648,0.672c-1.098,0-1.266,1.423-2.198,1.682
		c-0.077,0.168-0.259,0.259-0.168,0.491c-0.259,0.091-0.413,0.168-0.673,0.168c-0.334,0.517-0.839,0.931-1.512,1.099
		c-0.092,0.079-0.092,0.414-0.182,0.519c-1.164,0.827-2.328,1.576-3.362,2.508c-1.165,0-1.501,0.996-2.328,1.346
		c0,0.491-0.259,0.646-0.181,1.163c-0.258,0.091-0.258-0.155-0.517-0.077c0.685,0.75-0.491,1.254-0.26,2.017
		c-0.063,0-0.129,0.077-0.31,0.077c0,0.259,0,0.518,0,0.778c-0.427,0.568-0.687,1.422-1.268,1.836
		c-0.259,0.906-0.673,2.326-1.345,3.103c0,0.26,0.09,0.26,0.335,0.26c-1.009,0.491-0.841,1.255-1.68,2.003
		c0.259,0.169-0.078,0.648,0.09,0.777c0.322,0-0.103-0.777,0.322-0.686c0,0.259,0,0.413,0,0.673c-0.336,0-0.425,0.323-0.594,0.154
		c-0.182,1.268-0.841,2.781-1.771,3.531c0.076,0.594-0.182,0.841-0.428,1.099c-0.078,0.259,0.089,0.259,0.089,0.414
		c-0.58,1.165-1.421,2.611-2.586,3.453c0,0.153,0,0.259,0,0.388c-0.854-0.076-0.943,0.582-1.19,1.009
		c-1.848,0.75-3.529,1.681-5.379,1.85c-0.775-0.324-2.029-0.156-2.366-0.904c-0.827,0.075-0.996-0.427-1.682-0.427
		c-0.155-0.428-0.077-1.269-0.491-1.424c0.233-0.168,0-0.338,0.155-0.686c-0.672-1.165,0.336-2.432,0.336-3.686
		c0.168,0,0.168-0.104,0.323-0.104c0.168-1.165,0.427-2.328,1.165-3.001c-0.064-0.594,0.439-0.775,0.517-1.513
		c0.426-0.078,0.351-0.646,0.775-0.75c0.828-2.264,2.679-3.531,3.854-5.456c2.782-2.769,5.82-5.123,9.079-7.373
		c0.751,0.064,0.841-0.518,1.424-0.607c0.672-2.587,0.93-5.95,0.425-8.795c0-0.194,0.091-0.194,0.183-0.258
		c-0.338-0.517-0.17-1.267-0.338-1.94c-0.516-2.276-2.107-5.043-3.879-5.12c-0.156,0-0.736,0.257-1.073,0.257
		c-0.104,0-0.258-0.18-0.258-0.18c-0.933,0.258-1.269,1.008-2.277,1.254c-0.943,1.009-2.457,1.345-2.948,2.69
		c-0.517,0.181-1.007,0.349-1.007,0.944c-0.854,0.078-0.854,1.163-1.526,1.422c0.167,0.905-1.1,1.009-1.011,2.095
		c-0.167,0.091-0.257,0.091-0.335,0c0.078,0.259,0,0.259,0,0.595c-1.101,1.164-1.604,2.715-2.689,4.009
		c0.168,0.518-0.519,0.712-0.168,1.035c-0.324,0.258-0.647,0.517-0.57,1.163c-0.841,1.526-1.512,2.794-1.771,4.89
		c-0.259,0-0.091,0.335-0.349,0.335c-0.182,1.034,0.077,1.359-0.35,1.94c-0.168,3.104-1.423,6.389-2.353,8.989
		c0,0.568,0.102,1.239-0.324,1.422c0.518,0.581,0,1.164,0,1.591c-0.84,0-1.008,0.904-1.771,0.646c-0.181,0,0,0.428-0.091,0.596
		c-0.595,0.077-1.681,0.155-2.276-0.181c-0.168,0-0.414-0.092-0.337,0.168c-0.736-0.428-1.836-0.519-2.675-0.854
		c-0.079-0.233-0.26-0.492-0.079-0.828c0.091-0.337-0.323-0.168-0.323-0.518c0-0.232,0.259-0.232,0.427-0.323
		c0.092-1.319,0.841-2.25,0.776-3.492c0.323-0.854,0.155-1.94,0.568-2.87c0.842-8.238,2.276-15.028,3.7-22.593
		c0.414-0.828,0.335-2.173,0.516-3.362c0.569-1.681,0.155-2.754,0.828-4.009c0.077-2.199,0.75-3.286,0.75-5.381
		c0.336-0.335,0.168-1.085,0.427-1.512c0.168-2.354,0.905-4.695,1.009-6.983c1.268-4.94,1.94-10.307,3.284-15.597
		c0.233,0.09,0.155-0.156,0.324-0.156c-0.105-0.336-0.183-0.672-0.26-1.034c1.76-0.646,3.428,0.362,5.044,0.776
		c1.241,0.672,2.069,2.431,1.332,3.879c0,0.492,0.233,1.074,0.233,1.578c0,0.259-0.26,0.427-0.324,0.672
		c0,0.156,0.091,0.517,0.091,0.647c-0.104,1.526-0.607,2.367-0.518,3.362c-0.672,2.457-0.775,5.38-1.681,7.823
		c0,0.169,0.077,0.26,0.168,0.337c-0.582,0.686-0.336,2.367-1.098,2.845c0.258,0.35-0.169,0.686,0.089,0.944
		c-1.941,4.372-2.197,10.501-3.271,15.7c1.938-2.094,4.111-4.694,6.982-6.208c0.647-0.776,1.914-0.84,2.677-1.513
		c1.94-0.517,4.694-1.163,6.467,0.168c1.5,0.078,2.171,0.906,3.271,1.345c-0.091,0.583,0.414,0.078,0.336,0.673
		c0.906,0.155,1.165,0.905,1.488,1.681c0.853,0.738,1.099,1.992,1.771,2.845c0.182,0.996,0.259,1.759,0.427,2.587
		c0,0.646-0.168,1.164,0.168,1.513c-0.413,1.267-0.517,1.681-0.413,2.69c-0.519,0.258-0.336,1.163-0.336,1.85
		c-0.17,0.258-0.518,0.685-0.26,1.189c1.515-0.776,2.69-2.017,4.14-2.522c0.154,0,0-0.414,0.154-0.517
		c1.345-0.155,1.836-1.423,3.18-1.746c0.092-0.426,0.778-0.336,0.778-0.931c1.241-0.415,2.172-1.837,3.595-2.329
		c-0.091,0.066-0.091,0.324,0,0.389c0.168-0.065,0-0.57,0.413-0.389c-0.259-0.775,0.854-0.685,1.269-0.943
		c0.516-0.259,0.749-0.414,1.345-0.582L520.162,30.507z M499.418,46.776c0-0.077-0.09-0.077-0.168-0.077
		c-1.812,1.087-3.749,2.096-5.004,3.776c-2.534,1.772-3.621,5.044-5.639,7.306c-0.077,1.256-0.905,2.355-1.163,3.53
		c0.336,1.165-1.269,1.94-0.352,2.937c-0.09,0.337,0,0.518,0.157,0.75c0.84-0.387,2.108-0.736,2.456-1.331
		c0.234-0.168,0.389-0.336,0.737-0.415c0.258-0.414,0.569-0.749,0.905-0.904c0.077-0.363,0.259-0.687,0.646-0.687
		c1.294-1.68,2.368-3.516,3.713-5.107c0.427-1.682,1.849-3.194,2.017-5.134c0.26,0.092,0.26-0.167,0.414-0.167
		c0-0.261,0-0.492-0.076-0.584c0.827-1.008,0.646-2.586,1.33-3.88L499.418,46.776z M493.212,61.311c0-0.09,0-0.09,0-0.168
		c-0.091,0-0.091,0-0.183,0c0,0.078,0,0.078,0,0.168c0.092,0,0.092,0,0.169,0H493.212z M516.05,33.327c0.077,0,0.169,0,0.169-0.078
		C516.127,33.25,516.05,33.25,516.05,33.327z M518.247,31.736c0-0.13,0-0.13,0-0.194c-0.104,0-0.104,0-0.181,0
		c0,0.078,0,0.078,0,0.168c0.077,0,0.077,0,0.168,0L518.247,31.736z M519.735,30.275c-0.519,0-0.582,0.426-1.01,0.517
		c0.168-0.349,0.674-0.517,0.931-0.776c0.052,0,0.052,0.182,0.052,0.259H519.735z M517.305,53.759c-0.168,0.169-0.091,0-0.338,0
		c0,0.596-0.568,0.934-0.063,1.347c-0.337,0.673-0.413,1.008-0.077,1.771c0,0.194-0.183,0.104-0.351,0.104
		c0,0.257,0.078,0.257,0.337,0.257c-0.44,0.415,0.568,1.256,0.324,1.761c0-0.091,0-0.091-0.091-0.091c0,0.091,0,0.091,0.091,0.091
		c0.335,0.258,0.257,0.84,0.413,1.163c2.106-1.591,3.53-3.854,5.302-5.688c1.682-2.848,4.1-5.045,5.366-8.318
		c0.778-0.646,1.101-1.681,1.681-2.508c0.092-0.776,0.428-1.164,0.687-1.773c0-0.258,0.259-0.181,0.335-0.336
		c1.165-3.104,2.847-5.638,4.01-8.742c0.104,0,0.104-0.078,0.259-0.078c0.428-1.163,1.036-2.095,1.773-2.935
		c-1.515,5.043-3.52,9.829-5.46,14.2c-0.076,0.517-0.076,1.035-0.516,1.344c-0.234,1.604-1.5,3.364-1.836,4.786
		c-0.519,0.777-1.165,1.423-1.424,2.522c-1.513,1.941-2.689,4.188-4.37,5.872c0.167,0.169,0,0.257,0,0.414
		c-1.255,1.511-2.096,3.024-3.518,4.459c-1.681,0.777-4.785,2.2-6.726,0.854c0.092-0.104,0-0.104,0,0
		c-2.767-0.776-3.855-4.047-4.009-6.646c0.39-0.518,0.065-1.346,0.232-1.682c0.104,0.168,0.104,0,0,0
		c0.104-5.044,1.163-8.743,1.268-13.709c0.427-0.568,0.337-1.074,0.518-2.069c0.414-0.426,0.582-1.771,0.414-2.276
		c0.995-3.363,0.995-6.13,1.837-9.079c-0.428-0.583,0.412-1.423,0.258-2.264c0.325-0.517,0.259-1.085,0.647-1.422
		c0-0.09-0.156-0.09-0.234-0.09c0.26-1.086,0.414-2.354,0.906-3.272c0.104-0.336-0.156-0.259-0.232-0.427
		c0.413-1.332,0.336-3.104,1.254-4.112c0.078-0.349-0.427-0.181-0.167-0.426c0.258-0.104,0.167,0.155,0.335,0.155
		c0.336-0.26,0.414-0.75,0.673-1.087c-0.518,0.078-0.673,0.337-0.673,0.828c-0.749-0.646,0.519-2.508,0.414-3.103
		c0.091-0.259,0.091-0.079,0.337-0.079c0.09-0.258-0.259-0.167-0.169-0.426c0.259,0.104,0.194-0.155,0.362-0.155
		c-0.078-0.827,0.336-1.242,0.517-1.94c0-0.129-0.09,0-0.26,0c0-0.129,0.079-0.258,0.26-0.258c0-0.389,0-0.31-0.09-0.646
		c0.349,0.09,0.09-0.414,0.428-0.337c-0.17-0.569,0.168-1.655,0.672-2.172c0.582-3.518,2.095-7.799,3.531-11.251
		c0.076-0.582,0.258-1.164,0.672-1.423c0.905-3.026,2.999-5.625,4.94-7.979c0.336-0.258,0.75-0.349,0.839-0.776
		c1.424,0.091,2.691,0.518,3.944,0.182c0.078,0,0.078-0.168,0.078-0.259c0.776,0.09,1.267,0.168,1.772,0.595
		c0,0.168,0,0.258,0,0.413c2.521,2.277,0.516,6.208,0.413,9.234c-0.673,1.849-1.008,4.035-1.682,5.625
		c0.26,0.608-0.413,1.165,0,1.682c-0.582,0.685-0.672,1.862-1.5,2.289c0,0.078,0,0.168,0.194,0.168
		c-1.422,2.263-2.457,5.043-4.371,6.802c-1.345,1.087-2.263,2.678-3.699,3.622c0.104,0.065,0.104,0.233,0.104,0.388
		c-0.775,1.358-0.906,3.04-1.772,4.462c0.182,0.258,0.259,0.608-0.065,0.776c0.674,0.387-0.334,0.905-0.089,1.422
		c-0.492-0.168-0.337,0.427-0.647,0.647c0.311,0.258,0.066,0.698,0.389,1.035c-0.389,0.776-1.333,1.513-0.905,2.586
		c-0.428-0.155-0.259,0.362-0.518,0.362c0.259,0.905-0.583,1.836,0,2.768c-0.491,0.672-0.646,2.018-1.01,2.845
		c0,0.258,0.26,0.168,0.26,0.427c-0.775,1.862,0,3.543-0.932,5.134c0.414,0.414-0.336,0.776,0.076,1.008
		c0.092,0.259-0.255,0.09-0.255,0.336c0.179,0.932-0.26,2.457-0.415,3.543c0,0.169,0.258,0.078,0.258,0.258
		c-0.09,0.828-0.427,1.164-0.258,1.94c-0.336-0.103-0.336,0.233-0.673,0.233c0,0.078,0.09,0.167,0.259,0.167
		c-0.09,0.181-0.169,0.259-0.259,0.427c0.337,1.163-0.337,2.199-0.169,3.364c-0.076,0-0.076,0.09-0.258,0.09
		c0.427,0.996-0.078,1.589-0.078,2.845c0.129,0,0.194,0,0.194,0.091c0.337,0,0.337-0.324,0.518-0.584h0.077
		c-0.077,0.519,0,0.519-0.155,0.841L517.305,53.759z M511.174,43.18c0-0.076,0-0.076,0-0.168c-0.092,0-0.092,0-0.169,0
		c0,0.066,0,0.066,0,0.129c0.077,0,0.077,0,0.169,0V43.18z M511.174,51.329c0.076,0,0.076,0,0.168,0
		c0.076-0.09,0.076-0.168-0.092-0.259c0,0.091,0,0.091-0.103,0.091c0,0.052,0,0.052,0,0.13L511.174,51.329z M511.433,62.995
		c0.155-0.169-0.259-0.261-0.259-0.091c0.076,0,0.076,0,0.076,0.091c0.067,0,0.067,0,0.132,0H511.433z M515.182,27.042
		c0.183,0,0.351,0,0.351-0.156c-0.517-0.258-0.75,0.414-0.674,0.996c0.26-0.09,0.092,0.259,0.428,0.155
		c0.104-0.336-0.26-0.258-0.26-0.517c0.195,0.104,0.131-0.155,0.26-0.155c0.439,0.181,0.193,0.776,0,1.034
		c0.361-0.09,0.361,0.156,0.361,0.492c-0.168,0.091,0,0.091,0,0c0.169-0.413,0.751-0.906,0.415-1.086c0.077,0,0.258,0,0.324,0
		c-0.26,0.259,0.089,0.673-0.26,0.75c-0.077,0.258,0.26,0.258,0.26,0.427c-0.168,0.167-0.415,0.259-0.415,0.582
		c0.078,0.091,0.415-0.078,0.415,0.091c-0.26,0.077-0.582,0.077-0.582,0.414c0.335,0.064-0.26,0.569,0.167,0.814
		c-0.167,0.091-0.167,0.336-0.335,0.336c-0.169-0.427,0.076-1.099,0.168-1.526c-0.168-0.077-0.674-0.155-0.428-0.517
		c-0.168,0-0.259,0-0.414,0c0,0.362,0.077,0.258,0,0.517c-0.337,0-0.517,0.091-0.517,0.336c0.348,0.259,0.931-0.091,0.853-0.258
		c0.104,0,0.194,0.078,0.194,0.167c-0.336,0.517-1.423,0.906-1.099,1.604c-0.428,0.336-0.337,1.268-0.519,1.422
		c0-0.155,0.26,0,0.336,0c0-0.492,0.595-0.324,0.519-0.905c-0.181,0-0.351,0-0.351-0.181c0.26-0.336,0.311-1.009,0.738-1.009
		c-0.428,0.518,0.078,1.771-0.672,1.94c0.167,0.582-0.595,0.414-0.776,0.75c0.103,0.077,0.182,0.077,0.35,0.077
		c-0.168,0.168-0.168,0.518-0.337,0.673c0.169,0.168,0.169-0.078,0.517,0c0.079-0.259,0-0.259,0.079-0.582
		c-0.092,0-0.17-0.091-0.259-0.091c0-0.168,0.336,0,0.517-0.077c0.154,1.421-0.685,2.676-0.595,3.944
		c0.581-0.078,0.337-1.009,1.009-1.009c-0.168,0.75-0.337,1.423-0.595,2.173c0.258,0.09,0.258-0.09,0.414-0.09
		c-0.091,0.607-0.594,1.526-1.1,1.19c-0.26,0.258-0.413,0.517-0.26,0.839c-0.153,0-0.153,0.092-0.322,0.092
		c0.259,0.259,0,0.517,0.337,0.75c0.077-0.079,0-0.336,0.168-0.336c0.077,0.336-0.168,0.336-0.091,0.594
		c0.168,0,0.428-0.336,0.595-0.09c-0.44,0-0.104,0.336-0.181,0.673c-0.337-0.078-0.168,0.335-0.337,0.414
		c0-0.091-0.077-0.183-0.154-0.183c-0.092,0.259-0.092,0.351-0.337,0.259c-0.091,0.595-0.413,1.254-0.337,1.94
		c-0.168,0.155-0.336,0.155-0.427,0.324c0.427,0,0.091,0.349,0.259,0.517c0.336,0,0.336-0.336,0.674-0.336
		c-0.092,0.09-0.092,0.168-0.092,0.257c-0.414,0.259-0.517,0.842-0.75,1.256c0.076,0,0.26,0,0.336,0
		c-0.09,0.089-0.168,0.089-0.168,0.257c0.336,0.079,0.168,0.415,0.092,0.777c0.154,0,0.322,0,0.322,0.064
		c-0.259,0.583,0,1.166-0.75,1.346c-0.169,0.323,0.259,0.064,0.259,0.259c-0.182,0.22-0.428,0.479-0.932,0.389
		c0.414,0.258,0.078,0.854,0.336,1.1c-0.478,0-0.064,0.904-0.387,1.254c0.078,0.258,0.322,0.258,0.322,0.517
		c-0.336,0.322-0.413,0.828-0.258,1.332c0.258,0.09,0.182-0.259,0.428-0.168v0.091c0.168,0,0.089,0.258,0.257,0.258
		c0-0.193-0.089-0.258-0.089-0.361c0.103-0.17,0.361-0.17,0.516-0.337c0.518-1.086,0.427-2.017,0.595-3.013
		c-0.259-1.099,0.337-2.691,0.168-3.789c0.155-0.065,0.066-0.388,0.259-0.388c-0.104-1.604,0.646-3.04,0.479-4.461
		c0.776-1.165,0.427-3.196,1.1-4.451c-0.154-1.073,0.427-1.745,0.181-2.663c-0.167,0.168-0.517,0.077-0.517,0.335
		c0.091,0,0.182,0,0.259,0c-0.259,0.324-0.259,0.996-0.672,1.164c0.336-1.164,0.257-1.681,0.672-2.688
		c0.169,0.077,0.258-0.26,0.336,0c0,0.336-0.518,0.517-0.336,0.75c0.258,0.091,0.169-0.336,0.336-0.336
		c0,0.168,0.09,0.258,0.168,0.258c0.582-2.767,1.009-5.457,1.423-8.237c-0.336,0.259-0.258-0.168-0.582-0.168
		c0.092,0.259,0,0.595-0.336,0.595c0.168-0.167,0.168-0.517,0.26-0.841c-0.428-0.09-0.596,0.169-0.843,0.26
		c0.065-0.35-0.103-0.518-0.438-0.427c-0.078,0.336,0.259,0.517,0,0.776c0.336,0.065,0.168-0.362,0.428-0.362
		c0.063,0.518,0.063,1.604-0.44,1.165L515.182,27.042z M511.496,62.904c0.092,0,0.168,0,0.168-0.078c-0.051,0-0.128,0-0.128,0.091
		L511.496,62.904z M512.184,44.1c-0.066,0.336-0.324,0.517-0.324,0.995c0.35,0,0.518-0.737,0.35-0.995H512.184z M512.286,52.402
		c-0.259,0.337,0,1.101-0.427,1.267c0.168-0.426,0-0.93,0.258-1.162c0-0.181-0.426-0.687,0.092-0.607
		c-0.077,0.258-0.157,0.427,0.09,0.517L512.286,52.402z M512.117,59.463c0-0.155-0.09-0.26-0.168-0.26
		c0,0.104-0.064,0.104-0.064,0.182c0.079,0,0.079,0.091,0.259,0.091L512.117,59.463z M512.117,63.42c0-0.09,0.092-0.09,0.092-0.169
		c-0.077,0-0.077-0.091-0.26-0.091c0,0.091,0,0.17,0,0.26c0.103,0,0.103,0,0.183,0H512.117z M512.209,53.928
		c-0.077,0-0.077,0-0.157,0c0-0.077,0.169-0.077,0.169,0H512.209z M512.052,56.45c0.26,0.336,0.583,1.165,0,1.422
		c0.08,0.336,0.169,0.26,0.08,0.673c0.426,0.324,0.426,0.906,0.336,1.425c0.167,0,0.335,0,0.517,0
		c0.078-1.683-0.933-3.195-0.182-4.709c-0.168-0.337-0.168-0.337-0.077-0.751c-0.258-0.023-0.337,0.233-0.517,0.323
		c0.18,0.168,0.18,1.515-0.157,1.592V56.45z M512.312,51.833c0,0.102,0,0.102-0.103,0.102c0-0.09,0-0.09,0.09-0.09L512.312,51.833z
		 M512.389,51.575c0.079,0,0.079,0.104,0.169,0.104c0,0.078,0,0.078,0,0.166c-0.103,0-0.181,0-0.259,0c0-0.063,0-0.128,0.078-0.257
		L512.389,51.575z M513.979,62.347c-0.606-0.169-0.774-0.776-1.356-0.841c0,0.168-0.414-0.09-0.26,0.258
		c0.672,0.078,0.931,0.647,1.604,0.583H513.979z M513.54,64.027c-0.078-0.427-0.672-0.427-0.995-0.593
		c0,0.166,0.154,0.166,0.064,0.427c0.414-0.261,0.414,0.258,0.906,0.166H513.54z M512.635,53.942
		c-0.09,0.167,0.156,0.427,0.156,0.167c-0.079,0-0.079-0.167-0.168-0.167H512.635z M513.282,60.924
		c-0.156-0.259-0.323-1.034-0.647-0.687c0.389,0.092,0.077,0.598,0.647,0.674V60.924z M512.791,49.493c0.077,0,0.077,0.22,0,0.22
		c0-0.076-0.079-0.155,0-0.259V49.493z M513.205,31.904c-0.17,0.09-0.414,0-0.414,0.259c0.414,0,0.905-0.518,0.414-0.776
		c0,0.129-0.079,0.129-0.17,0.129C512.959,31.826,513.294,31.645,513.205,31.904z M513.035,46.776c-0.076,0-0.167,0-0.258,0
		C512.777,46.699,513.035,46.699,513.035,46.776z M512.945,46.608c-0.103,0-0.103-0.167-0.103-0.322c0.336,0,0,0.155,0.091,0.322
		H512.945z M513.011,44.927c-0.26-0.078,0-0.414,0.168-0.414c0,0.259-0.168,0.259-0.168,0.427V44.927z M513.102,32.176
		c0,0.258-0.259,0.258-0.168,0.595c0.219,0.09,0.387-0.673,0.129-0.582L513.102,32.176z M513.179,37.388c-0.077,0-0.077,0-0.168,0
		c0,0.09-0.077,0.09-0.077,0.168c0.129,0,0.219,0,0.219-0.168H513.179z M513.347,39.068c0-0.167,0-0.258-0.13-0.258
		c0,0.091,0,0.091,0,0.169c0.077,0,0.077,0.089,0.156,0.089H513.347z M513.347,43.012c0,0.079-0.053,0.079-0.13,0.079
		c0-0.091,0.077-0.091,0.156-0.091L513.347,43.012z M513.217,45.599v-0.079C513.294,45.521,513.294,45.599,513.217,45.599z
		 M513.708,44.306c-0.091,0-0.091-0.194-0.091-0.259c-0.259-0.103-0.064,0.259-0.309,0.156c-0.092-0.336,0.257-0.258,0.516-0.258
		c0,0.181-0.104,0.258-0.104,0.349L513.708,44.306z M513.373,37.659c0.167,0.155,0.258-0.258,0.077-0.258c0,0.09,0,0.09-0.077,0.09
		c0,0.104,0,0.104,0,0.195V37.659z M513.785,35.383c-0.168,0.167-0.516,0.594-0.335,0.839c0.749-0.167,0.414-1.164,0.749-1.59
		c-0.077,0-0.155-0.168-0.258-0.168c-0.156,0.26-0.491,0.26-0.491,0.673c0.167,0,0.258,0.129,0.335,0.219V35.383z M513.708,28.399
		c-0.168,0-0.258,0.104-0.258,0.182c0.167,0,0.258-0.078,0.258-0.169V28.399z M513.617,64.041c0,0.234,0.195,0.234,0.453,0.234
		c0-0.259-0.181-0.259-0.426-0.259L513.617,64.041z M513.721,38.667c-0.076,0.259,0.169,0.259,0.428,0.259
		c0-0.259-0.156-0.259-0.415-0.259H513.721z M513.876,28.167c0,0.077,0,0.168,0,0.258C514.136,28.581,514.136,28.076,513.876,28.167
		z M514.136,37.905c0,0.167-0.26,0.078-0.26,0.258C514.058,38.422,514.395,37.995,514.136,37.905z M514.395,38.836
		c0,0.155,0,0.323-0.091,0.414c0.259,0.168,0.414-0.518,0.076-0.414H514.395z M514.807,30.262c-0.257,0-0.335,0.077-0.427,0.258
		c0.26,0,0.39,0,0.39-0.258H514.807z M515.065,33.443c0-0.323,0.428-0.646,0.778-0.414c-0.351,0.168-0.183,0.258-0.596,0.336
		c0,0.091,0,0.167,0,0.258c-0.091,0-0.183,0-0.183-0.167V33.443z M515.402,35.125c-0.077,0-0.077,0-0.169,0
		C515.233,35.047,515.402,35.047,515.402,35.125z M515.571,32.615c-0.39-0.077-0.311-1.009,0.259-0.841
		c-0.154,0.311-0.077,0.479-0.259,0.815V32.615z M516.255,22.696c-0.077,0.259,0.169,0.35,0.091,0.596
		c-0.179,0.336-0.929,0.84-0.516,1.164c0.169-0.233,0.258-0.493,0.516-0.646c0.066,0.077,0.158,0.154,0.233,0.258
		c0.091-0.104,0.168-0.258,0.427-0.258c-0.064-0.686,0.259-0.931,0.699-1.1c0,0.414-0.26,0.582-0.427,1.008
		c0.943-0.258,0.686-1.604,0.943-2.199c-0.168,0-0.168-0.077-0.335-0.077c0,0.426-0.337,0.426-0.169,0.84
		c0-0.168-0.84-0.414-0.596-0.078c-0.336,0.13-0.581,0.311-0.84,0.479L516.255,22.696z M516.592,25.153c0-0.09,0-0.09,0-0.18
		c0-0.168-0.348,0-0.516-0.078c0,0.258-0.26,0.168-0.26,0.414c0.519-0.258,0.091,0.129,0.519,0.129c0-0.155,0-0.323,0.257-0.323
		c0.078,0.259,0.414-0.077,0,0V25.153z M516.335,24.701c0.155,0.155,0.231-0.258,0.063-0.258c0,0.09,0,0.09-0.078,0.09
		c0,0.078,0,0.078,0,0.156L516.335,24.701z M516.566,22.761c0,0.09,0,0.09,0,0.168c-0.076,0-0.076,0-0.168,0c0-0.09,0-0.09,0-0.168
		C516.49,22.761,516.49,22.761,516.566,22.761z M516.49,27.805h-0.092C516.398,27.714,516.49,27.714,516.49,27.805z M517.161,25.283
		c-0.258,0.077-0.518,0.155-0.518,0.491c0.26,0,0.26,0.169,0.595,0.078c0-0.478,0.414-1.241,0.091-1.577
		c-0.336,0.181-0.168,0.776-0.426,0.776c-0.169,0.336,0.258,0.077,0.258,0.258V25.283z M516.826,19.761
		c0,0.09-0.092,0.169-0.092,0.336c0.362,0,0.259-0.259,0.13-0.336H516.826z M516.903,20.86c0.09,0,0.09,0,0.167,0
		c0-0.078,0-0.078,0.091-0.078c0-0.129,0-0.129,0-0.194c-0.091,0-0.091,0-0.168,0c0,0.079,0,0.079-0.065,0.079
		c0,0.103,0,0.103,0,0.181L516.903,20.86z M517.238,21.442c-0.258,0-0.168,0.168-0.335,0.258
		C517.07,21.869,517.238,21.7,517.238,21.442z M517.238,20.019c-0.077,0-0.077,0.259,0,0.259c0-0.091,0.091-0.091,0.17-0.091
		c-0.17-0.257,0.09-0.257,0.09-0.594c-0.26,0-0.428,0.09-0.428,0.337c0.091,0,0.17,0,0.17,0.089H517.238z M517.588,18.429
		c0,0.414-0.09,0.673-0.35,1.086c0.518,0.103,0.518-0.725,0.337-1.061L517.588,18.429z M530.146-7.19
		c-0.595,1.242-0.906,2.509-1.592,3.932c0,0.258,0,0.453,0,0.699c-1.163,2.844-2.108,6.207-3.103,9.233
		c-0.091,0.258,0.077,0.336,0.077,0.517c-0.672,1.254-0.84,3.104-1.345,4.267c2.238-2.172,4.009-4.784,5.768-7.461
		c0.933-2.509,2.263-5.043,2.845-7.72c0.104-0.336,0.104-0.336,0-0.673c0.183-0.31,0.351-0.815,0.259-1.242
		c0.673-0.414-0.076-1.759,0.596-2.263c0-1.293-0.414-2.625-1.423-3.104c-0.674,1.241-1.513,2.16-1.682,3.673
		c-0.258,0-0.258,0.168-0.426,0.168L530.146-7.19z M539.883,25.309c0,0.233-0.154,0.233,0,0.388c0.09,0,0.09-0.155,0.09-0.311
		c0.26-0.09,0.078,0.259,0.26,0.323c0.674-0.22,0.674,0.517,1.087,0.621c-0.258,0.595-0.413,0.75-0.168,1.255
		c-0.313,0.672-0.815,1.422-0.906,2.521c-0.077,0-0.167-0.181-0.257-0.181c-0.156,0,0.09,0.259,0.18,0.259
		c-0.582,1.009-0.75,2.263-1.345,3.362c0.154,1.086-0.774,2.004-0.596,3.104c-0.091,0.078-0.091,0.337-0.337,0.337
		c-0.335,1.681-0.672,2.844-1.421,4.112c-0.259-0.168,0.154-0.426,0.078-0.749c-0.778,0.323-0.842,1.331-0.778,2.095
		c0.441-0.259,0.104-0.841,0.687-1.009c0.168,1.085-0.517,2.521-1.009,3.194c-0.193-0.427,0.259-0.336,0.13-0.776
		c-0.569,0.103-0.259,1.112-0.829,1.19c0.777,0.93-0.748,2.521,0.092,3.44c-0.092,0.194-0.259,0.194-0.336,0.259
		c-0.091,0.362,0.168,0.439,0.168,0.698c-0.491-0.091,0,0.842-0.491,0.75c-0.167,1.448-0.335,1.939-0.259,3.466
		c0,0.17,0.092,0.258,0.259,0.258c-0.259,0.647,0.076,1.424,0.335,2.071c0.168,0,0-0.324,0.08-0.493
		c0.167,0.169,0.167,0.518,0.257,0.841c1.009,0,1.163-0.905,1.94-1.165c1.073-1.188,2.25-2.274,3.104-3.696
		c0.322-0.26,0.646-0.597,0.827-1.099c0.338-0.169,0.428-0.675,0.842-0.842c0-0.182,0.168-0.259,0.091-0.518
		c2.585-3.881,5.042-7.89,7.138-12.338c1.253-1.422,1.835-3.53,3.194-4.875c0.05-0.699,0.724-0.867,0.724-1.617
		c1.254-1.422,2.433-2.948,3.53-4.526c0.479-0.104,0.569-0.517,0.815-0.776c0.517,0,0.673-0.323,1.163-0.323
		c0.854,0.091,0.946,0.931,1.862,0.931c0,0.336,0.09,0.583,0.518,0.518c-0.09,0.258-0.09,0.583,0.259,0.583
		c-0.104,0.581-0.104,1.085-0.104,1.835c-0.09,1.319-0.517,2.587-0.684,3.672c-0.077,0.518-0.518,0.907-0.583,1.424
		c-0.427,1.771-0.596,3.452-1.268,5.38c-0.076,0.09-0.323,0.09-0.582,0.09c-0.181,1.514-0.774,3.454-0.091,4.786
		c-0.09,1.512,0.078,2.779,0.583,3.621c0.387,0.336,0.996,0.672,1.681,0.582c1.164-0.078,2.069-1.345,3-2.354
		c0.337-0.336,0.842-0.646,1.1-0.905c0.75-0.944,1.164-2.276,1.85-3.453c0.414-0.776,0.905-1.423,1.423-2.277
		c0.582-2.263,1.681-4.113,2.78-5.949c0,0.415,0,0.828,0,1.255c-0.337,1.164-0.854,2.198-1.1,3.44
		c-1.345,2.936-2.521,5.949-3.775,8.988c-0.428,0.414-0.775,1.009-0.841,1.76c-0.828,0.866-1.501,1.94-2.419,2.715
		c-0.335-0.077-0.595,0.26-0.673-0.077c-2.264,1.164-4.526-0.685-5.871-1.939c-0.259-0.84-0.775-1.514-0.932-2.431
		c0.259-1.01-0.167-1.94-0.49-2.691c0-1.603-0.168-2.845,0.078-4.707c0.077-0.258,0.336-0.258,0.412-0.517
		c-0.167-1.319,0.687-2.845,0.169-3.932c-0.35,0.155-0.35,0.646-0.427,0.828c-0.091,0.091-0.259,0.091-0.413,0.091
		c-2.277,3.621-4.449,7.242-6.208,11.445c0.492,0,0.388-0.595,0.492-1.008c0.84,0.516-0.75,1.512-0.414,2.095
		c-0.259,0.154-0.324,0.518-0.583,0.581c-0.414,1.683-1.163,2.937-2.354,3.854c-0.309,1.345-1.421,1.939-1.809,3.271
		c-1.94,1.164-3.195,4.035-6.052,3.788c-3.44,0.997-6.804-1.525-7.217-4.964c0-0.168,0-0.26,0.168-0.26
		c-0.259-0.581-0.259-1.087-0.168-1.849c-0.519-1.423,0-2.095-0.259-3.104c0.336-1.514,0.091-3.194,0.336-4.708
		c0.426-2.78,1.448-5.819,2.106-8.743c0.26-1.008,0.428-1.939,0.777-2.766c0.323-1.113,0.388-2.367,0.737-3.285
		c0.258-0.595,0.518-1.682,0.932-2.458c-0.092-0.491,0.168-0.737,0.413-0.996c0-0.944,0.259-1.292,0.595-1.939
		c-0.09-0.35,0-0.44-0.09-0.776c0.168-0.078,0.336-0.155,0.336-0.415c1.318,0.647,2.664,1.333,4.423,1.682L539.883,25.309z
		 M535.525,42.586c0,0.168-0.169,0.259-0.091,0.518c0.31,0.064,0.13-0.35,0.064-0.518H535.525z M536.688,40.129
		c0-0.064,0-0.064,0-0.13c-0.077-0.024-0.077-0.024-0.154-0.024c0,0.089,0,0.089,0,0.167c0.077,0,0.077,0,0.168,0L536.688,40.129z
		 M581.616,52.119c-1.423,0.388-3.015,0.517-4.954,0.129c-1.008-0.49-1.758-1.256-2.586-1.94c-0.687-1.073-1.525-2.173-1.617-3.595
		c2.199-1.087,3.621-3.027,5.717-4.268c0.518-0.854,1.345-1.359,1.759-2.199c0.595-0.077,0.518-0.672,1.164-0.672
		c0.181-0.672,0.853-0.841,1.112-1.423c0.672-0.349,1.253-0.776,1.59-1.422c3.233-2.69,6.209-5.639,8.535-9.337
		c0.259-0.556-0.155-0.801,0-1.229c-0.414-0.078-0.335-0.517-0.414-0.905c-0.516-0.944-1.602-1.358-2.612-2.03
		c-0.517-0.259-0.775-0.776-1.085-0.931c-0.169-0.078-0.169,0.168-0.428,0.09c-0.258-0.09-0.258-0.336-0.426-0.336
		c-3.776-0.672-7.217,0.583-9.57,2.018c-4.268,3.271-7.553,7.553-10.346,12.338c-0.13,0.776-0.39,1.267-0.737,1.771
		c-0.492,2.43-0.995,4.784-0.827,7.811c0.335,1.681,0.929,3.182,1.422,4.528c0.853,1.085,1.771,2.093,2.613,3.192
		c1.512,1.011,2.935,1.761,4.706,2.263c0.078-0.088,0.258,0.078,0.322-0.18c0.168,0.169,0.519,0.258,0.777,0.426
		c0.077-0.36,0.491-0.193,0.568-0.193c0.958,0.079,1.683-0.09,2.458,0.17c0.594-0.352,1.604-0.352,2.107-0.945
		c0.168,0,0.168,0.258,0.335,0.258c0.906-0.297,1.736-0.646,2.587-1.06c-1.034-0.388-1.81-1.254-2.198-2.354L581.616,52.119z
		 M578.602,30.327c2.938-2.095,6.467-5.276,10.826-4.694c0.335,0.336,0.426,0.84,0.516,1.422c-0.09,0.336-0.427,0.518-0.349,1.01
		c-2.587,3.621-5.948,6.892-9.828,8.923c-0.491,0.491-1.333,0.737-1.759,1.319c-1.991,0.93-3.842,2.107-5.601,3.193
		c0.339-4.953,3.7-7.72,6.209-11.173H578.602z M647.015-6.53c-0.324,0.258-0.519,1.422,0,2.017
		c-0.388,1.087-0.064,1.591-0.646,2.846c0.076,0.931-0.854,1.849-0.687,2.78c-0.077,0.13-0.168,0.312-0.414,0.312
		c-0.09,1.163-1.344,2.018-1.099,3.026c-0.491,0.31-0.749,0.904-0.749,1.422c-1.034,0.737-1.294,2.25-1.877,3.363
		c-0.412,0.129-0.258,0.491-0.412,0.905c-1.036,0.517-0.777,1.423-1.424,2.095c-0.09,0.259,0.233,0.09,0.154,0.336
		c-0.414-0.077-0.258,0.168-0.335,0.35c-0.091,0.078-0.349,0.078-0.349,0.078c-0.259,0.336-0.337,0.776-0.518,1.165
		c-0.737,0.103-0.569,1.099-1.242,1.357c-0.09,0.259,0.26,0.168,0.168,0.414c-0.828,0.09-0.582,1.164-1.164,1.513
		c0,0.169-0.077,0.337,0.091,0.337c-0.673,1.19-0.595,2.793-1.268,3.711c0.066,0.672,0,1.254-0.361,1.591
		c0.091,0.336,0,0.517,0,0.931c-0.75,1.344-0.518,3.776-1.513,4.953c0.09,1.422-0.582,2.521-0.582,4.112
		c-0.155,0.09-0.155,0.336-0.324,0.426c0.337,0.582-0.595,1.5-0.168,1.94c-0.427,0.491-0.259,1.578-0.673,2.004
		c-0.091,0.26,0.259,0.194,0.169,0.44c-0.091,0.09-0.169,0.336-0.26,0.426c-0.077,0.259,0.091,0.335,0.091,0.518
		c-0.595,1.577-0.671,4.101-0.774,4.94c-0.064,0.258-0.156,0.064-0.388,0.064c0.388,0.932,0.153,1.939-0.183,2.768
		c-0.077,0.337,0.26,0.259,0.26,0.518c-0.428,1.074,0,1.992-0.518,3.169c0,0.091,0.181,0.091,0.258,0.091
		c-0.582,1.356,0.26,2.715-0.414,3.697c0.414,0.519,0.414,1.514,0.337,1.94c-0.091,0.337,0.491,0.841,0.168,1.513
		c0.415,1.165,0.491,2.434,1.5,3.361c0.389-0.166,0.736-0.347,1.073-0.515c3.621-2.938,6.544-6.726,8.898-10.917
		c0.18-0.076,0.258-0.166,0.439-0.256c2.846-5.563,5.948-10.827,8.897-16.296c-0.092,0.426-0.336,0.775-0.26,1.358
		c-1.681,3.776-3.014,7.474-4.267,11.509c-0.182,0.079-0.259,0.259-0.35,0.338c0.091,0.774-0.258,1.848-0.84,2.199
		c-0.828,3.271-2.846,5.364-4.269,8.054c-0.905,1.011-1.85,2.02-2.521,3.196c-1.513,1.422-2.587,3.167-4.785,3.932
		c-1.086,0.582-2.354,1.009-3.518,1.163c-2.781,0.351-4.965-1.59-6.13-3.361c0-0.324-0.129-0.324,0.053-0.492
		c-0.078,0-0.26,0-0.336,0c-0.608-1.163-0.687-2.521-0.778-3.62c-0.153-1.592-0.646-3.184-0.581-4.526
		c0.091-0.75,0-1.683,0.091-2.433c0.077-0.593,0.168-1.252,0.414-1.939c-0.414-0.26,0.336-0.996-0.077-1.164
		c0.077-0.259,0.258-0.427,0.323-0.685c-0.065-0.996,0.181-1.254,0.104-1.94c0.259-0.828,0.413-1.746,0.413-2.845
		c0.26-1.423,0.428-2.431,0.428-3.622c0.581-1.914,0.839-5.108,1.68-6.958c0.338-2.586,1.165-5.198,1.76-7.474
		c-0.077-0.517-0.077-0.439-0.077-0.867c0.581-0.168,0.258-1.164,0.646-1.5c-0.065-0.168-0.065-0.35-0.155-0.428
		c0.168-0.167,0.168-0.582,0.427-0.672c0.335-1.681,0.84-3.776,1.086-5.302c0.26-0.646,0.517-1.577,0.776-2.417
		c0.219-0.091,0-0.337,0.387-0.337c-0.259-0.349,0.168-1.164,0.519-1.423c-0.181-1.525,0.827-2.198,0.827-3.543
		c0.091-0.168,0.26-0.336,0.428-0.426c-0.168-0.414,0.078-0.841,0.336-1.086c0.078-1.526,0.904-2.846,1.163-4.217
		c0.518-0.258,0.335-1.345,0.931-1.59c1.424-3.685,4.035-6.544,7.63-8.302c0.854-0.104,2.535-0.259,2.716,0.259
		c0.997-0.182,1.241,1.073,1.165,1.655c0.168,0,0.259,0,0.414,0L647.015-6.53z M640.808-1.151c-0.647,1.681-0.647,3.285-1.256,5.043
		c0.337,1.1-1.008,2.768-0.672,3.945c-0.414,0-0.26,0.581-0.582,0.646c0.168,1.034-0.751,2.198-0.673,3.298
		c0.194-1.009,1.371-1.94,1.113-2.781c0.929-0.594,0.929-1.681,1.68-2.535c0.091-0.259-0.077-0.259-0.077-0.414
		c0.905-0.414,0.57-1.759,1.487-2.263c0.091-0.259-0.078-0.348-0.078-0.517c1.319-1.254,1.229-3.363,1.811-5.043
		c-0.154-0.155-0.154-0.388-0.154-0.75c0.736-0.854,0.322-2.198,0.26-3.208c-0.26-0.09-0.52-0.09-0.777-0.167
		c-1.086,1.164-1.346,3.013-2.263,4.526c0.078,0,0.168,0,0.168,0.155L640.808-1.151z M666.761,37.465
		c0.26-0.077,0.168-0.492,0.338-0.646c-1.009,5.108-3.7,9.221-5.627,13.76c-0.336,0.168-0.426,0.582-0.671,0.75
		c-1.01,2.586-2.938,5.38-5.458,6.983c-0.737,0.492-1.811,1.085-3.001,1.085c-2.689,0.079-5.12-1.162-6.375-2.947
		c-1.268-2.586-1.268-6.13-1.034-8.897c0-0.168,0-0.337,0.258-0.337c-0.155-0.775,0.091-1.422,0.181-2.108
		c0.065-0.387,0.259-0.905,0.323-1.318c0-0.078-0.168-0.259-0.168-0.325c0-0.334,0.259-0.672,0.351-1.034
		c0.258-1.422,0.322-2.845,0.905-4.086c0.595-3.621,1.681-6.208,2.522-9.57c1.589-0.349,3.103,0.156,4.447,0.647
		c0.322,0.517,0.905,0.944,0.996,1.525c-0.169,1.514-0.414,3.104-1.164,4.876c-0.35,2.108-1.604,3.453-2.198,5.469
		c-0.168,0.169-0.26,0.414-0.52,0.518c-0.063,0.232,0.441,0.155,0.105,0.323c-0.259,0.518-0.751,1.008-0.581,1.681
		c-1.425,1.254-1.165,3.621-1.604,5.368c-0.078,1.939-0.582,2.779-0.168,4.785c0.104,0.258-0.155,0.258-0.155,0.427
		c0.607,0.841,0.686,1.681,1.422,2.354c0.518,0.167,0.945,0.414,1.372,0.647c1.254,0.258,2.197-0.571,3.103-1.074
		c3.944-3.104,6.557-7.552,8.562-12.597c0.259,0,0.091-0.324,0.337-0.232c0.607-1.682,1.358-3.285,2.366-4.617
		c0.259-0.775,0.517-1.512,1.087-1.849c0.181,0,0,0.337,0.102,0.517L666.761,37.465z M654.425,17.938
		c0.491,0.414,0.904,0.996,1.331,1.513c0.091,0.646-0.168,1.254,0,1.836c-0.749,0.647-1.086,1.759-2.263,2.005
		c-2.587-0.336-3.697-3.854-1.849-5.625c0.335,0,0.427-0.26,0.672-0.337c0.75-0.168,1.164,0.672,2.095,0.594L654.425,17.938z
		 M673.149,25.877c-0.091,0-0.091,0.091,0,0.091c0.156,0.621-0.426,0.775-0.258,1.422c-0.258,0.129-0.335,0.362-0.671,0.259
		c0,0.258,0.076,0.438,0.336,0.517c-0.336,0.258-0.168,0.427-0.26,0.905c-0.26-0.051-0.26,0.13-0.414,0.13
		c0,0.258,0,0.323,0.26,0.323c-0.182,0.259-0.35,0.673-0.182,1.009c-0.078,0-0.168,0-0.26-0.09c0.182,1.008-0.905,2.275-0.646,3.194
		c-0.182,0-0.104-0.258-0.351-0.168c0.131,0.233,0.311,0.388,0.311,0.75c-0.168,0-0.089,0.259-0.336,0.156
		c0.065,0.336,0,0.517,0.065,0.931c-0.169,0-0.259,0-0.413,0c0,0.167,0,0.336,0,0.518c0.257,0,0.348-0.182,0.257-0.439
		c0.091,0.089,0.182,0.167,0.351,0.167c-0.26,0.621-0.686,0.518-0.854,1.203c0,0.091,0.091,0.091,0.091-0.078
		c0.089,0,0.089,0.078,0.168,0.078c0,0.091,0,0.259,0.091,0.259c0,0.168-0.17,0.078-0.337,0.078
		c-0.156,0.155-0.156,0.414-0.156,0.646c0.686-0.737,1.423-1.422,1.864-2.418c0.076,0,0.076,0.09,0.168,0.09
		c0.672-1.617,2.197-2.793,2.767-4.215c0.077,0,0.168,0,0.258,0c0.26-0.427,0.583-0.777,0.997-1.1
		c0.596-1.422,2.107-1.94,2.844-3.103c1.448-0.867,2.793-2.199,4.396-2.548c0.235,0.09,0.157-0.168,0.325-0.168
		c1.759-0.737,3.62-0.065,5.302,0.685c0.568,0.842,1.746,1.1,1.837,2.354c0.257,0.09,0.336,0.258,0.517,0.427
		c0.129,2.095-0.104,4.694-0.439,6.375c-0.065,0-0.155,0-0.233,0c0.168,1.552-0.168,3.052-0.518,4.475
		c0.259,0.427-0.26,1.165-0.155,1.94c0,0.076,0,0.155-0.167,0.155c-0.26,2.199-0.26,4.63-0.519,6.725
		c0.351,1.604,0.182,3.7,1.358,4.449c0.519,0.103,0.519,0,0.906,0.103c1.94-0.594,2.715-2.275,4.137-3.361
		c0-0.518,0.415-0.594,0.492-1.009c1.267-0.84,1.939-2.264,2.689-3.621c1.345-1.073,1.76-3.013,2.936-4.267
		c0.168-0.932,0.932-1.424,1.1-2.458c0.26,0.35-0.168,1.035,0,1.449c-1.514,3.363-2.935,6.725-4.708,9.74
		c0.168,0.517-0.258,0.517-0.168,1.008c-0.167,0-0.167-0.091-0.335-0.091c-0.337,2.198-2.018,2.948-3.104,4.617
		c-0.168,0-0.26,0-0.427,0c-0.078,0.168-0.078,0.427-0.155,0.595c-0.931,0.517-2.199,1.163-3.453,0.75c-0.077,0-0.168,0-0.168,0.168
		c-2.43-0.323-4.448-2.159-4.616-4.783c-0.414-0.829-0.336-1.073-0.26-2.251c-0.076-0.26-0.257,0.167-0.322-0.091
		c0.077-0.092,0.077-0.26,0.336-0.26c-0.168-0.259-0.09-0.84-0.336-1.008c0.077-2.173-0.259-4.009,0.517-6.041
		c-0.349-2.017,1.423-5.366,0.997-7.81c0.076-0.776,0.749-3.104-0.259-4.009c0.089-0.44-0.338-0.944-0.673-1.164
		c-1.333,0.05-2.509,0.905-3.44,1.487c-0.699,0.414-1.293,0.672-1.616,1.345c-0.672,0.064-0.776,0.814-1.164,1.164
		c-0.104,0-0.104-0.09-0.104-0.181c0.09-0.078,0-0.078,0,0c-0.078,0-0.259,0-0.336,0c-0.064-0.259,0.104-0.323,0.182-0.491
		c-0.647,0.168-1.424,0.646-1.165,1.253c-0.259,0-0.518-0.09-0.518,0.169c0,0.336,0.259,0.258,0.428,0.168
		c-0.092,0.259-0.518,0.35-0.674,0.259c-0.09,0.336,0,0.258-0.09,0.517c-0.686-0.349-0.932,0.776-0.517,0.828
		c-0.336,0.259-0.336,0.841-0.829,0.931c0.079,0.336,0.156,0.582-0.089,0.75c-0.777,0.168-0.854,1.758-1.604,1.94
		c-0.775,1.332-1.269,2.509-2.107,3.776c0,0.259,0.09,0.414,0.168,0.673c-0.259,0.259-0.091,0.905-0.427,1.086
		c0.091,0.517-0.26,1.112-0.647,1.358c-0.439,1.681-0.774,3.364-1.447,4.696c0,1.1-0.647,1.849-0.737,2.78
		c-0.078,0-0.078,0.077,0,0.077c-0.154,0.646-0.322,1.345-0.414,2.106c-0.078,0-0.154,0-0.259-0.089
		c0.181,0.517-0.232,0.673,0.181,1.009c-0.517,0.428-0.09,1.268-0.595,1.682c0,0.168,0.091,0.168,0.168,0.259
		c-0.077,1.33-0.646,2.43-0.336,4.009c-0.414,0.774,0.595,1.771-0.646,2.198c-0.104-0.091-0.259-0.091-0.349-0.259
		c-0.26,0.091-0.092,0.349-0.169,0.775c-0.595,0.156-1.009,0-1.268,0c-0.077,0.261,0.169,0.261,0,0.389
		c-1.163-0.065-1.939,0.35-3.104,0.181c0-0.077,0.09-0.168,0-0.259c-0.168,0-0.09,0.259-0.259,0.182v-0.078h0.091
		c0-0.079-0.091-0.079-0.091,0c-0.077,0-0.077,0.169-0.168,0.26c-0.258,0.075-0.337-0.518-0.517-0.091
		c-0.065,0-0.065-0.091-0.065-0.182c0.065,0,0.065-0.078,0.065-0.155c-0.078-0.168-0.491-0.09-0.583,0
		c0,0.077,0.092,0.155,0.26,0.155c0,0.337-0.428-0.078-0.596,0.168c0.09-0.259,0-0.687-0.414-0.595
		c0.079-0.168,0.079-0.774-0.168-0.842c0.064-0.904,0.647-2.586,0.57-3.543c-0.066-0.258,0.18-0.167,0.257-0.258
		c-0.646-0.828,0.776-1.76,0-2.509c0.428-0.932,0-1.76,0.596-2.432c-0.349-0.336,0.078-0.672,0-1.269
		c0.154,0.092,0.322-0.076,0.492,0.17c0.09,0.258,0,0.414-0.17,0.518c0.518,0,0.44-0.7,0.26-1.035
		c0.518,0.091,0.35-0.828,0.181-0.995c0.413-0.674,0.337-1.682,0.647-2.587c-0.234-0.182-0.234-0.259-0.234-0.518
		c0.092,0,0.092,0,0.092-0.078c-0.092,0-0.092,0-0.092,0.078c-0.076,0-0.168,0-0.257,0c0.257,0.168,0.181,0.75-0.156,0.932
		c0-0.09-0.091-0.09-0.091,0c-0.155-0.26,0.182-0.336-0.064-0.596c0.078,0,0.168,0.078,0.259,0c-0.091-0.427,0.155-1.1,0-1.359
		c0.077-0.413,0.492-0.413,0.413-0.904c-0.09-0.259-0.168,0.232-0.336,0c0.182-0.519,0.672-0.932,0.596-1.268
		c-0.092-0.091-0.092,0,0,0c0,0.168-0.168,0.078-0.26,0c0.26-0.258,0.777-0.258,0.842-0.775c-0.26-0.233-0.336,0.427-0.646,0.349
		c0.311-0.389,0-0.995,0.568-1.074c0-0.155,0-0.323-0.168-0.323c0.092-0.156,0.182-0.259,0.428-0.259
		c-0.336-0.064,0.09-0.387-0.336-0.491c0.774-0.582,0.336-1.163,0.929-2.018c-0.259-0.259-0.179,0.259-0.438,0.182
		c0.169-0.686,0.26-1.1,0.337-1.682c0-0.181-0.259,0-0.168,0.156c-0.26-0.259,0.077-0.583,0-0.997
		c0.259-0.104,0.322-0.349,0.582-0.439c0.076,0.168,0.076,0,0,0c-0.26-0.168,0.257-0.905-0.168-0.75c0-0.09,0-0.09-0.092-0.09
		c0.092-0.389,0.428-0.57,0.428-1.165c0.323-0.414,0.231-0.775,0.491-1.254c0,0.065,0.077,0.156,0.258,0.156
		c0.259-0.091,0.156-0.427,0.156-0.777c-0.26,0-0.26,0.44-0.337,0.609h-0.077c0-0.104-0.168-0.182-0.168-0.259
		c0.077-0.091,0-0.091,0,0c-0.169,0-0.092,0.259-0.169,0.259c-0.091-0.104-0.091-0.259-0.091-0.519c0.091,0,0.168,0,0.26,0
		c-0.092-0.517-0.169-1.098,0.414-1.267c-0.078-0.168,0.168-0.582-0.169-0.491c0.258-0.595,0-0.931,0.258-1.267
		c0.17,0,0.079-0.259,0.259-0.259c0-0.077-0.18-0.077-0.259-0.077c0.259-0.259,0.582-0.517,0.518-1.087
		c-0.179,0-0.179,0.078-0.179,0.259c-0.169-0.595,0.411-1.267,0.581-1.862c0.089-0.336-0.17-0.336-0.17-0.582
		c0.518-1.94,1.1-4.397,1.424-6.311c0-0.259-0.259-0.259-0.414-0.427c0.09-0.258,0.259-0.517,0.09-0.854
		c0.518-0.258,0.841-0.672,1.333-0.905c0.517,0.323,1.033,0.155,1.422-0.181c0.518,0.168,1.034,0.517,1.267,0
		c0.259,0,0.427,0.09,0.519,0.258c1.087,0,2.509,0.582,2.754,1.423c-0.388,2.017-0.827,3.362-1.332,4.953v-0.078L673.149,25.877z
		 M661.161,64.673c-0.09,0-0.169,0-0.258,0C660.903,64.599,661.161,64.599,661.161,64.673z M661.032,54.407
		c0.092,0,0.169,0,0.169-0.079C661.124,54.328,661.032,54.328,661.032,54.407z M661.718,52.673
		c-0.258,0.079-0.414,0.258-0.414,0.519c-0.322-0.439,0.35-0.439,0.182-0.944c0.258,0,0.258,0.168,0.258,0.426H661.718z
		 M661.551,64.441c0.18,0.158,0.259-0.257,0.103-0.257c0,0.077,0,0.077-0.09,0.077c0,0.089,0,0.089,0,0.169L661.551,64.441z
		 M661.898,49.906c0,0.156,0.091,0.414-0.168,0.338c0-0.169,0.091-0.169,0.091-0.338h0.104H661.898z M662.417,48.043
		c-0.078,0.26-0.168,0.428-0.26,0.686c0.182,0,0.35,0,0.428,0.104c0.077-0.336,0.259-0.582,0.259-1.008
		c-0.259,0-0.259,0.257-0.44,0.257c-0.078-0.103-0.078,0,0,0L662.417,48.043z M662.585,47.786c0.154-0.156,0.077-0.57,0.414-0.57
		c-0.169-0.594,0.077-0.517,0.153-1.008c-0.153,0-0.153,0.167-0.413,0.091c-0.168,0.581-0.414,0.905-0.168,1.5L662.585,47.786z
		 M662.662,47.047c0.168,0,0.259-0.065,0.259-0.129c-0.182,0-0.259,0.064-0.259,0.156V47.047z M663.903,37.813
		c0-0.064,0.091-0.128,0.26-0.128C664.163,37.813,664.072,37.813,663.903,37.813z M664.24,39.172c-0.35,0-0.259,0.35-0.091,0.44
		c-0.077-0.259,0.091-0.259,0.091-0.427V39.172z M664.24,36.482c0-0.077,0-0.259,0-0.323c0.232-0.091,0.155,0.155,0.232,0.259
		c-0.077,0-0.077,0.064-0.259,0.064H664.24z M664.731,37.672c-0.091,0-0.168,0-0.259-0.09c0,0.09-0.077,0.168-0.077,0.336
		c0.258,0,0.336,0,0.336-0.259V37.672z M664.473,35.991c-0.155-0.168,0-0.596,0.091-0.841h0.077
		c0.091,0.388-0.168,0.479-0.168,0.815V35.991z M665.248,35.9c-0.089,0-0.089-0.168-0.181-0.168c0,0.091-0.076,0.091-0.168,0.091
		c-0.091,0.258,0.337,0.362,0.337,0.103L665.248,35.9z M664.991,34.128c0.257-0.078,0.168,0.181,0.168,0.35
		c0.258,0,0.336,0,0.336-0.259c-0.351,0,0-0.077-0.168-0.258c-0.168,0-0.26,0.09-0.351,0.09c-0.077-0.077-0.077,0,0,0v0.091
		L664.991,34.128z M665.934,31.697c-0.129,0.168-0.26,0.259-0.194,0.519c0.259,0.077,0.338-0.428,0.171-0.519H665.934z
		 M666.49,63.033c-0.077,0-0.077,0-0.169,0c0,0.078-0.064,0.078-0.064,0.155c0.168,0,0.259,0,0.259-0.155H666.49z M666.827,63.292
		C666.735,63.188,666.735,63.292,666.827,63.292C666.735,63.679,667.085,63.356,666.827,63.292z M668.922,52.533
		c0.077,0,0.077,0.075,0,0.075v-0.102V52.533z M670.603,35.164c0-0.182,0-0.439-0.155-0.439c-0.167,0.167,0,0.335,0.155,0.426
		c0.091,0.129,0.091,0,0,0V35.164z M675.711,36.327v-0.091C675.608,36.236,675.608,36.327,675.711,36.327z M678.466,33.197
		c-0.259-0.181,0.168-0.336,0.168-0.595c0.26,0.168-0.091,0.414-0.168,0.582V33.197z M678.725,32.421
		c0-0.064,0.169-0.064,0.169-0.155c0.257,0.077-0.091,0.336-0.169,0.167V32.421z M682.268,29.24
		C682.592,29.331,682.268,28.981,682.268,29.24C682.087,29.331,682.268,29.331,682.268,29.24z M726.962,41.112
		c0.259-0.168,0.259-0.595,0.581-0.595c0.338,0.167-0.673,0.595-0.336,1.008c-0.608,0.259-0.865,0.932-1.033,1.605
		c-1.772,1.68-3.105,3.776-4.954,5.366c-2.522,3.232-6.208,5.743-10.346,7.086c-0.155,0-0.155-0.258-0.324-0.258
		c-0.517,0.582-1.512,0.582-2.095,0.931c-0.75-0.259-1.501-0.103-2.431-0.181c-0.077,0-0.491-0.168-0.582,0.168
		c-0.259-0.194-0.583-0.257-0.751-0.452c-0.129,0.258-0.259,0.092-0.361,0.169c-1.771-0.518-3.194-1.267-4.708-2.278
		c-0.854-1.097-1.772-2.106-2.612-3.192c-0.518-1.346-1.099-2.847-1.423-4.527c-0.18-3.025,0.324-5.38,0.829-7.824
		c0.336-0.491,0.594-0.996,0.775-1.759c2.754-4.785,6.026-9.052,10.308-12.337c2.327-1.422,5.78-2.69,9.569-2.017
		c0.168,0,0.168,0.258,0.414,0.336c0.257,0.079,0.257-0.167,0.389-0.091c0.348,0.169,0.606,0.672,1.111,0.932
		c0.996,0.673,2.069,1.086,2.585,2.018c0.092,0.427,0,0.84,0.427,0.905c-0.18,0.452,0.259,0.698,0,1.293
		c-2.366,3.698-5.302,6.634-8.586,9.311c-0.323,0.685-0.905,1.112-1.59,1.422c-0.259,0.607-0.905,0.776-1.088,1.423
		c-0.684,0-0.606,0.606-1.162,0.698c-0.454,0.841-1.294,1.345-1.813,2.199c-2.068,1.242-3.49,3.169-5.689,4.269
		c0.078,1.421,0.905,2.521,1.59,3.621c0.842,0.647,1.605,1.423,2.588,1.939c6.57,1.32,9.504-2.974,12.957-5.651
		c0.065-0.258,0.131-0.323,0.234-0.582c0.076-0.091,0.258-0.091,0.411-0.091c1.685-1.759,2.951-3.944,4.709-5.689
		c0.517-1.772,2.005-2.121,2.419-4.048c0.516-0.414,0.931-0.905,1.164-1.681c0.103,0,0.182-0.077,0.35-0.077
		c0.749-1.268,1.576-2.432,2.263-3.879c0.064,0,0.155,0.103,0.259,0.103c-0.104-0.672,0.814-1.513,1.421-2.107
		c0.26,1.292-0.697,2.534-1.293,3.453c-0.063,0.337-0.063,0.672-0.322,0.672c-0.064,0.828-0.491,1.255-0.827,1.76
		c-0.156,1.513-1.242,2.586-1.579,4.189c-0.774,0.517-1.008,1.682-1.602,2.367v0.089c-0.184,0.079,0,0.079,0,0L726.962,41.112z
		 M702.092,41.525c1.772-1.087,3.621-2.263,5.627-3.193c0.426-0.583,1.268-0.828,1.771-1.333c3.828-2.018,7.191-5.302,9.829-8.923
		c-0.129-0.491,0.221-0.646,0.297-0.995c-0.076-0.583-0.168-1.086-0.491-1.423c-4.37-0.582-7.888,2.586-10.837,4.694
		c-2.521,3.453-5.872,6.208-6.207,11.173H702.092z M725.591,43.052c0.091,0,0.169,0,0.169-0.091c-0.078,0-0.169,0-0.169,0.078
		V43.052z M726.367,41.952c0.257,0,0.568-0.427,0.322-0.672c-0.091,0.258-0.259,0.413-0.348,0.672c-0.337,0,0,0.337,0,0H726.367z
		 M728.371,38.5c-0.182,0-0.35,0-0.259,0.181c0.155,0,0.259-0.091,0.259-0.168V38.5z"/>
	<path fill="#41BBEC" stroke="#41BBEC" stroke-miterlimit="10" d="M874.775,52.739c-21.787,9.095-45.242,2.991-65.011-12.365
		c-20.594-16.001-44.974-42.771-68.529-23.288c-5.608,4.633-9.946,11.996-13.301,20.02c-0.206,0.583,0.391,1.105,0.616,0.537h-0.009
		c7.426-17.795,19.41-27.568,33.493-26.478c15.09,1.166,29.471,15.678,42.38,26.11c12.786,10.31,25.1,18.026,39.705,19.882
		c8.457,1.072,18.536,1.512,26.745-2.017L875,53.281L874.775,52.739z"/>
	<path fill="#41BBEC" stroke="#41BBEC" stroke-miterlimit="10" d="M25.57,18.131C39.218-5.47,60.247-11.16,79.32-7.798
		c11.627,2.031,23.015,8.212,34.061,14.2c11.269,6.104,22.377,12.932,33.677,18.945c12.506,6.66,24.956,15.738,38.227,17.549
		c17.686,2.418,33.885-11.549,47.604-28.283c0.319-0.414,0-1.358-0.343-0.944c-15.036,18.364-32.202,31.865-51.411,27.365
		c-6.601-1.552-12.96-5.018-19.233-8.601c-8.155-4.655-16.393-8.923-24.58-13.54C116.556,7.19,95.344-7.811,73.111-9.686
		C55.816-11.122,37.254-3.66,25.093,17.381c-0.295,0.518,0.183,1.293,0.478,0.776V18.131z"/>
	<path fill="#41BBEC" stroke="#41BBEC" stroke-miterlimit="10" d="M350.543,30.637c0,0-0.777,0.711-2.019,1.979
		c-1.293,1.293-3.012,3.194-5.341,5.277c-0.594,0.517-1.228,1.035-1.888,1.551c-0.646,0.518-1.331,1.034-2.068,1.552
		c-1.423,1.061-3.014,2.095-4.682,3.104c-1.68,1.034-3.401,1.979-5.198,2.975c-1.786,0.982-3.622,1.94-5.496,2.845
		c-1.875,0.905-3.79,1.72-5.717,2.431c-0.97,0.389-1.94,0.648-2.91,0.995c-0.956,0.261-1.939,0.519-2.883,0.737
		c-3.777,0.829-7.463,1.294-10.605,1.386c-1.553,0.078-3.013,0-4.294-0.08c-1.266-0.128-2.392-0.231-3.297-0.414
		c-0.878-0.153-1.552-0.281-2.03-0.387c-0.22-0.025-0.672-0.516-0.647-0.542v-0.389c0.039,0,0.091-0.648,0.841-0.608
		c0.491,0.131,1.19,0.26,2.095,0.428c0.866,0.168,1.94,0.259,3.156,0.413c1.228,0.078,2.612,0.156,4.137,0.13
		c3.065-0.077,6.558-0.517,10.346-1.293c0.906-0.26,1.85-0.479,2.806-0.712c0.958-0.297,1.902-0.581,2.846-0.904
		c1.888-0.699,3.75-1.462,5.639-2.328c1.861-0.842,3.712-1.747,5.497-2.691c1.811-0.932,3.569-1.888,5.224-2.845
		c1.681-0.957,3.233-1.965,4.683-2.948c0.723-0.48,1.422-0.997,2.095-1.488c0.685-0.491,1.293-0.97,1.9-1.461
		c2.367-1.94,4.177-3.815,5.496-5.044c1.293-1.254,2.069-1.939,2.069-1.939l0.285,0.296L350.543,30.637z"/>
	<path fill="#41BBEC" stroke="#41BBEC" stroke-miterlimit="10" d="M369.1,52.208c0,0,0.777-0.583,2.174-1.59
		c0.684-0.519,1.525-1.126,2.482-1.812c0.956-0.738,2.043-1.526,3.298-2.328c1.241-0.776,2.586-1.682,4.008-2.587
		c1.384-0.956,2.975-1.772,4.526-2.715c1.617-0.906,3.233-1.914,4.979-2.755c1.707-0.879,3.453-1.785,5.198-2.677
		c1.76-0.814,3.557-1.63,5.304-2.432c1.745-0.853,3.53-1.526,5.225-2.198c1.718-0.686,3.335-1.423,4.939-1.939
		c1.578-0.595,3.078-1.125,4.462-1.63c2.78-1.008,5.134-1.681,6.764-2.198c1.629-0.518,2.561-0.828,2.561-0.828l0.219,0.673
		c0,0-0.931,0.297-2.547,0.828c-1.604,0.556-3.958,1.228-6.699,2.263c-1.372,0.518-2.872,1.073-4.437,1.655
		c-1.617,0.543-3.233,1.294-4.915,1.966c-1.681,0.699-3.465,1.371-5.172,2.199c-1.76,0.828-3.53,1.642-5.302,2.457
		c-1.732,0.905-3.466,1.811-5.173,2.716c-1.708,0.854-3.312,1.849-4.916,2.767c-1.55,0.958-3.102,1.772-4.487,2.716
		c-1.383,0.944-2.715,1.81-3.919,2.613c-1.214,0.776-2.301,1.578-3.233,2.302c-0.969,0.725-1.81,1.346-2.496,1.848
		c-1.371,1.037-2.16,1.618-2.16,1.618L369.1,52.208L369.1,52.208z"/>
	<path fill="#41BBEC" stroke="#41BBEC" stroke-miterlimit="10" d="M432.507,55.856c0,0,1.165-0.388,3.182-1.087
		c0.518-0.182,1.085-0.351,1.681-0.596c0.594-0.259,1.228-0.517,1.901-0.828c0.672-0.297,1.396-0.606,2.16-0.93
		c0.75-0.363,1.513-0.776,2.327-1.203c0.802-0.426,1.682-0.839,2.522-1.333c0.839-0.517,1.706-1.033,2.586-1.603
		c0.452-0.258,0.904-0.557,1.357-0.841c0.44-0.284,0.879-0.595,1.319-0.905c0.905-0.646,1.812-1.293,2.742-1.979
		c0.879-0.725,1.771-1.461,2.677-2.199c0.466-0.388,0.944-0.75,1.371-1.164l1.292-1.229c0.854-0.828,1.772-1.616,2.588-2.522
		c0.776-0.905,1.604-1.811,2.405-2.715c0.775-0.88,1.552-1.915,2.302-2.846c0.775-0.97,1.486-1.94,2.159-2.937
		c1.423-1.939,2.664-3.943,3.88-5.883c0.607-0.97,1.127-1.965,1.681-2.923c0.569-0.97,1.112-1.888,1.591-2.844
		c0.971-1.863,1.901-3.622,2.678-5.303c0.801-1.683,1.499-3.181,2.107-4.552c0.608-1.359,1.138-2.561,1.552-3.557
		c0.802-1.979,1.293-3.104,1.293-3.104l0.712,0.258c0,0-0.428,1.164-1.163,3.182c-0.389,1.035-0.854,2.225-1.425,3.621
		c-0.283,0.698-0.582,1.448-0.904,2.224c-0.337,0.777-0.698,1.591-1.087,2.458c-0.724,1.681-1.628,3.491-2.586,5.393
		c-0.931,1.888-2.028,3.879-3.193,5.857c-1.216,2.004-2.457,4.061-3.88,6.053c-0.698,1.034-1.422,2.042-2.172,2.974
		c-0.777,0.996-1.449,1.978-2.302,2.949c-0.828,0.905-1.682,1.849-2.496,2.767c-0.815,0.931-1.76,1.72-2.639,2.586l-1.331,1.267
		c-0.453,0.415-0.932,0.776-1.385,1.165c-0.933,0.776-1.85,1.514-2.756,2.263c-0.956,0.672-1.888,1.332-2.806,1.979
		c-0.467,0.323-0.905,0.647-1.37,0.957c-0.466,0.26-0.932,0.557-1.397,0.828c-0.905,0.556-1.81,1.087-2.664,1.604
		c-0.879,0.491-1.772,0.904-2.586,1.319c-0.854,0.414-1.629,0.841-2.419,1.188c-0.775,0.312-1.55,0.61-2.249,0.906
		c-0.738,0.258-1.396,0.518-2.005,0.777c-0.62,0.23-1.19,0.387-1.707,0.555c-2.069,0.621-3.233,0.982-3.233,0.982l-0.323-1.007
		L432.507,55.856z"/>
	<path fill="#41BBEC" stroke="#41BBEC" stroke-miterlimit="10" d="M580.969,53.502c0,0,1.035-0.454,2.923-1.23
		c0.933-0.387,2.069-0.839,3.362-1.382c1.294-0.558,2.807-1.074,4.308-1.901c1.513-0.776,3.168-1.606,4.914-2.497
		c0.878-0.479,1.811-0.867,2.689-1.423c0.867-0.556,1.76-1.112,2.677-1.682c0.906-0.569,1.849-1.137,2.793-1.732
		c0.943-0.583,1.939-1.164,2.806-1.85c1.811-1.357,3.647-2.715,5.497-4.099c1.811-1.396,3.491-2.974,5.224-4.449
		c0.828-0.776,1.708-1.487,2.497-2.25c0.774-0.775,1.552-1.552,2.327-2.328c1.476-1.552,3.002-2.974,4.307-4.475
		c1.294-1.474,2.51-2.884,3.647-4.19c0.543-0.646,1.087-1.293,1.604-1.875c0.467-0.595,0.905-1.189,1.345-1.746
		c0.854-1.112,1.592-2.069,2.198-2.884c1.242-1.578,1.94-2.496,1.94-2.496l0.646,0.452c0,0-0.712,0.906-1.94,2.535
		c-0.607,0.776-1.356,1.772-2.197,2.897c-0.44,0.556-0.906,1.164-1.384,1.784c-0.518,0.609-1.036,1.241-1.616,1.901
		c-1.14,1.294-2.354,2.716-3.661,4.268c-1.293,1.475-2.844,2.91-4.345,4.475c-0.776,0.776-1.553,1.552-2.327,2.354
		c-0.776,0.775-1.681,1.5-2.521,2.264c-1.746,1.487-3.429,3.104-5.252,4.526c-1.862,1.371-3.725,2.755-5.562,4.137
		c-0.879,0.7-1.86,1.268-2.806,1.863c-0.943,0.595-1.875,1.19-2.806,1.76c-0.906,0.581-1.81,1.163-2.716,1.68
		c-0.866,0.583-1.81,0.997-2.689,1.474c-1.785,0.907-3.454,1.773-5.007,2.588c-1.511,0.841-3.012,1.344-4.305,1.914
		c-1.294,0.543-2.432,1.009-3.362,1.397c-1.863,0.775-2.937,1.214-2.937,1.214l-0.388-0.969L580.969,53.502z"/>
</g>
</svg>
