<?xml version="1.0" encoding="utf-8"?>
<!-- Generator: Adobe Illustrator 17.0.0, SVG Export Plug-In . SVG Version: 6.00 Build 0)  -->
<!DOCTYPE svg PUBLIC "-//W3C//DTD SVG 1.1//EN" "http://www.w3.org/Graphics/SVG/1.1/DTD/svg11.dtd">
<svg version="1.1" id="Layer_1" xmlns="http://www.w3.org/2000/svg" xmlns:xlink="http://www.w3.org/1999/xlink" x="0px" y="0px"
	 width="900px" height="95.468px" viewBox="0 0 900 95.468" enable-background="new 0 0 900 95.468" xml:space="preserve">
<g>
	<g>
		<path fill="#41BBEC" d="M269.897,5.779c-0.259,0.197-0.389,1.106,0,1.56c-0.324,0.845-0.064,1.233-0.519,2.208
			c0.065,0.715-0.648,1.427-0.519,2.141c-0.064,0.13-0.129,0.261-0.324,0.261c-0.065,0.909-1.039,1.557-0.844,2.338
			c-0.391,0.257-0.585,0.715-0.585,1.102c-0.78,0.585-0.974,1.754-1.428,2.599c-0.326,0.127-0.195,0.388-0.326,0.712
			c-0.778,0.391-0.585,1.106-1.104,1.624c-0.065,0.197,0.195,0.067,0.13,0.261c-0.324-0.064-0.195,0.13-0.261,0.261
			c-0.064,0.064-0.259,0.064-0.259,0.064c-0.195,0.261-0.259,0.585-0.389,0.909c-0.585,0.067-0.454,0.845-0.974,1.039
			c-0.065,0.197,0.194,0.13,0.129,0.327c-0.648,0.064-0.454,0.909-0.909,1.166c0,0.13-0.065,0.261,0.065,0.261
			c-0.519,0.909-0.454,2.145-0.974,2.859c0.065,0.518,0,0.972-0.261,1.233c0.065,0.261,0,0.388,0,0.715
			c-0.585,1.039-0.389,2.92-1.168,3.829c0.065,1.106-0.456,1.951-0.456,3.184c-0.129,0.064-0.129,0.261-0.259,0.324
			c0.259,0.454-0.454,1.169-0.13,1.493c-0.324,0.391-0.194,1.233-0.519,1.56c-0.065,0.194,0.195,0.13,0.13,0.324
			c-0.065,0.064-0.13,0.261-0.195,0.324c-0.065,0.194,0.065,0.261,0.065,0.391c-0.454,1.233-0.519,3.18-0.585,3.829
			c-0.064,0.197-0.129,0.067-0.324,0.067c0.324,0.715,0.13,1.493-0.13,2.141c-0.065,0.261,0.195,0.197,0.195,0.391
			c-0.326,0.845,0,1.557-0.389,2.469c0,0.064,0.129,0.064,0.194,0.064c-0.454,1.039,0.195,2.078-0.324,2.856
			c0.324,0.391,0.324,1.169,0.259,1.493c-0.065,0.261,0.391,0.651,0.13,1.169c0.326,0.909,0.389,1.884,1.169,2.599
			c0.324-0.13,0.585-0.261,0.844-0.391c2.793-2.272,5.064-5.195,6.883-8.442c0.13-0.064,0.195-0.13,0.324-0.194
			c2.208-4.286,4.612-8.378,6.883-12.598c-0.065,0.324-0.259,0.585-0.194,1.039c-1.299,2.923-2.338,5.779-3.312,8.896
			c-0.13,0.064-0.195,0.194-0.261,0.261c0.065,0.585-0.194,1.427-0.648,1.687c-0.65,2.532-2.208,4.156-3.312,6.234
			c-0.715,0.778-1.428,1.56-1.948,2.469c-1.169,1.102-2.013,2.465-3.701,3.05c-0.845,0.454-1.819,0.782-2.728,0.909
			c-2.143,0.261-3.83-1.233-4.74-2.596c0-0.261-0.065-0.261,0.065-0.391c-0.065,0-0.194,0-0.259,0
			c-0.456-0.909-0.519-1.948-0.585-2.793c-0.13-1.233-0.519-2.465-0.454-3.504c0.065-0.585,0-1.299,0.065-1.884
			c0.064-0.454,0.129-0.972,0.324-1.493c-0.324-0.194,0.259-0.778-0.065-0.909c0.065-0.194,0.195-0.324,0.259-0.521
			c-0.064-0.778,0.13-0.972,0.065-1.493c0.195-0.648,0.326-1.363,0.326-2.208c0.194-1.102,0.324-1.881,0.324-2.79
			c0.454-1.493,0.65-3.962,1.299-5.392c0.259-2.011,0.909-4.025,1.363-5.779c-0.065-0.388-0.065-0.324-0.065-0.648
			c0.454-0.13,0.195-0.909,0.519-1.169c-0.065-0.13-0.065-0.261-0.13-0.324c0.13-0.13,0.13-0.454,0.326-0.521
			c0.259-1.296,0.65-2.92,0.844-4.089c0.195-0.521,0.389-1.233,0.585-1.884c0.195-0.064,0-0.261,0.324-0.261
			c-0.194-0.257,0.13-0.909,0.391-1.102c-0.13-1.169,0.648-1.687,0.648-2.726c0.065-0.13,0.195-0.261,0.326-0.327
			c-0.13-0.324,0.065-0.648,0.259-0.842c0.065-1.169,0.715-2.208,0.909-3.247c0.391-0.194,0.261-1.039,0.715-1.233
			c1.104-2.859,3.117-5.068,5.91-6.431c0.648-0.064,1.948-0.194,2.078,0.197c0.778-0.13,0.974,0.842,0.909,1.296
			C269.703,5.779,269.769,5.779,269.897,5.779z M256.782,54.806 M256.91,55.064 M265.093,9.935
			c-0.519,1.299-0.519,2.532-0.975,3.898c0.261,0.842-0.778,2.141-0.518,3.05c-0.326,0-0.195,0.454-0.456,0.521
			c0.13,0.778-0.583,1.687-0.519,2.532c0.13-0.778,1.039-1.493,0.845-2.145c0.713-0.454,0.713-1.296,1.298-1.948
			c0.065-0.194-0.065-0.194-0.065-0.324c0.715-0.324,0.454-1.363,1.169-1.754c0.065-0.194-0.065-0.261-0.065-0.388
			c1.039-0.975,0.974-2.599,1.428-3.898c-0.129-0.13-0.129-0.324-0.129-0.585c0.585-0.648,0.259-1.687,0.194-2.465
			c-0.194-0.067-0.389-0.067-0.583-0.13c-0.845,0.909-1.039,2.338-1.754,3.504C265.028,9.805,265.093,9.805,265.093,9.935z
			 M269.703,7.209"/>
		<path fill="#41BBEC" d="M285.156,39.807c0.195-0.067,0.13-0.391,0.261-0.521c-0.78,3.962-2.858,7.142-4.351,10.65
			c-0.259,0.13-0.324,0.454-0.519,0.585c-0.778,2.011-2.273,4.156-4.221,5.389c-0.585,0.391-1.428,0.845-2.337,0.845
			c-2.078,0.064-3.962-0.909-4.936-2.272c-0.974-2.014-0.974-4.74-0.778-6.885c0-0.13,0-0.261,0.194-0.261
			c-0.129-0.585,0.065-1.102,0.13-1.624c0.065-0.324,0.195-0.712,0.261-1.039c0-0.064-0.13-0.194-0.13-0.257
			c0-0.261,0.194-0.521,0.259-0.782c0.195-1.102,0.261-2.205,0.715-3.18c0.454-2.793,1.298-4.804,1.948-7.403
			c1.234-0.261,2.404,0.13,3.442,0.521c0.259,0.388,0.713,0.712,0.778,1.166c-0.13,1.169-0.324,2.405-0.909,3.768
			c-0.261,1.624-1.234,2.662-1.689,4.219c-0.13,0.13-0.195,0.324-0.389,0.391c-0.065,0.194,0.324,0.13,0.065,0.261
			c-0.195,0.388-0.585,0.778-0.454,1.296c-1.104,0.975-0.91,2.793-1.234,4.156c-0.065,1.496-0.454,2.145-0.13,3.701
			c0.065,0.197-0.13,0.197-0.13,0.327c0.456,0.648,0.521,1.296,1.104,1.817c0.391,0.13,0.715,0.324,1.039,0.518
			c0.974,0.197,1.689-0.454,2.404-0.842c3.052-2.405,5.064-5.846,6.623-9.741c0.195,0,0.065-0.261,0.259-0.194
			c0.456-1.299,1.039-2.532,1.819-3.571c0.195-0.585,0.389-1.169,0.844-1.43C285.221,39.416,285.091,39.677,285.156,39.807z
			 M275.611,24.677c0.389,0.324,0.713,0.778,1.039,1.169c0.065,0.518-0.13,0.972,0,1.427c-0.585,0.521-0.845,1.363-1.754,1.56
			c-2.013-0.261-2.858-2.987-1.428-4.353c0.259,0,0.324-0.194,0.519-0.257C274.572,24.093,274.897,24.741,275.611,24.677z
			 M285.027,40.195 M285.091,40.064"/>
		<path fill="#41BBEC" d="M290.932,50.584c0.261,0.778-0.389,1.493,0.13,2.338c0,0.13-0.065,0.13-0.13,0.064
			c0.065,0.454,0.13,1.039-0.194,1.43c0.389,0.521,0,1.43,0.259,1.754c-0.194,0.585,0.065,1.299-0.389,1.687
			c0,0.067,0.13,0.067,0.195,0.067c-0.065,0.972,0,1.687,0.064,2.596c-0.324,0.197-0.064,0.975-0.259,1.169
			c0,0.064,0.13,0.064,0.195,0.064c-0.261,0.651,0.389,1.042,0.129,1.56c-0.065-0.194,0-0.324-0.129-0.585
			c-0.326,0.454-0.065,0.648-0.326,1.102c0.195,0.782-0.194,2.469-0.519,3.444c0.326,1.557,0,3.05-0.065,4.61
			c0.456-0.651,0.13-1.493,0.585-1.948c-0.065,0.842-0.065,1.751-0.519,2.79c0.065,0.585,0,1.236-0.065,1.951
			c0,0.127-0.129,0.194-0.194,0.324c0,0.064,0.129,0.064,0.129,0.064c0,0.261-0.259,0.585-0.324,0.845
			c-0.065,0.585,0.261,1.299-0.194,1.817c0.259,0.585-0.456,1.43-0.13,1.69c-0.454,1.881-0.261,3.829-0.974,5.582
			c-0.065,0.975-0.13,1.948-0.715,2.599c0.13,0.585-0.065,0.909-0.389,1.233c0.065,0.324-0.065,0.778-0.391,0.909
			c-0.129,0.778-0.583,1.56-0.974,2.402c-0.065,0-0.129,0.13-0.194,0.13c-0.065-0.064-0.065,0,0,0
			c-1.754,2.987-6.818,4.35-9.35,2.014c0-0.067,0-0.13,0.065-0.197c-0.454-0.388-1.234-0.712-1.039-1.493
			c-0.065-0.13-0.195-0.194-0.261-0.324c0-0.715-0.259-1.624-0.389-2.338c-0.13-0.712-0.13-1.427-0.13-2.141l0.13-0.194
			c0-0.715-0.065-1.43-0.065-2.208c0.065-4.807,1.169-9.872,2.013-14.415c0.065-0.521,0.389-0.975,0.454-1.493
			c0.13-1.43,0.585-2.662,0.78-3.832c0-0.067-0.065-0.067-0.13-0.067c0.52-2.011,0.65-3.701,1.363-5.519
			c0-0.064-0.064-0.13-0.129-0.13c0.844-2.987,1.233-5.582,2.272-8.699c0-0.067-0.129-0.067-0.194-0.067
			c0.454-1.624,0.844-3.117,1.233-4.804c0.065,0,0.195,0,0.261,0c0.454-2.856,1.363-5.325,1.882-8.181
			c0.324-0.261,0.454-0.324,0.389-0.845c0.456-1.039,0.456-2.078,1.104-2.923c0.195-1.754,1.365-3.374,1.819-4.998
			c0.194-0.067,0.194-0.327,0.389-0.391c0.324-1.687,1.689-3.117,2.013-4.61c0.195,0.064,0.13-0.13,0.261-0.13
			c0.324-1.039,1.233-2.078,1.622-3.311c0.065,0,0.065-0.067,0.195-0.067c1.104-2.596,2.793-4.998,4.091-7.66
			c0.391-0.261,0.65-0.651,0.845-1.169c0.129-0.067,0.194-0.13,0.324-0.197c0.065-0.648,0.65-0.842,1.039-1.233
			c0.13,0,0.195,0.13,0.195,0c1.039,0.521,1.948,0.909,2.987,1.299c0,0.064,0,0.13,0,0.194c1.234,0.324,1.493,1.624,2.597,2.078
			c0.13,0.391,0.324,1.236,0.389,1.884c0,0.194-0.13,0.261-0.195,0.324c0.13,0.261-0.194,0.715,0.065,0.845
			c-0.259,1.102-0.583,2.078-0.713,2.92c-0.519,0.521-0.454,1.754-1.169,2.405c0,0.064,0.065,0.064,0.13,0.064
			c-0.391,0.324-0.261,1.039-0.715,1.363c-0.065,0.197,0.13,0.197,0.065,0.391c-0.454,0.391-0.454,1.102-0.909,1.493
			c0.065,0.261-0.13,0.261-0.065,0.518c-0.715,0.585-0.845,1.69-1.624,2.208c0.324,1.236-1.363,1.754-1.039,2.729
			c-0.65,0.388-0.65,1.363-1.363,1.687c0,0.651-1.039,1.43-0.845,2.078c-0.713,0.715-1.363,1.884-2.078,2.662
			c-0.389,1.363-1.558,2.469-2.532,3.441c1.234-0.064,2.338-0.324,3.117-0.842c4.871-1.299,8.181-4.286,11.493-7.209
			c0.259,0.064,0.259,0.391,0.454,0.521c-1.882,3.114-4.999,4.998-7.727,7.206c-1.298,0.715-2.532,1.493-3.441,2.599
			c-1.365,0.778-2.469,1.687-4.156,2.078c0,0.127,0.129,0.127,0.065,0.324c-0.195,0-0.326,0.13-0.585,0.064
			c-0.13,0.324,0.259,0.585-0.13,0.778C291.062,47.858,290.803,49.221,290.932,50.584C290.803,50.651,290.932,50.651,290.932,50.584
			z M276.258,82.013c-0.195-0.064-0.13,0.13-0.195,0.194C276.193,82.206,276.258,82.143,276.258,82.013z M276.647,83.83
			 M276.777,83.376c-0.065,0.261,0.065,0.324,0.129,0.454c0.326-0.064,0.261-0.324,0.391-0.715c-0.261,0-0.326,0.13-0.454,0.197
			C276.906,83.312,276.906,83.376,276.777,83.376z M277.102,88.44 M277.102,89.676c0.065,0,0.13,0.13,0.13,0
			C277.232,89.609,277.102,89.609,277.102,89.676z M277.297,78.702c0.194-0.067-0.065-0.454-0.13-0.197c0.13,0,0.065,0.13,0,0.197
			C277.232,78.702,277.232,78.702,277.297,78.702z M277.232,75.585c0.065,0,0.129,0,0.129-0.067
			C277.297,75.518,277.232,75.518,277.232,75.585z M277.491,82.013c0.065,0,0.065,0.13,0.13,0.13
			c-0.065-0.194-0.065-0.521-0.26-0.585c-0.129,0.194-0.194,0.648,0,0.778c0.065-0.13-0.064-0.388,0.065-0.388
			C277.491,81.949,277.491,81.949,277.491,82.013C277.297,82.013,277.556,82.273,277.491,82.013z M277.945,72.078
			c-0.064,0-0.129,0-0.194,0c-0.195,0.909-0.519,2.014-0.454,3.184C277.686,74.416,277.816,73.247,277.945,72.078z M277.816,81.495
			c-0.13-0.261,0-0.458,0-0.715c-0.13,0.064-0.261-0.197-0.326,0c0.065,0.13-0.13,0.454-0.194,0.648
			C277.491,81.558,277.556,81.428,277.816,81.495z M277.945,89.609c0.326-0.845-0.389-1.493,0.261-2.078
			c-0.585,0.197,0-0.454-0.454-0.585c0,0.13-0.195,0.067-0.195,0.197c0.261,0.257-0.065,0.712,0.13,1.102
			c-0.326,0.261-0.261,1.102-0.065,1.493C277.816,89.806,277.816,89.609,277.945,89.609
			C277.945,89.806,278.206,89.546,277.945,89.609z M277.816,80.389c-0.195,0-0.326,0.064-0.326,0.261
			C277.621,80.583,277.882,80.65,277.816,80.389z M277.816,79.156C277.751,79.09,277.751,79.156,277.816,79.156
			c0,0.064,0,0.064,0,0.13c-0.065,0-0.065,0-0.13,0c-0.065,0.064-0.065,0.257-0.13,0.324c0.326,0.064-0.324,0.648,0.195,0.648
			c0.065-0.324,0.324-0.454,0.259-0.909c-0.065,0-0.194,0-0.194-0.064c0.065,0,0.065-0.067,0.065-0.13
			c0.324-0.521,0.324-1.169,0.324-1.948c-0.324,0.194-0.261,0.842-0.585,1.039c0.195,0.257,0,0.518,0.13,0.778
			c0-0.067,0.065-0.067,0.13-0.067c0,0.067,0,0.13,0,0.197H277.816z M277.686,84.999 M279.438,79.417
			c-0.129-0.13-0.194-0.458-0.064-0.715c-0.065,0.257,0.194,0,0,0c0.064-0.261,0.064-0.585,0-0.782
			c-0.195,0.067-0.195-0.064-0.326-0.064c-0.389,0.715,0,1.56-0.454,2.402c0.195,0.324,0.065,0.715-0.13,0.975
			c0.13,0.972-0.324,1.817-0.194,3.05c-0.326,0.197-0.065,0.585-0.389,0.782c0.129,0,0.129,0.194,0.324,0.127
			c0.389-0.388,0.389-0.972,0.389-1.751c0.454-1.299,0.065-2.729,0.78-3.638C279.375,79.611,279.245,79.544,279.438,79.417
			C279.438,79.674,279.699,79.417,279.438,79.417z M277.882,85.844 M277.945,86.947c0.065,0,0.13,0,0.13-0.064
			C278.01,86.883,277.945,86.883,277.945,86.947z M278.075,79.544c0.065,0,0.13,0.13,0.13,0
			C278.206,79.48,278.075,79.48,278.075,79.544z M278.336,70.193c-0.261,0.067-0.326,0.651,0,0.651
			c0.129-0.454,0.129-0.715,0.194-1.169c-0.065,0-0.13,0-0.194-0.067c-0.065,0.13-0.13,0.261-0.195,0.391
			C278.206,70.063,278.399,70,278.336,70.193z M278.14,72.792c0.13,0,0.195-0.067,0.195-0.194h0.064c0-0.067,0-0.067,0.065-0.067
			c0-0.064,0-0.064,0-0.13c-0.129,0-0.129,0.067-0.129,0.197C278.271,72.662,278.075,72.599,278.14,72.792z M278.206,76.688
			c-0.13,0.13-0.065,0.261,0.065,0.324C278.336,76.948,278.336,76.688,278.206,76.688z M278.206,81.882 M278.465,74.934
			c-0.065,0.521-0.324,0.975-0.194,1.493c0.129-0.257,0.324-0.454,0.519-0.648c-0.065-0.064-0.13-0.13-0.195-0.194
			c0.13-0.067,0.13-0.197,0.389-0.13c-0.064-0.194,0.065-0.194,0.065-0.324c-0.259-0.067-0.259,0.064-0.389,0.13
			C278.595,75.131,278.66,75.001,278.465,74.934z M278.336,89.609 M278.53,73.895c0.13-0.257,0.13-0.064,0.065,0.13
			c0.13,0,0.13,0.067,0.261,0.067c0.065-0.521,0.844-0.651,0.519-1.299c-0.065,0-0.13,0-0.195,0c-0.13,0.391-0.259,0.585-0.78,0.715
			C278.465,73.701,278.336,73.765,278.53,73.895z M278.399,94.35 M278.79,74.416c-0.13,0-0.065-0.261-0.261-0.197
			c0,0.13-0.065,0.651,0.13,0.391C278.465,74.546,278.855,74.546,278.79,74.416z M278.53,76.494 M278.595,75.388
			c0.065,0,0.065-0.064,0.065-0.127C278.595,75.261,278.595,75.325,278.595,75.388z M278.595,75.388 M278.66,74.87 M287.037,50.975
			c-0.389,0.648-0.195,1.624-0.909,2.141c-0.065,0.585-0.715,0.909-0.326,1.366c-0.13,0,0.065,0.324-0.194,0.194
			c-0.13,1.299-1.234,2.078-1.43,3.247c0.065,0.388-0.064,0.648-0.259,0.909c0-0.067-0.13-0.067-0.13,0
			c0.195,0.194-0.065,0.388-0.13,0.518c-0.713,0.067-0.324,1.493-1.039,1.366c-0.259,0.909-0.713,1.881-1.039,2.726
			c-0.194,0.064-0.324,0.261-0.519,0.324c0-0.064,0-0.064,0-0.13c0.065-0.064,0-0.064,0,0c-0.129,0-0.194-0.064-0.194-0.13
			c0.194-0.13,0.065-0.324,0.259-0.518c0.13,0,0.13-0.13,0.261-0.194c-0.065,0-0.13-0.067-0.13-0.13
			c0.259,0.064,0.13-0.327,0.324-0.327c0-0.842,1.169-1.751,0.91-2.726c0,0.064,0,0.064-0.065,0.064
			c0.324-0.778,0.065-1.427,0.389-2.011c0-0.194-0.195,0.194-0.195-0.067c0.585-0.388,0.456-1.102,0.78-1.751
			c-0.065,0-0.13,0-0.13-0.067c0.454-0.324-0.13-1.296,0.389-1.754c-0.259-0.324,0.326-0.585,0-1.039
			c-0.259,0.521-0.194,1.366-0.778,1.624c0.065,0.585-0.326,1.169-0.585,1.624c0.13,1.363-0.78,2.532-0.909,4.025
			c-0.454,0.782-0.13,1.69-0.65,2.338c0.065,0.067,0.065,0.197,0.13,0.324c-0.13,0.067-0.195,0.13-0.261,0.13
			c0.13,1.106-0.778,1.884-0.389,2.729c-0.65,0.972-0.324,1.948-0.78,3.05c0.065,0.454,0.13,1.233-0.259,1.817
			c0,0.067-0.195,0-0.195,0.067c-0.129,0.261-0.129,0.715-0.194,1.039c0.259,0.261-0.065,0.845,0.13,1.102
			c0-0.454,0.389-0.518,0.518-0.842c-0.129-0.197-0.129,0.194-0.194,0c0.065-0.391,0.065-0.454,0.324-0.715
			c-0.065,0-0.13,0-0.13-0.067c0.585-0.585,0.326-1.751,0.845-2.141c-0.065-0.194,0-0.391-0.13-0.521
			c0,0.067-0.13,0.067-0.194,0.067c-0.065,0.13,0,0.518-0.261,0.648c0.13-0.585,0.13-0.842,0.324-1.363c0.065,0,0.13,0,0.195,0
			c0.065-1.102,0.715-2.014,0.78-2.923c0.324-0.194,0.518-1.039,0.583-1.557c0.261-0.261,0.261-0.521,0.519-0.715
			c-0.064,0.324,0.326-0.064,0.326,0.13c-0.065,0.13-0.13,0.391-0.195,0.518c0.261-0.127,0.261-0.581,0.585-0.778
			c0,0.197-0.195,0.454-0.065,0.585c-0.585,0.261-0.65,0.975-0.778,1.624c-0.456,0.391-1.169,1.43-0.715,1.817
			c-0.065,0.715-0.974,1.363-0.585,2.208c-0.259,0.197-0.324,0.585-0.195,0.778c0.065-0.064,0.065-0.257,0.261-0.257
			c-0.261,1.169-0.261,1.817-0.909,2.856c0.454,0.391-0.13,0.975,0,1.43c0.194,0.064,0.065-0.261,0.324-0.197
			c-0.65,0.845-1.104,1.948-0.715,3.053c-0.194,0.13-0.454,0.388-0.194,0.648c-0.324,0-0.195,0.521-0.389,0.651
			c0.909-0.13,0.389-1.496,1.168-1.43c-0.064-0.261,0.065-0.845,0.326-1.039c0.194,0.585-0.261,1.102-0.326,1.624
			c0-0.067-0.064-0.067-0.129-0.067c0.324,0.458,0.194,1.039,0,1.624c0.194,0,0.129,0.261,0.324,0.261
			c0.065,0.194-0.324,0.261-0.13,0.391c0.195,0.454-0.065,1.427-0.065,2.078c-0.389,0.064-0.324,0.842-0.129,1.102
			c-0.065,0.521-0.13,1.43-0.391,1.884c0.065,0.454,0.13,1.493-0.065,1.687c0.195,0.391,0.065,0.845,0,1.106
			c-0.129,0.064,0,0.064,0,0c0.065,0,0.065,0,0.065,0.064c0,0.067-0.194,0-0.194,0.13c0.194,0.261,0.259,0.585,0.194,0.975
			c-0.129,0-0.324-0.067-0.259,0.127c0.065,0.13,0.259,0.13,0.259,0.327c-0.065,0.778,0.13,1.624,0.195,2.532
			c-0.065,0.13-0.324,0-0.261,0.194c0.391,0,0.065,0.194,0.326,0.391c0.844-0.391,1.039-1.366,1.689-1.948
			c-0.195-0.13,0.259-0.715,0.519-0.845c0.324-1.233,0.909-2.662,1.363-4.156c0.909-4.286,1.689-7.987,2.532-11.559
			c0.13-1.56,0.585-3.377,1.039-5.001c0.195-0.715,0.195-1.948,0.326-2.662c0.064-0.388,0.324-0.712,0.324-1.102
			c0.065-1.624,0.585-3.377,0.585-5.195c0.454-1.43,0.065-3.117,0.324-4.48c-0.13-0.909-0.454-2.402-0.454-3.508
			c-0.261-0.324-0.261-0.972-0.195-1.43c-0.194-0.194-0.065-0.648-0.065-1.102c-0.259,0.13-0.064-0.194-0.194-0.194
			c-0.389,0.324-0.13,0.909-0.195,1.296c-0.129,0-0.065-0.194-0.259-0.127c0,0.257-0.195,0.257-0.195,0.518c0.065,0,0.065,0,0.13,0
			C286.841,50.52,286.906,50.714,287.037,50.975z M278.92,90.972c0-0.064,0.064-0.064,0.064-0.13c-0.064,0-0.064-0.064-0.194-0.064
			c0,0.064,0,0.13,0,0.194C278.855,90.972,278.855,90.972,278.92,90.972z M278.855,59.934 M278.92,73.701 M278.92,73.701
			 M278.92,89.87 M279.179,90.518c0.065,0,0.13,0,0.13-0.064C279.245,90.454,279.179,90.454,279.179,90.518z M279.179,91.557
			c0.065,0,0.13,0,0.13-0.064C279.245,91.493,279.179,91.493,279.179,91.557z M279.245,80.78c0.065,0,0.13,0,0.13-0.067
			C279.31,80.713,279.245,80.713,279.245,80.78z M279.245,86.492 M279.31,72.599 M279.375,89.609 M279.503,82.661 M279.569,70.063
			 M279.569,74.092 M279.634,73.507 M279.699,69.415 M279.699,69.415 M279.829,77.403c-0.195,0.13,0.065,0.518,0.194,0.261
			C279.894,77.663,279.959,77.403,279.829,77.403z M279.764,72.402 M279.764,81.104 M279.829,78.832 M279.959,67.858
			c0.064,0,0.064,0,0.064,0.064C279.959,67.922,279.959,67.922,279.959,67.858z M280.283,72.532c0.13,0,0.194-0.13,0.324,0
			c-0.194,0.261-0.259,0.715-0.454,0.909C279.894,73.183,280.608,72.792,280.283,72.532z M280.283,66.559 M280.414,95.325
			c0-0.067,0-0.067,0-0.13c-0.065,0-0.065,0-0.13,0c0,0.064,0,0.064,0,0.13C280.349,95.325,280.349,95.325,280.414,95.325z
			 M280.738,73.377c0,0.715-0.261,1.169-0.389,1.884c-0.13-0.261-0.065-1.106,0.259-1.496c-0.065-0.064,0-0.257-0.194-0.194
			c0.064-0.261,0.259-0.388,0.389-0.585C281.062,72.986,280.738,73.31,280.738,73.377z M280.803,69.221c0,0.13-0.065,0-0.13,0
			C280.673,69.155,280.803,69.155,280.803,69.221z M280.933,69.027c0,0.064-0.065,0.064-0.13,0.064
			C280.803,69.027,280.868,69.027,280.933,69.027z M280.933,66.883c0.065,0,0.129,0,0.129-0.064
			C280.998,66.819,280.933,66.819,280.933,66.883z M280.933,72.923 M281.062,65.326 M281.062,68.443 M281.062,68.57 M281.127,62.988
			c-0.065,0-0.065-0.13,0-0.13C281.127,62.921,281.127,62.921,281.127,62.988z M281.192,62.664c0,0.064,0,0.194-0.065,0.194
			C281.127,62.794,281.127,62.664,281.192,62.664z M281.388,66.365c0,0.127,0,0.257-0.13,0.257
			C281.257,66.492,281.192,66.298,281.388,66.365z M283.14,66.753c-0.259,0.391-0.259,1.039-0.778,1.169
			c0.259,0.261-0.13,0.778,0.324,0.909c-0.389,0.651-0.585,1.884-1.233,2.014c0.129-0.454,0.454-1.106,0.389-1.56
			c0.454-0.324,0.259-1.039,0.454-1.493c0.324-0.194,0.585-0.842,0.585-1.169C282.946,66.429,283.14,66.689,283.14,66.753z
			 M281.453,66.883 M281.581,66.559 M281.972,64.351c0-0.064,0-0.13,0.065-0.194c-0.195,0-0.326,0-0.326,0.13
			C281.777,64.287,281.842,64.351,281.972,64.351z M281.842,59.22 M281.972,69.869C281.907,69.806,281.907,69.869,281.972,69.869
			C282.037,70,282.037,69.869,281.972,69.869z M281.972,95.195 M282.166,66.689c-0.259,0.194-0.194-0.454-0.065-0.715
			C282.555,66.038,282.037,66.622,282.166,66.689z M282.101,62.597 M282.361,65.65c0.13,0,0.065,0.13,0,0.194h-0.065
			C282.296,65.78,282.296,65.714,282.361,65.65z M282.296,65.844 M282.361,59.871c0-0.067,0-0.197,0.065-0.197
			C282.426,59.741,282.426,59.871,282.361,59.871z M282.881,62.533c-0.195,0.064-0.195-0.454-0.261-0.067
			c-0.065-0.257,0.195-0.778,0.456-0.909C282.881,61.882,282.946,62.143,282.881,62.533z M282.751,68.506
			c0,0.064-0.065,0.064-0.13,0.064C282.62,68.506,282.685,68.506,282.751,68.506z M282.685,61.364 M283.789,61.625
			c0.065,0.909-0.454,1.557-0.519,2.335c-0.259,0-0.065-0.13-0.194-0.257c0.454-0.975,0.194-1.951,0.778-2.729
			C284.115,61.104,283.985,61.428,283.789,61.625z M283.659,59.35 M284.05,56.884c-0.065,0-0.065-0.067-0.195-0.067
			c-0.065,0.067-0.13,0.391,0.065,0.391C283.92,57.078,284.05,57.015,284.05,56.884z M284.504,58.638
			c-0.13,0.194-0.326,0.581-0.13,0.842c-0.259,0.194-0.259,0.651-0.389,0.975c-0.391-0.845,0-1.299,0.324-2.145
			C284.504,58.311,284.439,58.508,284.504,58.638z M285.024,57.532 M285.154,57.402 M286.063,49.545 M287.037,50.26 M287.361,48.376
			l0.195,0.067C287.686,48.312,287.361,48.249,287.361,48.376z M288.141,67.143 M288.4,66.95 M288.465,66.168
			c0.065,0,0.13,0,0.13-0.064C288.53,66.104,288.465,66.104,288.465,66.168z M288.465,66.689c0.324,0.585-0.13,1.169,0.13,1.687
			c0.259-0.715,0.13-1.299,0.389-2.011c-0.195,0.064-0.065-0.197-0.259-0.197c0,0.261-0.13,0.324,0,0.521
			C288.66,66.689,288.465,66.559,288.465,66.689z M288.53,66.559 M288.595,65.714c0,0.067-0.13,0.13,0,0.194
			C288.595,65.844,288.725,65.78,288.595,65.714z M289.504,63.442c-0.13,0-0.259,0-0.259,0.064c0.129,0-0.13,0.324,0.065,0.324
			C289.373,63.703,289.438,63.572,289.504,63.442z M289.504,63.051 M289.828,68.182 M290.153,62.597c-0.13,0-0.261,0-0.261,0.13
			C289.958,62.857,290.153,62.794,290.153,62.597z M289.958,62.467c0.13-0.064,0.13-0.257,0.261-0.13
			c-0.261-0.194,0.194-0.324-0.195-0.388C290.023,62.143,289.893,62.209,289.958,62.467
			C289.828,62.533,289.958,62.533,289.958,62.467z M290.349,48.767 M290.477,69.936 M290.738,66.819c-0.065,0-0.065,0-0.065-0.067
			c-0.065,0-0.065,0-0.065,0.067c-0.13-0.585,0.195-1.106,0.195-1.821C291.257,65.714,290.738,66.038,290.738,66.819z
			 M290.803,64.999c-0.261-0.388,0-1.169,0.129-1.687C291.192,63.896,290.673,64.675,290.803,64.999z M290.867,61.428
			 M290.867,61.428 M290.867,61.752 M291.388,30.52c0.064,0,0.129,0,0.129-0.064C291.451,30.456,291.388,30.456,291.388,30.52z
			 M297.815,17.014c-0.389,0.909-0.844,1.363-1.363,2.014c-0.13,0.909-0.65,1.493-1.039,2.141c0.194,0-0.065,0.13,0,0.261
			c-0.326,0.194-0.326,0.778-0.715,0.909c0.065,0.324-0.389,0.778-0.324,1.039c-0.065,0-0.13,0-0.195,0
			c0.195,0.518-0.713,1.299-0.585,2.078c-0.129,0.064-0.194,0.194-0.389,0.194c0.13,0.197-0.065,0.391,0.065,0.585
			c-0.326,0.13-0.454,0.391-0.389,0.715c-0.326,0.064-0.195,0.521-0.454,0.648c-0.065,0.845-0.78,1.69-0.91,2.532
			c0.195,0-0.194,0.261,0.13,0.197c0.259-0.521,0.909-0.975,0.844-1.56c0.326,0.067,0.261-0.261,0.391-0.388
			c-0.13,0-0.261,0-0.261-0.067c0.261,0.067,0.195-0.13,0.389-0.13c0.845-1.102,1.365-2.596,2.273-3.701
			c0-0.388,0.324-0.454,0.324-0.842c0.975-1.299,1.234-3.117,2.143-4.353c0-0.388,0.195-0.585,0.326-0.909
			c-0.13,0,0.064-0.261,0-0.454c0.129-0.064,0.129-0.324,0.259-0.388c-0.13-0.327,0.065-0.391,0.065-0.715
			c0-0.067-0.065-0.067-0.13-0.067C298.139,16.884,298.011,16.95,297.815,17.014z"/>
		<path fill="#41BBEC" d="M309.071,51.331c-0.29-0.032-0.559-0.033-0.868-0.096c-0.778-0.391-1.363-0.975-2.013-1.493
			c-0.519-0.845-1.169-1.69-1.233-2.793c1.687-0.845,2.791-2.338,4.415-3.314c0.389-0.648,1.039-1.039,1.363-1.687
			c0.456-0.064,0.391-0.518,0.91-0.518c0.129-0.521,0.648-0.651,0.844-1.106c0.519-0.261,0.974-0.585,1.234-1.102
			c2.532-2.078,4.804-4.353,6.623-7.209c0.195-0.454-0.13-0.648,0-0.972c-0.326-0.067-0.261-0.391-0.326-0.715
			c-0.389-0.715-1.233-1.039-2.013-1.56c-0.389-0.194-0.583-0.585-0.844-0.715c-0.13-0.064-0.13,0.13-0.324,0.067
			c-0.195-0.067-0.195-0.261-0.326-0.261c-2.921-0.518-5.584,0.454-7.401,1.56c-3.312,2.532-5.844,5.843-7.987,9.544
			c-0.13,0.585-0.324,0.975-0.585,1.363c-0.389,1.884-0.778,3.701-0.65,6.04c0.261,1.299,0.715,2.465,1.104,3.504
			c0.65,0.845,1.363,1.624,2.013,2.469c1.169,0.778,2.273,1.363,3.636,1.754c0.065-0.067,0.195,0.064,0.261-0.13
			c0.13,0.13,0.389,0.194,0.585,0.324c0.064-0.261,0.389-0.13,0.454-0.13c0.329,0.031,0.626,0.018,0.913,0.016
			C308.456,53.118,308.605,52.132,309.071,51.331z M309.696,34.285c2.273-1.624,5.001-4.089,8.377-3.635
			c0.261,0.261,0.326,0.648,0.391,1.102c-0.065,0.261-0.326,0.391-0.261,0.782c-2.013,2.79-4.61,5.325-7.597,6.882
			c-0.391,0.391-1.039,0.585-1.365,1.039c-1.558,0.715-2.987,1.624-4.35,2.469C305.151,39.092,307.749,36.947,309.696,34.285z"/>
		<path fill="#41BBEC" d="M313.008,38.053"/>
		<path fill="#41BBEC" d="M362.159,39.807c0.195-0.067,0.13-0.391,0.261-0.521c-0.78,3.962-2.858,7.142-4.351,10.65
			c-0.259,0.13-0.324,0.454-0.519,0.585c-0.778,2.011-2.272,4.156-4.221,5.389c-0.585,0.391-1.428,0.845-2.337,0.845
			c-2.078,0.064-3.962-0.909-4.936-2.272c-0.974-2.014-0.974-4.74-0.778-6.885c0-0.13,0-0.261,0.194-0.261
			c-0.129-0.585,0.065-1.102,0.13-1.624c0.065-0.324,0.195-0.712,0.261-1.039c0-0.064-0.13-0.194-0.13-0.257
			c0-0.261,0.195-0.521,0.259-0.782c0.195-1.102,0.261-2.205,0.715-3.18c0.454-2.793,1.299-4.804,1.948-7.403
			c1.234-0.261,2.404,0.13,3.442,0.521c0.259,0.388,0.713,0.712,0.778,1.166c-0.13,1.169-0.324,2.405-0.909,3.768
			c-0.261,1.624-1.234,2.662-1.689,4.219c-0.13,0.13-0.194,0.324-0.389,0.391c-0.065,0.194,0.324,0.13,0.065,0.261
			c-0.195,0.388-0.585,0.778-0.454,1.296c-1.104,0.975-0.91,2.793-1.234,4.156c-0.065,1.496-0.454,2.145-0.13,3.701
			c0.065,0.197-0.129,0.197-0.129,0.327c0.454,0.648,0.518,1.296,1.103,1.817c0.391,0.13,0.715,0.324,1.039,0.518
			c0.975,0.197,1.689-0.454,2.404-0.842c3.052-2.405,5.064-5.846,6.623-9.741c0.195,0,0.065-0.261,0.261-0.194
			c0.454-1.299,1.039-2.532,1.817-3.571c0.195-0.585,0.389-1.169,0.844-1.43C362.225,39.416,362.094,39.677,362.159,39.807z
			 M352.615,24.677c0.389,0.324,0.713,0.778,1.039,1.169c0.064,0.518-0.13,0.972,0,1.427c-0.585,0.521-0.845,1.363-1.754,1.56
			c-2.013-0.261-2.856-2.987-1.428-4.353c0.259,0,0.324-0.194,0.519-0.257C351.576,24.093,351.9,24.741,352.615,24.677z
			 M362.029,40.195 M362.094,40.064"/>
		<path fill="#41BBEC" d="M371.117,62.403c-0.065,0-0.065,0-0.129,0c-0.13-1.363-0.456-3.117-0.391-4.807
			c-0.389-1.427-0.519-3.114-0.713-4.35c-0.544-0.845-0.588-2.192-0.8-3.422c-0.671-0.523-1.15-1.314-1.185-2.403
			c-0.01-0.307,0.018-0.594,0.035-0.887c-0.381-1.385-0.613-2.92-1.362-3.939c0.13,0,0.195-0.127,0.389-0.064
			c-0.065-0.454-0.324-0.778-0.519-1.233c-0.065-0.845-0.585-1.821-0.844-2.532c0.13-0.13-0.065-0.261,0.065-0.454
			c-0.65-1.496-0.454-3.247-0.715-4.677c0.065-0.064,0.13-0.194,0.261-0.261c-0.13-0.064-0.261-0.13-0.195-0.324
			c0.454-1.363,0.974-2.856,1.493-4.156c0.78-0.391,0.78-1.557,1.624-1.817c0.195-0.651,0.65-1.039,1.039-1.493
			c0.195,0,0.195-0.067,0.454-0.13c0.13,0.064,0.195,0.261,0.261,0.391c0,2.726-1.104,4.413-1.689,6.752
			c0.194,0.064,0.324,0.391,0.194,0.585c0.391-0.064,0.65,0.324,0.975,0.521c0.454,0,0.713,0.388,0.909,0.454
			c0.065,0,0.065,0,0.065,0.064c0.454-0.064,1.104,0,1.558,0.13c0.974-0.13,2.078-0.778,2.013-1.948
			c0.454-0.324,0.259-1.236,0.974-1.43c0.261-0.518,0.13-1.299,0.65-1.557c0.194-0.975,0.065-1.69,0-2.859
			c-1.169-2.987-5.001-4.025-8.118-4.674c-1.039,0.388-1.817,1.039-2.726,1.557c-1.754,2.078-3.573,4.807-3.832,7.727
			c-0.195,0.13-0.259,0.391-0.389,0.585c-0.261,2.145-0.326,4.353-0.195,6.494c0.195,3.053,1.624,5.455,2.273,7.727
			c0,0.13-0.065,0.13-0.065,0.197c0.389,0.778,0.65,1.817,0.844,2.726c0.261,0.388,0.326,1.102,0.519,1.557
			c-0.259,0.197-0.129,0.585-0.065,0.909c-2.272,2.014-3.96,4.286-6.168,6.3c-0.259,0.648-0.713,1.169-1.233,1.557
			c-0.065,0.391-0.195,0.651-0.519,0.715c-0.391,0.909-0.78,1.754-1.493,2.338c-0.195,0.845-0.585,1.493-1.039,2.141
			c-1.169,2.859-2.728,6.755-2.338,10.389c0.13,1.039,0.65,2.208,1.299,2.99c0.129,0.194,0.454,0.257,0.518,0.388
			c0.13,0.194,0.326,0.521,0.715,0.521c0.13,0.194,0.065,0.194,0.195,0.388c0.909,0.13,1.168,0.585,1.882,1.039
			c1.819,0.13,2.662,1.106,4.416,1.106c0.129-0.13,0.324-0.197,0.454-0.261c0.974,0.194,1.624-0.13,2.337-0.391
			c0.715,0.197,1.039-0.518,1.754-0.518c0.909-0.648,2.013-1.43,2.921-2.338c-0.065-0.261,0-0.194,0.065-0.454
			c0.65-0.324,0.974-1.233,1.299-2.141c0.259-0.067,0.194-0.454,0.519-0.454c0.064-0.197-0.195-0.13-0.13-0.327
			c0.454-0.518,0.389-1.427,0.909-2.141c0.389-2.014,0.845-4.74,1.039-6.624C370.989,64.544,370.989,63.506,371.117,62.403z
			 M364.56,73.895c-0.326,0.585-0.78,0.975-1.039,1.56c-1.819,0.972-2.793,3.441-5.649,2.92c-0.13,0.13-0.261,0.197-0.519,0.13
			c-2.143-0.454-3.832-1.624-4.091-3.765c0-0.778,0.065-1.687,0.129-2.726c0.519-1.821,0.845-3.638,1.689-5.325
			c0.13-0.909,0.585-1.363,0.715-2.014c-0.195-0.13-0.326,0.715-0.585,0.521c0.13-0.197,0.13-0.521,0.324-0.715
			c-0.129-0.651,0.454-1.039,0.585-1.687c1.299-2.145,2.987-3.898,4.545-5.779c1.493-0.912,2.404-2.469,3.897-3.377
			c-0.065,0.261-0.326,0.261-0.389,0.518c0.194-0.064,0.324-0.13,0.389-0.324c0.065,0.715,0.389,1.169,0.259,1.817
			c0.65,3.184,0.975,6.431,0.91,9.741C365.664,68.246,364.949,70.778,364.56,73.895z"/>
		<path fill="#41BBEC" d="M362.677,55.585c0-0.067,0.064-0.13,0.194-0.13C362.871,55.518,362.677,55.715,362.677,55.585z"/>
		<path fill="#41BBEC" d="M362.871,55.455c0-0.064,0.065-0.13,0.13-0.13C363.001,55.391,363.001,55.455,362.871,55.455z"/>
		<path fill="#41BBEC" d="M363.001,55.324c0.13-0.261,0.324-0.388,0.519-0.518C363.391,55.064,363.26,55.261,363.001,55.324z"/>
		<path fill="#41BBEC" d="M363.521,54.806c0.13-0.324,0.324-0.521,0.65-0.651C363.975,54.416,363.78,54.676,363.521,54.806z"/>
		<path fill="#41BBEC" d="M415.558,53.312c-0.084,0.034-0.134,0.099-0.222,0.128c-1.039-0.127-1.169-1.102-1.754-1.62
			c0.261-0.391-0.13-0.651-0.194-1.039c-0.13-0.845,0.585-1.821,0.648-2.729c0.064-0.261-0.064-0.324-0.13-0.454
			c0.324-0.324,0.324-1.102,0.585-1.493c-0.064-1.169,0.648-1.884,0.518-3.117c0.327-0.324,0.585-1.102,0.391-1.884
			c0.13,0,0.13-0.064,0.261-0.064c0.064-0.845,0.261-1.233,0.648-1.884c0.391-1.363,0.715-3.247,0.909-4.804
			c-0.13-0.909,0.454-2.856-0.064-3.832c0-0.261,0.064-0.261,0-0.454c-0.13-0.194-0.194,0.194-0.324,0
			c-0.13-0.585-0.715-0.648-1.039-1.039c-0.261-0.064-0.067,0.324-0.324,0.261c-0.13-0.13-0.327-0.261-0.521-0.324
			c-0.064-0.327,0.261-0.327,0.324-0.585c-0.324-0.067-0.715-0.197-1.103-0.13c-0.067-0.197,0.194-0.13,0.13-0.324
			c-0.324,0-0.521-0.197-0.715-0.13c-0.324-0.909-2.014-0.391-2.402-1.56c-0.391,0-0.454,0.13-0.715,0.13
			c0,0.391,0,0.778-0.194,0.909c0.324,0.454,0.324,1.233,0.518,1.817c-0.324,2.338-0.909,4.677-1.363,7.145
			c-0.326,0.972-0.585,2.402-0.715,3.829c0,0.13-0.194,0.067-0.13,0.261c-0.064,0.975-0.389,1.624-0.454,2.469
			c-0.389,1.299-1.233,2.208-1.687,3.504c-0.975,1.106-2.078,2.078-2.793,3.377c-0.585,0.454-1.169,1.233-1.754,1.43
			c-0.324,0.585-0.974,0.842-1.363,1.299c-0.13,0-0.13,0.064-0.195,0.064h-0.65c-0.194,0.391-0.713,0.454-1.102,0.585
			c-0.391-0.13-0.326-0.648-0.585-0.845c0-0.324-0.065-0.518-0.195-0.778c-0.13-1.233,0.261-1.493,0.261-2.402
			c0.389-1.106,1.039-2.338,1.298-3.441c0.78-0.521,0.715-1.69,1.363-2.469c-0.064-0.778,0.521-0.909,0.456-1.687
			c0.129-0.067,0.194-0.327,0.389-0.327c0.065-0.778,0.259-1.687,0.909-2.078c-0.13,0-0.194,0-0.194-0.13
			c0.129-0.324,0.389-0.518,0.454-0.972c0.389-0.324,0.713-0.778,0.909-1.299c1.624-1.884,3.571-3.504,5.519-5.064
			c0.391-0.064,0.715-0.261,1.039-0.454c0.067-0.521,0.261-0.909,0.261-1.43c-0.194-0.127-0.261-0.454-0.391-0.712
			c-0.583,0-0.844-0.521-1.493-0.458c-1.039,0.585-1.817,1.43-2.662,2.145c-0.129,0.391-0.324,0.715-0.713,0.845v0.257
			c-0.454,0.327-0.78,0.782-0.974,1.299c-2.404,3.117-4.547,6.427-6.103,10.389c-0.326,0.909-0.521,1.754-0.91,2.402
			c0,0.651-0.454,1.236-0.324,1.821h-0.195c-0.974,3.18,0,7.012,2.923,7.4c0.259-0.127,0.324-0.127,0.585,0
			c2.661-1.039,4.61-2.659,6.234-4.867c0.129,0,0.064,0.194,0.194,0.194c0.324-0.454,0.65-0.845,1.169-1.039
			c0.065,1.102,0.585,1.817,0.909,2.662c0.261-0.13,0.13,0.064,0.324,0.064c0,0.13-0.194,0.067-0.129,0.261
			c0.585,1.102,1.492,1.817,2.273,2.662c1.039,0.324,1.948,0.648,3.117,0.778c0.518-0.194,1.102-0.324,1.817-0.324
			c0.11-0.079,0.227-0.177,0.339-0.259C415.926,54.722,415.581,54.094,415.558,53.312z"/>
		<path fill="#41BBEC" d="M416.375,38.117"/>
		<path fill="#41BBEC" d="M482.279,34.415c0,0.197-0.261,0.13-0.261,0.324c0,0.067,0.13,0.067,0.194,0.067
			c-0.064,0.13-0.194,0.13-0.324,0.13c-0.064-0.067-0.064,0,0,0c0,0.064,0,0.194,0,0.261c-0.518,0.324-0.518,0.842-1.169,1.102
			c0,0.391-0.518,0.261-0.454,0.715c-0.261,0.064-0.391,0.261-0.715,0.261c0,0.127,0.067,0.127,0.067,0.257
			c-0.521,0.261-0.909,0.845-1.299,1.363c-0.064-0.064-0.064,0,0,0c-0.13,0.327-0.521,0.067-0.521,0.521
			c-0.842,0-0.972,1.102-1.687,1.299c-0.064,0.13-0.194,0.194-0.13,0.388c-0.194,0.067-0.324,0.13-0.518,0.13
			c-0.261,0.391-0.651,0.715-1.169,0.845c-0.067,0.064-0.067,0.324-0.13,0.391c-0.909,0.648-1.817,1.233-2.599,1.948
			c-0.909,0-1.166,0.778-1.817,1.039c0,0.388-0.194,0.518-0.13,0.909c-0.194,0.064-0.194-0.13-0.388-0.067
			c0.518,0.585-0.391,0.975-0.197,1.56c-0.064,0-0.127,0.064-0.257,0.064c0,0.197,0,0.391,0,0.585
			c-0.324,0.454-0.521,1.106-0.975,1.43c-0.194,0.715-0.518,1.817-1.039,2.402c0,0.194,0.067,0.194,0.261,0.194
			c-0.778,0.391-0.648,0.975-1.299,1.56c0.194,0.13-0.064,0.518,0.067,0.585c0.257,0-0.067-0.585,0.257-0.521
			c0,0.197,0,0.327,0,0.521c-0.257,0-0.324,0.261-0.454,0.13c-0.13,0.972-0.648,2.141-1.363,2.726
			c0.067,0.454-0.13,0.648-0.324,0.845c-0.067,0.194,0.064,0.194,0.064,0.324c-0.454,0.909-1.102,2.014-2.011,2.662
			c0,0.13,0,0.194,0,0.324c-0.651-0.064-0.715,0.454-0.909,0.778c-1.43,0.585-2.729,1.299-4.156,1.43
			c-0.585-0.261-1.56-0.13-1.821-0.715c-0.648,0.067-0.778-0.324-1.296-0.324c-0.13-0.324-0.067-0.975-0.391-1.106
			c0.194-0.127,0-0.257,0.13-0.518c-0.521-0.909,0.261-1.884,0.261-2.856c0.13,0,0.13-0.067,0.257-0.067
			c0.13-0.909,0.327-1.817,0.909-2.335c-0.064-0.458,0.327-0.585,0.391-1.169c0.324-0.067,0.261-0.521,0.585-0.585
			c0.648-1.754,2.078-2.729,2.987-4.222c2.145-2.141,4.48-3.959,7.012-5.713c0.585,0.064,0.651-0.391,1.106-0.454
			c0.518-2.014,0.715-4.61,0.324-6.818c0-0.13,0.064-0.13,0.13-0.197c-0.261-0.388-0.13-0.972-0.261-1.493
			c-0.388-1.751-1.624-3.895-2.987-3.959c-0.13,0-0.585,0.194-0.845,0.194c-0.064,0-0.194-0.13-0.194-0.13
			c-0.715,0.197-0.972,0.778-1.754,0.975c-0.715,0.778-1.881,1.039-2.272,2.078c-0.391,0.13-0.778,0.257-0.778,0.715
			c-0.651,0.064-0.651,0.909-1.169,1.102c0.13,0.715-0.845,0.778-0.778,1.624c-0.13,0.064-0.197,0.064-0.261,0
			c0.064,0.194,0,0.194,0,0.454c-0.845,0.909-1.236,2.078-2.078,3.117c0.13,0.391-0.391,0.521-0.13,0.778
			c-0.261,0.197-0.521,0.391-0.454,0.909c-0.651,1.169-1.169,2.145-1.363,3.768c-0.197,0-0.067,0.257-0.261,0.257
			c-0.13,0.782,0.064,1.042-0.261,1.496c-0.13,2.402-1.102,4.934-1.817,6.945c0,0.454,0.064,0.975-0.261,1.106
			c0.391,0.454,0,0.909,0,1.233c-0.648,0-0.778,0.715-1.363,0.521c-0.13,0,0,0.324-0.064,0.454c-0.454,0.064-1.299,0.13-1.754-0.13
			c-0.13,0-0.324-0.067-0.261,0.13c-0.585-0.324-1.43-0.391-2.078-0.651c-0.064-0.194-0.194-0.388-0.064-0.648
			c0.064-0.261-0.261-0.13-0.261-0.391c0-0.194,0.194-0.194,0.324-0.257c0.064-1.039,0.648-1.754,0.585-2.729
			c0.261-0.648,0.13-1.493,0.454-2.208c0.648-6.364,1.754-11.622,2.856-17.465c0.324-0.651,0.261-1.69,0.391-2.599
			c0.454-1.299,0.13-2.141,0.648-3.117c0.067-1.687,0.585-2.532,0.585-4.156c0.261-0.261,0.13-0.845,0.324-1.169
			c0.13-1.817,0.715-3.635,0.782-5.389c0.972-3.832,1.493-7.987,2.532-12.076c0.194,0.064,0.13-0.13,0.257-0.13
			c-0.064-0.261-0.127-0.521-0.194-0.782c1.363-0.518,2.662,0.261,3.895,0.585c0.975,0.521,1.624,1.884,1.039,2.99
			c0,0.388,0.197,0.842,0.197,1.233c0,0.194-0.197,0.324-0.261,0.518c0,0.13,0.064,0.391,0.064,0.521
			c-0.064,1.169-0.454,1.817-0.388,2.596c-0.521,1.884-0.585,4.156-1.299,6.04c0,0.13,0.064,0.194,0.13,0.261
			c-0.454,0.518-0.261,1.817-0.845,2.208c0.197,0.257-0.13,0.518,0.067,0.712c-1.493,3.377-1.69,8.118-2.532,12.143
			c1.493-1.624,3.18-3.635,5.388-4.804c0.518-0.585,1.493-0.648,2.078-1.169c1.493-0.391,3.635-0.909,5.001,0.13
			c1.166,0.064,1.687,0.715,2.532,1.039c-0.067,0.454,0.324,0.064,0.257,0.518c0.715,0.13,0.909,0.715,1.169,1.299
			c0.651,0.585,0.845,1.56,1.363,2.208c0.13,0.778,0.197,1.363,0.327,2.014c0,0.518-0.13,0.909,0.127,1.166
			c-0.324,0.975-0.388,1.299-0.324,2.078c-0.388,0.197-0.257,0.912-0.257,1.43c-0.13,0.194-0.391,0.521-0.197,0.909
			c1.169-0.585,2.078-1.557,3.184-1.948c0.13,0,0-0.324,0.13-0.391c1.039-0.127,1.427-1.102,2.465-1.363
			c0.067-0.324,0.585-0.257,0.585-0.715c0.975-0.324,1.69-1.427,2.793-1.817c-0.067,0.067-0.067,0.261,0,0.324
			c0.13-0.064,0-0.454,0.324-0.324c-0.194-0.585,0.651-0.518,0.975-0.715C481.628,34.676,481.825,34.546,482.279,34.415z
			 M466.241,47.013c0-0.064-0.067-0.064-0.13-0.064c-1.43,0.842-2.923,1.624-3.895,2.92c-1.951,1.366-2.793,3.898-4.353,5.649
			c-0.064,0.975-0.715,1.821-0.909,2.729c0.261,0.909-0.972,1.493-0.261,2.272c-0.064,0.261,0,0.391,0.13,0.585
			c0.651-0.324,1.624-0.585,1.884-1.039c0.194-0.13,0.324-0.261,0.585-0.324c0.194-0.324,0.454-0.585,0.715-0.715
			c0.064-0.261,0.194-0.518,0.518-0.518c0.975-1.299,1.817-2.729,2.856-3.962c0.327-1.299,1.43-2.469,1.56-3.962
			c0.194,0.067,0.194-0.13,0.324-0.13c0-0.194,0-0.388-0.064-0.454C465.85,49.221,465.72,47.988,466.241,47.013z M461.434,58.247
			c0-0.067,0-0.067,0-0.13c-0.064,0-0.064,0-0.13,0c0,0.064,0,0.064,0,0.13C461.37,58.247,461.37,58.247,461.434,58.247z
			 M463.902,55.518 M470.654,41.948 M479.096,36.623c0.067,0,0.13,0,0.13-0.064C479.162,36.56,479.096,36.56,479.096,36.623z
			 M479.81,36.039 M480.786,35.391c0-0.067,0-0.067,0-0.13c-0.067,0-0.067,0-0.13,0c0,0.064,0,0.064,0,0.13
			C480.719,35.391,480.719,35.391,480.786,35.391z M480.786,36.039 M481.952,34.285c-0.388,0-0.454,0.327-0.778,0.391
			c0.13-0.261,0.521-0.391,0.715-0.585C481.952,34.091,481.952,34.221,481.952,34.285z M481.24,34.87 M482.082,34.028
			 M482.279,34.415 M482.409,34.285 M482.733,33.573"/>
		<path fill="#41BBEC" d="M480.068,52.404c-0.13,0.127-0.067,0-0.261,0c0,0.454-0.454,0.712-0.067,1.036
			c-0.257,0.521-0.324,0.782-0.063,1.366c0,0.13-0.13,0.064-0.261,0.064c0,0.194,0.067,0.194,0.261,0.194
			c-0.324,0.327,0.454,0.975,0.261,1.366c0-0.067,0-0.067-0.067-0.067c0,0.067,0,0.067,0.067,0.067
			c0.261,0.194,0.194,0.648,0.324,0.909c1.624-1.236,2.726-2.987,4.092-4.416c1.296-2.208,3.18-3.895,4.156-6.427
			c0.581-0.521,0.842-1.299,1.296-1.948c0.067-0.585,0.324-0.912,0.521-1.366c0-0.194,0.194-0.13,0.261-0.257
			c0.909-2.405,2.205-4.353,3.114-6.755c0.067,0,0.067-0.064,0.197-0.064c0.324-0.909,0.778-1.624,1.363-2.275
			c-1.169,3.898-2.726,7.6-4.219,10.974c-0.067,0.391-0.067,0.782-0.391,1.039c-0.194,1.236-1.169,2.599-1.43,3.701
			c-0.388,0.585-0.909,1.106-1.102,1.948c-1.169,1.493-2.078,3.247-3.377,4.547c0.13,0.13,0,0.194,0,0.324
			c-0.972,1.169-1.624,2.338-2.726,3.441c-1.299,0.585-3.701,1.69-5.195,0.651c0.064-0.067,0-0.067,0,0
			c-2.145-0.585-2.987-3.117-3.117-5.131c0.324-0.388,0.064-1.039,0.194-1.299c0.067,0.13,0.067,0,0,0
			c0.067-3.895,0.909-6.752,0.975-10.583c0.324-0.454,0.257-0.845,0.388-1.624c0.324-0.324,0.454-1.363,0.324-1.754
			c0.782-2.596,0.782-4.74,1.43-7.012c-0.324-0.454,0.324-1.102,0.194-1.754c0.261-0.388,0.197-0.842,0.521-1.102
			c0-0.067-0.13-0.067-0.194-0.067c0.194-0.842,0.324-1.817,0.712-2.532c0.067-0.257-0.127-0.194-0.194-0.324
			c0.324-1.039,0.261-2.402,0.975-3.18c0.064-0.261-0.327-0.13-0.13-0.324c0.194-0.067,0.13,0.127,0.257,0.127
			c0.261-0.194,0.327-0.581,0.521-0.842c-0.391,0.064-0.521,0.261-0.521,0.648c-0.581-0.518,0.391-1.948,0.327-2.402
			c0.064-0.194,0.064-0.064,0.257-0.064c0.067-0.197-0.194-0.13-0.127-0.327c0.194,0.067,0.127-0.13,0.257-0.13
			c-0.064-0.648,0.261-0.972,0.391-1.493c0-0.127-0.064,0-0.194,0c0-0.127,0.064-0.194,0.194-0.194c0-0.324,0-0.261-0.064-0.518
			c0.257,0.064,0.064-0.327,0.324-0.261c-0.13-0.454,0.13-1.299,0.518-1.69c0.454-2.726,1.624-6.037,2.729-8.699
			c0.064-0.454,0.194-0.909,0.518-1.106c0.715-2.335,2.338-4.35,3.832-6.167c0.261-0.194,0.585-0.261,0.648-0.585
			c1.106,0.064,2.078,0.391,3.053,0.13c0.064,0,0.064-0.13,0.064-0.197c0.585,0.067,0.975,0.13,1.363,0.458c0,0.127,0,0.194,0,0.324
			c1.951,1.754,0.391,4.804,0.327,7.142c-0.521,1.427-0.782,3.117-1.299,4.35c0.194,0.454-0.324,0.909,0,1.299
			c-0.454,0.518-0.521,1.43-1.169,1.754c0,0.064,0,0.13,0.13,0.13c-1.106,1.751-1.884,3.895-3.377,5.258
			c-1.039,0.845-1.754,2.078-2.856,2.793c0.064,0.064,0.064,0.194,0.064,0.324c-0.585,1.039-0.712,2.338-1.363,3.441
			c0.13,0.197,0.194,0.454-0.064,0.585c0.518,0.324-0.261,0.715-0.067,1.106c-0.388-0.13-0.261,0.324-0.518,0.518
			c0.257,0.194,0.064,0.521,0.324,0.778c-0.324,0.585-1.039,1.169-0.715,2.014c-0.324-0.13-0.194,0.261-0.388,0.261
			c0.194,0.712-0.458,1.427,0,2.141c-0.391,0.521-0.521,1.56-0.782,2.208c0,0.194,0.197,0.13,0.197,0.324
			c-0.585,1.43,0,2.729-0.715,3.962c0.324,0.324-0.261,0.585,0.064,0.778c0.067,0.194-0.194,0.067-0.194,0.261
			c0.13,0.715-0.194,1.884-0.324,2.726c0,0.13,0.194,0.067,0.194,0.194c-0.064,0.651-0.324,0.912-0.194,1.496
			c-0.261-0.067-0.261,0.194-0.521,0.194c0,0.064,0.067,0.13,0.197,0.13c-0.067,0.13-0.13,0.194-0.197,0.324
			c0.261,0.909-0.261,1.687-0.13,2.596c-0.064,0-0.064,0.067-0.194,0.067c0.324,0.778-0.064,1.233-0.064,2.208
			c0.064,0,0.127,0,0.127,0.064c0.261,0,0.261-0.261,0.391-0.454h0.067C480.131,52.144,480.198,52.144,480.068,52.404z
			 M475.327,44.22c0-0.064,0-0.064,0-0.127c-0.067,0-0.067,0-0.13,0c0,0.064,0,0.064,0,0.127
			C475.261,44.22,475.261,44.22,475.327,44.22z M475.327,50.52c0.064,0,0.064,0,0.13,0c0.064-0.067,0.064-0.13-0.067-0.194
			c0,0.064,0,0.064-0.064,0.064C475.327,50.454,475.327,50.454,475.327,50.52z M475.327,59.286 M475.521,59.547
			c0.13-0.13-0.194-0.197-0.194-0.067c0.064,0,0.064,0,0.064,0.067C475.458,59.547,475.458,59.547,475.521,59.547z M478.444,31.753
			c0.13,0,0.257,0,0.257-0.127c-0.388-0.197-0.581,0.324-0.518,0.778c0.194-0.067,0.064,0.194,0.324,0.13
			c0.067-0.261-0.194-0.197-0.194-0.391c0.13,0.064,0.064-0.13,0.194-0.13c0.324,0.13,0.13,0.585,0,0.778
			c0.261-0.064,0.261,0.13,0.261,0.391c-0.13,0.064,0,0.064,0,0c0.13-0.324,0.585-0.715,0.324-0.845c0.064,0,0.194,0,0.261,0
			c-0.197,0.197,0.064,0.521-0.197,0.585c-0.064,0.197,0.197,0.197,0.197,0.324c-0.13,0.13-0.324,0.197-0.324,0.458
			c0.064,0.064,0.324-0.067,0.324,0.064c-0.197,0.064-0.454,0.064-0.454,0.324c0.257,0.067-0.197,0.454,0.13,0.648
			c-0.13,0.067-0.13,0.261-0.261,0.261c-0.13-0.324,0.064-0.842,0.13-1.169c-0.13-0.064-0.521-0.127-0.324-0.388
			c-0.13,0-0.197,0-0.327,0c0,0.261,0.067,0.194,0,0.388c-0.257,0-0.388,0.067-0.388,0.261c0.261,0.194,0.715-0.064,0.648-0.194
			c0.067,0,0.13,0.064,0.13,0.13c-0.261,0.388-1.102,0.712-0.845,1.233c-0.324,0.261-0.257,0.975-0.388,1.102
			c0-0.127,0.194,0,0.257,0c0-0.388,0.458-0.257,0.391-0.712c-0.13,0-0.261,0-0.261-0.13c0.197-0.261,0.261-0.782,0.585-0.782
			c-0.324,0.391,0.067,1.366-0.518,1.496c0.13,0.454-0.454,0.324-0.585,0.581c0.064,0.067,0.13,0.067,0.261,0.067
			c-0.13,0.13-0.13,0.391-0.261,0.518c0.13,0.13,0.13-0.064,0.388,0c0.067-0.194,0-0.194,0.067-0.454
			c-0.067,0-0.13-0.064-0.194-0.064c0-0.13,0.257,0,0.388-0.067c0.13,1.106-0.518,2.078-0.454,3.053
			c0.454-0.064,0.261-0.778,0.778-0.778c-0.127,0.585-0.257,1.102-0.454,1.687c0.197,0.067,0.197-0.064,0.327-0.064
			c-0.067,0.454-0.458,1.169-0.845,0.909c-0.197,0.194-0.324,0.391-0.197,0.648c-0.127,0-0.127,0.067-0.257,0.067
			c0.194,0.194,0,0.388,0.257,0.585c0.067-0.067,0-0.261,0.13-0.261c0.067,0.261-0.13,0.261-0.064,0.454
			c0.13,0,0.324-0.261,0.454-0.067c-0.324,0-0.064,0.261-0.13,0.521c-0.261-0.064-0.13,0.261-0.261,0.324
			c0-0.064-0.064-0.13-0.13-0.13c-0.064,0.197-0.064,0.261-0.257,0.197c-0.067,0.454-0.324,0.972-0.261,1.493
			c-0.13,0.13-0.261,0.13-0.324,0.257c0.324,0,0.064,0.261,0.194,0.391c0.261,0,0.261-0.261,0.521-0.261
			c-0.067,0.067-0.067,0.13-0.067,0.197c-0.324,0.194-0.388,0.648-0.585,0.972c0.067,0,0.197,0,0.261,0
			c-0.064,0.067-0.13,0.067-0.13,0.194c0.261,0.067,0.13,0.327,0.067,0.585c0.127,0,0.257,0,0.257,0.067
			c-0.194,0.454,0,0.909-0.585,1.039c-0.127,0.261,0.197,0.064,0.197,0.194c-0.13,0.194-0.324,0.391-0.715,0.324
			c0.324,0.197,0.064,0.651,0.261,0.845c-0.391,0-0.067,0.715-0.327,0.975c0.067,0.194,0.261,0.194,0.261,0.388
			c-0.261,0.261-0.324,0.651-0.194,1.039c0.194,0.067,0.13-0.194,0.324-0.13v0.067c0.13,0,0.067,0.194,0.194,0.194
			c0-0.13-0.064-0.194-0.064-0.261c0.064-0.127,0.261-0.127,0.391-0.257c0.388-0.845,0.324-1.56,0.454-2.338
			c-0.197-0.845,0.257-2.078,0.127-2.923c0.13-0.064,0.067-0.324,0.197-0.324c-0.067-1.233,0.518-2.338,0.388-3.441
			c0.585-0.909,0.327-2.469,0.845-3.441c-0.13-0.845,0.324-1.366,0.13-2.078c-0.13,0.13-0.391,0.064-0.391,0.257
			c0.067,0,0.13,0,0.197,0c-0.197,0.261-0.197,0.782-0.521,0.909c0.261-0.909,0.197-1.296,0.521-2.078
			c0.13,0.067,0.194-0.194,0.257,0c0,0.261-0.388,0.391-0.257,0.585c0.194,0.067,0.13-0.257,0.257-0.257
			c0,0.13,0.067,0.194,0.13,0.194c0.454-2.141,0.782-4.219,1.106-6.364c-0.261,0.194-0.197-0.13-0.454-0.13
			c0.064,0.197,0,0.454-0.261,0.454c0.13-0.13,0.13-0.388,0.194-0.648c-0.324-0.067-0.454,0.13-0.648,0.194
			c0.064-0.261-0.067-0.388-0.324-0.324c-0.067,0.261,0.194,0.391,0,0.585c0.257,0.064,0.13-0.261,0.324-0.261
			C478.832,31.235,478.832,32.08,478.444,31.753z M475.585,59.48c0.067,0,0.13,0,0.13-0.064
			C475.652,59.416,475.585,59.416,475.585,59.48z M475.652,54.937 M475.782,49.221 M476.106,44.935
			c-0.064,0.261-0.261,0.391-0.261,0.778C476.106,45.713,476.236,45.129,476.106,44.935z M476.169,51.362
			c-0.194,0.261,0,0.845-0.324,0.975c0.13-0.324,0-0.715,0.197-0.909c0-0.13-0.327-0.521,0.064-0.454
			C476.042,51.169,475.976,51.299,476.169,51.362z M476.042,56.818c0-0.13-0.067-0.194-0.13-0.194c0,0.064-0.067,0.064-0.067,0.13
			C475.912,56.754,475.912,56.818,476.042,56.818z M476.042,59.871c0-0.067,0.064-0.067,0.064-0.13
			c-0.064,0-0.064-0.067-0.194-0.067c0,0.067,0,0.13,0,0.197C475.976,59.871,475.976,59.871,476.042,59.871z M476.106,52.532
			c-0.064,0-0.064,0-0.13,0C475.976,52.468,476.106,52.468,476.106,52.532z M475.976,54.482c0.194,0.257,0.454,0.909,0,1.102
			c0.067,0.261,0.13,0.194,0.067,0.518c0.324,0.261,0.324,0.715,0.257,1.106c0.13,0,0.261,0,0.391,0
			c0.064-1.299-0.715-2.469-0.13-3.638c-0.13-0.257-0.13-0.257-0.064-0.585c-0.197,0-0.261,0.197-0.391,0.261
			C476.236,53.377,476.236,54.416,475.976,54.482z M476.169,50.908c0,0.067,0,0.067-0.064,0.067
			C476.106,50.908,476.106,50.908,476.169,50.908z M476.236,50.714c0.064,0,0.064,0.067,0.13,0.067c0,0.064,0,0.064,0,0.127
			c-0.067,0-0.13,0-0.197,0C476.169,50.844,476.169,50.781,476.236,50.714z M477.469,59.026c-0.454-0.13-0.585-0.585-1.039-0.648
			c0,0.13-0.324-0.067-0.194,0.194C476.754,58.638,476.951,59.092,477.469,59.026z M477.145,60.325
			c-0.067-0.324-0.521-0.324-0.778-0.454c0,0.13,0.13,0.13,0.064,0.324C476.754,60.001,476.754,60.389,477.145,60.325z
			 M476.43,52.532c-0.064,0.13,0.13,0.327,0.13,0.13C476.497,52.662,476.497,52.532,476.43,52.532z M476.951,57.923
			c-0.13-0.197-0.261-0.782-0.521-0.521C476.754,57.469,476.497,57.856,476.951,57.923z M476.56,49.091c0.064,0,0.064,0.194,0,0.194
			C476.56,49.221,476.497,49.157,476.56,49.091z M476.884,35.521c-0.13,0.064-0.324,0-0.324,0.194c0.324,0,0.715-0.391,0.324-0.585
			c0,0.067-0.064,0.067-0.13,0.067C476.69,35.454,476.951,35.324,476.884,35.521z M476.754,47.013c-0.064,0-0.13,0-0.194,0
			C476.56,46.949,476.754,46.949,476.754,47.013z M476.56,49.284 M476.69,46.883c-0.067,0-0.067-0.13-0.067-0.257
			C476.884,46.625,476.624,46.752,476.69,46.883z M476.754,45.586c-0.194-0.067,0-0.327,0.13-0.327
			C476.884,45.456,476.754,45.456,476.754,45.586z M476.821,35.715c0,0.194-0.197,0.194-0.13,0.454
			C476.884,36.236,477.015,35.651,476.821,35.715z M476.884,39.74c-0.064,0-0.064,0-0.13,0c0,0.067-0.064,0.067-0.064,0.13
			C476.821,39.87,476.884,39.87,476.884,39.74z M477.015,41.04c0-0.13,0-0.194-0.13-0.194c0,0.064,0,0.064,0,0.127
			C476.951,40.973,476.951,41.04,477.015,41.04z M477.015,44.093c0,0.064-0.064,0.064-0.13,0.064
			C476.884,44.093,476.951,44.093,477.015,44.093z M476.884,45.259 M476.884,46.104v-0.064
			C476.951,46.041,476.951,46.104,476.884,46.104z M476.884,58.053 M477.275,45.065c-0.067,0-0.067-0.13-0.067-0.194
			c-0.194-0.067-0.064,0.194-0.257,0.13c-0.067-0.261,0.194-0.197,0.388-0.197C477.339,44.935,477.275,45.002,477.275,45.065z
			 M477.015,39.937c0.13,0.127,0.194-0.197,0.064-0.197c0,0.067,0,0.067-0.064,0.067C477.015,39.87,477.015,39.87,477.015,39.937z
			 M477.339,38.183c-0.13,0.13-0.388,0.454-0.261,0.648c0.585-0.13,0.327-0.909,0.585-1.233c-0.064,0-0.127-0.13-0.194-0.13
			c-0.13,0.194-0.391,0.194-0.391,0.518C477.208,37.986,477.275,38.117,477.339,38.183z M477.275,32.792
			c-0.13,0-0.197,0.067-0.197,0.13C477.208,32.922,477.275,32.858,477.275,32.792z M477.078,43.442 M477.208,60.325
			c0,0.194,0.13,0.194,0.327,0.194C477.536,60.325,477.405,60.325,477.208,60.325z M477.275,40.716
			c-0.067,0.194,0.13,0.194,0.324,0.194C477.599,40.716,477.469,40.716,477.275,40.716z M477.275,42.079 M477.339,34.028
			 M477.405,32.598c0,0.064,0,0.13,0,0.194C477.599,32.922,477.599,32.534,477.405,32.598z M477.599,40.131
			c0,0.13-0.194,0.064-0.194,0.194C477.536,40.519,477.793,40.195,477.599,40.131z M477.536,41.885 M477.536,57.402 M477.793,40.846
			c0,0.127,0,0.257-0.064,0.324C477.923,41.3,478.054,40.779,477.793,40.846z M477.793,33.637 M478.12,34.221
			c-0.197,0-0.261,0.064-0.327,0.194C477.99,34.415,478.12,34.415,478.12,34.221z M478.184,33.182 M478.314,36.69
			c0-0.261,0.324-0.521,0.585-0.327c-0.261,0.13-0.13,0.197-0.454,0.261c0,0.067,0,0.13,0,0.194
			C478.378,36.817,478.314,36.817,478.314,36.69z M478.575,37.986c-0.067,0-0.067,0-0.13,0
			C478.444,37.923,478.575,37.923,478.575,37.986z M478.702,36.039c-0.324-0.064-0.257-0.778,0.197-0.648
			C478.768,35.651,478.832,35.781,478.702,36.039z M478.508,31.429 M478.638,35.067 M479.223,28.379
			c-0.067,0.194,0.13,0.257,0.064,0.454c-0.13,0.257-0.712,0.648-0.388,0.909c0.13-0.194,0.194-0.391,0.388-0.521
			c0.067,0.067,0.13,0.13,0.197,0.197c0.064-0.067,0.13-0.197,0.324-0.197c-0.067-0.518,0.194-0.715,0.518-0.842
			c0,0.324-0.194,0.454-0.324,0.778c0.715-0.194,0.521-1.233,0.715-1.687c-0.13,0-0.13-0.067-0.261-0.067
			c0,0.324-0.257,0.324-0.13,0.648c0-0.127-0.648-0.324-0.454-0.064C479.614,28.118,479.417,28.248,479.223,28.379z M479.483,30.259
			c0-0.064,0-0.064,0-0.13c0-0.127-0.261,0-0.391-0.064c0,0.194-0.194,0.13-0.194,0.324c0.388-0.194,0.064,0.13,0.388,0.13
			C479.286,30.39,479.286,30.259,479.483,30.259C479.547,30.456,479.807,30.196,479.483,30.259z M478.899,35.391 M479.286,29.935
			c0.13,0.13,0.197-0.194,0.067-0.194c0,0.064,0,0.064-0.067,0.064C479.286,29.872,479.286,29.872,479.286,29.935z M479.483,28.442
			c0,0.064,0,0.064,0,0.13c-0.067,0-0.067,0-0.13,0c0-0.067,0-0.067,0-0.13C479.417,28.442,479.417,28.442,479.483,28.442z
			 M479.353,31.819 M479.353,31.819 M479.417,32.337h-0.064C479.353,32.274,479.417,32.274,479.417,32.337z M479.938,30.39
			c-0.197,0.067-0.391,0.13-0.391,0.391c0.194,0,0.194,0.13,0.454,0.064c0-0.388,0.324-0.972,0.067-1.233
			c-0.261,0.13-0.13,0.585-0.327,0.585C479.614,30.456,479.938,30.259,479.938,30.39z M479.547,52.468 M479.677,26.104
			c0,0.067-0.064,0.13-0.064,0.261C479.871,26.364,479.807,26.17,479.677,26.104z M479.741,26.949c0.067,0,0.067,0,0.13,0
			c0-0.064,0-0.064,0.067-0.064c0-0.067,0-0.067,0-0.13c-0.067,0-0.067,0-0.13,0c0,0.064,0,0.064-0.067,0.064
			C479.741,26.885,479.741,26.885,479.741,26.949z M480.001,27.403c-0.194,0-0.13,0.13-0.261,0.194
			C479.871,27.727,480.001,27.597,480.001,27.403z M480.001,26.301c-0.064,0-0.064,0.194,0,0.194c0-0.067,0.067-0.067,0.13-0.067
			c-0.13-0.194,0.067-0.194,0.067-0.454c-0.197,0-0.327,0.067-0.327,0.261C479.938,26.234,480.001,26.234,480.001,26.301z
			 M479.871,27.988 M480.262,25.065c0,0.327-0.064,0.521-0.261,0.845C480.392,25.973,480.392,25.325,480.262,25.065z
			 M480.001,27.727 M480.001,53.183 M480.001,53.183 M480.068,28.051 M480.198,51.753 M480.262,44.674 M483.118,30.326
			 M490.003,5.261c-0.458,0.972-0.715,1.948-1.236,3.05c0,0.197,0,0.327,0,0.521c-0.909,2.208-1.624,4.804-2.402,7.142
			c-0.064,0.194,0.067,0.261,0.067,0.391c-0.521,0.972-0.651,2.402-1.042,3.311c1.754-1.687,3.12-3.701,4.483-5.779
			c0.715-1.948,1.751-3.895,2.208-5.973c0.064-0.261,0.064-0.261,0-0.521c0.127-0.257,0.257-0.648,0.194-0.972
			c0.518-0.324-0.067-1.363,0.454-1.754c0-0.975-0.324-2.014-1.106-2.402c-0.518,0.972-1.166,1.687-1.296,2.856
			C490.13,5.131,490.13,5.261,490.003,5.261z"/>
		<path fill="#41BBEC" d="M497.533,30.39c0,0.194-0.127,0.194,0,0.324c0.067,0,0.067-0.13,0.067-0.257
			c0.194-0.067,0.064,0.194,0.194,0.257c0.521-0.194,0.521,0.391,0.845,0.454c-0.194,0.458-0.324,0.585-0.13,0.975
			c-0.261,0.518-0.648,1.102-0.715,1.948c-0.064,0-0.13-0.13-0.194-0.13c-0.13,0,0.064,0.197,0.13,0.197
			c-0.454,0.778-0.585,1.751-1.039,2.596c0.13,0.845-0.585,1.56-0.454,2.402c-0.067,0.067-0.067,0.261-0.261,0.261
			c-0.261,1.299-0.521,2.208-1.103,3.18c-0.197-0.127,0.127-0.324,0.064-0.581c-0.585,0.257-0.648,1.036-0.585,1.62
			c0.324-0.194,0.067-0.648,0.521-0.778c0.127,0.845-0.391,1.948-0.782,2.469c-0.13-0.324,0.197-0.261,0.13-0.585
			c-0.454,0.064-0.194,0.845-0.648,0.909c0.585,0.715-0.585,1.948,0.064,2.662c-0.064,0.13-0.194,0.13-0.261,0.194
			c-0.064,0.261,0.13,0.324,0.13,0.521c-0.388-0.067,0,0.648-0.388,0.585c-0.13,1.102-0.261,1.493-0.197,2.662
			c0,0.13,0.067,0.194,0.197,0.194c-0.197,0.518,0.064,1.102,0.257,1.624c0.13,0,0-0.261,0.067-0.391
			c0.13,0.13,0.13,0.391,0.194,0.651c0.782,0,0.909-0.715,1.493-0.912c0.845-0.909,1.754-1.751,2.402-2.856
			c0.261-0.194,0.521-0.454,0.651-0.842c0.261-0.13,0.324-0.521,0.648-0.651c0-0.13,0.13-0.194,0.067-0.388
			c2.011-2.99,3.895-6.107,5.519-9.547c0.972-1.102,1.427-2.726,2.469-3.765c0.064-0.521,0.581-0.651,0.581-1.233
			c0.975-1.106,1.884-2.275,2.729-3.508c0.388-0.067,0.454-0.391,0.648-0.585c0.391,0,0.521-0.261,0.909-0.261
			c0.651,0.067,0.715,0.715,1.43,0.715c0,0.261,0.064,0.454,0.391,0.391c-0.067,0.194-0.067,0.454,0.194,0.454
			c-0.067,0.454-0.067,0.842-0.067,1.427c-0.064,1.039-0.388,2.014-0.518,2.859c-0.064,0.388-0.391,0.712-0.454,1.102
			c-0.324,1.363-0.454,2.662-0.975,4.156c-0.064,0.064-0.257,0.064-0.454,0.064c-0.13,1.169-0.585,2.662-0.064,3.701
			c-0.067,1.169,0.064,2.145,0.454,2.793c0.324,0.261,0.778,0.521,1.299,0.454c0.909-0.064,1.624-1.039,2.335-1.817
			c0.261-0.261,0.651-0.518,0.845-0.715c0.585-0.715,0.909-1.754,1.43-2.662c0.324-0.585,0.712-1.102,1.102-1.754
			c0.454-1.751,1.299-3.18,2.145-4.61c0,0.327,0,0.651,0,0.975c-0.26,0.909-0.651,1.687-0.845,2.662
			c-1.039,2.272-1.948,4.61-2.923,6.948c-0.324,0.324-0.585,0.778-0.648,1.363c-0.651,0.648-1.169,1.493-1.884,2.078
			c-0.26-0.064-0.454,0.194-0.518-0.064c-1.754,0.909-3.508-0.521-4.547-1.496c-0.194-0.648-0.585-1.166-0.715-1.881
			c0.197-0.778-0.13-1.493-0.388-2.078c0-1.236-0.13-2.208,0.064-3.638c0.064-0.194,0.261-0.194,0.324-0.388
			c-0.13-1.039,0.521-2.208,0.13-3.053c-0.261,0.13-0.261,0.521-0.324,0.648c-0.067,0.067-0.194,0.067-0.324,0.067
			c-1.754,2.793-3.441,5.585-4.807,8.829c0.391,0,0.324-0.454,0.391-0.778c0.648,0.391-0.585,1.169-0.324,1.624
			c-0.197,0.13-0.261,0.391-0.454,0.454c-0.324,1.299-0.909,2.272-1.82,2.987c-0.257,1.039-1.103,1.493-1.427,2.532
			c-1.493,0.909-2.469,3.117-4.677,2.923c-2.662,0.778-5.258-1.169-5.582-3.832c0-0.13,0-0.194,0.13-0.194
			c-0.197-0.454-0.197-0.845-0.13-1.43c-0.391-1.102,0-1.624-0.197-2.402c0.261-1.169,0.067-2.469,0.261-3.635
			c0.324-2.145,1.106-4.483,1.624-6.755c0.194-0.778,0.324-1.493,0.585-2.141c0.261-0.845,0.324-1.821,0.585-2.532
			c0.194-0.454,0.391-1.299,0.715-1.884c-0.067-0.391,0.13-0.585,0.324-0.778c0-0.715,0.194-0.975,0.454-1.493
			c-0.064-0.261,0-0.327-0.064-0.585c0.127-0.067,0.257-0.13,0.257-0.327C495.131,29.611,496.17,30.129,497.533,30.39z
			 M493.183,50.39 M494.028,46.104 M494.159,43.766c0,0.13-0.13,0.197-0.067,0.391C494.352,44.22,494.222,43.896,494.159,43.766z
			 M495.067,41.885c0-0.067,0-0.067,0-0.13c-0.067,0-0.067,0-0.13,0c0,0.064,0,0.064,0,0.13
			C495.001,41.885,495.001,41.885,495.067,41.885z"/>
		<path fill="#41BBEC" d="M529.79,51.133c-1.09,0.308-2.323,0.409-3.818,0.103c-0.778-0.391-1.363-0.975-2.011-1.493
			c-0.521-0.845-1.169-1.69-1.236-2.793c1.69-0.845,2.793-2.338,4.416-3.314c0.391-0.648,1.039-1.039,1.363-1.687
			c0.454-0.064,0.391-0.518,0.909-0.518c0.13-0.521,0.651-0.651,0.845-1.106c0.521-0.261,0.975-0.585,1.233-1.102
			c2.532-2.078,4.807-4.353,6.624-7.209c0.194-0.454-0.13-0.648,0-0.972c-0.324-0.067-0.261-0.391-0.324-0.715
			c-0.391-0.715-1.236-1.039-2.014-1.56c-0.388-0.194-0.585-0.585-0.842-0.715c-0.13-0.064-0.13,0.13-0.327,0.067
			c-0.194-0.067-0.194-0.261-0.324-0.261c-2.923-0.518-5.582,0.454-7.403,1.56c-3.311,2.532-5.843,5.843-7.987,9.544
			c-0.127,0.585-0.324,0.975-0.581,1.363c-0.391,1.884-0.782,3.701-0.651,6.04c0.26,1.299,0.715,2.465,1.106,3.504
			c0.648,0.845,1.363,1.624,2.011,2.469c1.169,0.778,2.272,1.363,3.638,1.754c0.064-0.067,0.194,0.064,0.257-0.13
			c0.13,0.13,0.391,0.194,0.585,0.324c0.067-0.261,0.391-0.13,0.454-0.13c0.715,0.067,1.299-0.064,1.884,0.13
			c0.454-0.261,1.233-0.261,1.624-0.715c0.13,0,0.13,0.197,0.26,0.197c0.689-0.225,1.353-0.511,2.006-0.818
			C530.674,52.644,530.083,51.979,529.79,51.133z M527.465,34.285c2.272-1.624,5.001-4.089,8.378-3.635
			c0.257,0.261,0.324,0.648,0.388,1.102c-0.064,0.261-0.324,0.391-0.26,0.782c-2.011,2.79-4.61,5.325-7.597,6.882
			c-0.388,0.391-1.039,0.585-1.363,1.039c-1.557,0.715-2.987,1.624-4.35,2.469C522.922,39.092,525.517,36.947,527.465,34.285z"/>
		<path fill="#41BBEC" d="M530.779,38.053"/>
		<path fill="#41BBEC" d="M580.381,5.779c-0.261,0.197-0.388,1.106,0,1.56c-0.324,0.845-0.064,1.233-0.518,2.208
			c0.064,0.715-0.651,1.427-0.521,2.141c-0.064,0.13-0.13,0.261-0.324,0.261c-0.064,0.909-1.039,1.557-0.845,2.338
			c-0.388,0.257-0.585,0.715-0.585,1.102c-0.778,0.585-0.972,1.754-1.427,2.599c-0.324,0.127-0.197,0.388-0.324,0.712
			c-0.782,0.391-0.585,1.106-1.106,1.624c-0.064,0.197,0.194,0.067,0.13,0.261c-0.324-0.064-0.194,0.13-0.26,0.261
			c-0.064,0.064-0.257,0.064-0.257,0.064c-0.197,0.261-0.26,0.585-0.391,0.909c-0.585,0.067-0.454,0.845-0.975,1.039
			c-0.064,0.197,0.197,0.13,0.13,0.327c-0.648,0.064-0.454,0.909-0.909,1.166c0,0.13-0.064,0.261,0.067,0.261
			c-0.521,0.909-0.457,2.145-0.975,2.859c0.064,0.518,0,0.972-0.261,1.233c0.067,0.261,0,0.388,0,0.715
			c-0.585,1.039-0.388,2.92-1.169,3.829c0.067,1.106-0.454,1.951-0.454,3.184c-0.13,0.064-0.13,0.261-0.261,0.324
			c0.261,0.454-0.454,1.169-0.127,1.493c-0.327,0.391-0.197,1.233-0.521,1.56c-0.064,0.194,0.194,0.13,0.13,0.324
			c-0.064,0.064-0.13,0.261-0.194,0.324c-0.067,0.194,0.064,0.261,0.064,0.391c-0.454,1.233-0.518,3.18-0.585,3.829
			c-0.064,0.197-0.13,0.067-0.324,0.067c0.324,0.715,0.13,1.493-0.13,2.141c-0.064,0.261,0.194,0.197,0.194,0.391
			c-0.324,0.845,0,1.557-0.388,2.469c0,0.064,0.13,0.064,0.194,0.064c-0.454,1.039,0.194,2.078-0.324,2.856
			c0.324,0.391,0.324,1.169,0.26,1.493c-0.067,0.261,0.388,0.651,0.13,1.169c0.324,0.909,0.388,1.884,1.166,2.599
			c0.327-0.13,0.585-0.261,0.845-0.391c2.793-2.272,5.064-5.195,6.885-8.442c0.127-0.064,0.194-0.13,0.324-0.194
			c2.208-4.286,4.61-8.378,6.882-12.598c-0.064,0.324-0.261,0.585-0.194,1.039c-1.299,2.923-2.338,5.779-3.314,8.896
			c-0.127,0.064-0.194,0.194-0.257,0.261c0.064,0.585-0.197,1.427-0.651,1.687c-0.648,2.532-2.208,4.156-3.311,6.234
			c-0.715,0.778-1.43,1.56-1.948,2.469c-1.169,1.102-2.014,2.465-3.701,3.05c-0.845,0.454-1.817,0.782-2.726,0.909
			c-2.145,0.261-3.832-1.233-4.74-2.596c0-0.261-0.067-0.261,0.064-0.391c-0.064,0-0.194,0-0.261,0
			c-0.454-0.909-0.518-1.948-0.585-2.793c-0.127-1.233-0.518-2.465-0.454-3.504c0.067-0.585,0-1.299,0.067-1.884
			c0.064-0.454,0.13-0.972,0.324-1.493c-0.324-0.194,0.26-0.778-0.064-0.909c0.064-0.194,0.194-0.324,0.257-0.521
			c-0.064-0.778,0.13-0.972,0.067-1.493c0.194-0.648,0.324-1.363,0.324-2.208c0.194-1.102,0.324-1.881,0.324-2.79
			c0.454-1.493,0.648-3.962,1.299-5.392c0.261-2.011,0.909-4.025,1.363-5.779c-0.064-0.388-0.064-0.324-0.064-0.648
			c0.454-0.13,0.194-0.909,0.518-1.169c-0.064-0.13-0.064-0.261-0.13-0.324c0.13-0.13,0.13-0.454,0.324-0.521
			c0.26-1.296,0.651-2.92,0.845-4.089c0.194-0.521,0.391-1.233,0.585-1.884c0.194-0.064,0-0.261,0.324-0.261
			c-0.194-0.257,0.13-0.909,0.391-1.102c-0.13-1.169,0.648-1.687,0.648-2.726c0.067-0.13,0.194-0.261,0.324-0.327
			c-0.13-0.324,0.067-0.648,0.26-0.842c0.067-1.169,0.715-2.208,0.909-3.247c0.391-0.194,0.26-1.039,0.715-1.233
			c1.106-2.859,3.117-5.068,5.91-6.431c0.648-0.064,1.948-0.194,2.078,0.197c0.778-0.13,0.972,0.842,0.909,1.296
			C580.187,5.779,580.251,5.779,580.381,5.779z M567.266,54.806 M567.396,55.064 M575.577,9.935
			c-0.521,1.299-0.521,2.532-0.975,3.898c0.26,0.842-0.778,2.141-0.518,3.05c-0.324,0-0.197,0.454-0.454,0.521
			c0.13,0.778-0.585,1.687-0.521,2.532c0.13-0.778,1.039-1.493,0.845-2.145c0.715-0.454,0.715-1.296,1.299-1.948
			c0.064-0.194-0.067-0.194-0.067-0.324c0.715-0.324,0.454-1.363,1.169-1.754c0.067-0.194-0.064-0.261-0.064-0.388
			c1.039-0.975,0.972-2.599,1.427-3.898c-0.13-0.13-0.13-0.324-0.13-0.585c0.585-0.648,0.261-1.687,0.197-2.465
			c-0.197-0.067-0.391-0.067-0.585-0.13c-0.845,0.909-1.039,2.338-1.754,3.504C575.51,9.805,575.577,9.805,575.577,9.935z
			 M580.187,7.209"/>
		<path fill="#41BBEC" d="M595.638,39.807c0.194-0.067,0.13-0.391,0.26-0.521c-0.778,3.962-2.856,7.142-4.35,10.65
			c-0.261,0.13-0.327,0.454-0.521,0.585c-0.778,2.011-2.272,4.156-4.219,5.389c-0.585,0.391-1.43,0.845-2.338,0.845
			c-2.078,0.064-3.962-0.909-4.934-2.272c-0.975-2.014-0.975-4.74-0.782-6.885c0-0.13,0-0.261,0.197-0.261
			c-0.13-0.585,0.064-1.102,0.13-1.624c0.064-0.324,0.194-0.712,0.257-1.039c0-0.064-0.13-0.194-0.13-0.257
			c0-0.261,0.197-0.521,0.26-0.782c0.194-1.102,0.261-2.205,0.715-3.18c0.454-2.793,1.299-4.804,1.948-7.403
			c1.233-0.261,2.402,0.13,3.441,0.521c0.26,0.388,0.715,0.712,0.782,1.166c-0.13,1.169-0.327,2.405-0.912,3.768
			c-0.257,1.624-1.233,2.662-1.687,4.219c-0.13,0.13-0.194,0.324-0.391,0.391c-0.064,0.194,0.327,0.13,0.067,0.261
			c-0.194,0.388-0.585,0.778-0.454,1.296c-1.106,0.975-0.909,2.793-1.236,4.156c-0.064,1.496-0.454,2.145-0.127,3.701
			c0.064,0.197-0.13,0.197-0.13,0.327c0.454,0.648,0.518,1.296,1.102,1.817c0.391,0.13,0.715,0.324,1.039,0.518
			c0.975,0.197,1.69-0.454,2.402-0.842c3.053-2.405,5.068-5.846,6.624-9.741c0.194,0,0.064-0.261,0.261-0.194
			c0.454-1.299,1.039-2.532,1.817-3.571c0.194-0.585,0.391-1.169,0.845-1.43C595.705,39.416,595.574,39.677,595.638,39.807z
			 M586.094,24.677c0.388,0.324,0.715,0.778,1.039,1.169c0.064,0.518-0.13,0.972,0,1.427c-0.585,0.521-0.845,1.363-1.754,1.56
			c-2.014-0.261-2.856-2.987-1.43-4.353c0.26,0,0.327-0.194,0.521-0.257C585.055,24.093,585.379,24.741,586.094,24.677z
			 M595.508,40.195 M595.574,40.064"/>
		<path fill="#41BBEC" d="M600.575,30.844c-0.067,0-0.067,0.067,0,0.067c0.127,0.454-0.327,0.585-0.197,1.102
			c-0.194,0.067-0.261,0.261-0.518,0.194c0,0.197,0.064,0.327,0.257,0.391c-0.257,0.194-0.127,0.324-0.194,0.715
			c-0.194-0.067-0.194,0.064-0.324,0.064c0,0.197,0,0.261,0.194,0.261c-0.13,0.194-0.261,0.521-0.13,0.778
			c-0.064,0-0.13,0-0.194-0.064c0.13,0.778-0.715,1.754-0.518,2.465c-0.13,0-0.067-0.194-0.26-0.127
			c0.13,0.194,0.26,0.324,0.26,0.585c-0.13,0-0.067,0.194-0.26,0.127c0.064,0.261,0,0.391,0.064,0.715c-0.13,0-0.194,0-0.324,0
			c0,0.13,0,0.261,0,0.391c0.194,0,0.261-0.13,0.194-0.324c0.067,0.064,0.13,0.13,0.261,0.13c-0.194,0.454-0.518,0.388-0.648,0.909
			c0,0.064,0.064,0.064,0.064-0.067c0.067,0,0.067,0.067,0.13,0.067c0,0.064,0,0.194,0.067,0.194c0,0.13-0.13,0.064-0.26,0.064
			c-0.13,0.13-0.13,0.327-0.13,0.521c0.518-0.585,1.102-1.106,1.427-1.884c0.067,0,0.067,0.067,0.13,0.067
			c0.521-1.236,1.69-2.145,2.145-3.247c0.064,0,0.13,0,0.194,0c0.194-0.324,0.454-0.585,0.778-0.845
			c0.454-1.102,1.624-1.493,2.208-2.402c1.106-0.648,2.145-1.687,3.377-1.948c0.194,0.064,0.13-0.13,0.26-0.13
			c1.363-0.585,2.793-0.064,4.089,0.518c0.454,0.651,1.363,0.845,1.43,1.821c0.194,0.064,0.26,0.194,0.391,0.324
			c0.127,1.624-0.067,3.635-0.327,4.934c-0.064,0-0.13,0-0.194,0c0.13,1.169-0.13,2.338-0.391,3.441
			c0.197,0.324-0.194,0.909-0.127,1.493c0,0.067,0,0.13-0.13,0.13c-0.197,1.69-0.197,3.571-0.391,5.195
			c0.26,1.236,0.13,2.859,1.039,3.441c0.391,0.067,0.391,0,0.715,0.067c1.493-0.454,2.078-1.754,3.18-2.599
			c0-0.388,0.324-0.454,0.391-0.778c0.975-0.648,1.493-1.754,2.078-2.793c1.039-0.842,1.363-2.335,2.272-3.311
			c0.13-0.715,0.715-1.102,0.845-1.884c0.194,0.261-0.13,0.782,0,1.106c-1.169,2.596-2.272,5.195-3.638,7.533
			c0.13,0.388-0.194,0.388-0.127,0.778c-0.13,0-0.13-0.067-0.26-0.067c-0.261,1.69-1.56,2.275-2.402,3.571c-0.13,0-0.197,0-0.327,0
			c-0.064,0.13-0.064,0.327-0.127,0.454c-0.715,0.391-1.69,0.912-2.663,0.585c-0.067,0-0.13,0-0.13,0.13
			c-1.884-0.261-3.441-1.687-3.571-3.701c-0.327-0.648-0.26-0.842-0.197-1.751c-0.064-0.197-0.194,0.127-0.257-0.067
			c0.064-0.064,0.064-0.194,0.257-0.194c-0.13-0.197-0.064-0.651-0.257-0.782c0.064-1.687-0.197-3.114,0.388-4.674
			c-0.26-1.56,1.106-4.156,0.782-6.04c0.064-0.585,0.581-2.402-0.197-3.117c0.067-0.324-0.26-0.715-0.518-0.909
			c-1.039,0.067-1.948,0.715-2.662,1.169c-0.521,0.324-0.975,0.521-1.236,1.039c-0.518,0.064-0.585,0.648-0.909,0.909
			c-0.064,0-0.064-0.064-0.064-0.13c0.064-0.064,0-0.064,0,0c-0.067,0-0.194,0-0.26,0c-0.064-0.194,0.067-0.257,0.13-0.388
			c-0.518,0.13-1.102,0.518-0.909,0.972c-0.194,0-0.391-0.064-0.391,0.13c0,0.261,0.197,0.194,0.324,0.13
			c-0.064,0.194-0.388,0.261-0.518,0.194c-0.067,0.261,0,0.197-0.067,0.391c-0.518-0.261-0.712,0.585-0.388,0.648
			c-0.26,0.197-0.26,0.651-0.648,0.715c0.064,0.261,0.127,0.454-0.067,0.585c-0.585,0.13-0.648,1.363-1.233,1.493
			c-0.585,1.039-0.975,1.948-1.624,2.923c0,0.194,0.064,0.324,0.13,0.518c-0.197,0.197-0.067,0.715-0.327,0.845
			c0.067,0.391-0.194,0.845-0.518,1.039c-0.324,1.299-0.585,2.599-1.102,3.635c0,0.845-0.521,1.43-0.585,2.145
			c-0.067,0-0.067,0.064,0,0.064c-0.13,0.521-0.261,1.039-0.327,1.624c-0.064,0-0.127,0-0.194-0.064
			c0.13,0.388-0.194,0.518,0.13,0.778c-0.391,0.324-0.064,0.975-0.454,1.299c0,0.13,0.064,0.13,0.13,0.194
			c-0.067,1.039-0.521,1.884-0.261,3.117c-0.324,0.585,0.454,1.363-0.518,1.69c-0.067-0.067-0.197-0.067-0.26-0.197
			c-0.197,0.067-0.067,0.261-0.13,0.585c-0.454,0.13-0.778,0-0.975,0c-0.064,0.197,0.13,0.197,0,0.324
			c-0.909-0.064-1.493,0.261-2.402,0.13c0-0.064,0.067-0.13,0-0.194c-0.13,0-0.064,0.194-0.194,0.13v-0.067h0.064
			c0-0.064-0.064-0.064-0.064,0c-0.067,0-0.067,0.13-0.13,0.197c-0.194,0.064-0.26-0.391-0.391-0.067
			c-0.064,0-0.064-0.064-0.064-0.13c0.064,0,0.064-0.064,0.064-0.127c-0.064-0.13-0.388-0.067-0.454,0
			c0,0.064,0.067,0.127,0.197,0.127c0,0.261-0.327-0.064-0.454,0.13c0.064-0.194,0-0.518-0.327-0.454
			c0.067-0.13,0.067-0.585-0.127-0.648c0.064-0.715,0.518-2.014,0.454-2.729c-0.067-0.194,0.127-0.127,0.194-0.194
			c-0.521-0.648,0.585-1.363,0-1.948c0.324-0.715,0-1.363,0.454-1.884c-0.26-0.257,0.064-0.518,0-0.972
			c0.13,0.064,0.261-0.067,0.391,0.13c0.064,0.194,0,0.324-0.13,0.388c0.388,0,0.324-0.518,0.194-0.778
			c0.391,0.064,0.261-0.648,0.13-0.778c0.324-0.521,0.26-1.299,0.518-2.014c-0.194-0.13-0.194-0.194-0.194-0.388
			c0.067,0,0.067,0,0.067-0.067c-0.067,0-0.067,0-0.067,0.067c-0.064,0-0.13,0-0.194,0c0.194,0.127,0.13,0.581-0.13,0.712
			c0-0.064-0.067-0.064-0.067,0c-0.127-0.194,0.13-0.257-0.064-0.454c0.064,0,0.13,0.067,0.194,0c-0.064-0.324,0.13-0.842,0-1.039
			c0.067-0.324,0.391-0.324,0.327-0.715c-0.067-0.194-0.13,0.197-0.26,0c0.13-0.388,0.518-0.712,0.454-0.972
			c-0.067-0.064-0.067,0,0,0c0,0.13-0.13,0.064-0.194,0c0.194-0.194,0.581-0.194,0.648-0.585c-0.194-0.194-0.261,0.324-0.521,0.261
			c0.261-0.324,0-0.782,0.454-0.845c0-0.13,0-0.261-0.127-0.261c0.064-0.13,0.127-0.194,0.324-0.194
			c-0.261-0.064,0.064-0.324-0.261-0.391c0.585-0.454,0.261-0.909,0.715-1.557c-0.197-0.194-0.13,0.194-0.324,0.13
			c0.127-0.521,0.194-0.845,0.257-1.299c0-0.13-0.194,0-0.13,0.13c-0.194-0.194,0.067-0.454,0-0.778
			c0.197-0.067,0.261-0.261,0.458-0.327c0.064,0.13,0.064,0,0,0c-0.197-0.127,0.194-0.712-0.13-0.581c0-0.067,0-0.067-0.067-0.067
			c0.067-0.324,0.324-0.454,0.324-0.909c0.261-0.324,0.197-0.585,0.391-0.975c0,0.067,0.067,0.13,0.194,0.13
			c0.197-0.064,0.13-0.324,0.13-0.585c-0.194,0-0.194,0.327-0.257,0.454h-0.067c0-0.064-0.13-0.127-0.13-0.194
			c0.067-0.064,0-0.064,0,0c-0.13,0-0.064,0.194-0.13,0.194c-0.064-0.064-0.064-0.194-0.064-0.388c0.064,0,0.13,0,0.194,0
			c-0.064-0.391-0.13-0.845,0.324-0.975c-0.064-0.13,0.13-0.454-0.127-0.388c0.194-0.454,0-0.715,0.194-0.975
			c0.13,0,0.064-0.194,0.194-0.194c0-0.067-0.13-0.067-0.194-0.067c0.194-0.194,0.454-0.388,0.388-0.842
			c-0.127,0-0.127,0.064-0.127,0.194c-0.13-0.454,0.324-0.975,0.454-1.43c0.064-0.261-0.13-0.261-0.13-0.454
			c0.388-1.493,0.842-3.377,1.102-4.871c0-0.194-0.194-0.194-0.324-0.324c0.064-0.194,0.194-0.388,0.064-0.648
			c0.391-0.197,0.651-0.521,1.039-0.715c0.391,0.261,0.782,0.13,1.106-0.13c0.391,0.13,0.778,0.391,0.972,0
			c0.197,0,0.327,0.067,0.391,0.194c0.845,0,1.948,0.454,2.141,1.106c-0.324,1.557-0.648,2.596-1.036,3.832V30.844z M590.313,60.716
			 M591.094,54.546 M591.288,60.843c-0.067,0-0.13,0-0.194,0C591.094,60.779,591.288,60.779,591.288,60.843z M591.094,61.04
			 M591.222,52.922c0.067,0,0.13,0,0.13-0.064C591.288,52.859,591.222,52.859,591.222,52.922z M591.288,61.104 M591.743,51.559
			c-0.194,0.064-0.324,0.194-0.324,0.388c-0.261-0.324,0.26-0.324,0.13-0.712C591.743,51.235,591.743,51.362,591.743,51.559z
			 M591.549,52.532 M591.612,60.649c0.13,0.13,0.194-0.194,0.067-0.194c0,0.064,0,0.064-0.067,0.064
			C591.612,60.586,591.612,60.586,591.612,60.649z M591.873,49.415c0,0.13,0.064,0.327-0.13,0.261c0-0.13,0.064-0.13,0.064-0.261
			H591.873z M591.806,48.376 M592.264,47.988c-0.067,0.194-0.13,0.324-0.197,0.518c0.13,0,0.26,0,0.324,0.067
			c0.067-0.261,0.197-0.454,0.197-0.782C592.391,47.791,592.391,47.988,592.264,47.988
			C592.197,47.921,592.197,47.988,592.264,47.988z M592.391,47.791c0.13-0.127,0.067-0.454,0.327-0.454
			c-0.13-0.454,0.064-0.388,0.127-0.778c-0.127,0-0.127,0.13-0.324,0.067C592.391,47.079,592.197,47.337,592.391,47.791z
			 M592.458,47.207c0.13,0,0.194-0.064,0.194-0.127C592.521,47.079,592.458,47.143,592.458,47.207z M592.588,44.741 M592.718,44.35
			 M592.718,47.921 M592.845,44.026 M592.975,44.805 M593.042,42.272 M593.042,44.35 M593.172,41.885 M593.172,41.948
			 M593.43,40.064c0-0.064,0.067-0.127,0.197-0.127C593.627,40.064,593.56,40.064,593.43,40.064z M593.69,41.103
			c-0.26,0-0.194,0.261-0.064,0.327C593.56,41.233,593.69,41.233,593.69,41.103z M593.56,41.624 M593.69,39.025
			c0-0.064,0-0.194,0-0.257c0.194-0.067,0.13,0.127,0.194,0.194C593.82,38.962,593.82,39.025,593.69,39.025z M594.081,39.937
			c-0.067,0-0.13,0-0.197-0.067c0,0.067-0.064,0.13-0.064,0.261C594.014,40.131,594.081,40.131,594.081,39.937z M593.82,40.261
			 M593.884,38.638c-0.127-0.13,0-0.454,0.067-0.651h0.064C594.081,38.314,593.884,38.377,593.884,38.638z M594.469,38.571
			c-0.064,0-0.064-0.13-0.127-0.13c0,0.067-0.067,0.067-0.13,0.067C594.145,38.701,594.469,38.768,594.469,38.571z M594.211,37.599
			 M594.275,37.208c0.194-0.064,0.13,0.13,0.13,0.261c0.194,0,0.261,0,0.261-0.194c-0.261,0,0-0.067-0.13-0.197
			c-0.13,0-0.194,0.067-0.261,0.067c-0.064-0.067-0.064,0,0,0V37.208z M594.342,36.236 M594.342,38.247 M594.535,35.26
			 M594.599,35.454 M594.99,35.324c-0.067,0.13-0.194,0.197-0.13,0.391C595.053,35.781,595.12,35.391,594.99,35.324z
			 M595.444,59.547c-0.067,0-0.067,0-0.13,0c0,0.064-0.064,0.064-0.064,0.127C595.377,59.674,595.444,59.674,595.444,59.547z
			 M595.705,59.741C595.638,59.674,595.638,59.741,595.705,59.741C595.638,60.065,595.898,59.804,595.705,59.741z M597.328,51.429
			c0.064,0,0.064,0.064,0,0.064V51.429z M598.17,38.183 M598.3,38.053 M598.431,39.222 M598.624,37.986c0-0.127,0-0.324-0.127-0.324
			C598.367,37.793,598.497,37.923,598.624,37.986C598.691,38.117,598.691,37.986,598.624,37.986z M599.794,33.637 M601.03,26.625
			 M602.586,38.895v-0.064C602.523,38.832,602.523,38.895,602.586,38.895z M602.586,38.895 M602.847,35.845 M603.301,37.338
			 M603.495,37.793 M604.273,36.817 M604.731,36.493c-0.197-0.13,0.127-0.257,0.127-0.454
			C605.055,36.169,604.794,36.363,604.731,36.493z M604.925,35.909c0-0.064,0.13-0.064,0.13-0.127
			C605.249,35.845,604.988,36.039,604.925,35.909z M606.548,33.704 M606.612,34.676 M607.457,33.443 M607.651,33.443
			C607.911,33.507,607.651,33.246,607.651,33.443C607.521,33.507,607.651,33.507,607.651,33.443z M612.976,46.171"/>
		<path fill="#41BBEC" d="M642.193,42.596c0.197-0.127,0.197-0.454,0.454-0.454c0.26,0.13-0.518,0.454-0.257,0.782
			c-0.454,0.194-0.651,0.712-0.782,1.233c-1.363,1.299-2.402,2.923-3.828,4.156c-1.951,2.469-4.807,4.416-7.987,5.455
			c-0.13,0-0.13-0.197-0.261-0.197c-0.391,0.454-1.169,0.454-1.624,0.715c-0.585-0.194-1.169-0.064-1.884-0.13
			c-0.064,0-0.388-0.13-0.454,0.13c-0.194-0.13-0.454-0.194-0.585-0.324c-0.064,0.194-0.194,0.064-0.257,0.13
			c-1.366-0.391-2.469-0.975-3.638-1.754c-0.648-0.845-1.363-1.624-2.011-2.469c-0.391-1.039-0.845-2.205-1.106-3.504
			c-0.13-2.338,0.261-4.156,0.648-6.04c0.261-0.388,0.458-0.778,0.585-1.363c2.145-3.701,4.677-7.012,7.987-9.544
			c1.817-1.106,4.48-2.078,7.403-1.56c0.13,0,0.13,0.194,0.324,0.261c0.197,0.064,0.197-0.13,0.324-0.067
			c0.26,0.13,0.458,0.521,0.845,0.715c0.778,0.521,1.624,0.845,2.014,1.56c0.064,0.324,0,0.648,0.324,0.715
			c-0.13,0.324,0.194,0.518,0,0.972c-1.817,2.856-4.092,5.131-6.624,7.209c-0.257,0.518-0.715,0.842-1.233,1.102
			c-0.194,0.454-0.715,0.585-0.845,1.106c-0.518,0-0.454,0.454-0.909,0.518c-0.324,0.648-0.972,1.039-1.363,1.687
			c-1.624,0.975-2.726,2.469-4.416,3.314c0.067,1.102,0.715,1.948,1.236,2.793c0.648,0.518,1.233,1.102,2.011,1.493
			c5.064,1.039,7.339-2.275,10.002-4.353c0.064-0.194,0.127-0.257,0.194-0.454c0.064-0.064,0.194-0.064,0.324-0.064
			c1.299-1.363,2.272-3.053,3.638-4.416c0.388-1.363,1.557-1.624,1.881-3.117c0.391-0.324,0.715-0.715,0.909-1.299
			c0.067,0,0.13-0.064,0.26-0.064c0.585-0.975,1.233-1.884,1.754-2.987c0.064,0,0.13,0.064,0.194,0.064
			c-0.064-0.518,0.651-1.169,1.106-1.624c0.194,0.975-0.521,1.948-0.975,2.662c-0.064,0.261-0.064,0.521-0.26,0.521
			c-0.064,0.648-0.388,0.972-0.648,1.363c-0.13,1.169-0.975,2.011-1.233,3.247c-0.585,0.388-0.782,1.299-1.236,1.817V42.596
			C642.063,42.663,642.193,42.663,642.193,42.596z M622.974,42.924c1.363-0.845,2.793-1.754,4.35-2.469
			c0.324-0.454,0.975-0.648,1.363-1.039c2.987-1.557,5.586-4.092,7.6-6.882c-0.067-0.391,0.194-0.521,0.257-0.782
			c-0.064-0.454-0.13-0.842-0.388-1.102c-3.377-0.454-6.103,2.011-8.378,3.635C625.831,36.947,623.235,39.092,622.974,42.924z
			 M631.089,38.053 M640.312,45.195 M641.091,43.896 M641.154,44.093c0.067,0,0.13,0,0.13-0.067
			C641.221,44.026,641.154,44.026,641.154,44.093z M641.739,43.248c0.197,0,0.454-0.324,0.261-0.521
			C641.936,42.924,641.805,43.051,641.739,43.248C641.478,43.248,641.739,43.508,641.739,43.248z M642.26,41.885 M643.299,40.585
			c-0.13,0-0.26,0-0.197,0.13C643.232,40.716,643.299,40.649,643.299,40.585z M643.299,41.103"/>
	</g>
	<g>
		<g>
			<path fill="#41BBEC" d="M641.202,42.396c7.221-11.598,18.868-17.967,32.56-17.256c14.665,0.762,28.649,10.22,41.201,17.015
				c12.423,6.725,24.396,11.754,38.61,12.963c8.207,0.698,18.105,1.154,26.099-1.149c36.365-10.48,73.974-19.841,111.743-23.11
				c2.857-0.247,5.72-0.418,8.584-0.545c0.436-0.019,0.438-0.698,0-0.678c-39.385,1.747-78.823,11.985-116.643,22.582
				c-21.173,5.933-43.977,1.95-63.196-8.058c-20.016-10.423-43.72-27.881-66.616-15.169c-5.453,3.028-9.671,7.831-12.929,13.063
				C640.384,42.427,640.971,42.767,641.202,42.396L641.202,42.396z"/>
		</g>
	</g>
	<g>
		<g>
			<path fill="#41BBEC" d="M0.296,24.853C17.399,6.613,43.749,2.205,67.651,4.791c14.574,1.577,28.841,6.357,42.678,10.985
				c14.12,4.723,28.046,10.002,42.191,14.65c15.691,5.156,31.291,12.164,47.909,13.567c22.172,1.872,42.476-8.925,59.66-21.866
				c0.426-0.321,0.009-1.05-0.423-0.724c-18.834,14.184-40.343,24.634-64.42,21.16c-8.262-1.192-16.24-3.884-24.083-6.653
				c-10.23-3.611-20.553-6.925-30.798-10.489c-26.031-9.055-52.617-20.647-80.471-22.09C38.197,2.207,14.947,8.004-0.296,24.26
				C-0.666,24.654-0.074,25.248,0.296,24.853L0.296,24.853z"/>
		</g>
	</g>
	<g>
		<path fill="#41BBEC" d="M351.119,34.52c0,0-0.587,0.546-1.56,1.535c-0.985,0.984-2.329,2.462-4.134,4.07
			c-0.453,0.396-0.948,0.804-1.458,1.192c-0.507,0.399-1.028,0.813-1.597,1.211c-1.115,0.824-2.332,1.622-3.622,2.4
			c-1.292,0.79-2.63,1.537-4.015,2.301c-1.381,0.763-2.804,1.503-4.253,2.199c-1.448,0.698-2.931,1.332-4.422,1.884
			c-0.75,0.264-1.506,0.499-2.247,0.744c-0.762,0.194-1.499,0.397-2.252,0.574c-2.914,0.64-5.771,1.012-8.191,1.073
			c-1.217,0.043-2.334-0.013-3.324-0.071c-0.985-0.106-1.85-0.183-2.55-0.318c-0.675-0.13-1.205-0.231-1.567-0.301
			c-0.164-0.037-0.52-0.424-0.493-0.436l0-0.31c0.026,0.019,0.07-0.48,0.65-0.453c0.372,0.073,0.919,0.18,1.614,0.316
			c0.669,0.134,1.497,0.211,2.442,0.321c0.951,0.061,2.024,0.123,3.201,0.089c2.365-0.049,5.069-0.377,8.001-0.999
			c0.711-0.176,1.433-0.356,2.164-0.537c0.721-0.234,1.456-0.457,2.187-0.709c1.454-0.538,2.922-1.12,4.361-1.782
			c1.439-0.658,2.863-1.362,4.245-2.091c1.379-0.725,2.755-1.459,4.029-2.205c1.289-0.734,2.496-1.519,3.619-2.278
			c0.568-0.368,1.106-0.765,1.626-1.146c0.53-0.375,1.01-0.744,1.472-1.119c1.825-1.513,3.222-2.943,4.245-3.896
			c1.02-0.965,1.62-1.486,1.62-1.486L351.119,34.52z"/>
	</g>
	<g>
		<path fill="#41BBEC" d="M365.471,51.2c0,0,0.61-0.448,1.676-1.232c0.533-0.392,1.181-0.868,1.924-1.413
			c0.736-0.554,1.579-1.165,2.549-1.772c0.956-0.624,1.991-1.299,3.086-2.014c1.08-0.74,2.306-1.367,3.527-2.1
			c1.235-0.707,2.489-1.477,3.833-2.131c1.329-0.682,2.679-1.375,4.029-2.068c1.38-0.629,2.761-1.258,4.12-1.877
			c1.347-0.645,2.724-1.161,4.039-1.701c1.324-0.516,2.578-1.083,3.813-1.499c1.226-0.44,2.385-0.855,3.456-1.239
			c2.133-0.788,3.961-1.292,5.217-1.716c1.263-0.402,1.985-0.632,1.985-0.632l0.155,0.509c0,0-0.718,0.235-1.974,0.645
			c-1.249,0.432-3.068,0.948-5.187,1.749c-1.063,0.39-2.215,0.813-3.433,1.26c-1.227,0.424-2.472,0.997-3.786,1.521
			c-1.305,0.547-2.672,1.07-4.007,1.723c-1.347,0.626-2.715,1.262-4.084,1.897c-1.337,0.699-2.674,1.398-3.989,2.086
			c-1.331,0.66-2.572,1.434-3.793,2.146c-1.206,0.736-2.423,1.37-3.484,2.109c-1.077,0.714-2.096,1.39-3.036,2.013
			c-0.951,0.604-1.788,1.22-2.521,1.781c-0.739,0.551-1.383,1.032-1.914,1.428c-1.061,0.792-1.667,1.244-1.667,1.244L365.471,51.2z"
			/>
	</g>
	<g>
		<path fill="#41BBEC" d="M414.486,54.018c0,0,0.902-0.306,2.479-0.841c0.39-0.14,0.84-0.267,1.298-0.458
			c0.454-0.197,0.944-0.411,1.468-0.638c0.523-0.227,1.08-0.469,1.668-0.723c0.577-0.28,1.174-0.605,1.802-0.927
			c0.623-0.332,1.288-0.65,1.947-1.031c0.648-0.4,1.317-0.814,2.006-1.24c0.344-0.213,0.693-0.428,1.046-0.646
			c0.337-0.242,0.678-0.488,1.023-0.736c0.69-0.495,1.396-1,2.113-1.514c0.68-0.562,1.372-1.133,2.071-1.711
			c0.346-0.293,0.709-0.572,1.047-0.882l0.997-0.958c0.654-0.654,1.37-1.26,1.987-1.965c0.623-0.698,1.249-1.399,1.875-2.1
			c0.598-0.681,1.18-1.477,1.768-2.208c0.604-0.738,1.15-1.496,1.671-2.258c1.091-1.491,2.056-3.049,2.996-4.551
			c0.475-0.748,0.876-1.524,1.311-2.258c0.426-0.74,0.852-1.458,1.217-2.186c0.758-1.44,1.476-2.801,2.069-4.094
			c0.623-1.278,1.168-2.463,1.63-3.523c0.476-1.054,0.885-1.976,1.193-2.748c0.635-1.536,0.998-2.414,0.998-2.414l0.567,0.214
			c0,0-0.331,0.895-0.911,2.461c-0.28,0.787-0.657,1.729-1.095,2.807c-0.217,0.54-0.449,1.115-0.693,1.721
			c-0.267,0.596-0.548,1.223-0.84,1.878c-0.568,1.317-1.261,2.708-1.995,4.181c-0.729,1.474-1.583,2.989-2.48,4.544
			c-0.938,1.533-1.899,3.122-3.007,4.668c-0.53,0.791-1.081,1.57-1.672,2.306c-0.595,0.75-1.122,1.507-1.778,2.257
			c-0.644,0.718-1.288,1.435-1.929,2.15c-0.635,0.721-1.367,1.34-2.04,2.008l-1.024,0.978c-0.347,0.316-0.718,0.601-1.073,0.901
			c-0.718,0.59-1.426,1.172-2.124,1.745c-0.737,0.521-1.461,1.033-2.171,1.534c-0.356,0.248-0.709,0.493-1.057,0.736
			c-0.364,0.218-0.724,0.433-1.079,0.645c-0.71,0.424-1.4,0.837-2.068,1.236c-0.679,0.379-1.363,0.694-2.004,1.024
			c-0.648,0.317-1.255,0.647-1.858,0.913c-0.614,0.246-1.197,0.478-1.744,0.697c-0.547,0.218-1.059,0.422-1.532,0.611
			c-0.474,0.181-0.919,0.292-1.316,0.422c-1.593,0.489-2.503,0.768-2.503,0.768L414.486,54.018z"/>
	</g>
	<g>
		<path fill="#41BBEC" d="M529.289,52.188c0,0,0.825-0.339,2.269-0.934c0.722-0.297,1.599-0.658,2.604-1.071
			c0.996-0.432,2.169-0.829,3.33-1.475c1.184-0.605,2.467-1.26,3.824-1.953c0.67-0.362,1.395-0.667,2.07-1.101
			c0.681-0.423,1.377-0.854,2.084-1.293c0.708-0.439,1.427-0.885,2.156-1.337c0.727-0.454,1.48-0.889,2.165-1.435
			c1.406-1.041,2.833-2.099,4.261-3.157c1.411-1.079,2.7-2.311,4.035-3.44c0.653-0.582,1.329-1.129,1.946-1.724
			c0.604-0.61,1.2-1.212,1.787-1.804c1.157-1.2,2.345-2.295,3.346-3.45c1.002-1.155,1.949-2.248,2.823-3.256
			c0.436-0.505,0.854-0.989,1.252-1.449c0.371-0.482,0.723-0.939,1.054-1.369c0.662-0.86,1.239-1.609,1.714-2.226
			c0.951-1.234,1.494-1.94,1.494-1.94l0.492,0.357c0,0-0.543,0.711-1.493,1.954c-0.475,0.622-1.052,1.377-1.714,2.243
			c-0.331,0.433-0.683,0.894-1.054,1.38c-0.398,0.464-0.817,0.952-1.254,1.462c-0.875,1.017-1.824,2.12-2.827,3.285
			c-1.003,1.166-2.195,2.273-3.355,3.486c-0.589,0.598-1.187,1.207-1.793,1.823c-0.619,0.602-1.298,1.156-1.954,1.745
			c-1.341,1.143-2.636,2.389-4.054,3.482c-1.436,1.072-2.872,2.144-4.285,3.199c-0.69,0.553-1.447,0.994-2.178,1.455
			c-0.733,0.459-1.457,0.911-2.169,1.357c-0.712,0.445-1.413,0.884-2.099,1.312c-0.679,0.44-1.413,0.753-2.09,1.122
			c-1.372,0.707-2.67,1.375-3.867,1.992c-1.182,0.661-2.342,1.057-3.339,1.494c-1.004,0.417-1.879,0.781-2.6,1.081
			c-1.442,0.599-2.266,0.942-2.266,0.942L529.289,52.188z"/>
	</g>
</g>
</svg>
