<svg xmlns="http://www.w3.org/2000/svg" xmlns:xlink="http://www.w3.org/1999/xlink" width="700" height="500" viewBox="0 0 700 500"><path fill="#262626" d="M0 0h700v500H0z"/><path fill="#F0DBCA" d="M520.815 86.386H437.75c-9.94 0-18.024 8.085-18.024 18.023v209.476c0 9.938 8.085 18.023 18.023 18.023h83.065c9.938 0 18.023-8.086 18.023-18.024V104.408c0-9.937-8.085-18.022-18.023-18.022zm16.07 227.5c0 8.875-7.196 16.07-16.07 16.07H437.75c-8.876 0-16.07-7.196-16.07-16.07V104.408c0-8.875 7.194-16.07 16.07-16.07h83.065c8.875 0 16.07 7.196 16.07 16.07v209.478z"/><defs><filter id="a" filterUnits="userSpaceOnUse" x="419.726" y="86.386" width="119.112" height="245.523"><feColorMatrix values="-1 0 0 0 1 0 -1 0 0 1 0 0 -1 0 1 0 0 0 1 0" color-interpolation-filters="sRGB" result="source"/></filter></defs><mask maskUnits="userSpaceOnUse" x="419.726" y="86.386" width="119.112" height="245.523" id="b"><image overflow="visible" width="513" height="1040" xlink:href="7A7152F2.jpg" transform="matrix(.24 0 0 .24 417.73 84.39)" filter="url(#a)"/></mask><path fill="#CDCCCC" d="M520.815 86.386H437.75c-9.94 0-18.024 8.085-18.024 18.023v209.476c0 9.938 8.085 18.023 18.023 18.023h83.065c9.938 0 18.023-8.086 18.023-18.024V104.408c0-9.937-8.085-18.022-18.023-18.022zm16.07 227.5c0 8.875-7.196 16.07-16.07 16.07H437.75c-8.876 0-16.07-7.196-16.07-16.07V104.408c0-8.875 7.194-16.07 16.07-16.07h83.065c8.875 0 16.07 7.196 16.07 16.07v209.478z" mask="url(#b)"/><path fill="#F4F5F6" d="M536.884 313.886c0 8.875-7.195 16.07-16.07 16.07H437.75c-8.876 0-16.07-7.196-16.07-16.07V104.408c0-8.875 7.194-16.07 16.07-16.07h83.065c8.875 0 16.07 7.196 16.07 16.07v209.478z"/><linearGradient id="c" gradientUnits="userSpaceOnUse" x1="425.135" y1="209.147" x2="526.419" y2="209.147"><stop offset=".005" stop-color="#AC8D7B"/><stop offset=".07" stop-color="#D0C3B3"/></linearGradient><path opacity=".1" fill="url(#c)" d="M520.815 89.734H437.75c-8.093 0-14.675 6.583-14.675 14.674v209.477c0 8.09 6.583 14.674 14.674 14.674h83.065c8.09 0 14.674-6.584 14.674-14.675V104.408c0-8.09-6.584-14.674-14.675-14.674zm13 224.152c0 7.168-5.832 13-13 13H437.75c-7.17 0-13-5.832-13-13V104.408c0-7.168 5.83-13 13-13h83.065c7.168 0 13 5.832 13 13v209.478z"/><linearGradient id="d" gradientUnits="userSpaceOnUse" x1="469.937" y1="316.241" x2="488.626" y2="316.241"><stop offset=".151" stop-color="#C7AB9C"/><stop offset=".489" stop-color="#F5F6F8"/><stop offset="1" stop-color="#BA9F89"/></linearGradient><path fill="url(#d)" d="M479.282 306.896c-5.16 0-9.345 4.184-9.345 9.345 0 5.162 4.184 9.346 9.345 9.346 5.16 0 9.345-4.184 9.345-9.345 0-5.16-4.184-9.344-9.345-9.344zm0 17.793c-4.666 0-8.448-3.783-8.448-8.45 0-4.665 3.782-8.447 8.448-8.447s8.448 3.782 8.448 8.448c0 4.667-3.783 8.45-8.448 8.45z"/><linearGradient id="e" gradientUnits="userSpaceOnUse" x1="471.017" y1="311.232" x2="485.224" y2="307.507"><stop offset=".151" stop-color="#D1B9AE"/><stop offset=".812" stop-color="#F5F6F8"/></linearGradient><path fill="url(#e)" d="M471.488 312.976c1.277-3.044 4.285-5.183 7.794-5.183 2.218 0 4.236.856 5.743 2.255l.923-.353c-1.696-1.726-4.055-2.798-6.666-2.798-3.884 0-7.214 2.37-8.624 5.742l.83.336z"/><path fill="#262626" d="M426.556 115.78h104.638v185.635H426.556z"/><g fill="#FFF"><path d="M513.583 118.314h.07c.47 0 .596-.244.607-.43h.4v2.478h-.487v-1.706h-.59v-.342zM516.06 117.884c.584 0 .86.4.86 1.27s-.277 1.273-.86 1.273c-.58 0-.857-.405-.857-1.273s.276-1.27.858-1.27zm0 2.153c.28 0 .357-.244.357-.883 0-.638-.076-.88-.356-.88-.278 0-.355.242-.355.88 0 .64.077.883.356.883zM518.142 117.884c.583 0 .858.4.858 1.27s-.276 1.273-.858 1.273-.858-.405-.858-1.273.276-1.27.858-1.27zm0 2.153c.28 0 .356-.244.356-.883 0-.638-.077-.88-.356-.88-.28 0-.356.242-.356.88 0 .64.078.883.356.883zM519.847 117.884c.345 0 .635.286.635.635 0 .35-.29.634-.635.634-.35 0-.635-.28-.635-.635 0-.353.286-.636.635-.636zm0 .91c.15 0 .276-.12.276-.275 0-.154-.126-.277-.276-.277-.15 0-.276.122-.276.276 0 .153.126.275.277.275zm.244 1.634h-.257l1.39-2.543h.257l-1.39 2.543zm1.393-1.294c.346 0 .635.286.635.635 0 .35-.29.634-.635.634-.35 0-.635-.28-.635-.635 0-.354.286-.636.635-.636zm0 .91c.15 0 .276-.122.276-.276 0-.154-.127-.276-.277-.276s-.276.122-.276.276c0 .154.126.276.276.276z"/></g><g fill="#FFF"><path d="M473.935 119.79v.003c.028.17.136.244.286.244.204 0 .406-.17.41-.69l-.008-.008c-.112.166-.304.208-.47.208-.475 0-.75-.36-.75-.775 0-.607.36-.89.844-.89.858 0 .872.925.872 1.274 0 .96-.453 1.27-.9 1.27-.422 0-.726-.244-.768-.638h.485zm.32-.632c.17 0 .36-.122.36-.415 0-.283-.123-.457-.374-.457-.125 0-.35.063-.35.42 0 .372.18.452.365.452zM476.082 119.085h-.523v-.51h.522v.51zm0 1.277h-.523v-.51h.522v.51zM478.235 119.814h-.276v.548h-.49v-.548h-.976v-.422l.91-1.507h.556v1.55h.276v.38zm-.764-.38c0-.6.012-.987.012-1.064h-.007l-.62 1.064h.616zM478.582 118.314h.07c.47 0 .596-.244.607-.43h.4v2.478h-.49v-1.706h-.59v-.342zM481.7 120.362h-.55l.892-2.505h.604l.883 2.505h-.57l-.16-.516h-.925l-.175.516zm.314-.95h.64l-.312-.99h-.007l-.32.99zM486.27 120.362h-.49v-2.093h-.007l-.467 2.092h-.513l-.457-2.093h-.007v2.092h-.49v-2.505h.764l.453 1.975h.007l.447-1.975h.758v2.505z"/></g><path fill="#FFF" d="M523.532 120.226c-.075 0-.136-.06-.136-.136v-1.946c0-.075.06-.136.136-.136h5.663c.075 0 .137.06.137.136v1.946c0 .075-.06.136-.137.136h-5.663z"/><path fill="#FFF" d="M530.14 119.116c0-.28-.222-.505-.5-.518v-.455c0-.246-.2-.446-.445-.446h-5.663c-.246 0-.445.2-.445.446v1.946c0 .245.2.445.445.445h5.663c.246 0 .446-.2.446-.446v-.456c.278-.013.5-.238.5-.518zm-.615.973c0 .18-.148.328-.33.328h-5.663c-.182 0-.33-.148-.33-.33v-1.945c0-.182.15-.33.33-.33h5.663c.182 0 .33.15.33.33v1.946z"/><circle fill="#FFF" cx="429.647" cy="119.149" r=".794"/><circle fill="#FFF" cx="431.615" cy="119.149" r=".794"/><circle fill="#FFF" cx="433.582" cy="119.149" r=".794"/><circle fill="#FFF" cx="435.55" cy="119.149" r=".794"/><circle fill="#FFF" cx="437.517" cy="119.149" r=".794"/><g fill="#FFF"><path d="M440.458 119.508l.674.673.673-.672c-.372-.372-.974-.372-1.347 0z"/><path d="M439.95 119l.26.257c.51-.51 1.336-.51 1.846 0l.258-.258c-.652-.654-1.71-.654-2.364 0z"/><path d="M439.713 118.763c.784-.783 2.054-.783 2.837 0l.258-.258c-.926-.926-2.427-.926-3.353 0l.258.258z"/></g><linearGradient id="f" gradientUnits="userSpaceOnUse" x1="-24.33" y1="799.068" x2="-6.115" y2="799.068" gradientTransform="rotate(-90 -123.66 256.07)"><stop offset="0" stop-color="#A68C7D"/><stop offset=".043" stop-color="#CDB3A2"/><stop offset=".07" stop-color="#E4D3CA"/><stop offset=".538" stop-color="#E4D3CA"/><stop offset=".925" stop-color="#E4D3CA"/><stop offset=".962" stop-color="#CDB3A2"/><stop offset="1" stop-color="#A68C7D"/></linearGradient><path fill="url(#f)" d="M418.95 138.526h.776v18.215h-.775z"/><linearGradient id="g" gradientUnits="userSpaceOnUse" x1="-24.32" y1="798.486" x2="-6.113" y2="798.486" gradientTransform="rotate(-90 -123.66 256.07)"><stop offset="0" stop-color="#DBC8BA"/><stop offset=".057" stop-color="#A7917E"/><stop offset=".081" stop-color="#DBC8BA"/><stop offset=".097" stop-color="#C3AB97"/><stop offset=".538" stop-color="#C3AB97"/><stop offset=".914" stop-color="#C3AB97"/><stop offset=".941" stop-color="#DBC8BA"/><stop offset=".96" stop-color="#A7917E"/><stop offset="1" stop-color="#DBC8BA"/></linearGradient><path fill="url(#g)" d="M418.95 138.524v18.208l-.387-.472v-17.264"/><linearGradient id="h" gradientUnits="userSpaceOnUse" x1="5.247" y1="799.233" x2="14.91" y2="799.233" gradientTransform="rotate(-90 -123.66 256.07)"><stop offset="0" stop-color="#A68C7D"/><stop offset=".043" stop-color="#CDB3A2"/><stop offset=".07" stop-color="#E4D3CA"/><stop offset=".538" stop-color="#E4D3CA"/><stop offset=".925" stop-color="#E4D3CA"/><stop offset=".962" stop-color="#CDB3A2"/><stop offset="1" stop-color="#A68C7D"/></linearGradient><path fill="url(#h)" d="M419.28 117.5h.445v9.664h-.444z"/><linearGradient id="i" gradientUnits="userSpaceOnUse" x1="5.252" y1="798.9" x2="14.911" y2="798.9" gradientTransform="rotate(-90 -123.66 256.07)"><stop offset="0" stop-color="#DBC8BA"/><stop offset=".057" stop-color="#A7917E"/><stop offset=".081" stop-color="#DBC8BA"/><stop offset=".097" stop-color="#C3AB97"/><stop offset=".538" stop-color="#C3AB97"/><stop offset=".914" stop-color="#C3AB97"/><stop offset=".941" stop-color="#DBC8BA"/><stop offset=".96" stop-color="#A7917E"/><stop offset="1" stop-color="#DBC8BA"/></linearGradient><path fill="url(#i)" d="M419.28 117.5v9.66l-.22-.27v-9.12"/><linearGradient id="j" gradientUnits="userSpaceOnUse" x1="-46.905" y1="799.068" x2="-28.69" y2="799.068" gradientTransform="rotate(-90 -123.66 256.07)"><stop offset="0" stop-color="#A68C7D"/><stop offset=".043" stop-color="#CDB3A2"/><stop offset=".07" stop-color="#E4D3CA"/><stop offset=".538" stop-color="#E4D3CA"/><stop offset=".925" stop-color="#E4D3CA"/><stop offset=".962" stop-color="#CDB3A2"/><stop offset="1" stop-color="#A68C7D"/></linearGradient><path fill="url(#j)" d="M418.95 161.1h.776v18.216h-.775z"/><linearGradient id="k" gradientUnits="userSpaceOnUse" x1="-46.895" y1="798.486" x2="-28.688" y2="798.486" gradientTransform="rotate(-90 -123.66 256.07)"><stop offset="0" stop-color="#DBC8BA"/><stop offset=".057" stop-color="#A7917E"/><stop offset=".081" stop-color="#DBC8BA"/><stop offset=".097" stop-color="#C3AB97"/><stop offset=".538" stop-color="#C3AB97"/><stop offset=".914" stop-color="#C3AB97"/><stop offset=".941" stop-color="#DBC8BA"/><stop offset=".96" stop-color="#A7917E"/><stop offset="1" stop-color="#DBC8BA"/></linearGradient><path fill="url(#k)" d="M418.95 161.1v18.206l-.387-.47V161.57"/><linearGradient id="l" gradientUnits="userSpaceOnUse" x1="200.188" y1="-954.495" x2="218.403" y2="-954.495" gradientTransform="rotate(90 -176.88 -238.39)"><stop offset="0" stop-color="#A68C7D"/><stop offset=".043" stop-color="#CDB3A2"/><stop offset=".07" stop-color="#E4D3CA"/><stop offset=".538" stop-color="#E4D3CA"/><stop offset=".925" stop-color="#E4D3CA"/><stop offset=".962" stop-color="#CDB3A2"/><stop offset="1" stop-color="#A68C7D"/></linearGradient><path fill="url(#l)" d="M538.837 138.682h.775v18.215h-.775z"/><linearGradient id="m" gradientUnits="userSpaceOnUse" x1="200.197" y1="-955.077" x2="218.404" y2="-955.077" gradientTransform="rotate(90 -176.88 -238.39)"><stop offset="0" stop-color="#DBC8BA"/><stop offset=".057" stop-color="#A7917E"/><stop offset=".081" stop-color="#DBC8BA"/><stop offset=".097" stop-color="#C3AB97"/><stop offset=".538" stop-color="#C3AB97"/><stop offset=".914" stop-color="#C3AB97"/><stop offset=".941" stop-color="#DBC8BA"/><stop offset=".96" stop-color="#A7917E"/><stop offset="1" stop-color="#DBC8BA"/></linearGradient><path fill="url(#m)" d="M539.612 156.898V138.69l.388.473v17.264"/><g><linearGradient id="n" gradientUnits="userSpaceOnUse" x1="459.376" y1="100.547" x2="461.749" y2="103.865"><stop offset=".005" stop-color="#171A1B"/><stop offset="1" stop-color="#6F7170"/></linearGradient><circle fill="url(#n)" cx="460.292" cy="101.828" r="2.014"/><circle fill="#0A0B0B" cx="460.292" cy="101.828" r="1.08"/><linearGradient id="o" gradientUnits="userSpaceOnUse" x1="460.002" y1="101.538" x2="461.355" y2="102.891"><stop offset=".005" stop-color="#2E5390"/><stop offset=".355" stop-color="#090C10"/><stop offset="1" stop-color="#1E3768"/></linearGradient><circle fill="url(#o)" cx="460.372" cy="101.909" r=".935"/></g><g><path fill="#0A0E0D" d="M487.983 100.714h-17.15c-.614 0-1.113.5-1.113 1.114 0 .615.5 1.114 1.114 1.114h17.15c.614 0 1.113-.5 1.113-1.114 0-.615-.5-1.114-1.114-1.114z"/><g fill="#656668"><path d="M469.852 101.522h.132v.132h-.132zM469.852 101.787h.132v.132h-.132zM469.852 102.052h.132v.132h-.132zM470.117 101.257h.132v.132h-.133zM469.984 101.39h.132v.13h-.132zM470.117 101.522h.132v.132h-.133zM469.984 101.654h.132v.132h-.132zM470.117 101.787h.132v.132h-.133zM469.984 101.92h.132v.13h-.132zM470.117 102.052h.132v.132h-.133zM469.984 102.184h.132v.132h-.132zM470.117 102.316h.132v.132h-.133zM470.382 100.992h.132v.132h-.132zM470.25 101.124h.13v.132h-.13zM470.382 101.257h.132v.132h-.132zM470.25 101.39h.13v.13h-.13zM470.382 101.522h.132v.132h-.132zM470.25 101.654h.13v.132h-.13zM470.382 101.787h.132v.132h-.132zM470.25 101.92h.13v.13h-.13zM470.382 102.052h.132v.132h-.132zM470.25 102.184h.13v.132h-.13zM470.382 102.316h.132v.132h-.132zM470.25 102.45h.13v.13h-.13zM470.382 102.58h.132v.133h-.132zM470.514 100.86h.132v.13h-.132zM470.647 100.992h.132v.132h-.133zM470.514 101.124h.132v.132h-.132zM470.647 101.257h.132v.132h-.133zM470.514 101.39h.132v.13h-.132zM470.647 101.522h.132v.132h-.133zM470.514 101.654h.132v.132h-.132zM470.647 101.787h.132v.132h-.133zM470.514 101.92h.132v.13h-.132zM470.647 102.052h.132v.132h-.133zM470.514 102.184h.132v.132h-.132zM470.647 102.316h.132v.132h-.133zM470.514 102.45h.132v.13h-.132zM470.647 102.58h.132v.133h-.133zM470.514 102.714h.132v.132h-.132zM470.78 100.86h.13v.13h-.13zM470.912 100.992h.132v.132h-.132zM470.78 101.124h.13v.132h-.13zM470.912 101.257h.132v.132h-.132zM470.78 101.39h.13v.13h-.13zM470.912 101.522h.132v.132h-.132zM470.78 101.654h.13v.132h-.13zM470.912 101.787h.132v.132h-.132zM470.78 101.92h.13v.13h-.13zM470.912 102.052h.132v.132h-.132zM470.78 102.184h.13v.132h-.13zM470.912 102.316h.132v.132h-.132zM470.78 102.45h.13v.13h-.13zM470.912 102.58h.132v.133h-.132zM470.78 102.714h.13v.132h-.13zM471.044 100.86h.132v.13h-.132zM471.177 100.992h.132v.132h-.133zM471.044 101.124h.132v.132h-.132zM471.177 101.257h.132v.132h-.133zM471.044 101.39h.132v.13h-.132zM471.177 101.522h.132v.132h-.133zM471.044 101.654h.132v.132h-.132zM471.177 101.787h.132v.132h-.133zM471.044 101.92h.132v.13h-.132zM471.177 102.052h.132v.132h-.133zM471.044 102.184h.132v.132h-.132zM471.177 102.316h.132v.132h-.133zM471.044 102.45h.132v.13h-.132zM471.177 102.58h.132v.133h-.133zM471.044 102.714h.132v.132h-.132zM471.31 100.86h.13v.13h-.13zM471.442 100.992h.132v.132h-.132zM471.31 101.124h.13v.132h-.13zM471.442 101.257h.132v.132h-.132zM471.31 101.39h.13v.13h-.13zM471.442 101.522h.132v.132h-.132zM471.31 101.654h.13v.132h-.13zM471.442 101.787h.132v.132h-.132zM471.31 101.92h.13v.13h-.13zM471.442 102.052h.132v.132h-.132zM471.31 102.184h.13v.132h-.13zM471.442 102.316h.132v.132h-.132zM471.31 102.45h.13v.13h-.13zM471.442 102.58h.132v.133h-.132zM471.31 102.714h.13v.132h-.13zM471.574 100.86h.132v.13h-.132zM471.707 100.992h.132v.132h-.133zM471.574 101.124h.132v.132h-.132zM471.707 101.257h.132v.132h-.133zM471.574 101.39h.132v.13h-.132zM471.707 101.522h.132v.132h-.133zM471.574 101.654h.132v.132h-.132zM471.707 101.787h.132v.132h-.133zM471.574 101.92h.132v.13h-.132zM471.707 102.052h.132v.132h-.133zM471.574 102.184h.132v.132h-.132zM471.707 102.316h.132v.132h-.133zM471.574 102.45h.132v.13h-.132zM471.707 102.58h.132v.133h-.133zM471.574 102.714h.132v.132h-.132zM471.84 100.86h.13v.13h-.13zM471.97 100.992h.133v.132h-.132zM471.84 101.124h.13v.132h-.13zM471.97 101.257h.133v.132h-.132zM471.84 101.39h.13v.13h-.13zM471.97 101.522h.133v.132h-.132zM471.84 101.654h.13v.132h-.13zM471.97 101.787h.133v.132h-.132zM471.84 101.92h.13v.13h-.13zM471.97 102.052h.133v.132h-.132zM471.84 102.184h.13v.132h-.13zM471.97 102.316h.133v.132h-.132zM471.84 102.45h.13v.13h-.13zM471.97 102.58h.133v.133h-.132zM471.84 102.714h.13v.132h-.13zM472.104 100.86h.132v.13h-.132zM472.236 100.992h.132v.132h-.132zM472.104 101.124h.132v.132h-.132zM472.236 101.257h.132v.132h-.132zM472.104 101.39h.132v.13h-.132zM472.236 101.522h.132v.132h-.132zM472.104 101.654h.132v.132h-.132zM472.236 101.787h.132v.132h-.132zM472.104 101.92h.132v.13h-.132zM472.236 102.052h.132v.132h-.132zM472.104 102.184h.132v.132h-.132zM472.236 102.316h.132v.132h-.132zM472.104 102.45h.132v.13h-.132zM472.236 102.58h.132v.133h-.132zM472.104 102.714h.132v.132h-.132zM472.37 100.86h.13v.13h-.13zM472.5 100.992h.133v.132h-.132zM472.37 101.124h.13v.132h-.13zM472.5 101.257h.133v.132h-.132zM472.37 101.39h.13v.13h-.13zM472.5 101.522h.133v.132h-.132zM472.37 101.654h.13v.132h-.13zM472.5 101.787h.133v.132h-.132zM472.37 101.92h.13v.13h-.13zM472.5 102.052h.133v.132h-.132zM472.37 102.184h.13v.132h-.13zM472.5 102.316h.133v.132h-.132zM472.37 102.45h.13v.13h-.13zM472.5 102.58h.133v.133h-.132zM472.37 102.714h.13v.132h-.13zM472.634 100.86h.132v.13h-.132zM472.766 100.992h.132v.132h-.132zM472.634 101.124h.132v.132h-.132zM472.766 101.257h.132v.132h-.132zM472.634 101.39h.132v.13h-.132zM472.766 101.522h.132v.132h-.132zM472.634 101.654h.132v.132h-.132zM472.766 101.787h.132v.132h-.132zM472.634 101.92h.132v.13h-.132zM472.766 102.052h.132v.132h-.132zM472.634 102.184h.132v.132h-.132zM472.766 102.316h.132v.132h-.132zM472.634 102.45h.132v.13h-.132zM472.766 102.58h.132v.133h-.132zM472.634 102.714h.132v.132h-.132zM472.9 100.86h.13v.13h-.13zM473.03 100.992h.133v.132h-.132zM472.9 101.124h.13v.132h-.13zM473.03 101.257h.133v.132h-.132zM472.9 101.39h.13v.13h-.13zM473.03 101.522h.133v.132h-.132zM472.9 101.654h.13v.132h-.13zM473.03 101.787h.133v.132h-.132zM472.9 101.92h.13v.13h-.13zM473.03 102.052h.133v.132h-.132zM472.9 102.184h.13v.132h-.13zM473.03 102.316h.133v.132h-.132zM472.9 102.45h.13v.13h-.13zM473.03 102.58h.133v.133h-.132zM472.9 102.714h.13v.132h-.13zM473.164 100.86h.132v.13h-.132zM473.296 100.992h.132v.132h-.132zM473.164 101.124h.132v.132h-.132zM473.296 101.257h.132v.132h-.132zM473.164 101.39h.132v.13h-.132zM473.296 101.522h.132v.132h-.132zM473.164 101.654h.132v.132h-.132zM473.296 101.787h.132v.132h-.132zM473.164 101.92h.132v.13h-.132zM473.296 102.052h.132v.132h-.132zM473.164 102.184h.132v.132h-.132zM473.296 102.316h.132v.132h-.132zM473.164 102.45h.132v.13h-.132zM473.296 102.58h.132v.133h-.132zM473.164 102.714h.132v.132h-.132zM473.43 100.86h.13v.13h-.13zM473.56 100.992h.133v.132h-.132zM473.43 101.124h.13v.132h-.13zM473.56 101.257h.133v.132h-.132zM473.43 101.39h.13v.13h-.13zM473.56 101.522h.133v.132h-.132zM473.43 101.654h.13v.132h-.13zM473.56 101.787h.133v.132h-.132zM473.43 101.92h.13v.13h-.13zM473.56 102.052h.133v.132h-.132zM473.43 102.184h.13v.132h-.13zM473.56 102.316h.133v.132h-.132zM473.43 102.45h.13v.13h-.13zM473.56 102.58h.133v.133h-.132zM473.43 102.714h.13v.132h-.13zM473.694 100.86h.132v.13h-.132zM473.826 100.992h.132v.132h-.132zM473.694 101.124h.132v.132h-.132zM473.826 101.257h.132v.132h-.132zM473.694 101.39h.132v.13h-.132zM473.826 101.522h.132v.132h-.132zM473.694 101.654h.132v.132h-.132zM473.826 101.787h.132v.132h-.132zM473.694 101.92h.132v.13h-.132zM473.826 102.052h.132v.132h-.132zM473.694 102.184h.132v.132h-.132zM473.826 102.316h.132v.132h-.132zM473.694 102.45h.132v.13h-.132zM473.826 102.58h.132v.133h-.132zM473.694 102.714h.132v.132h-.132zM473.958 100.86h.132v.13h-.132zM474.09 100.992h.133v.132h-.132zM473.958 101.124h.132v.132h-.132zM474.09 101.257h.133v.132h-.132zM473.958 101.39h.132v.13h-.132zM474.09 101.522h.133v.132h-.132zM473.958 101.654h.132v.132h-.132zM474.09 101.787h.133v.132h-.132zM473.958 101.92h.132v.13h-.132zM474.09 102.052h.133v.132h-.132zM473.958 102.184h.132v.132h-.132zM474.09 102.316h.133v.132h-.132zM473.958 102.45h.132v.13h-.132zM474.09 102.58h.133v.133h-.132zM473.958 102.714h.132v.132h-.132zM474.223 100.86h.132v.13h-.132zM474.356 100.992h.132v.132h-.132zM474.223 101.124h.132v.132h-.132zM474.356 101.257h.132v.132h-.132zM474.223 101.39h.132v.13h-.132zM474.356 101.522h.132v.132h-.132zM474.223 101.654h.132v.132h-.132zM474.356 101.787h.132v.132h-.132zM474.223 101.92h.132v.13h-.132zM474.356 102.052h.132v.132h-.132zM474.223 102.184h.132v.132h-.132zM474.356 102.316h.132v.132h-.132zM474.223 102.45h.132v.13h-.132zM474.356 102.58h.132v.133h-.132zM474.223 102.714h.132v.132h-.132zM474.488 100.86h.132v.13h-.132zM474.62 100.992h.133v.132h-.132zM474.488 101.124h.132v.132h-.132zM474.62 101.257h.133v.132h-.132zM474.488 101.39h.132v.13h-.132zM474.62 101.522h.133v.132h-.132zM474.488 101.654h.132v.132h-.132zM474.62 101.787h.133v.132h-.132zM474.488 101.92h.132v.13h-.132zM474.62 102.052h.133v.132h-.132zM474.488 102.184h.132v.132h-.132zM474.62 102.316h.133v.132h-.132zM474.488 102.45h.132v.13h-.132zM474.62 102.58h.133v.133h-.132zM474.488 102.714h.132v.132h-.132zM474.753 100.86h.132v.13h-.132zM474.886 100.992h.132v.132h-.132zM474.753 101.124h.132v.132h-.132zM474.886 101.257h.132v.132h-.132zM474.753 101.39h.132v.13h-.132zM474.886 101.522h.132v.132h-.132zM474.753 101.654h.132v.132h-.132zM474.886 101.787h.132v.132h-.132zM474.753 101.92h.132v.13h-.132zM474.886 102.052h.132v.132h-.132zM474.753 102.184h.132v.132h-.132zM474.886 102.316h.132v.132h-.132zM474.753 102.45h.132v.13h-.132zM474.886 102.58h.132v.133h-.132zM474.753 102.714h.132v.132h-.132zM475.018 100.86h.132v.13h-.132zM475.15 100.992h.133v.132h-.132z"/><path d="M475.018 101.124h.132v.132h-.132zM475.15 101.257h.133v.132h-.132zM475.018 101.39h.132v.13h-.132zM475.15 101.522h.133v.132h-.132zM475.018 101.654h.132v.132h-.132zM475.15 101.787h.133v.132h-.132zM475.018 101.92h.132v.13h-.132zM475.15 102.052h.133v.132h-.132zM475.018 102.184h.132v.132h-.132zM475.15 102.316h.133v.132h-.132zM475.018 102.45h.132v.13h-.132zM475.15 102.58h.133v.133h-.132zM475.018 102.714h.132v.132h-.132zM475.283 100.86h.132v.13h-.132zM475.415 100.992h.132v.132h-.132zM475.283 101.124h.132v.132h-.132zM475.415 101.257h.132v.132h-.132zM475.283 101.39h.132v.13h-.132zM475.415 101.522h.132v.132h-.132zM475.283 101.654h.132v.132h-.132zM475.415 101.787h.132v.132h-.132zM475.283 101.92h.132v.13h-.132zM475.415 102.052h.132v.132h-.132zM475.283 102.184h.132v.132h-.132zM475.415 102.316h.132v.132h-.132zM475.283 102.45h.132v.13h-.132zM475.415 102.58h.132v.133h-.132zM475.283 102.714h.132v.132h-.132zM475.548 100.86h.132v.13h-.132zM475.68 100.992h.132v.132h-.132zM475.548 101.124h.132v.132h-.132zM475.68 101.257h.132v.132h-.132zM475.548 101.39h.132v.13h-.132zM475.68 101.522h.132v.132h-.132zM475.548 101.654h.132v.132h-.132zM475.68 101.787h.132v.132h-.132zM475.548 101.92h.132v.13h-.132zM475.68 102.052h.132v.132h-.132zM475.548 102.184h.132v.132h-.132zM475.68 102.316h.132v.132h-.132zM475.548 102.45h.132v.13h-.132zM475.68 102.58h.132v.133h-.132zM475.548 102.714h.132v.132h-.132zM475.813 100.86h.132v.13h-.132zM475.945 100.992h.132v.132h-.132zM475.813 101.124h.132v.132h-.132zM475.945 101.257h.132v.132h-.132zM475.813 101.39h.132v.13h-.132zM475.945 101.522h.132v.132h-.132zM475.813 101.654h.132v.132h-.132zM475.945 101.787h.132v.132h-.132zM475.813 101.92h.132v.13h-.132zM475.945 102.052h.132v.132h-.132zM475.813 102.184h.132v.132h-.132zM475.945 102.316h.132v.132h-.132zM475.813 102.45h.132v.13h-.132zM475.945 102.58h.132v.133h-.132zM475.813 102.714h.132v.132h-.132zM476.078 100.86h.132v.13h-.132zM476.21 100.992h.132v.132h-.132zM476.078 101.124h.132v.132h-.132zM476.21 101.257h.132v.132h-.132zM476.078 101.39h.132v.13h-.132zM476.21 101.522h.132v.132h-.132zM476.078 101.654h.132v.132h-.132zM476.21 101.787h.132v.132h-.132zM476.078 101.92h.132v.13h-.132zM476.21 102.052h.132v.132h-.132zM476.078 102.184h.132v.132h-.132zM476.21 102.316h.132v.132h-.132zM476.078 102.45h.132v.13h-.132zM476.21 102.58h.132v.133h-.132zM476.078 102.714h.132v.132h-.132zM476.343 100.86h.132v.13h-.132zM476.475 100.992h.132v.132h-.132zM476.343 101.124h.132v.132h-.132zM476.475 101.257h.132v.132h-.132zM476.343 101.39h.132v.13h-.132zM476.475 101.522h.132v.132h-.132zM476.343 101.654h.132v.132h-.132zM476.475 101.787h.132v.132h-.132zM476.343 101.92h.132v.13h-.132zM476.475 102.052h.132v.132h-.132zM476.343 102.184h.132v.132h-.132zM476.475 102.316h.132v.132h-.132zM476.343 102.45h.132v.13h-.132zM476.475 102.58h.132v.133h-.132zM476.343 102.714h.132v.132h-.132zM476.608 100.86h.132v.13h-.132zM476.74 100.992h.132v.132h-.132zM476.608 101.124h.132v.132h-.132zM476.74 101.257h.132v.132h-.132zM476.608 101.39h.132v.13h-.132zM476.74 101.522h.132v.132h-.132zM476.608 101.654h.132v.132h-.132zM476.74 101.787h.132v.132h-.132zM476.608 101.92h.132v.13h-.132zM476.74 102.052h.132v.132h-.132zM476.608 102.184h.132v.132h-.132zM476.74 102.316h.132v.132h-.132zM476.608 102.45h.132v.13h-.132zM476.74 102.58h.132v.133h-.132zM476.608 102.714h.132v.132h-.132zM476.873 100.86h.132v.13h-.132zM477.005 100.992h.132v.132h-.132zM476.873 101.124h.132v.132h-.132zM477.005 101.257h.132v.132h-.132zM476.873 101.39h.132v.13h-.132zM477.005 101.522h.132v.132h-.132zM476.873 101.654h.132v.132h-.132zM477.005 101.787h.132v.132h-.132zM476.873 101.92h.132v.13h-.132zM477.005 102.052h.132v.132h-.132zM476.873 102.184h.132v.132h-.132zM477.005 102.316h.132v.132h-.132zM476.873 102.45h.132v.13h-.132zM477.005 102.58h.132v.133h-.132zM476.873 102.714h.132v.132h-.132zM477.138 100.86h.132v.13h-.132zM477.27 100.992h.132v.132h-.132zM477.138 101.124h.132v.132h-.132zM477.27 101.257h.132v.132h-.132zM477.138 101.39h.132v.13h-.132zM477.27 101.522h.132v.132h-.132zM477.138 101.654h.132v.132h-.132zM477.27 101.787h.132v.132h-.132zM477.138 101.92h.132v.13h-.132zM477.27 102.052h.132v.132h-.132zM477.138 102.184h.132v.132h-.132zM477.27 102.316h.132v.132h-.132zM477.138 102.45h.132v.13h-.132zM477.27 102.58h.132v.133h-.132zM477.138 102.714h.132v.132h-.132zM477.402 100.86h.132v.13h-.132zM477.535 100.992h.132v.132h-.132zM477.402 101.124h.132v.132h-.132zM477.535 101.257h.132v.132h-.132zM477.402 101.39h.132v.13h-.132zM477.535 101.522h.132v.132h-.132zM477.402 101.654h.132v.132h-.132zM477.535 101.787h.132v.132h-.132zM477.402 101.92h.132v.13h-.132zM477.535 102.052h.132v.132h-.132zM477.402 102.184h.132v.132h-.132zM477.535 102.316h.132v.132h-.132zM477.402 102.45h.132v.13h-.132zM477.535 102.58h.132v.133h-.132zM477.402 102.714h.132v.132h-.132zM477.667 100.86h.132v.13h-.133zM477.8 100.992h.132v.132h-.132z"/><path d="M477.667 101.124h.132v.132h-.133zM477.8 101.257h.132v.132h-.132zM477.667 101.39h.132v.13h-.133zM477.8 101.522h.132v.132h-.132zM477.667 101.654h.132v.132h-.133zM477.8 101.787h.132v.132h-.132zM477.667 101.92h.132v.13h-.133zM477.8 102.052h.132v.132h-.132zM477.667 102.184h.132v.132h-.133zM477.8 102.316h.132v.132h-.132zM477.667 102.45h.132v.13h-.133zM477.8 102.58h.132v.133h-.132zM477.667 102.714h.132v.132h-.133zM477.932 100.86h.132v.13h-.132zM478.065 100.992h.132v.132h-.132zM477.932 101.124h.132v.132h-.132zM478.065 101.257h.132v.132h-.132zM477.932 101.39h.132v.13h-.132zM478.065 101.522h.132v.132h-.132zM477.932 101.654h.132v.132h-.132zM478.065 101.787h.132v.132h-.132zM477.932 101.92h.132v.13h-.132zM478.065 102.052h.132v.132h-.132zM477.932 102.184h.132v.132h-.132zM478.065 102.316h.132v.132h-.132zM477.932 102.45h.132v.13h-.132zM478.065 102.58h.132v.133h-.132zM477.932 102.714h.132v.132h-.132zM478.197 100.86h.132v.13h-.133zM478.33 100.992h.132v.132h-.132z"/><path d="M478.197 101.124h.132v.132h-.133zM478.33 101.257h.132v.132h-.132zM478.197 101.39h.132v.13h-.133zM478.33 101.522h.132v.132h-.132zM478.197 101.654h.132v.132h-.133zM478.33 101.787h.132v.132h-.132zM478.197 101.92h.132v.13h-.133zM478.33 102.052h.132v.132h-.132zM478.197 102.184h.132v.132h-.133zM478.33 102.316h.132v.132h-.132zM478.197 102.45h.132v.13h-.133zM478.33 102.58h.132v.133h-.132zM478.197 102.714h.132v.132h-.133zM478.462 100.86h.132v.13h-.132zM478.595 100.992h.132v.132h-.132zM478.462 101.124h.132v.132h-.132zM478.595 101.257h.132v.132h-.132zM478.462 101.39h.132v.13h-.132zM478.595 101.522h.132v.132h-.132zM478.462 101.654h.132v.132h-.132zM478.595 101.787h.132v.132h-.132zM478.462 101.92h.132v.13h-.132zM478.595 102.052h.132v.132h-.132zM478.462 102.184h.132v.132h-.132zM478.595 102.316h.132v.132h-.132zM478.462 102.45h.132v.13h-.132zM478.595 102.58h.132v.133h-.132zM478.462 102.714h.132v.132h-.132zM478.727 100.86h.132v.13h-.133zM478.86 100.992h.132v.132h-.132z"/><path d="M478.727 101.124h.132v.132h-.133zM478.86 101.257h.132v.132h-.132zM478.727 101.39h.132v.13h-.133zM478.86 101.522h.132v.132h-.132zM478.727 101.654h.132v.132h-.133zM478.86 101.787h.132v.132h-.132zM478.727 101.92h.132v.13h-.133zM478.86 102.052h.132v.132h-.132zM478.727 102.184h.132v.132h-.133zM478.86 102.316h.132v.132h-.132zM478.727 102.45h.132v.13h-.133zM478.86 102.58h.132v.133h-.132zM478.727 102.714h.132v.132h-.133zM478.992 100.86h.132v.13h-.132zM479.124 100.992h.132v.132h-.132zM478.992 101.124h.132v.132h-.132zM479.124 101.257h.132v.132h-.132zM478.992 101.39h.132v.13h-.132zM479.124 101.522h.132v.132h-.132zM478.992 101.654h.132v.132h-.132zM479.124 101.787h.132v.132h-.132zM478.992 101.92h.132v.13h-.132zM479.124 102.052h.132v.132h-.132zM478.992 102.184h.132v.132h-.132zM479.124 102.316h.132v.132h-.132zM478.992 102.45h.132v.13h-.132zM479.124 102.58h.132v.133h-.132zM478.992 102.714h.132v.132h-.132zM479.257 100.86h.132v.13h-.133zM479.39 100.992h.13v.132h-.13zM479.257 101.124h.132v.132h-.133zM479.39 101.257h.13v.132h-.13zM479.257 101.39h.132v.13h-.133zM479.39 101.522h.13v.132h-.13zM479.257 101.654h.132v.132h-.133zM479.39 101.787h.13v.132h-.13zM479.257 101.92h.132v.13h-.133zM479.39 102.052h.13v.132h-.13zM479.257 102.184h.132v.132h-.133zM479.39 102.316h.13v.132h-.13zM479.257 102.45h.132v.13h-.133zM479.39 102.58h.13v.133h-.13zM479.257 102.714h.132v.132h-.133zM479.522 100.86h.132v.13h-.132zM479.654 100.992h.132v.132h-.132zM479.522 101.124h.132v.132h-.132zM479.654 101.257h.132v.132h-.132zM479.522 101.39h.132v.13h-.132zM479.654 101.522h.132v.132h-.132zM479.522 101.654h.132v.132h-.132zM479.654 101.787h.132v.132h-.132zM479.522 101.92h.132v.13h-.132zM479.654 102.052h.132v.132h-.132zM479.522 102.184h.132v.132h-.132zM479.654 102.316h.132v.132h-.132zM479.522 102.45h.132v.13h-.132zM479.654 102.58h.132v.133h-.132zM479.522 102.714h.132v.132h-.132zM479.787 100.86h.132v.13h-.133zM479.92 100.992h.13v.132h-.13zM479.787 101.124h.132v.132h-.133zM479.92 101.257h.13v.132h-.13zM479.787 101.39h.132v.13h-.133zM479.92 101.522h.13v.132h-.13zM479.787 101.654h.132v.132h-.133zM479.92 101.787h.13v.132h-.13zM479.787 101.92h.132v.13h-.133zM479.92 102.052h.13v.132h-.13zM479.787 102.184h.132v.132h-.133zM479.92 102.316h.13v.132h-.13zM479.787 102.45h.132v.13h-.133zM479.92 102.58h.13v.133h-.13zM479.787 102.714h.132v.132h-.133zM480.052 100.86h.132v.13h-.132zM480.184 100.992h.132v.132h-.132zM480.052 101.124h.132v.132h-.132zM480.184 101.257h.132v.132h-.132zM480.052 101.39h.132v.13h-.132zM480.184 101.522h.132v.132h-.132zM480.052 101.654h.132v.132h-.132zM480.184 101.787h.132v.132h-.132zM480.052 101.92h.132v.13h-.132zM480.184 102.052h.132v.132h-.132zM480.052 102.184h.132v.132h-.132zM480.184 102.316h.132v.132h-.132zM480.052 102.45h.132v.13h-.132zM480.184 102.58h.132v.133h-.132zM480.052 102.714h.132v.132h-.132zM480.317 100.86h.132v.13h-.133zM480.45 100.992h.13v.132h-.13zM480.317 101.124h.132v.132h-.133zM480.45 101.257h.13v.132h-.13zM480.317 101.39h.132v.13h-.133zM480.45 101.522h.13v.132h-.13zM480.317 101.654h.132v.132h-.133zM480.45 101.787h.13v.132h-.13zM480.317 101.92h.132v.13h-.133zM480.45 102.052h.13v.132h-.13zM480.317 102.184h.132v.132h-.133zM480.45 102.316h.13v.132h-.13zM480.317 102.45h.132v.13h-.133zM480.45 102.58h.13v.133h-.13zM480.317 102.714h.132v.132h-.133zM480.582 100.86h.132v.13h-.132zM480.714 100.992h.132v.132h-.132zM480.582 101.124h.132v.132h-.132zM480.714 101.257h.132v.132h-.132zM480.582 101.39h.132v.13h-.132zM480.714 101.522h.132v.132h-.132zM480.582 101.654h.132v.132h-.132zM480.714 101.787h.132v.132h-.132zM480.582 101.92h.132v.13h-.132zM480.714 102.052h.132v.132h-.132zM480.582 102.184h.132v.132h-.132zM480.714 102.316h.132v.132h-.132zM480.582 102.45h.132v.13h-.132zM480.714 102.58h.132v.133h-.132zM480.582 102.714h.132v.132h-.132zM480.846 100.86h.132v.13h-.132zM480.98 100.992h.13v.132h-.13zM480.846 101.124h.132v.132h-.132zM480.98 101.257h.13v.132h-.13zM480.846 101.39h.132v.13h-.132zM480.98 101.522h.13v.132h-.13zM480.846 101.654h.132v.132h-.132zM480.98 101.787h.13v.132h-.13zM480.846 101.92h.132v.13h-.132zM480.98 102.052h.13v.132h-.13zM480.846 102.184h.132v.132h-.132zM480.98 102.316h.13v.132h-.13zM480.846 102.45h.132v.13h-.132zM480.98 102.58h.13v.133h-.13zM480.846 102.714h.132v.132h-.132zM481.11 100.86h.133v.13h-.132zM481.244 100.992h.132v.132h-.132zM481.11 101.124h.133v.132h-.132zM481.244 101.257h.132v.132h-.132zM481.11 101.39h.133v.13h-.132zM481.244 101.522h.132v.132h-.132zM481.11 101.654h.133v.132h-.132zM481.244 101.787h.132v.132h-.132zM481.11 101.92h.133v.13h-.132zM481.244 102.052h.132v.132h-.132zM481.11 102.184h.133v.132h-.132zM481.244 102.316h.132v.132h-.132zM481.11 102.45h.133v.13h-.132zM481.244 102.58h.132v.133h-.132zM481.11 102.714h.133v.132h-.132zM481.376 100.86h.132v.13h-.132zM481.51 100.992h.13v.132h-.13z"/><path d="M481.376 101.124h.132v.132h-.132zM481.51 101.257h.13v.132h-.13zM481.376 101.39h.132v.13h-.132zM481.51 101.522h.13v.132h-.13zM481.376 101.654h.132v.132h-.132zM481.51 101.787h.13v.132h-.13zM481.376 101.92h.132v.13h-.132zM481.51 102.052h.13v.132h-.13zM481.376 102.184h.132v.132h-.132zM481.51 102.316h.13v.132h-.13zM481.376 102.45h.132v.13h-.132zM481.51 102.58h.13v.133h-.13zM481.376 102.714h.132v.132h-.132zM481.64 100.86h.133v.13h-.132zM481.774 100.992h.132v.132h-.132zM481.64 101.124h.133v.132h-.132zM481.774 101.257h.132v.132h-.132zM481.64 101.39h.133v.13h-.132zM481.774 101.522h.132v.132h-.132zM481.64 101.654h.133v.132h-.132zM481.774 101.787h.132v.132h-.132zM481.64 101.92h.133v.13h-.132zM481.774 102.052h.132v.132h-.132zM481.64 102.184h.133v.132h-.132zM481.774 102.316h.132v.132h-.132zM481.64 102.45h.133v.13h-.132zM481.774 102.58h.132v.133h-.132zM481.64 102.714h.133v.132h-.132zM481.906 100.86h.132v.13h-.132zM482.04 100.992h.13v.132h-.13zM481.906 101.124h.132v.132h-.132zM482.04 101.257h.13v.132h-.13zM481.906 101.39h.132v.13h-.132zM482.04 101.522h.13v.132h-.13zM481.906 101.654h.132v.132h-.132zM482.04 101.787h.13v.132h-.13zM481.906 101.92h.132v.13h-.132zM482.04 102.052h.13v.132h-.13zM481.906 102.184h.132v.132h-.132zM482.04 102.316h.13v.132h-.13zM481.906 102.45h.132v.13h-.132zM482.04 102.58h.13v.133h-.13zM481.906 102.714h.132v.132h-.132zM482.17 100.86h.133v.13h-.132zM482.304 100.992h.132v.132h-.132zM482.17 101.124h.133v.132h-.132zM482.304 101.257h.132v.132h-.132zM482.17 101.39h.133v.13h-.132zM482.304 101.522h.132v.132h-.132zM482.17 101.654h.133v.132h-.132zM482.304 101.787h.132v.132h-.132zM482.17 101.92h.133v.13h-.132zM482.304 102.052h.132v.132h-.132zM482.17 102.184h.133v.132h-.132zM482.304 102.316h.132v.132h-.132zM482.17 102.45h.133v.13h-.132zM482.304 102.58h.132v.133h-.132zM482.17 102.714h.133v.132h-.132zM482.436 100.86h.132v.13h-.132zM482.57 100.992h.13v.132h-.13zM482.436 101.124h.132v.132h-.132zM482.57 101.257h.13v.132h-.13zM482.436 101.39h.132v.13h-.132zM482.57 101.522h.13v.132h-.13zM482.436 101.654h.132v.132h-.132zM482.57 101.787h.13v.132h-.13zM482.436 101.92h.132v.13h-.132zM482.57 102.052h.13v.132h-.13zM482.436 102.184h.132v.132h-.132zM482.57 102.316h.13v.132h-.13zM482.436 102.45h.132v.13h-.132zM482.57 102.58h.13v.133h-.13zM482.436 102.714h.132v.132h-.132zM482.7 100.86h.133v.13h-.132zM482.833 100.992h.132v.132h-.132zM482.7 101.124h.133v.132h-.132zM482.833 101.257h.132v.132h-.132zM482.7 101.39h.133v.13h-.132zM482.833 101.522h.132v.132h-.132zM482.7 101.654h.133v.132h-.132zM482.833 101.787h.132v.132h-.132zM482.7 101.92h.133v.13h-.132zM482.833 102.052h.132v.132h-.132zM482.7 102.184h.133v.132h-.132zM482.833 102.316h.132v.132h-.132zM482.7 102.45h.133v.13h-.132zM482.833 102.58h.132v.133h-.132zM482.7 102.714h.133v.132h-.132zM482.966 100.86h.132v.13h-.132zM483.098 100.992h.132v.132h-.132zM482.966 101.124h.132v.132h-.132zM483.098 101.257h.132v.132h-.132zM482.966 101.39h.132v.13h-.132zM483.098 101.522h.132v.132h-.132zM482.966 101.654h.132v.132h-.132zM483.098 101.787h.132v.132h-.132zM482.966 101.92h.132v.13h-.132zM483.098 102.052h.132v.132h-.132zM482.966 102.184h.132v.132h-.132zM483.098 102.316h.132v.132h-.132zM482.966 102.45h.132v.13h-.132zM483.098 102.58h.132v.133h-.132zM482.966 102.714h.132v.132h-.132zM483.23 100.86h.133v.13h-.132zM483.363 100.992h.132v.132h-.132zM483.23 101.124h.133v.132h-.132zM483.363 101.257h.132v.132h-.132zM483.23 101.39h.133v.13h-.132zM483.363 101.522h.132v.132h-.132zM483.23 101.654h.133v.132h-.132zM483.363 101.787h.132v.132h-.132zM483.23 101.92h.133v.13h-.132zM483.363 102.052h.132v.132h-.132zM483.23 102.184h.133v.132h-.132zM483.363 102.316h.132v.132h-.132zM483.23 102.45h.133v.13h-.132zM483.363 102.58h.132v.133h-.132zM483.23 102.714h.133v.132h-.132zM483.496 100.86h.132v.13h-.132zM483.628 100.992h.132v.132h-.132zM483.496 101.124h.132v.132h-.132zM483.628 101.257h.132v.132h-.132zM483.496 101.39h.132v.13h-.132zM483.628 101.522h.132v.132h-.132zM483.496 101.654h.132v.132h-.132zM483.628 101.787h.132v.132h-.132zM483.496 101.92h.132v.13h-.132zM483.628 102.052h.132v.132h-.132zM483.496 102.184h.132v.132h-.132zM483.628 102.316h.132v.132h-.132zM483.496 102.45h.132v.13h-.132zM483.628 102.58h.132v.133h-.132zM483.496 102.714h.132v.132h-.132zM483.76 100.86h.133v.13h-.132zM483.893 100.992h.132v.132h-.132zM483.76 101.124h.133v.132h-.132zM483.893 101.257h.132v.132h-.132zM483.76 101.39h.133v.13h-.132zM483.893 101.522h.132v.132h-.132zM483.76 101.654h.133v.132h-.132zM483.893 101.787h.132v.132h-.132zM483.76 101.92h.133v.13h-.132zM483.893 102.052h.132v.132h-.132zM483.76 102.184h.133v.132h-.132zM483.893 102.316h.132v.132h-.132zM483.76 102.45h.133v.13h-.132zM483.893 102.58h.132v.133h-.132zM483.76 102.714h.133v.132h-.132zM484.026 100.86h.132v.13h-.132zM484.158 100.992h.132v.132h-.132zM484.026 101.124h.132v.132h-.132zM484.158 101.257h.132v.132h-.132zM484.026 101.39h.132v.13h-.132zM484.158 101.522h.132v.132h-.132zM484.026 101.654h.132v.132h-.132zM484.158 101.787h.132v.132h-.132zM484.026 101.92h.132v.13h-.132zM484.158 102.052h.132v.132h-.132zM484.026 102.184h.132v.132h-.132zM484.158 102.316h.132v.132h-.132zM484.026 102.45h.132v.13h-.132zM484.158 102.58h.132v.133h-.132zM484.026 102.714h.132v.132h-.132zM484.29 100.86h.133v.13h-.132zM484.423 100.992h.132v.132h-.132zM484.29 101.124h.133v.132h-.132zM484.423 101.257h.132v.132h-.132zM484.29 101.39h.133v.13h-.132zM484.423 101.522h.132v.132h-.132zM484.29 101.654h.133v.132h-.132zM484.423 101.787h.132v.132h-.132zM484.29 101.92h.133v.13h-.132zM484.423 102.052h.132v.132h-.132zM484.29 102.184h.133v.132h-.132zM484.423 102.316h.132v.132h-.132zM484.29 102.45h.133v.13h-.132zM484.423 102.58h.132v.133h-.132zM484.29 102.714h.133v.132h-.132zM484.555 100.86h.132v.13h-.132zM484.688 100.992h.132v.132h-.132zM484.555 101.124h.132v.132h-.132zM484.688 101.257h.132v.132h-.132zM484.555 101.39h.132v.13h-.132zM484.688 101.522h.132v.132h-.132zM484.555 101.654h.132v.132h-.132zM484.688 101.787h.132v.132h-.132zM484.555 101.92h.132v.13h-.132zM484.688 102.052h.132v.132h-.132zM484.555 102.184h.132v.132h-.132zM484.688 102.316h.132v.132h-.132zM484.555 102.45h.132v.13h-.132zM484.688 102.58h.132v.133h-.132zM484.555 102.714h.132v.132h-.132zM484.82 100.86h.132v.13h-.132zM484.953 100.992h.132v.132h-.132zM484.82 101.124h.132v.132h-.132zM484.953 101.257h.132v.132h-.132zM484.82 101.39h.132v.13h-.132zM484.953 101.522h.132v.132h-.132zM484.82 101.654h.132v.132h-.132zM484.953 101.787h.132v.132h-.132zM484.82 101.92h.132v.13h-.132zM484.953 102.052h.132v.132h-.132zM484.82 102.184h.132v.132h-.132zM484.953 102.316h.132v.132h-.132zM484.82 102.45h.132v.13h-.132zM484.953 102.58h.132v.133h-.132zM484.82 102.714h.132v.132h-.132zM485.085 100.86h.132v.13h-.132zM485.218 100.992h.132v.132h-.132zM485.085 101.124h.132v.132h-.132zM485.218 101.257h.132v.132h-.132zM485.085 101.39h.132v.13h-.132zM485.218 101.522h.132v.132h-.132zM485.085 101.654h.132v.132h-.132zM485.218 101.787h.132v.132h-.132zM485.085 101.92h.132v.13h-.132zM485.218 102.052h.132v.132h-.132zM485.085 102.184h.132v.132h-.132zM485.218 102.316h.132v.132h-.132zM485.085 102.45h.132v.13h-.132zM485.218 102.58h.132v.133h-.132zM485.085 102.714h.132v.132h-.132zM485.35 100.86h.132v.13h-.132zM485.483 100.992h.132v.132h-.132zM485.35 101.124h.132v.132h-.132zM485.483 101.257h.132v.132h-.132zM485.35 101.39h.132v.13h-.132zM485.483 101.522h.132v.132h-.132zM485.35 101.654h.132v.132h-.132zM485.483 101.787h.132v.132h-.132zM485.35 101.92h.132v.13h-.132zM485.483 102.052h.132v.132h-.132zM485.35 102.184h.132v.132h-.132zM485.483 102.316h.132v.132h-.132zM485.35 102.45h.132v.13h-.132zM485.483 102.58h.132v.133h-.132zM485.35 102.714h.132v.132h-.132zM485.615 100.86h.132v.13h-.132zM485.748 100.992h.132v.132h-.132zM485.615 101.124h.132v.132h-.132zM485.748 101.257h.132v.132h-.132zM485.615 101.39h.132v.13h-.132zM485.748 101.522h.132v.132h-.132zM485.615 101.654h.132v.132h-.132zM485.748 101.787h.132v.132h-.132zM485.615 101.92h.132v.13h-.132zM485.748 102.052h.132v.132h-.132zM485.615 102.184h.132v.132h-.132zM485.748 102.316h.132v.132h-.132zM485.615 102.45h.132v.13h-.132zM485.748 102.58h.132v.133h-.132zM485.615 102.714h.132v.132h-.132zM485.88 100.86h.132v.13h-.132zM486.013 100.992h.132v.132h-.132zM485.88 101.124h.132v.132h-.132zM486.013 101.257h.132v.132h-.132zM485.88 101.39h.132v.13h-.132zM486.013 101.522h.132v.132h-.132zM485.88 101.654h.132v.132h-.132zM486.013 101.787h.132v.132h-.132zM485.88 101.92h.132v.13h-.132zM486.013 102.052h.132v.132h-.132zM485.88 102.184h.132v.132h-.132zM486.013 102.316h.132v.132h-.132zM485.88 102.45h.132v.13h-.132zM486.013 102.58h.132v.133h-.132zM485.88 102.714h.132v.132h-.132zM486.145 100.86h.132v.13h-.132zM486.277 100.992h.132v.132h-.133z"/><path d="M486.145 101.124h.132v.132h-.132zM486.277 101.257h.132v.132h-.133zM486.145 101.39h.132v.13h-.132zM486.277 101.522h.132v.132h-.133z"/><path d="M486.145 101.654h.132v.132h-.132zM486.277 101.787h.132v.132h-.133zM486.145 101.92h.132v.13h-.132zM486.277 102.052h.132v.132h-.133z"/><path d="M486.145 102.184h.132v.132h-.132zM486.277 102.316h.132v.132h-.133zM486.145 102.45h.132v.13h-.132zM486.277 102.58h.132v.133h-.133zM486.145 102.714h.132v.132h-.132zM486.41 100.86h.132v.13h-.132zM486.542 100.992h.132v.132h-.132z"/><path d="M486.41 101.124h.132v.132h-.132zM486.542 101.257h.132v.132h-.132zM486.41 101.39h.132v.13h-.132zM486.542 101.522h.132v.132h-.132z"/><path d="M486.41 101.654h.132v.132h-.132zM486.542 101.787h.132v.132h-.132zM486.41 101.92h.132v.13h-.132zM486.542 102.052h.132v.132h-.132z"/><path d="M486.41 102.184h.132v.132h-.132zM486.542 102.316h.132v.132h-.132zM486.41 102.45h.132v.13h-.132zM486.542 102.58h.132v.133h-.132zM486.41 102.714h.132v.132h-.132zM486.675 100.86h.132v.13h-.132zM486.807 100.992h.132v.132h-.133z"/><path d="M486.675 101.124h.132v.132h-.132zM486.807 101.257h.132v.132h-.133zM486.675 101.39h.132v.13h-.132zM486.807 101.522h.132v.132h-.133z"/><path d="M486.675 101.654h.132v.132h-.132zM486.807 101.787h.132v.132h-.133zM486.675 101.92h.132v.13h-.132zM486.807 102.052h.132v.132h-.133z"/><path d="M486.675 102.184h.132v.132h-.132zM486.807 102.316h.132v.132h-.133zM486.675 102.45h.132v.13h-.132zM486.807 102.58h.132v.133h-.133zM486.675 102.714h.132v.132h-.132zM486.94 100.86h.132v.13h-.132zM487.072 100.992h.132v.132h-.132zM486.94 101.124h.132v.132h-.132zM487.072 101.257h.132v.132h-.132zM486.94 101.39h.132v.13h-.132zM487.072 101.522h.132v.132h-.132zM486.94 101.654h.132v.132h-.132zM487.072 101.787h.132v.132h-.132zM486.94 101.92h.132v.13h-.132zM487.072 102.052h.132v.132h-.132zM486.94 102.184h.132v.132h-.132zM487.072 102.316h.132v.132h-.132zM486.94 102.45h.132v.13h-.132zM487.072 102.58h.132v.133h-.132zM486.94 102.714h.132v.132h-.132zM487.205 100.86h.132v.13h-.132zM487.337 100.992h.132v.132h-.133z"/><path d="M487.205 101.124h.132v.132h-.132zM487.337 101.257h.132v.132h-.133zM487.205 101.39h.132v.13h-.132zM487.337 101.522h.132v.132h-.133z"/><path d="M487.205 101.654h.132v.132h-.132zM487.337 101.787h.132v.132h-.133zM487.205 101.92h.132v.13h-.132zM487.337 102.052h.132v.132h-.133z"/><path d="M487.205 102.184h.132v.132h-.132zM487.337 102.316h.132v.132h-.133zM487.205 102.45h.132v.13h-.132zM487.337 102.58h.132v.133h-.133zM487.205 102.714h.132v.132h-.132zM487.47 100.86h.132v.13h-.132zM487.602 100.992h.132v.132h-.132z"/><path d="M487.47 101.124h.132v.132h-.132zM487.602 101.257h.132v.132h-.132zM487.47 101.39h.132v.13h-.132zM487.602 101.522h.132v.132h-.132z"/><path d="M487.47 101.654h.132v.132h-.132zM487.602 101.787h.132v.132h-.132zM487.47 101.92h.132v.13h-.132zM487.602 102.052h.132v.132h-.132z"/><path d="M487.47 102.184h.132v.132h-.132zM487.602 102.316h.132v.132h-.132zM487.47 102.45h.132v.13h-.132zM487.602 102.58h.132v.133h-.132zM487.47 102.714h.132v.132h-.132zM487.735 100.86h.132v.13h-.132zM487.867 100.992H488v.132h-.133zM487.735 101.124h.132v.132h-.132zM487.867 101.257H488v.132h-.133zM487.735 101.39h.132v.13h-.132zM487.867 101.522H488v.132h-.133zM487.735 101.654h.132v.132h-.132zM487.867 101.787H488v.132h-.133zM487.735 101.92h.132v.13h-.132zM487.867 102.052H488v.132h-.133zM487.735 102.184h.132v.132h-.132zM487.867 102.316H488v.132h-.133zM487.735 102.45h.132v.13h-.132zM487.867 102.58H488v.133h-.133zM487.735 102.714h.132v.132h-.132zM488 100.86h.132v.13H488zM488.132 100.992h.132v.132h-.132zM488 101.124h.132v.132H488zM488.132 101.257h.132v.132h-.132zM488 101.39h.132v.13H488zM488.132 101.522h.132v.132h-.132zM488 101.654h.132v.132H488zM488.132 101.787h.132v.132h-.132zM488 101.92h.132v.13H488zM488.132 102.052h.132v.132h-.132zM488 102.184h.132v.132H488zM488.132 102.316h.132v.132h-.132zM488 102.45h.132v.13H488zM488.132 102.58h.132v.133h-.132zM488 102.714h.132v.132H488zM488.264 100.86h.132v.13h-.132zM488.397 100.992h.132v.132h-.133zM488.264 101.124h.132v.132h-.132zM488.397 101.257h.132v.132h-.133zM488.264 101.39h.132v.13h-.132zM488.397 101.522h.132v.132h-.133zM488.264 101.654h.132v.132h-.132zM488.397 101.787h.132v.132h-.133zM488.264 101.92h.132v.13h-.132zM488.397 102.052h.132v.132h-.133zM488.264 102.184h.132v.132h-.132zM488.397 102.316h.132v.132h-.133zM488.264 102.45h.132v.13h-.132zM488.397 102.58h.132v.133h-.133zM488.264 102.714h.132v.132h-.132zM488.53 101.124h.13v.132h-.13zM488.662 101.257h.132v.132h-.132zM488.53 101.39h.13v.13h-.13zM488.662 101.522h.132v.132h-.132zM488.53 101.654h.13v.132h-.13zM488.662 101.787h.132v.132h-.132zM488.53 101.92h.13v.13h-.13zM488.662 102.052h.132v.132h-.132zM488.53 102.184h.13v.132h-.13zM488.662 102.316h.132v.132h-.132zM488.53 102.45h.13v.13h-.13zM488.794 101.39h.132v.13h-.132zM488.794 101.654h.132v.132h-.132zM488.794 101.92h.132v.13h-.132zM488.794 102.184h.132v.132h-.132z"/></g><path opacity=".8" fill="#171A1B" d="M487.983 100.992h-17.15c-.614 0-1.113.437-1.113.975 0 .54.5.975 1.114.975h17.15c.614 0 1.113-.437 1.113-.975 0-.54-.5-.975-1.114-.975zm0 1.706h-17.15c-.46 0-.834-.328-.834-.73 0-.404.374-.732.834-.732h17.15c.46 0 .834.328.834.73 0 .404-.375.732-.835.732z"/><linearGradient id="p" gradientUnits="userSpaceOnUse" x1="479.408" y1="100.973" x2="479.408" y2="103.001"><stop offset=".005" stop-color="#171A1B"/><stop offset="1" stop-color="#6F7170"/></linearGradient><path fill="url(#p)" d="M487.983 100.714h-17.15c-.614 0-1.113.5-1.113 1.114 0 .615.5 1.114 1.114 1.114h17.15c.614 0 1.113-.5 1.113-1.114 0-.615-.5-1.114-1.114-1.114zm0 1.95h-17.15c-.46 0-.834-.375-.834-.836s.374-.835.834-.835h17.15c.46 0 .834.374.834.835s-.375.835-.835.835z"/></g><path fill="#F0DBCA" d="M419.726 308.61h1.953v3.55h-1.954zM536.884 308.61h1.953v3.55h-1.953z"/><circle fill="#040305" cx="479.489" cy="93.759" r="1.292"/><g><path fill="#787878" d="M160 229.657v83.066c0 9.938 8.085 18.023 18.023 18.023H387.5c9.938 0 18.023-8.085 18.023-18.023v-83.066c0-9.938-8.085-18.023-18.023-18.023H178.023c-9.938 0-18.023 8.085-18.023 18.023zm227.5-16.07c8.875 0 16.07 7.195 16.07 16.07v83.065c0 8.875-7.196 16.07-16.07 16.07H178.023c-8.875 0-16.07-7.195-16.07-16.07v-83.066c0-8.875 7.196-16.07 16.07-16.07H387.5z"/><defs><filter id="q" filterUnits="userSpaceOnUse" x="160" y="211.634" width="245.523" height="119.112"><feColorMatrix values="-1 0 0 0 1 0 -1 0 0 1 0 0 -1 0 1 0 0 0 1 0" color-interpolation-filters="sRGB" result="source"/></filter></defs><mask maskUnits="userSpaceOnUse" x="160" y="211.634" width="245.523" height="119.112" id="r"><image overflow="visible" width="1040" height="513" xlink:href="7A7152F5.jpg" transform="matrix(.24 0 0 .24 158 209.63)" filter="url(#q)"/></mask><path fill="#CDCCCC" d="M160 229.657v83.066c0 9.938 8.085 18.023 18.023 18.023H387.5c9.938 0 18.023-8.085 18.023-18.023v-83.066c0-9.938-8.085-18.023-18.023-18.023H178.023c-9.938 0-18.023 8.085-18.023 18.023zm227.5-16.07c8.875 0 16.07 7.195 16.07 16.07v83.065c0 8.875-7.196 16.07-16.07 16.07H178.023c-8.875 0-16.07-7.195-16.07-16.07v-83.066c0-8.875 7.196-16.07 16.07-16.07H387.5z" mask="url(#r)"/><path fill="#ABABAB" d="M387.5 213.587c8.875 0 16.07 7.195 16.07 16.07v83.065c0 8.875-7.196 16.07-16.07 16.07H178.023c-8.875 0-16.07-7.195-16.07-16.07v-83.066c0-8.875 7.196-16.07 16.07-16.07H387.5z"/><linearGradient id="s" gradientUnits="userSpaceOnUse" x1="210.158" y1="246.897" x2="311.442" y2="246.897" gradientTransform="rotate(-90 285.68 249.81)"><stop offset=".005" stop-color="#AC8D7B"/><stop offset=".07" stop-color="#D0C3B3"/></linearGradient><path opacity=".1" fill="url(#s)" d="M163.348 229.657v83.066c0 8.092 6.583 14.674 14.674 14.674H387.5c8.09 0 14.674-6.583 14.674-14.674v-83.066c0-8.09-6.583-14.674-14.674-14.674H178.023c-8.092 0-14.675 6.582-14.675 14.674zm224.152-13c7.168 0 13 5.832 13 13v83.066c0 7.168-5.832 13-13 13H178.023c-7.168 0-13-5.832-13-13v-83.066c0-7.168 5.832-13 13-13H387.5z"/><path fill="#6D6D6D" d="M380.51 271.19c0 5.16 4.184 9.345 9.345 9.345 5.16 0 9.345-4.184 9.345-9.345 0-5.16-4.184-9.345-9.345-9.345-5.16 0-9.345 4.184-9.345 9.345zm17.793 0c0 4.666-3.782 8.448-8.448 8.448s-8.448-3.782-8.448-8.448 3.782-8.448 8.448-8.448 8.448 3.782 8.448 8.448z"/><path fill="#787878" d="M386.59 278.984c-3.044-1.277-5.183-4.285-5.183-7.794 0-2.218.856-4.236 2.255-5.743l-.353-.923c-1.727 1.696-2.8 4.055-2.8 6.666 0 3.884 2.37 7.214 5.743 8.624l.337-.83z"/><path fill="#262626" d="M189.393 219.277H375.03v104.638H189.392z"/><g fill="#FFF"><path d="M191.928 236.888v-.07c0-.47-.244-.596-.43-.607v-.4h2.478v.488h-1.706v.59h-.342zM191.5 234.41c0-.583.4-.858 1.27-.858.868 0 1.272.276 1.272.858s-.405.858-1.273.858c-.87 0-1.27-.275-1.27-.858zm2.152 0c0-.28-.244-.356-.883-.356-.64 0-.88.076-.88.356 0 .28.24.356.88.356.637 0 .882-.077.882-.356zM191.5 232.33c0-.583.4-.86 1.27-.86.868 0 1.272.277 1.272.86 0 .58-.405.857-1.273.857-.87 0-1.27-.276-1.27-.858zm2.152 0c0-.28-.244-.357-.883-.357-.64 0-.88.077-.88.356 0 .278.24.355.88.355.637 0 .882-.077.882-.356zM191.5 230.625c0-.345.285-.635.634-.635.352 0 .635.29.635.635 0 .35-.28.635-.636.635-.352 0-.635-.286-.635-.635zm.91 0c0-.15-.122-.276-.276-.276s-.276.125-.276.275c0 .15.122.276.276.276s.276-.125.276-.275zm1.632-.244v.26l-2.543-1.39v-.258l2.542 1.39zm-1.294-1.39c0-.347.286-.636.635-.636.352 0 .635.29.635.635 0 .348-.28.634-.635.634-.353 0-.635-.286-.635-.635zm.91 0c0-.15-.122-.277-.275-.277-.154 0-.276.126-.276.276s.122.275.276.275c.153 0 .275-.126.275-.276z"/></g><g fill="#FFF"><path d="M193.404 276.537h.004c.17-.028.244-.136.244-.286 0-.202-.17-.404-.69-.407l-.008.007c.167.112.21.304.21.47 0 .475-.36.75-.776.75-.607 0-.89-.36-.89-.844 0-.858.925-.872 1.274-.872.96 0 1.27.453 1.27.9 0 .422-.244.726-.638.768v-.485zm-.632-.32c0-.172-.122-.36-.415-.36-.283 0-.457.122-.457.373 0 .126.063.352.42.352.372 0 .452-.18.452-.366zM192.7 274.39v.523h-.51v-.523h.51zm1.276 0v.523h-.51v-.523h.51zM193.428 272.236v.276h.548V273h-.548v.977h-.422l-1.507-.91v-.556h1.548v-.275h.38zm-.38.764c-.6 0-.987-.01-1.064-.01v.006l1.064.62V273zM191.928 271.89v-.07c0-.472-.244-.597-.43-.608v-.4h2.478v.488h-1.706v.59h-.342zM193.976 268.772v.55l-2.505-.892v-.604l2.506-.883v.57l-.516.16v.924l.516.175zm-.95-.314v-.64l-.99.312v.007l.99.32zM193.976 264.202v.49h-2.093v.006l2.093.467v.513l-2.093.457v.007h2.093v.49h-2.505v-.765l1.976-.453v-.007l-1.975-.447v-.757h2.506z"/></g><path fill="#FFF" d="M193.84 226.94c0 .075-.06.136-.136.136h-1.946c-.075 0-.136-.06-.136-.136v-5.663c0-.075.06-.137.136-.137h1.946c.075 0 .136.06.136.137v5.663z"/><path fill="#FFF" d="M192.73 220.33c-.28 0-.504.223-.517.5h-.455c-.246 0-.446.2-.446.446v5.663c0 .245.2.444.446.444h1.946c.246 0 .446-.2.446-.445v-5.664c0-.246-.2-.446-.446-.446h-.455c-.014-.277-.24-.5-.52-.5zm.974.617c.182 0 .33.148.33.33v5.663c0 .182-.15.33-.33.33h-1.946c-.182 0-.33-.15-.33-.33v-5.663c0-.182.15-.33.33-.33h1.946z"/><circle fill="#FFF" cx="192.763" cy="320.824" r=".794"/><circle fill="#FFF" cx="192.763" cy="318.857" r=".794"/><circle fill="#FFF" cx="192.763" cy="316.889" r=".794"/><circle fill="#FFF" cx="192.763" cy="314.922" r=".794"/><circle fill="#FFF" cx="192.763" cy="312.954" r=".794"/><g fill="#FFF"><path d="M193.122 310.013l.673-.674-.673-.674c-.372.372-.372.975 0 1.347z"/><path d="M192.614 310.522l.258-.26c-.51-.51-.51-1.336 0-1.846l-.258-.258c-.653.652-.653 1.71 0 2.364z"/><path d="M192.377 310.758c-.783-.784-.783-2.054 0-2.837l-.258-.257c-.927.926-.927 2.427 0 3.353l.257-.258z"/></g><path fill="#787878" d="M212.14 330.746h18.216v.775H212.14z"/><path fill="#787878" d="M212.14 331.52h18.206l-.47.388H212.61"/><g fill="#787878"><path d="M191.115 330.746h9.663v.444h-9.663zM191.114 331.19h9.66l-.27.222h-9.12"/></g><path fill="#787878" d="M234.715 330.746h18.215v.775h-18.215z"/><path fill="#787878" d="M234.714 331.52h18.207l-.47.388h-17.265"/><path fill="#888" d="M212.296 210.86h18.215v.774h-18.214zM230.513 210.86h-18.207l.47-.39h17.265"/><linearGradient id="t" gradientUnits="userSpaceOnUse" x1="244.399" y1="138.297" x2="246.772" y2="141.615" gradientTransform="rotate(-90 285.68 249.81)"><stop offset=".005" stop-color="#171A1B"/><stop offset="1" stop-color="#6F7170"/></linearGradient><circle fill="url(#t)" cx="175.443" cy="290.18" r="2.014"/><circle fill="#0A0B0B" cx="175.443" cy="290.18" r="1.08"/><linearGradient id="u" gradientUnits="userSpaceOnUse" x1="245.024" y1="139.288" x2="246.378" y2="140.641" gradientTransform="rotate(-90 285.68 249.81)"><stop offset=".005" stop-color="#2E5390"/><stop offset=".355" stop-color="#090C10"/><stop offset="1" stop-color="#1E3768"/></linearGradient><circle fill="url(#u)" cx="175.523" cy="290.099" r=".935"/><g><path fill="#0A0E0D" d="M174.328 262.49v17.148c0 .615.5 1.114 1.114 1.114.615 0 1.114-.5 1.114-1.114v-17.15c0-.614-.5-1.113-1.114-1.113-.615 0-1.114.498-1.114 1.114z"/><g fill="#656668"><path d="M175.136 280.487h.132v.132h-.132zM175.4 280.487h.133v.132h-.132zM175.666 280.487h.132v.132h-.132zM174.87 280.222h.133v.132h-.132zM175.004 280.354h.132v.132h-.132zM175.136 280.222h.132v.132h-.132zM175.268 280.354h.132v.132h-.132zM175.4 280.222h.133v.132h-.132zM175.533 280.354h.132v.132h-.132zM175.666 280.222h.132v.132h-.132zM175.798 280.354h.132v.132h-.132zM175.93 280.222h.133v.132h-.132zM174.606 279.957h.132v.132h-.132zM174.74 280.09h.13v.132h-.13zM174.87 279.957h.133v.132h-.132zM175.004 280.09h.132v.132h-.132zM175.136 279.957h.132v.132h-.132zM175.268 280.09h.132v.132h-.132zM175.4 279.957h.133v.132h-.132zM175.533 280.09h.132v.132h-.132zM175.666 279.957h.132v.132h-.132zM175.798 280.09h.132v.132h-.132zM175.93 279.957h.133v.132h-.132zM176.063 280.09h.132v.132h-.132zM176.196 279.957h.132v.132h-.132zM174.474 279.825h.132v.132h-.132zM174.606 279.692h.132v.132h-.132zM174.74 279.825h.13v.132h-.13zM174.87 279.692h.133v.132h-.132zM175.004 279.825h.132v.132h-.132zM175.136 279.692h.132v.132h-.132zM175.268 279.825h.132v.132h-.132zM175.4 279.692h.133v.132h-.132zM175.533 279.825h.132v.132h-.132zM175.666 279.692h.132v.132h-.132zM175.798 279.825h.132v.132h-.132zM175.93 279.692h.133v.132h-.132zM176.063 279.825h.132v.132h-.132zM176.196 279.692h.132v.132h-.132zM176.328 279.825h.132v.132h-.132zM174.474 279.56h.132v.132h-.132zM174.606 279.427h.132v.132h-.132zM174.74 279.56h.13v.132h-.13zM174.87 279.427h.133v.132h-.132zM175.004 279.56h.132v.132h-.132zM175.136 279.427h.132v.132h-.132zM175.268 279.56h.132v.132h-.132zM175.4 279.427h.133v.132h-.132zM175.533 279.56h.132v.132h-.132zM175.666 279.427h.132v.132h-.132zM175.798 279.56h.132v.132h-.132zM175.93 279.427h.133v.132h-.132zM176.063 279.56h.132v.132h-.132zM176.196 279.427h.132v.132h-.132zM176.328 279.56h.132v.132h-.132zM174.474 279.295h.132v.132h-.132zM174.606 279.162h.132v.132h-.132zM174.74 279.295h.13v.132h-.13zM174.87 279.162h.133v.132h-.132zM175.004 279.295h.132v.132h-.132zM175.136 279.162h.132v.132h-.132zM175.268 279.295h.132v.132h-.132zM175.4 279.162h.133v.132h-.132zM175.533 279.295h.132v.132h-.132zM175.666 279.162h.132v.132h-.132zM175.798 279.295h.132v.132h-.132zM175.93 279.162h.133v.132h-.132zM176.063 279.295h.132v.132h-.132zM176.196 279.162h.132v.132h-.132zM176.328 279.295h.132v.132h-.132zM174.474 279.03h.132v.132h-.132zM174.606 278.897h.132v.132h-.132zM174.74 279.03h.13v.132h-.13zM174.87 278.897h.133v.132h-.132zM175.004 279.03h.132v.132h-.132zM175.136 278.897h.132v.132h-.132zM175.268 279.03h.132v.132h-.132zM175.4 278.897h.133v.132h-.132zM175.533 279.03h.132v.132h-.132zM175.666 278.897h.132v.132h-.132zM175.798 279.03h.132v.132h-.132zM175.93 278.897h.133v.132h-.132zM176.063 279.03h.132v.132h-.132zM176.196 278.897h.132v.132h-.132zM176.328 279.03h.132v.132h-.132zM174.474 278.765h.132v.132h-.132zM174.606 278.632h.132v.132h-.132zM174.74 278.765h.13v.132h-.13zM174.87 278.632h.133v.132h-.132zM175.004 278.765h.132v.132h-.132zM175.136 278.632h.132v.132h-.132zM175.268 278.765h.132v.132h-.132zM175.4 278.632h.133v.132h-.132zM175.533 278.765h.132v.132h-.132zM175.666 278.632h.132v.132h-.132zM175.798 278.765h.132v.132h-.132zM175.93 278.632h.133v.132h-.132zM176.063 278.765h.132v.132h-.132zM176.196 278.632h.132v.132h-.132zM176.328 278.765h.132v.132h-.132zM174.474 278.5h.132v.132h-.132zM174.606 278.368h.132v.132h-.132zM174.74 278.5h.13v.132h-.13zM174.87 278.368h.133v.132h-.132zM175.004 278.5h.132v.132h-.132zM175.136 278.368h.132v.132h-.132zM175.268 278.5h.132v.132h-.132zM175.4 278.368h.133v.132h-.132zM175.533 278.5h.132v.132h-.132zM175.666 278.368h.132v.132h-.132zM175.798 278.5h.132v.132h-.132zM175.93 278.368h.133v.132h-.132zM176.063 278.5h.132v.132h-.132zM176.196 278.368h.132v.132h-.132zM176.328 278.5h.132v.132h-.132zM174.474 278.235h.132v.132h-.132zM174.606 278.103h.132v.132h-.132zM174.74 278.235h.13v.132h-.13zM174.87 278.103h.133v.132h-.132zM175.004 278.235h.132v.132h-.132zM175.136 278.103h.132v.132h-.132zM175.268 278.235h.132v.132h-.132zM175.4 278.103h.133v.132h-.132zM175.533 278.235h.132v.132h-.132zM175.666 278.103h.132v.132h-.132zM175.798 278.235h.132v.132h-.132zM175.93 278.103h.133v.132h-.132zM176.063 278.235h.132v.132h-.132zM176.196 278.103h.132v.132h-.132zM176.328 278.235h.132v.132h-.132zM174.474 277.97h.132v.132h-.132zM174.606 277.838h.132v.132h-.132zM174.74 277.97h.13v.132h-.13zM174.87 277.838h.133v.132h-.132zM175.004 277.97h.132v.132h-.132zM175.136 277.838h.132v.132h-.132zM175.268 277.97h.132v.132h-.132zM175.4 277.838h.133v.132h-.132zM175.533 277.97h.132v.132h-.132zM175.666 277.838h.132v.132h-.132zM175.798 277.97h.132v.132h-.132zM175.93 277.838h.133v.132h-.132zM176.063 277.97h.132v.132h-.132zM176.196 277.838h.132v.132h-.132zM176.328 277.97h.132v.132h-.132zM174.474 277.705h.132v.132h-.132zM174.606 277.573h.132v.132h-.132zM174.74 277.705h.13v.132h-.13zM174.87 277.573h.133v.132h-.132zM175.004 277.705h.132v.132h-.132zM175.136 277.573h.132v.132h-.132zM175.268 277.705h.132v.132h-.132zM175.4 277.573h.133v.132h-.132zM175.533 277.705h.132v.132h-.132zM175.666 277.573h.132v.132h-.132zM175.798 277.705h.132v.132h-.132zM175.93 277.573h.133v.132h-.132zM176.063 277.705h.132v.132h-.132zM176.196 277.573h.132v.132h-.132zM176.328 277.705h.132v.132h-.132zM174.474 277.44h.132v.132h-.132zM174.606 277.308h.132v.132h-.132zM174.74 277.44h.13v.132h-.13zM174.87 277.308h.133v.132h-.132zM175.004 277.44h.132v.132h-.132zM175.136 277.308h.132v.132h-.132zM175.268 277.44h.132v.132h-.132zM175.4 277.308h.133v.132h-.132zM175.533 277.44h.132v.132h-.132zM175.666 277.308h.132v.132h-.132zM175.798 277.44h.132v.132h-.132zM175.93 277.308h.133v.132h-.132zM176.063 277.44h.132v.132h-.132zM176.196 277.308h.132v.132h-.132zM176.328 277.44h.132v.132h-.132zM174.474 277.175h.132v.132h-.132zM174.606 277.043h.132v.132h-.132zM174.74 277.175h.13v.132h-.13zM174.87 277.043h.133v.132h-.132zM175.004 277.175h.132v.132h-.132zM175.136 277.043h.132v.132h-.132zM175.268 277.175h.132v.132h-.132zM175.4 277.043h.133v.132h-.132zM175.533 277.175h.132v.132h-.132zM175.666 277.043h.132v.132h-.132zM175.798 277.175h.132v.132h-.132zM175.93 277.043h.133v.132h-.132zM176.063 277.175h.132v.132h-.132zM176.196 277.043h.132v.132h-.132zM176.328 277.175h.132v.132h-.132zM174.474 276.91h.132v.132h-.132zM174.606 276.778h.132v.132h-.132zM174.74 276.91h.13v.132h-.13zM174.87 276.778h.133v.132h-.132zM175.004 276.91h.132v.132h-.132zM175.136 276.778h.132v.132h-.132zM175.268 276.91h.132v.132h-.132zM175.4 276.778h.133v.132h-.132zM175.533 276.91h.132v.132h-.132zM175.666 276.778h.132v.132h-.132zM175.798 276.91h.132v.132h-.132zM175.93 276.778h.133v.132h-.132zM176.063 276.91h.132v.132h-.132zM176.196 276.778h.132v.132h-.132zM176.328 276.91h.132v.132h-.132zM174.474 276.645h.132v.132h-.132zM174.606 276.513h.132v.132h-.132zM174.74 276.645h.13v.132h-.13zM174.87 276.513h.133v.132h-.132zM175.004 276.645h.132v.132h-.132zM175.136 276.513h.132v.132h-.132zM175.268 276.645h.132v.132h-.132zM175.4 276.513h.133v.132h-.132zM175.533 276.645h.132v.132h-.132zM175.666 276.513h.132v.132h-.132zM175.798 276.645h.132v.132h-.132zM175.93 276.513h.133v.132h-.132zM176.063 276.645h.132v.132h-.132zM176.196 276.513h.132v.132h-.132zM176.328 276.645h.132v.132h-.132zM174.474 276.38h.132v.133h-.132zM174.606 276.248h.132v.132h-.132zM174.74 276.38h.13v.133h-.13zM174.87 276.248h.133v.132h-.132zM175.004 276.38h.132v.133h-.132zM175.136 276.248h.132v.132h-.132zM175.268 276.38h.132v.133h-.132zM175.4 276.248h.133v.132h-.132zM175.533 276.38h.132v.133h-.132zM175.666 276.248h.132v.132h-.132zM175.798 276.38h.132v.133h-.132zM175.93 276.248h.133v.132h-.132zM176.063 276.38h.132v.133h-.132zM176.196 276.248h.132v.132h-.132zM176.328 276.38h.132v.133h-.132zM174.474 276.116h.132v.132h-.132zM174.606 275.983h.132v.132h-.132zM174.74 276.116h.13v.132h-.13zM174.87 275.983h.133v.132h-.132zM175.004 276.116h.132v.132h-.132zM175.136 275.983h.132v.132h-.132zM175.268 276.116h.132v.132h-.132zM175.4 275.983h.133v.132h-.132zM175.533 276.116h.132v.132h-.132zM175.666 275.983h.132v.132h-.132zM175.798 276.116h.132v.132h-.132zM175.93 275.983h.133v.132h-.132zM176.063 276.116h.132v.132h-.132zM176.196 275.983h.132v.132h-.132zM176.328 276.116h.132v.132h-.132zM174.474 275.85h.132v.133h-.132zM174.606 275.718h.132v.132h-.132zM174.74 275.85h.13v.133h-.13zM174.87 275.718h.133v.132h-.132zM175.004 275.85h.132v.133h-.132zM175.136 275.718h.132v.132h-.132zM175.268 275.85h.132v.133h-.132zM175.4 275.718h.133v.132h-.132zM175.533 275.85h.132v.133h-.132zM175.666 275.718h.132v.132h-.132zM175.798 275.85h.132v.133h-.132zM175.93 275.718h.133v.132h-.132zM176.063 275.85h.132v.133h-.132zM176.196 275.718h.132v.132h-.132zM176.328 275.85h.132v.133h-.132zM174.474 275.586h.132v.132h-.132zM174.606 275.453h.132v.132h-.132zM174.74 275.586h.13v.132h-.13zM174.87 275.453h.133v.132h-.132zM175.004 275.586h.132v.132h-.132zM175.136 275.453h.132v.132h-.132zM175.268 275.586h.132v.132h-.132zM175.4 275.453h.133v.132h-.132zM175.533 275.586h.132v.132h-.132zM175.666 275.453h.132v.132h-.132zM175.798 275.586h.132v.132h-.132zM175.93 275.453h.133v.132h-.132zM176.063 275.586h.132v.132h-.132zM176.196 275.453h.132v.132h-.132zM176.328 275.586h.132v.132h-.132zM174.474 275.32h.132v.133h-.132zM174.606 275.188h.132v.132h-.132zM174.74 275.32h.13v.133h-.13zM174.87 275.188h.133v.132h-.132zM175.004 275.32h.132v.133h-.132zM175.136 275.188h.132v.132h-.132zM175.268 275.32h.132v.133h-.132zM175.4 275.188h.133v.132h-.132zM175.533 275.32h.132v.133h-.132zM175.666 275.188h.132v.132h-.132zM175.798 275.32h.132v.133h-.132zM175.93 275.188h.133v.132h-.132zM176.063 275.32h.132v.133h-.132zM176.196 275.188h.132v.132h-.132zM176.328 275.32h.132v.133h-.132zM174.474 275.056h.132v.132h-.132zM174.606 274.923h.132v.132h-.132zM174.74 275.056h.13v.132h-.13zM174.87 274.923h.133v.132h-.132zM175.004 275.056h.132v.132h-.132zM175.136 274.923h.132v.132h-.132zM175.268 275.056h.132v.132h-.132zM175.4 274.923h.133v.132h-.132zM175.533 275.056h.132v.132h-.132zM175.666 274.923h.132v.132h-.132zM175.798 275.056h.132v.132h-.132zM175.93 274.923h.133v.132h-.132zM176.063 275.056h.132v.132h-.132zM176.196 274.923h.132v.132h-.132zM176.328 275.056h.132v.132h-.132zM174.474 274.79h.132v.133h-.132zM174.606 274.66h.132v.13h-.132zM174.74 274.79h.13v.133h-.13zM174.87 274.66h.133v.13h-.132zM175.004 274.79h.132v.133h-.132zM175.136 274.66h.132v.13h-.132zM175.268 274.79h.132v.133h-.132zM175.4 274.66h.133v.13h-.132zM175.533 274.79h.132v.133h-.132zM175.666 274.66h.132v.13h-.132zM175.798 274.79h.132v.133h-.132zM175.93 274.66h.133v.13h-.132zM176.063 274.79h.132v.133h-.132zM176.196 274.66h.132v.13h-.132zM176.328 274.79h.132v.133h-.132zM174.474 274.526h.132v.132h-.132zM174.606 274.394h.132v.132h-.132zM174.74 274.526h.13v.132h-.13zM174.87 274.394h.133v.132h-.132zM175.004 274.526h.132v.132h-.132zM175.136 274.394h.132v.132h-.132zM175.268 274.526h.132v.132h-.132zM175.4 274.394h.133v.132h-.132zM175.533 274.526h.132v.132h-.132zM175.666 274.394h.132v.132h-.132zM175.798 274.526h.132v.132h-.132zM175.93 274.394h.133v.132h-.132zM176.063 274.526h.132v.132h-.132zM176.196 274.394h.132v.132h-.132zM176.328 274.526h.132v.132h-.132zM174.474 274.26h.132v.133h-.132zM174.606 274.13h.132v.13h-.132zM174.74 274.26h.13v.133h-.13zM174.87 274.13h.133v.13h-.132zM175.004 274.26h.132v.133h-.132zM175.136 274.13h.132v.13h-.132zM175.268 274.26h.132v.133h-.132zM175.4 274.13h.133v.13h-.132zM175.533 274.26h.132v.133h-.132zM175.666 274.13h.132v.13h-.132zM175.798 274.26h.132v.133h-.132zM175.93 274.13h.133v.13h-.132zM176.063 274.26h.132v.133h-.132zM176.196 274.13h.132v.13h-.132zM176.328 274.26h.132v.133h-.132zM174.474 273.996h.132v.132h-.132zM174.606 273.864h.132v.132h-.132zM174.74 273.996h.13v.132h-.13zM174.87 273.864h.133v.132h-.132zM175.004 273.996h.132v.132h-.132zM175.136 273.864h.132v.132h-.132zM175.268 273.996h.132v.132h-.132zM175.4 273.864h.133v.132h-.132zM175.533 273.996h.132v.132h-.132zM175.666 273.864h.132v.132h-.132zM175.798 273.996h.132v.132h-.132zM175.93 273.864h.133v.132h-.132zM176.063 273.996h.132v.132h-.132zM176.196 273.864h.132v.132h-.132zM176.328 273.996h.132v.132h-.132zM174.474 273.73h.132v.133h-.132zM174.606 273.6h.132v.13h-.132zM174.74 273.73h.13v.133h-.13zM174.87 273.6h.133v.13h-.132zM175.004 273.73h.132v.133h-.132zM175.136 273.6h.132v.13h-.132zM175.268 273.73h.132v.133h-.132zM175.4 273.6h.133v.13h-.132zM175.533 273.73h.132v.133h-.132zM175.666 273.6h.132v.13h-.132zM175.798 273.73h.132v.133h-.132zM175.93 273.6h.133v.13h-.132zM176.063 273.73h.132v.133h-.132zM176.196 273.6h.132v.13h-.132zM176.328 273.73h.132v.133h-.132zM174.474 273.466h.132v.132h-.132zM174.606 273.334h.132v.132h-.132zM174.74 273.466h.13v.132h-.13zM174.87 273.334h.133v.132h-.132zM175.004 273.466h.132v.132h-.132zM175.136 273.334h.132v.132h-.132zM175.268 273.466h.132v.132h-.132zM175.4 273.334h.133v.132h-.132zM175.533 273.466h.132v.132h-.132zM175.666 273.334h.132v.132h-.132zM175.798 273.466h.132v.132h-.132zM175.93 273.334h.133v.132h-.132zM176.063 273.466h.132v.132h-.132zM176.196 273.334h.132v.132h-.132zM176.328 273.466h.132v.132h-.132zM174.474 273.2h.132v.133h-.132zM174.606 273.07h.132v.13h-.132zM174.74 273.2h.13v.133h-.13zM174.87 273.07h.133v.13h-.132zM175.004 273.2h.132v.133h-.132zM175.136 273.07h.132v.13h-.132zM175.268 273.2h.132v.133h-.132zM175.4 273.07h.133v.13h-.132zM175.533 273.2h.132v.133h-.132zM175.666 273.07h.132v.13h-.132zM175.798 273.2h.132v.133h-.132zM175.93 273.07h.133v.13h-.132zM176.063 273.2h.132v.133h-.132zM176.196 273.07h.132v.13h-.132zM176.328 273.2h.132v.133h-.132zM174.474 272.937h.132v.132h-.132zM174.606 272.804h.132v.132h-.132zM174.74 272.937h.13v.132h-.13zM174.87 272.804h.133v.132h-.132zM175.004 272.937h.132v.132h-.132zM175.136 272.804h.132v.132h-.132zM175.268 272.937h.132v.132h-.132zM175.4 272.804h.133v.132h-.132zM175.533 272.937h.132v.132h-.132zM175.666 272.804h.132v.132h-.132zM175.798 272.937h.132v.132h-.132zM175.93 272.804h.133v.132h-.132zM176.063 272.937h.132v.132h-.132zM176.196 272.804h.132v.132h-.132zM176.328 272.937h.132v.132h-.132zM174.474 272.672h.132v.132h-.132zM174.606 272.54h.132v.13h-.132zM174.74 272.672h.13v.132h-.13zM174.87 272.54h.133v.13h-.132zM175.004 272.672h.132v.132h-.132zM175.136 272.54h.132v.13h-.132zM175.268 272.672h.132v.132h-.132zM175.4 272.54h.133v.13h-.132z"/><path d="M175.533 272.672h.132v.132h-.132zM175.666 272.54h.132v.13h-.132zM175.798 272.672h.132v.132h-.132zM175.93 272.54h.133v.13h-.132zM176.063 272.672h.132v.132h-.132zM176.196 272.54h.132v.13h-.132zM176.328 272.672h.132v.132h-.132zM174.474 272.407h.132v.132h-.132zM174.606 272.274h.132v.132h-.132zM174.74 272.407h.13v.132h-.13zM174.87 272.274h.133v.132h-.132zM175.004 272.407h.132v.132h-.132zM175.136 272.274h.132v.132h-.132zM175.268 272.407h.132v.132h-.132zM175.4 272.274h.133v.132h-.132zM175.533 272.407h.132v.132h-.132zM175.666 272.274h.132v.132h-.132zM175.798 272.407h.132v.132h-.132zM175.93 272.274h.133v.132h-.132zM176.063 272.407h.132v.132h-.132zM176.196 272.274h.132v.132h-.132zM176.328 272.407h.132v.132h-.132zM174.474 272.142h.132v.132h-.132zM174.606 272.01h.132v.13h-.132zM174.74 272.142h.13v.132h-.13zM174.87 272.01h.133v.13h-.132zM175.004 272.142h.132v.132h-.132zM175.136 272.01h.132v.13h-.132zM175.268 272.142h.132v.132h-.132zM175.4 272.01h.133v.13h-.132zM175.533 272.142h.132v.132h-.132zM175.666 272.01h.132v.13h-.132zM175.798 272.142h.132v.132h-.132zM175.93 272.01h.133v.13h-.132zM176.063 272.142h.132v.132h-.132zM176.196 272.01h.132v.13h-.132zM176.328 272.142h.132v.132h-.132zM174.474 271.877h.132v.132h-.132zM174.606 271.744h.132v.132h-.132zM174.74 271.877h.13v.132h-.13zM174.87 271.744h.133v.132h-.132zM175.004 271.877h.132v.132h-.132zM175.136 271.744h.132v.132h-.132zM175.268 271.877h.132v.132h-.132zM175.4 271.744h.133v.132h-.132zM175.533 271.877h.132v.132h-.132zM175.666 271.744h.132v.132h-.132zM175.798 271.877h.132v.132h-.132zM175.93 271.744h.133v.132h-.132zM176.063 271.877h.132v.132h-.132zM176.196 271.744h.132v.132h-.132zM176.328 271.877h.132v.132h-.132zM174.474 271.612h.132v.132h-.132zM174.606 271.48h.132v.13h-.132zM174.74 271.612h.13v.132h-.13zM174.87 271.48h.133v.13h-.132zM175.004 271.612h.132v.132h-.132zM175.136 271.48h.132v.13h-.132zM175.268 271.612h.132v.132h-.132zM175.4 271.48h.133v.13h-.132zM175.533 271.612h.132v.132h-.132zM175.666 271.48h.132v.13h-.132zM175.798 271.612h.132v.132h-.132zM175.93 271.48h.133v.13h-.132zM176.063 271.612h.132v.132h-.132zM176.196 271.48h.132v.13h-.132zM176.328 271.612h.132v.132h-.132zM174.474 271.347h.132v.132h-.132zM174.606 271.215h.132v.132h-.132zM174.74 271.347h.13v.132h-.13zM174.87 271.215h.133v.132h-.132zM175.004 271.347h.132v.132h-.132zM175.136 271.215h.132v.132h-.132zM175.268 271.347h.132v.132h-.132zM175.4 271.215h.133v.132h-.132zM175.533 271.347h.132v.132h-.132zM175.666 271.215h.132v.132h-.132zM175.798 271.347h.132v.132h-.132zM175.93 271.215h.133v.132h-.132zM176.063 271.347h.132v.132h-.132zM176.196 271.215h.132v.132h-.132zM176.328 271.347h.132v.132h-.132zM174.474 271.082h.132v.132h-.132zM174.606 270.95h.132v.132h-.132zM174.74 271.082h.13v.132h-.13zM174.87 270.95h.133v.132h-.132zM175.004 271.082h.132v.132h-.132zM175.136 270.95h.132v.132h-.132zM175.268 271.082h.132v.132h-.132zM175.4 270.95h.133v.132h-.132zM175.533 271.082h.132v.132h-.132zM175.666 270.95h.132v.132h-.132zM175.798 271.082h.132v.132h-.132zM175.93 270.95h.133v.132h-.132zM176.063 271.082h.132v.132h-.132zM176.196 270.95h.132v.132h-.132zM176.328 271.082h.132v.132h-.132zM174.474 270.817h.132v.132h-.132zM174.606 270.685h.132v.132h-.132zM174.74 270.817h.13v.132h-.13zM174.87 270.685h.133v.132h-.132zM175.004 270.817h.132v.132h-.132zM175.136 270.685h.132v.132h-.132zM175.268 270.817h.132v.132h-.132zM175.4 270.685h.133v.132h-.132zM175.533 270.817h.132v.132h-.132zM175.666 270.685h.132v.132h-.132zM175.798 270.817h.132v.132h-.132zM175.93 270.685h.133v.132h-.132zM176.063 270.817h.132v.132h-.132zM176.196 270.685h.132v.132h-.132zM176.328 270.817h.132v.132h-.132zM174.474 270.552h.132v.132h-.132zM174.606 270.42h.132v.132h-.132zM174.74 270.552h.13v.132h-.13zM174.87 270.42h.133v.132h-.132zM175.004 270.552h.132v.132h-.132zM175.136 270.42h.132v.132h-.132zM175.268 270.552h.132v.132h-.132zM175.4 270.42h.133v.132h-.132zM175.533 270.552h.132v.132h-.132zM175.666 270.42h.132v.132h-.132zM175.798 270.552h.132v.132h-.132zM175.93 270.42h.133v.132h-.132zM176.063 270.552h.132v.132h-.132zM176.196 270.42h.132v.132h-.132zM176.328 270.552h.132v.132h-.132zM174.474 270.287h.132v.132h-.132zM174.606 270.155h.132v.132h-.132zM174.74 270.287h.13v.132h-.13zM174.87 270.155h.133v.132h-.132zM175.004 270.287h.132v.132h-.132zM175.136 270.155h.132v.132h-.132zM175.268 270.287h.132v.132h-.132zM175.4 270.155h.133v.132h-.132zM175.533 270.287h.132v.132h-.132zM175.666 270.155h.132v.132h-.132zM175.798 270.287h.132v.132h-.132zM175.93 270.155h.133v.132h-.132zM176.063 270.287h.132v.132h-.132zM176.196 270.155h.132v.132h-.132zM176.328 270.287h.132v.132h-.132zM174.474 270.022h.132v.132h-.132zM174.606 269.89h.132v.132h-.132zM174.74 270.022h.13v.132h-.13zM174.87 269.89h.133v.132h-.132zM175.004 270.022h.132v.132h-.132zM175.136 269.89h.132v.132h-.132zM175.268 270.022h.132v.132h-.132zM175.4 269.89h.133v.132h-.132zM175.533 270.022h.132v.132h-.132zM175.666 269.89h.132v.132h-.132zM175.798 270.022h.132v.132h-.132zM175.93 269.89h.133v.132h-.132zM176.063 270.022h.132v.132h-.132zM176.196 269.89h.132v.132h-.132zM176.328 270.022h.132v.132h-.132zM174.474 269.757h.132v.132h-.132zM174.606 269.625h.132v.132h-.132zM174.74 269.757h.13v.132h-.13zM174.87 269.625h.133v.132h-.132zM175.004 269.757h.132v.132h-.132zM175.136 269.625h.132v.132h-.132zM175.268 269.757h.132v.132h-.132zM175.4 269.625h.133v.132h-.132zM175.533 269.757h.132v.132h-.132zM175.666 269.625h.132v.132h-.132zM175.798 269.757h.132v.132h-.132zM175.93 269.625h.133v.132h-.132zM176.063 269.757h.132v.132h-.132zM176.196 269.625h.132v.132h-.132zM176.328 269.757h.132v.132h-.132zM174.474 269.492h.132v.132h-.132zM174.606 269.36h.132v.132h-.132zM174.74 269.492h.13v.132h-.13zM174.87 269.36h.133v.132h-.132zM175.004 269.492h.132v.132h-.132zM175.136 269.36h.132v.132h-.132zM175.268 269.492h.132v.132h-.132zM175.4 269.36h.133v.132h-.132zM175.533 269.492h.132v.132h-.132zM175.666 269.36h.132v.132h-.132zM175.798 269.492h.132v.132h-.132zM175.93 269.36h.133v.132h-.132zM176.063 269.492h.132v.132h-.132zM176.196 269.36h.132v.132h-.132zM176.328 269.492h.132v.132h-.132zM174.474 269.228h.132v.132h-.132zM174.606 269.095h.132v.132h-.132zM174.74 269.228h.13v.132h-.13zM174.87 269.095h.133v.132h-.132zM175.004 269.228h.132v.132h-.132zM175.136 269.095h.132v.132h-.132zM175.268 269.228h.132v.132h-.132zM175.4 269.095h.133v.132h-.132zM175.533 269.228h.132v.132h-.132zM175.666 269.095h.132v.132h-.132zM175.798 269.228h.132v.132h-.132zM175.93 269.095h.133v.132h-.132zM176.063 269.228h.132v.132h-.132zM176.196 269.095h.132v.132h-.132zM176.328 269.228h.132v.132h-.132zM174.474 268.963h.132v.132h-.132zM174.606 268.83h.132v.132h-.132zM174.74 268.963h.13v.132h-.13zM174.87 268.83h.133v.132h-.132zM175.004 268.963h.132v.132h-.132zM175.136 268.83h.132v.132h-.132zM175.268 268.963h.132v.132h-.132zM175.4 268.83h.133v.132h-.132zM175.533 268.963h.132v.132h-.132zM175.666 268.83h.132v.132h-.132zM175.798 268.963h.132v.132h-.132zM175.93 268.83h.133v.132h-.132zM176.063 268.963h.132v.132h-.132zM176.196 268.83h.132v.132h-.132zM176.328 268.963h.132v.132h-.132zM174.474 268.698h.132v.132h-.132zM174.606 268.565h.132v.132h-.132zM174.74 268.698h.13v.132h-.13zM174.87 268.565h.133v.132h-.132zM175.004 268.698h.132v.132h-.132zM175.136 268.565h.132v.132h-.132zM175.268 268.698h.132v.132h-.132zM175.4 268.565h.133v.132h-.132zM175.533 268.698h.132v.132h-.132zM175.666 268.565h.132v.132h-.132zM175.798 268.698h.132v.132h-.132zM175.93 268.565h.133v.132h-.132zM176.063 268.698h.132v.132h-.132zM176.196 268.565h.132v.132h-.132zM176.328 268.698h.132v.132h-.132zM174.474 268.433h.132v.132h-.132zM174.606 268.3h.132v.132h-.132zM174.74 268.433h.13v.132h-.13zM174.87 268.3h.133v.132h-.132zM175.004 268.433h.132v.132h-.132zM175.136 268.3h.132v.132h-.132zM175.268 268.433h.132v.132h-.132zM175.4 268.3h.133v.132h-.132zM175.533 268.433h.132v.132h-.132zM175.666 268.3h.132v.132h-.132zM175.798 268.433h.132v.132h-.132zM175.93 268.3h.133v.132h-.132zM176.063 268.433h.132v.132h-.132zM176.196 268.3h.132v.132h-.132zM176.328 268.433h.132v.132h-.132zM174.474 268.168h.132v.132h-.132zM174.606 268.035h.132v.132h-.132zM174.74 268.168h.13v.132h-.13zM174.87 268.035h.133v.132h-.132zM175.004 268.168h.132v.132h-.132zM175.136 268.035h.132v.132h-.132zM175.268 268.168h.132v.132h-.132zM175.4 268.035h.133v.132h-.132zM175.533 268.168h.132v.132h-.132zM175.666 268.035h.132v.132h-.132zM175.798 268.168h.132v.132h-.132zM175.93 268.035h.133v.132h-.132zM176.063 268.168h.132v.132h-.132zM176.196 268.035h.132v.132h-.132zM176.328 268.168h.132v.132h-.132zM174.474 267.903h.132v.132h-.132zM174.606 267.77h.132v.132h-.132zM174.74 267.903h.13v.132h-.13zM174.87 267.77h.133v.132h-.132zM175.004 267.903h.132v.132h-.132zM175.136 267.77h.132v.132h-.132zM175.268 267.903h.132v.132h-.132zM175.4 267.77h.133v.132h-.132zM175.533 267.903h.132v.132h-.132zM175.666 267.77h.132v.132h-.132zM175.798 267.903h.132v.132h-.132zM175.93 267.77h.133v.132h-.132zM176.063 267.903h.132v.132h-.132zM176.196 267.77h.132v.132h-.132zM176.328 267.903h.132v.132h-.132zM174.474 267.638h.132v.132h-.132zM174.606 267.506h.132v.132h-.132zM174.74 267.638h.13v.132h-.13zM174.87 267.506h.133v.132h-.132zM175.004 267.638h.132v.132h-.132zM175.136 267.506h.132v.132h-.132zM175.268 267.638h.132v.132h-.132zM175.4 267.506h.133v.132h-.132zM175.533 267.638h.132v.132h-.132zM175.666 267.506h.132v.132h-.132zM175.798 267.638h.132v.132h-.132zM175.93 267.506h.133v.132h-.132zM176.063 267.638h.132v.132h-.132zM176.196 267.506h.132v.132h-.132zM176.328 267.638h.132v.132h-.132zM174.474 267.373h.132v.132h-.132zM174.606 267.24h.132v.133h-.132zM174.74 267.373h.13v.132h-.13zM174.87 267.24h.133v.133h-.132zM175.004 267.373h.132v.132h-.132zM175.136 267.24h.132v.133h-.132zM175.268 267.373h.132v.132h-.132zM175.4 267.24h.133v.133h-.132zM175.533 267.373h.132v.132h-.132zM175.666 267.24h.132v.133h-.132zM175.798 267.373h.132v.132h-.132zM175.93 267.24h.133v.133h-.132zM176.063 267.373h.132v.132h-.132zM176.196 267.24h.132v.133h-.132zM176.328 267.373h.132v.132h-.132zM174.474 267.108h.132v.132h-.132zM174.606 266.976h.132v.132h-.132zM174.74 267.108h.13v.132h-.13zM174.87 266.976h.133v.132h-.132zM175.004 267.108h.132v.132h-.132zM175.136 266.976h.132v.132h-.132zM175.268 267.108h.132v.132h-.132zM175.4 266.976h.133v.132h-.132zM175.533 267.108h.132v.132h-.132zM175.666 266.976h.132v.132h-.132zM175.798 267.108h.132v.132h-.132zM175.93 266.976h.133v.132h-.132zM176.063 267.108h.132v.132h-.132zM176.196 266.976h.132v.132h-.132zM176.328 267.108h.132v.132h-.132zM174.474 266.843h.132v.132h-.132zM174.606 266.71h.132v.133h-.132zM174.74 266.843h.13v.132h-.13zM174.87 266.71h.133v.133h-.132zM175.004 266.843h.132v.132h-.132zM175.136 266.71h.132v.133h-.132zM175.268 266.843h.132v.132h-.132zM175.4 266.71h.133v.133h-.132zM175.533 266.843h.132v.132h-.132zM175.666 266.71h.132v.133h-.132zM175.798 266.843h.132v.132h-.132zM175.93 266.71h.133v.133h-.132zM176.063 266.843h.132v.132h-.132zM176.196 266.71h.132v.133h-.132zM176.328 266.843h.132v.132h-.132zM174.474 266.578h.132v.132h-.132zM174.606 266.446h.132v.132h-.132zM174.74 266.578h.13v.132h-.13zM174.87 266.446h.133v.132h-.132zM175.004 266.578h.132v.132h-.132zM175.136 266.446h.132v.132h-.132zM175.268 266.578h.132v.132h-.132zM175.4 266.446h.133v.132h-.132z"/><path d="M175.533 266.578h.132v.132h-.132zM175.666 266.446h.132v.132h-.132zM175.798 266.578h.132v.132h-.132zM175.93 266.446h.133v.132h-.132z"/><path d="M176.063 266.578h.132v.132h-.132zM176.196 266.446h.132v.132h-.132zM176.328 266.578h.132v.132h-.132zM174.474 266.313h.132v.132h-.132zM174.606 266.18h.132v.133h-.132zM174.74 266.313h.13v.132h-.13zM174.87 266.18h.133v.133h-.132zM175.004 266.313h.132v.132h-.132zM175.136 266.18h.132v.133h-.132zM175.268 266.313h.132v.132h-.132zM175.4 266.18h.133v.133h-.132zM175.533 266.313h.132v.132h-.132zM175.666 266.18h.132v.133h-.132zM175.798 266.313h.132v.132h-.132zM175.93 266.18h.133v.133h-.132zM176.063 266.313h.132v.132h-.132zM176.196 266.18h.132v.133h-.132zM176.328 266.313h.132v.132h-.132zM174.474 266.048h.132v.132h-.132zM174.606 265.916h.132v.132h-.132zM174.74 266.048h.13v.132h-.13zM174.87 265.916h.133v.132h-.132zM175.004 266.048h.132v.132h-.132zM175.136 265.916h.132v.132h-.132zM175.268 266.048h.132v.132h-.132zM175.4 265.916h.133v.132h-.132zM175.533 266.048h.132v.132h-.132zM175.666 265.916h.132v.132h-.132zM175.798 266.048h.132v.132h-.132zM175.93 265.916h.133v.132h-.132zM176.063 266.048h.132v.132h-.132zM176.196 265.916h.132v.132h-.132zM176.328 266.048h.132v.132h-.132zM174.474 265.784h.132v.132h-.132zM174.606 265.65h.132v.133h-.132zM174.74 265.784h.13v.132h-.13zM174.87 265.65h.133v.133h-.132zM175.004 265.784h.132v.132h-.132zM175.136 265.65h.132v.133h-.132zM175.268 265.784h.132v.132h-.132zM175.4 265.65h.133v.133h-.132zM175.533 265.784h.132v.132h-.132zM175.666 265.65h.132v.133h-.132zM175.798 265.784h.132v.132h-.132zM175.93 265.65h.133v.133h-.132zM176.063 265.784h.132v.132h-.132zM176.196 265.65h.132v.133h-.132zM176.328 265.784h.132v.132h-.132zM174.474 265.52h.132v.13h-.132zM174.606 265.386h.132v.132h-.132zM174.74 265.52h.13v.13h-.13zM174.87 265.386h.133v.132h-.132zM175.004 265.52h.132v.13h-.132zM175.136 265.386h.132v.132h-.132zM175.268 265.52h.132v.13h-.132zM175.4 265.386h.133v.132h-.132zM175.533 265.52h.132v.13h-.132zM175.666 265.386h.132v.132h-.132zM175.798 265.52h.132v.13h-.132zM175.93 265.386h.133v.132h-.132zM176.063 265.52h.132v.13h-.132zM176.196 265.386h.132v.132h-.132zM176.328 265.52h.132v.13h-.132zM174.474 265.254h.132v.132h-.132zM174.606 265.12h.132v.133h-.132zM174.74 265.254h.13v.132h-.13zM174.87 265.12h.133v.133h-.132zM175.004 265.254h.132v.132h-.132zM175.136 265.12h.132v.133h-.132zM175.268 265.254h.132v.132h-.132zM175.4 265.12h.133v.133h-.132zM175.533 265.254h.132v.132h-.132zM175.666 265.12h.132v.133h-.132zM175.798 265.254h.132v.132h-.132zM175.93 265.12h.133v.133h-.132zM176.063 265.254h.132v.132h-.132zM176.196 265.12h.132v.133h-.132zM176.328 265.254h.132v.132h-.132zM174.474 264.99h.132v.13h-.132zM174.606 264.856h.132v.132h-.132zM174.74 264.99h.13v.13h-.13zM174.87 264.856h.133v.132h-.132zM175.004 264.99h.132v.13h-.132zM175.136 264.856h.132v.132h-.132zM175.268 264.99h.132v.13h-.132zM175.4 264.856h.133v.132h-.132zM175.533 264.99h.132v.13h-.132zM175.666 264.856h.132v.132h-.132zM175.798 264.99h.132v.13h-.132zM175.93 264.856h.133v.132h-.132zM176.063 264.99h.132v.13h-.132zM176.196 264.856h.132v.132h-.132zM176.328 264.99h.132v.13h-.132zM174.474 264.724h.132v.132h-.132zM174.606 264.59h.132v.133h-.132zM174.74 264.724h.13v.132h-.13zM174.87 264.59h.133v.133h-.132zM175.004 264.724h.132v.132h-.132zM175.136 264.59h.132v.133h-.132zM175.268 264.724h.132v.132h-.132zM175.4 264.59h.133v.133h-.132zM175.533 264.724h.132v.132h-.132zM175.666 264.59h.132v.133h-.132zM175.798 264.724h.132v.132h-.132zM175.93 264.59h.133v.133h-.132zM176.063 264.724h.132v.132h-.132zM176.196 264.59h.132v.133h-.132zM176.328 264.724h.132v.132h-.132zM174.474 264.46h.132v.13h-.132zM174.606 264.326h.132v.132h-.132zM174.74 264.46h.13v.13h-.13zM174.87 264.326h.133v.132h-.132zM175.004 264.46h.132v.13h-.132zM175.136 264.326h.132v.132h-.132zM175.268 264.46h.132v.13h-.132zM175.4 264.326h.133v.132h-.132zM175.533 264.46h.132v.13h-.132zM175.666 264.326h.132v.132h-.132zM175.798 264.46h.132v.13h-.132zM175.93 264.326h.133v.132h-.132zM176.063 264.46h.132v.13h-.132zM176.196 264.326h.132v.132h-.132zM176.328 264.46h.132v.13h-.132zM174.474 264.194h.132v.132h-.132zM174.606 264.06h.132v.133h-.132zM174.74 264.194h.13v.132h-.13zM174.87 264.06h.133v.133h-.132zM175.004 264.194h.132v.132h-.132zM175.136 264.06h.132v.133h-.132zM175.268 264.194h.132v.132h-.132zM175.4 264.06h.133v.133h-.132zM175.533 264.194h.132v.132h-.132zM175.666 264.06h.132v.133h-.132zM175.798 264.194h.132v.132h-.132zM175.93 264.06h.133v.133h-.132zM176.063 264.194h.132v.132h-.132zM176.196 264.06h.132v.133h-.132zM176.328 264.194h.132v.132h-.132zM174.474 263.93h.132v.13h-.132zM174.606 263.797h.132v.132h-.132zM174.74 263.93h.13v.13h-.13zM174.87 263.797h.133v.132h-.132zM175.004 263.93h.132v.13h-.132zM175.136 263.797h.132v.132h-.132zM175.268 263.93h.132v.13h-.132zM175.4 263.797h.133v.132h-.132zM175.533 263.93h.132v.13h-.132zM175.666 263.797h.132v.132h-.132zM175.798 263.93h.132v.13h-.132zM175.93 263.797h.133v.132h-.132zM176.063 263.93h.132v.13h-.132zM176.196 263.797h.132v.132h-.132zM176.328 263.93h.132v.13h-.132zM174.474 263.664h.132v.132h-.132zM174.606 263.532h.132v.132h-.132zM174.74 263.664h.13v.132h-.13zM174.87 263.532h.133v.132h-.132zM175.004 263.664h.132v.132h-.132zM175.136 263.532h.132v.132h-.132zM175.268 263.664h.132v.132h-.132zM175.4 263.532h.133v.132h-.132zM175.533 263.664h.132v.132h-.132zM175.666 263.532h.132v.132h-.132zM175.798 263.664h.132v.132h-.132zM175.93 263.532h.133v.132h-.132zM176.063 263.664h.132v.132h-.132zM176.196 263.532h.132v.132h-.132zM176.328 263.664h.132v.132h-.132zM174.474 263.4h.132v.13h-.132zM174.606 263.267h.132v.132h-.132zM174.74 263.4h.13v.13h-.13zM174.87 263.267h.133v.132h-.132zM175.004 263.4h.132v.13h-.132zM175.136 263.267h.132v.132h-.132zM175.268 263.4h.132v.13h-.132zM175.4 263.267h.133v.132h-.132zM175.533 263.4h.132v.13h-.132zM175.666 263.267h.132v.132h-.132zM175.798 263.4h.132v.13h-.132zM175.93 263.267h.133v.132h-.132zM176.063 263.4h.132v.13h-.132zM176.196 263.267h.132v.132h-.132zM176.328 263.4h.132v.13h-.132zM174.474 263.134h.132v.132h-.132zM174.606 263.002h.132v.132h-.132zM174.74 263.134h.13v.132h-.13zM174.87 263.002h.133v.132h-.132zM175.004 263.134h.132v.132h-.132zM175.136 263.002h.132v.132h-.132zM175.268 263.134h.132v.132h-.132zM175.4 263.002h.133v.132h-.132zM175.533 263.134h.132v.132h-.132zM175.666 263.002h.132v.132h-.132zM175.798 263.134h.132v.132h-.132zM175.93 263.002h.133v.132h-.132zM176.063 263.134h.132v.132h-.132zM176.196 263.002h.132v.132h-.132zM176.328 263.134h.132v.132h-.132zM174.474 262.87h.132v.13h-.132zM174.606 262.737h.132v.132h-.132zM174.74 262.87h.13v.13h-.13zM174.87 262.737h.133v.132h-.132zM175.004 262.87h.132v.13h-.132zM175.136 262.737h.132v.132h-.132zM175.268 262.87h.132v.13h-.132zM175.4 262.737h.133v.132h-.132zM175.533 262.87h.132v.13h-.132zM175.666 262.737h.132v.132h-.132zM175.798 262.87h.132v.13h-.132zM175.93 262.737h.133v.132h-.132zM176.063 262.87h.132v.13h-.132zM176.196 262.737h.132v.132h-.132zM176.328 262.87h.132v.13h-.132zM174.474 262.604h.132v.132h-.132zM174.606 262.472h.132v.132h-.132zM174.74 262.604h.13v.132h-.13zM174.87 262.472h.133v.132h-.132zM175.004 262.604h.132v.132h-.132zM175.136 262.472h.132v.132h-.132zM175.268 262.604h.132v.132h-.132zM175.4 262.472h.133v.132h-.132zM175.533 262.604h.132v.132h-.132zM175.666 262.472h.132v.132h-.132zM175.798 262.604h.132v.132h-.132zM175.93 262.472h.133v.132h-.132zM176.063 262.604h.132v.132h-.132zM176.196 262.472h.132v.132h-.132zM176.328 262.604h.132v.132h-.132zM174.474 262.34h.132v.13h-.132zM174.606 262.207h.132v.132h-.132zM174.74 262.34h.13v.13h-.13zM174.87 262.207h.133v.132h-.132zM175.004 262.34h.132v.13h-.132zM175.136 262.207h.132v.132h-.132zM175.268 262.34h.132v.13h-.132zM175.4 262.207h.133v.132h-.132zM175.533 262.34h.132v.13h-.132zM175.666 262.207h.132v.132h-.132zM175.798 262.34h.132v.13h-.132zM175.93 262.207h.133v.132h-.132zM176.063 262.34h.132v.13h-.132zM176.196 262.207h.132v.132h-.132zM176.328 262.34h.132v.13h-.132zM174.474 262.075h.132v.132h-.132zM174.606 261.942h.132v.132h-.132zM174.74 262.075h.13v.132h-.13zM174.87 261.942h.133v.132h-.132zM175.004 262.075h.132v.132h-.132zM175.136 261.942h.132v.132h-.132zM175.268 262.075h.132v.132h-.132zM175.4 261.942h.133v.132h-.132zM175.533 262.075h.132v.132h-.132zM175.666 261.942h.132v.132h-.132zM175.798 262.075h.132v.132h-.132zM175.93 261.942h.133v.132h-.132zM176.063 262.075h.132v.132h-.132zM176.196 261.942h.132v.132h-.132zM176.328 262.075h.132v.132h-.132zM174.74 261.81h.13v.132h-.13zM174.87 261.677h.133v.132h-.132zM175.004 261.81h.132v.132h-.132zM175.136 261.677h.132v.132h-.132zM175.268 261.81h.132v.132h-.132zM175.4 261.677h.133v.132h-.132zM175.533 261.81h.132v.132h-.132zM175.666 261.677h.132v.132h-.132zM175.798 261.81h.132v.132h-.132zM175.93 261.677h.133v.132h-.132zM176.063 261.81h.132v.132h-.132zM175.004 261.545h.132v.132h-.132zM175.268 261.545h.132v.132h-.132zM175.533 261.545h.132v.132h-.132zM175.798 261.545h.132v.132h-.132z"/></g><path opacity=".8" fill="#171A1B" d="M174.606 262.49v17.148c0 .615.437 1.114.975 1.114.54 0 .976-.5.976-1.114v-17.15c0-.614-.437-1.113-.975-1.113-.537 0-.974.498-.974 1.114zm1.706 0v17.148c0 .46-.328.835-.73.835-.404 0-.732-.375-.732-.835v-17.15c0-.46.328-.834.73-.834.405 0 .732.374.732.835z"/><linearGradient id="v" gradientUnits="userSpaceOnUse" x1="264.431" y1="138.723" x2="264.431" y2="140.75" gradientTransform="rotate(-90 285.68 249.81)"><stop offset=".005" stop-color="#171A1B"/><stop offset="1" stop-color="#6F7170"/></linearGradient><path fill="url(#v)" d="M174.328 262.49v17.148c0 .615.5 1.114 1.114 1.114.615 0 1.114-.5 1.114-1.114v-17.15c0-.614-.5-1.113-1.114-1.113-.615 0-1.114.498-1.114 1.114zm1.95 0v17.148c0 .46-.374.835-.835.835-.46 0-.835-.375-.835-.835v-17.15c0-.46.374-.834.835-.834.46 0 .835.374.835.835z"/></g><path fill="#888" d="M382.225 328.793h3.55v1.953h-3.55zM382.225 211.634h3.55v1.953h-3.55z"/><circle fill="#040305" cx="167.373" cy="270.983" r="1.292"/></g><g fill="#E0DCDC"><path d="M196.235 380.11c0 3.04-.952 5.385-2.855 7.032-1.904 1.648-4.505 2.472-7.8 2.472h-2.497v14.4h-2.208v-33.12h5.328c3.265 0 5.752.8 7.464 2.4 1.712 1.602 2.568 3.873 2.568 6.816zm-2.256.048c0-4.896-2.64-7.344-7.92-7.344h-2.978v14.88h2.64c2.785 0 4.856-.672 6.217-2.016 1.36-1.343 2.04-3.183 2.04-5.52zM202.523 404.015h-2.16v-33.84l2.16-.48v34.32zM221.818 392.11v1.057h-12.576c.03 2.88.6 5.152 1.704 6.815 1.104 1.664 2.567 2.496 4.392 2.496 1.92 0 3.92-.768 6-2.304l.384 1.968c-2.11 1.505-4.336 2.256-6.672 2.256-2.432 0-4.376-1.048-5.832-3.144s-2.184-4.92-2.184-8.473c0-3.39.728-6.198 2.184-8.423 1.456-2.224 3.336-3.336 5.64-3.336 2.272 0 4 1.01 5.185 3.025 1.183 2.018 1.775 4.706 1.775 8.065zm-2.208-.767c-.097-2.624-.56-4.688-1.393-6.192-.832-1.503-1.952-2.255-3.36-2.255-1.567 0-2.848.8-3.84 2.4-.992 1.6-1.568 3.616-1.728 6.048h10.32zM238.81 404.015h-1.488l-.433-2.736c-2.017 2.08-4.097 3.12-6.24 3.12-1.633 0-2.977-.505-4.032-1.513s-1.584-2.44-1.584-4.296c0-4.8 3.87-7.695 11.616-8.687v-2.592c0-2.847-1.36-4.27-4.08-4.27-1.76 0-3.648.64-5.664 1.92l-.336-2.017c2.208-1.28 4.287-1.92 6.24-1.92 4 0 6 2.032 6 6.096v16.895zm-2.16-4.8v-7.488c-6.273.77-9.41 3.024-9.41 6.77 0 1.246.328 2.223.984 2.927s1.513 1.056 2.568 1.056c1.76 0 3.713-1.088 5.857-3.265zM255.08 398.303c0 1.824-.615 3.296-1.847 4.416-1.232 1.12-2.824 1.68-4.776 1.68-2.208 0-4.224-.577-6.048-1.73l.335-2.016c1.983 1.28 3.937 1.92 5.856 1.92 1.313 0 2.368-.375 3.17-1.128.798-.75 1.198-1.752 1.198-3 0-1.056-.296-1.95-.888-2.688-.593-.736-1.72-1.536-3.384-2.4-1.984-1.056-3.393-2.07-4.224-3.048-.833-.976-1.248-2.216-1.248-3.72 0-1.536.552-2.848 1.655-3.937 1.103-1.087 2.535-1.632 4.295-1.632 1.952 0 3.6.417 4.944 1.25l-.337 2.016c-1.568-.928-3.12-1.393-4.656-1.393-1.12 0-2.032.345-2.735 1.032-.704.688-1.057 1.512-1.057 2.472 0 1.024.32 1.89.96 2.592.64.704 1.888 1.535 3.744 2.495 1.823.93 3.12 1.913 3.888 2.952.77 1.042 1.153 2.33 1.153 3.866zM272.985 392.11v1.057H260.41c.03 2.88.6 5.152 1.703 6.815 1.104 1.664 2.567 2.496 4.392 2.496 1.92 0 3.92-.768 6-2.304l.384 1.968c-2.112 1.505-4.337 2.256-6.673 2.256-2.432 0-4.376-1.048-5.832-3.144s-2.184-4.92-2.184-8.473c0-3.39.73-6.198 2.185-8.423 1.456-2.224 3.336-3.336 5.64-3.336 2.272 0 4 1.01 5.185 3.025 1.183 2.018 1.775 4.706 1.775 8.065zm-2.208-.767c-.097-2.624-.56-4.688-1.393-6.192-.832-1.503-1.952-2.255-3.36-2.255-1.567 0-2.848.8-3.84 2.4-.992 1.6-1.568 3.616-1.728 6.048h10.32zM293.433 403.92c-.704.255-1.505.383-2.4.383-3.104 0-4.655-1.536-4.655-4.608V383.28h-3.024v-1.824h3.024v-8.017l2.16-.48v8.496h4.224l.336 1.823h-4.56v16.08c0 1.15.216 1.95.647 2.4s1.176.67 2.232.67c.415 0 .99-.078 1.728-.24l.288 1.73zM310.473 404.015h-1.488l-.48-3.168c-2.527 2.433-4.688 3.648-6.48 3.648-3.487 0-5.23-1.937-5.23-5.81v-17.23h2.16v16.99c0 2.722 1.087 4.08 3.264 4.08 1.502 0 3.534-1.2 6.095-3.6v-17.47h2.16v22.56zM323.912 383.278c-2.657.225-4.72 1.568-6.192 4.032v16.704h-2.16v-22.56H317l.528 3.6c1.695-2.496 3.71-3.808 6.048-3.937l.336 2.16zM340.663 404.015h-2.16v-16.992c0-2.72-1.088-4.08-3.264-4.08-1.57 0-3.6 1.2-6.097 3.6v17.473h-2.16v-22.56h1.488l.48 3.168c2.527-2.432 4.688-3.648 6.48-3.648 3.487 0 5.23 1.92 5.23 5.76v17.28zM367.782 381.455l-8.016 26.592c-.48 1.632-1.09 2.79-1.824 3.48-.736.687-1.728 1.03-2.976 1.03-.192 0-.545-.03-1.057-.095l-.385-1.92c.448.063.8.096 1.056.096.865 0 1.545-.216 2.04-.648.497-.432.938-1.224 1.32-2.376l1.057-3.36-6.768-22.607 2.11-.48 5.665 20.017 5.615-19.728h2.162zM384.007 384.238c1.408 2.145 2.112 4.96 2.112 8.448 0 3.488-.72 6.313-2.16 8.472-1.44 2.16-3.44 3.24-6 3.24-2.562 0-4.537-1.063-5.93-3.19-1.392-2.13-2.087-4.938-2.087-8.426 0-3.487.712-6.32 2.136-8.495s3.415-3.265 5.975-3.265c2.56 0 4.544 1.073 5.952 3.216zM382.4 399.79c.975-1.823 1.463-4.16 1.463-7.008s-.497-5.2-1.488-7.056c-.992-1.855-2.465-2.784-4.416-2.784-1.92 0-3.36.912-4.32 2.736-.96 1.824-1.44 4.16-1.44 7.008 0 2.85.496 5.2 1.488 7.056.99 1.856 2.447 2.784 4.367 2.784s3.368-.912 4.344-2.735zM403.783 404.015h-1.488l-.48-3.168c-2.527 2.433-4.688 3.648-6.48 3.648-3.487 0-5.23-1.937-5.23-5.81v-17.23h2.16v16.99c0 2.722 1.087 4.08 3.264 4.08 1.502 0 3.534-1.2 6.095-3.6v-17.47h2.16v22.56zM417.223 383.278c-2.657.225-4.72 1.568-6.192 4.032v16.704h-2.16v-22.56h1.44l.53 3.6c1.694-2.496 3.71-3.808 6.047-3.937l.336 2.16zM442.758 404.015h-1.488l-.48-2.976c-1.95 2.24-3.887 3.358-5.808 3.358-2.176 0-3.928-.936-5.256-2.808s-1.99-4.696-1.99-8.473c0-4 .822-6.99 2.47-8.976 1.648-1.982 3.72-2.975 6.217-2.975 1.376 0 2.784.304 4.224.912v-11.904l2.112-.48v34.322zm-2.112-4.993V384c-1.376-.608-2.704-.913-3.983-.913-4.48 0-6.72 3.344-6.72 10.03 0 3.138.472 5.474 1.416 7.01.942 1.536 2.214 2.304 3.814 2.304 1.536 0 3.36-1.135 5.472-3.408zM461.67 392.11v1.057h-12.576c.03 2.88.6 5.152 1.704 6.815 1.104 1.664 2.567 2.496 4.392 2.496 1.92 0 3.92-.768 6-2.304l.384 1.968c-2.11 1.505-4.336 2.256-6.672 2.256-2.432 0-4.376-1.048-5.832-3.144s-2.184-4.92-2.184-8.473c0-3.39.728-6.198 2.184-8.423 1.456-2.224 3.336-3.336 5.64-3.336 2.272 0 4 1.01 5.185 3.025 1.182 2.018 1.775 4.706 1.775 8.065zm-2.208-.767c-.097-2.624-.56-4.688-1.393-6.192-.833-1.503-1.953-2.255-3.36-2.255-1.568 0-2.85.8-3.84 2.4-.993 1.6-1.57 3.616-1.73 6.048h10.322zM479.334 381.455l-6.72 22.8h-1.92l-6.625-22.608 2.11-.48 5.522 20.017 5.52-19.728h2.112zM486.102 374.35c0 .514-.176.953-.528 1.32s-.768.553-1.248.553-.888-.184-1.224-.552-.504-.807-.504-1.32c0-.478.168-.902.504-1.27s.744-.553 1.224-.553.896.185 1.248.553.528.79.528 1.27zm-.672 29.665h-2.16v-22.56h2.16v22.56zM503.813 402.095c-1.89 1.505-3.824 2.256-5.808 2.256-2.56 0-4.545-1.055-5.952-3.167-1.41-2.112-2.112-4.912-2.112-8.4 0-3.423.753-6.23 2.257-8.424 1.504-2.192 3.487-3.29 5.952-3.29 1.92 0 3.76.705 5.52 2.113l-.385 2.304c-1.89-1.632-3.632-2.447-5.23-2.447-1.825 0-3.258.92-4.297 2.76-1.04 1.84-1.56 4.136-1.56 6.888 0 2.816.51 5.145 1.535 6.984 1.023 1.84 2.496 2.76 4.416 2.76 1.662 0 3.438-.8 5.327-2.4l.336 2.063zM520.708 392.11v1.057h-12.576c.03 2.88.6 5.152 1.704 6.815 1.104 1.664 2.568 2.496 4.392 2.496 1.92 0 3.92-.768 6-2.304l.385 1.968c-2.112 1.505-4.337 2.256-6.673 2.256-2.432 0-4.376-1.048-5.832-3.144s-2.184-4.92-2.184-8.473c0-3.39.728-6.198 2.184-8.423 1.456-2.224 3.336-3.336 5.64-3.336 2.272 0 4 1.01 5.185 3.025 1.182 2.018 1.775 4.706 1.775 8.065zm-2.208-.767c-.096-2.624-.56-4.688-1.393-6.192-.832-1.503-1.952-2.255-3.36-2.255-1.567 0-2.848.8-3.84 2.4-.99 1.6-1.567 3.616-1.728 6.048h10.32z"/></g><path fill="#F3F5F6" d="M265.11 240.32s-.13-25.01 29.718-54.967c22.74-22.824 56.633-19.204 56.633-19.204v22.495l42.57-35.664-42.47-34.456v21.508s-45.29 4.248-66.5 34.786c-29.188 42.03-19.95 65.5-19.95 65.5z"/></svg>