<?xml version="1.0" encoding="utf-8"?>
<!-- Generator: Adobe Illustrator 17.0.0, SVG Export Plug-In . SVG Version: 6.00 Build 0)  -->
<!DOCTYPE svg PUBLIC "-//W3C//DTD SVG 1.1//EN" "http://www.w3.org/Graphics/SVG/1.1/DTD/svg11.dtd">
<svg version="1.1" id="primary" xmlns="http://www.w3.org/2000/svg" xmlns:xlink="http://www.w3.org/1999/xlink" x="0px" y="0px"
	 width="240px" height="57.115px" viewBox="243.78 58.015 240 57.115" enable-background="new 243.78 58.015 240 57.115"
	 xml:space="preserve">
<g>
	<g id="tagline">
		<path fill="#5BC2DC" d="M247.204,105.085l-0.031,3.097h4.249v1.775h-4.249l-0.031,4.715h-2.257l0.078-11.345h6.521v1.758H247.204
			L247.204,105.085z"/>
		<path fill="#5BC2DC" d="M261.089,114.86c-3.502,0-5.79-1.961-5.79-5.869c0-3.268,2.443-5.835,5.79-5.835
			c3.673,0,5.774,2.303,5.774,5.835C266.864,112.276,264.326,114.86,261.089,114.86z M261.089,104.836
			c-1.915,0-3.362,1.556-3.362,4.155c0,2.616,1.012,4.172,3.362,4.172c2.241,0,3.331-2.054,3.331-4.172
			C264.42,106.502,263.33,104.836,261.089,104.836z"/>
		<path fill="#5BC2DC" d="M271.878,114.672l0.078-11.345h2.257l-0.062,9.572h4v1.773L271.878,114.672L271.878,114.672z"/>
		<path fill="#5BC2DC" d="M283.132,114.672l0.078-11.345h2.257l-0.063,9.572h4v1.773L283.132,114.672L283.132,114.672z"/>
		<path fill="#5BC2DC" d="M298.714,114.86c-3.502,0-5.79-1.961-5.79-5.869c0-3.268,2.443-5.835,5.79-5.835
			c3.673,0,5.774,2.303,5.774,5.835C304.488,112.276,301.951,114.86,298.714,114.86z M298.714,104.836
			c-1.915,0-3.362,1.556-3.362,4.155c0,2.616,1.012,4.172,3.362,4.172c2.241,0,3.331-2.054,3.331-4.172
			C302.044,106.502,300.954,104.836,298.714,104.836z"/>
		<path fill="#5BC2DC" d="M321.549,114.672h-2.568l-2.116-7.127c-0.202-0.653-0.389-1.898-0.421-2.35
			c-0.046,0.529-0.248,1.883-0.404,2.397l-2.148,7.081h-2.568l-3.362-11.065l2.257-0.499l2.008,7.051
			c0.343,1.183,0.53,2.646,0.53,2.646s0.109-1.229,0.482-2.491l2.101-6.987h2.583l1.992,6.832c0.389,1.323,0.498,2.646,0.498,2.646
			s0.187-1.54,0.529-2.693l2.102-7.004l1.992,0.484L321.549,114.672z"/>
		<path fill="#5BC2DC" d="M341.832,109.552l-0.031,5.119h-2.256l0.031-5.011l-3.626-5.572l2.007-0.996l2.242,3.58
			c0.374,0.577,0.607,1.262,0.607,1.262c-0.016,0.047,0.203-0.577,0.653-1.262l2.366-3.58l1.805,0.933L341.832,109.552z"/>
		<path fill="#5BC2DC" d="M354.566,114.86c-3.501,0-5.79-1.961-5.79-5.869c0-3.268,2.444-5.835,5.79-5.835
			c3.673,0,5.774,2.303,5.774,5.835C360.34,112.276,357.803,114.86,354.566,114.86z M354.566,104.836
			c-1.914,0-3.362,1.556-3.362,4.155c0,2.616,1.012,4.172,3.362,4.172c2.241,0,3.331-2.054,3.331-4.172
			C357.897,106.502,356.807,104.836,354.566,104.836z"/>
		<path fill="#5BC2DC" d="M374.506,110.626c-0.016,2.77-2.023,4.234-4.732,4.234c-2.677,0-4.499-1.433-4.484-4.358l0.047-7.175
			h2.242l-0.047,7.3c-0.016,1.789,1.088,2.552,2.474,2.552c1.649,0,2.491-1.137,2.491-2.677l0.031-7.175h2.008L374.506,110.626z"/>
		<path fill="#5BC2DC" d="M386.912,114.953l-3.548-5.385l0.56-1.012c0.436-0.031,2.303-0.157,2.303-1.853
			c0-1.384-0.933-1.82-2.146-1.82c-0.374,0-0.997,0.016-1.308,0.047l-0.062,9.742h-2.256l0.078-11.345c0,0,2.63-0.156,3.673-0.156
			c2.397,0,4.327,0.669,4.327,3.237c0,1.79-1.276,2.896-2.646,3.238c0.282,0.233,0.452,0.45,0.669,0.762l2.444,3.611
			L386.912,114.953z"/>
		<path fill="#5BC2DC" d="M411.212,114.36l-2.584,0.607l-4.061-7.144c-0.685-1.198-1.027-2.225-1.027-2.225s0.14,1.447,0.14,2.334
			l-0.016,6.738h-2.022l0.077-10.972l2.599-0.576l4.031,7.098c0.685,1.198,1.059,2.225,1.059,2.225s-0.14-1.432-0.14-2.334
			l0.014-6.786h2.04L411.212,114.36z"/>
		<path fill="#5BC2DC" d="M424.475,114.875l-1.121-3.237h-4.078l-1.213,3.222l-1.992-0.467l4.358-11.066h2.209l4.062,11.034
			L424.475,114.875z M422.046,107.856c-0.483-1.386-0.669-2.709-0.669-2.709s-0.249,1.417-0.716,2.709l-0.716,2.039h2.833
			L422.046,107.856z"/>
		<path fill="#5BC2DC" d="M435.215,105.085l-0.062,9.587h-2.256l0.062-9.587h-2.956v-1.758h8.17v1.758H435.215z"/>
		<path fill="#5BC2DC" d="M452.151,110.626c-0.016,2.77-2.022,4.234-4.731,4.234c-2.677,0-4.499-1.433-4.483-4.358l0.047-7.175h2.24
			l-0.047,7.3c-0.016,1.789,1.09,2.552,2.475,2.552c1.65,0,2.489-1.137,2.489-2.677l0.031-7.175h2.008L452.151,110.626z"/>
		<path fill="#5BC2DC" d="M464.558,114.953l-3.548-5.385l0.559-1.012c0.436-0.031,2.303-0.157,2.303-1.853
			c0-1.384-0.933-1.82-2.147-1.82c-0.374,0-0.996,0.016-1.307,0.047l-0.062,9.742H458.1l0.077-11.345c0,0,2.63-0.156,3.673-0.156
			c2.398,0,4.327,0.669,4.327,3.237c0,1.79-1.276,2.896-2.646,3.238c0.28,0.233,0.452,0.45,0.669,0.762l2.444,3.611L464.558,114.953
			z"/>
		<path fill="#5BC2DC" d="M471.751,114.672l0.078-11.345h6.521v1.758h-4.28l-0.016,2.926h4.235v1.743h-4.25l-0.016,3.176h4.327
			v1.742L471.751,114.672L471.751,114.672z"/>
	</g>
	<g id="Suntory">
		<path fill="#5BC2DC" d="M295.266,59.717h9.868c-0.344,3.161-0.353,8.319-0.353,13.256c0,0,0.109,14.564,0.6,17.398h-5.655
			c-1.765,0-2.776-0.924-3.129-2.12c-2.682,2.013-6.033,2.825-8.961,2.825c-10.585,0-11.871-5.488-11.871-11.046v-8.562
			c0-4.824-0.227-9.175-0.585-11.751h5.881c2.694,0,3.981,1.638,3.981,4.34v12.456c0,6.448,1.261,8.69,6.58,8.69
			c1.412,0,3.083,0.026,4.268-0.439l-0.264-11.31C295.626,69.573,295.492,62.877,295.266,59.717z"/>
		<path fill="#5BC2DC" d="M315.183,90.405c0.357-3.201,0.415-13.868,0.415-13.868c0-4.971-0.333-14.482-0.691-17.079h5.669
			c1.875,0,3.167,0.802,3.528,2.229c2.707-2.004,5.69-2.938,8.652-2.938c10.391,0,11.953,6.371,11.953,11.109V78.5
			c0,4.831,0.278,9.495,0.62,12.099h-5.953c-2.706,0-4.008-1.949-4.008-4.655V73.395c0-4.958-0.481-8.736-6.632-8.736
			c-1.42,0-3.019,0.246-4.211,0.728l0.052,11.09c0,3.907-0.023,7.73,0.338,13.928L315.183,90.405L315.183,90.405z"/>
		<path fill="#5BC2DC" d="M373.234,59.603c1.635,0,4.465-0.118,5.753-0.364c-0.227,0.946-0.935,3.406-1.414,4.48
			c-0.814,1.754-2.117,2.347-6.25,2.347h-3.339v10.475c0,3.889,0.128,10.846,0.459,14.032h-9.993
			c0.371-3.186,0.459-10.144,0.459-14.032V66.066h-3.223c-2.726,0-4.934,0.187-6.107,0.895l-0.135-3.93
			c0-2.379,0.473-3.427,4.001-3.427h19.789V59.603L373.234,59.603z"/>
		<path fill="#5BC2DC" d="M412.488,74.901c0,10.327-5.927,16.744-16.63,16.744c-10.682,0-16.139-5.833-16.139-16.388
			c0-10.467,5.807-16.508,16.502-16.508C406.904,58.749,412.494,64.454,412.488,74.901z M388.848,75.022
			c0,7.112,2.502,10.319,7.372,10.319c4.736,0,7.132-3.207,7.132-10.319c0-7.124-2.396-10.455-7.132-10.455
			C391.35,64.567,388.848,67.898,388.848,75.022z"/>
		<path fill="#5BC2DC" d="M446.146,92.203c-3.753,0-4.572-1.405-6.927-4.838c-1.286-1.896-5.385-8.839-6.104-10.261
			c-0.348-0.715-0.467-1.283,0.239-1.644c3.044-1.778,3.888-3.667,3.888-5.792c0-2.472-1.065-4.603-4.594-4.603
			c-1.055,0-2.581,0.133-3.287,0.36v10.377c0,3.896,0.107,11.437,0.459,14.629h-9.63c0.338-3.066,0.493-9.678,0.493-14.629
			c0,0-0.081-13.336-0.659-16.149c4.571,0,11.213-0.239,14.143-0.239c5.19,0,12.113,1.05,12.113,8.833
			c0,3.206-1.518,5.778-4.121,7.449c-0.466,0.334-0.466,0.593,0,1.288c3.294,4.945,7.297,10.502,10.934,14.392
			C451.803,91.736,448.402,92.203,446.146,92.203z"/>
		<path fill="#5BC2DC" d="M471.651,81.498c0,0,0.123,6.97,0.476,8.976h-9.833c0.373-2.006,0.458-8.976,0.458-8.976
			c0-1.304-0.341-2.596-1.374-4.731c-2.204-4.482-7.047-13.113-11.2-16.999c1.609-0.234,4.619-0.354,6.464-0.354
			c3.807,0,4.971,1.291,5.894,2.83c0.798,1.304,4.032,7.794,5.08,10.516c1.265-3.076,3.823-8.517,4.962-10.402
			c0.936-1.412,2.204-2.943,5.43-2.943c1.505,0,3.926,0.12,5.771,0.354c-2.995,2.703-8.662,12.27-10.965,16.645
			C471.774,78.552,471.651,79.605,471.651,81.498z"/>
		<path fill="#5BC2DC" d="M259.044,71.639c-2.164-0.652-5.762-1.684-5.762-4.414c0-2.628,3.335-3.202,5.628-3.202
			c4.986,0,8.221,2.291,8.221,2.291v-5.257c0,0-2.19-2.88-8.727-2.88c-8.053,0-14.624,3.235-14.624,9.62
			c0,6.436,4.656,7.96,7.786,8.942c2.862,0.897,7.411,1.975,7.411,4.873c0,3.572-3.336,3.706-5.628,3.706
			c-5.694,0-9.569-2.291-9.569-2.291v5.257c0,0,0.674,3.167,10.074,3.167c7.06,0,14.8-2.664,14.624-9.908
			C268.343,75.952,264.688,73.341,259.044,71.639z"/>
	</g>
</g>
</svg>
