<?xml version="1.0" encoding="utf-8"?>
<!-- Generator: Adobe Illustrator 17.0.0, SVG Export Plug-In . SVG Version: 6.00 Build 0)  -->
<!DOCTYPE svg PUBLIC "-//W3C//DTD SVG 1.1//EN" "http://www.w3.org/Graphics/SVG/1.1/DTD/svg11.dtd">
<svg version="1.1" id="primary" xmlns="http://www.w3.org/2000/svg" xmlns:xlink="http://www.w3.org/1999/xlink" x="0px" y="0px"
	 width="200px" height="63.407px" viewBox="263.78 54.824 200 63.407" enable-background="new 263.78 54.824 200 63.407"
	 xml:space="preserve">
<g>
	<g>
		<path fill="#5BC2DC" d="M266.634,110.085l-0.026,2.581h3.541v1.479h-3.541l-0.026,3.929h-1.881l0.065-9.454h5.434v1.465H266.634
			L266.634,110.085z"/>
		<path fill="#5BC2DC" d="M278.204,118.231c-2.918,0-4.825-1.634-4.825-4.891c0-2.723,2.036-4.863,4.825-4.863
			c3.061,0,4.812,1.919,4.812,4.863C283.016,116.078,280.902,118.231,278.204,118.231z M278.204,109.878
			c-1.596,0-2.802,1.297-2.802,3.463c0,2.18,0.843,3.477,2.802,3.477c1.867,0,2.776-1.712,2.776-3.477
			C280.98,111.266,280.072,109.878,278.204,109.878z"/>
		<path fill="#5BC2DC" d="M287.195,118.074l0.065-9.454h1.881l-0.052,7.976h3.333v1.478L287.195,118.074L287.195,118.074z"/>
		<path fill="#5BC2DC" d="M296.573,118.074l0.065-9.454h1.881l-0.052,7.976h3.333v1.478L296.573,118.074L296.573,118.074z"/>
		<path fill="#5BC2DC" d="M309.558,118.231c-2.918,0-4.825-1.634-4.825-4.891c0-2.723,2.036-4.863,4.825-4.863
			c3.061,0,4.812,1.919,4.812,4.863C314.37,116.078,312.256,118.231,309.558,118.231z M309.558,109.878
			c-1.596,0-2.802,1.297-2.802,3.463c0,2.18,0.843,3.477,2.802,3.477c1.867,0,2.776-1.712,2.776-3.477
			C312.334,111.266,311.425,109.878,309.558,109.878z"/>
		<path fill="#5BC2DC" d="M328.587,118.074h-2.14l-1.764-5.939c-0.169-0.544-0.324-1.582-0.351-1.958
			c-0.038,0.441-0.207,1.569-0.337,1.998l-1.79,5.9h-2.14l-2.802-9.221l1.881-0.416l1.673,5.875
			c0.286,0.986,0.441,2.205,0.441,2.205s0.09-1.024,0.402-2.076l1.751-5.823h2.153l1.66,5.693c0.324,1.103,0.415,2.205,0.415,2.205
			s0.156-1.284,0.441-2.244l1.751-5.837l1.66,0.403L328.587,118.074z"/>
		<path fill="#5BC2DC" d="M345.49,113.808l-0.026,4.266h-1.88l0.026-4.176l-3.022-4.643l1.672-0.83l1.868,2.983
			c0.311,0.481,0.505,1.051,0.505,1.051c-0.013,0.04,0.169-0.481,0.544-1.051l1.972-2.983l1.505,0.778L345.49,113.808z"/>
		<path fill="#5BC2DC" d="M356.101,118.231c-2.918,0-4.825-1.634-4.825-4.891c0-2.723,2.037-4.863,4.825-4.863
			c3.061,0,4.812,1.919,4.812,4.863C360.913,116.078,358.799,118.231,356.101,118.231z M356.101,109.878
			c-1.595,0-2.801,1.297-2.801,3.463c0,2.18,0.843,3.477,2.801,3.477c1.868,0,2.775-1.712,2.775-3.477
			C358.877,111.266,357.969,109.878,356.101,109.878z"/>
		<path fill="#5BC2DC" d="M372.718,114.703c-0.013,2.308-1.686,3.528-3.943,3.528c-2.231,0-3.75-1.194-3.736-3.632l0.039-5.979
			h1.868l-0.039,6.083c-0.013,1.491,0.907,2.127,2.062,2.127c1.374,0,2.076-0.948,2.076-2.231l0.026-5.979h1.673L372.718,114.703z"
			/>
		<path fill="#5BC2DC" d="M383.057,118.309l-2.957-4.488l0.466-0.843c0.363-0.026,1.919-0.131,1.919-1.544
			c0-1.153-0.777-1.517-1.789-1.517c-0.312,0-0.831,0.013-1.09,0.039l-0.052,8.118h-1.88l0.065-9.454c0,0,2.192-0.13,3.06-0.13
			c1.998,0,3.605,0.557,3.605,2.697c0,1.492-1.063,2.413-2.205,2.698c0.235,0.194,0.376,0.375,0.557,0.635l2.037,3.009
			L383.057,118.309z"/>
		<path fill="#5BC2DC" d="M403.306,117.815l-2.154,0.506l-3.384-5.953c-0.571-0.998-0.856-1.854-0.856-1.854
			s0.117,1.205,0.117,1.945l-0.013,5.615h-1.685l0.064-9.144l2.166-0.48l3.359,5.915c0.571,0.998,0.883,1.854,0.883,1.854
			s-0.116-1.194-0.116-1.945l0.012-5.655h1.7L403.306,117.815z"/>
		<path fill="#5BC2DC" d="M414.359,118.244l-0.935-2.698h-3.398l-1.011,2.685l-1.66-0.389l3.632-9.221h1.841l3.385,9.195
			L414.359,118.244z M412.335,112.394c-0.403-1.155-0.557-2.257-0.557-2.257s-0.207,1.181-0.597,2.257l-0.597,1.699h2.361
			L412.335,112.394z"/>
		<path fill="#5BC2DC" d="M423.309,110.085l-0.052,7.989h-1.88l0.052-7.989h-2.464v-1.465h6.809v1.465H423.309z"/>
		<path fill="#5BC2DC" d="M437.422,114.703c-0.013,2.308-1.685,3.528-3.943,3.528c-2.231,0-3.749-1.194-3.736-3.632l0.039-5.979
			h1.867l-0.039,6.083c-0.013,1.491,0.908,2.127,2.062,2.127c1.375,0,2.075-0.948,2.075-2.231l0.026-5.979h1.673L437.422,114.703z"
			/>
		<path fill="#5BC2DC" d="M447.762,118.309l-2.957-4.488l0.466-0.843c0.364-0.026,1.92-0.131,1.92-1.544
			c0-1.153-0.778-1.517-1.789-1.517c-0.311,0-0.83,0.013-1.089,0.039l-0.052,8.118h-1.88l0.064-9.454c0,0,2.192-0.13,3.06-0.13
			c1.998,0,3.606,0.557,3.606,2.697c0,1.492-1.063,2.413-2.205,2.698c0.234,0.194,0.376,0.375,0.558,0.635l2.037,3.009
			L447.762,118.309z"/>
		<path fill="#5BC2DC" d="M453.756,118.074l0.065-9.454h5.434v1.465h-3.567l-0.013,2.438h3.529v1.453h-3.542l-0.013,2.647h3.606
			v1.452L453.756,118.074L453.756,118.074z"/>
		<path fill="#5BC2DC" d="M306.685,72.278h8.223c-0.287,2.634-0.294,6.933-0.294,11.047c0,0,0.091,12.137,0.5,14.498h-4.712
			c-1.471,0-2.313-0.77-2.608-1.766c-2.235,1.677-5.028,2.354-7.468,2.354c-8.821,0-9.893-4.573-9.893-9.205v-7.135
			c0-4.02-0.189-7.646-0.487-9.793h4.901c2.245,0,3.317,1.365,3.317,3.617v10.38c0,5.373,1.051,7.241,5.483,7.241
			c1.177,0,2.57,0.022,3.557-0.366l-0.22-9.425C306.985,80.492,306.873,74.912,306.685,72.278z"/>
		<path fill="#5BC2DC" d="M323.282,97.852c0.297-2.667,0.346-11.557,0.346-11.557c0-4.143-0.277-12.069-0.576-14.233h4.724
			c1.563,0,2.639,0.668,2.94,1.858c2.256-1.67,4.742-2.448,7.21-2.448c8.659,0,9.961,5.31,9.961,9.258v7.201
			c0,4.025,0.232,7.913,0.516,10.083h-4.961c-2.255,0-3.34-1.624-3.34-3.879V83.677c0-4.132-0.4-7.28-5.527-7.28
			c-1.183,0-2.515,0.205-3.509,0.606l0.043,9.242c0,3.256-0.02,6.442,0.281,11.607L323.282,97.852L323.282,97.852z"/>
		<path fill="#5BC2DC" d="M371.658,72.183c1.363,0,3.721-0.098,4.794-0.303c-0.189,0.788-0.779,2.838-1.178,3.734
			c-0.678,1.461-1.764,1.956-5.209,1.956h-2.783v8.729c0,3.241,0.106,9.038,0.383,11.694h-8.327
			c0.309-2.655,0.383-8.453,0.383-11.693v-8.73h-2.686c-2.272,0-4.111,0.156-5.089,0.746l-0.112-3.275
			c0-1.982,0.394-2.856,3.334-2.856h16.491V72.183L371.658,72.183z"/>
		<path fill="#5BC2DC" d="M404.37,84.932c0,8.606-4.939,13.954-13.858,13.954c-8.902,0-13.449-4.86-13.449-13.657
			c0-8.722,4.839-13.757,13.752-13.757C399.717,71.472,404.375,76.226,404.37,84.932z M384.67,85.033
			c0,5.927,2.085,8.599,6.144,8.599c3.946,0,5.943-2.673,5.943-8.599c0-5.937-1.997-8.712-5.943-8.712
			C386.755,76.32,384.67,79.096,384.67,85.033z"/>
		<path fill="#5BC2DC" d="M432.418,99.351c-3.127,0-3.81-1.171-5.773-4.032c-1.072-1.58-4.487-7.366-5.087-8.551
			c-0.29-0.596-0.389-1.069,0.199-1.37c2.537-1.482,3.24-3.055,3.24-4.826c0-2.06-0.887-3.836-3.828-3.836
			c-0.88,0-2.151,0.111-2.739,0.3v8.648c0,3.247,0.089,9.531,0.383,12.191h-8.025c0.282-2.555,0.411-8.065,0.411-12.191
			c0,0-0.067-11.113-0.549-13.457c3.809,0,9.344-0.2,11.786-0.2c4.325,0,10.094,0.875,10.094,7.361c0,2.671-1.265,4.815-3.434,6.207
			c-0.388,0.278-0.388,0.494,0,1.074c2.745,4.121,6.081,8.751,9.111,11.994C437.132,98.961,434.298,99.351,432.418,99.351z"/>
		<path fill="#5BC2DC" d="M453.672,90.429c0,0,0.103,5.808,0.397,7.48h-8.194c0.311-1.672,0.382-7.48,0.382-7.48
			c0-1.087-0.284-2.164-1.145-3.943c-1.837-3.735-5.872-10.927-9.333-14.166c1.341-0.195,3.849-0.295,5.386-0.295
			c3.173,0,4.142,1.076,4.912,2.358c0.665,1.087,3.36,6.495,4.234,8.763c1.054-2.564,3.186-7.097,4.135-8.669
			c0.78-1.176,1.837-2.453,4.525-2.453c1.254,0,3.271,0.1,4.809,0.295c-2.496,2.252-7.218,10.225-9.137,13.871
			C453.775,87.975,453.672,88.852,453.672,90.429z"/>
		<path fill="#5BC2DC" d="M276.5,82.214c-1.803-0.544-4.802-1.403-4.802-3.678c0-2.19,2.779-2.668,4.69-2.668
			c4.155,0,6.851,1.909,6.851,1.909v-4.381c0,0-1.825-2.4-7.273-2.4c-6.711,0-12.186,2.696-12.186,8.017
			c0,5.363,3.88,6.633,6.488,7.452c2.385,0.748,6.176,1.646,6.176,4.061c0,2.976-2.78,3.088-4.69,3.088
			c-4.745,0-7.974-1.909-7.974-1.909v4.381c0,0,0.562,2.639,8.395,2.639c5.883,0,12.333-2.22,12.187-8.256
			C284.249,85.808,281.203,83.632,276.5,82.214z"/>
	</g>
	<g>
		<path fill="#5BC2DC" d="M270.149,61.124c0,0.68-0.244,1.222-0.732,1.626c-0.488,0.404-1.088,0.606-1.8,0.606
			c-0.84,0-1.544-0.164-2.112-0.492l0.084-0.588c0.608,0.376,1.296,0.564,2.064,0.564c0.544,0,0.996-0.154,1.356-0.462
			s0.54-0.714,0.54-1.218c0-0.424-0.13-0.778-0.39-1.062c-0.26-0.284-0.71-0.562-1.35-0.834c-0.816-0.344-1.382-0.686-1.698-1.026
			c-0.316-0.34-0.474-0.794-0.474-1.362c0-0.584,0.216-1.062,0.648-1.434s0.968-0.558,1.608-0.558c0.728,0,1.324,0.136,1.788,0.408
			l-0.084,0.576c-0.544-0.312-1.12-0.468-1.728-0.468c-0.488,0-0.884,0.138-1.188,0.414c-0.304,0.276-0.456,0.622-0.456,1.038
			c0,0.424,0.128,0.764,0.384,1.02c0.256,0.256,0.716,0.524,1.38,0.804c0.768,0.32,1.32,0.664,1.656,1.032
			C269.981,60.076,270.149,60.548,270.149,61.124z"/>
		<path fill="#5BC2DC" d="M276.245,57.26c0,0.76-0.264,1.35-0.792,1.77c-0.528,0.42-1.208,0.63-2.04,0.63h-1.152v3.6h-0.576v-8.28
			h1.92c0.808,0,1.45,0.2,1.926,0.6C276.007,55.98,276.245,56.54,276.245,57.26z M275.645,57.284c0-0.584-0.178-1.028-0.534-1.332
			c-0.356-0.304-0.874-0.456-1.554-0.456h-1.296v3.648h1.176c0.696,0,1.238-0.158,1.626-0.474
			C275.451,58.354,275.645,57.892,275.645,57.284z"/>
		<path fill="#5BC2DC" d="M284.633,59.108c0,1.256-0.35,2.288-1.05,3.096c-0.7,0.808-1.582,1.212-2.646,1.212
			c-1.064,0-1.942-0.402-2.634-1.206c-0.692-0.804-1.038-1.83-1.038-3.078c0-1.256,0.35-2.288,1.05-3.096
			c0.7-0.808,1.582-1.212,2.646-1.212s1.942,0.402,2.634,1.206S284.633,57.86,284.633,59.108z M284.033,59.132
			c0-1.12-0.286-2.032-0.858-2.736c-0.572-0.704-1.318-1.056-2.238-1.056c-0.912,0-1.652,0.352-2.22,1.056
			c-0.568,0.704-0.852,1.608-0.852,2.712c0,1.12,0.286,2.032,0.858,2.736c0.572,0.704,1.318,1.056,2.238,1.056
			c0.912,0,1.652-0.352,2.22-1.056C283.749,61.14,284.033,60.236,284.033,59.132z"/>
		<path fill="#5BC2DC" d="M292.337,63.26h-0.456l-5.076-7.404v7.404h-0.552v-8.28h0.588l4.944,7.2v-7.2h0.552V63.26z"/>
		<path fill="#5BC2DC" d="M298.625,61.124c0,0.68-0.244,1.222-0.732,1.626c-0.488,0.404-1.088,0.606-1.8,0.606
			c-0.84,0-1.544-0.164-2.112-0.492l0.084-0.588c0.608,0.376,1.296,0.564,2.064,0.564c0.544,0,0.996-0.154,1.356-0.462
			s0.54-0.714,0.54-1.218c0-0.424-0.13-0.778-0.39-1.062c-0.26-0.284-0.71-0.562-1.35-0.834c-0.816-0.344-1.382-0.686-1.698-1.026
			c-0.316-0.34-0.474-0.794-0.474-1.362c0-0.584,0.216-1.062,0.648-1.434s0.968-0.558,1.608-0.558c0.728,0,1.324,0.136,1.788,0.408
			l-0.084,0.576c-0.544-0.312-1.12-0.468-1.728-0.468c-0.488,0-0.884,0.138-1.188,0.414c-0.304,0.276-0.456,0.622-0.456,1.038
			c0,0.424,0.128,0.764,0.384,1.02c0.256,0.256,0.716,0.524,1.38,0.804c0.768,0.32,1.32,0.664,1.656,1.032
			C298.456,60.076,298.625,60.548,298.625,61.124z"/>
		<path fill="#5BC2DC" d="M307.06,59.108c0,1.256-0.35,2.288-1.05,3.096c-0.7,0.808-1.582,1.212-2.646,1.212
			c-1.064,0-1.942-0.402-2.634-1.206c-0.692-0.804-1.038-1.83-1.038-3.078c0-1.256,0.35-2.288,1.05-3.096
			c0.7-0.808,1.582-1.212,2.646-1.212s1.942,0.402,2.634,1.206S307.06,57.86,307.06,59.108z M306.46,59.132
			c0-1.12-0.286-2.032-0.858-2.736c-0.572-0.704-1.318-1.056-2.238-1.056c-0.912,0-1.652,0.352-2.22,1.056
			c-0.568,0.704-0.852,1.608-0.852,2.712c0,1.12,0.286,2.032,0.858,2.736c0.572,0.704,1.318,1.056,2.238,1.056
			c0.912,0,1.652-0.352,2.22-1.056C306.177,61.14,306.46,60.236,306.46,59.132z"/>
		<path fill="#5BC2DC" d="M311.128,59.396l0.696,0.96c0.464,0.632,0.928,1.264,1.392,1.896l0.696,0.96l-0.6,0.132l-2.82-3.888
			h-1.236v3.804h-0.576v-8.28h1.992c0.784,0,1.408,0.194,1.872,0.582c0.464,0.388,0.696,0.922,0.696,1.602
			c0,0.616-0.196,1.114-0.588,1.494S311.752,59.284,311.128,59.396z M312.641,57.188c0-0.544-0.174-0.962-0.522-1.254
			c-0.348-0.292-0.842-0.438-1.482-0.438h-1.38v3.456h1.224c0.672,0,1.2-0.152,1.584-0.456
			C312.448,58.192,312.641,57.756,312.641,57.188z"/>
		<path fill="#5BC2DC" d="M319.396,63.26h-4.308v-8.28h4.188v0.516h-3.612v3.168h2.904l0.072,0.516h-2.976v3.564h3.732V63.26z"/>
		<path fill="#5BC2DC" d="M327.196,59.108c0,1.28-0.396,2.292-1.188,3.036c-0.792,0.744-1.832,1.116-3.12,1.116h-2.1v-8.28h2.136
			c1.32,0,2.362,0.376,3.126,1.128S327.196,57.86,327.196,59.108z M326.596,59.12c0-1.152-0.334-2.044-1.002-2.676
			s-1.562-0.948-2.682-0.948h-1.548v7.248h1.584c1.12,0,2.008-0.312,2.664-0.936S326.596,60.288,326.596,59.12z"/>
		<path fill="#5BC2DC" d="M335.896,60.908c0,0.736-0.26,1.312-0.78,1.728s-1.204,0.624-2.052,0.624h-1.848v-8.28h1.848
			c0.792,0,1.4,0.18,1.824,0.54c0.424,0.36,0.636,0.848,0.636,1.464c0,0.44-0.12,0.824-0.36,1.152
			c-0.24,0.328-0.56,0.572-0.96,0.732C335.332,59.172,335.896,59.852,335.896,60.908z M334.936,57.008
			c0-0.48-0.162-0.852-0.486-1.116c-0.324-0.264-0.794-0.396-1.41-0.396h-1.248v3.18h1.26c0.6,0,1.064-0.16,1.392-0.48
			C334.772,57.876,334.936,57.48,334.936,57.008z M335.308,60.968c0-0.608-0.2-1.06-0.6-1.356s-0.948-0.444-1.644-0.444h-1.272
			v3.576h1.32c0.672,0,1.206-0.16,1.602-0.48C335.11,61.944,335.308,61.512,335.308,60.968z"/>
		<path fill="#5BC2DC" d="M342.88,54.98l-2.952,4.716v3.564h-0.576v-3.552l-2.94-4.692l0.576-0.12l2.664,4.332l2.604-4.248H342.88z"
			/>
	</g>
</g>
</svg>
