<svg xmlns="http://www.w3.org/2000/svg" width="200" height="63.407" viewBox="263.78 54.824 200 63.407"><g fill="#5BC2DC"><path d="M266.634 110.085l-.026 2.58h3.54v1.48h-3.54l-.026 3.93h-1.88l.064-9.455h5.434v1.465h-3.566zM278.204 118.23c-2.918 0-4.825-1.633-4.825-4.89 0-2.723 2.035-4.863 4.824-4.863 3.06 0 4.812 1.92 4.812 4.863 0 2.738-2.114 4.89-4.812 4.89zm0-8.352c-1.596 0-2.802 1.297-2.802 3.463 0 2.18.843 3.478 2.802 3.478 1.867 0 2.776-1.712 2.776-3.477 0-2.074-.908-3.462-2.776-3.462zM287.195 118.074l.065-9.454h1.88l-.05 7.976h3.332v1.478h-5.227zM296.573 118.074l.065-9.454h1.88l-.05 7.976h3.332v1.478h-5.227zM309.558 118.23c-2.918 0-4.825-1.633-4.825-4.89 0-2.723 2.036-4.863 4.825-4.863 3.06 0 4.812 1.92 4.812 4.863 0 2.738-2.114 4.89-4.812 4.89zm0-8.352c-1.596 0-2.802 1.297-2.802 3.463 0 2.18.843 3.478 2.802 3.478 1.867 0 2.776-1.712 2.776-3.477 0-2.074-.91-3.462-2.776-3.462zM328.587 118.074h-2.14l-1.764-5.94c-.17-.543-.324-1.58-.35-1.957-.04.44-.208 1.57-.338 1.998l-1.79 5.9h-2.14l-2.802-9.22 1.88-.417 1.674 5.875c.286.986.44 2.205.44 2.205s.09-1.024.403-2.076l1.75-5.823h2.154l1.66 5.692c.324 1.103.415 2.205.415 2.205s.155-1.284.44-2.244l1.75-5.837 1.66.403-2.903 9.234zM345.49 113.808l-.026 4.266h-1.88l.026-4.176-3.022-4.643 1.672-.83 1.868 2.983c.31.48.505 1.05.505 1.05-.013.04.17-.48.544-1.05l1.972-2.983 1.504.778-3.164 4.605zM356.1 118.23c-2.917 0-4.824-1.633-4.824-4.89 0-2.723 2.037-4.863 4.825-4.863 3.062 0 4.813 1.92 4.813 4.863 0 2.738-2.114 4.89-4.812 4.89zm0-8.352c-1.594 0-2.8 1.297-2.8 3.463 0 2.18.843 3.478 2.8 3.478 1.87 0 2.776-1.712 2.776-3.477 0-2.074-.907-3.462-2.775-3.462zM372.718 114.703c-.013 2.308-1.686 3.528-3.943 3.528-2.23 0-3.75-1.193-3.736-3.63l.038-5.98h1.868l-.04 6.083c-.012 1.49.908 2.127 2.063 2.127 1.373 0 2.075-.948 2.075-2.23l.026-5.98h1.674l-.026 6.083zM383.057 118.31l-2.957-4.49.466-.842c.363-.026 1.92-.13 1.92-1.544 0-1.153-.778-1.517-1.79-1.517-.312 0-.83.013-1.09.04l-.052 8.117h-1.88l.065-9.454s2.19-.13 3.06-.13c1.997 0 3.604.557 3.604 2.697 0 1.492-1.063 2.413-2.205 2.698.234.194.375.375.556.635l2.037 3.01-1.736.78zM403.306 117.815l-2.154.506-3.384-5.952c-.57-.998-.856-1.854-.856-1.854s.117 1.205.117 1.945l-.014 5.614h-1.685l.065-9.144 2.166-.48 3.36 5.915c.57.998.883 1.854.883 1.854s-.116-1.195-.116-1.946l.012-5.655h1.7l-.094 9.195zM414.36 118.244l-.936-2.698h-3.398l-1.01 2.685-1.66-.388 3.63-9.22h1.842l3.385 9.194-1.854.428zm-2.025-5.85c-.403-1.155-.557-2.257-.557-2.257s-.207 1.18-.597 2.257l-.596 1.7h2.36l-.61-1.7zM423.31 110.085l-.053 7.99h-1.88l.052-7.99h-2.465v-1.465h6.81v1.465h-2.466zM437.422 114.703c-.013 2.308-1.685 3.528-3.943 3.528-2.232 0-3.75-1.193-3.737-3.63l.04-5.98h1.866l-.04 6.083c-.013 1.49.908 2.127 2.062 2.127 1.375 0 2.075-.948 2.075-2.23l.026-5.98h1.673l-.024 6.083zM447.762 118.31l-2.957-4.49.466-.842c.365-.026 1.92-.13 1.92-1.544 0-1.153-.777-1.517-1.788-1.517-.31 0-.83.013-1.09.04l-.05 8.117h-1.88l.063-9.454s2.192-.13 3.06-.13c1.998 0 3.606.557 3.606 2.697 0 1.492-1.062 2.413-2.204 2.698.234.194.376.375.558.635l2.037 3.01-1.738.78zM453.756 118.074l.065-9.454h5.435v1.465h-3.567l-.013 2.438h3.53v1.453h-3.543l-.013 2.647h3.605v1.452h-5.5zM306.685 72.278h8.223c-.287 2.634-.294 6.933-.294 11.047 0 0 .09 12.137.5 14.498h-4.712c-1.47 0-2.313-.77-2.608-1.766-2.235 1.677-5.028 2.354-7.468 2.354-8.82 0-9.893-4.572-9.893-9.204V82.07c0-4.02-.19-7.645-.487-9.792h4.9c2.246 0 3.318 1.365 3.318 3.617v10.38c0 5.373 1.05 7.24 5.483 7.24 1.177 0 2.57.023 3.557-.365l-.22-9.425c0-3.233-.11-8.813-.3-11.447zM323.282 97.852c.297-2.667.346-11.557.346-11.557 0-4.143-.277-12.07-.576-14.233h4.724c1.563 0 2.64.668 2.94 1.858 2.256-1.67 4.742-2.448 7.21-2.448 8.66 0 9.96 5.31 9.96 9.258v7.2c0 4.026.233 7.914.517 10.084h-4.96c-2.256 0-3.34-1.624-3.34-3.88V83.678c0-4.132-.4-7.28-5.528-7.28-1.183 0-2.515.205-3.51.606l.044 9.242c0 3.256-.02 6.442.28 11.607h-8.108zM371.658 72.183c1.363 0 3.72-.098 4.794-.303-.19.788-.78 2.838-1.178 3.734-.678 1.46-1.764 1.956-5.21 1.956h-2.782v8.73c0 3.24.106 9.037.383 11.693h-8.327c.31-2.655.383-8.453.383-11.693v-8.73h-2.685c-2.272 0-4.11.156-5.09.746l-.11-3.275c0-1.98.393-2.855 3.333-2.855h16.49v-.002zM404.37 84.932c0 8.606-4.94 13.954-13.858 13.954-8.902 0-13.45-4.86-13.45-13.657 0-8.723 4.84-13.758 13.753-13.758 8.902 0 13.56 4.754 13.555 13.46zm-19.7.1c0 5.928 2.085 8.6 6.144 8.6 3.946 0 5.943-2.673 5.943-8.6 0-5.936-1.997-8.71-5.943-8.71-4.06-.002-6.144 2.774-6.144 8.71zM432.418 99.35c-3.127 0-3.81-1.17-5.773-4.03-1.072-1.58-4.487-7.367-5.087-8.552-.29-.596-.39-1.07.2-1.37 2.536-1.482 3.24-3.055 3.24-4.826 0-2.06-.888-3.836-3.83-3.836-.88 0-2.15.11-2.738.3v8.648c0 3.247.09 9.53.383 12.19h-8.025c.282-2.554.41-8.064.41-12.19 0 0-.066-11.113-.548-13.457 3.81 0 9.344-.2 11.786-.2 4.325 0 10.094.875 10.094 7.36 0 2.672-1.265 4.816-3.434 6.208-.388.278-.388.494 0 1.074 2.745 4.12 6.08 8.75 9.11 11.993-1.074.298-3.908.688-5.788.688zM453.672 90.43s.103 5.807.397 7.48h-8.195c.31-1.673.382-7.48.382-7.48 0-1.088-.284-2.165-1.145-3.944-1.837-3.735-5.872-10.927-9.333-14.166 1.34-.195 3.848-.295 5.385-.295 3.173 0 4.142 1.076 4.912 2.358.665 1.087 3.36 6.495 4.234 8.763 1.055-2.564 3.187-7.097 4.136-8.67.78-1.175 1.837-2.452 4.525-2.452 1.255 0 3.272.1 4.81.295-2.496 2.25-7.218 10.224-9.137 13.87-.868 1.785-.97 2.662-.97 4.24zM276.5 82.214c-1.803-.544-4.802-1.403-4.802-3.678 0-2.19 2.78-2.668 4.69-2.668 4.155 0 6.85 1.91 6.85 1.91v-4.382s-1.824-2.4-7.272-2.4c-6.71 0-12.186 2.696-12.186 8.017 0 5.363 3.88 6.633 6.488 7.452 2.385.748 6.176 1.646 6.176 4.06 0 2.977-2.78 3.09-4.69 3.09-4.745 0-7.974-1.91-7.974-1.91v4.38s.562 2.64 8.395 2.64c5.883 0 12.333-2.22 12.187-8.256-.113-4.662-3.16-6.838-7.862-8.256z"/><g><path d="M270.15 61.124c0 .68-.245 1.222-.733 1.626-.488.404-1.088.606-1.8.606-.84 0-1.544-.164-2.112-.492l.084-.588c.607.376 1.295.564 2.063.564.544 0 .996-.154 1.356-.462s.54-.714.54-1.218c0-.424-.13-.778-.39-1.062-.26-.284-.71-.562-1.35-.834-.817-.344-1.383-.686-1.7-1.026-.315-.34-.473-.794-.473-1.362 0-.584.216-1.062.648-1.434s.968-.558 1.608-.558c.728 0 1.324.136 1.788.408l-.083.576c-.544-.312-1.12-.468-1.728-.468-.49 0-.885.138-1.19.414-.303.276-.455.622-.455 1.038 0 .424.128.764.384 1.02.255.256.715.524 1.38.804.767.32 1.32.664 1.655 1.032.336.368.504.84.504 1.416zM276.245 57.26c0 .76-.264 1.35-.792 1.77-.528.42-1.208.63-2.04.63h-1.152v3.6h-.575v-8.28h1.92c.808 0 1.45.2 1.926.6.477.4.715.96.715 1.68zm-.6.024c0-.584-.178-1.028-.534-1.332-.355-.304-.873-.456-1.553-.456h-1.296v3.648h1.177c.696 0 1.238-.158 1.626-.474.388-.316.582-.778.582-1.386zM284.633 59.108c0 1.256-.35 2.288-1.05 3.096-.7.808-1.582 1.212-2.646 1.212-1.064 0-1.942-.402-2.634-1.206-.692-.804-1.038-1.83-1.038-3.078 0-1.256.35-2.288 1.05-3.096.7-.808 1.582-1.212 2.646-1.212s1.943.402 2.635 1.206 1.038 1.83 1.038 3.078zm-.6.024c0-1.12-.286-2.032-.858-2.736-.572-.704-1.318-1.056-2.238-1.056-.912 0-1.652.352-2.22 1.056-.568.704-.852 1.608-.852 2.712 0 1.12.286 2.032.858 2.736.572.704 1.318 1.056 2.238 1.056.913 0 1.653-.352 2.22-1.056.57-.704.853-1.608.853-2.712zM292.337 63.26h-.456l-5.075-7.404v7.404h-.552v-8.28h.588l4.945 7.2v-7.2h.552v8.28zM298.625 61.124c0 .68-.244 1.222-.732 1.626-.488.404-1.088.606-1.8.606-.84 0-1.544-.164-2.112-.492l.085-.588c.608.376 1.296.564 2.064.564.543 0 .995-.154 1.355-.462s.54-.714.54-1.218c0-.424-.13-.778-.39-1.062-.26-.284-.71-.562-1.35-.834-.816-.344-1.382-.686-1.698-1.026-.316-.34-.474-.794-.474-1.362 0-.584.216-1.062.648-1.434s.97-.558 1.61-.558c.727 0 1.323.136 1.787.408l-.084.576c-.544-.312-1.12-.468-1.728-.468-.488 0-.884.138-1.188.414-.304.276-.456.622-.456 1.038 0 .424.13.764.385 1.02.256.256.716.524 1.38.804.768.32 1.32.664 1.656 1.032.336.368.505.84.505 1.416zM307.06 59.108c0 1.256-.35 2.288-1.05 3.096-.7.808-1.582 1.212-2.646 1.212-1.064 0-1.942-.402-2.634-1.206-.692-.804-1.038-1.83-1.038-3.078 0-1.256.35-2.288 1.05-3.096.7-.808 1.582-1.212 2.646-1.212s1.942.402 2.634 1.206 1.038 1.83 1.038 3.078zm-.6.024c0-1.12-.286-2.032-.858-2.736-.572-.704-1.318-1.056-2.238-1.056-.912 0-1.652.352-2.22 1.056-.568.704-.852 1.608-.852 2.712 0 1.12.286 2.032.858 2.736.572.704 1.318 1.056 2.238 1.056.912 0 1.652-.352 2.22-1.056.57-.704.852-1.608.852-2.712zM311.128 59.396l.696.96 1.392 1.896.696.96-.6.132-2.82-3.888h-1.236v3.804h-.576v-8.28h1.992c.784 0 1.408.194 1.872.582.464.388.696.922.696 1.602 0 .616-.196 1.114-.588 1.494s-.9.626-1.524.738zm1.513-2.208c0-.544-.173-.962-.52-1.254-.35-.292-.843-.438-1.483-.438h-1.38v3.456h1.224c.673 0 1.2-.152 1.585-.456.383-.304.576-.74.576-1.308zM319.396 63.26h-4.308v-8.28h4.188v.516h-3.612v3.168h2.904l.072.516h-2.976v3.564h3.732v.516zM327.196 59.108c0 1.28-.396 2.292-1.188 3.036-.792.744-1.832 1.116-3.12 1.116h-2.1v-8.28h2.136c1.32 0 2.362.376 3.126 1.128s1.146 1.752 1.146 3zm-.6.012c0-1.152-.334-2.044-1.002-2.676s-1.562-.948-2.682-.948h-1.548v7.248h1.584c1.12 0 2.008-.312 2.664-.936s.984-1.52.984-2.688zM335.896 60.908c0 .736-.26 1.312-.78 1.728s-1.204.624-2.052.624h-1.848v-8.28h1.848c.792 0 1.4.18 1.824.54.424.36.636.848.636 1.464 0 .44-.12.824-.36 1.152-.24.328-.56.572-.96.732 1.128.304 1.692.984 1.692 2.04zm-.96-3.9c0-.48-.162-.852-.486-1.116-.324-.264-.794-.396-1.41-.396h-1.248v3.18h1.26c.6 0 1.064-.16 1.392-.48.328-.32.492-.716.492-1.188zm.372 3.96c0-.608-.2-1.06-.6-1.356s-.948-.444-1.644-.444h-1.272v3.576h1.32c.672 0 1.206-.16 1.602-.48.396-.32.594-.752.594-1.296zM342.88 54.98l-2.952 4.716v3.564h-.576v-3.552l-2.94-4.692.576-.12 2.664 4.332 2.604-4.248h.624z"/></g></g></svg>