<?xml version="1.0" encoding="utf-8"?>
<!-- Generator: Adobe Illustrator 16.0.0, SVG Export Plug-In . SVG Version: 6.00 Build 0)  -->
<!DOCTYPE svg PUBLIC "-//W3C//DTD SVG 1.1//EN" "http://www.w3.org/Graphics/SVG/1.1/DTD/svg11.dtd">
<svg version="1.1" id="Layer_1" xmlns="http://www.w3.org/2000/svg" xmlns:xlink="http://www.w3.org/1999/xlink" x="0px" y="0px"
	 width="280px" height="112px" viewBox="10 -10.5 280 112" enable-background="new 10 -10.5 280 112" xml:space="preserve">
<g>
	<path fill="#FFFFFF" d="M21.592,23.258c0,2.624,0.498,3.345,2.36,3.345v0.649h-7.728v-0.649c1.561,0,2.474-0.456,2.474-3.461V6.524
		H15.54c-2.929,0-4.259,0.832-4.449,3.113h-0.645V4.661h0.645c0.305,0.265,0.649,0.451,1.182,0.605
		c0.498,0.119,1.179,0.189,2.093,0.189h11.407c1.901,0,2.777-0.227,3.464-0.795h0.685v4.978h-0.42
		c-0.42-1.82-1.136-3.111-4.598-3.111h-3.311L21.592,23.258L21.592,23.258L21.592,23.258z M45.102,18.082
		c0-3.193-2.24-4.673-4.491-4.673c-1.742,0-3.002,0.716-4.716,2.698V3.366H35.25l-4.34,0.457v0.645c1.906,0,2.401,0.265,2.401,2.015
		v17.534c0,2.166-0.385,2.545-2.4,2.587v0.649h7.227v-0.649c-1.673,0-2.242-0.419-2.242-1.819v-7.383
		c1.294-1.827,2.398-2.548,3.919-2.548c1.633,0,2.699,1.135,2.699,2.928v6.658c0,1.741-0.415,2.166-2.244,2.166v0.649h6.997v-0.649
		c-1.784,0-2.167-0.532-2.167-2.588v-5.933L45.102,18.082L45.102,18.082z M51.392,18.387c0.156-2.508,1.487-4.18,3.729-4.18
		c1.71,0,3.728,1.212,3.609,4.18H51.392z M61.282,19.035c0.191-3.118-2.7-5.626-5.816-5.626c-3.804,0-6.771,3.195-6.771,7.258
		c0,4.074,3.045,7,7.267,7c2.353,0,3.918-0.797,5.55-2.886v-0.99c-1.941,2.171-2.89,2.815-4.755,2.815
		c-1.83,0-5.436-1.524-5.366-7.571H61.282L61.282,19.035z M96.258,7.332c0-4.039,1.088-5.429,4.463-5.429v-1.02h-10.43v1.022
		c3.015,0,4.224,1.146,4.224,5.668v20.192h-0.124L72.805,0.887h-8.858v1.021c4.098,0.365,5.126,2.531,5.126,6.389v20.195
		c0,5.005-1.389,5.907-4.277,5.907v1.029h10.484v-1.029c-3.13,0-4.517-1.264-4.517-4.763V5.4h0.12l24.355,30.023h1.022l0.002-28.09
		L96.258,7.332L96.258,7.332z M128.126,6.846h-1.021c-1.812,3.679-4.223,6.274-7.116,7.72v1.024h4.041v14.29
		c0,3.675,2.532,6.206,6.149,6.206c2.411,0,4.579-1.205,6.448-3.558l-0.663-0.784c-1.267,1.446-2.415,2.049-3.983,2.049
		c-2.352,0-3.858-1.509-3.858-4.46V15.589h7.415v-1.568h-7.412V6.846z M159.85,13.48h-1.029l-7.234,0.664v1.023
		c3.675,0.063,4.161,0.42,4.161,3.376v11.515c-1.75,2.356-3.616,3.5-5.669,3.5c-2.894,0-4.822-1.811-4.822-4.826V13.478h-1.027
		l-6.875,0.664v1.023c3.08,0,3.8,0.786,3.8,2.833v10.911c0,3.98,2.771,7.17,6.992,7.17c2.892,0,5.371-1.386,7.481-4.161h0.115v3.92
		l7.774-0.419v-1.026c-2.892,0-3.673-0.664-3.673-3.013l0.006-17.903V13.48L159.85,13.48z M173.094,19.691
		c1.927-1.867,3.133-2.595,4.521-2.595c1.441,0,3.312,0.906,5.064,1.867l1.634-3.796c-1.088-0.959-2.718-1.685-3.925-1.685
		c-1.452,0-3.314,1.208-7.293,4.641v-4.641h-1.027l-7.475,0.662v1.023c3.617,0,4.401,0.362,4.401,3.5v11.632
		c0,3.255-0.359,4.1-3.617,4.1v1.026h11.272v-1.026c-2.829,0-3.554-0.665-3.554-3.014L173.094,19.691L173.094,19.691L173.094,19.691
		z M188.92,21.378c0.231-3.981,2.352-6.631,5.906-6.631c2.713,0,5.906,1.926,5.729,6.63h-11.638v0H188.92z M204.595,22.404
		c0.3-4.945-4.278-8.925-9.222-8.925c-6.03,0-10.729,5.063-10.729,11.515c0,6.45,4.824,11.087,11.51,11.087
		c3.738,0,6.214-1.262,8.805-4.58v-1.567c-3.077,3.437-4.577,4.463-7.538,4.463c-2.888,0-8.613-2.41-8.497-11.993H204.595
		L204.595,22.404z M32.704,43.894v-7.72h-0.725c-0.273,0.542-0.724,0.813-1.4,0.813c-1.533,0-3.971-1.08-7.223-1.08
		C15.642,35.91,10,41.957,10,50.17c0,8.615,6.502,12.861,12.727,12.861c4.967,0,9.073-2.57,10.788-6.682l-0.672-0.631
		c-1.944,3.795-4.968,5.688-9.033,5.688c-5.817,0-9.836-5.098-9.836-12.859c0-6.636,3.339-11.647,9.566-11.647
		c4.468,0,7.134,2.125,8.397,7h0.766L32.704,43.894L32.704,43.894z M43.879,46.877c3.703,0,5.418,3.561,5.418,7.58
		c0,3.879-1.629,7.545-5.417,7.545c-3.699,0-5.414-3.438-5.414-7.545c0-4.598,2.029-7.58,5.414-7.58 M43.881,62.9
		c5.012,0,8.755-3.611,8.755-8.451c0-4.867-3.743-8.477-8.752-8.477c-5.01,0-8.752,3.614-8.752,8.481
		c0,4.832,3.749,8.445,8.754,8.445 M71.184,51.703c0-3.835-2.756-5.729-5.417-5.729c-2.038,0-3.881,1.038-5.778,3.202v-3.205h-0.769
		l-4.962,0.492v0.766c2.167,0,2.665,0.402,2.665,2.352v8.98c0,2.883-0.544,3.063-2.665,3.063V62.4h8.439v-0.777
		c-2.392,0-2.708-0.631-2.708-3.064V50.75c1.583-2.118,2.978-3.117,4.557-3.117c1.717,0,3.567,1.083,3.567,3.66v8.352
		c0,1.484-0.588,1.977-2.751,1.977v0.777h8.529v-0.777c-2.256,0-2.707-0.629-2.707-2.703v-7.221v0.006H71.184z M85.294,50.889v-4.92
		H84.53c-0.225,0.541-0.544,0.768-0.95,0.768c-1.081,0-1.577-0.768-3.246-0.768c-2.66,0-4.875,2.123-4.875,4.604
		c0,5.414,8.484,4.197,8.484,8.662c0,1.584-1.216,2.754-2.798,2.754c-1.983,0-4.472-1.318-5.146-4.654h-0.767v5.461h0.768
		c0.047-0.574,0.455-1.074,1.039-1.074c0.769,0,2.302,1.18,4.064,1.18c2.75,0,5.053-2.26,5.053-4.924c0-5.961-8.4-4.877-8.4-8.938
		c0-1.306,1.089-2.17,2.667-2.17c1.895,0,3.656,1.354,3.97,4.014l0.901,0.004V50.889z M91.058,51.883
		c0.18-2.976,1.761-4.963,4.421-4.963c2.035,0,4.423,1.447,4.29,4.963H91.058z M102.794,52.654c0.228-3.701-3.203-6.682-6.906-6.682
		c-4.514,0-8.032,3.79-8.032,8.622c0,4.826,3.611,8.305,8.62,8.305c2.8,0,4.648-0.953,6.587-3.434v-1.178
		c-2.299,2.58-3.427,3.34-5.642,3.34c-2.165,0-6.45-1.803-6.362-8.975L102.794,52.654L102.794,52.654L102.794,52.654z
		 M110.746,50.625c1.444-1.398,2.346-1.939,3.381-1.939c1.084,0,2.483,0.678,3.792,1.393l1.221-2.844
		c-0.809-0.723-2.03-1.264-2.935-1.264c-1.081,0-2.482,0.904-5.46,3.477v-3.471h-0.77l-5.6,0.498v0.759
		c2.711,0,3.297,0.271,3.297,2.623v8.715c0,2.434-0.273,3.068-2.709,3.068v0.768h8.439v-0.768c-2.121,0-2.66-0.498-2.66-2.26
		L110.746,50.625L110.746,50.625z M126.222,49.99c-0.721-1.762-0.314-2.621,1.22-2.754v-0.766h-7.716v0.766
		c1.893,0.092,2.303,0.363,3.382,2.977l5.103,12.547h0.762l5.148-13.228c0.771-1.716,1.224-2.114,3.068-2.298v-0.766h-5.873v0.768
		c2.349,0.182,2.349,1.129,1.582,3.205l-3.114,8.074l-3.565-8.529h0.005V49.99z M169.047,51.703c0-3.833-2.748-5.727-5.415-5.727
		c-2.029,0-3.88,1.038-5.776,3.2v-3.205h-0.763l-4.971,0.492v0.766c2.171,0,2.669,0.408,2.669,2.354v8.977
		c0,2.883-0.542,3.064-2.669,3.064v0.775h8.446v-0.775c-2.394,0-2.712-0.627-2.712-3.063v-7.816
		c1.586-2.115,2.979-3.113,4.563-3.113c1.713,0,3.567,1.085,3.567,3.656v8.354c0,1.484-0.587,1.98-2.753,1.98v0.771h8.521v-0.771
		c-2.252,0-2.704-0.631-2.704-2.707L169.047,51.703L169.047,51.703L169.047,51.703z M186.811,45.978h-0.77
		c-0.27,0.586-0.68,0.901-1.087,0.901c-0.812,0-2.119-0.901-4.511-0.901c-4.556,0-8.259,3.918-8.259,8.842
		c0,4.781,3.291,8.082,8.034,8.082c2.884,0,5.326-1.182,7.035-3.525v-1.174c-1.667,2.303-4.014,3.336-5.953,3.336
		c-3.251,0-6-3.662-6-8.039c0-3.922,2.215-6.631,5.369-6.631c2.664,0,4.693,1.849,5.37,4.738h0.771v-5.637V45.978L186.811,45.978z
		 M194.44,49.678c-0.593-1.354-0.094-2.254,1.124-2.437v-0.766h-7.677v0.766c1.849,0.048,2.438,0.543,3.254,2.39l5.733,13.223
		l-2.079,5.781c-0.994,2.799-2.119,3.924-4.063,3.924c-0.543,0-0.9-0.088-1.529-0.357l-1.041,2.756
		c0.813,0.492,1.313,0.678,1.981,0.678c1.945,0,4.024-2.121,5.283-5.814l6.366-18.826c0.905-2.659,1.938-3.744,3.659-3.744v-0.764
		h-5.64v0.764c1.754,0.096,1.891,1.131,1.264,3.021l-2.806,8.443l-3.832-9.033L194.44,49.678L194.44,49.678z M112.961,23.847
		c-4.038,1.749-7.652,1.687-7.652,6.027c0,2.172,1.504,3.921,3.253,3.921c1.264,0,3.56-0.902,4.402-2.714v-7.234H112.961z
		 M117.058,30.769c0,2.811,0.609,3.665,3.658,3.665v1.038h-7.488v-2.568l-0.011,0.006c-2.113,2.296-3.75,3.176-5.98,3.176
		c-3.314,0-6.086-2.532-6.086-5.667c0-6.091,8.322-5.847,11.812-7.901v-1.562c0-3.013-1.749-5.184-4.76-5.184
		c-2.414,0-4.764,1.51-5.664,4.585l-1.089-0.304c0.907-3.982,4.041-6.575,7.897-6.575c3.559,0,7.719,2.054,7.719,7.836l-0.009,9.459
		 M145.78,53.771c-2.993,1.293-5.677,1.246-5.677,4.463c0,1.609,1.12,2.9,2.417,2.9c0.937,0,2.637-0.666,3.261-2.01L145.78,53.771
		L145.78,53.771z M148.814,58.904c0,2.076,0.454,2.711,2.715,2.711v0.773h-5.547v-1.904l-0.012,0.008
		c-1.564,1.695-2.777,2.35-4.434,2.35c-2.458,0-4.513-1.877-4.513-4.201c0-4.51,6.168-4.332,8.756-5.854v-1.154
		c0-2.24-1.294-3.852-3.531-3.852c-1.784,0-3.528,1.119-4.2,3.396l-0.803-0.223c0.668-2.948,2.993-4.875,5.853-4.875
		c2.639,0,5.72,1.525,5.72,5.813l-0.008,7.01"/>
	<path fill="none" d="M289.996,25.103c-0.342-5.084-1.754-10.036-4.145-14.535c-1.518-1.41-2.766-2.291-2.399-0.022
		c0.201,1.255,5.727,11.55-2.563,19.51l-0.02-0.223c-0.092-0.94-0.662-4.636-3.898-5.121c-3.948-0.59-0.673-6.627-2.589-9.443
		c-2.71-3.966-3.405,1.479-4.362,2.673c-0.968,1.217-4.984,3.483-4.984,0.356c0-3.562-2.497-4.005-3.459-5.164
		c-0.917-1.113-0.549-1.702,1.182-3.631c3.153-3.517,0.881-5.732-0.035-4.92c-1.383,1.206-1.057,1.469-3.585,2.01
		c-1.903,0.418-1.812-2.827-1.58-4.151c1.308-7.524-3.703-10.383-10.867-10.526c-16.716,3.278-29.325,18.003-29.325,35.68
		c0,19.313,15.063,35.098,34.072,36.283h4.567c4.121-0.256,8.068-1.199,11.703-2.713c-5.07,1.174-7.924-0.752-8.197-1.496
		c-0.551-1.459,3.708-0.463-0.304-2.527c-2.426-1.246-3.459-3.723-3.718-4.811l-0.829-0.455c-0.144-0.039-0.241-0.072-0.219-0.047
		c0,0-17.427-2.458-18.382-6.556c-1.019-4.381-6.644-3.334-6.712-6.835c-0.031-1.748,2.088-1.104,2.593-1.866
		c0.632-0.958-0.231-1.367-2.877-2.952c-6.982-4.193-5.976-10.804-4.839-11.833c0.741-0.673,1.552-0.296,2.292,0.082
		c0.728,0.367,1.387,0.739,1.837,0.108c0.908-1.256-4.249-8.369,6.643-16.446c0,0,1.292,4.168,5.263,5.593
		c4.219,1.516-2.626,7.228-1.134,11.061c0.839,2.153,2.542-0.549,4.102-2.061c1.337-1.297,3.192-4.61,5.506-3.888
		c2.043,0.637,1.33,3.312,1.787,4.735c0.603,1.845,2.073,1.262,2.866,2.877c0.771,1.543,0.229,2.193-2.104,4.206
		c-4.255,3.677-2.229,7.773-1.02,6.97c1.796-1.201,1.465-2.522,4.368-2.685c2.184-0.119,2.942,2.032,2.356,3.58
		c-0.588,1.558-0.933,2.042-0.584,3.156c0.905,2.853,0.375,1.983-1.107,4.579c-1.268,2.213-1.223,4.297,0.261,7.833
		c2.993,1.521,4.114,0.582,5.346-0.365c0.98-0.746,2.035-1.498,4.146-1.01c10.7,2.441,4.885-1.047,6.708-2.819
		c0.941-0.917,1.657-0.856,2.507-0.79c0.649,0.049,1.379,0.1,2.346-0.291c3.294-2.073,3.613-2.774,7.965,0.629
		c3.155-5.044,5.021-10.79,5.425-16.725v-5.019v0.004L289.996,25.103L289.996,25.103z"/>
	<ellipse fill="#FFFFFF" cx="253.68" cy="27.585" rx="36.316" ry="36.292"/>
	<path fill="#47A842" d="M289.996,25.103c-0.342-5.084-1.754-10.036-4.145-14.535c-1.518-1.41-2.766-2.291-2.399-0.022
		c0.201,1.255,5.727,11.55-2.563,19.51l-0.02-0.223c-0.092-0.94-0.662-4.636-3.898-5.121c-3.948-0.59-0.673-6.627-2.589-9.443
		c-2.71-3.966-3.405,1.479-4.362,2.673c-0.968,1.217-4.984,3.483-4.984,0.356c0-3.562-2.497-4.005-3.459-5.164
		c-0.917-1.113-0.549-1.702,1.182-3.631c3.153-3.517,0.881-5.732-0.035-4.92c-1.383,1.206-1.057,1.469-3.585,2.01
		c-1.903,0.418-1.812-2.827-1.58-4.151c1.308-7.524-3.703-10.383-10.867-10.526c-16.716,3.278-29.325,18.003-29.325,35.68
		c0,19.313,15.063,35.098,34.072,36.283h4.567c4.121-0.256,8.068-1.199,11.703-2.713c-5.07,1.174-7.924-0.752-8.197-1.496
		c-0.551-1.459,3.708-0.463-0.304-2.527c-2.426-1.246-3.459-3.723-3.718-4.811l-0.829-0.455c-0.144-0.039-0.241-0.072-0.219-0.047
		c0,0-17.427-2.458-18.382-6.556c-1.019-4.381-6.644-3.334-6.712-6.835c-0.031-1.748,2.088-1.104,2.593-1.866
		c0.632-0.958-0.231-1.367-2.877-2.952c-6.982-4.193-5.976-10.804-4.839-11.833c0.741-0.673,1.552-0.296,2.292,0.082
		c0.728,0.367,1.387,0.739,1.837,0.108c0.908-1.256-4.249-8.369,6.643-16.446c0,0,1.292,4.168,5.263,5.593
		c4.219,1.516-2.626,7.228-1.134,11.061c0.839,2.153,2.542-0.549,4.102-2.061c1.337-1.297,3.192-4.61,5.506-3.888
		c2.043,0.637,1.33,3.312,1.787,4.735c0.603,1.845,2.073,1.262,2.866,2.877c0.771,1.543,0.229,2.193-2.104,4.206
		c-4.255,3.677-2.229,7.773-1.02,6.97c1.796-1.201,1.465-2.522,4.368-2.685c2.184-0.119,2.942,2.032,2.356,3.58
		c-0.588,1.558-0.933,2.042-0.584,3.156c0.905,2.853,0.375,1.983-1.107,4.579c-1.268,2.213-1.223,4.297,0.261,7.833
		c2.993,1.521,4.114,0.582,5.346-0.365c0.98-0.746,2.035-1.498,4.146-1.01c10.7,2.441,4.885-1.047,6.708-2.819
		c0.941-0.917,1.657-0.856,2.507-0.79c0.649,0.049,1.379,0.1,2.346-0.291c3.294-2.073,3.613-2.774,7.965,0.629
		c3.155-5.044,5.021-10.79,5.425-16.725v-5.019v0.004L289.996,25.103L289.996,25.103z"/>
	<g>
		<path fill="#47A842" d="M256.707,52.992c0,0-23.902-9.278-24.728-32.798C231.976,20.194,234.29,38.077,256.707,52.992
			 M280.417,50.73c-1.825,1.104-4.779,3.709-9.616,2.186c0,0,1.891,1.455,4.934,1.375c-3.88,2.008-8.087,2.48-14.745,0.818
			c0,0,13.481,7.947,22.901-7.267C283.891,47.846,281.55,50.041,280.417,50.73 M256.527-8.708c0.682,0.078,5.83,0.763,11.266,4.23
			c2.021,1.892,4.879,6.533,0.464,16.054c0,0,5.665-7.638,4.233-12.276c4.744,4.764,8.734,12.31,8.888,24.272
			C281.378,23.572,286.651-6.394,256.527-8.708"/>
	</g>
	<g>
		<path fill="#FFFFFF" d="M19.191,90.654h-1.43v5.486h-1.842V82.619h3.586c2.861,0,4.586,1.393,4.586,3.9
			C24.091,89.283,22.131,90.654,19.191,90.654z M19.407,84.246h-1.646v4.781h1.528c1.842,0,2.939-0.764,2.939-2.449
			C22.229,85.029,21.249,84.246,19.407,84.246z"/>
		<path fill="#FFFFFF" d="M27.738,90.615v5.525h-1.744v-9.348h1.392l0.294,1.9c0.666-1.057,1.744-2.018,3.272-2.096l0.274,1.666
			C29.678,88.342,28.365,89.379,27.738,90.615z"/>
		<path fill="#FFFFFF" d="M36.42,96.338c-2.489,0-4.292-1.785-4.292-4.861s1.803-4.879,4.292-4.879c2.508,0,4.35,1.803,4.35,4.879
			S38.928,96.338,36.42,96.338z M36.42,88.066c-1.686,0-2.528,1.451-2.528,3.41c0,1.92,0.882,3.41,2.528,3.41
			c1.725,0,2.586-1.449,2.586-3.41C39.006,89.557,38.105,88.066,36.42,88.066z"/>
		<path fill="#FFFFFF" d="M46.161,96.297c-1.646,0-2.724-0.586-2.724-2.469v-5.564h-1.411v-1.471h1.411v-3.115l1.705-0.256v3.371
			h2.018l0.235,1.471h-2.253v5.252c0,0.764,0.313,1.234,1.293,1.234c0.313,0,0.588-0.02,0.803-0.059l0.235,1.488
			C47.18,96.238,46.769,96.297,46.161,96.297z"/>
		<path fill="#FFFFFF" d="M57.077,91.652h-6.349c0.059,2.176,1.097,3.195,2.724,3.195c1.352,0,2.332-0.529,3.351-1.332l0.255,1.568
			c-1,0.783-2.195,1.254-3.743,1.254c-2.43,0-4.331-1.471-4.331-4.9c0-2.998,1.764-4.84,4.115-4.84c2.724,0,3.978,2.096,3.978,4.684
			C57.077,91.379,57.077,91.535,57.077,91.652z M53.079,87.969c-1.078,0-1.999,0.766-2.273,2.371h4.507
			C55.098,88.83,54.432,87.969,53.079,87.969z"/>
		<path fill="#FFFFFF" d="M63.114,96.338c-2.508,0-4.35-1.744-4.35-4.861c0-3.195,1.959-4.879,4.39-4.879
			c1.372,0,2.352,0.352,3.057,0.861l-0.254,1.705c-0.862-0.705-1.744-1.039-2.822-1.039c-1.528,0-2.606,1.158-2.606,3.332
			c0,2.273,1.156,3.352,2.802,3.352c0.94,0,1.764-0.215,2.724-1.039l0.255,1.566C65.349,96.063,64.369,96.338,63.114,96.338z"/>
		<path fill="#FFFFFF" d="M71.66,96.297c-1.646,0-2.724-0.586-2.724-2.469v-5.564h-1.411v-1.471h1.411v-3.115l1.705-0.256v3.371
			h2.019l0.235,1.471h-2.253v5.252c0,0.764,0.313,1.234,1.293,1.234c0.313,0,0.588-0.02,0.803-0.059l0.235,1.488
			C72.679,96.238,72.268,96.297,71.66,96.297z"/>
		<path fill="#FFFFFF" d="M76.109,84.912c-0.607,0-1.117-0.488-1.117-1.098c0-0.607,0.509-1.115,1.117-1.115
			s1.098,0.508,1.098,1.115C77.207,84.424,76.717,84.912,76.109,84.912z M75.228,96.141v-9.348h1.744v9.348H75.228z"/>
		<path fill="#FFFFFF" d="M85.732,96.141v-6.369c0-0.959-0.411-1.605-1.43-1.605c-0.921,0-1.862,0.605-2.705,1.508v6.467h-1.744
			v-9.348h1.392l0.215,1.352c0.882-0.803,1.979-1.547,3.312-1.547c1.764,0,2.704,1.057,2.704,2.744v6.799H85.732z"/>
		<path fill="#FFFFFF" d="M98.138,86.656l0.255,1.566L96.61,88.4c0.255,0.43,0.373,0.92,0.373,1.449c0,2-1.686,3.213-3.586,3.213
			c-0.235,0-0.47-0.018-0.706-0.057c-0.274,0.176-0.47,0.391-0.47,0.568c0,0.334,0.333,0.412,1.979,0.705l0.666,0.117
			c1.979,0.354,3.214,0.98,3.214,2.43c0,1.959-2.136,2.881-4.566,2.881c-2.43,0-4.37-0.766-4.37-2.41
			c0-0.959,0.667-1.705,1.979-2.41c-0.412-0.293-0.588-0.627-0.588-0.979c0-0.453,0.353-0.902,0.979-1.275
			c-1.039-0.51-1.744-1.51-1.744-2.783c0-2.018,1.685-3.252,3.586-3.252c0.94,0,1.764,0.273,2.41,0.783L98.138,86.656z M90.81,97.16
			c0,0.744,0.96,1.293,2.782,1.293c1.823,0,2.842-0.627,2.842-1.41c0-0.568-0.431-0.961-1.764-1.195l-1.117-0.197
			c-0.509-0.098-0.784-0.156-1.156-0.236C91.299,95.963,90.81,96.512,90.81,97.16z M93.357,87.871c-1.176,0-1.901,0.9-1.901,2.039
			c0,1.076,0.745,1.92,1.901,1.92c1.195,0,1.94-0.883,1.94-1.998C95.297,88.715,94.513,87.871,93.357,87.871z"/>
		<path fill="#FFFFFF" d="M110.251,96.141v-6.369c0-0.959-0.412-1.605-1.43-1.605c-0.921,0-1.862,0.605-2.705,1.508v6.467h-1.744
			v-9.348h1.392l0.215,1.352c0.882-0.803,1.979-1.547,3.312-1.547c1.764,0,2.704,1.057,2.704,2.744v6.799H110.251z"/>
		<path fill="#FFFFFF" d="M120.365,96.141l-0.196-1.254c-0.745,0.764-1.764,1.451-3.292,1.451c-1.685,0-2.744-1.02-2.744-2.607
			c0-2.332,1.999-3.254,5.898-3.664v-0.393c0-1.176-0.705-1.588-1.783-1.588c-1.136,0-2.214,0.354-3.233,0.805l-0.235-1.51
			c1.117-0.449,2.175-0.783,3.625-0.783c2.273,0,3.371,0.92,3.371,2.998v6.545H120.365z M120.031,91.398
			c-3.449,0.332-4.174,1.273-4.174,2.234c0,0.764,0.51,1.254,1.392,1.254c1.019,0,1.999-0.51,2.782-1.313V91.398z"/>
		<path fill="#FFFFFF" d="M127.656,96.297c-1.646,0-2.724-0.586-2.724-2.469v-5.564h-1.411v-1.471h1.411v-3.115l1.705-0.256v3.371
			h2.019l0.235,1.471h-2.253v5.252c0,0.764,0.313,1.234,1.293,1.234c0.313,0,0.588-0.02,0.803-0.059l0.235,1.488
			C128.675,96.238,128.263,96.297,127.656,96.297z"/>
		<path fill="#FFFFFF" d="M137.278,96.141l-0.215-1.354c-0.882,0.824-1.999,1.551-3.312,1.551c-1.783,0-2.704-1.061-2.704-2.744
			v-6.801h1.744v6.369c0,0.961,0.411,1.607,1.43,1.607c0.921,0,1.862-0.609,2.705-1.51v-6.467h1.744v9.348H137.278z"/>
		<path fill="#FFFFFF" d="M143.159,90.615v5.525h-1.744v-9.348h1.391l0.294,1.9c0.667-1.057,1.744-2.018,3.273-2.096l0.274,1.666
			C145.099,88.342,143.786,89.379,143.159,90.615z"/>
		<path fill="#FFFFFF" d="M155.644,91.652h-6.35c0.059,2.176,1.098,3.195,2.724,3.195c1.353,0,2.332-0.529,3.351-1.332l0.256,1.568
			c-0.999,0.783-2.195,1.254-3.743,1.254c-2.43,0-4.331-1.471-4.331-4.9c0-2.998,1.764-4.84,4.115-4.84
			c2.725,0,3.979,2.096,3.979,4.684C155.644,91.379,155.644,91.535,155.644,91.652z M151.646,87.969c-1.079,0-2,0.766-2.274,2.371
			h4.506C153.664,88.83,152.998,87.969,151.646,87.969z"/>
		<path fill="#FFFFFF" d="M157.742,96.141v-2.332h1.939v2.332H157.742z"/>
		<path fill="#FFFFFF" d="M170.146,90.654h-1.43v5.486h-1.842V82.619h3.585c2.862,0,4.587,1.393,4.587,3.9
			C175.047,89.283,173.087,90.654,170.146,90.654z M170.362,84.246h-1.646v4.781h1.528c1.842,0,2.939-0.764,2.939-2.449
			C173.185,85.029,172.205,84.246,170.362,84.246z"/>
		<path fill="#FFFFFF" d="M178.693,90.615v5.525h-1.743v-9.348h1.391l0.293,1.9c0.668-1.057,1.745-2.018,3.273-2.096l0.274,1.666
			C180.634,88.342,179.32,89.379,178.693,90.615z"/>
		<path fill="#FFFFFF" d="M191.178,91.652h-6.35c0.059,2.176,1.098,3.195,2.724,3.195c1.353,0,2.332-0.529,3.351-1.332l0.255,1.568
			c-0.999,0.783-2.194,1.254-3.742,1.254c-2.43,0-4.331-1.471-4.331-4.9c0-2.998,1.764-4.84,4.115-4.84
			c2.725,0,3.979,2.096,3.979,4.684C191.178,91.379,191.178,91.535,191.178,91.652z M187.18,87.969
			c-1.078,0-1.999,0.766-2.272,2.371h4.506C189.198,88.83,188.531,87.969,187.18,87.969z"/>
		<path fill="#FFFFFF" d="M196.234,96.338c-1.234,0-2.605-0.432-3.409-0.883l0.255-1.646c0.881,0.607,2.019,1.078,3.292,1.078
			c1.194,0,1.9-0.451,1.9-1.234c0-0.863-0.528-1.176-2.214-1.588c-2.195-0.549-3.076-1.215-3.076-2.881
			c0-1.488,1.254-2.586,3.292-2.586c1.155,0,2.194,0.234,3.076,0.627l-0.274,1.646c-0.823-0.471-1.861-0.805-2.842-0.805
			c-1.058,0-1.606,0.412-1.606,1.078c0,0.627,0.471,0.98,1.94,1.352c2.312,0.59,3.35,1.254,3.35,3.037
			C199.918,95.24,198.646,96.338,196.234,96.338z"/>
		<path fill="#FFFFFF" d="M209.62,91.652h-6.35c0.06,2.176,1.098,3.195,2.725,3.195c1.352,0,2.332-0.529,3.352-1.332l0.254,1.568
			c-1,0.783-2.194,1.254-3.743,1.254c-2.43,0-4.33-1.471-4.33-4.9c0-2.998,1.764-4.84,4.115-4.84c2.724,0,3.978,2.096,3.978,4.684
			C209.62,91.379,209.62,91.535,209.62,91.652z M205.622,87.969c-1.077,0-1.998,0.766-2.272,2.371h4.508
			C207.642,88.83,206.975,87.969,205.622,87.969z"/>
		<path fill="#FFFFFF" d="M213.581,90.615v5.525h-1.744v-9.348h1.391l0.294,1.9c0.667-1.057,1.744-2.018,3.273-2.096l0.273,1.666
			C215.521,88.342,214.208,89.379,213.581,90.615z"/>
		<path fill="#FFFFFF" d="M222.949,96.18h-1.666l-3.313-9.248l1.744-0.275l2.431,7.389l2.352-7.252h1.782L222.949,96.18z"/>
		<path fill="#FFFFFF" d="M229.143,84.912c-0.608,0-1.117-0.488-1.117-1.098c0-0.607,0.509-1.115,1.117-1.115
			c0.607,0,1.097,0.508,1.097,1.115C230.239,84.424,229.75,84.912,229.143,84.912z M228.261,96.141v-9.348h1.744v9.348H228.261z"/>
		<path fill="#FFFFFF" d="M238.765,96.141v-6.369c0-0.959-0.411-1.605-1.431-1.605c-0.921,0-1.861,0.605-2.704,1.508v6.467h-1.744
			v-9.348h1.392l0.216,1.352c0.882-0.803,1.979-1.547,3.312-1.547c1.764,0,2.704,1.057,2.704,2.744v6.799H238.765z"/>
		<path fill="#FFFFFF" d="M251.171,86.656l0.256,1.566l-1.784,0.178c0.255,0.43,0.373,0.92,0.373,1.449c0,2-1.687,3.213-3.587,3.213
			c-0.235,0-0.47-0.018-0.705-0.057c-0.274,0.176-0.471,0.391-0.471,0.568c0,0.334,0.333,0.412,1.979,0.705l0.668,0.117
			c1.979,0.354,3.214,0.98,3.214,2.43c0,1.959-2.137,2.881-4.566,2.881c-2.431,0-4.37-0.766-4.37-2.41
			c0-0.959,0.666-1.705,1.979-2.41c-0.411-0.293-0.588-0.627-0.588-0.979c0-0.453,0.353-0.902,0.979-1.275
			c-1.038-0.51-1.744-1.51-1.744-2.783c0-2.018,1.685-3.252,3.586-3.252c0.94,0,1.764,0.273,2.41,0.783L251.171,86.656z
			 M243.842,97.16c0,0.744,0.96,1.293,2.783,1.293s2.842-0.627,2.842-1.41c0-0.568-0.432-0.961-1.765-1.195l-1.116-0.197
			c-0.51-0.098-0.784-0.156-1.157-0.236C244.332,95.963,243.842,96.512,243.842,97.16z M246.39,87.871
			c-1.176,0-1.901,0.9-1.901,2.039c0,1.076,0.746,1.92,1.901,1.92c1.196,0,1.939-0.883,1.939-1.998
			C248.329,88.715,247.546,87.871,246.39,87.871z"/>
		<path fill="#FFFFFF" d="M257.542,96.141V82.266l1.745-0.273v14.148H257.542z"/>
		<path fill="#FFFFFF" d="M263.187,84.912c-0.607,0-1.116-0.488-1.116-1.098c0-0.607,0.509-1.115,1.116-1.115
			c0.608,0,1.098,0.508,1.098,1.115C264.284,84.424,263.795,84.912,263.187,84.912z M262.306,96.141v-9.348h1.743v9.348H262.306z"/>
		<path fill="#FFFFFF" d="M270.458,83.717c-0.804,0-1.293,0.332-1.293,1.195v1.881h1.881l0.216,1.471h-2.097v7.877h-1.705v-7.877
			h-1.411v-1.471h1.411v-2.057c0-1.863,1.234-2.568,2.9-2.568c0.353,0,0.567,0.041,0.744,0.041l0.256,1.586
			C271.163,83.756,270.812,83.717,270.458,83.717z"/>
		<path fill="#FFFFFF" d="M280.414,91.652h-6.349c0.058,2.176,1.097,3.195,2.723,3.195c1.353,0,2.332-0.529,3.351-1.332l0.256,1.568
			c-0.999,0.783-2.195,1.254-3.743,1.254c-2.43,0-4.331-1.471-4.331-4.9c0-2.998,1.764-4.84,4.115-4.84
			c2.725,0,3.979,2.096,3.979,4.684C280.414,91.379,280.414,91.535,280.414,91.652z M276.417,87.969c-1.079,0-2,0.766-2.273,2.371
			h4.506C278.435,88.83,277.769,87.969,276.417,87.969z"/>
		<path fill="#FFFFFF" d="M282.513,96.141v-2.332h1.939v2.332H282.513z"/>
	</g>
</g>
</svg>
