<?xml version="1.0" encoding="utf-8"?>
<!-- Generator: Adobe Illustrator 17.0.0, SVG Export Plug-In . SVG Version: 6.00 Build 0)  -->
<!DOCTYPE svg PUBLIC "-//W3C//DTD SVG 1.1//EN" "http://www.w3.org/Graphics/SVG/1.1/DTD/svg11.dtd">
<svg version="1.1" id="Layer_1" xmlns="http://www.w3.org/2000/svg" xmlns:xlink="http://www.w3.org/1999/xlink" x="0px" y="0px"
	 width="225px" height="87.118px" viewBox="27.5 12.441 225 87.118" enable-background="new 27.5 12.441 225 87.118"
	 xml:space="preserve">
<g>
	<path fill="#FFFFFF" d="M36.815,38.128c0,2.109,0.4,2.688,1.896,2.688v0.522h-6.21v-0.522c1.254,0,1.988-0.366,1.988-2.781V24.681
		h-2.538c-2.354,0-3.422,0.669-3.575,2.502h-0.518v-3.999h0.518c0.245,0.213,0.522,0.362,0.95,0.486
		c0.4,0.096,0.947,0.152,1.682,0.152h9.166c1.528,0,2.232-0.182,2.784-0.639h0.55v4h-0.338c-0.337-1.463-0.913-2.5-3.695-2.5h-2.661
		L36.815,38.128L36.815,38.128L36.815,38.128z M55.707,33.968c0-2.566-1.8-3.755-3.609-3.755c-1.4,0-2.412,0.575-3.79,2.168V22.143
		H47.79l-3.487,0.367v0.518c1.532,0,1.929,0.213,1.929,1.619v14.09c0,1.741-0.309,2.045-1.929,2.079v0.522h5.807v-0.522
		c-1.344,0-1.802-0.337-1.802-1.462v-5.933c1.04-1.468,1.927-2.047,3.149-2.047c1.312,0,2.169,0.912,2.169,2.353v5.35
		c0,1.399-0.333,1.741-1.803,1.741v0.522h5.623v-0.522c-1.434,0-1.741-0.428-1.741-2.08v-4.768L55.707,33.968L55.707,33.968z
		 M60.761,34.214c0.125-2.015,1.195-3.359,2.997-3.359c1.374,0,2.996,0.974,2.9,3.359H60.761z M68.709,34.734
		c0.153-2.506-2.17-4.521-4.674-4.521c-3.057,0-5.441,2.567-5.441,5.832c0,3.274,2.447,5.625,5.84,5.625
		c1.891,0,3.148-0.64,4.46-2.319v-0.796c-1.56,1.745-2.322,2.262-3.821,2.262c-1.471,0-4.368-1.225-4.312-6.084H68.709
		L68.709,34.734z M96.814,25.33c0-3.246,0.874-4.363,3.586-4.363v-0.82H92.02v0.821c2.423,0,3.394,0.921,3.394,4.555v16.226h-0.1
		L77.968,20.151H70.85v0.82c3.293,0.293,4.119,2.034,4.119,5.134v16.228c0,4.022-1.116,4.747-3.437,4.747v0.827h8.425V47.08
		c-2.515,0-3.63-1.016-3.63-3.827V23.778h0.096l19.571,24.126h0.821l0.002-22.572L96.814,25.33L96.814,25.33z M122.423,24.94h-0.82
		c-1.456,2.956-3.393,5.042-5.718,6.204v0.823h3.247v11.483c0,2.953,2.035,4.987,4.941,4.987c1.937,0,3.68-0.968,5.181-2.859
		l-0.533-0.63c-1.018,1.162-1.941,1.647-3.201,1.647c-1.89,0-3.1-1.213-3.1-3.584V31.965h5.958v-1.26h-5.956L122.423,24.94
		L122.423,24.94z M147.915,30.27h-0.827l-5.813,0.534v0.822c2.953,0.051,3.344,0.337,3.344,2.713v9.253
		c-1.406,1.893-2.906,2.813-4.555,2.813c-2.326,0-3.875-1.455-3.875-3.878V30.269h-0.825l-5.525,0.534v0.822
		c2.475,0,3.054,0.632,3.054,2.277v8.768c0,3.198,2.227,5.762,5.619,5.762c2.324,0,4.316-1.114,6.012-3.344h0.092v3.15l6.247-0.337
		v-0.824c-2.324,0-2.952-0.534-2.952-2.421l0.005-14.386V30.27L147.915,30.27z M158.558,35.261c1.548-1.5,2.518-2.085,3.633-2.085
		c1.158,0,2.661,0.728,4.069,1.5l1.313-3.05c-0.874-0.771-2.184-1.354-3.154-1.354c-1.167,0-2.663,0.971-5.86,3.729v-3.729h-0.825
		l-6.007,0.532v0.822c2.907,0,3.537,0.291,3.537,2.812v9.347c0,2.616-0.288,3.295-2.907,3.295v0.824h9.058V47.08
		c-2.273,0-2.856-0.534-2.856-2.422L158.558,35.261L158.558,35.261L158.558,35.261z M171.275,36.617
		c0.186-3.199,1.89-5.328,4.746-5.328c2.18,0,4.746,1.548,4.604,5.328h-9.352l0,0L171.275,36.617L171.275,36.617z M183.871,37.442
		c0.241-3.974-3.438-7.172-7.411-7.172c-4.846,0-8.622,4.068-8.622,9.253c0,5.183,3.876,8.909,9.249,8.909
		c3.004,0,4.993-1.014,7.075-3.68v-1.259c-2.473,2.762-3.678,3.586-6.057,3.586c-2.321,0-6.921-1.937-6.828-9.637L183.871,37.442
		L183.871,37.442z M45.744,54.71v-6.204h-0.583c-0.219,0.436-0.582,0.653-1.125,0.653c-1.232,0-3.191-0.868-5.804-0.868
		C32.034,48.295,27.5,53.154,27.5,59.753c0,6.923,5.225,10.335,10.227,10.335c3.991,0,7.291-2.065,8.669-5.369l-0.54-0.507
		c-1.562,3.05-3.992,4.571-7.259,4.571c-4.674,0-7.904-4.097-7.904-10.333c0-5.333,2.683-9.359,7.687-9.359
		c3.59,0,5.733,1.708,6.748,5.625h0.616L45.744,54.71L45.744,54.71z M54.724,57.107c2.976,0,4.354,2.862,4.354,6.091
		c0,3.117-1.309,6.063-4.353,6.063c-2.972,0-4.351-2.763-4.351-6.063C50.374,59.504,52.005,57.107,54.724,57.107 M54.726,69.983
		c4.028,0,7.035-2.902,7.035-6.791c0-3.911-3.008-6.812-7.033-6.812c-4.026,0-7.033,2.904-7.033,6.815
		c0,3.883,3.013,6.786,7.034,6.786 M76.666,60.985c0-3.082-2.215-4.604-4.353-4.604c-1.638,0-3.119,0.834-4.643,2.573v-2.575h-0.618
		l-3.987,0.395v0.616c1.741,0,2.142,0.323,2.142,1.89v7.216c0,2.317-0.437,2.461-2.142,2.461v0.624h6.781v-0.624
		c-1.922,0-2.176-0.507-2.176-2.462V60.22c1.272-1.702,2.393-2.505,3.662-2.505c1.38,0,2.866,0.87,2.866,2.941v6.711
		c0,1.192-0.472,1.589-2.211,1.589v0.624h6.854v-0.624c-1.813,0-2.175-0.505-2.175-2.172v-5.803V60.985L76.666,60.985L76.666,60.985
		z M88.004,60.331v-3.954H87.39c-0.181,0.435-0.437,0.617-0.763,0.617c-0.869,0-1.267-0.617-2.608-0.617
		c-2.138,0-3.917,1.706-3.917,3.7c0,4.351,6.818,3.373,6.818,6.961c0,1.273-0.977,2.213-2.248,2.213
		c-1.593,0-3.594-1.059-4.135-3.74h-0.616v4.388h0.617c0.038-0.461,0.366-0.863,0.835-0.863c0.618,0,1.85,0.948,3.266,0.948
		c2.21,0,4.06-1.816,4.06-3.957c0-4.79-6.75-3.919-6.75-7.182c0-1.049,0.875-1.744,2.143-1.744c1.523,0,2.938,1.088,3.19,3.226
		L88.004,60.331L88.004,60.331L88.004,60.331z M92.636,61.13c0.145-2.391,1.415-3.988,3.553-3.988c1.635,0,3.554,1.163,3.447,3.988
		H92.636z M102.067,61.75c0.183-2.974-2.574-5.369-5.549-5.369c-3.627,0-6.454,3.046-6.454,6.928c0,3.878,2.902,6.674,6.927,6.674
		c2.25,0,3.735-0.766,5.293-2.759v-0.947c-1.847,2.073-2.754,2.684-4.534,2.684c-1.74,0-5.183-1.449-5.112-7.212L102.067,61.75
		L102.067,61.75L102.067,61.75z M108.457,60.119c1.16-1.123,1.885-1.558,2.717-1.558c0.871,0,1.995,0.545,3.047,1.119l0.981-2.285
		c-0.65-0.581-1.631-1.016-2.358-1.016c-0.869,0-1.994,0.726-4.387,2.794v-2.789h-0.619l-4.5,0.4v0.61
		c2.178,0,2.649,0.218,2.649,2.108v7.003c0,1.956-0.219,2.465-2.177,2.465v0.617h6.781V68.97c-1.704,0-2.138-0.4-2.138-1.816
		L108.457,60.119L108.457,60.119z M120.893,59.609c-0.579-1.416-0.252-2.106,0.98-2.213V56.78h-6.2v0.616
		c1.521,0.074,1.851,0.292,2.718,2.392l4.101,10.082h0.612l4.137-10.63c0.62-1.379,0.984-1.699,2.465-1.847v-0.616h-4.719v0.617
		c1.888,0.146,1.888,0.907,1.271,2.575l-2.502,6.488l-2.865-6.854h0.004v0.003H120.893z M155.306,60.985
		c0-3.08-2.208-4.602-4.351-4.602c-1.63,0-3.118,0.834-4.641,2.571v-2.575H145.7l-3.995,0.395v0.616
		c1.745,0,2.145,0.328,2.145,1.892v7.214c0,2.317-0.436,2.462-2.145,2.462v0.623h6.787v-0.623c-1.924,0-2.179-0.504-2.179-2.461
		v-6.281c1.274-1.7,2.394-2.502,3.667-2.502c1.377,0,2.866,0.872,2.866,2.938v6.713c0,1.192-0.472,1.591-2.212,1.591v0.62h6.847
		v-0.62c-1.81,0-2.173-0.507-2.173-2.175L155.306,60.985L155.306,60.985L155.306,60.985z M169.58,56.385h-0.619
		c-0.217,0.471-0.546,0.724-0.873,0.724c-0.652,0-1.703-0.724-3.625-0.724c-3.661,0-6.637,3.148-6.637,7.105
		c0,3.842,2.645,6.494,6.456,6.494c2.318,0,4.28-0.95,5.653-2.833v-0.943c-1.34,1.851-3.226,2.681-4.784,2.681
		c-2.612,0-4.821-2.943-4.821-6.46c0-3.152,1.78-5.328,4.314-5.328c2.141,0,3.771,1.486,4.315,3.807h0.62v-4.53L169.58,56.385
		L169.58,56.385z M175.711,59.358c-0.477-1.088-0.076-1.811,0.903-1.958v-0.616h-6.169V57.4c1.486,0.039,1.959,0.436,2.615,1.921
		l4.607,10.626l-1.671,4.645c-0.799,2.249-1.703,3.153-3.265,3.153c-0.436,0-0.723-0.071-1.229-0.287l-0.837,2.215
		c0.653,0.395,1.055,0.545,1.592,0.545c1.563,0,3.234-1.704,4.245-4.672l5.116-15.128c0.727-2.137,1.557-3.009,2.94-3.009v-0.614
		h-4.532v0.614c1.409,0.077,1.52,0.909,1.016,2.428l-2.255,6.785l-3.079-7.259L175.711,59.358L175.711,59.358z M110.237,38.601
		c-3.245,1.405-6.149,1.356-6.149,4.843c0,1.745,1.209,3.151,2.614,3.151c1.016,0,2.861-0.725,3.537-2.181v-5.813H110.237z
		 M113.529,44.163c0,2.259,0.489,2.945,2.939,2.945v0.834h-6.017v-2.064l-0.009,0.005c-1.698,1.845-3.013,2.552-4.805,2.552
		c-2.663,0-4.891-2.035-4.891-4.554c0-4.895,6.687-4.698,9.492-6.349v-1.255c0-2.421-1.405-4.166-3.825-4.166
		c-1.94,0-3.828,1.213-4.551,3.684l-0.875-0.244c0.729-3.2,3.247-5.283,6.346-5.283c2.86,0,6.203,1.651,6.203,6.297l-0.007,7.601
		 M136.609,62.647c-2.405,1.039-4.562,1.001-4.562,3.586c0,1.293,0.9,2.33,1.942,2.33c0.753,0,2.119-0.535,2.62-1.615
		L136.609,62.647L136.609,62.647z M139.047,66.772c0,1.668,0.365,2.178,2.182,2.178v0.621h-4.457v-1.53l-0.01,0.006
		c-1.257,1.362-2.232,1.888-3.563,1.888c-1.975,0-3.627-1.508-3.627-3.376c0-3.624,4.956-3.481,7.036-4.704v-0.927
		c0-1.8-1.04-3.095-2.837-3.095c-1.434,0-2.835,0.899-3.375,2.729l-0.645-0.179c0.537-2.369,2.405-3.917,4.703-3.917
		c2.121,0,4.596,1.225,4.596,4.671l-0.006,5.633"/>
	<path fill="none" d="M252.497,39.61c-0.275-4.085-1.409-8.065-3.331-11.68c-1.22-1.133-2.223-1.841-1.928-0.018
		c0.162,1.008,4.602,9.281-2.06,15.678l-0.016-0.179c-0.074-0.755-0.532-3.725-3.132-4.115c-3.173-0.474-0.541-5.325-2.08-7.588
		c-2.178-3.187-2.736,1.188-3.505,2.148c-0.778,0.978-4.005,2.799-4.005,0.286c0-2.862-2.007-3.218-2.78-4.15
		c-0.737-0.894-0.441-1.368,0.95-2.918c2.534-2.826,0.708-4.606-0.028-3.954c-1.111,0.969-0.849,1.18-2.881,1.615
		c-1.529,0.336-1.456-2.272-1.27-3.336c1.051-6.046-2.976-8.343-8.732-8.458c-13.433,2.634-23.565,14.467-23.565,28.671
		c0,15.519,12.104,28.204,27.379,29.156h3.67c3.312-0.206,6.483-0.963,9.404-2.18c-4.074,0.943-6.368-0.604-6.587-1.202
		c-0.443-1.172,2.98-0.372-0.244-2.031c-1.949-1.001-2.78-2.992-2.988-3.866l-0.666-0.366c-0.116-0.031-0.194-0.058-0.176-0.038
		c0,0-14.004-1.975-14.771-5.268c-0.819-3.52-5.339-2.679-5.394-5.492c-0.025-1.405,1.678-0.887,2.084-1.499
		c0.508-0.77-0.186-1.098-2.312-2.372c-5.611-3.369-4.802-8.682-3.888-9.509c0.595-0.541,1.247-0.238,1.842,0.066
		c0.585,0.295,1.115,0.594,1.476,0.087c0.73-1.009-3.414-6.725,5.338-13.216c0,0,1.038,3.349,4.229,4.494
		c3.39,1.218-2.11,5.808-0.911,8.888c0.674,1.73,2.043-0.441,3.296-1.656c1.074-1.042,2.565-3.704,4.424-3.124
		c1.642,0.512,1.069,2.661,1.436,3.805c0.485,1.483,1.666,1.014,2.303,2.312c0.62,1.24,0.184,1.762-1.691,3.38
		c-3.419,2.955-1.791,6.246-0.82,5.601c1.443-0.965,1.177-2.027,3.51-2.158c1.755-0.096,2.364,1.633,1.893,2.877
		c-0.473,1.252-0.75,1.641-0.469,2.536c0.727,2.293,0.301,1.593-0.89,3.68c-1.019,1.778-0.983,3.453,0.21,6.294
		c2.405,1.222,3.306,0.468,4.296-0.293c0.788-0.599,1.635-1.204,3.332-0.812c8.598,1.962,3.925-0.841,5.39-2.265
		c0.756-0.737,1.332-0.688,2.015-0.635c0.522,0.039,1.108,0.08,1.885-0.234c2.647-1.666,2.903-2.229,6.4,0.505
		c2.535-4.053,4.035-8.671,4.359-13.44v-4.033v0.003L252.497,39.61L252.497,39.61z"/>
	<ellipse fill="#FFFFFF" cx="223.314" cy="41.605" rx="29.183" ry="29.163"/>
	<path fill="#47A842" d="M252.497,39.61c-0.275-4.085-1.409-8.065-3.331-11.68c-1.22-1.133-2.223-1.841-1.928-0.018
		c0.162,1.008,4.602,9.281-2.06,15.678l-0.016-0.179c-0.074-0.755-0.532-3.725-3.132-4.115c-3.173-0.474-0.541-5.325-2.08-7.588
		c-2.178-3.187-2.736,1.188-3.505,2.148c-0.778,0.978-4.005,2.799-4.005,0.286c0-2.862-2.007-3.218-2.78-4.15
		c-0.737-0.894-0.441-1.368,0.95-2.918c2.534-2.826,0.708-4.606-0.028-3.954c-1.111,0.969-0.849,1.18-2.881,1.615
		c-1.529,0.336-1.456-2.272-1.27-3.336c1.051-6.046-2.976-8.343-8.732-8.458c-13.433,2.634-23.565,14.467-23.565,28.671
		c0,15.519,12.104,28.204,27.379,29.156h3.67c3.312-0.206,6.483-0.963,9.404-2.18c-4.074,0.943-6.368-0.604-6.587-1.202
		c-0.443-1.172,2.98-0.372-0.244-2.031c-1.949-1.001-2.78-2.992-2.988-3.866l-0.666-0.366c-0.116-0.031-0.194-0.058-0.176-0.038
		c0,0-14.004-1.975-14.771-5.268c-0.819-3.52-5.339-2.679-5.394-5.492c-0.025-1.405,1.678-0.887,2.084-1.499
		c0.508-0.77-0.186-1.098-2.312-2.372c-5.611-3.369-4.802-8.682-3.888-9.509c0.595-0.541,1.247-0.238,1.842,0.066
		c0.585,0.295,1.115,0.594,1.476,0.087c0.73-1.009-3.414-6.725,5.338-13.216c0,0,1.038,3.349,4.229,4.494
		c3.39,1.218-2.11,5.808-0.911,8.888c0.674,1.73,2.043-0.441,3.296-1.656c1.074-1.042,2.565-3.704,4.424-3.124
		c1.642,0.512,1.069,2.661,1.436,3.805c0.485,1.483,1.666,1.014,2.303,2.312c0.62,1.24,0.184,1.762-1.691,3.38
		c-3.419,2.955-1.791,6.246-0.82,5.601c1.443-0.965,1.177-2.027,3.51-2.158c1.755-0.096,2.364,1.633,1.893,2.877
		c-0.473,1.252-0.75,1.641-0.469,2.536c0.727,2.293,0.301,1.593-0.89,3.68c-1.019,1.778-0.983,3.453,0.21,6.294
		c2.405,1.222,3.306,0.468,4.296-0.293c0.788-0.599,1.635-1.204,3.332-0.812c8.598,1.962,3.925-0.841,5.39-2.265
		c0.756-0.737,1.332-0.688,2.015-0.635c0.522,0.039,1.108,0.08,1.885-0.234c2.647-1.666,2.903-2.229,6.4,0.505
		c2.535-4.053,4.035-8.671,4.359-13.44v-4.033v0.003L252.497,39.61L252.497,39.61z"/>
	<g>
		<path fill="#47A842" d="M225.747,62.021c0,0-19.207-7.456-19.871-26.356C205.874,35.666,207.733,50.036,225.747,62.021
			 M244.799,60.203c-1.467,0.887-3.84,2.98-7.727,1.757c0,0,1.52,1.169,3.965,1.105c-3.118,1.614-6.498,1.993-11.849,0.657
			c0,0,10.833,6.386,18.403-5.84C247.591,57.886,245.71,59.65,244.799,60.203 M225.602,12.441c0.548,0.063,4.685,0.613,9.053,3.399
			c1.624,1.52,3.921,5.25,0.373,12.901c0,0,4.552-6.138,3.402-9.865c3.812,3.828,7.018,9.892,7.142,19.504
			C245.572,38.38,249.809,14.3,225.602,12.441"/>
	</g>
	<g>
		<path fill="#FFFFFF" d="M34.886,92.285h-1.149v4.408h-1.48V85.829h2.882c2.299,0,3.685,1.119,3.685,3.134
			C38.823,91.184,37.248,92.285,34.886,92.285z M35.059,87.136h-1.323v3.842h1.228c1.48,0,2.362-0.614,2.362-1.968
			C37.327,87.765,36.539,87.136,35.059,87.136z"/>
		<path fill="#FFFFFF" d="M41.754,92.254v4.44h-1.401v-7.512h1.119l0.236,1.527c0.535-0.849,1.401-1.622,2.629-1.684l0.22,1.339
			C43.313,90.427,42.258,91.261,41.754,92.254z"/>
		<path fill="#FFFFFF" d="M48.73,96.853c-2,0-3.449-1.434-3.449-3.906c0-2.472,1.449-3.921,3.449-3.921
			c2.015,0,3.496,1.449,3.496,3.921C52.226,95.418,50.746,96.853,48.73,96.853z M48.73,90.206c-1.355,0-2.031,1.166-2.031,2.74
			c0,1.543,0.709,2.74,2.031,2.74c1.386,0,2.078-1.164,2.078-2.74C50.808,91.404,50.084,90.206,48.73,90.206z"/>
		<path fill="#FFFFFF" d="M56.558,96.82c-1.323,0-2.189-0.471-2.189-1.984v-4.471h-1.134v-1.182h1.134V86.68l1.37-0.206v2.709h1.622
			l0.189,1.182h-1.81v4.22c0,0.614,0.252,0.992,1.039,0.992c0.252,0,0.472-0.016,0.645-0.047l0.189,1.196
			C57.377,96.772,57.047,96.82,56.558,96.82z"/>
		<path fill="#FFFFFF" d="M65.33,93.087h-5.102c0.047,1.749,0.882,2.567,2.189,2.567c1.086,0,1.874-0.425,2.693-1.07l0.205,1.26
			c-0.804,0.629-1.764,1.008-3.008,1.008c-1.953,0-3.48-1.182-3.48-3.938c0-2.409,1.417-3.889,3.307-3.889
			c2.189,0,3.197,1.684,3.197,3.764C65.33,92.868,65.33,92.993,65.33,93.087z M62.117,90.128c-0.866,0-1.606,0.616-1.827,1.905
			h3.622C63.739,90.82,63.204,90.128,62.117,90.128z"/>
		<path fill="#FFFFFF" d="M70.181,96.853c-2.015,0-3.496-1.401-3.496-3.906c0-2.567,1.574-3.921,3.528-3.921
			c1.103,0,1.89,0.283,2.457,0.692l-0.204,1.37c-0.693-0.567-1.401-0.835-2.268-0.835c-1.228,0-2.094,0.931-2.094,2.677
			c0,1.827,0.929,2.694,2.252,2.694c0.755,0,1.418-0.173,2.189-0.835l0.205,1.258C71.977,96.632,71.189,96.853,70.181,96.853z"/>
		<path fill="#FFFFFF" d="M77.048,96.82c-1.323,0-2.189-0.471-2.189-1.984v-4.471h-1.134v-1.182h1.134V86.68l1.37-0.206v2.709h1.622
			l0.189,1.182h-1.81v4.22c0,0.614,0.252,0.992,1.039,0.992c0.252,0,0.472-0.016,0.645-0.047l0.189,1.196
			C77.867,96.772,77.537,96.82,77.048,96.82z"/>
		<path fill="#FFFFFF" d="M80.623,87.671c-0.488,0-0.898-0.392-0.898-0.882c0-0.488,0.409-0.896,0.898-0.896
			s0.882,0.408,0.882,0.896C81.506,87.279,81.112,87.671,80.623,87.671z M79.915,96.694v-7.512h1.401v7.512H79.915z"/>
		<path fill="#FFFFFF" d="M88.356,96.694v-5.118c0-0.771-0.33-1.29-1.149-1.29c-0.74,0-1.496,0.486-2.174,1.212v5.197h-1.401v-7.512
			h1.119l0.173,1.086c0.709-0.645,1.59-1.243,2.661-1.243c1.418,0,2.173,0.849,2.173,2.205v5.463L88.356,96.694L88.356,96.694z"/>
		<path fill="#FFFFFF" d="M98.325,89.073l0.205,1.258l-1.433,0.143c0.205,0.346,0.3,0.739,0.3,1.164
			c0,1.607-1.355,2.582-2.882,2.582c-0.189,0-0.378-0.014-0.567-0.046c-0.22,0.141-0.378,0.314-0.378,0.456
			c0,0.268,0.268,0.331,1.59,0.567l0.535,0.094c1.59,0.284,2.583,0.787,2.583,1.953c0,1.574-1.716,2.315-3.669,2.315
			c-1.953,0-3.512-0.616-3.512-1.937c0-0.771,0.536-1.37,1.59-1.937c-0.331-0.235-0.472-0.504-0.472-0.787
			c0-0.364,0.284-0.725,0.787-1.025c-0.835-0.41-1.401-1.213-1.401-2.236c0-1.622,1.354-2.613,2.882-2.613
			c0.755,0,1.418,0.219,1.937,0.629L98.325,89.073z M92.437,97.513c0,0.598,0.771,1.039,2.236,1.039
			c1.465,0,2.284-0.504,2.284-1.133c0-0.456-0.346-0.772-1.418-0.96l-0.898-0.158c-0.409-0.079-0.63-0.125-0.929-0.19
			C92.83,96.551,92.437,96.993,92.437,97.513z M94.483,90.049c-0.945,0-1.528,0.723-1.528,1.638c0,0.865,0.599,1.543,1.528,1.543
			c0.96,0,1.559-0.71,1.559-1.606C96.042,90.727,95.412,90.049,94.483,90.049z"/>
		<path fill="#FFFFFF" d="M108.059,96.694v-5.118c0-0.771-0.331-1.29-1.149-1.29c-0.74,0-1.496,0.486-2.174,1.212v5.197h-1.401
			v-7.512h1.119l0.173,1.086c0.709-0.645,1.59-1.243,2.661-1.243c1.417,0,2.173,0.849,2.173,2.205v5.463L108.059,96.694
			L108.059,96.694z"/>
		<path fill="#FFFFFF" d="M116.186,96.694l-0.158-1.008c-0.599,0.614-1.417,1.166-2.645,1.166c-1.354,0-2.205-0.82-2.205-2.095
			c0-1.874,1.606-2.615,4.739-2.944v-0.316c0-0.945-0.567-1.276-1.433-1.276c-0.913,0-1.779,0.284-2.598,0.647l-0.189-1.213
			c0.898-0.361,1.748-0.629,2.913-0.629c1.827,0,2.709,0.739,2.709,2.409v5.259H116.186z M115.918,92.883
			c-2.772,0.267-3.354,1.023-3.354,1.795c0,0.614,0.41,1.008,1.119,1.008c0.819,0,1.606-0.41,2.236-1.055
			C115.918,94.631,115.918,92.883,115.918,92.883z"/>
		<path fill="#FFFFFF" d="M122.045,96.82c-1.323,0-2.189-0.471-2.189-1.984v-4.471h-1.134v-1.182h1.134V86.68l1.37-0.206v2.709
			h1.622l0.189,1.182h-1.81v4.22c0,0.614,0.252,0.992,1.039,0.992c0.252,0,0.473-0.016,0.645-0.047l0.189,1.196
			C122.864,96.772,122.533,96.82,122.045,96.82z"/>
		<path fill="#FFFFFF" d="M129.777,96.694l-0.173-1.088c-0.709,0.662-1.606,1.246-2.661,1.246c-1.433,0-2.173-0.853-2.173-2.205
			v-5.465h1.401v5.118c0,0.772,0.33,1.291,1.149,1.291c0.74,0,1.496-0.489,2.174-1.213v-5.197h1.401v7.512L129.777,96.694
			L129.777,96.694z"/>
		<path fill="#FFFFFF" d="M134.503,92.254v4.44h-1.401v-7.512h1.118l0.236,1.527c0.536-0.849,1.401-1.622,2.63-1.684l0.22,1.339
			C136.062,90.427,135.007,91.261,134.503,92.254z"/>
		<path fill="#FFFFFF" d="M144.535,93.087h-5.103c0.047,1.749,0.882,2.567,2.189,2.567c1.087,0,1.874-0.425,2.693-1.07l0.206,1.26
			c-0.803,0.629-1.764,1.008-3.008,1.008c-1.953,0-3.48-1.182-3.48-3.938c0-2.409,1.418-3.889,3.307-3.889
			c2.19,0,3.197,1.684,3.197,3.764C144.535,92.868,144.535,92.993,144.535,93.087z M141.323,90.128
			c-0.867,0-1.607,0.616-1.827,1.905h3.621C142.944,90.82,142.409,90.128,141.323,90.128z"/>
		<path fill="#FFFFFF" d="M146.221,96.694v-1.874h1.558v1.874H146.221z"/>
		<path fill="#FFFFFF" d="M156.189,92.285h-1.149v4.408h-1.48V85.829h2.881c2.3,0,3.686,1.119,3.686,3.134
			C160.127,91.184,158.552,92.285,156.189,92.285z M156.362,87.136h-1.323v3.842h1.228c1.48,0,2.362-0.614,2.362-1.968
			C158.631,87.765,157.843,87.136,156.362,87.136z"/>
		<path fill="#FFFFFF" d="M163.057,92.254v4.44h-1.401v-7.512h1.118l0.235,1.527c0.537-0.849,1.402-1.622,2.63-1.684l0.22,1.339
			C164.617,90.427,163.561,91.261,163.057,92.254z"/>
		<path fill="#FFFFFF" d="M173.089,93.087h-5.103c0.047,1.749,0.882,2.567,2.189,2.567c1.087,0,1.874-0.425,2.693-1.07l0.205,1.26
			c-0.803,0.629-1.763,1.008-3.007,1.008c-1.953,0-3.48-1.182-3.48-3.938c0-2.409,1.417-3.889,3.307-3.889
			c2.19,0,3.197,1.684,3.197,3.764C173.089,92.868,173.089,92.993,173.089,93.087z M169.877,90.128
			c-0.866,0-1.606,0.616-1.826,1.905h3.621C171.498,90.82,170.962,90.128,169.877,90.128z"/>
		<path fill="#FFFFFF" d="M177.152,96.853c-0.992,0-2.093-0.347-2.739-0.71l0.205-1.323c0.708,0.488,1.622,0.866,2.645,0.866
			c0.959,0,1.527-0.362,1.527-0.992c0-0.693-0.424-0.945-1.779-1.276c-1.764-0.441-2.472-0.976-2.472-2.315
			c0-1.196,1.008-2.078,2.645-2.078c0.928,0,1.763,0.188,2.472,0.504l-0.22,1.323c-0.661-0.378-1.495-0.647-2.284-0.647
			c-0.85,0-1.291,0.331-1.291,0.866c0,0.504,0.378,0.788,1.559,1.086c1.858,0.474,2.692,1.008,2.692,2.44
			C180.113,95.97,179.091,96.853,177.152,96.853z"/>
		<path fill="#FFFFFF" d="M187.909,93.087h-5.103c0.048,1.749,0.882,2.567,2.19,2.567c1.086,0,1.874-0.425,2.694-1.07l0.204,1.26
			c-0.804,0.629-1.763,1.008-3.008,1.008c-1.953,0-3.479-1.182-3.479-3.938c0-2.409,1.418-3.889,3.307-3.889
			c2.189,0,3.197,1.684,3.197,3.764C187.909,92.868,187.909,92.993,187.909,93.087z M184.696,90.128
			c-0.865,0-1.606,0.616-1.826,1.905h3.622C186.319,90.82,185.783,90.128,184.696,90.128z"/>
		<path fill="#FFFFFF" d="M191.092,92.254v4.44h-1.401v-7.512h1.118l0.236,1.527c0.536-0.849,1.401-1.622,2.63-1.684l0.219,1.339
			C192.651,90.427,191.596,91.261,191.092,92.254z"/>
		<path fill="#FFFFFF" d="M198.62,96.726h-1.339l-2.662-7.431l1.401-0.221l1.953,5.938l1.89-5.827h1.432L198.62,96.726z"/>
		<path fill="#FFFFFF" d="M203.597,87.671c-0.489,0-0.898-0.392-0.898-0.882c0-0.488,0.409-0.896,0.898-0.896
			c0.488,0,0.882,0.408,0.882,0.896C204.478,87.279,204.085,87.671,203.597,87.671z M202.888,96.694v-7.512h1.401v7.512H202.888z"/>
		<path fill="#FFFFFF" d="M211.329,96.694v-5.118c0-0.771-0.33-1.29-1.15-1.29c-0.74,0-1.495,0.486-2.173,1.212v5.197h-1.401v-7.512
			h1.119l0.174,1.086c0.709-0.645,1.59-1.243,2.661-1.243c1.418,0,2.173,0.849,2.173,2.205v5.463L211.329,96.694L211.329,96.694z"/>
		<path fill="#FFFFFF" d="M221.298,89.073l0.206,1.258l-1.434,0.143c0.205,0.346,0.3,0.739,0.3,1.164
			c0,1.607-1.356,2.582-2.882,2.582c-0.189,0-0.378-0.014-0.567-0.046c-0.22,0.141-0.378,0.314-0.378,0.456
			c0,0.268,0.268,0.331,1.59,0.567l0.537,0.094c1.59,0.284,2.583,0.787,2.583,1.953c0,1.574-1.717,2.315-3.669,2.315
			c-1.953,0-3.512-0.616-3.512-1.937c0-0.771,0.535-1.37,1.59-1.937c-0.33-0.235-0.472-0.504-0.472-0.787
			c0-0.364,0.284-0.725,0.787-1.025c-0.834-0.41-1.401-1.213-1.401-2.236c0-1.622,1.354-2.613,2.882-2.613
			c0.755,0,1.417,0.219,1.937,0.629L221.298,89.073z M215.409,97.513c0,0.598,0.771,1.039,2.236,1.039
			c1.465,0,2.284-0.504,2.284-1.133c0-0.456-0.347-0.772-1.418-0.96l-0.897-0.158c-0.41-0.079-0.63-0.125-0.93-0.19
			C215.802,96.551,215.409,96.993,215.409,97.513z M217.456,90.049c-0.945,0-1.528,0.723-1.528,1.638
			c0,0.865,0.599,1.543,1.528,1.543c0.961,0,1.558-0.71,1.558-1.606C219.014,90.727,218.385,90.049,217.456,90.049z"/>
		<path fill="#FFFFFF" d="M226.418,96.694v-11.15l1.402-0.219v11.369H226.418z"/>
		<path fill="#FFFFFF" d="M230.954,87.671c-0.488,0-0.897-0.392-0.897-0.882c0-0.488,0.409-0.896,0.897-0.896
			c0.489,0,0.882,0.408,0.882,0.896C231.835,87.279,231.442,87.671,230.954,87.671z M230.246,96.694v-7.512h1.401v7.512H230.246z"/>
		<path fill="#FFFFFF" d="M236.797,86.711c-0.646,0-1.039,0.267-1.039,0.96v1.512h1.512l0.174,1.182h-1.685v6.33h-1.37v-6.33h-1.134
			v-1.182h1.134V87.53c0-1.497,0.992-2.064,2.33-2.064c0.284,0,0.456,0.033,0.598,0.033l0.206,1.274
			C237.363,86.742,237.081,86.711,236.797,86.711z"/>
		<path fill="#FFFFFF" d="M244.797,93.087h-5.102c0.047,1.749,0.882,2.567,2.188,2.567c1.087,0,1.874-0.425,2.693-1.07l0.206,1.26
			c-0.803,0.629-1.764,1.008-3.008,1.008c-1.953,0-3.48-1.182-3.48-3.938c0-2.409,1.418-3.889,3.307-3.889
			c2.19,0,3.197,1.684,3.197,3.764C244.797,92.868,244.797,92.993,244.797,93.087z M241.585,90.128
			c-0.867,0-1.607,0.616-1.827,1.905h3.621C243.207,90.82,242.672,90.128,241.585,90.128z"/>
		<path fill="#FFFFFF" d="M246.484,96.694v-1.874h1.558v1.874H246.484z"/>
	</g>
</g>
</svg>
