<svg xmlns="http://www.w3.org/2000/svg" width="225" height="87.118" viewBox="27.5 12.441 225 87.118"><path fill="#FFF" d="M36.815 38.128c0 2.11.4 2.688 1.896 2.688v.522H32.5v-.522c1.255 0 1.99-.366 1.99-2.78V24.68h-2.54c-2.353 0-3.42.67-3.574 2.503h-.518v-4h.518c.245.214.522.363.95.487.4.096.947.152 1.682.152h9.166c1.528 0 2.232-.182 2.784-.64h.55v4h-.338c-.337-1.462-.913-2.5-3.695-2.5h-2.66V38.13zm18.892-4.16c0-2.566-1.8-3.755-3.61-3.755-1.4 0-2.41.575-3.79 2.168V22.144h-.517l-3.487.367v.518c1.532 0 1.93.213 1.93 1.62v14.09c0 1.74-.31 2.044-1.93 2.078v.522h5.807v-.522c-1.344 0-1.802-.337-1.802-1.462V33.42c1.04-1.467 1.927-2.046 3.15-2.046 1.31 0 2.168.912 2.168 2.353v5.35c0 1.4-.333 1.74-1.803 1.74v.523h5.623v-.522c-1.434 0-1.74-.428-1.74-2.08v-4.77zm5.054.246c.126-2.015 1.196-3.36 2.998-3.36 1.374 0 2.996.975 2.9 3.36H60.76zm7.95.52c.152-2.506-2.17-4.52-4.675-4.52-3.057 0-5.44 2.566-5.44 5.83 0 3.275 2.446 5.626 5.84 5.626 1.89 0 3.147-.64 4.46-2.32v-.795c-1.56 1.745-2.323 2.262-3.822 2.262-1.47 0-4.368-1.225-4.312-6.084h7.95zm28.104-9.404c0-3.246.874-4.363 3.586-4.363v-.82h-8.38v.82c2.423 0 3.394.922 3.394 4.556V41.75h-.1l-17.346-21.6H70.85v.82c3.293.294 4.12 2.035 4.12 5.135v16.228c0 4.022-1.117 4.747-3.438 4.747v.827h8.425v-.827c-2.515 0-3.63-1.016-3.63-3.827V23.778h.096l19.57 24.126h.822l.002-22.572-.003-.002zm25.61-.39h-.82c-1.457 2.956-3.394 5.042-5.72 6.204v.823h3.248V43.45c0 2.953 2.035 4.987 4.94 4.987 1.938 0 3.68-.968 5.182-2.86l-.533-.63c-1.017 1.163-1.94 1.648-3.2 1.648-1.89 0-3.1-1.213-3.1-3.584V31.966h5.958v-1.26h-5.956V24.94zm25.49 5.33h-.826l-5.813.534v.822c2.953.05 3.344.337 3.344 2.713v9.252c-1.407 1.893-2.907 2.813-4.556 2.813-2.326 0-3.875-1.455-3.875-3.878V30.27h-.826l-5.525.533v.822c2.474 0 3.053.632 3.053 2.277v8.768c0 3.198 2.227 5.762 5.62 5.762 2.323 0 4.315-1.114 6.01-3.344h.093v3.15l6.247-.337v-.823c-2.324 0-2.952-.534-2.952-2.42l.006-14.387zm10.644 4.99c1.548-1.5 2.518-2.084 3.633-2.084 1.16 0 2.662.728 4.07 1.5l1.313-3.05c-.874-.77-2.184-1.354-3.154-1.354-1.168 0-2.664.97-5.86 3.73v-3.73h-.826l-6.007.532v.822c2.907 0 3.537.29 3.537 2.812v9.347c0 2.616-.288 3.295-2.907 3.295v.824h9.058v-.824c-2.273 0-2.856-.534-2.856-2.422l-.002-9.397zm12.717 1.357c.186-3.2 1.89-5.328 4.746-5.328 2.18 0 4.747 1.547 4.605 5.327h-9.352.002zm12.596.825c.242-3.974-3.437-7.172-7.41-7.172-4.846 0-8.622 4.068-8.622 9.253 0 5.183 3.876 8.91 9.25 8.91 3.003 0 4.992-1.015 7.074-3.68v-1.26c-2.473 2.762-3.678 3.586-6.057 3.586-2.32 0-6.92-1.938-6.828-9.638h12.594zM45.745 54.71v-6.204h-.583c-.218.436-.58.653-1.124.653-1.232 0-3.19-.87-5.804-.87-6.198.005-10.732 4.864-10.732 11.463 0 6.923 5.225 10.335 10.227 10.335 3.99 0 7.29-2.065 8.67-5.37l-.54-.506c-1.563 3.05-3.993 4.57-7.26 4.57-4.674 0-7.904-4.096-7.904-10.332 0-5.333 2.683-9.36 7.687-9.36 3.59 0 5.733 1.71 6.748 5.626h.616v-.006zm8.98 2.397c2.976 0 4.354 2.862 4.354 6.09 0 3.118-1.31 6.064-4.353 6.064-2.972 0-4.35-2.762-4.35-6.062 0-3.694 1.63-6.09 4.35-6.09m0 12.875c4.03 0 7.036-2.902 7.036-6.79 0-3.912-3.007-6.813-7.032-6.813-4.026 0-7.033 2.904-7.033 6.815 0 3.883 3.013 6.786 7.034 6.786m21.936-8.995c0-3.082-2.215-4.604-4.353-4.604-1.638 0-3.12.835-4.643 2.574V56.38h-.618l-3.987.394v.616c1.74 0 2.142.323 2.142 1.89v7.216c0 2.317-.437 2.46-2.142 2.46v.625h6.78v-.623c-1.92 0-2.175-.507-2.175-2.462V60.22c1.272-1.702 2.393-2.505 3.662-2.505 1.38 0 2.866.87 2.866 2.94v6.712c0 1.192-.472 1.59-2.21 1.59v.623h6.853v-.624c-1.812 0-2.174-.505-2.174-2.172V60.98v.005zm11.338-.654v-3.953h-.614c-.18.435-.437.617-.763.617-.87 0-1.267-.617-2.608-.617-2.14 0-3.918 1.706-3.918 3.7 0 4.35 6.818 3.373 6.818 6.96 0 1.274-.977 2.214-2.248 2.214-1.593 0-3.594-1.058-4.135-3.74h-.616v4.39h.618c.038-.462.366-.864.835-.864.618 0 1.85.948 3.266.948 2.21 0 4.06-1.816 4.06-3.957 0-4.79-6.75-3.92-6.75-7.182 0-1.05.874-1.744 2.142-1.744 1.523 0 2.938 1.09 3.19 3.227l.722.004zm4.632.8c.145-2.39 1.415-3.988 3.553-3.988 1.634 0 3.553 1.163 3.446 3.988h-7zm9.43.62c.184-2.974-2.573-5.37-5.548-5.37-3.627 0-6.454 3.047-6.454 6.93 0 3.877 2.902 6.673 6.927 6.673 2.25 0 3.736-.766 5.294-2.76v-.946c-1.847 2.073-2.754 2.684-4.534 2.684-1.74 0-5.183-1.448-5.112-7.21h9.43zm6.39-1.63c1.16-1.124 1.886-1.56 2.718-1.56.87 0 1.995.546 3.047 1.12l.982-2.285c-.65-.58-1.63-1.016-2.358-1.016-.87 0-1.994.725-4.387 2.793v-2.79h-.62l-4.5.4v.61c2.18 0 2.65.22 2.65 2.11v7.002c0 1.956-.22 2.465-2.177 2.465v.617h6.78v-.617c-1.703 0-2.137-.4-2.137-1.816l.004-7.035zm12.437-.51c-.58-1.417-.252-2.107.98-2.214v-.616h-6.2v.616c1.52.074 1.85.292 2.718 2.392l4.102 10.082h.612l4.137-10.63c.62-1.38.985-1.7 2.466-1.847v-.616h-4.72v.617c1.89.146 1.89.907 1.272 2.575l-2.502 6.487-2.865-6.854h.005v.003h-.002zm34.413 1.375c0-3.08-2.208-4.602-4.35-4.602-1.63 0-3.12.834-4.642 2.57V56.38h-.614l-3.995.394v.616c1.745 0 2.145.328 2.145 1.892v7.214c0 2.317-.436 2.462-2.145 2.462v.623h6.787v-.622c-1.924 0-2.18-.504-2.18-2.46v-6.282c1.275-1.7 2.395-2.502 3.668-2.502 1.377 0 2.866.872 2.866 2.938v6.713c0 1.192-.472 1.59-2.212 1.59v.62h6.847v-.62c-1.81 0-2.172-.506-2.172-2.174l-.002-5.795zm14.274-4.6h-.62c-.216.47-.545.724-.872.724-.652 0-1.703-.725-3.625-.725-3.66 0-6.637 3.148-6.637 7.105 0 3.842 2.645 6.494 6.456 6.494 2.318 0 4.28-.95 5.653-2.833v-.942c-1.34 1.85-3.226 2.68-4.784 2.68-2.61 0-4.82-2.942-4.82-6.46 0-3.15 1.78-5.327 4.314-5.327 2.14 0 3.77 1.487 4.315 3.808h.62v-4.53.007zm6.13 2.973c-.476-1.088-.075-1.81.904-1.958v-.616h-6.17v.616c1.487.04 1.96.436 2.616 1.92l4.607 10.627-1.67 4.645c-.8 2.25-1.704 3.153-3.266 3.153-.435 0-.722-.07-1.228-.287l-.837 2.215c.653.395 1.055.545 1.592.545 1.563 0 3.234-1.704 4.245-4.672l5.116-15.128c.727-2.137 1.557-3.01 2.94-3.01v-.613h-4.532v.614c1.41.076 1.52.908 1.016 2.427l-2.255 6.785-3.08-7.26.004-.004zM110.238 38.6c-3.245 1.406-6.15 1.357-6.15 4.844 0 1.745 1.21 3.15 2.615 3.15 1.016 0 2.86-.724 3.537-2.18V38.6h-.003zm3.292 5.563c0 2.26.488 2.945 2.938 2.945v.834h-6.017v-2.064l-.008.005c-1.698 1.845-3.013 2.552-4.805 2.552-2.663 0-4.89-2.035-4.89-4.554 0-4.894 6.686-4.697 9.49-6.348v-1.255c0-2.42-1.404-4.166-3.824-4.166-1.94 0-3.828 1.214-4.55 3.685l-.876-.244c.73-3.2 3.247-5.282 6.346-5.282 2.86 0 6.203 1.65 6.203 6.297l-.007 7.6m23.08 18.482c-2.406 1.04-4.563 1-4.563 3.586 0 1.293.9 2.33 1.942 2.33.752 0 2.118-.535 2.62-1.615v-4.3zm2.437 4.125c0 1.668.365 2.178 2.182 2.178v.62h-4.458v-1.53l-.01.007c-1.257 1.362-2.232 1.888-3.563 1.888-1.976 0-3.628-1.508-3.628-3.376 0-3.625 4.956-3.482 7.036-4.705v-.927c0-1.8-1.04-3.095-2.837-3.095-1.433 0-2.834.9-3.374 2.73l-.645-.18c.538-2.37 2.406-3.917 4.704-3.917 2.12 0 4.596 1.225 4.596 4.67l-.006 5.634"/><path fill="none" d="M252.497 39.61c-.275-4.085-1.41-8.065-3.33-11.68-1.22-1.133-2.224-1.84-1.93-.018.163 1.008 4.603 9.28-2.06 15.678l-.015-.18c-.074-.754-.532-3.724-3.132-4.114-3.173-.474-.54-5.325-2.08-7.588-2.178-3.187-2.736 1.188-3.505 2.148-.778.978-4.005 2.8-4.005.286 0-2.862-2.007-3.218-2.78-4.15-.737-.894-.44-1.368.95-2.918 2.534-2.826.708-4.606-.028-3.954-1.11.97-.85 1.18-2.88 1.615-1.53.336-1.457-2.272-1.27-3.336 1.05-6.047-2.977-8.344-8.733-8.46-13.434 2.635-23.566 14.468-23.566 28.672 0 15.52 12.104 28.204 27.38 29.156h3.67c3.31-.206 6.482-.963 9.403-2.18-4.074.943-6.368-.604-6.587-1.202-.443-1.172 2.98-.372-.244-2.03-1.95-1.002-2.78-2.993-2.988-3.867l-.666-.367c-.116-.03-.194-.058-.176-.038 0 0-14.004-1.975-14.77-5.268-.82-3.52-5.34-2.68-5.395-5.492-.024-1.405 1.68-.887 2.085-1.5.508-.77-.186-1.097-2.312-2.37-5.61-3.37-4.802-8.683-3.888-9.51.595-.54 1.247-.238 1.842.066.585.296 1.115.595 1.476.088.73-1.01-3.414-6.725 5.338-13.216 0 0 1.04 3.35 4.23 4.494 3.39 1.218-2.11 5.808-.91 8.888.673 1.73 2.042-.44 3.295-1.656 1.074-1.042 2.565-3.704 4.424-3.124 1.64.512 1.068 2.66 1.435 3.805.485 1.482 1.666 1.013 2.303 2.31.62 1.24.184 1.763-1.69 3.38-3.42 2.956-1.792 6.247-.82 5.602 1.442-.965 1.176-2.027 3.51-2.158 1.754-.096 2.363 1.633 1.892 2.877-.473 1.253-.75 1.642-.47 2.537.728 2.293.302 1.593-.89 3.68-1.018 1.778-.982 3.453.21 6.294 2.406 1.223 3.307.47 4.297-.292.788-.6 1.635-1.204 3.332-.812 8.597 1.962 3.924-.84 5.39-2.265.755-.736 1.33-.687 2.014-.634.522.04 1.108.08 1.885-.234 2.646-1.666 2.902-2.23 6.4.505 2.534-4.053 4.034-8.67 4.358-13.44v-4.033.006z"/><ellipse fill="#FFF" cx="223.314" cy="41.605" rx="29.183" ry="29.163"/><path fill="#47A842" d="M252.497 39.61c-.275-4.085-1.41-8.065-3.33-11.68-1.22-1.133-2.224-1.84-1.93-.018.163 1.008 4.603 9.28-2.06 15.678l-.015-.18c-.074-.754-.532-3.724-3.132-4.114-3.173-.474-.54-5.325-2.08-7.588-2.178-3.187-2.736 1.188-3.505 2.148-.778.978-4.005 2.8-4.005.286 0-2.862-2.007-3.218-2.78-4.15-.737-.894-.44-1.368.95-2.918 2.534-2.826.708-4.606-.028-3.954-1.11.97-.85 1.18-2.88 1.615-1.53.336-1.457-2.272-1.27-3.336 1.05-6.047-2.977-8.344-8.733-8.46-13.434 2.635-23.566 14.468-23.566 28.672 0 15.52 12.104 28.204 27.38 29.156h3.67c3.31-.206 6.482-.963 9.403-2.18-4.074.943-6.368-.604-6.587-1.202-.443-1.172 2.98-.372-.244-2.03-1.95-1.002-2.78-2.993-2.988-3.867l-.666-.367c-.116-.03-.194-.058-.176-.038 0 0-14.004-1.975-14.77-5.268-.82-3.52-5.34-2.68-5.395-5.492-.024-1.405 1.68-.887 2.085-1.5.508-.77-.186-1.097-2.312-2.37-5.61-3.37-4.802-8.683-3.888-9.51.595-.54 1.247-.238 1.842.066.585.296 1.115.595 1.476.088.73-1.01-3.414-6.725 5.338-13.216 0 0 1.04 3.35 4.23 4.494 3.39 1.218-2.11 5.808-.91 8.888.673 1.73 2.042-.44 3.295-1.656 1.074-1.042 2.565-3.704 4.424-3.124 1.64.512 1.068 2.66 1.435 3.805.485 1.482 1.666 1.013 2.303 2.31.62 1.24.184 1.763-1.69 3.38-3.42 2.956-1.792 6.247-.82 5.602 1.442-.965 1.176-2.027 3.51-2.158 1.754-.096 2.363 1.633 1.892 2.877-.473 1.253-.75 1.642-.47 2.537.728 2.293.302 1.593-.89 3.68-1.018 1.778-.982 3.453.21 6.294 2.406 1.223 3.307.47 4.297-.292.788-.6 1.635-1.204 3.332-.812 8.597 1.962 3.924-.84 5.39-2.265.755-.736 1.33-.687 2.014-.634.522.04 1.108.08 1.885-.234 2.646-1.666 2.902-2.23 6.4.505 2.534-4.053 4.034-8.67 4.358-13.44v-4.033.006z"/><path fill="#47A842" d="M225.747 62.02s-19.207-7.455-19.87-26.355c-.003 0 1.856 14.37 19.87 26.356m19.052-1.817c-1.468.887-3.84 2.98-7.728 1.757 0 0 1.52 1.17 3.965 1.105-3.118 1.614-6.498 1.993-11.85.657 0 0 10.834 6.386 18.404-5.84 0 .004-1.88 1.768-2.79 2.32M225.6 12.443c.548.062 4.685.612 9.053 3.398 1.624 1.52 3.92 5.25.373 12.9 0 0 4.552-6.137 3.402-9.864 3.812 3.828 7.018 9.892 7.142 19.504 0 0 4.237-24.08-19.97-25.94"/><g fill="#FFF"><path d="M34.886 92.285h-1.15v4.408h-1.48V85.83h2.883c2.298 0 3.684 1.118 3.684 3.133 0 2.22-1.576 3.322-3.938 3.322zm.173-5.15h-1.324v3.843h1.228c1.48 0 2.362-.614 2.362-1.968 0-1.245-.787-1.874-2.267-1.874zM41.754 92.254v4.44h-1.4v-7.512h1.118l.236 1.527c.535-.85 1.4-1.623 2.63-1.685l.22 1.34c-1.245.062-2.3.896-2.804 1.89zM48.73 96.853c-2 0-3.45-1.434-3.45-3.906 0-2.472 1.45-3.92 3.45-3.92 2.015 0 3.496 1.448 3.496 3.92 0 2.47-1.48 3.906-3.496 3.906zm0-6.647c-1.355 0-2.03 1.166-2.03 2.74 0 1.543.708 2.74 2.03 2.74 1.386 0 2.078-1.164 2.078-2.74 0-1.542-.724-2.74-2.078-2.74zM56.558 96.82c-1.323 0-2.19-.47-2.19-1.984v-4.47h-1.133v-1.183h1.134V86.68l1.37-.206v2.71h1.62l.19 1.18h-1.81v4.22c0 .615.252.993 1.04.993.25 0 .47-.016.644-.047l.19 1.196c-.237.046-.567.094-1.056.094zM65.33 93.087h-5.102c.047 1.75.882 2.567 2.19 2.567 1.085 0 1.873-.425 2.692-1.07l.205 1.26c-.804.63-1.764 1.008-3.008 1.008-1.953 0-3.48-1.182-3.48-3.938 0-2.41 1.417-3.89 3.307-3.89 2.19 0 3.197 1.685 3.197 3.765v.297zm-3.213-2.96c-.866 0-1.606.617-1.827 1.906h3.622c-.173-1.213-.708-1.905-1.795-1.905zM70.18 96.853c-2.014 0-3.495-1.4-3.495-3.906 0-2.567 1.574-3.92 3.528-3.92 1.103 0 1.89.282 2.457.69l-.204 1.37c-.693-.566-1.4-.834-2.268-.834-1.228 0-2.094.93-2.094 2.677 0 1.827.93 2.694 2.252 2.694.755 0 1.418-.173 2.19-.835l.204 1.257c-.773.585-1.56.806-2.57.806zM77.048 96.82c-1.323 0-2.19-.47-2.19-1.984v-4.47h-1.133v-1.183h1.134V86.68l1.37-.206v2.71h1.62l.19 1.18h-1.81v4.22c0 .615.252.993 1.04.993.25 0 .47-.016.644-.047l.19 1.196c-.237.046-.567.094-1.056.094zM80.623 87.67c-.488 0-.898-.39-.898-.88s.41-.897.898-.897.882.408.882.896c0 .49-.393.88-.882.88zm-.708 9.024v-7.512h1.4v7.512h-1.4zM88.356 96.694v-5.118c0-.77-.33-1.29-1.15-1.29-.74 0-1.495.486-2.173 1.212v5.197h-1.4v-7.512h1.118l.174 1.086c.71-.646 1.59-1.244 2.66-1.244 1.42 0 2.174.85 2.174 2.205v5.464h-1.402zM98.325 89.073l.205 1.258-1.433.144c.205.346.3.74.3 1.164 0 1.607-1.355 2.582-2.882 2.582-.19 0-.378-.014-.567-.046-.22.14-.378.314-.378.456 0 .268.268.33 1.59.567l.535.094c1.59.285 2.583.788 2.583 1.954 0 1.574-1.716 2.315-3.67 2.315-1.952 0-3.51-.617-3.51-1.938 0-.77.535-1.37 1.59-1.937-.332-.235-.473-.504-.473-.787 0-.364.284-.725.787-1.025-.835-.41-1.4-1.213-1.4-2.236 0-1.622 1.353-2.613 2.88-2.613.756 0 1.42.22 1.938.63l1.905-.58zm-5.888 8.44c0 .598.77 1.04 2.236 1.04 1.465 0 2.284-.505 2.284-1.134 0-.457-.346-.773-1.418-.96l-.9-.16c-.408-.078-.63-.124-.928-.19-.882.44-1.275.883-1.275 1.403zm2.046-7.464c-.945 0-1.528.722-1.528 1.637 0 .865.6 1.543 1.528 1.543.96 0 1.56-.71 1.56-1.606 0-.897-.63-1.575-1.56-1.575zM108.06 96.694v-5.118c0-.77-.332-1.29-1.15-1.29-.74 0-1.496.486-2.174 1.212v5.197h-1.4v-7.512h1.118l.173 1.086c.71-.646 1.59-1.244 2.66-1.244 1.418 0 2.174.85 2.174 2.205v5.464h-1.4zM116.186 96.694l-.158-1.008c-.6.614-1.417 1.166-2.645 1.166-1.354 0-2.205-.82-2.205-2.095 0-1.874 1.606-2.615 4.74-2.944v-.316c0-.945-.568-1.276-1.434-1.276-.913 0-1.78.285-2.598.648l-.19-1.213c.9-.36 1.75-.63 2.914-.63 1.827 0 2.71.74 2.71 2.41v5.26h-1.134zm-.268-3.81c-2.772.266-3.354 1.022-3.354 1.794 0 .614.41 1.008 1.12 1.008.818 0 1.605-.41 2.235-1.055-.002 0-.002-1.747-.002-1.747zM122.045 96.82c-1.323 0-2.19-.47-2.19-1.984v-4.47h-1.133v-1.183h1.134V86.68l1.37-.206v2.71h1.622l.19 1.18h-1.81v4.22c0 .615.25.993 1.038.993.252 0 .473-.016.645-.047l.19 1.196c-.236.046-.567.094-1.055.094zM129.777 96.694l-.173-1.088c-.71.662-1.606 1.246-2.66 1.246-1.434 0-2.174-.853-2.174-2.205v-5.465h1.4V94.3c0 .772.33 1.29 1.15 1.29.74 0 1.496-.488 2.174-1.212V89.18h1.4v7.513h-1.117zM134.503 92.254v4.44h-1.4v-7.512h1.117l.236 1.527c.536-.85 1.4-1.623 2.63-1.685l.22 1.34c-1.244.062-2.3.896-2.803 1.89zM144.535 93.087h-5.103c.047 1.75.882 2.567 2.19 2.567 1.086 0 1.873-.425 2.692-1.07l.206 1.26c-.803.63-1.764 1.008-3.008 1.008-1.953 0-3.48-1.182-3.48-3.938 0-2.41 1.418-3.89 3.307-3.89 2.19 0 3.196 1.685 3.196 3.765v.297zm-3.212-2.96c-.867 0-1.607.617-1.827 1.906h3.62c-.172-1.213-.707-1.905-1.793-1.905zM146.22 96.694V94.82h1.56v1.874h-1.56zM156.19 92.285h-1.15v4.408h-1.48V85.83h2.88c2.3 0 3.687 1.118 3.687 3.133 0 2.22-1.575 3.322-3.938 3.322zm.172-5.15h-1.323v3.843h1.227c1.48 0 2.362-.614 2.362-1.968 0-1.245-.787-1.874-2.268-1.874zM163.057 92.254v4.44h-1.4v-7.512h1.117l.235 1.527c.536-.85 1.4-1.623 2.63-1.685l.22 1.34c-1.243.062-2.3.896-2.803 1.89zM173.09 93.087h-5.104c.047 1.75.882 2.567 2.19 2.567 1.086 0 1.873-.425 2.692-1.07l.205 1.26c-.803.63-1.763 1.008-3.007 1.008-1.953 0-3.48-1.182-3.48-3.938 0-2.41 1.417-3.89 3.307-3.89 2.19 0 3.197 1.685 3.197 3.765v.297zm-3.213-2.96c-.866 0-1.606.617-1.826 1.906h3.622c-.174-1.213-.71-1.905-1.795-1.905zM177.152 96.853c-.992 0-2.093-.347-2.74-.71l.206-1.323c.708.488 1.622.866 2.645.866.96 0 1.527-.362 1.527-.992 0-.693-.424-.945-1.78-1.276-1.763-.44-2.47-.976-2.47-2.315 0-1.196 1.007-2.078 2.644-2.078.928 0 1.763.188 2.472.504l-.22 1.322c-.66-.378-1.495-.647-2.284-.647-.85 0-1.29.33-1.29.866 0 .505.377.79 1.558 1.087 1.858.474 2.692 1.008 2.692 2.44 0 1.373-1.02 2.256-2.96 2.256zM187.91 93.087h-5.104c.048 1.75.882 2.567 2.19 2.567 1.086 0 1.874-.425 2.694-1.07l.204 1.26c-.804.63-1.763 1.008-3.008 1.008-1.953 0-3.48-1.182-3.48-3.938 0-2.41 1.42-3.89 3.308-3.89 2.19 0 3.197 1.685 3.197 3.765v.297zm-3.214-2.96c-.865 0-1.606.617-1.826 1.906h3.622c-.173-1.213-.71-1.905-1.796-1.905zM191.092 92.254v4.44h-1.4v-7.512h1.117l.235 1.527c.536-.85 1.4-1.623 2.63-1.685l.22 1.34c-1.244.062-2.3.896-2.803 1.89zM198.62 96.726h-1.34l-2.66-7.43 1.4-.222 1.953 5.938 1.89-5.827h1.432l-2.675 7.54zM203.597 87.67c-.49 0-.898-.39-.898-.88s.408-.897.897-.897c.488 0 .882.408.882.896-.002.49-.395.88-.883.88zm-.71 9.024v-7.512h1.402v7.512h-1.402zM211.33 96.694v-5.118c0-.77-.33-1.29-1.15-1.29-.74 0-1.496.486-2.174 1.212v5.197h-1.4v-7.512h1.118l.174 1.086c.71-.646 1.59-1.244 2.66-1.244 1.42 0 2.174.85 2.174 2.205v5.464h-1.403zM221.298 89.073l.206 1.258-1.434.144c.205.346.3.74.3 1.164 0 1.607-1.356 2.582-2.882 2.582-.19 0-.378-.014-.567-.046-.22.14-.377.314-.377.456 0 .268.268.33 1.59.567l.537.094c1.59.285 2.583.788 2.583 1.954 0 1.574-1.717 2.315-3.67 2.315-1.952 0-3.51-.617-3.51-1.938 0-.77.534-1.37 1.59-1.937-.33-.235-.473-.504-.473-.787 0-.364.284-.725.787-1.025-.834-.41-1.4-1.213-1.4-2.236 0-1.622 1.353-2.613 2.88-2.613.756 0 1.418.22 1.938.63l1.903-.58zm-5.89 8.44c0 .598.772 1.04 2.237 1.04s2.284-.505 2.284-1.134c0-.457-.348-.773-1.42-.96l-.896-.16c-.41-.078-.63-.124-.93-.19-.882.44-1.275.883-1.275 1.403zm2.048-7.464c-.945 0-1.528.722-1.528 1.637 0 .865.6 1.543 1.528 1.543.96 0 1.558-.71 1.558-1.606 0-.897-.63-1.575-1.558-1.575zM226.418 96.694v-11.15l1.402-.22v11.37h-1.402zM230.954 87.67c-.488 0-.897-.39-.897-.88s.41-.897.897-.897c.49 0 .882.408.882.896 0 .49-.394.88-.882.88zm-.708 9.024v-7.512h1.4v7.512h-1.4zM236.797 86.71c-.646 0-1.04.268-1.04.96v1.513h1.513l.174 1.182h-1.685v6.33h-1.37v-6.33h-1.135v-1.182h1.134V87.53c0-1.497.99-2.064 2.33-2.064.283 0 .455.033.597.033l.206 1.273c-.16-.03-.442-.062-.726-.062zM244.797 93.087h-5.102c.047 1.75.882 2.567 2.188 2.567 1.087 0 1.874-.425 2.693-1.07l.206 1.26c-.803.63-1.764 1.008-3.008 1.008-1.953 0-3.48-1.182-3.48-3.938 0-2.41 1.418-3.89 3.307-3.89 2.19 0 3.198 1.685 3.198 3.765v.297zm-3.212-2.96c-.867 0-1.607.617-1.827 1.906h3.62c-.17-1.213-.706-1.905-1.793-1.905zM246.484 96.694V94.82h1.558v1.874h-1.558z"/></g></svg>