<?xml version="1.0" encoding="utf-8"?>
<!-- Generator: Adobe Illustrator 16.0.0, SVG Export Plug-In . SVG Version: 6.00 Build 0)  -->
<!DOCTYPE svg PUBLIC "-//W3C//DTD SVG 1.1//EN" "http://www.w3.org/Graphics/SVG/1.1/DTD/svg11.dtd">
<svg version="1.1" id="Layer_1" xmlns="http://www.w3.org/2000/svg" xmlns:xlink="http://www.w3.org/1999/xlink" x="0px" y="0px"
	 width="250px" height="75.293px" viewBox="0 0 250 75.293" enable-background="new 0 0 250 75.293" xml:space="preserve">
<path fill="#FFFFFF" d="M10.35,28.536c0,2.342,0.444,2.987,2.107,2.987v0.579H5.558v-0.579c1.393,0,2.208-0.408,2.208-3.091V13.595
	H4.946c-2.615,0-3.803,0.743-3.972,2.78H0.398v-4.444h0.576c0.272,0.237,0.579,0.403,1.055,0.54
	c0.445,0.107,1.052,0.169,1.869,0.169h10.185c1.698,0,2.479-0.202,3.093-0.709h0.611v4.445h-0.375
	c-0.375-1.625-1.014-2.778-4.105-2.778h-2.956v14.938H10.35z M31.341,23.915c0-2.851-2-4.173-4.01-4.173
	c-1.556,0-2.681,0.639-4.211,2.409V10.775h-0.575l-3.875,0.407v0.576c1.701,0,2.143,0.236,2.143,1.799v15.655
	c0,1.934-0.343,2.273-2.142,2.311v0.579h6.452v-0.579c-1.494,0-2.003-0.375-2.003-1.625v-6.592c1.156-1.631,2.142-2.275,3.5-2.275
	c1.458,0,2.41,1.014,2.41,2.614v5.945c0,1.555-0.371,1.934-2.004,1.934v0.579h6.247v-0.579c-1.593,0-1.935-0.476-1.935-2.311v-5.298
	L31.341,23.915L31.341,23.915z M36.958,24.187c0.139-2.24,1.327-3.733,3.329-3.733c1.528,0,3.329,1.083,3.223,3.733H36.958z
	 M45.789,24.765c0.17-2.784-2.411-5.024-5.194-5.024c-3.397,0-6.046,2.853-6.046,6.48c0,3.639,2.718,6.25,6.488,6.25
	c2.101,0,3.498-0.711,4.956-2.577V29.01c-1.733,1.938-2.581,2.514-4.246,2.514c-1.634,0-4.853-1.361-4.792-6.76H45.789z
	 M77.017,14.316c0-3.606,0.972-4.847,3.985-4.847V8.558h-9.312v0.913c2.692,0,3.771,1.022,3.771,5.061v18.029H75.35L56.076,8.562
	h-7.909v0.912c3.659,0.325,4.576,2.26,4.576,5.704V33.21c0,4.469-1.24,5.275-3.819,5.275v0.917h9.361v-0.917
	c-2.795,0-4.033-1.129-4.033-4.253V12.591h0.107l21.746,26.806h0.913l0.002-25.081H77.017z M105.472,13.883h-0.912
	c-1.617,3.284-3.77,5.601-6.354,6.892v0.915h3.608v12.758c0,3.283,2.26,5.542,5.49,5.542c2.153,0,4.089-1.076,5.758-3.176
	l-0.592-0.7c-1.131,1.292-2.156,1.831-3.556,1.831c-2.1,0-3.445-1.348-3.445-3.983V21.689h6.621v-1.401h-6.618V13.883z
	 M133.795,19.805h-0.918l-6.459,0.593v0.914c3.281,0.056,3.715,0.375,3.715,3.014v10.281c-1.563,2.104-3.229,3.125-5.062,3.125
	c-2.583,0-4.305-1.617-4.305-4.309V19.804h-0.917l-6.139,0.593v0.913c2.75,0,3.393,0.702,3.393,2.53v9.742
	c0,3.554,2.473,6.403,6.242,6.403c2.583,0,4.795-1.238,6.68-3.716h0.104v3.5l6.941-0.375v-0.916c-2.582,0-3.279-0.592-3.279-2.689
	l0.004-15.986V19.805z M145.621,25.351c1.721-1.667,2.799-2.317,4.037-2.317c1.287,0,2.957,0.809,4.521,1.667l1.459-3.389
	c-0.971-0.858-2.426-1.505-3.503-1.505c-1.296,0-2.959,1.079-6.513,4.144v-4.144h-0.916l-6.674,0.591v0.914
	c3.229,0,3.93,0.323,3.93,3.125v10.386c0,2.906-0.321,3.659-3.229,3.659v0.917h10.063v-0.917c-2.527,0-3.172-0.593-3.172-2.69
	L145.621,25.351L145.621,25.351L145.621,25.351z M159.752,26.858c0.207-3.555,2.1-5.92,5.273-5.92c2.422,0,5.275,1.719,5.115,5.919
	H159.75v0.001H159.752z M173.748,27.774c0.268-4.416-3.82-7.969-8.234-7.969c-5.383,0-9.581,4.521-9.581,10.281
	c0,5.759,4.308,9.9,10.278,9.9c3.338,0,5.549-1.126,7.861-4.089v-1.4c-2.748,3.069-4.088,3.986-6.73,3.986
	c-2.578,0-7.692-2.152-7.588-10.708L173.748,27.774L173.748,27.774z M20.271,46.961v-6.893h-0.647
	c-0.243,0.485-0.646,0.727-1.25,0.727c-1.369,0-3.546-0.965-6.449-0.965C5.038,39.832,0,45.23,0,52.564
	c0,7.693,5.806,11.484,11.364,11.484c4.435,0,8.101-2.295,9.632-5.965l-0.6-0.563c-1.736,3.387-4.436,5.078-8.065,5.078
	c-5.194,0-8.782-4.553-8.782-11.484c0-5.925,2.982-10.398,8.542-10.398c3.989,0,6.37,1.898,7.497,6.25h0.684L20.271,46.961
	L20.271,46.961z M30.25,49.623c3.306,0,4.838,3.18,4.838,6.77c0,3.463-1.454,6.734-4.836,6.734c-3.303,0-4.834-3.066-4.834-6.734
	c0-4.107,1.812-6.77,4.834-6.77 M30.252,63.93c4.475,0,7.817-3.225,7.817-7.545c0-4.346-3.342-7.568-7.815-7.568
	c-4.473,0-7.815,3.225-7.815,7.572c0,4.314,3.347,7.539,7.816,7.539 M54.629,53.934c0-3.424-2.461-5.115-4.836-5.115
	c-1.819,0-3.465,0.926-5.159,2.857v-2.859h-0.686l-4.431,0.439v0.684c1.935,0,2.379,0.359,2.379,2.098v8.02
	c0,2.574-0.486,2.734-2.379,2.734v0.695h7.535v-0.695c-2.136,0-2.419-0.563-2.419-2.736v-6.973c1.413-1.891,2.659-2.783,4.069-2.783
	c1.533,0,3.185,0.967,3.185,3.268v7.457c0,1.326-0.525,1.764-2.456,1.764v0.695h7.615v-0.695c-2.014,0-2.417-0.561-2.417-2.412
	V53.93V53.934z M67.228,53.207v-4.393h-0.683c-0.201,0.484-0.486,0.686-0.848,0.686c-0.965,0-1.409-0.686-2.898-0.686
	c-2.375,0-4.353,1.896-4.353,4.109c0,4.834,7.575,3.748,7.575,7.736c0,1.414-1.086,2.459-2.498,2.459
	c-1.771,0-3.992-1.176-4.594-4.156h-0.685v4.875h0.686c0.042-0.514,0.406-0.959,0.928-0.959c0.687,0,2.056,1.051,3.629,1.051
	c2.455,0,4.511-2.016,4.511-4.396c0-5.322-7.5-4.354-7.5-7.98c0-1.166,0.972-1.936,2.382-1.936c1.692,0,3.264,1.209,3.545,3.582
	l0.805,0.004L67.228,53.207z M72.374,54.094c0.161-2.658,1.573-4.432,3.948-4.432c1.816,0,3.949,1.293,3.83,4.432H72.374z
	 M82.853,54.783c0.203-3.305-2.86-5.967-6.167-5.967c-4.03,0-7.172,3.383-7.172,7.697c0,4.311,3.225,7.416,7.697,7.416
	c2.5,0,4.15-0.85,5.882-3.064v-1.051c-2.053,2.303-3.061,2.982-5.038,2.982c-1.933,0-5.759-1.611-5.681-8.014H82.853L82.853,54.783
	L82.853,54.783z M89.953,52.971c1.289-1.248,2.094-1.732,3.019-1.732c0.968,0,2.217,0.605,3.385,1.244l1.09-2.539
	c-0.722-0.645-1.813-1.127-2.62-1.127c-0.965,0-2.216,0.805-4.875,3.102V48.82h-0.687l-5,0.445v0.676
	c2.421,0,2.944,0.242,2.944,2.342v7.781c0,2.174-0.244,2.74-2.419,2.74v0.686h7.535v-0.686c-1.894,0-2.375-0.445-2.375-2.016
	L89.953,52.971L89.953,52.971z M103.771,52.404c-0.643-1.572-0.281-2.34,1.089-2.459v-0.684h-6.889v0.684
	c1.69,0.082,2.056,0.324,3.02,2.658l4.556,11.203h0.68l4.597-11.809c0.687-1.533,1.092-1.889,2.739-2.053V49.26h-5.244v0.686
	c2.097,0.162,2.097,1.008,1.412,2.863l-2.781,7.209l-3.183-7.615h0.004V52.404z M142.008,53.934c0-3.422-2.454-5.113-4.834-5.113
	c-1.813,0-3.465,0.926-5.159,2.855v-2.859h-0.681l-4.438,0.438v0.684c1.938,0,2.383,0.365,2.383,2.102v8.014
	c0,2.576-0.484,2.738-2.383,2.738v0.691h7.541v-0.691c-2.137,0-2.422-0.561-2.422-2.734V53.08c1.417-1.891,2.661-2.781,4.074-2.781
	c1.531,0,3.186,0.969,3.186,3.266v7.457c0,1.326-0.523,1.768-2.459,1.768v0.691h7.609v-0.691c-2.01,0-2.414-0.563-2.414-2.416
	l-0.004-6.441V53.934z M157.869,48.82h-0.688c-0.24,0.525-0.606,0.805-0.97,0.805c-0.725,0-1.891-0.805-4.027-0.805
	c-4.068,0-7.373,3.5-7.373,7.896c0,4.27,2.938,7.215,7.173,7.215c2.575,0,4.755-1.053,6.282-3.148v-1.047
	c-1.489,2.057-3.584,2.98-5.316,2.98c-2.902,0-5.357-3.27-5.357-7.18c0-3.5,1.978-5.918,4.793-5.918c2.38,0,4.191,1.65,4.795,4.23
	h0.689v-5.033V48.82z M164.682,52.125c-0.529-1.209-0.084-2.014,1.004-2.176v-0.684h-6.854v0.684
	c1.65,0.041,2.176,0.484,2.904,2.133l5.119,11.807L165,69.051c-0.889,2.498-1.893,3.504-3.627,3.504
	c-0.484,0-0.805-0.08-1.365-0.318l-0.93,2.459c0.726,0.439,1.172,0.604,1.77,0.604c1.736,0,3.592-1.893,4.717-5.193l5.684-16.807
	c0.807-2.375,1.732-3.344,3.266-3.344v-0.682h-5.035v0.682c1.566,0.084,1.689,1.01,1.127,2.699l-2.504,7.539l-3.422-8.066
	L164.682,52.125z M91.931,29.062c-3.605,1.561-6.833,1.506-6.833,5.382c0,1.939,1.344,3.501,2.905,3.501
	c1.129,0,3.178-0.806,3.931-2.424v-6.459H91.931z M95.588,35.242c0,2.509,0.544,3.272,3.267,3.272v0.926h-6.686v-2.293l-0.009,0.006
	c-1.886,2.049-3.348,2.836-5.34,2.836c-2.959,0-5.434-2.261-5.434-5.06c0-5.439,7.431-5.22,10.547-7.055V26.48
	c0-2.691-1.561-4.629-4.25-4.629c-2.155,0-4.253,1.348-5.058,4.094l-0.972-0.271c0.81-3.556,3.607-5.871,7.051-5.871
	c3.177,0,6.892,1.833,6.892,6.997l-0.008,8.445 M121.235,55.779c-2.673,1.156-5.069,1.113-5.069,3.986c0,1.438,1,2.59,2.158,2.59
	c0.836,0,2.354-0.594,2.912-1.795L121.235,55.779L121.235,55.779z M123.944,60.363c0,1.854,0.405,2.42,2.423,2.42v0.691h-4.952
	v-1.701l-0.011,0.008c-1.396,1.514-2.479,2.098-3.958,2.098c-2.194,0-4.03-1.676-4.03-3.752c0-4.025,5.508-3.867,7.819-5.227v-1.031
	c0-2-1.156-3.439-3.153-3.439c-1.593,0-3.15,1-3.75,3.035l-0.717-0.201c0.597-2.633,2.673-4.352,5.227-4.352
	c2.356,0,5.107,1.361,5.107,5.189l-0.007,6.258"/>
<path fill="none" d="M250,30.183c-0.305-4.539-1.566-8.961-3.701-12.978c-1.354-1.259-2.469-2.045-2.143-0.019
	c0.18,1.12,5.113,10.313-2.287,17.42l-0.018-0.2c-0.082-0.839-0.59-4.139-3.48-4.572c-3.525-0.527-0.6-5.917-2.313-8.431
	c-2.42-3.541-3.041,1.32-3.893,2.386c-0.865,1.087-4.451,3.111-4.451,0.319c0-3.18-2.23-3.576-3.088-4.611
	c-0.82-0.993-0.49-1.519,1.053-3.242c2.816-3.139,0.789-5.118-0.031-4.392c-1.234,1.076-0.943,1.312-3.201,1.794
	c-1.699,0.373-1.617-2.523-1.41-3.706c1.168-6.718-3.307-9.271-9.703-9.398c-14.926,2.926-26.184,16.074-26.184,31.856
	c0,17.244,13.449,31.339,30.422,32.396h4.078c3.68-0.229,7.205-1.07,10.449-2.422c-4.527,1.049-7.074-0.672-7.318-1.336
	c-0.492-1.303,3.311-0.414-0.271-2.256c-2.166-1.113-3.088-3.324-3.32-4.295l-0.74-0.408c-0.129-0.033-0.215-0.063-0.195-0.041
	c0,0-15.561-2.195-16.414-5.853c-0.91-3.913-5.932-2.978-5.994-6.104c-0.027-1.561,1.865-0.984,2.316-1.666
	c0.564-0.856-0.207-1.221-2.568-2.636c-6.236-3.744-5.336-9.646-4.32-10.566c0.66-0.6,1.385-0.264,2.045,0.074
	c0.65,0.328,1.238,0.66,1.641,0.097c0.811-1.121-3.793-7.472,5.932-14.685c0,0,1.152,3.722,4.697,4.995
	c3.768,1.353-2.344,6.453-1.012,9.875c0.75,1.922,2.27-0.491,3.662-1.84c1.193-1.158,2.85-4.116,4.916-3.472
	c1.824,0.569,1.188,2.958,1.596,4.228c0.537,1.647,1.852,1.127,2.561,2.569c0.688,1.379,0.203,1.958-1.879,3.756
	c-3.799,3.283-1.99,6.941-0.91,6.223c1.602-1.073,1.307-2.252,3.9-2.398c1.949-0.106,2.627,1.813,2.104,3.197
	c-0.525,1.39-0.832,1.824-0.521,2.818c0.807,2.547,0.334,1.77-0.99,4.088c-1.131,1.975-1.09,3.836,0.234,6.994
	c2.672,1.359,3.674,0.52,4.773-0.326c0.875-0.666,1.816-1.336,3.703-0.902c9.553,2.18,4.361-0.936,5.988-2.516
	c0.84-0.82,1.48-0.764,2.238-0.705c0.58,0.043,1.23,0.088,2.094-0.26c2.941-1.851,3.227-2.478,7.111,0.561
	c2.818-4.504,4.484-9.633,4.844-14.933v-4.481V30.183L250,30.183z"/>
<ellipse fill="#FFFFFF" cx="217.574" cy="32.399" rx="32.426" ry="32.404"/>
<path fill="#47A842" d="M250,30.183c-0.305-4.539-1.566-8.961-3.701-12.978c-1.354-1.259-2.469-2.045-2.143-0.019
	c0.18,1.12,5.113,10.313-2.287,17.42l-0.018-0.2c-0.082-0.839-0.59-4.139-3.48-4.572c-3.525-0.527-0.6-5.917-2.313-8.431
	c-2.42-3.541-3.041,1.32-3.893,2.386c-0.865,1.087-4.451,3.111-4.451,0.319c0-3.18-2.23-3.576-3.088-4.611
	c-0.82-0.993-0.49-1.519,1.053-3.242c2.816-3.139,0.789-5.118-0.031-4.392c-1.234,1.076-0.943,1.312-3.201,1.794
	c-1.699,0.373-1.617-2.523-1.41-3.706c1.168-6.718-3.307-9.271-9.703-9.398c-14.926,2.926-26.184,16.074-26.184,31.856
	c0,17.244,13.449,31.339,30.422,32.396h4.078c3.68-0.229,7.205-1.07,10.449-2.422c-4.527,1.049-7.074-0.672-7.318-1.336
	c-0.492-1.303,3.311-0.414-0.271-2.256c-2.166-1.113-3.088-3.324-3.32-4.295l-0.74-0.408c-0.129-0.033-0.215-0.063-0.195-0.041
	c0,0-15.561-2.195-16.414-5.853c-0.91-3.913-5.932-2.978-5.994-6.104c-0.027-1.561,1.865-0.984,2.316-1.666
	c0.564-0.856-0.207-1.221-2.568-2.636c-6.236-3.744-5.336-9.646-4.32-10.566c0.66-0.6,1.385-0.264,2.045,0.074
	c0.65,0.328,1.238,0.66,1.641,0.097c0.811-1.121-3.793-7.472,5.932-14.685c0,0,1.152,3.722,4.697,4.995
	c3.768,1.353-2.344,6.453-1.012,9.875c0.75,1.922,2.27-0.491,3.662-1.84c1.193-1.158,2.85-4.116,4.916-3.472
	c1.824,0.569,1.188,2.958,1.596,4.228c0.537,1.647,1.852,1.127,2.561,2.569c0.688,1.379,0.203,1.958-1.879,3.756
	c-3.799,3.283-1.99,6.941-0.91,6.223c1.602-1.073,1.307-2.252,3.9-2.398c1.949-0.106,2.627,1.813,2.104,3.197
	c-0.525,1.39-0.832,1.824-0.521,2.818c0.807,2.547,0.334,1.77-0.99,4.088c-1.131,1.975-1.09,3.836,0.234,6.994
	c2.672,1.359,3.674,0.52,4.773-0.326c0.875-0.666,1.816-1.336,3.703-0.902c9.553,2.18,4.361-0.936,5.988-2.516
	c0.84-0.82,1.48-0.764,2.238-0.705c0.58,0.043,1.23,0.088,2.094-0.26c2.941-1.851,3.227-2.478,7.111,0.561
	c2.818-4.504,4.484-9.633,4.844-14.933v-4.481V30.183L250,30.183z"/>
<g>
	<path fill="#47A842" d="M220.277,55.084c0,0-21.342-8.283-22.078-29.284C198.195,25.8,200.262,41.768,220.277,55.084
		 M241.447,53.064c-1.629,0.988-4.268,3.313-8.586,1.951c0,0,1.689,1.299,4.406,1.229c-3.465,1.793-7.221,2.215-13.166,0.73
		c0,0,12.037,7.096,20.449-6.488C244.549,50.488,242.459,52.449,241.447,53.064 M220.117-0.005
		c0.607,0.069,5.205,0.681,10.059,3.777c1.805,1.689,4.355,5.833,0.414,14.334c0,0,5.059-6.82,3.779-10.961
		c4.236,4.253,7.799,10.99,7.936,21.672c0,0,4.709-26.756-22.189-28.822"/>
</g>
</svg>
