<?xml version="1.0" encoding="utf-8"?>
<!-- Generator: Adobe Illustrator 16.0.0, SVG Export Plug-In . SVG Version: 6.00 Build 0)  -->
<!DOCTYPE svg PUBLIC "-//W3C//DTD SVG 1.1//EN" "http://www.w3.org/Graphics/SVG/1.1/DTD/svg11.dtd">
<svg version="1.1" id="Layer_1" xmlns="http://www.w3.org/2000/svg" xmlns:xlink="http://www.w3.org/1999/xlink" x="0px" y="0px"
	 width="300px" height="91px" viewBox="-25 -7.854 300 91" enable-background="new -25 -7.854 300 91" xml:space="preserve">
<g>
	<path fill="#FFFFFF" d="M-12.58,26.713c0,2.81,0.533,3.584,2.528,3.584v0.695h-8.279v-0.695c1.672,0,2.65-0.489,2.65-3.709V8.783
		h-3.384c-3.138,0-4.563,0.892-4.766,3.336h-0.691V6.787h0.691c0.326,0.284,0.695,0.483,1.266,0.648
		c0.534,0.128,1.263,0.203,2.243,0.203h12.222c2.037,0,2.975-0.243,3.711-0.851h0.733v5.333h-0.45
		c-0.45-1.95-1.217-3.333-4.926-3.333h-3.547v17.925H-12.58z M12.609,21.167c0-3.421-2.4-5.007-4.812-5.007
		c-1.867,0-3.217,0.767-5.053,2.891V5.399h-0.69l-4.65,0.489v0.691c2.042,0,2.572,0.284,2.572,2.159v18.786
		c0,2.321-0.412,2.728-2.571,2.773v0.695h7.743v-0.695c-1.793,0-2.403-0.45-2.403-1.95v-7.91c1.387-1.958,2.57-2.73,4.2-2.73
		c1.75,0,2.892,1.216,2.892,3.137v7.133c0,1.866-0.445,2.321-2.405,2.321v0.695h7.497v-0.695c-1.911,0-2.322-0.571-2.322-2.773
		v-6.357H12.609L12.609,21.167z M19.349,21.494c0.167-2.688,1.593-4.479,3.995-4.479c1.833,0,3.995,1.299,3.867,4.479H19.349z
		 M29.946,22.188c0.204-3.341-2.893-6.028-6.232-6.028c-4.076,0-7.255,3.423-7.255,7.776c0,4.366,3.262,7.5,7.786,7.5
		c2.521,0,4.198-0.854,5.947-3.092v-1.061c-2.08,2.326-3.097,3.017-5.095,3.017c-1.961,0-5.824-1.633-5.75-8.112L29.946,22.188
		L29.946,22.188z M67.42,9.649c0-4.327,1.166-5.817,4.782-5.817V2.739H61.027v1.096c3.23,0,4.525,1.227,4.525,6.073v21.635h-0.133
		L42.291,2.744H32.8v1.094c4.391,0.39,5.492,2.712,5.492,6.845v21.638c0,5.363-1.488,6.329-4.583,6.329v1.102h11.233V38.65
		c-3.354,0-4.839-1.354-4.839-5.103V7.579h0.128l26.095,32.167h1.096l0.002-30.096H67.42z M101.565,9.129h-1.094
		c-1.941,3.941-4.524,6.721-7.625,8.271v1.098h4.33v15.31c0,3.938,2.712,6.65,6.588,6.65c2.583,0,4.906-1.292,6.909-3.812
		l-0.71-0.84c-1.358,1.55-2.588,2.196-4.268,2.196c-2.52,0-4.134-1.617-4.134-4.779V18.496h7.945v-1.681h-7.941V9.129z
		 M135.553,16.236h-1.102l-7.751,0.711v1.097c3.938,0.067,4.458,0.45,4.458,3.617v12.337c-1.875,2.524-3.874,3.75-6.074,3.75
		c-3.1,0-5.166-1.94-5.166-5.171V16.234h-1.1l-7.367,0.711v1.096c3.3,0,4.072,0.843,4.072,3.036v11.69
		c0,4.265,2.968,7.683,7.491,7.683c3.099,0,5.754-1.484,8.016-4.458h0.124v4.2l8.33-0.449v-1.1c-3.099,0-3.936-0.711-3.936-3.228
		l0.005-19.183V16.236L135.553,16.236z M149.744,22.891c2.064-2,3.358-2.78,4.845-2.78c1.544,0,3.548,0.971,5.426,2l1.75-4.067
		c-1.166-1.029-2.912-1.806-4.204-1.806c-1.556,0-3.551,1.294-7.815,4.973v-4.973h-1.1l-8.008,0.709v1.097
		c3.875,0,4.715,0.387,4.715,3.75v12.463c0,3.487-0.385,4.392-3.875,4.392v1.099h12.076v-1.099c-3.031,0-3.807-0.712-3.807-3.229
		L149.744,22.891L149.744,22.891L149.744,22.891z M166.701,24.699c0.248-4.266,2.52-7.104,6.328-7.104
		c2.906,0,6.329,2.063,6.138,7.103h-12.469v0.001H166.701z M183.496,25.798c0.321-5.299-4.584-9.563-9.881-9.563
		c-6.46,0-11.496,5.425-11.496,12.337c0,6.911,5.169,11.88,12.332,11.88c4.006,0,6.659-1.353,9.434-4.907v-1.68
		c-3.297,3.683-4.905,4.782-8.076,4.782c-3.094,0-9.229-2.582-9.105-12.849L183.496,25.798L183.496,25.798z M-0.675,48.822v-8.271
		h-0.776c-0.292,0.581-0.775,0.871-1.5,0.871c-1.643,0-4.255-1.157-7.739-1.157C-18.955,40.268-25,46.746-25,55.547
		c0,9.23,6.967,13.779,13.636,13.779c5.322,0,9.721-2.754,11.559-7.157l-0.72-0.677c-2.083,4.065-5.323,6.094-9.678,6.094
		c-6.233,0-10.539-5.463-10.539-13.779c0-7.11,3.578-12.479,10.25-12.479c4.787,0,7.644,2.278,8.997,7.5h0.821L-0.675,48.822
		L-0.675,48.822z M11.3,52.017c3.967,0,5.805,3.815,5.805,8.124c0,4.155-1.745,8.081-5.803,8.081c-3.963,0-5.801-3.68-5.801-8.081
		c0-4.928,2.174-8.124,5.801-8.124 M11.302,69.185c5.37,0,9.38-3.869,9.38-9.054c0-5.215-4.01-9.082-9.378-9.082
		c-5.368,0-9.377,3.871-9.377,9.087c0,5.177,4.016,9.047,9.379,9.047 M40.554,57.189c0-4.108-2.953-6.138-5.803-6.138
		c-2.183,0-4.158,1.111-6.191,3.429v-3.432h-0.823l-5.317,0.527v0.82c2.322,0,2.855,0.432,2.855,2.519v9.624
		c0,3.088-0.583,3.28-2.855,3.28v0.833h9.042v-0.833c-2.563,0-2.902-0.676-2.902-3.282v-8.368c1.696-2.27,3.191-3.34,4.883-3.34
		c1.839,0,3.822,1.161,3.822,3.922v8.948c0,1.592-0.63,2.117-2.947,2.117v0.834h9.138v-0.834c-2.417,0-2.9-0.673-2.9-2.895v-7.737
		V57.189z M55.673,56.317v-5.271h-0.819c-0.241,0.58-0.583,0.822-1.018,0.822c-1.158,0-1.69-0.822-3.478-0.822
		c-2.85,0-5.224,2.274-5.224,4.93c0,5.801,9.09,4.498,9.09,9.283c0,1.697-1.303,2.951-2.998,2.951c-2.125,0-4.791-1.412-5.513-4.987
		h-0.822v5.85h0.823c0.05-0.616,0.487-1.15,1.113-1.15c0.824,0,2.467,1.262,4.354,1.262c2.946,0,5.414-2.42,5.414-5.275
		c0-6.387-9-5.225-9-9.576c0-1.399,1.167-2.323,2.858-2.323c2.03,0,3.917,1.451,4.254,4.299l0.966,0.004L55.673,56.317z
		 M61.848,57.382c0.193-3.189,1.887-5.318,4.737-5.318c2.18,0,4.739,1.552,4.596,5.318H61.848z M74.423,58.209
		c0.244-3.966-3.432-7.16-7.4-7.16c-4.836,0-8.606,4.06-8.606,9.236c0,5.173,3.869,8.899,9.236,8.899c3,0,4.98-1.021,7.058-3.677
		v-1.262c-2.463,2.764-3.672,3.578-6.045,3.578c-2.32,0-6.911-1.933-6.817-9.616L74.423,58.209L74.423,58.209L74.423,58.209z
		 M82.943,56.034c1.547-1.498,2.513-2.078,3.623-2.078c1.161,0,2.66,0.726,4.062,1.492l1.308-3.047
		c-0.866-0.773-2.175-1.353-3.144-1.353c-1.158,0-2.659,0.967-5.85,3.723v-3.718h-0.825l-6,0.534v0.812
		c2.905,0,3.533,0.29,3.533,2.81v9.338c0,2.608-0.293,3.288-2.903,3.288v0.822h9.042v-0.822c-2.273,0-2.85-0.534-2.85-2.42
		L82.943,56.034L82.943,56.034z M99.524,55.354c-0.772-1.887-0.337-2.808,1.307-2.951v-0.821h-8.267v0.821
		c2.028,0.099,2.467,0.39,3.624,3.19l5.467,13.443h0.816l5.516-14.172c0.825-1.839,1.311-2.267,3.287-2.464v-0.82h-6.293v0.822
		c2.517,0.195,2.517,1.211,1.695,3.437l-3.337,8.65l-3.82-9.139h0.005V55.354z M145.408,57.189c0-4.106-2.944-6.136-5.801-6.136
		c-2.175,0-4.158,1.112-6.189,3.427v-3.432H132.6l-5.325,0.526v0.821c2.325,0,2.859,0.438,2.859,2.521v9.617
		c0,3.091-0.581,3.285-2.859,3.285v0.83h9.049v-0.83c-2.564,0-2.905-0.672-2.905-3.281v-8.374c1.699-2.269,3.191-3.337,4.888-3.337
		c1.837,0,3.823,1.162,3.823,3.918v8.949c0,1.591-0.628,2.122-2.95,2.122v0.828h9.13v-0.828c-2.412,0-2.897-0.677-2.897-2.899
		L145.408,57.189L145.408,57.189L145.408,57.189z M164.441,51.054h-0.825c-0.288,0.629-0.728,0.966-1.164,0.966
		c-0.87,0-2.27-0.966-4.833-0.966c-4.881,0-8.848,4.2-8.848,9.475c0,5.124,3.526,8.659,8.608,8.659c3.089,0,5.706-1.265,7.537-3.778
		v-1.257c-1.786,2.469-4.301,3.576-6.378,3.576c-3.483,0-6.429-3.925-6.429-8.616c0-4.2,2.373-7.102,5.752-7.102
		c2.855,0,5.029,1.979,5.754,5.075h0.826v-6.039L164.441,51.054L164.441,51.054z M172.616,55.02
		c-0.635-1.451-0.101-2.417,1.205-2.611v-0.82h-8.225v0.82c1.98,0.05,2.611,0.581,3.485,2.56l6.143,14.168l-2.227,6.194
		c-1.066,2.998-2.271,4.205-4.352,4.205c-0.582,0-0.966-0.097-1.639-0.383l-1.115,2.951c0.871,0.527,1.406,0.726,2.123,0.726
		c2.084,0,4.311-2.271,5.66-6.231l6.821-20.169c0.97-2.85,2.078-4.012,3.92-4.012v-0.819h-6.042v0.819
		c1.879,0.101,2.026,1.211,1.353,3.237l-3.005,9.047l-4.106-9.679V55.02z M85.316,27.344c-4.326,1.874-8.199,1.807-8.199,6.458
		c0,2.327,1.612,4.201,3.485,4.201c1.355,0,3.814-0.967,4.717-2.908v-7.751H85.316z M89.705,34.76c0,3.011,0.653,3.926,3.92,3.926
		v1.111h-8.023v-2.751l-0.011,0.007c-2.264,2.459-4.018,3.403-6.408,3.403c-3.551,0-6.521-2.713-6.521-6.071
		c0-6.527,8.917-6.265,12.656-8.466v-1.673c0-3.229-1.873-5.555-5.1-5.555c-2.586,0-5.104,1.618-6.069,4.913l-1.167-0.325
		c0.972-4.267,4.329-7.045,8.461-7.045c3.813,0,8.271,2.2,8.271,8.396l-0.01,10.134 M120.48,59.404
		c-3.207,1.388-6.083,1.336-6.083,4.783c0,1.726,1.2,3.108,2.59,3.108c1.003,0,2.825-0.714,3.494-2.154L120.48,59.404L120.48,59.404
		z M123.731,64.905c0,2.224,0.486,2.903,2.908,2.903v0.83h-5.943v-2.041l-0.013,0.009c-1.675,1.816-2.975,2.518-4.75,2.518
		c-2.633,0-4.836-2.011-4.836-4.503c0-4.83,6.609-4.641,9.382-6.271v-1.237c0-2.4-1.387-4.127-3.783-4.127
		c-1.912,0-3.78,1.199-4.5,3.642l-0.86-0.241c0.716-3.159,3.207-5.222,6.271-5.222c2.827,0,6.129,1.634,6.129,6.227l-0.009,7.51"/>
	<path fill="none" d="M274.998,28.689c-0.366-5.447-1.88-10.753-4.441-15.573c-1.625-1.511-2.963-2.454-2.571-0.023
		c0.216,1.344,6.136,12.375-2.745,20.903l-0.021-0.239c-0.099-1.007-0.709-4.967-4.177-5.487c-4.23-0.632-0.72-7.1-2.774-10.117
		c-2.904-4.249-3.649,1.584-4.673,2.864c-1.038,1.304-5.341,3.733-5.341,0.382c0-3.816-2.676-4.291-3.706-5.533
		c-0.983-1.192-0.588-1.823,1.265-3.891c3.379-3.767,0.945-6.141-0.037-5.271c-1.481,1.292-1.133,1.574-3.842,2.153
		c-2.039,0.448-1.94-3.028-1.692-4.447c1.401-8.062-3.968-11.125-11.644-11.278c-17.91,3.512-31.42,19.289-31.42,38.228
		c0,20.691,16.139,37.606,36.506,38.874h4.894c4.416-0.273,8.646-1.284,12.539-2.906c-5.433,1.259-8.489-0.806-8.782-1.603
		c-0.59-1.563,3.973-0.497-0.325-2.707c-2.6-1.336-3.706-3.989-3.984-5.154l-0.888-0.489c-0.155-0.04-0.259-0.075-0.234-0.05
		c0,0-18.673-2.634-19.696-7.023c-1.091-4.695-7.118-3.573-7.191-7.324c-0.033-1.873,2.237-1.182,2.778-2
		c0.676-1.026-0.248-1.465-3.082-3.162c-7.482-4.493-6.403-11.576-5.184-12.679c0.793-0.72,1.662-0.317,2.454,0.088
		c0.779,0.394,1.486,0.792,1.969,0.117c0.973-1.346-4.552-8.967,7.118-17.622c0,0,1.383,4.466,5.637,5.994
		c4.521,1.624-2.813,7.744-1.214,11.85c0.899,2.307,2.723-0.589,4.395-2.208c1.432-1.389,3.419-4.939,5.898-4.166
		c2.189,0.683,1.426,3.549,1.915,5.073c0.645,1.977,2.222,1.353,3.072,3.083c0.826,1.654,0.244,2.35-2.254,4.506
		c-4.559,3.94-2.389,8.329-1.093,7.468c1.924-1.287,1.569-2.702,4.681-2.877c2.339-0.127,3.152,2.176,2.524,3.836
		c-0.63,1.668-0.999,2.189-0.625,3.382c0.97,3.057,0.401,2.125-1.187,4.905c-1.358,2.371-1.31,4.604,0.279,8.394
		c3.207,1.63,4.409,0.623,5.728-0.392c1.05-0.8,2.18-1.604,4.443-1.082c11.464,2.616,5.233-1.123,7.187-3.02
		c1.008-0.984,1.776-0.918,2.686-0.846c0.696,0.051,1.477,0.105,2.513-0.313c3.529-2.221,3.871-2.973,8.533,0.673
		c3.382-5.404,5.381-11.56,5.813-17.919v-5.377v0.004H274.998z"/>
	<ellipse fill="#FFFFFF" cx="236.087" cy="31.348" rx="38.911" ry="38.884"/>
	<path fill="#47A842" d="M274.998,28.689c-0.366-5.447-1.88-10.753-4.441-15.573c-1.625-1.511-2.963-2.454-2.571-0.023
		c0.216,1.344,6.136,12.375-2.745,20.903l-0.021-0.239c-0.099-1.007-0.709-4.967-4.177-5.487c-4.23-0.632-0.72-7.1-2.774-10.117
		c-2.904-4.249-3.649,1.584-4.673,2.864c-1.038,1.304-5.341,3.733-5.341,0.382c0-3.816-2.676-4.291-3.706-5.533
		c-0.983-1.192-0.588-1.823,1.265-3.891c3.379-3.767,0.945-6.141-0.037-5.271c-1.481,1.292-1.133,1.574-3.842,2.153
		c-2.039,0.448-1.94-3.028-1.692-4.447c1.401-8.062-3.968-11.125-11.644-11.278c-17.91,3.512-31.42,19.289-31.42,38.228
		c0,20.691,16.139,37.606,36.506,38.874h4.894c4.416-0.273,8.646-1.284,12.539-2.906c-5.433,1.259-8.489-0.806-8.782-1.603
		c-0.59-1.563,3.973-0.497-0.325-2.707c-2.6-1.336-3.706-3.989-3.984-5.154l-0.888-0.489c-0.155-0.04-0.259-0.075-0.234-0.05
		c0,0-18.673-2.634-19.696-7.023c-1.091-4.695-7.118-3.573-7.191-7.324c-0.033-1.873,2.237-1.182,2.778-2
		c0.676-1.026-0.248-1.465-3.082-3.162c-7.482-4.493-6.403-11.576-5.184-12.679c0.793-0.72,1.662-0.317,2.454,0.088
		c0.779,0.394,1.486,0.792,1.969,0.117c0.973-1.346-4.552-8.967,7.118-17.622c0,0,1.383,4.466,5.637,5.994
		c4.521,1.624-2.813,7.744-1.214,11.85c0.899,2.307,2.723-0.589,4.395-2.208c1.432-1.389,3.419-4.939,5.898-4.166
		c2.189,0.683,1.426,3.549,1.915,5.073c0.645,1.977,2.222,1.353,3.072,3.083c0.826,1.654,0.244,2.35-2.254,4.506
		c-4.559,3.94-2.389,8.329-1.093,7.468c1.924-1.287,1.569-2.702,4.681-2.877c2.339-0.127,3.152,2.176,2.524,3.836
		c-0.63,1.668-0.999,2.189-0.625,3.382c0.97,3.057,0.401,2.125-1.187,4.905c-1.358,2.371-1.31,4.604,0.279,8.394
		c3.207,1.63,4.409,0.623,5.728-0.392c1.05-0.8,2.18-1.604,4.443-1.082c11.464,2.616,5.233-1.123,7.187-3.02
		c1.008-0.984,1.776-0.918,2.686-0.846c0.696,0.051,1.477,0.105,2.513-0.313c3.529-2.221,3.871-2.973,8.533,0.673
		c3.382-5.404,5.381-11.56,5.813-17.919v-5.377v0.004H274.998z"/>
	<g>
		<path fill="#47A842" d="M239.331,58.57c0,0-25.61-9.94-26.494-35.141C212.833,23.429,215.313,42.591,239.331,58.57
			 M264.734,56.146c-1.954,1.185-5.121,3.975-10.303,2.342c0,0,2.026,1.559,5.287,1.474c-4.157,2.151-8.666,2.658-15.799,0.877
			c0,0,14.444,8.515,24.537-7.786C268.456,53.056,265.948,55.408,264.734,56.146 M239.139-7.536
			c0.729,0.083,6.246,0.817,12.07,4.532c2.165,2.027,5.227,7,0.497,17.201c0,0,6.07-8.184,4.535-13.153
			c5.083,5.104,9.358,13.188,9.522,26.006C265.764,27.05,271.414-5.057,239.139-7.536"/>
	</g>
</g>
</svg>
