<svg xmlns="http://www.w3.org/2000/svg" width="900" height="95.468"><g fill="#41BBEC"><path d="M269.9 5.78c-.26.2-.4 1.1 0 1.56-.33.84-.07 1.23-.52 2.2.06.72-.65 1.43-.52 2.15-.07.1-.13.24-.33.24-.06.9-1.03 1.56-.84 2.34-.4.24-.6.7-.6 1.1-.78.57-.98 1.74-1.43 2.6-.33.1-.2.38-.33.7-.78.4-.58 1.1-1.1 1.62-.07.2.2.07.13.26-.33-.06-.2.13-.26.27-.06.06-.25.06-.25.06-.2.26-.26.6-.4.9-.58.08-.45.85-.97 1.05-.07.2.2.13.12.32-.64.07-.45.9-.9 1.17 0 .13-.07.26.06.26-.52.92-.45 2.16-.97 2.87.06.52 0 .97-.27 1.23.07.26 0 .4 0 .72-.58 1.04-.38 2.92-1.16 3.83.06 1.1-.46 1.95-.46 3.18-.12.07-.12.26-.25.33.26.45-.45 1.16-.13 1.5-.32.38-.2 1.22-.52 1.55-.05.2.2.15.14.34-.06.07-.13.26-.2.33-.06.2.07.26.07.4-.43 1.22-.5 3.17-.56 3.82-.07.2-.13.05-.33.05.34.72.14 1.5-.12 2.14-.06.26.2.2.2.4-.33.83 0 1.54-.4 2.45 0 .07.14.07.2.07-.45 1.05.2 2.1-.32 2.86.32.4.32 1.17.26 1.5-.06.26.4.65.14 1.17.32.9.4 1.88 1.17 2.6.33-.13.6-.27.85-.4 2.8-2.27 5.07-5.2 6.88-8.44.13-.06.2-.13.33-.2 2.2-4.3 4.6-8.37 6.87-12.6-.06.33-.26.6-.2 1.05-1.3 2.92-2.33 5.78-3.3 8.9-.13.06-.2.2-.27.26.07.6-.2 1.43-.64 1.7-.65 2.53-2.2 4.15-3.32 6.23-.7.78-1.4 1.56-1.93 2.47-1.16 1.1-2 2.45-3.7 3.04-.84.45-1.8.78-2.72.9-2.15.27-3.83-1.23-4.74-2.6 0-.25-.07-.25.06-.38-.06 0-.2 0-.26 0-.45-.9-.52-1.95-.58-2.8-.13-1.23-.52-2.46-.46-3.5.07-.58 0-1.3.07-1.88.06-.46.13-.97.32-1.5-.33-.2.25-.77-.07-.9.05-.2.18-.33.25-.53-.07-.77.13-.97.06-1.5.2-.64.34-1.35.34-2.2.2-1.1.32-1.88.32-2.8.46-1.48.65-3.95 1.3-5.38.26-2 .9-4.02 1.36-5.78-.06-.4-.06-.34-.06-.67.45-.13.2-.9.52-1.16-.07-.13-.07-.27-.13-.33.12-.13.12-.45.3-.52.27-1.3.66-2.92.86-4.1.2-.5.4-1.22.58-1.87.2-.07 0-.26.33-.26-.2-.27.13-.9.4-1.1-.14-1.18.64-1.7.64-2.74.07-.13.2-.26.33-.33-.14-.32.06-.65.25-.84.07-1.18.72-2.2.9-3.26.4-.2.27-1.04.73-1.23 1.1-2.85 3.1-5.06 5.9-6.42.66-.08 1.96-.2 2.1.2.77-.14.97.83.9 1.28.13 0 .2 0 .33 0zm-4.8 4.16c-.53 1.3-.53 2.54-.98 3.9.26.85-.78 2.14-.52 3.05-.33 0-.2.45-.46.5.13.8-.58 1.7-.5 2.55.12-.78 1.02-1.5.83-2.15.7-.46.7-1.3 1.3-1.96.06-.2-.07-.2-.07-.32.72-.32.46-1.36 1.17-1.75.07-.2-.06-.27-.06-.4 1.06-.97 1-2.6 1.45-3.9-.13-.12-.13-.3-.13-.58.6-.66.26-1.7.2-2.48-.2-.07-.4-.07-.58-.13-.85.9-1.04 2.33-1.76 3.5.07 0 .13 0 .13.12zM285.16 39.8c.2-.06.13-.38.26-.5-.78 3.95-2.86 7.13-4.35 10.64-.26.13-.33.45-.52.58-.78 2-2.28 4.16-4.22 5.4-.6.38-1.43.84-2.34.84-2.1.06-3.98-.9-4.96-2.28-.97-2-.97-4.74-.77-6.88 0-.13 0-.26.2-.26-.14-.6.05-1.1.12-1.63.05-.3.2-.7.25-1.02 0-.06-.13-.2-.13-.25 0-.26.2-.52.26-.8.18-1.1.25-2.2.7-3.16.46-2.8 1.3-4.8 1.95-7.4 1.24-.27 2.4.12 3.44.5.25.4.7.73.77 1.18-.13 1.17-.32 2.4-.9 3.77-.27 1.63-1.24 2.67-1.7 4.23-.13.13-.2.32-.38.4-.08.18.3.12.05.25-.2.4-.57.78-.44 1.3-1.1.97-.9 2.8-1.24 4.15-.06 1.5-.45 2.15-.13 3.7.06.2-.14.2-.14.33.46.65.52 1.3 1.1 1.82.4.13.72.32 1.05.5.98.2 1.7-.44 2.4-.83 3.06-2.4 5.07-5.84 6.63-9.74.2 0 .07-.25.26-.18.45-1.3 1.03-2.54 1.8-3.57.2-.6.4-1.17.85-1.43.12 0 0 .26.06.4zm-9.56-15.1c.4.32.72.77 1.05 1.17.07.5-.13.97 0 1.42-.58.5-.84 1.36-1.75 1.55-2.02-.26-2.86-2.98-1.43-4.35.26 0 .32-.2.52-.26.56-.13.9.52 1.6.46zm9.5 15.36M290.93 50.58c.26.78-.4 1.5.13 2.34 0 .13-.06.13-.13.07.07.43.13 1.02-.2 1.4.4.53 0 1.44.27 1.76-.2.58.06 1.3-.4 1.7 0 .05.14.05.2.05-.06 1 0 1.7.07 2.6-.33.2-.07.98-.26 1.18 0 .05.15.05.2.05-.25.65.4 1.04.14 1.56-.06-.2 0-.3-.13-.58-.3.45-.05.65-.3 1.1.2.78-.2 2.47-.53 3.44.32 1.56 0 3.05-.07 4.6.45-.64.12-1.48.58-1.93-.07.84-.07 1.75-.52 2.8.06.57 0 1.22-.07 1.94 0 .12-.15.2-.2.32 0 .05.12.05.12.05 0 .27-.26.6-.33.85-.07.6.26 1.3-.2 1.83.26.58-.46 1.43-.13 1.7-.45 1.87-.26 3.82-.97 5.57-.06.97-.12 1.95-.7 2.6.12.58-.07.9-.4 1.23.07.32-.06.78-.4.9-.12.8-.57 1.57-.96 2.4-.07 0-.13.14-.2.14-.06-.06-.06 0 0 0-1.75 3-6.8 4.35-9.35 2.02 0-.1 0-.15.05-.2-.46-.4-1.24-.73-1.04-1.5-.06-.14-.2-.2-.25-.34 0-.7-.26-1.62-.4-2.34-.12-.7-.12-1.42-.12-2.14l.13-.2c0-.72-.07-1.43-.07-2.2.06-4.82 1.16-9.88 2-14.42.07-.53.4-.98.46-1.5.13-1.43.6-2.66.78-3.83 0-.07-.06-.07-.13-.07.53-2 .66-3.7 1.37-5.52 0-.06-.06-.13-.12-.13.84-2.97 1.23-5.57 2.27-8.7 0-.05-.13-.05-.2-.05.46-1.63.85-3.12 1.24-4.8.06 0 .2 0 .26 0 .45-2.86 1.36-5.33 1.88-8.2.33-.25.46-.3.4-.83.45-1.04.45-2.08 1.1-2.92.2-1.76 1.37-3.38 1.82-5 .2-.07.2-.33.4-.4.3-1.68 1.68-3.1 2-4.6.2.06.13-.13.26-.13.33-1.05 1.24-2.1 1.63-3.32.08 0 .08-.07.2-.07 1.1-2.6 2.8-5 4.1-7.65.4-.26.65-.65.85-1.17.13-.07.2-.13.32-.2.07-.65.65-.84 1.04-1.23.14 0 .2.13.2 0 1.04.52 1.95.9 3 1.3 0 .06 0 .13 0 .2 1.23.32 1.5 1.62 2.6 2.07.12.4.3 1.24.4 1.88 0 .2-.15.27-.2.33.1.27-.2.7.05.85-.26 1.1-.58 2.08-.7 2.92-.53.5-.47 1.75-1.18 2.4 0 .06.06.06.13.06-.4.33-.27 1.04-.73 1.37-.06.2.13.2.07.4-.46.38-.46 1.1-.9 1.48.05.27-.14.27-.08.53-.7.6-.84 1.7-1.62 2.2.32 1.25-1.36 1.77-1.04 2.74-.65.4-.65 1.37-1.36 1.7 0 .64-1.04 1.42-.85 2.07-.73.7-1.38 1.9-2.1 2.67-.4 1.35-1.55 2.46-2.53 3.43 1.24-.06 2.34-.32 3.12-.84 4.86-1.3 8.17-4.3 11.5-7.22.24.07.24.4.44.52-1.9 3.12-5 5-7.73 7.2-1.3.72-2.52 1.5-3.43 2.6-1.37.8-2.47 1.7-4.16 2.1 0 .1.14.1.08.3-.2 0-.34.14-.6.07-.13.33.26.6-.13.78.4 1.1.13 2.48.26 3.84-.12.07 0 .07 0 0zM276.26 82c-.2-.05-.13.14-.2.2.13 0 .2-.06.2-.2zm.52 1.4c-.07.26.06.32.13.45.34-.06.28-.32.4-.7-.25 0-.32.1-.45.2.07 0 .07.05-.06.05zm.32 6.3c.07 0 .13.13.13 0 0-.07-.13-.07-.13 0zm.2-10.98c.2-.07-.07-.45-.13-.2.13 0 .06.13 0 .2.06 0 .06 0 .13 0zm-.07-3.12c.07 0 .13 0 .13-.06-.06 0-.13 0-.13.06zm.26 6.43c.05 0 .05.14.1.14-.05-.2-.05-.52-.25-.58-.13.2-.2.64 0 .77.07-.13-.06-.4.07-.4.06 0 .06 0 .06.07-.2 0 .06.27 0 0zm.43-9.92c-.06 0-.12 0-.2 0-.18.9-.5 2-.44 3.2.4-.85.5-2 .63-3.2zm-.12 9.43c-.12-.27 0-.46 0-.72-.12.07-.26-.2-.32 0 .05.14-.14.46-.2.66.2.13.26 0 .52.06zm.14 8.1c.32-.84-.4-1.48.26-2.07-.58.2 0-.45-.45-.58 0 .13-.2.06-.2.2.27.25-.06.7.14 1.1-.35.26-.28 1.1-.1 1.5.2.06.2-.14.33-.14 0 .2.27-.05 0 0zm-.13-9.2c-.2 0-.32.05-.32.25.12-.07.38 0 .32-.26zm0-1.24c-.06-.08-.06 0 0 0 0 .05 0 .05 0 .12-.06 0-.06 0-.12 0-.08.05-.08.24-.14.3.32.07-.33.66.2.66.06-.33.3-.46.25-.9-.07 0-.2 0-.2-.08.07 0 .07-.06.07-.13.32-.52.32-1.16.32-1.94-.33.2-.27.85-.6 1.05.2.25 0 .5.14.77 0-.06.07-.06.13-.06 0 .05 0 .12 0 .2h-.06zm1.63.22c-.13-.13-.2-.46-.07-.72-.06.26.2 0 0 0 .07-.26.07-.58 0-.78-.2.07-.2-.06-.32-.06-.4.7 0 1.56-.46 2.4.2.32.06.7-.14.97.13.98-.32 1.82-.2 3.05-.32.2-.06.6-.38.8.13-.02.13.18.32.1.4-.38.4-.96.4-1.74.45-1.3.06-2.73.77-3.64 0-.2-.13-.26.07-.38 0 .25.26 0 0 0zm-1.5 7.52c.07 0 .13 0 .13-.06-.06 0-.13 0-.13.07zm.13-7.4c.07 0 .13.13.13 0 0-.06-.14-.06-.14 0zm.27-9.35c-.26.05-.33.63 0 .63.13-.45.13-.7.2-1.17-.07 0-.14 0-.2-.06-.07.14-.13.27-.2.4.07.06.26 0 .2.2zm-.2 2.6c.13 0 .2-.08.2-.2h.06c0-.08 0-.08.05-.08 0-.06 0-.06 0-.13-.12 0-.12.06-.12.2-.07.05-.26 0-.2.2zm.07 3.9c-.12.1-.06.24.07.3.07-.06.07-.3-.06-.3zm.27-1.78c-.06.52-.32.98-.2 1.5.14-.26.33-.46.53-.65-.08-.07-.14-.13-.2-.2.12-.06.12-.2.38-.13-.06-.2.07-.2.07-.32-.26-.07-.26.07-.4.13-.05-.13 0-.26-.2-.33zm.07-1.02c.12-.26.12-.07.05.12.1 0 .1.07.25.07.06-.54.84-.67.5-1.3-.05 0-.12 0-.18 0-.13.37-.26.57-.78.7.05.2-.07.26.12.4zm.26.5c-.14 0-.07-.27-.27-.2 0 .13-.07.65.13.4-.2-.07.2-.07.13-.2zm-.2 1c.06 0 .06-.08.06-.14-.06 0-.06.06-.06.13zm8.44-24.44c-.4.65-.2 1.63-.9 2.15-.08.6-.73.9-.34 1.37-.13 0 .07.33-.2.2-.12 1.3-1.23 2.07-1.42 3.24.06.4-.07.66-.26.9 0-.04-.13-.04-.13 0 .17.2-.1.4-.15.54-.7.07-.33 1.5-1.04 1.37-.25.9-.7 1.9-1.03 2.73-.2.07-.32.26-.52.33 0-.07 0-.07 0-.13.07-.07 0-.07 0 0-.13 0-.2-.07-.2-.13.2-.12.07-.32.27-.5.13 0 .13-.14.26-.2-.08 0-.14-.07-.14-.14.26.07.13-.32.32-.32 0-.85 1.17-1.75.9-2.73 0 .08 0 .08-.05.08.33-.77.07-1.42.4-2 0-.2-.2.2-.2-.07.6-.4.46-1.1.78-1.74-.06 0-.13 0-.13-.07.46-.34-.13-1.3.4-1.77-.27-.32.32-.58 0-1.03-.27.5-.2 1.35-.8 1.6.08.6-.3 1.18-.57 1.63.13 1.37-.78 2.54-.9 4.03-.47.78-.14 1.7-.66 2.34.06.06.06.2.13.32-.13.07-.2.13-.26.13.13 1.1-.78 1.88-.4 2.73-.64.97-.32 1.95-.77 3.05.06.45.13 1.23-.26 1.82 0 .06-.2 0-.2.06-.12.28-.12.74-.2 1.06.27.26-.05.85.14 1.1 0-.45.4-.5.53-.84-.13-.18-.13.2-.2 0 .07-.38.07-.44.33-.7-.07 0-.13 0-.13-.07.58-.58.32-1.75.84-2.14-.06-.2 0-.4-.13-.52 0 .07-.13.07-.2.07-.06.13 0 .5-.25.64.12-.6.12-.85.3-1.37.08 0 .14 0 .2 0 .07-1.1.7-2 .8-2.92.3-.2.5-1.03.57-1.55.26-.26.26-.52.52-.7-.08.3.3-.08.3.12-.05.13-.12.4-.2.5.28-.1.28-.57.6-.76 0 .2-.2.46-.06.6-.58.25-.65.97-.78 1.6-.45.4-1.17 1.44-.7 1.83-.08.72-1 1.36-.6 2.2-.26.2-.32.6-.2.8.07-.08.07-.27.27-.27-.26 1.17-.26 1.82-.9 2.86.44.4-.14.98 0 1.44.18.06.05-.26.3-.2-.64.84-1.1 1.95-.7 3.05-.2.13-.46.4-.2.65-.32 0-.2.52-.38.65.9-.14.38-1.5 1.16-1.44-.05-.26.08-.84.34-1.04.2.6-.26 1.1-.33 1.63 0-.07-.05-.07-.12-.07.32.46.2 1.04 0 1.62.2 0 .12.26.32.26.06.2-.33.27-.13.4.18.45-.08 1.42-.08 2.07-.4.07-.33.85-.14 1.1-.07.53-.14 1.44-.4 1.9.07.44.13 1.48-.06 1.68.2.4.06.86 0 1.1-.13.1 0 .1 0 0 .06 0 .06 0 .06.1 0 .05-.2 0-.2.12.2.27.27.6.2.98-.13 0-.32-.07-.26.13.07.14.26.14.26.34-.06.77.13 1.62.2 2.53-.07.13-.33 0-.26.2.4 0 .06.2.32.38.85-.4 1.04-1.36 1.7-1.95-.2-.13.25-.7.5-.84.34-1.24.92-2.67 1.37-4.17.9-4.28 1.7-7.98 2.53-11.56.13-1.56.58-3.37 1.04-5 .2-.7.2-1.94.33-2.66.07-.4.33-.7.33-1.1.06-1.6.58-3.37.58-5.2.46-1.42.08-3.1.33-4.47-.13-.9-.45-2.4-.45-3.5-.25-.33-.25-.98-.18-1.43-.2-.2-.07-.65-.07-1.1-.26.12-.06-.2-.2-.2-.38.32-.12.9-.2 1.3-.12 0-.05-.2-.25-.13 0 .26-.2.26-.2.52.07 0 .07 0 .14 0-.2.25-.13.44 0 .7zm-8.12 40c0-.06.06-.06.06-.13-.06 0-.06-.06-.2-.06 0 .06 0 .13 0 .2.08 0 .08 0 .14 0zm.26-.44c.06 0 .13 0 .13-.07-.05 0-.1 0-.1.07zm0 1.04c.06 0 .13 0 .13-.07-.05 0-.1 0-.1.05zm.06-10.78c.07 0 .13 0 .13-.07-.06 0-.13 0-.13.1zm.6-3.38c-.2.13.07.52.2.26-.13 0-.06-.26-.2-.26zm.12-9.54c.06 0 .06 0 .06.06-.06 0-.06 0-.06-.06zm.32 4.67c.13 0 .2-.13.33 0-.2.26-.24.72-.44.9-.26-.25.46-.64.13-.9zm.13 22.8c0-.07 0-.07 0-.13-.04 0-.04 0-.1 0 0 .06 0 .06 0 .13.06 0 .06 0 .12 0zm.35-21.95c0 .7-.26 1.17-.4 1.88-.12-.26-.06-1.1.27-1.5-.06-.06 0-.25-.2-.2.08-.25.27-.38.4-.57.26 0-.06.3-.06.37zm.06-4.16c0 .13-.05 0-.12 0 0-.06.13-.06.13 0zm.14-.2c0 .07-.06.07-.13.07 0-.08.08-.08.14-.08zm0-2.14c.07 0 .13 0 .13-.06-.06 0-.13 0-.13.06zm.2-3.88c-.08 0-.08-.14 0-.14 0 .06 0 .06 0 .13zm.05-.34c0 .07 0 .2-.08.2 0-.07 0-.2.06-.2zm.2 3.7c0 .13 0 .26-.15.26 0-.13-.07-.32.13-.26zm1.73.4c-.26.38-.26 1.03-.78 1.16.26.26-.13.78.33.9-.4.66-.6 1.9-1.25 2.03.13-.46.46-1.1.4-1.56.45-.35.25-1.06.45-1.5.32-.2.58-.86.58-1.2.07-.2.26.08.26.14zm-1.15-2.4c0-.08 0-.15.06-.2-.2 0-.33 0-.33.12.1 0 .15.05.28.05zm-.02 5.5c-.06-.06-.06 0 0 0 .07.13.07 0 0 0zm.2-3.16c-.25.18-.2-.47-.06-.73.45.07-.06.65.07.72zm.2-1.06c.13 0 .07.13 0 .2h-.06c0-.07 0-.14.06-.2zm0-5.78c0-.07 0-.2.07-.2 0 .07 0 .2-.07.2zm.52 2.66c-.2.07-.2-.45-.26-.06-.07-.26.2-.78.46-.9-.2.3-.13.57-.2.96zm-.13 5.98c0 .07-.06.07-.13.07 0-.06.06-.06.13-.06zm1.05-6.86c.05.9-.47 1.55-.53 2.33-.26 0-.07-.13-.2-.26.46-.96.2-1.94.78-2.72.26.13.13.46-.06.66zm.26-4.75c-.07 0-.07-.07-.2-.07-.07.06-.13.4.06.4 0-.14.13-.2.13-.34zm.44 1.75c-.13.2-.32.58-.13.84-.25.2-.25.64-.38.96-.4-.84 0-1.3.3-2.14.2 0 .13.2.2.34zm2.85-10.27l.2.06c.14-.13-.2-.2-.2-.06zm1.12 17.8c.07 0 .13 0 .13-.08-.07 0-.14 0-.14.07zm0 .5c.33.58-.13 1.17.13 1.7.25-.73.12-1.3.38-2.03-.2.07-.06-.2-.26-.2 0 .27-.13.33 0 .53-.06 0-.26-.14-.26 0zm.14-.98c0 .08-.12.14 0 .2 0-.06.14-.12 0-.2zm.9-2.26c-.12 0-.24 0-.24.07.12 0-.13.34.06.34.07-.13.14-.26.2-.4zm.65-.84c-.13 0-.26 0-.26.13.05.13.24.06.24-.13zm-.2-.13c.14-.07.14-.26.27-.13-.26-.2.2-.33-.2-.4 0 .2-.13.27-.06.53-.13.06 0 .06 0 0zm.8 4.35c-.07 0-.07 0-.07-.07-.06 0-.06 0-.06.07-.12-.6.2-1.1.2-1.82.46.7-.06 1.04-.06 1.82zm.06-1.82c-.25-.4 0-1.17.14-1.7.26.6-.26 1.38-.13 1.7zm.6-34.48c.05 0 .12 0 .12-.06-.07 0-.13 0-.13.06zm6.42-13.5c-.4.9-.85 1.36-1.37 2-.13.92-.65 1.5-1.04 2.15.2 0-.04.13 0 .26-.3.2-.3.78-.7.9.07.33-.4.8-.32 1.05-.06 0-.13 0-.2 0 .2.52-.7 1.3-.58 2.08-.13.06-.2.2-.4.2.14.2-.06.38.07.57-.33.13-.45.4-.4.72-.3.06-.18.52-.44.65-.07.84-.78 1.7-.9 2.53.18 0-.2.26.12.2.26-.52.9-.98.84-1.56.3.06.24-.26.37-.4-.13 0-.26 0-.26-.06.27.1.2-.1.4-.1.85-1.1 1.37-2.6 2.27-3.7 0-.4.33-.46.33-.85.98-1.3 1.24-3.12 2.15-4.35 0-.4.2-.6.33-.92-.13 0 .06-.26 0-.46.13-.06.13-.32.26-.4-.13-.3.06-.38.06-.7 0-.07-.06-.07-.13-.07-.13.13-.26.2-.45.26zm11.25 34.3c-.3-.02-.56-.02-.87-.1-.77-.4-1.36-.96-2-1.5-.53-.82-1.18-1.67-1.24-2.77 1.68-.85 2.8-2.34 4.4-3.3.4-.66 1.05-1.05 1.38-1.7.45-.07.4-.52.9-.52.13-.52.65-.65.85-1.1.5-.27.95-.6 1.2-1.1 2.55-2.1 4.8-4.36 6.64-7.22.2-.43-.13-.62 0-.95-.33-.07-.26-.4-.33-.7-.4-.73-1.22-1.05-2-1.57-.4-.2-.6-.6-.85-.72-.13-.06-.13.13-.32.07-.2-.07-.2-.26-.33-.26-2.9-.52-5.57.45-7.4 1.56-3.3 2.53-5.83 5.84-7.97 9.54-.13.6-.33.98-.6 1.36-.38 1.9-.77 3.7-.64 6.04.24 1.3.7 2.47 1.1 3.5.63.85 1.35 1.63 2 2.48 1.17.77 2.27 1.36 3.63 1.75.07-.08.2.05.26-.14.12.13.4.2.6.32.04-.26.37-.13.43-.13.33.04.63.02.92.02-.4-1.05-.25-2.04.2-2.84zm.63-17.04c2.27-1.62 5-4.08 8.37-3.63.26.26.33.65.4 1.1-.07.26-.33.4-.27.78-2 2.8-4.6 5.33-7.6 6.9-.38.38-1.03.57-1.36 1.02-1.56.72-3 1.63-4.35 2.47.24-3.83 2.84-5.97 4.8-8.64zM362.16 39.8c.2-.06.13-.38.26-.5-.78 3.95-2.86 7.13-4.35 10.64-.26.13-.32.45-.52.58-.78 2-2.27 4.16-4.22 5.4-.6.38-1.43.84-2.34.84-2.1.06-3.98-.9-4.95-2.28-.98-2-.98-4.74-.78-6.88 0-.13 0-.26.2-.26-.14-.6.06-1.1.12-1.63.06-.3.2-.7.25-1.02 0-.06-.13-.2-.13-.25 0-.26.2-.52.26-.8.2-1.1.25-2.2.7-3.16.46-2.8 1.3-4.8 1.96-7.4 1.23-.27 2.4.12 3.44.5.26.4.7.73.78 1.18-.13 1.17-.33 2.4-.9 3.77-.27 1.63-1.25 2.67-1.7 4.23-.13.13-.2.32-.4.4-.06.18.33.12.07.25-.2.4-.58.78-.45 1.3-1.1.97-.9 2.8-1.23 4.15-.07 1.5-.46 2.15-.13 3.7.06.2-.13.2-.13.33.45.65.5 1.3 1.1 1.82.4.13.7.32 1.04.5.97.2 1.7-.44 2.4-.83 3.05-2.4 5.07-5.84 6.63-9.74.2 0 .06-.25.26-.18.45-1.3 1.04-2.54 1.8-3.57.2-.6.4-1.17.86-1.43.12 0 0 .26.05.4zm-9.56-15.1c.4.32.73.77 1.05 1.17.07.5-.13.97 0 1.42-.58.5-.84 1.36-1.75 1.55-2-.26-2.86-2.98-1.43-4.35.26 0 .33-.2.52-.26.57-.13.9.52 1.6.46zm9.5 15.36M371.12 62.4c-.07 0-.07 0-.13 0-.15-1.36-.48-3.1-.4-4.8-.4-1.43-.53-3.12-.73-4.35-.54-.85-.58-2.2-.8-3.43-.67-.52-1.15-1.3-1.18-2.4 0-.3 0-.6.02-.9-.38-1.37-.6-2.9-1.36-3.93.13 0 .2-.14.4-.08-.07-.45-.33-.78-.53-1.23-.06-.86-.58-1.83-.84-2.54.12-.13-.08-.26.05-.46-.65-1.48-.45-3.23-.7-4.66.05-.07.12-.2.25-.27-.12-.06-.25-.13-.2-.32.47-1.36 1-2.86 1.5-4.16.8-.4.8-1.57 1.63-1.83.2-.65.65-1.04 1.04-1.5.2 0 .2-.06.45-.13.13.07.2.27.27.4 0 2.72-1.13 4.4-1.7 6.75.2.05.3.4.2.57.37-.06.63.33.96.52.45 0 .7.4.9.45.07 0 .07 0 .07.06.45-.05 1.1 0 1.56.14.96-.13 2.07-.78 2-1.95.45-.33.26-1.24.97-1.44.27-.5.13-1.3.65-1.55.2-.97.07-1.7 0-2.85-1.16-3-5-4.03-8.1-4.68-1.05.4-1.83 1.04-2.74 1.56-1.76 2.08-3.58 4.8-3.84 7.73-.2.13-.26.4-.4.58-.25 2.15-.32 4.36-.2 6.5.2 3.05 1.64 5.45 2.3 7.72 0 .13-.08.13-.08.2.4.78.65 1.82.85 2.73.27.37.33 1.1.53 1.54-.26.2-.13.6-.07.9-2.27 2.03-3.96 4.3-6.17 6.3-.26.66-.7 1.18-1.23 1.57-.07.4-.2.66-.52.7-.4.93-.78 1.78-1.5 2.36-.2.85-.58 1.5-1.03 2.14-1.17 2.87-2.73 6.77-2.34 10.4.12 1.04.64 2.2 1.3 3 .12.2.44.25.5.38.14.2.33.52.72.52.13.2.07.2.2.4.9.12 1.16.57 1.88 1.03 1.82.13 2.66 1.1 4.4 1.1.14-.13.34-.2.47-.26.97.2 1.62-.13 2.34-.4.7.2 1.03-.5 1.75-.5.9-.65 2-1.44 2.92-2.34-.06-.26 0-.2.07-.46.65-.32.97-1.23 1.3-2.14.25-.07.2-.45.5-.45.08-.2-.18-.13-.12-.33.46-.52.4-1.43.9-2.14.4-2 .86-4.72 1.05-6.6-.2-1.05-.2-2.1-.06-3.2zm-6.56 11.5c-.33.58-.78.97-1.04 1.55-1.82.98-2.8 3.45-5.65 2.92-.13.13-.26.2-.52.13-2.14-.45-3.83-1.62-4.1-3.76 0-.78.08-1.7.14-2.73.5-1.8.83-3.6 1.67-5.3.13-.9.6-1.36.72-2.02-.2-.13-.34.72-.6.53.13-.2.13-.52.32-.7-.12-.66.46-1.05.6-1.7 1.3-2.14 2.98-3.9 4.53-5.78 1.5-.9 2.4-2.45 3.9-3.36-.06.26-.32.26-.4.52.2-.07.34-.13.4-.33.07.72.4 1.17.26 1.82.66 3.18 1 6.43.9 9.74-.05 2.86-.76 5.4-1.15 8.5zm-1.88-18.3c0-.1.06-.16.2-.16 0 .07-.2.27-.2.13zm.2-.15c0-.06.06-.13.12-.13 0 .07 0 .13-.13.13zm.12-.13c.13-.26.32-.38.52-.5-.13.24-.26.44-.52.5zm.52-.52c.13-.32.33-.5.65-.64-.2.26-.4.52-.65.65zm52.04-1.5c-.1.05-.14.1-.22.14-1.04-.13-1.17-1.1-1.76-1.62.26-.4-.13-.65-.2-1.04-.12-.84.6-1.82.66-2.73.06-.26-.07-.32-.13-.45.34-.33.34-1.1.6-1.5-.06-1.16.65-1.88.5-3.1.35-.34.6-1.1.4-1.9.14 0 .14-.06.27-.06.06-.84.26-1.23.65-1.88.4-1.37.72-3.25.92-4.8-.13-.92.45-2.86-.07-3.84 0-.26.07-.26 0-.45-.13-.2-.2.2-.32 0-.13-.6-.7-.65-1.04-1.04-.26-.07-.07.32-.32.26-.13-.15-.33-.28-.52-.35-.07-.32.26-.32.32-.58-.32-.07-.7-.2-1.1-.13-.07-.2.2-.13.13-.33-.32 0-.5-.2-.7-.12-.33-.9-2-.4-2.4-1.57-.4 0-.46.14-.72.14 0 .4 0 .78-.2.9.33.47.33 1.25.52 1.83-.34 2.33-.92 4.67-1.37 7.14-.33.98-.6 2.4-.72 3.83 0 .13-.17.07-.1.27-.07.97-.4 1.62-.46 2.46-.4 1.3-1.24 2.2-1.7 3.5-.97 1.1-2.07 2.08-2.78 3.38-.6.45-1.17 1.23-1.76 1.43-.33.6-.98.85-1.37 1.3-.13 0-.13.07-.2.07h-.65c-.2.4-.7.45-1.1.58-.4-.13-.32-.64-.58-.84 0-.32-.07-.5-.2-.77-.13-1.22.26-1.5.26-2.4.4-1.1 1.04-2.33 1.3-3.43.78-.53.72-1.7 1.37-2.48-.07-.8.52-.9.45-1.7.13-.07.2-.33.4-.33.06-.77.25-1.68.9-2.07-.13 0-.2 0-.2-.13.13-.33.4-.52.46-.98.4-.33.7-.78.9-1.3 1.63-1.9 3.58-3.5 5.53-5.07.4-.06.7-.26 1.04-.45.08-.5.28-.9.28-1.42-.2-.13-.26-.46-.4-.7-.58 0-.84-.54-1.5-.47-1.03.6-1.8 1.43-2.65 2.14-.13.4-.32.72-.7.85v.24c-.47.33-.8.8-1 1.3-2.4 3.12-4.53 6.43-6.1 10.4-.3.9-.5 1.75-.9 2.4 0 .65-.45 1.23-.32 1.82h-.2c-.96 3.18 0 7 2.94 7.4.25-.13.32-.13.58 0 2.67-1.04 4.62-2.66 6.24-4.87.13 0 .07.2.2.2.32-.47.65-.86 1.17-1.06.07 1.1.6 1.82.92 2.67.26-.12.13.07.32.07 0 .13-.2.07-.13.26.6 1.1 1.5 1.82 2.28 2.66 1.04.32 1.95.64 3.12.77.52-.2 1.1-.32 1.82-.32.1-.08.23-.18.34-.26-.53-.5-.88-1.1-.9-1.9zm66.72-18.88c0 .2-.26.14-.26.33 0 .07.13.07.2.07-.07.14-.2.14-.33.14-.1-.07-.1 0 0 0 0 .06 0 .2 0 .26-.54.32-.54.84-1.2 1.1 0 .4-.5.26-.45.7-.26.08-.4.28-.7.28 0 .12.06.12.06.25-.5.26-.9.85-1.3 1.37-.06-.07-.06 0 0 0-.12.32-.5.06-.5.52-.85 0-.98 1.1-1.7 1.3-.06.13-.2.2-.13.38-.2.07-.32.13-.52.13-.26.4-.65.72-1.17.85-.07.06-.07.32-.14.4-.9.64-1.8 1.22-2.6 1.94-.9 0-1.16.77-1.8 1.04 0 .38-.2.5-.14.9-.2.07-.2-.12-.4-.06.53.58-.38.97-.2 1.56-.05 0-.1.06-.24.06 0 .2 0 .4 0 .6-.33.44-.53 1.1-.98 1.42-.2.7-.52 1.8-1.04 2.4 0 .2.07.2.26.2-.78.38-.65.97-1.3 1.55.2.13-.06.5.07.6.25 0-.08-.6.25-.53 0 .2 0 .32 0 .52-.26 0-.33.25-.46.12-.14.98-.65 2.15-1.37 2.73.06.46-.14.65-.33.85-.06.2.07.2.07.32-.45.9-1.1 2.02-2 2.67 0 .12 0 .2 0 .3-.66-.06-.73.45-.92.78-1.43.58-2.73 1.3-4.16 1.43-.6-.25-1.57-.12-1.83-.7-.64.06-.77-.33-1.3-.33-.12-.33-.06-.98-.38-1.1.18-.13 0-.26.12-.53-.52-.9.26-1.88.26-2.85.13 0 .13-.08.25-.08.13-.9.33-1.8.9-2.32-.05-.46.34-.6.4-1.17.33-.06.27-.5.6-.58.64-1.75 2.07-2.73 2.98-4.22 2.15-2.14 4.5-3.96 7.02-5.7.58.05.65-.4 1.1-.47.52-2 .72-4.6.33-6.8 0-.15.07-.15.14-.2-.26-.4-.13-.98-.26-1.5-.4-1.76-1.63-3.9-3-3.96-.12 0-.57.2-.83.2-.08 0-.2-.14-.2-.14-.72.2-.98.78-1.76.97-.73.78-1.9 1.04-2.28 2.08-.4.14-.78.27-.78.73-.66.06-.66.9-1.18 1.1.13.7-.85.78-.78 1.62-.13.07-.2.07-.26 0 .06.2 0 .2 0 .46-.85.9-1.24 2.1-2.08 3.1.13.4-.4.55-.13.8-.25.2-.5.4-.44.9-.65 1.18-1.17 2.16-1.37 3.78-.2 0-.07.26-.27.26-.14.8.06 1.05-.27 1.5-.13 2.4-1.1 4.94-1.82 6.95 0 .44.08.96-.25 1.1.4.45 0 .9 0 1.23-.65 0-.78.7-1.37.5-.14 0 0 .33-.07.46-.46.06-1.3.12-1.76-.14-.13 0-.32-.07-.26.13-.57-.33-1.42-.4-2.07-.66-.06-.18-.2-.38-.06-.64.07-.26-.25-.13-.25-.4 0-.18.2-.18.33-.25.07-1.02.65-1.74.6-2.7.25-.66.12-1.5.44-2.22.65-6.37 1.76-11.62 2.86-17.47.32-.64.26-1.68.4-2.6.44-1.3.12-2.13.64-3.1.06-1.7.58-2.54.58-4.16.26-.26.13-.84.33-1.17.13-1.82.7-3.63.78-5.4.98-3.82 1.5-7.97 2.54-12.06.18.07.12-.12.25-.12-.08-.26-.14-.52-.2-.8 1.36-.5 2.65.28 3.9.6.96.52 1.6 1.88 1.03 3 0 .38.18.83.18 1.22 0 .2-.2.33-.25.52 0 .12.07.4.07.5-.08 1.18-.47 1.83-.4 2.6-.52 1.9-.6 4.16-1.3 6.05 0 .13.06.2.13.26-.45.53-.26 1.83-.85 2.2.2.27-.13.53.07.73-1.5 3.38-1.7 8.12-2.53 12.14 1.5-1.62 3.18-3.63 5.4-4.8.5-.6 1.48-.65 2.07-1.17 1.5-.4 3.63-.9 5 .13 1.16.06 1.68.7 2.53 1.04-.07.45.32.06.26.52.7.12.9.7 1.15 1.3.66.57.85 1.54 1.37 2.2.14.77.2 1.36.33 2 0 .5-.13.9.13 1.17-.32.98-.4 1.3-.32 2.08-.4.2-.26.9-.26 1.43-.13.2-.4.53-.2.92 1.17-.6 2.08-1.56 3.2-1.95.12 0 0-.32.12-.4 1.04-.12 1.42-1.1 2.46-1.35.07-.33.6-.26.6-.72.96-.32 1.68-1.42 2.78-1.8-.07.05-.07.25 0 .3.13-.05 0-.44.32-.3-.2-.6.66-.53.98-.73.4-.2.58-.32 1.04-.45zM466.24 47c0-.06-.07-.06-.13-.06-1.4.84-2.9 1.62-3.87 2.92-1.96 1.37-2.8 3.9-4.36 5.65-.06.97-.7 1.82-.9 2.73.26.9-.98 1.5-.27 2.27-.07.26 0 .4.12.58.65-.3 1.63-.57 1.9-1.03.18-.13.3-.26.57-.32.2-.32.44-.58.7-.7.06-.28.2-.53.5-.53 1-1.3 1.83-2.72 2.87-3.95.33-1.3 1.43-2.47 1.56-3.97.2.07.2-.13.32-.13 0-.2 0-.38-.06-.45.64-.78.5-2 1.03-3zm-4.8 11.24c0-.07 0-.07 0-.13-.07 0-.07 0-.14 0 0 .06 0 .06 0 .13.07 0 .07 0 .13 0zm17.66-21.64c.06 0 .13 0 .13-.06-.07 0-.13 0-.13.06zm1.7-1.23c0-.1 0-.1 0-.15-.08 0-.08 0-.14 0 0 .06 0 .06 0 .13.06 0 .06 0 .13 0zm1.15-1.13c-.4 0-.45.33-.78.4.13-.27.52-.4.72-.6.04 0 .04.14.04.2zm.8-.7M480.07 52.4c-.13.13-.07 0-.26 0 0 .46-.44.72-.05 1.04-.26.52-.32.78-.06 1.37 0 .15-.14.08-.27.08 0 .2.06.2.26.2-.34.32.44.97.25 1.36 0-.07 0-.07-.07-.07 0 .07 0 .07.07.07.26.2.2.65.32.9 1.63-1.23 2.73-2.98 4.1-4.4 1.3-2.2 3.17-3.9 4.15-6.43.6-.5.85-1.3 1.3-1.94.07-.6.33-.9.53-1.37 0-.2.2-.14.26-.26.9-2.4 2.2-4.36 3.1-6.76.08 0 .08-.06.2-.06.33-.9.8-1.62 1.37-2.27-1.17 3.9-2.72 7.6-4.22 10.98-.06.4-.06.8-.4 1.04-.18 1.24-1.16 2.6-1.42 3.7-.4.6-.9 1.1-1.1 1.95-1.17 1.5-2.08 3.24-3.38 4.54.13.13 0 .2 0 .32-.97 1.17-1.62 2.34-2.72 3.45-1.3.6-3.7 1.7-5.2.66.07-.08 0-.08 0 0-2.14-.6-2.98-3.13-3.1-5.14.3-.4.05-1.04.18-1.3.08.13.08 0 0 0 .08-3.9.9-6.76.98-10.6.33-.44.26-.83.4-1.6.32-.33.45-1.37.32-1.76.77-2.6.77-4.74 1.42-7.02-.33-.45.32-1.1.2-1.75.25-.4.2-.84.5-1.1 0-.07-.12-.07-.18-.07.2-.84.32-1.82.7-2.53.08-.26-.12-.2-.18-.33.32-1.03.26-2.4.97-3.18.06-.27-.33-.14-.13-.33.2-.08.13.12.26.12.26-.2.32-.58.52-.84-.4.06-.52.26-.52.64-.58-.5.4-1.94.32-2.4.07-.2.07-.06.26-.06.07-.2-.2-.13-.13-.33.2.08.15-.12.28-.12-.06-.64.26-.96.4-1.5 0-.1-.07 0-.2 0 0-.1.06-.2.2-.2 0-.3 0-.24-.07-.5.27.07.07-.32.33-.26-.13-.44.13-1.28.52-1.68.45-2.72 1.62-6.03 2.73-8.7.06-.45.2-.9.52-1.1.7-2.34 2.32-4.35 3.82-6.17.26-.2.58-.27.65-.6 1.1.07 2.08.4 3.05.14.06 0 .06-.13.06-.2.6.07.98.13 1.37.46 0 .13 0 .2 0 .32 1.95 1.76.4 4.8.32 7.14-.52 1.43-.78 3.12-1.3 4.35.2.47-.32.9 0 1.3-.45.53-.52 1.44-1.16 1.77 0 .06 0 .13.15.13-1.1 1.75-1.9 3.9-3.38 5.26-1.04.84-1.75 2.07-2.86 2.8.08.05.08.18.08.3-.6 1.05-.7 2.35-1.37 3.45.14.2.2.47-.05.6.52.3-.26.7-.07 1.1-.38-.13-.26.33-.5.5.24.2.05.54.3.8-.3.6-1.03 1.17-.7 2-.33-.12-.2.28-.4.28.2.7-.45 1.42 0 2.14-.38.52-.5 1.56-.78 2.2 0 .2.2.13.2.33-.6 1.44 0 2.74-.72 3.97.32.32-.26.6.06.78.07.2-.2.07-.2.26.14.72-.2 1.9-.32 2.74 0 .13.2.06.2.2-.07.64-.33.9-.2 1.5-.26-.08-.26.18-.52.18 0 .06.07.13.2.13-.07.14-.13.2-.2.33.26.9-.26 1.7-.13 2.6-.06 0-.06.07-.2.07.33.77-.06 1.23-.06 2.2.1 0 .15 0 .15.07.26 0 .26-.25.4-.45h.06c-.06.4 0 .4-.12.65zm-4.74-8.18c0-.06 0-.06 0-.13-.07 0-.07 0-.13 0 0 .05 0 .05 0 .1.06 0 .06 0 .13 0zm0 6.3c.06 0 .06 0 .13 0 .06-.07.06-.13-.07-.2 0 .07 0 .07-.08.07 0 .04 0 .04 0 .1zm.2 9.02c.12-.13-.2-.2-.2-.07.06 0 .06 0 .06.07.05 0 .05 0 .1 0zm2.9-27.8c.14 0 .27 0 .27-.12-.4-.2-.58.32-.52.77.2-.07.07.2.33.12.08-.26-.2-.2-.2-.4.15.08.1-.12.2-.12.34.14.15.6 0 .8.28-.07.28.12.28.38-.13.07 0 .07 0 0 .13-.32.58-.7.32-.84.06 0 .2 0 .25 0-.2.2.07.52-.2.58-.06.2.2.2.2.33-.13.13-.32.2-.32.45.06.07.32-.06.32.07-.2.06-.45.06-.45.32.26.05-.2.44.13.63-.13.07-.13.26-.26.26-.13-.33.06-.85.13-1.18-.13-.06-.52-.12-.33-.4-.13 0-.2 0-.32 0 0 .28.06.2 0 .4-.26 0-.4.07-.4.26.27.2.72-.07.66-.2.08 0 .15.06.15.13-.26.4-1.1.7-.85 1.24-.33.26-.26.98-.4 1.1 0-.12.2 0 .26 0 0-.38.46-.25.4-.7-.14 0-.27 0-.27-.14.2-.26.24-.78.57-.78-.33.4.06 1.37-.52 1.5.13.45-.46.32-.6.58.08.06.14.06.27.06-.13.13-.13.4-.26.52.13.13.13-.06.4 0 .06-.2 0-.2.06-.45-.07 0-.13-.07-.2-.07 0-.13.26 0 .4-.06.12 1.1-.53 2.07-.46 3.05.45-.06.26-.78.78-.78-.13.58-.26 1.1-.46 1.68.2.07.2-.07.32-.07-.07.47-.46 1.18-.85.92-.2.2-.32.4-.2.65-.12 0-.12.07-.25.07.2.2 0 .4.26.58.06-.06 0-.26.13-.26.06.26-.13.26-.07.46.13 0 .33-.26.46-.07-.34 0-.08.26-.14.52-.26-.06-.13.26-.26.32 0-.07-.06-.14-.12-.14-.07.2-.07.27-.26.2-.07.46-.32.97-.26 1.5-.13.12-.26.12-.33.25.33 0 .07.27.2.4.26 0 .26-.26.52-.26-.07.07-.07.13-.07.2-.32.2-.4.65-.58.97.06 0 .2 0 .26 0-.07.07-.13.07-.13.2.26.06.13.32.07.6.12 0 .25 0 .25.05-.2.45 0 .9-.58 1.04-.13.25.2.05.2.2-.14.17-.33.37-.72.3.32.2.06.66.26.85-.37 0-.05.7-.3.97.06.2.25.2.25.4-.26.25-.32.64-.2 1.03.2.07.14-.2.33-.13v.07c.13 0 .07.2.2.2 0-.15-.07-.2-.07-.28.08-.13.28-.13.4-.26.4-.84.33-1.56.46-2.33-.2-.85.26-2.08.13-2.93.12-.05.05-.3.2-.3-.08-1.24.5-2.35.37-3.45.6-.9.33-2.47.85-3.44-.12-.83.33-1.35.14-2.06-.13.13-.4.06-.4.26.07 0 .14 0 .2 0-.2.25-.2.77-.52.9.26-.9.2-1.3.52-2.08.13.06.2-.2.26 0 0 .26-.4.4-.26.58.2.07.13-.26.26-.26 0 .13.07.2.13.2.45-2.14.78-4.22 1.1-6.37-.26.2-.2-.13-.45-.13.07.2 0 .46-.26.46.13-.13.13-.4.2-.65-.33-.07-.46.13-.65.2.05-.27-.08-.4-.34-.33-.06.26.2.4 0 .6.26.05.13-.28.33-.28.05.4.05 1.24-.34.9zm-2.85 27.73c.07 0 .13 0 .13-.06-.04 0-.1 0-.1.07zm.53-14.54c-.05.26-.25.4-.25.77.27 0 .4-.57.27-.77zm.08 6.42c-.2.26 0 .85-.33.98.13-.33 0-.72.2-.9 0-.14-.33-.53.07-.47-.06.2-.12.33.07.4zm-.13 5.46c0-.12-.07-.2-.13-.2 0 .08-.05.08-.05.14.06 0 .06.07.2.07zm0 3.06c0-.07.07-.07.07-.13-.06 0-.06-.07-.2-.07 0 .07 0 .13 0 .2.08 0 .08 0 .14 0zm.07-7.34c-.06 0-.06 0-.12 0 0-.06.13-.06.13 0zm-.12 1.95c.2.26.45.9 0 1.1.06.26.13.2.06.52.33.25.33.7.26 1.1.13 0 .26 0 .4 0 .06-1.3-.72-2.47-.14-3.64-.13-.26-.13-.26-.06-.58-.2-.02-.26.18-.4.25.14.13.14 1.17-.12 1.23zm.2-3.57c0 .08 0 .08-.08.08 0-.07 0-.07.07-.07zm.06-.2c.06 0 .06.08.13.08 0 .06 0 .06 0 .13-.08 0-.14 0-.2 0 0-.05 0-.1.06-.2zm1.23 8.33c-.47-.13-.6-.6-1.05-.65 0 .13-.32-.07-.2.2.52.06.72.5 1.24.45zm-.34 1.3c-.06-.33-.52-.33-.77-.46 0 .13.12.13.05.33.32-.2.32.2.7.13zm-.7-7.8c-.07.13.12.33.12.13-.06 0-.06-.13-.13-.13zm.5 5.4c-.12-.2-.25-.8-.5-.53.3.07.06.46.5.52zm-.38-8.84c.06 0 .06.17 0 .17 0-.06-.06-.12 0-.2zm.32-13.6c-.13.07-.32 0-.32.2.32 0 .7-.4.32-.6 0 .1-.06.1-.13.1-.06.24.2.1.13.3zm-.13 11.5c-.06 0-.13 0-.2 0 0-.06.2-.06.2 0zm-.07-.13c-.08 0-.08-.13-.08-.25.26 0 0 .12.07.25zm.05-1.3c-.2-.06 0-.32.13-.32 0 .2-.13.2-.13.33zm.07-9.86c0 .2-.2.2-.13.46.17.07.3-.52.1-.45zm.06 4.03c-.06 0-.06 0-.13 0 0 .07-.06.07-.06.13.1 0 .17 0 .17-.13zm.13 1.3c0-.13 0-.2-.1-.2 0 .07 0 .07 0 .13.06 0 .06.07.12.07zm0 3.05c0 .06-.04.06-.1.06 0-.07.06-.07.12-.07zm-.1 2v-.06c.06 0 .06.06 0 .06zm.38-1c-.07 0-.07-.15-.07-.2-.2-.08-.05.2-.24.12-.07-.26.2-.2.4-.2 0 .14-.08.2-.08.27zm-.26-5.14c.13.12.2-.2.06-.2 0 .07 0 .07-.06.07 0 .08 0 .08 0 .15zm.32-1.76c-.13.13-.4.46-.26.65.58-.13.32-.9.58-1.23-.06 0-.12-.13-.2-.13-.12.2-.38.2-.38.52.13 0 .2.1.26.17zm-.06-5.4c-.13 0-.2.08-.2.14.13 0 .2-.06.2-.13zm-.07 27.56c0 .18.15.18.35.18 0-.2-.14-.2-.33-.2zm.08-19.62c-.06.2.13.2.33.2 0-.2-.12-.2-.32-.2zm.12-8.12c0 .06 0 .13 0 .2.2.12.2-.27 0-.2zm.2 7.53c0 .13-.2.06-.2.2.14.2.4-.13.2-.2zm.2.72c0 .12 0 .25-.07.32.2.13.32-.4.06-.32zm.32-6.63c-.2 0-.26.06-.33.2.2 0 .3 0 .3-.2zm.2 2.46c0-.25.33-.5.6-.32-.27.13-.14.2-.46.26 0 .07 0 .13 0 .2-.07 0-.14 0-.14-.13zm.26 1.3c-.06 0-.06 0-.13 0 0-.06.13-.06.13 0zm.13-1.94c-.3-.06-.24-.78.2-.65-.12.24-.06.37-.2.63zm.53-7.67c-.06.2.13.27.07.46-.14.26-.72.65-.4.9.13-.18.2-.38.4-.5.05.06.12.12.18.2.07-.08.13-.2.33-.2-.05-.53.2-.72.54-.85 0 .32-.2.45-.33.78.73-.2.53-1.24.73-1.7-.13 0-.13-.06-.26-.06 0 .33-.26.33-.13.65 0-.13-.65-.32-.46-.06-.26.1-.45.24-.65.37zm.26 1.9c0-.07 0-.07 0-.14 0-.13-.27 0-.4-.06 0 .2-.2.13-.2.32.4-.2.07.1.4.1 0-.12 0-.25.2-.25.06.2.32-.06 0 0zm-.2-.35c.12.12.18-.2.05-.2 0 .07 0 .07-.06.07 0 .06 0 .06 0 .12zm.18-1.5c0 .07 0 .07 0 .13-.06 0-.06 0-.13 0 0-.07 0-.07 0-.13.07 0 .07 0 .13 0zm-.06 3.9h-.07c0-.07.07-.07.07 0zm.52-1.95c-.2.06-.4.12-.4.38.2 0 .2.13.46.06 0-.37.32-.96.07-1.22-.26.14-.13.6-.33.6-.13.26.2.06.2.2zm-.26-4.27c0 .07-.07.13-.07.26.28 0 .2-.2.1-.26zm.06.85c.07 0 .07 0 .13 0 0-.06 0-.06.07-.06 0-.1 0-.1 0-.15-.07 0-.07 0-.13 0 0 .06 0 .06-.05.06 0 .08 0 .08 0 .14zm.26.45c-.2 0-.13.13-.26.2.13.13.26 0 .26-.2zm0-1.1c-.06 0-.06.2 0 .2 0-.07.07-.07.13-.07-.13-.2.07-.2.07-.46-.2 0-.33.07-.33.26.07 0 .13 0 .13.07zm.27-1.23c0 .32-.07.52-.27.84.4.08.4-.56.26-.82zM490 5.27c-.46.96-.7 1.94-1.23 3.04 0 .2 0 .35 0 .54-.9 2.2-1.63 4.8-2.4 7.14-.07.2.06.26.06.4-.52.97-.65 2.4-1.04 3.3 1.73-1.68 3.1-3.7 4.46-5.77.72-1.94 1.75-3.9 2.2-5.97.08-.26.08-.26 0-.52.14-.24.27-.63.2-.96.52-.32-.06-1.36.46-1.75 0-1-.32-2.03-1.1-2.4-.52.96-1.17 1.67-1.3 2.84-.2 0-.2.13-.33.13zm7.53 25.13c0 .18-.12.18 0 .3.07 0 .07-.12.07-.24.2-.07.06.2.2.25.52-.17.52.4.84.48-.2.46-.32.58-.13.97-.24.52-.63 1.1-.7 1.95-.06 0-.13-.14-.2-.14-.12 0 .07.2.14.2-.45.78-.58 1.75-1.04 2.6.12.84-.6 1.55-.46 2.4-.07.06-.07.26-.26.26-.26 1.3-.52 2.2-1.1 3.18-.2-.13.12-.33.06-.58-.6.25-.65 1.03-.6 1.62.34-.2.08-.65.53-.78.13.84-.4 1.95-.78 2.47-.15-.33.2-.26.1-.6-.44.08-.2.86-.64.92.6.72-.58 1.95.07 2.66-.07.15-.2.15-.26.2-.07.28.13.34.13.54-.38-.07 0 .65-.38.58-.13 1.12-.26 1.5-.2 2.68 0 .13.07.2.2.2-.2.5.06 1.1.26 1.6.13 0 0-.25.06-.38.13.13.13.4.2.65.78 0 .9-.7 1.5-.9.83-.92 1.74-1.76 2.4-2.86.25-.2.5-.46.64-.85.26-.13.33-.52.65-.65 0-.14.13-.2.07-.4 2-3 3.9-6.1 5.52-9.54.97-1.1 1.42-2.73 2.47-3.77.04-.54.56-.67.56-1.25.97-1.1 1.88-2.28 2.73-3.5.37-.08.44-.4.63-.6.4 0 .52-.25.9-.25.66.07.73.72 1.44.72 0 .26.07.45.4.4-.07.2-.07.45.2.45-.08.45-.08.84-.08 1.42-.07 1.02-.4 2-.53 2.84-.06.4-.4.7-.45 1.1-.33 1.37-.46 2.67-.98 4.16-.06.07-.25.07-.45.07-.14 1.17-.6 2.67-.07 3.7-.07 1.17.06 2.15.45 2.8.3.26.77.52 1.3.45.9-.06 1.6-1.04 2.32-1.82.26-.26.65-.5.85-.7.58-.73.9-1.76 1.43-2.67.32-.6.7-1.1 1.1-1.76.45-1.75 1.3-3.18 2.15-4.6 0 .32 0 .64 0 .97-.26.9-.66 1.7-.85 2.66-1.04 2.27-1.95 4.6-2.92 6.95-.33.32-.6.78-.65 1.36-.64.67-1.16 1.5-1.87 2.1-.26-.06-.46.2-.52-.06-1.75.9-3.5-.53-4.54-1.5-.2-.65-.6-1.17-.72-1.88.2-.78-.13-1.5-.38-2.08 0-1.24-.13-2.2.06-3.64.06-.2.26-.2.32-.4-.13-1.02.53-2.2.13-3.04-.27.12-.27.5-.33.64-.07.07-.2.07-.32.07-1.76 2.8-3.44 5.6-4.8 8.85.38 0 .3-.46.38-.78.65.4-.58 1.17-.32 1.62-.2.12-.25.4-.45.45-.32 1.3-.9 2.27-1.82 2.98-.24 1.04-1.1 1.5-1.4 2.53-1.5.9-2.47 3.12-4.68 2.93-2.66.77-5.26-1.18-5.58-3.84 0-.13 0-.2.13-.2-.2-.45-.2-.84-.13-1.43-.4-1.1 0-1.62-.2-2.4.26-1.17.07-2.47.26-3.64.33-2.15 1.12-4.5 1.63-6.76.2-.78.33-1.5.6-2.14.25-.86.3-1.83.57-2.54.2-.46.4-1.3.72-1.9-.07-.38.13-.57.32-.77 0-.73.2-1 .46-1.5-.07-.27 0-.34-.07-.6.13-.06.26-.12.26-.32 1.02.5 2.06 1.03 3.42 1.3zm-3.37 13.36c0 .13-.13.2-.07.4.24.05.1-.27.05-.4zm.9-1.9c0-.05 0-.05 0-.1-.06-.02-.06-.02-.12-.02 0 .07 0 .07 0 .13.06 0 .06 0 .13 0zm34.74 9.27c-1.1.3-2.33.4-3.83.1-.78-.38-1.36-.97-2-1.5-.53-.83-1.18-1.68-1.25-2.78 1.7-.84 2.8-2.34 4.42-3.3.4-.66 1.04-1.05 1.36-1.7.46-.06.4-.52.9-.52.14-.52.66-.65.86-1.1.52-.27.97-.6 1.23-1.1 2.5-2.08 4.8-4.36 6.6-7.22.2-.43-.12-.62 0-.95-.32-.06-.26-.4-.32-.7-.4-.73-1.24-1.05-2.02-1.57-.4-.2-.6-.6-.84-.72-.13-.06-.13.13-.33.07-.2-.07-.2-.26-.33-.26-2.92-.52-5.58.45-7.4 1.56-3.3 2.53-5.84 5.84-8 9.54-.1.6-.3.98-.57 1.37-.38 1.88-.77 3.7-.64 6.04.26 1.3.72 2.46 1.1 3.5.66.84 1.37 1.62 2.02 2.47 1.17.78 2.27 1.36 3.64 1.75.06-.07.2.06.25-.14.13.13.4.2.6.33.06-.28.38-.15.44-.15.74.06 1.3-.07 1.9.13.46-.27 1.24-.27 1.63-.73.13 0 .13.2.26.2.7-.23 1.34-.5 2-.82-.8-.3-1.4-.97-1.7-1.82zm-2.33-16.85c2.27-1.62 5-4.08 8.37-3.63.26.26.33.65.4 1.1-.07.26-.33.4-.27.78-2 2.8-4.6 5.33-7.6 6.9-.38.38-1.03.57-1.36 1.02-1.54.72-2.97 1.63-4.33 2.47.26-3.83 2.86-5.97 4.8-8.64zM580.37 5.78c-.25.2-.4 1.1 0 1.56-.3.84-.05 1.23-.5 2.2.06.72-.66 1.43-.53 2.15-.06.1-.13.24-.32.24-.07.9-1.04 1.56-.85 2.34-.38.24-.58.7-.58 1.1-.8.57-1 1.74-1.45 2.6-.32.1-.2.38-.32.7-.8.4-.6 1.1-1.1 1.62-.07.2.18.07.12.26-.32-.06-.2.13-.26.27-.07.06-.27.06-.27.06-.2.26-.26.6-.4.9-.57.08-.44.85-.96 1.05-.07.2.2.13.13.32-.64.07-.45.9-.9 1.17 0 .13-.06.26.07.26-.52.92-.46 2.16-.98 2.87.05.52 0 .97-.28 1.23.07.26 0 .4 0 .72-.58 1.04-.4 2.92-1.17 3.83.07 1.1-.45 1.95-.45 3.18-.12.07-.12.26-.25.33.26.45-.46 1.16-.13 1.5-.33.38-.2 1.22-.52 1.55-.07.2.2.15.13.34-.07.07-.13.26-.2.33-.06.2.07.26.07.4-.46 1.22-.52 3.17-.6 3.82-.05.2-.12.05-.3.05.3.72.12 1.5-.14 2.14-.06.26.2.2.2.4-.33.83 0 1.54-.4 2.45 0 .07.14.07.2.07-.45 1.05.2 2.1-.32 2.86.32.4.32 1.17.26 1.5-.07.26.38.65.13 1.17.32.9.38 1.88 1.16 2.6.3-.13.57-.27.83-.4 2.8-2.27 5.06-5.2 6.88-8.44.14-.06.2-.13.34-.2 2.2-4.3 4.6-8.37 6.88-12.6-.07.33-.26.6-.2 1.05-1.3 2.92-2.33 5.78-3.3 8.9-.14.06-.2.2-.27.26.07.6-.2 1.43-.65 1.7-.64 2.53-2.2 4.15-3.3 6.23-.7.78-1.43 1.56-1.95 2.47-1.17 1.1-2 2.45-3.7 3.04-.84.45-1.82.78-2.72.9-2.15.27-3.84-1.23-4.74-2.6 0-.25-.1-.25.04-.38-.06 0-.2 0-.26 0-.47-.9-.53-1.95-.6-2.8-.12-1.23-.5-2.46-.45-3.5.07-.58 0-1.3.07-1.88.06-.46.13-.97.32-1.5-.32-.2.26-.77-.06-.9.06-.2.2-.33.25-.53-.05-.77.14-.97.08-1.5.2-.64.32-1.35.32-2.2.2-1.1.33-1.88.33-2.8.45-1.48.65-3.95 1.3-5.38.26-2 .9-4.02 1.36-5.78-.06-.4-.06-.34-.06-.67.45-.13.2-.9.5-1.16-.05-.13-.05-.27-.12-.33.13-.13.13-.45.33-.52.26-1.3.65-2.92.84-4.1.2-.5.4-1.22.6-1.87.17-.07 0-.26.3-.26-.2-.27.13-.9.4-1.1-.14-1.18.64-1.7.64-2.74.07-.13.2-.26.33-.33-.13-.32.06-.65.26-.84.06-1.18.7-2.2.9-3.26.4-.2.26-1.04.72-1.23 1.1-2.85 3.12-5.06 5.9-6.42.66-.08 1.96-.2 2.1.2.77-.14.96.83.9 1.28.13 0 .2 0 .32 0zm-4.8 4.16c-.5 1.3-.5 2.54-.97 3.9.26.85-.78 2.14-.52 3.05-.32 0-.2.45-.45.5.13.8-.58 1.7-.52 2.55.15-.78 1.06-1.5.86-2.15.72-.46.72-1.3 1.3-1.96.07-.2-.06-.2-.06-.32.7-.32.44-1.36 1.15-1.75.07-.2-.06-.27-.06-.4 1.02-.97.95-2.6 1.4-3.9-.12-.12-.12-.3-.12-.58.57-.66.25-1.7.2-2.48-.2-.07-.4-.07-.6-.13-.84.9-1.04 2.33-1.75 3.5.06 0 .13 0 .13.12zm20.07 29.86c.2-.06.13-.38.26-.5-.78 3.95-2.86 7.13-4.35 10.64-.26.13-.33.45-.52.58-.78 2-2.27 4.16-4.22 5.4-.57.38-1.4.84-2.32.84-2.08.06-3.96-.9-4.93-2.28-.98-2-.98-4.74-.8-6.88 0-.13 0-.26.2-.26-.12-.6.07-1.1.14-1.63.05-.3.2-.7.25-1.02 0-.06-.13-.2-.13-.25 0-.26.2-.52.27-.8.2-1.1.25-2.2.7-3.16.46-2.8 1.3-4.8 1.95-7.4 1.23-.27 2.4.12 3.44.5.25.4.7.73.77 1.18-.13 1.17-.32 2.4-.9 3.77-.27 1.63-1.24 2.67-1.7 4.23-.13.13-.2.32-.4.4-.05.18.34.12.08.25-.2.4-.58.78-.45 1.3-1.1.97-.9 2.8-1.24 4.15-.06 1.5-.45 2.15-.13 3.7.08.2-.12.2-.12.33.47.65.53 1.3 1.1 1.82.4.13.73.32 1.06.5.97.2 1.7-.44 2.4-.83 3.05-2.4 5.07-5.84 6.62-9.74.2 0 .07-.25.26-.18.47-1.3 1.05-2.54 1.83-3.57.2-.6.4-1.17.84-1.43.14 0 0 .26.08.4zm-9.54-15.1c.38.32.7.77 1.03 1.17.07.5-.13.97 0 1.42-.58.5-.84 1.36-1.75 1.55-2-.26-2.86-2.98-1.43-4.35.26 0 .33-.2.52-.26.58-.13.9.52 1.62.46zM600.58 30.84c-.07 0-.07.07 0 .07.12.48-.33.6-.2 1.1-.2.1-.26.28-.52.2 0 .2.06.34.26.4-.26.2-.13.33-.2.7-.2-.04-.2.1-.32.1 0 .2 0 .25.2.25-.14.2-.27.52-.14.78-.06 0-.13 0-.2-.07.14.78-.7 1.76-.5 2.47-.14 0-.08-.2-.27-.13.1.18.24.3.24.58-.13 0-.07.2-.26.12.05.26 0 .4.05.72-.13 0-.2 0-.32 0 0 .13 0 .26 0 .4.2 0 .27-.14.2-.34.07.07.14.13.27.13-.2.48-.53.4-.66.93 0 .07.07.07.07-.06.07 0 .07.06.13.06 0 .07 0 .2.07.2 0 .13-.13.06-.26.06-.12.12-.12.32-.12.5.53-.57 1.1-1.1 1.44-1.87.06 0 .06.07.13.07.52-1.25 1.7-2.16 2.14-3.26.06 0 .13 0 .2 0 .2-.33.45-.6.77-.85.46-1.1 1.63-1.5 2.2-2.4 1.12-.67 2.16-1.7 3.4-1.97.18.07.12-.13.25-.13 1.36-.57 2.8-.05 4.1.53.44.65 1.35.85 1.42 1.82.2.07.26.2.4.33.1 1.62-.08 3.63-.34 4.93-.05 0-.12 0-.18 0 .13 1.2-.13 2.36-.4 3.46.2.33-.2.9-.12 1.5 0 .06 0 .12-.13.12-.2 1.7-.2 3.58-.4 5.2.27 1.24.14 2.86 1.05 3.44.4.08.4 0 .7.08 1.5-.46 2.1-1.76 3.2-2.6 0-.4.32-.46.38-.78.98-.65 1.5-1.75 2.08-2.8 1.04-.83 1.36-2.33 2.27-3.3.13-.72.72-1.1.85-1.9.2.27-.13.8 0 1.12-1.17 2.6-2.27 5.2-3.64 7.53.13.4-.2.4-.13.78-.13 0-.13-.07-.26-.07-.26 1.7-1.56 2.28-2.4 3.57-.13 0-.2 0-.33 0-.06.13-.06.33-.12.46-.72.4-1.7.9-2.67.58-.06 0-.13 0-.13.13-1.88-.25-3.44-1.67-3.57-3.7-.32-.64-.26-.83-.2-1.74-.06-.2-.2.13-.25-.07.06-.07.06-.2.26-.2-.13-.2-.07-.65-.26-.78.06-1.68-.2-3.1.4-4.67-.27-1.56 1.1-4.15.77-6.04.06-.6.58-2.4-.2-3.1.07-.34-.26-.73-.52-.9-1.03.04-1.94.7-2.66 1.15-.54.32-1 .52-1.25 1.04-.52.05-.6.63-.9.9-.08 0-.08-.07-.08-.14.07-.06 0-.06 0 0-.06 0-.2 0-.26 0-.05-.2.08-.25.14-.38-.5.13-1.1.5-.9.97-.2 0-.4-.07-.4.13 0 .26.2.2.33.13-.07.2-.4.27-.52.2-.07.26 0 .2-.07.4-.53-.27-.72.6-.4.64-.26.2-.26.65-.64.72.06.26.12.45-.07.58-.6.13-.66 1.36-1.24 1.5-.6 1.03-.98 1.94-1.63 2.92 0 .2.07.32.13.52-.2.2-.07.7-.33.84.07.4-.2.86-.5 1.05-.34 1.3-.6 2.6-1.12 3.63 0 .85-.5 1.43-.57 2.15-.06 0-.06.06 0 .06-.12.5-.25 1.04-.32 1.63-.06 0-.12 0-.2-.07.14.4-.18.52.14.78-.4.33-.07.98-.46 1.3 0 .13.07.13.13.2-.06 1.03-.5 1.88-.26 3.1-.32.6.46 1.37-.5 1.7-.08-.07-.2-.07-.27-.2-.2.07-.07.27-.13.6-.46.12-.78 0-.98 0-.06.2.13.2 0 .3-.9-.05-1.5.27-2.4.14 0-.06.07-.13 0-.2-.13 0-.07.2-.2.14v-.06h.07c0-.06-.07-.06-.07 0-.06 0-.06.13-.13.2-.2.06-.26-.4-.4-.07-.05 0-.05-.07-.05-.14.05 0 .05-.06.05-.12-.06-.13-.38-.07-.45 0 0 .06.07.12.2.12 0 .26-.33-.06-.46.13.07-.2 0-.53-.32-.46.06-.13.06-.6-.13-.65.05-.7.5-2 .44-2.74-.05-.2.14-.13.2-.2-.5-.64.6-1.36 0-1.94.33-.72 0-1.36.46-1.88-.27-.26.06-.52 0-.98.12.07.25-.06.38.13.07.2 0 .32-.13.4.4 0 .34-.54.2-.8.4.07.27-.64.14-.77.32-.52.26-1.3.5-2-.18-.14-.18-.2-.18-.4.07 0 .07 0 .07-.06-.07 0-.07 0-.07.06-.06 0-.13 0-.2 0 .2.13.14.58-.12.72 0-.07-.07-.07-.07 0-.12-.2.14-.26-.05-.46.06 0 .13.06.2 0-.07-.33.12-.85 0-1.05.06-.32.38-.32.32-.7-.07-.2-.13.18-.26 0 .14-.4.52-.72.46-.98-.07-.07-.07 0 0 0 0 .13-.13.06-.2 0 .2-.2.6-.2.65-.6-.2-.18-.26.33-.5.27.24-.3 0-.77.44-.83 0-.12 0-.25-.13-.25.07-.12.14-.2.33-.2-.26-.05.07-.3-.26-.38.6-.45.26-.9.72-1.56-.2-.2-.14.2-.34.14.13-.53.2-.85.26-1.3 0-.14-.2 0-.13.12-.2-.2.06-.45 0-.77.2-.08.25-.27.45-.34.06.13.06 0 0 0-.2-.13.2-.7-.13-.58 0-.07 0-.07-.07-.07.07-.3.33-.44.33-.9.25-.32.18-.6.38-.97 0 .05.06.12.2.12.2-.07.12-.33.12-.6-.2 0-.2.34-.26.47h-.06c0-.08-.13-.14-.13-.2.06-.07 0-.07 0 0-.13 0-.07.2-.13.2-.07-.08-.07-.2-.07-.4.07 0 .13 0 .2 0-.07-.4-.13-.85.32-.98-.06-.13.13-.45-.13-.38.2-.46 0-.72.2-.98.13 0 .06-.2.2-.2 0-.06-.14-.06-.2-.06.2-.2.45-.4.4-.84-.14 0-.14.06-.14.2-.13-.46.32-.98.45-1.44.07-.26-.13-.26-.13-.45.4-1.5.85-3.4 1.1-4.88 0-.2-.2-.2-.32-.33.07-.2.2-.4.07-.66.4-.2.65-.52 1.03-.7.4.25.8.12 1.1-.14.4.13.8.4.98 0 .2 0 .33.07.4.2.84 0 1.94.45 2.13 1.1-.3 1.56-.64 2.6-1.03 3.83v-.06zm-9.27 30c-.07 0-.13 0-.2 0 0-.06.2-.06.2 0zm-.1-7.94c.07 0 .13 0 .13-.06-.06 0-.13 0-.13.06zm.53-1.34c-.2.06-.32.2-.32.4-.25-.34.27-.34.14-.73.2 0 .2.13.2.33zm-.13 9.1c.14.12.2-.2.08-.2 0 .06 0 .06-.07.06 0 .07 0 .07 0 .13zm.27-11.24c0 .12.07.32-.13.26 0-.13.07-.13.07-.26h.08zm.4-1.44c-.06.2-.13.33-.2.53.14 0 .27 0 .33.08.06-.26.2-.45.2-.78-.2 0-.2.2-.34.2-.06-.08-.06 0 0 0zm.13-.2c.12-.12.06-.44.32-.44-.13-.46.06-.4.12-.78-.12 0-.12.13-.32.07-.13.45-.32.7-.13 1.16zm.06-.57c.13 0 .2-.05.2-.1-.14 0-.2.05-.2.12zm.96-7.14c0-.05.07-.1.2-.1 0 .1-.07.1-.2.1zm.26 1.05c-.27 0-.2.27-.07.34-.06-.2.07-.2.07-.33zm0-2.08c0-.06 0-.2 0-.25.18-.07.12.12.18.2-.06 0-.06.05-.2.05zm.38.92c-.07 0-.13 0-.2-.07 0 .07-.06.13-.06.26.2 0 .26 0 .26-.2zm-.2-1.3c-.12-.13 0-.46.07-.65h.06c.07.3-.13.37-.13.63zm.6-.07c-.07 0-.07-.13-.14-.13 0 .07-.06.07-.13.07-.07.2.26.28.26.08zm-.2-1.37c.2-.06.13.14.13.27.2 0 .26 0 .26-.2-.27 0 0-.06-.13-.2-.13 0-.2.07-.27.07-.06-.06-.06 0 0 0v.07zm.73-1.88c-.1.13-.2.2-.15.4.2.06.26-.33.13-.4zm.43 24.23c-.06 0-.06 0-.13 0 0 .06-.05.06-.05.12.13 0 .2 0 .2-.12zm.26.2c-.07-.08-.07 0 0 0-.07.3.2.05 0 0zm1.62-8.32c.06 0 .06.06 0 .06v-.08zm1.3-13.43c0-.14 0-.34-.12-.34-.13.13 0 .26.12.33.07.1.07 0 0 0zm3.95.9v-.07c-.08 0-.08.07 0 .07zm2.13-2.42c-.2-.14.13-.26.13-.46.2.13-.07.32-.13.45zm.2-.6c0-.05.13-.05.13-.12.2.06-.07.26-.13.13zm2.74-2.46c.25.07 0-.2 0 0-.14.07 0 .07 0 0zm34.56 9.18c.2-.13.2-.46.45-.46.26.13-.52.46-.26.78-.47.2-.67.72-.8 1.24-1.37 1.3-2.4 2.92-3.83 4.15-1.95 2.5-4.8 4.44-8 5.48-.12 0-.12-.2-.25-.2-.4.45-1.17.45-1.62.72-.58-.2-1.16-.08-1.88-.14-.06 0-.38-.13-.45.13-.2-.15-.45-.2-.58-.35-.1.2-.2.07-.28.13-1.37-.4-2.47-.98-3.64-1.76-.66-.85-1.37-1.63-2.02-2.47-.4-1.04-.85-2.2-1.1-3.5-.14-2.34.25-4.16.64-6.05.26-.38.46-.77.6-1.36 2.13-3.7 4.66-7 7.97-9.54 1.8-1.1 4.47-2.08 7.4-1.56.13 0 .13.2.32.26.2.06.2-.13.3-.07.27.13.47.52.86.72.77.52 1.6.84 2 1.56.07.33 0 .65.33.7-.14.35.2.54 0 1-1.83 2.86-4.1 5.13-6.64 7.2-.25.53-.7.86-1.23 1.1-.2.47-.7.6-.84 1.1-.53 0-.47.47-.9.54-.35.65-1 1.04-1.4 1.7-1.6.96-2.7 2.45-4.4 3.3.06 1.1.7 1.95 1.23 2.8.65.5 1.24 1.1 2 1.5 5.08 1.02 7.35-2.3 10.02-4.37.05-.2.1-.25.18-.45.06-.07.2-.07.32-.07 1.3-1.36 2.28-3.05 3.64-4.4.4-1.37 1.55-1.64 1.87-3.13.4-.32.72-.7.9-1.3.08 0 .14-.06.27-.06.58-.98 1.22-1.88 1.75-3 .05 0 .12.08.2.08-.08-.52.63-1.17 1.1-1.63.2 1-.54 1.96-1 2.67-.05.26-.05.52-.25.52-.05.64-.38.97-.64 1.36-.12 1.17-.96 2-1.22 3.24-.6.4-.78 1.3-1.24 1.83v.07c-.14.06 0 .06 0 0zm-19.23.32c1.37-.84 2.8-1.75 4.35-2.47.33-.45.98-.64 1.37-1.03 2.96-1.56 5.56-4.1 7.6-6.9-.1-.38.17-.5.23-.77-.06-.45-.13-.84-.38-1.1-3.38-.45-6.1 2-8.38 3.63-1.95 2.67-4.54 4.8-4.8 8.64zm18.17 1.18c.07 0 .13 0 .13-.07-.06 0-.13 0-.13.06zm.6-.85c.2 0 .44-.33.25-.52-.07.2-.2.32-.27.52-.26 0 0 .26 0 0zm1.55-2.67c-.14 0-.27 0-.2.14.12 0 .2-.07.2-.13zm0 .52"/></g><path fill="#41BBEC" d="M641.2 42.4c7.22-11.6 18.87-17.97 32.56-17.26 14.67.76 28.65 10.22 41.2 17.02 12.43 6.72 24.4 11.75 38.6 12.96 8.22.7 18.12 1.15 26.1-1.15 36.38-10.48 74-19.84 111.76-23.1 2.85-.26 5.72-.43 8.58-.56.43 0 .44-.67 0-.65-39.4 1.74-78.82 11.98-116.64 22.58-21.18 5.93-43.98 1.95-63.2-8.06C700.14 33.75 676.44 16.3 653.54 29c-5.45 3.02-9.67 7.82-12.93 13.05-.2.38.38.72.6.35zM.3 24.85C17.4 6.6 43.75 2.2 67.65 4.8c14.57 1.57 28.84 6.35 42.68 10.98 14.12 4.72 28.04 10 42.2 14.65C168.2 35.58 183.8 42.6 200.43 44c22.16 1.87 42.46-8.93 59.65-21.87.4-.32 0-1.05-.43-.73-18.84 14.2-40.35 24.64-64.42 21.16-8.27-1.2-16.24-3.88-24.1-6.65-10.22-3.6-20.54-6.9-30.8-10.47-26.02-9.05-52.6-20.65-80.46-22.1C38.2 2.23 14.94 8-.3 24.27c-.37.4.23 1 .6.6zm350.82 9.67s-.6.55-1.56 1.53c-1 1-2.33 2.47-4.13 4.08-.46.4-.95.8-1.46 1.2-.5.4-1.03.8-1.6 1.2-1.1.82-2.33 1.62-3.62 2.4-1.3.8-2.63 1.53-4.02 2.3-1.38.76-2.8 1.5-4.25 2.2-1.45.7-2.93 1.33-4.42 1.88-.75.3-1.5.5-2.25.77-.74.2-1.5.4-2.23.57-2.92.64-5.77 1-8.2 1.07-1.2.06-2.33 0-3.32-.06-.98-.1-1.85-.18-2.55-.32-.68-.12-1.2-.22-1.57-.3-.17-.02-.52-.4-.5-.42v-.3c.03 0 .07-.5.65-.47.38.1.92.2 1.62.33.67.13 1.5.2 2.44.32.95.06 2.02.12 3.2.1 2.37-.06 5.07-.4 8-1 .7-.2 1.43-.37 2.17-.55.74-.23 1.47-.45 2.2-.7 1.46-.54 2.9-1.13 4.36-1.8 1.44-.65 2.87-1.35 4.25-2.08 1.4-.72 2.76-1.46 4.04-2.2 1.3-.74 2.5-1.52 3.62-2.28.56-.37 1.1-.77 1.62-1.15.53-.38 1-.75 1.47-1.13 1.83-1.5 3.23-2.95 4.25-3.9 1-.97 1.6-1.5 1.6-1.5l.22.23zm14.35 16.68s.6-.45 1.68-1.23c.53-.4 1.18-.87 1.92-1.4.74-.57 1.58-1.18 2.55-1.8.96-.6 2-1.3 3.1-2 1.07-.74 2.3-1.37 3.5-2.1 1.25-.7 2.5-1.48 3.85-2.13 1.32-.68 2.67-1.38 4.02-2.07 1.36-.63 2.75-1.26 4.1-1.88 1.35-.66 2.73-1.18 4.04-1.7 1.33-.53 2.58-1.1 3.82-1.5 1.22-.46 2.38-.87 3.45-1.26 2.15-.78 3.97-1.3 5.23-1.7 1.26-.4 1.98-.64 1.98-.64l.17.52s-.72.23-1.97.64c-1.24.43-3.06.95-5.18 1.75-1.06.4-2.22.83-3.43 1.28-1.25.42-2.5 1-3.8 1.52-1.3.54-2.68 1.06-4 1.7-1.36.64-2.73 1.27-4.1 1.9-1.34.7-2.68 1.4-4 2.1-1.32.66-2.56 1.43-3.8 2.14-1.2.74-2.4 1.37-3.47 2.1-1.07.73-2.1 1.4-3.03 2.02-.94.6-1.78 1.22-2.5 1.78-.75.56-1.4 1.04-1.93 1.43-1.06.8-1.67 1.25-1.67 1.25l-.53-.72zm49.03 2.82s.9-.3 2.46-.84c.4-.14.84-.27 1.3-.46.46-.2.95-.4 1.47-.64.52-.23 1.08-.47 1.67-.72.58-.28 1.17-.6 1.8-.93.62-.33 1.3-.65 1.95-1.03.65-.4 1.32-.8 2-1.24.35-.2.7-.43 1.05-.65.34-.22.68-.46 1.02-.7.7-.5 1.4-1 2.12-1.53.68-.56 1.37-1.13 2.07-1.7.36-.3.73-.58 1.06-.9l1-.95c.66-.64 1.37-1.25 2-1.95.6-.7 1.24-1.4 1.86-2.1.6-.68 1.2-1.48 1.78-2.2.6-.75 1.15-1.5 1.67-2.27 1.1-1.5 2.06-3.05 3-4.55.47-.75.87-1.52 1.3-2.26.44-.75.86-1.46 1.23-2.2.75-1.44 1.47-2.8 2.07-4.1.62-1.3 1.16-2.46 1.63-3.52.47-1.05.88-1.98 1.2-2.75.62-1.53 1-2.4 1-2.4l.55.2s-.33.9-.9 2.46c-.3.8-.66 1.72-1.1 2.8-.22.54-.45 1.12-.7 1.72-.26.6-.54 1.23-.84 1.9-.56 1.3-1.26 2.7-2 4.17-.72 1.46-1.57 3-2.47 4.53-.94 1.55-1.9 3.14-3 4.68-.54.8-1.1 1.58-1.68 2.3-.6.77-1.12 1.53-1.78 2.28-.64.7-1.3 1.43-1.93 2.14-.63.72-1.36 1.33-2.04 2l-1.03.98c-.35.32-.72.6-1.07.9-.72.6-1.43 1.17-2.13 1.75-.74.52-1.46 1.03-2.17 1.53-.36.25-.7.5-1.06.74-.36.2-.72.43-1.08.64-.7.43-1.4.84-2.06 1.24-.68.38-1.37.7-2 1.02-.66.32-1.26.65-1.87.92-.6.24-1.2.47-1.74.7-.57.2-1.08.4-1.55.6-.48.18-.92.3-1.32.43-1.6.48-2.5.76-2.5.76l-.25-.78zm114.8-1.82s.8-.35 2.26-.95c.72-.3 1.6-.65 2.6-1.07 1-.43 2.17-.83 3.33-1.47 1.17-.6 2.45-1.24 3.8-1.93.68-.37 1.4-.67 2.08-1.1.67-.43 1.36-.86 2.07-1.3.7-.44 1.43-.88 2.16-1.34.73-.45 1.5-.9 2.17-1.43 1.4-1.05 2.82-2.1 4.25-3.17 1.4-1.08 2.7-2.3 4.04-3.44.64-.6 1.32-1.15 1.93-1.74.6-.6 1.2-1.2 1.8-1.8 1.14-1.2 2.32-2.3 3.33-3.46 1-1.14 1.94-2.23 2.82-3.24.42-.5.84-1 1.24-1.45.36-.46.7-.92 1.04-1.35.66-.86 1.23-1.6 1.7-2.23.96-1.22 1.5-1.93 1.5-1.93l.5.35s-.55.7-1.5 1.96c-.47.6-1.05 1.37-1.7 2.24-.34.43-.7.9-1.07 1.38-.4.47-.8.96-1.25 1.47-.88 1-1.82 2.1-2.83 3.3-1 1.14-2.2 2.25-3.36 3.46-.6.6-1.2 1.2-1.8 1.82-.6.6-1.3 1.16-1.95 1.75-1.35 1.15-2.65 2.4-4.06 3.5-1.44 1.06-2.88 2.13-4.3 3.2-.68.54-1.44.98-2.17 1.44-.73.46-1.45.92-2.17 1.36-.7.45-1.4.9-2.1 1.3-.67.45-1.4.77-2.08 1.14-1.38.7-2.67 1.37-3.87 2-1.17.65-2.33 1.04-3.33 1.48-1 .42-1.88.78-2.6 1.08-1.44.6-2.27.94-2.27.94l-.3-.75z"/></svg>