<?xml version="1.0" encoding="utf-8"?>
<!-- Generator: Adobe Illustrator 16.0.0, SVG Export Plug-In . SVG Version: 6.00 Build 0)  -->
<!DOCTYPE svg PUBLIC "-//W3C//DTD SVG 1.1//EN" "http://www.w3.org/Graphics/SVG/1.1/DTD/svg11.dtd">
<svg version="1.1" id="Layer_1" xmlns="http://www.w3.org/2000/svg" xmlns:xlink="http://www.w3.org/1999/xlink" x="0px" y="0px"
	 width="400px" height="400px" viewBox="0 0 400 400" enable-background="new 0 0 400 400" xml:space="preserve">
<g>
	<path fill="#4AB9E6" d="M212.265,399.621l-10.562-0.152l-2.212-5.552c-0.252-0.851-1.021-2.64-2.044-3.811
		c-1.766-0.021-3.532-0.073-5.297-0.146c-0.803,0.96-1.698,2.293-2.175,3.899l-0.331,0.823l-2.482,4.917l-10.459-1.495l-1.519-5.783
		c-0.142-0.871-0.674-2.739-1.541-4.025c-1.75-0.246-3.5-0.52-5.242-0.813c-0.918,0.855-1.971,2.068-2.643,3.59l-0.441,0.792
		l-3.088,4.561l-10.168-2.823l-0.779-5.898c-0.034-0.882-0.328-2.786-1.021-4.172c-1.719-0.467-3.432-0.955-5.138-1.464
		c-1.008,0.724-2.191,1.784-3.046,3.206l-0.527,0.719l-3.626,4.141l-9.748-4.046l-0.071-5.684l0.029-0.288
		c0.079-0.866,0.029-2.776-0.47-4.24c-1.658-0.678-3.309-1.386-4.949-2.115c-1.115,0.608-2.388,1.506-3.393,2.786l-0.638,0.678
		l-4.106,3.61l-9.173-5.206l0.724-5.951c0.187-0.85,0.375-2.739,0.066-4.251c-1.559-0.887-3.104-1.789-4.639-2.718
		c-1.155,0.451-2.559,1.186-3.724,2.34l-0.719,0.594l-4.534,3.064l-8.433-6.329l1.459-5.804c0.291-0.824,0.719-2.692,0.59-4.235
		c-1.422-1.065-2.832-2.151-4.23-3.264c-1.246,0.31-2.721,0.871-4.025,1.868l-0.764,0.478l-4.891,2.503l-7.575-7.342l2.17-5.573
		c0.396-0.792,1.063-2.613,1.121-4.167c-0.821-0.792-1.635-1.59-2.443-2.397c-0.443-0.441-0.882-0.882-1.317-1.333
		c-1.322,0.157-2.847,0.524-4.253,1.343l-0.824,0.384l-5.169,1.868l-6.586-8.25l2.85-5.242c0.491-0.729,1.375-2.451,1.629-3.979
		c-1.12-1.391-2.214-2.791-3.29-4.203c-1.574,0.037-3.07,0.268-4.353,0.813l-0.882,0.283L38,317.319l-5.486-9.016l3.482-4.828
		c0.574-0.656,1.658-2.235,2.112-3.71c-0.944-1.527-1.863-3.065-2.76-4.613c-1.343-0.162-3.031-0.126-4.39,0.257l-0.903,0.168
		l-5.465,0.52l-4.343-9.629l4.078-4.361c0.648-0.577,1.91-1.999,2.548-3.406c-0.745-1.637-1.467-3.285-2.162-4.943
		c-1.212-0.304-2.739-0.54-4.387-0.283l-0.459,0.068l-5.936-0.199l-3.094-10.07l4.587-3.837c0.716-0.493,2.157-1.747,2.962-3.075
		c-0.53-1.705-1.034-3.416-1.512-5.138c-1.133-0.456-2.568-0.855-4.125-0.855l-1.113-0.058l-5.423-0.84l-1.818-10.406l5.033-3.232
		c0.784-0.404,2.388-1.485,3.348-2.708c-0.307-1.742-0.59-3.489-0.848-5.242c-1.094-0.609-2.571-1.229-4.23-1.396l-0.916-0.184
		l-5.248-1.548l-0.488-10.521l5.384-2.562c0.834-0.305,2.577-1.186,3.681-2.288c-0.084-1.763-0.147-3.521-0.186-5.282
		c-1.013-0.747-2.404-1.559-4.022-1.931l-0.871-0.286L0,199.708l0.824-10.527l5.676-1.866c0.863-0.196,2.692-0.847,3.928-1.794
		c0.131-1.767,0.292-3.527,0.473-5.285c-0.908-0.863-2.183-1.839-3.747-2.414l-0.821-0.388l-4.723-2.787l2.146-10.341l5.859-1.144
		c0.874-0.087,2.752-0.499,4.096-1.272c0.357-1.743,0.737-3.485,1.142-5.22c-0.792-0.968-1.931-2.086-3.396-2.842l-0.766-0.487
		l-4.348-3.361l3.445-9.987l5.663-0.409l0.275,0.011c1.331,0,2.991-0.239,4.217-0.75c0.575-1.69,1.17-3.372,1.792-5.049
		c-0.667-1.055-1.653-2.299-3.004-3.23l-0.711-0.593l-3.871-3.886l4.65-9.457l5.967,0.342c0.202,0.031,2.871,0.173,4.253-0.21
		c0.784-1.604,1.59-3.201,2.422-4.792c-0.525-1.123-1.349-2.479-2.577-3.573l-0.641-0.685l-3.34-4.332l5.791-8.807l5.875,1.095l0,0
		c0.003,0.002,2.532,0.577,4.272,0.32c0.971-1.488,1.965-2.963,2.986-4.427c-0.383-1.191-1.034-2.655-2.12-3.91l-0.525-0.724
		l-2.799-4.713l6.869-8.042l5.689,1.831c0.553,0.239,2.61,0.945,4.227,0.854c1.141-1.341,2.304-2.666,3.487-3.983
		c-0.226-1.238-0.685-2.779-1.611-4.159l-0.441-0.806l-2.178-5.03l7.798-7.095l5.434,2.509c0.546,0.32,2.406,1.212,4.099,1.377
		c1.304-1.193,2.621-2.366,3.952-3.519c-0.071-1.285-0.341-2.85-1.084-4.326l-0.336-0.861l-1.521-5.256l8.632-6.068l5.064,3.186
		c0.677,0.52,2.335,1.514,3.854,1.87c1.454-1.031,2.917-2.038,4.395-3.022c0.084-1.246,0.019-2.839-0.53-4.396l-0.223-0.882
		l-0.863-5.418l9.336-4.94l4.615,3.788c0.622,0.614,2.128,1.795,3.576,2.341c1.583-0.842,3.17-1.658,4.771-2.453
		c0.244-1.257,0.365-2.826,0.019-4.424l-0.11-0.908l-0.168-5.474l9.876-3.73l4.099,4.345c0.538,0.688,1.886,2.047,3.256,2.766
		c1.671-0.635,3.348-1.246,5.033-1.834c0.388-1.187,0.721-2.745,0.574-4.385l-0.039-0.462l0.564-5.911l10.249-2.456l3.55,4.82
		c0.449,0.753,1.622,2.277,2.896,3.159c1.727-0.418,3.461-0.812,5.196-1.182c0.538-1.125,1.065-2.634,1.128-4.295l0.118-0.902
		l1.194-5.361l10.488-1.139l2.91,5.214c0.354,0.809,1.333,2.479,2.49,3.517c1.758-0.2,3.521-0.373,5.285-0.522
		c0.677-1.053,1.394-2.487,1.667-4.133l0.236-0.905l1.874-5.13l10.522,0.155l2.233,5.552c0.252,0.853,1.018,2.646,2.044,3.815
		c1.764,0.023,3.521,0.073,5.284,0.145c0.835-0.992,1.711-2.319,2.179-3.902l0.346-0.863l2.504-4.872l10.438,1.495l1.506,5.781
		c0.142,0.873,0.677,2.741,1.543,4.03c1.748,0.243,3.495,0.512,5.237,0.805c0.924-0.853,1.979-2.067,2.65-3.592l0.446-0.8
		l3.085-4.54l10.171,2.803l0.776,5.922c0.031,0.877,0.325,2.781,1.019,4.167c1.716,0.465,3.427,0.95,5.127,1.462
		c1.013-0.729,2.198-1.795,3.049-3.212l0.551-0.753l3.632-4.097l9.745,4.041l0.042,5.702l-0.031,0.275
		c-0.073,0.866-0.026,2.773,0.482,4.232c1.653,0.68,3.301,1.386,4.938,2.112c1.123-0.608,2.403-1.514,3.411-2.797l0.608-0.646
		l4.109-3.655l9.194,5.248l-0.735,5.933c-0.188,0.848-0.378,2.744-0.058,4.253c1.554,0.885,3.102,1.79,4.64,2.719
		c1.186-0.465,2.571-1.199,3.736-2.349l0.714-0.583l4.523-3.064l8.438,6.324l-1.464,5.796c-0.294,0.827-0.72,2.703-0.588,4.248
		c1.417,1.063,2.823,2.149,4.219,3.257c1.213-0.305,2.714-0.858,4.036-1.868l0.766-0.485l4.886-2.496l7.583,7.357l-2.178,5.558
		c-0.398,0.793-1.065,2.621-1.117,4.183c0.813,0.784,1.627,1.58,2.43,2.38c0.44,0.443,0.881,0.89,1.316,1.333
		c1.328-0.154,2.855-0.522,4.272-1.344l0.823-0.383l5.159-1.86l6.581,8.242l-2.845,5.247c-0.493,0.735-1.375,2.459-1.632,3.994
		c1.117,1.38,2.214,2.776,3.285,4.183c0.021,0,0.042,0,0.068,0c1.584,0,3.033-0.273,4.308-0.812l0.84-0.272l5.363-1.226l5.521,9.021
		l-3.484,4.846c-0.577,0.662-1.663,2.244-2.114,3.724c0.939,1.524,1.857,3.06,2.755,4.603c1.317,0.171,3.038,0.131,4.408-0.257
		l0.876-0.166l5.469-0.535l4.36,9.633l-4.088,4.371c-0.646,0.58-1.915,2.005-2.55,3.411c0.745,1.638,1.464,3.282,2.162,4.933
		c1.196,0.313,2.739,0.538,4.387,0.292l0.446-0.068l5.936,0.165l3.117,10.107l-4.587,3.825c-0.725,0.496-2.167,1.759-2.971,3.081
		c0.525,1.705,1.029,3.419,1.507,5.135c1.097,0.441,2.539,0.851,4.098,0.851l1.155,0.058l5.426,0.86l1.8,10.396l-5.027,3.227
		c-0.781,0.407-2.393,1.488-3.354,2.711c0.311,1.739,0.594,3.487,0.851,5.237c1.123,0.63,2.593,1.241,4.235,1.409l0.892,0.173
		l5.274,1.527l0.488,10.556l-5.396,2.554c-0.839,0.307-2.581,1.188-3.684,2.285c0.084,1.761,0.152,3.519,0.188,5.279
		c1.034,0.769,2.414,1.559,4.036,1.929l0.882,0.291l5.017,2.178l-0.824,10.527l-5.678,1.863c-0.866,0.199-2.703,0.85-3.936,1.8
		c-0.132,1.758-0.289,3.516-0.473,5.269c0.913,0.866,2.188,1.842,3.752,2.414l0.829,0.394l4.713,2.792l-2.136,10.338l-5.867,1.145
		c-0.877,0.084-2.755,0.498-4.099,1.275c-0.356,1.742-0.74,3.484-1.145,5.216c0.809,0.992,1.937,2.089,3.401,2.845l0.745,0.472
		l4.371,3.343l-3.422,10.019l-5.688,0.415l-0.283-0.011c-1.333,0-2.991,0.236-4.209,0.745c-0.571,1.689-1.17,3.38-1.795,5.054
		c0.656,1.044,1.638,2.282,3.008,3.228l0.697,0.588l3.873,3.872l-4.623,9.483l-5.982-0.352c-0.205-0.026-2.876-0.179-4.256,0.215
		c-0.782,1.601-1.591,3.19-2.42,4.775c0.525,1.129,1.349,2.487,2.582,3.584l0.63,0.672l3.354,4.335l-5.804,8.832l-5.862-1.107l0,0
		c0,0-2.771-0.551-4.277-0.319c-0.976,1.484-1.968,2.959-2.985,4.424c0.378,1.186,1.023,2.649,2.114,3.909l0.52,0.719l2.818,4.729
		l-6.875,8.034L349.091,324c-0.562-0.241-2.535-1.003-4.245-0.851c-1.145,1.339-2.304,2.666-3.49,3.983
		c0.226,1.228,0.683,2.761,1.616,4.151l0.431,0.792l2.204,5.043l-7.819,7.105l-5.421-2.514c-0.551-0.319-2.414-1.217-4.104-1.38
		c-1.308,1.191-2.624,2.367-3.952,3.521c0.068,1.243,0.331,2.823,1.081,4.318l0.336,0.855l1.532,5.264l-8.644,6.066l-5.048-3.175
		c-0.677-0.524-2.341-1.521-3.862-1.879c-1.459,1.034-2.929,2.042-4.403,3.023c-0.084,1.249-0.021,2.839,0.53,4.397l0.221,0.876
		l0.871,5.427l-9.331,4.933l-4.629-3.783c-0.619-0.614-2.12-1.795-3.568-2.341c-1.579,0.845-3.169,1.664-4.77,2.461
		c-0.236,1.223-0.368,2.803-0.021,4.398l0.115,0.934l0.152,5.469l-9.86,3.726l-4.104-4.34c-0.536-0.688-1.885-2.047-3.254-2.766
		c-1.669,0.635-3.354,1.249-5.038,1.831c-0.389,1.187-0.725,2.745-0.577,4.382l0.036,0.452l-0.545,5.935l-10.266,2.445l-3.542-4.812
		c-0.451-0.756-1.627-2.283-2.896-3.17c-1.732,0.42-3.464,0.818-5.201,1.186c-0.54,1.123-1.064,2.63-1.123,4.282l-0.12,0.919
		l-1.202,5.353l-10.479,1.165l-2.907-5.232c-0.357-0.808-1.339-2.481-2.498-3.521c-1.758,0.199-3.521,0.372-5.285,0.52
		c-0.692,1.081-1.385,2.497-1.652,4.124l-0.231,0.897L212.265,399.621z M188.342,379.685l2.063,0.11
		c2.962,0.157,5.933,0.252,8.9,0.263h1.459l1.233,0.787c1.996,1.274,3.505,3.043,4.61,4.76c1.018-1.9,2.151-3.364,2.965-4.299
		l1.364-1.574l2.078-0.146c2.965-0.21,5.93-0.499,8.879-0.86l1.465-0.185l1.333,0.641c2.114,1.019,3.82,2.577,5.121,4.13
		c0.771-2.015,1.717-3.61,2.404-4.634l1.159-1.721l2.036-0.404c2.929-0.583,5.836-1.244,8.738-1.974l1.427-0.362l1.401,0.468
		c2.22,0.745,4.094,2.067,5.578,3.442c0.51-2.073,1.233-3.763,1.784-4.859l0.93-1.863l1.979-0.661
		c2.833-0.95,5.656-1.968,8.448-3.07l1.391-0.546l1.47,0.3c2.272,0.467,4.282,1.537,5.914,2.708c0.241-2.115,0.74-3.868,1.145-5.022
		l0.688-1.963l1.879-0.907c2.702-1.308,5.368-2.672,8.013-4.12l1.313-0.724l1.495,0.115c2.31,0.178,4.435,0.991,6.198,1.946
		c-0.021-2.141,0.262-3.956,0.52-5.158l0.44-2.025l1.737-1.129c2.492-1.626,4.964-3.306,7.399-5.074l1.196-0.871l2.188-0.1
		c2.078,0,4.051,0.504,5.752,1.165c-0.294-2.152-0.231-4.015-0.116-5.248l0.189-2.036l1.563-1.328
		c2.252-1.915,4.477-3.889,6.66-5.925l1.06-0.991l1.428-0.273c2.293-0.425,4.639-0.194,6.644,0.305
		c-0.566-2.109-0.734-3.973-0.771-5.222l-0.063-2.052l1.396-1.512c2.025-2.188,3.973-4.424,5.878-6.69l0.934-1.118l1.386-0.446
		c2.005-0.646,4.435-0.781,6.597-0.52c-0.813-1.994-1.218-3.794-1.417-5.012l-0.331-2.041l1.202-1.689
		c1.747-2.451,3.416-4.923,5.032-7.441l0.798-1.239l1.338-0.613c1.863-0.855,4.021-1.297,6.402-1.313
		c-1.049-1.857-1.674-3.579-2.021-4.754l-0.598-1.989l0.986-1.832c1.422-2.655,2.787-5.331,4.072-8.039l0.641-1.344l1.27-0.782
		c1.983-1.223,4.183-1.81,6.15-2.072c-1.285-1.731-2.12-3.374-2.608-4.503l-0.823-1.889l0.745-1.927
		c1.075-2.797,2.078-5.631,3.012-8.47l0.468-1.411l1.154-0.935c1.811-1.464,3.909-2.335,5.861-2.854
		c-1.479-1.543-2.514-3.06-3.148-4.114l-1.07-1.774l0.493-2.015c0.708-2.902,1.364-5.836,1.932-8.764l0.277-1.454l1.023-1.07
		c1.622-1.69,3.616-2.829,5.495-3.584c-1.685-1.359-2.913-2.75-3.679-3.722l-1.281-1.637l0.242-2.063
		c0.346-2.944,0.613-5.904,0.808-8.854l0.095-1.453l0.86-1.181c1.396-1.921,3.265-3.322,5.054-4.319
		c-1.847-1.142-3.243-2.372-4.13-3.248l-1.475-1.459l-0.016-2.075c-0.026-2.96-0.137-5.92-0.31-8.877l-0.084-1.451l0.703-1.275
		c1.149-2.083,2.828-3.707,4.481-4.925c-1.957-0.897-3.495-1.934-4.481-2.685l-1.658-1.265l-0.278-2.064
		c-0.398-2.941-0.866-5.883-1.412-8.804l-0.272-1.443l0.551-1.361c0.882-2.196,2.341-4.007,3.82-5.411
		c-2.109-0.64-3.736-1.469-4.78-2.078l-1.795-1.049l-0.535-2.011c-0.761-2.892-1.601-5.765-2.514-8.619l-0.457-1.417l0.389-1.436
		c0.604-2.243,1.8-4.183,3.07-5.738c-2.021-0.362-3.716-0.952-4.949-1.479l-1.91-0.813l-0.782-1.924
		c-1.128-2.783-2.34-5.544-3.61-8.289l-0.63-1.351l0.21-1.475c0.326-2.283,1.26-4.343,2.32-6.035
		c-2.12-0.11-3.905-0.504-5.096-0.843l-2-0.563l-1.018-1.813c-1.465-2.603-3.008-5.185-4.613-7.732l-0.798-1.263l0.021-1.493
		c0.031-2.319,0.708-4.494,1.548-6.315c-1.941,0.149-3.983-0.011-5.211-0.204l-2.047-0.315l-1.233-1.663
		c-1.763-2.383-3.6-4.726-5.499-7.032l-0.935-1.137l-0.179-1.459c-0.277-2.343,0.121-4.62,0.735-6.56
		c-1.753,0.352-3.359,0.459-4.66,0.459l-2.655-0.058l-1.438-1.521c-0.892-0.944-1.805-1.882-2.729-2.808
		c-1.165-1.16-2.356-2.314-3.553-3.453l-1.061-1.002l-0.356-1.412c-0.583-2.301-0.473-4.623-0.105-6.633
		c-2.046,0.689-3.878,0.981-5.105,1.104l-2.068,0.204l-1.61-1.309c-2.325-1.895-4.682-3.724-7.08-5.477l-1.19-0.874l-0.53-1.383
		c-0.84-2.178-1.019-4.463-0.908-6.476c-1.769,0.855-3.463,1.383-4.854,1.708l-2.036,0.478l-1.773-1.104
		c-2.566-1.598-5.169-3.12-7.782-4.578l-1.297-0.722l-0.697-1.307c-1.092-2.047-1.549-4.275-1.685-6.274
		c-1.774,1.154-3.442,1.887-4.582,2.314l-1.957,0.729l-1.905-0.869c-2.739-1.257-5.51-2.445-8.291-3.558l-1.381-0.554l-0.86-1.21
		c-1.343-1.896-2.078-4.054-2.466-6.024c-1.638,1.386-3.218,2.325-4.314,2.892l-1.847,0.958l-1.984-0.627
		c-2.85-0.897-5.725-1.716-8.611-2.472l-1.422-0.373l-1.003-1.081c-1.59-1.724-2.603-3.791-3.237-5.712
		c-1.465,1.593-2.934,2.734-3.957,3.435l-1.706,1.176l-2.041-0.37c-2.918-0.527-5.852-0.986-8.79-1.364l-1.454-0.187l-1.128-0.937
		c-1.821-1.515-3.096-3.456-3.978-5.298c-1.154,1.624-2.398,2.92-3.475,3.889l-1.553,1.396l-2.084-0.112
		c-2.965-0.157-5.933-0.241-8.903-0.258l-1.454-0.008l-1.225-0.781c-2.002-1.275-3.514-3.047-4.621-4.766
		c-1.023,1.908-2.16,3.372-2.973,4.306l-1.364,1.559l-2.065,0.15c-2.965,0.215-5.928,0.501-8.879,0.865l-1.459,0.182l-1.331-0.636
		c-2.125-1.015-3.831-2.573-5.138-4.132c-0.774,2.015-1.713,3.607-2.403,4.634l-1.16,1.721l-2.034,0.404
		c-2.926,0.583-5.843,1.246-8.743,1.974l-1.425,0.354l-1.394-0.464c-2.222-0.743-4.101-2.068-5.586-3.442
		c-0.509,2.075-1.231,3.763-1.779,4.861l-0.932,1.866l-1.978,0.661c-2.845,0.949-5.665,1.976-8.468,3.069l-1.383,0.538l-1.451-0.296
		c-2.272-0.462-4.282-1.532-5.912-2.697c-0.226,1.949-0.685,3.66-1.152,5.006l-0.683,1.976l-1.884,0.911
		c-2.703,1.307-5.371,2.669-8.016,4.117l-1.314,0.722l-1.496-0.118c-2.312-0.179-4.437-0.992-6.2-1.947
		c0.023,2.136-0.26,3.949-0.517,5.15l-0.436,2.028l-1.74,1.131c-2.5,1.627-4.967,3.314-7.397,5.075l-1.199,0.868l-2.186,0.1
		c-2.083,0-4.064-0.504-5.762-1.165c0.292,2.134,0.242,3.983,0.134,5.217l-0.178,2.072l-1.59,1.341
		c-2.259,1.908-4.474,3.879-6.654,5.912l-1.068,0.997l-1.433,0.271c-2.275,0.43-4.634,0.196-6.638-0.313
		c0.562,2.092,0.737,3.941,0.785,5.185l0.076,2.07l-1.404,1.524c-2.023,2.196-3.983,4.422-5.875,6.694l-0.937,1.128l-1.398,0.448
		c-2.002,0.644-4.429,0.779-6.594,0.518c0.808,1.983,1.215,3.775,1.417,4.988l0.341,2.06l-1.212,1.694
		c-1.75,2.448-3.421,4.923-5.03,7.434l-0.8,1.252l-1.354,0.614c-1.86,0.85-4.009,1.285-6.387,1.301
		c1.047,1.858,1.671,3.577,2.021,4.75l0.593,1.991l-0.981,1.829c-1.428,2.658-2.792,5.345-4.081,8.053l-0.64,1.352l-1.272,0.781
		c-1.984,1.215-4.183,1.806-6.148,2.065c1.27,1.708,2.107,3.33,2.603,4.447l0.848,1.908l-0.75,1.946
		c-1.084,2.811-2.089,5.646-3.031,8.496l-0.467,1.409l-1.155,0.932c-1.808,1.459-3.902,2.327-5.849,2.845
		c1.477,1.54,2.511,3.054,3.146,4.106l1.068,1.778l-0.493,2.019c-0.716,2.907-1.359,5.835-1.929,8.774l-0.283,1.456l-1.026,1.073
		c-1.617,1.682-3.611,2.813-5.481,3.568c1.679,1.356,2.905,2.747,3.668,3.721l1.273,1.627l-0.236,2.052
		c-0.338,2.952-0.611,5.906-0.8,8.879l-0.094,1.473l-0.871,1.188c-1.401,1.905-3.256,3.296-5.036,4.287
		c1.837,1.142,3.233,2.369,4.117,3.243l1.475,1.459l0.018,2.075c0.026,2.966,0.131,5.925,0.302,8.896l0.084,1.454l-0.706,1.274
		c-1.149,2.073-2.821,3.689-4.466,4.907c1.97,0.897,3.505,1.937,4.487,2.692l1.65,1.265l0.275,2.057
		c0.396,2.949,0.866,5.889,1.415,8.812l0.272,1.448l-0.553,1.369c-0.884,2.184-2.335,3.983-3.81,5.385
		c1.937,0.593,3.526,1.37,4.747,2.078l1.811,1.044l0.535,2.021c0.766,2.897,1.608,5.772,2.527,8.628l0.457,1.422l-0.391,1.443
		c-0.608,2.235-1.802,4.172-3.067,5.72c1.994,0.357,3.681,0.939,4.912,1.454l1.931,0.813l0.787,1.937
		c1.134,2.792,2.338,5.558,3.619,8.291l0.638,1.364l-0.215,1.491c-0.328,2.277-1.265,4.329-2.319,6.019
		c2.086,0.116,3.865,0.499,5.062,0.829l2.018,0.562l1.026,1.826c1.47,2.614,3.012,5.195,4.626,7.757l0.79,1.26l-0.019,1.49
		c-0.031,2.309-0.706,4.477-1.545,6.297c1.942-0.152,3.97,0.011,5.19,0.205l2.047,0.31l1.236,1.663
		c1.774,2.388,3.605,4.734,5.513,7.054l0.939,1.139l0.173,1.464c0.281,2.33-0.118,4.603-0.732,6.533
		c1.75-0.352,3.359-0.456,4.663-0.456h2.146l1.902,1.554c0.911,0.949,1.824,1.899,2.755,2.828c1.181,1.176,2.372,2.33,3.574,3.469
		l1.063,1.008l0.359,1.417c0.578,2.293,0.465,4.612,0.095,6.617c2.025-0.682,3.841-0.981,5.067-1.107l2.083-0.22l1.625,1.322
		c2.33,1.899,4.694,3.731,7.098,5.489l1.199,0.876l0.53,1.391c0.832,2.178,1.002,4.456,0.89,6.466
		c1.921-0.929,3.676-1.443,4.87-1.722l2.023-0.467l1.763,1.097c2.561,1.585,5.161,3.117,7.791,4.57l1.312,0.729l0.7,1.323
		c1.081,2.041,1.53,4.261,1.669,6.255c1.776-1.154,3.448-1.884,4.592-2.314l1.958-0.724l1.897,0.871
		c2.742,1.26,5.505,2.445,8.294,3.558l1.393,0.552l0.863,1.228c1.328,1.89,2.055,4.041,2.44,6.004
		c1.643-1.392,3.228-2.325,4.322-2.892l1.842-0.95l1.976,0.624c2.855,0.897,5.728,1.717,8.625,2.473l1.43,0.372l1.002,1.086
		c1.585,1.722,2.593,3.784,3.23,5.699c1.458-1.59,2.923-2.729,3.941-3.432l1.708-1.171l2.039,0.368
		c2.926,0.524,5.872,0.986,8.824,1.375l1.443,0.188l1.121,0.929c1.818,1.512,3.091,3.453,3.973,5.295
		c1.259-1.773,2.577-3.091,3.505-3.915L188.342,379.685z M233.166,353.025l-0.403-0.021c-11.692-0.609-20.493-4.487-26.15-11.514
		c-8.42-10.47-6.318-23.899-6.224-24.466l0.236-0.902l17.417-47.85c4.136-9.787,9.566-13.025,10.17-13.361
		c0.846-0.409,3.685-1.611,8.606-1.611c2.614,0,5.396,0.336,8.261,1.003l50.069,14.441c0.515,0.258,12.616,6.455,16.132,19.417
		c2.361,8.712,0.325,18.1-6.051,27.919l-0.499,0.64c-0.482,0.536-12.169,13.257-33.208,23.144
		c-20.072,11.063-37.233,13.041-37.952,13.119L233.166,353.025z M210.275,319.041c-0.194,1.853-0.734,10.081,4.235,16.199
		c3.726,4.582,9.892,7.169,18.33,7.684c2.503-0.347,17.197-2.714,34.111-12.028c17.742-8.35,28.317-18.855,30.069-20.677
		c4.566-7.163,6.093-13.696,4.54-19.417c-2.052-7.562-8.984-11.938-10.591-12.867l-48.416-13.886
		c-3.909-0.897-8.522-0.525-9.583-0.221c-0.808,0.63-3.353,2.913-5.557,8.129L210.275,319.041z M134.195,337.671
		c-3.76,0-7.825-0.583-12.078-1.722l-0.761-0.273c-0.661-0.299-16.376-7.478-32.271-24.438
		c-16.722-15.654-23.909-31.372-24.208-32.033l-0.271-0.766c-3.033-11.31-2.067-20.876,2.871-28.428
		c7.352-11.241,20.771-13.393,21.338-13.481l0.464-0.068l51.363,1.795c10.596,0.913,15.348,5.074,15.856,5.547
		c0.732,0.771,4.896,5.525,5.789,15.854l1.805,51.617l-0.071,0.462C162.662,320.704,154.674,337.671,134.195,337.671z
		 M125.155,326.335c3.243,0.84,6.282,1.265,9.04,1.265c15.772,0,19.278-14.279,19.797-16.966l-1.755-50.369
		c-0.472-5.415-2.18-8.339-2.755-9.184c-0.848-0.572-3.808-2.288-9.452-2.776l-50.075-1.742c-1.86,0.394-9.824,2.43-14.096,9.026
		c-3.206,4.959-3.76,11.624-1.643,19.811c1.107,2.272,7.898,15.523,21.983,28.722C109.622,318.427,122.889,325.233,125.155,326.335z
		 M200,248.95c-13.072,0-25.365-5.09-34.615-14.331c-19.081-19.087-19.081-50.144,0-69.232c9.25-9.244,21.542-14.334,34.615-14.334
		s25.368,5.09,34.609,14.334c19.087,19.089,19.087,50.146,0,69.227C225.368,243.86,213.072,248.95,200,248.95z M200,161.123
		c-10.383,0-20.149,4.043-27.493,11.385c-15.156,15.161-15.156,39.829,0,54.989c7.344,7.342,17.11,11.389,27.493,11.389
		c10.386,0,20.146-4.047,27.493-11.389c15.156-15.16,15.156-39.828-0.005-54.989C220.146,165.166,210.386,161.123,200,161.123z
		 M326.446,239.253c-8.26,0-14.752-3.312-15.024-3.453l-0.787-0.504l-40.13-31.358c-8.045-6.956-9.431-13.133-9.562-13.815
		c-0.137-1.033-0.725-7.328,4.628-16.213l29.204-43.16c0.378-0.384,9.404-9.373,22.125-9.373c9.52,0,18.273,4.852,26.019,14.418
		l0.457,0.667c0.356,0.63,8.848,15.681,11.744,38.739c4.319,22.508,0.897,39.43,0.751,40.144l-0.226,0.776
		C348.314,235.238,335.72,239.253,326.446,239.253z M316.396,227.02c1.181,0.525,5.232,2.162,10.05,2.162
		c8.779,0,15.387-5.468,19.632-16.258c0.441-2.487,2.729-17.184-0.896-36.149c-2.467-19.577-9.185-32.772-10.37-34.984
		c-5.657-6.864-11.682-10.344-17.911-10.344c-7.42,0-13.318,4.896-14.678,6.119l-28.165,41.76c-2.808,4.668-3.133,8.034-3.159,9.045
		c0.341,0.952,1.716,4.082,6.003,7.793L316.396,227.02z M78.106,200.618c-6.985,0-29.889-2.356-31.468-32.676l-0.021-0.406
		l0.042-0.404c0.079-0.719,2.06-17.888,13.266-38.244c9.74-20.744,22.458-32.426,22.994-32.914l0.64-0.493
		c7.147-4.646,14.143-7.001,20.792-7.001c17.788,0,26.197,16.371,26.549,17.069l0.338,0.868l14.038,48.954
		c2.414,10.352-0.087,16.163-0.378,16.793c-0.504,0.929-3.737,6.36-13.293,10.396l-48.991,17.751
		C82.425,200.343,80.693,200.618,78.106,200.618z M56.719,167.861c1.146,18.734,12.24,22.687,21.387,22.687
		c1.131,0,2.005-0.074,2.488-0.126l47.33-17.231c5.014-2.123,7.263-4.649,7.887-5.455c0.284-0.981,1.002-4.321-0.281-9.835
		l-13.825-48.188c-1.104-1.955-6.861-11.162-17.354-11.162c-4.563,0-9.583,1.727-14.93,5.132
		c-1.818,1.753-12.312,12.299-20.527,29.773C59.447,150.638,57.067,165.358,56.719,167.861z M210.706,139.048
		c-0.83,0-1.266-0.063-1.266-0.063c-1.018-0.187-7.197-1.569-13.99-9.412l-32.022-41.122c-0.265-0.509-6.41-12.632-1.637-25.185
		C165,54.833,172.168,48.431,183.1,44.238l0.776-0.229c0.275-0.058,6.885-1.409,17.278-1.409c7.741,0,15.544,0.743,23.19,2.204
		c22.739,2.853,37.784,11.336,38.414,11.695l0.672,0.456c9.1,7.368,13.943,15.673,14.39,24.686
		c0.661,13.419-8.932,23.052-9.342,23.455l-0.724,0.591l-42.225,28.475C218.457,138.432,213.22,139.048,210.706,139.048z
		 M172.21,83.477l31.013,39.699c3.558,4.096,6.648,5.447,7.614,5.794c1.327-0.045,4.592-0.467,9.283-3.296l41.542-28.023
		c1.249-1.383,6.522-7.725,6.093-15.594c-0.32-5.896-3.789-11.611-10.317-16.99c-2.23-1.188-15.507-7.908-34.667-10.319
		c-7.342-1.394-14.511-2.076-21.616-2.076c-7.95,0-13.429,0.874-14.862,1.132c-7.906,3.111-12.98,7.499-15.09,13.043
		C168.421,74.166,171.455,81.781,172.21,83.477z"/>
</g>
</svg>
