<?xml version="1.0" encoding="utf-8"?>
<!-- Generator: Adobe Illustrator 17.0.0, SVG Export Plug-In . SVG Version: 6.00 Build 0)  -->
<!DOCTYPE svg PUBLIC "-//W3C//DTD SVG 1.1//EN" "http://www.w3.org/Graphics/SVG/1.1/DTD/svg11.dtd">
<svg version="1.1" id="Untitled-Page_x25_201" xmlns="http://www.w3.org/2000/svg" xmlns:xlink="http://www.w3.org/1999/xlink"
	 x="0px" y="0px" width="400px" height="400px" viewBox="0 0 400 400" enable-background="new 0 0 400 400" xml:space="preserve">
<path fill="#302100" d="M240.326,202.075h-34.549v117.877h-44.513c0,0,0.247-60.57,0.247-117.877h-33.635v-33.679h33.743
	l-0.108-31.285c0-20.67,1.412-52.913,44.755-52.913h39.711v33.679h-28.372c-4.576,0-11.138,2.297-11.138,12.168l-0.69,38.35h40.2
	L240.326,202.075z M199.979,0C89.499,0,0,89.585,0,200.022C0,310.501,89.499,400,199.979,400C310.423,400,400,310.501,400,200.022
	C400,89.585,310.423,0,199.979,0z"/>
</svg>
