<?xml version="1.0" encoding="utf-8"?>
<!-- Generator: Adobe Illustrator 17.0.0, SVG Export Plug-In . SVG Version: 6.00 Build 0)  -->
<!DOCTYPE svg PUBLIC "-//W3C//DTD SVG 1.1//EN" "http://www.w3.org/Graphics/SVG/1.1/DTD/svg11.dtd">
<svg version="1.1" id="Layer_1" xmlns="http://www.w3.org/2000/svg" xmlns:xlink="http://www.w3.org/1999/xlink" x="0px" y="0px"
	 width="400px" height="400px" viewBox="0 0 400 400" enable-background="new 0 0 400 400" xml:space="preserve">
<path fill="#41BBEC" d="M200.737,231.983c-20.59,0-54.412,27.205-58.825,30.147c-5.146,3.678-10.292,11.033-10.292,17.648
	c0,5.884,10.292,19.119,28.676,19.119c9.559,0,16.177-6.62,23.529-11.028c13.97-5.884,26.471-11.033,38.235-11.033
	c5.146-0.736,13.97-4.408,20.587-4.408c5.149,0,7.353,2.202,7.353,6.615c0,8.091-8.821,22.796-10.292,27.94
	c-2.942,8.826-6.617,18.383-6.617,27.945c0,1.471,0.733,2.207,0.733,2.937c6.62,15.441,6.62,31.618,8.824,47.059
	c0,2.207,3.678,7.355,3.678,11.033c0,2.942-1.471,3.678-5.146,3.678c-16.177,0-42.648-14.71-58.089-25.738
	c-8.824-5.879-22.058-19.119-33.824-19.119c-5.882,0-11.763,1.471-17.645,1.471c-29.414,0-42.648-13.97-55.883-33.089
	c-6.617-8.821-13.237-22.791-21.325-30.882c-4.411-3.673-5.146-8.821-10.292-13.235c-5.884-4.413-15.441-2.942-22.058-5.879
	c-2.942-0.736-21.325-13.975-21.325-19.854c0-0.736,0.736-1.471,2.207-2.207C2.207,251.102,0,242.28,0,239.338
	c0-18.383,13.237-40.444,28.678-48.53c19.116-9.562,16.177-15.441,20.587-30.147c1.471-4.413,4.411-9.562,4.411-14.706
	c0-5.149-3.675-8.091-3.675-12.504c0-6.615,5.882-11.028,5.882-17.643c0-4.413-3.675-8.091-3.675-11.768
	c0-5.144,8.824-6.615,8.824-11.028c0-2.942-4.413-7.35-4.413-11.763c0-8.826,16.177,0,16.177-10.297
	c0-3.673-2.207-8.086-2.207-11.763c0-2.942,1.471-4.408,5.149-4.408h6.617c2.94,0,5.146-0.736,5.146-4.413
	c0-2.942-0.736-5.884-0.736-8.091c0-1.471,0.736-2.942,4.413-2.942c3.675,0,7.353,2.942,9.557,2.942
	c9.559,0,10.295-10.292,15.444-10.292c8.086,0,31.615,20.59,36.764,20.59c4.411,0,8.088-5.149,12.499-6.62
	c16.912-4.413,28.678-11.763,46.323-13.97c22.794-2.207,48.53-5.149,71.324-11.763c15.441-4.413,38.235-19.854,47.059-19.854
	c21.325,0,12.501,56.616,44.119,64.706C383.823,68.015,400,71.688,400,84.192c0,10.292-23.529,14.706-37.499,24.998
	c-19.852,15.441-33.824,33.824-55.883,47.059c-2.94,1.471-10.292,3.678-11.763,6.62c-1.471,3.673-18.383,8.086-21.325,10.292
	c-0.733,0-18.381,11.028-18.381,13.97c0,5.149,11.028,24.267,12.499,27.205c1.471,2.942,5.882,5.884,5.882,9.562
	c0,5.144-16.91,12.499-25.734,12.499c-7.353,0-9.559-4.413-13.237-4.413c-4.411,0-3.675,28.676-14.706,28.676
	c-12.499,0-12.499-28.676-18.381-28.676H200.737z M41.913,209.192c-0.736-0.736-1.471-0.736-2.942-0.736
	c-6.617,0-17.645,11.028-17.645,13.235c0,0.736,0.736,0.736,0.736,0.736C24.265,222.426,35.295,212.864,41.913,209.192z
	 M52.943,208.456h-0.736c-7.353,0-29.414,20.585-29.414,22.791C30.147,229.776,44.855,215.071,52.943,208.456z M47.794,226.839
	c-4.411,0-23.529,14.706-24.265,20.585c11.03-4.408,27.943-19.119,25-20.585H47.794z M26.472,256.25
	c5.882,0,16.912-15.441,17.648-15.441c-4.413,0-17.648,10.292-17.648,14.706V256.25z M29.414,232.719
	c0.733,0,19.852-10.292,22.058-16.912c-3.678,3.678-25,12.499-22.794,16.912H29.414z M44.855,201.101
	c-8.088,0-14.708,8.091-16.177,8.091c5.882-0.736,15.441-4.413,17.645-8.091H44.855z M33.089,259.923
	c0,0.736,0.736,0.736,1.471,0.736c3.675,0,11.028-10.292,13.235-13.235C46.323,246.689,34.56,258.457,33.089,259.923z
	 M35.295,201.101c0.736,0,2.207-0.736,2.94-2.207c0,0,0-0.736-0.733-0.736c-0.736,0-2.942,1.471-2.942,2.207L35.295,201.101z
	 M47.794,247.424c-0.736,0-0.736,0.736-0.736,0.736L47.794,247.424z M51.472,204.778c1.471,0,2.94-0.736,2.94-1.471
	s-0.736-1.471-0.736-1.471c-0.733,0-2.204,1.471-2.94,2.207L51.472,204.778z M53.676,231.248v7.355l2.207-16.912
	c0-0.736,0.736-0.736,0.736-1.471C53.676,220.22,53.676,226.104,53.676,231.248z M55.883,222.426v-0.736
	c0-0.736,0.736-0.736,0.736-1.471C55.883,220.22,55.883,221.691,55.883,222.426z M208.09,58.453
	c-34.56,0-64.706,37.502-76.47,49.265c-25.736,25.734-48.53,58.822-58.089,95.589c-4.411,17.648-9.559,40.439-9.559,55.15
	c0,3.673,0.736,8.086,2.942,11.763c6.617-55.15,26.469-121.322,66.175-157.353c19.854-17.648,39.706-33.089,65.442-47.794
	c3.678-2.207,11.766-4.413,11.766-5.149C210.296,58.453,208.825,58.453,208.09,58.453z M75.737,132.722
	c0-0.736-2.207-1.471-2.942-1.471c-2.207,0-5.146,2.937-5.146,4.408c0,0.736,0.736,0.736,1.471,0.736
	C71.324,136.394,75.737,134.188,75.737,132.722z M83.825,113.603c0-1.471-0.736-1.471-1.471-1.471c-2.207,0-5.882,2.942-5.882,3.678
	c0,0,0.733,0.736,1.469,0.736C77.941,116.545,83.825,115.809,83.825,113.603z M84.561,101.104c0,0.731,4.411,1.466,5.882,1.466
	c1.471,0,2.204-0.736,2.204-0.736c0-1.466-3.675-1.466-5.882-1.466h-2.204V101.104z M105.148,82.721
	c0-1.471-2.942-2.207-2.207-2.207c-0.736,0-1.471,0.736-2.94,0.736c-0.736,0-2.207-1.471-2.942-1.471
	c-0.736,0-0.736,0.736-0.736,0.736c0,2.942,2.942,3.678,5.146,3.678C102.941,84.192,105.148,83.456,105.148,82.721z M115.443,70.952
	c0.736,0,0.736-0.731,0.736-1.466c0-2.207-4.413-3.678-5.149-3.678C111.03,68.751,113.972,70.952,115.443,70.952z M290.441,76.837
	c-2.204,8.826-3.675,37.502-11.763,37.502c-6.617,0-13.97-5.884-19.119-5.884c-2.94,0-5.882,0.736-8.824,0.736
	c-2.94,0-7.353-2.942-11.028-2.942c-2.207,0-3.678,1.471-3.678,3.678v2.207c0,4.413-2.207,2.207-3.675,3.678
	c2.204,2.937,10.292,4.408,10.292,8.086c-0.736,2.207-2.204,2.207-3.675,2.207c-2.207,0-5.149-0.736-6.617-0.736v1.471
	c0,4.413,7.353,1.471,7.353,9.557c0,2.207-0.736,3.678-2.942,3.678c-2.207,0-3.675-0.736-5.882-0.736
	c-2.207,0-24.265,5.149-24.265,4.413c0,9.557,22.794,9.557,22.794,14.706c0,10.292-14.706,13.235-21.323,13.235
	c-1.471,0-6.617-0.736-6.617,2.207c0,0.736,0.736,2.207,0.736,2.207c0,2.207-8.088,10.292-11.03,11.028
	c-1.471,0-2.942-0.736-4.413-0.736c-3.675,0-2.94,8.826-8.821,8.826c-0.736,0-0.736-0.736-0.736-0.736l-1.471,2.937
	c-1.471,1.471-3.678,5.884-6.617,5.884h-2.942c-5.146,0-16.177,28.676-19.116,28.676c-1.471,0-5.149-5.144-6.62-5.144
	c-5.882,2.202-16.177,24.998-16.177,32.348c0,0.736-0.733,12.504,1.471,12.504c2.207,0,16.912-17.648,22.058-21.325
	c7.355-5.149,15.444-13.97,26.472-13.97c7.353,0,19.119-10.292,26.471-13.97c10.292-5.149,16.912-16.912,27.205-23.532
	c11.766-7.35,22.058-18.383,34.56-24.998c5.882-3.678,29.411-13.235,29.411-14.706c0-0.736-0.736-1.471-0.736-2.207
	c0,0,23.529-8.821,23.529-12.499c0-0.736-0.736-1.471-0.736-1.471c0-2.942,39.706-32.353,52.207-43.381
	c-1.471,0-3.678-0.736-5.149-0.736c-3.675,0-2.94,3.673-7.353,3.673c-10.292,0-19.116-7.35-27.94-7.35
	c-1.471,0-3.678,0.736-5.882,0.736c-2.942,0-5.149-4.413-8.824-4.413c0,0-5.149,2.942-8.088,2.942l-0.736-0.736
	c0-0.736,0.736-1.471,1.471-2.207c6.617-8.086,5.882-21.32,5.882-30.147c0-4.413-2.207-9.557-2.207-13.97
	c0-2.207,0.736-3.678,0.736-5.149c0-0.736,0-1.471-0.736-2.942c-2.94,3.678,0,11.768-5.146,11.768c-0.736,0-1.471-0.736-2.207-0.736
	C295.59,58.453,292.648,67.28,290.441,76.837z M128.677,156.984c0,8.086,2.942,22.061,9.559,27.205
	c0.736-0.736,1.469-2.207,1.469-3.678c0-9.557-8.086-30.147-8.086-30.147C129.413,150.364,128.677,154.778,128.677,156.984z
	 M131.62,56.982c1.469,0,2.204-0.736,2.204-2.202c0-0.736-0.736-2.207-2.204-2.942c-1.471,0-2.207,1.471-2.207,2.207
	c0,1.466,0,2.937,1.471,2.937H131.62z M138.237,145.221c0,5.144,6.617,27.205,8.088,27.205c1.469,0,2.94-2.207,2.94-5.149
	c0-7.35-5.882-25.734-6.617-26.469C141.176,140.807,138.237,143.75,138.237,145.221z M150,136.394
	c0,7.355,5.882,29.411,13.237,29.411c0.733,0,1.469-0.736,1.469-1.466c0-10.297-14.706-27.945-14.706-29.416V136.394z
	 M167.648,154.778c0-10.292-11.03-24.998-12.499-24.998c1.469,5.879,8.821,25.734,11.763,25.734
	C167.648,155.513,167.648,155.513,167.648,154.778z M262.501,29.778c-7.353,0-53.676,7.355-58.825,8.826
	c-4.411,1.466-45.588,15.441-45.588,19.849c0-0.736,48.53-15.441,53.676-16.177c8.824-1.471,17.648-2.942,26.471-5.879
	c8.088-2.942,16.912-2.207,24.265-5.884c0,0,0-0.736,0.736-0.736H262.501z M183.825,154.778c0.736,0,1.471-0.736,1.471-1.471
	c0,0.736-19.119-33.824-19.854-33.089l-0.736,0.736c0,11.768,15.441,31.618,14.706,30.882c0.736,1.471,1.471,2.942,2.942,2.942
	H183.825z M232.354,294.483c-4.413,0-28.678-1.471-28.678,4.413c0,0.736,0.736,0.736,2.207,0.736c5.146,0,20.587-3.678,22.058-4.413
	c2.207,0,4.413,2.207,6.617,2.207c0.736,0,0.736-0.736,0.736-2.207C235.294,295.219,233.823,294.483,232.354,294.483z
	 M205.883,306.982c-0.736,0-1.471,0-1.471,1.471c0,0.736,0,0.736,0.736,0.736c1.471,0,2.942,0,2.942-1.471
	C208.09,306.982,207.354,306.982,205.883,306.982z M227.206,344.484c0.736-1.471,1.471-2.942,1.471-4.413
	c0-4.408-13.235-10.292-20.587-10.292c-2.207,0-2.942,0.736-2.942,2.942c0,5.879,19.854,11.028,21.323,12.499L227.206,344.484z
	 M232.354,364.338c0-2.207-18.383-20.59-27.207-23.532c0,13.235,8.088,9.562,22.794,24.267c1.471,0.736,2.207,0.736,2.942,0.736
	S232.354,365.074,232.354,364.338z M213.971,217.277c-2.942,0-7.353,8.091-7.353,8.091c0,1.471,1.471,2.937,2.942,5.144
	c2.204-4.408,5.882-9.557,5.882-11.763c0,0,0-1.471-0.736-1.471H213.971z M210.296,362.867c0,2.207,4.411,4.413,6.617,6.615
	c3.675,3.678,11.028,13.239,16.91,13.239c0-11.033-22.794-20.59-22.794-21.325C210.296,362.132,210.296,362.132,210.296,362.867z
	 M226.47,319.486c1.471,0,2.942-0.736,2.942-2.942c0-1.471-0.736-2.942-0.736-3.678c-3.675,0.736-16.177-0.736-17.648,2.207
	C211.765,316.544,222.795,319.486,226.47,319.486z M219.853,235.661c-2.94,0-5.146,6.62-5.146,8.086
	c0,1.471,0.736,2.207,2.207,2.207c1.469-0.736,2.94-7.35,2.94-9.557V235.661z M222.06,287.868c5.882,0,8.088-2.207,12.499-2.942
	c-1.469,0-2.204-0.736-2.94-0.736c-3.678,0-10.295,0.736-10.295,2.942C222.06,287.133,222.06,287.868,222.06,287.868z
	 M224.266,226.839c2.94-3.678,4.411-5.884,4.411-8.826c0-0.736,0-1.471-0.736-2.942c0,2.942-4.411,9.562-5.146,10.297
	c0,0,0,1.471,0.736,1.471H224.266z M229.412,212.864c0,0,2.207,0,2.207-3.673v-3.678c-1.471,0-2.942,5.149-2.942,6.615
	L229.412,212.864z M235.294,221.691c0,3.678,3.678,6.615,5.149,6.615c0.736,0,0.736-0.736,0.736-2.202
	c0-2.942-1.471-9.562-3.678-9.562C235.294,216.542,235.294,220.22,235.294,221.691z M250,201.836
	c-0.733-1.471-2.94-4.413-5.146-4.413c-0.736,0-0.736,0-0.736,0.736c0,10.297,17.648,26.474,16.912,25.738
	c0.736,0.736,1.471,0.736,1.471,0.736C263.972,220.22,252.942,205.514,250,201.836z M256.619,227.57
	c0-5.879-11.03-11.763-10.295-11.763v0.736c0,5.149,2.942,11.763,8.824,11.763C255.884,228.305,255.884,228.305,256.619,227.57z
	 M273.529,156.249c2.207,0,4.413,1.471,4.413,2.207c0,3.678-8.824,5.149-10.295,5.149c-2.207,0-8.088-1.471-8.088-3.678
	c0-2.207,7.353-2.207,8.088-2.942C269.118,156.984,271.325,156.249,273.529,156.249z M263.972,94.484
	c0,3.678,3.675,10.292,6.617,10.292c0.736,0,0.736-0.736,0.736-1.471c0-3.673-5.149-9.557-7.353-9.557V94.484z M290.441,39.335
	c0-4.408-2.94-8.821-9.559-8.821c-6.617,0-13.235,5.149-13.235,11.763c0,6.62,5.882,9.562,9.559,9.562
	C283.824,51.839,290.441,44.483,290.441,39.335z M275,98.162c0,0,0-13.235-4.411-13.235c-2.207,0-2.942,0.736-2.942,2.202
	c0,4.413,6.617,12.504,6.617,12.504C275,99.633,275,99.633,275,98.162z M279.413,32.72c3.675,0,8.088,2.207,8.088,5.884
	c0,5.879-5.149,9.557-10.295,9.557c-4.411,0-6.617-3.678-6.617-8.091C270.589,35.662,276.471,32.72,279.413,32.72z M283.824,147.427
	c2.207,0,4.413,0,4.413,2.202c0,2.207-7.355,4.413-12.501,4.413c-2.94,0-4.411-1.471-4.411-2.942c0-3.673,3.675-3.673,5.146-3.673
	H283.824z M280.149,78.308l-0.736-0.736c-2.207,0-3.678,4.413-3.678,5.884c0.736,1.471,3.678,8.086,3.678,8.821
	c0-4.413,0.736-8.821,0.736-13.235V78.308z M284.56,123.16c-3.678,0-5.146-1.471-5.146-2.207c0-2.207,2.204-3.673,4.411-3.673h2.207
	c1.471,0,2.94-0.736,4.411-0.736c0.736,0,1.471,0.736,1.471,2.202c0,2.942-4.411,4.413-6.617,4.413H284.56z M313.235,34.926
	c0,8.086,5.884,13.97,7.353,15.441c-2.204-8.091-0.733-21.325-3.675-25.003C313.971,25.365,313.235,33.455,313.235,34.926z
	 M324.266,6.986c-0.736,0-0.736,0.731-1.471,0.731c-0.736,0-8.088,2.207-7.353,3.678v3.678h0.736c0,0,10.295-0.736,9.559-6.62
	C325.001,7.717,325.001,6.986,324.266,6.986z M326.472,112.132c-2.207,0-9.559-1.471-9.559-5.884c0-1.471,1.471-1.471,3.675-1.471
	h5.884c3.675,0,11.028-0.736,13.97-0.736c1.471,0,2.207,1.471,2.207,2.207c0,2.942-7.353,5.884-8.824,5.884H326.472z
	 M322.059,63.602c0,1.471,1.471,11.763,5.149,13.97V74.63c0-3.678-0.736-12.499-3.678-12.499
	C322.794,62.131,322.059,62.866,322.059,63.602z M342.649,34.191c0-7.355-5.149-19.854-7.353-21.325
	c0,13.97,4.411,21.325,6.617,23.532C342.649,35.662,342.649,34.926,342.649,34.191z M377.942,93.013
	c-5.146,0-8.088-2.207-13.235-2.207h-5.882c-5.884,0-13.237-0.736-17.648-5.144c-0.736-0.736-0.736-0.736-1.471-0.736
	c-0.736,0-1.471,0.736-1.471,1.466c0,8.826,28.678,9.562,28.678,9.562c3.675,0,7.353-0.736,9.557-2.207h0.736L377.942,93.013z
	 M360.294,76.101c1.471,0,1.471,0,1.471-0.736c0-5.144-17.648-12.499-19.116-16.177c0,4.413,2.94,8.091,6.617,11.033
	C351.473,72.423,356.619,76.101,360.294,76.101z M353.677,57.718c0,2.207,10.295,14.706,16.177,14.706c0,0,0.736,0,1.471-0.736
	c-1.471,1.471-13.97-11.763-13.97-11.763c-0.736-0.736-2.207-2.942-3.678-2.942V57.718z M359.558,79.043
	c0.736,0.736,1.471,0.736,2.207,0.736c0-0.736-0.736-0.736-1.471-0.736H359.558z M375.735,77.572c-0.736,0-1.469-0.736-2.204-0.736
	c-1.471,0-5.149,1.471-5.149,2.942h0.736c-0.736,0,6.617,0,6.617-1.471V77.572z M377.942,93.013c-0.736,0-1.471,0.736-1.471,0.736
	h0.736L377.942,93.013z M388.972,86.393c1.471,0,7.353-0.731,7.353-2.937c0-0.736-1.471-6.62-4.413-5.884
	C389.708,79.043,390.443,83.456,388.972,86.393z"/>
</svg>
