<?xml version="1.0" encoding="utf-8"?>
<!-- Generator: Adobe Illustrator 16.0.0, SVG Export Plug-In . SVG Version: 6.00 Build 0)  -->
<!DOCTYPE svg PUBLIC "-//W3C//DTD SVG 1.1//EN" "http://www.w3.org/Graphics/SVG/1.1/DTD/svg11.dtd">
<svg version="1.1" id="Layer_1" xmlns="http://www.w3.org/2000/svg" xmlns:xlink="http://www.w3.org/1999/xlink" x="0px" y="0px"
	 width="400px" height="400px" viewBox="0 0 400 400" enable-background="new 0 0 400 400" xml:space="preserve">
<g>
	<g>
		<path fill="#4AB9E6" d="M321.031,54.048c0-4.102-3.337-7.441-7.441-7.441h-25.95c-4.101,0-7.438,3.34-7.438,7.441
			c0,4.104,3.337,7.444,7.438,7.444h6.196c-0.426,0.936-0.665,1.97-0.665,3.059v188.278l-16.634,18.824
			c-0.328,0.372-0.51,0.851-0.51,1.347v84.823c0,6.941,20.831,7.287,25.006,7.287c5.514,0,10.566-0.466,14.219-1.313
			c5.105-1.179,7.694-3.191,7.694-5.975v-86.18c0-0.47-0.16-0.922-0.461-1.285l-14.423-17.489V64.551
			c0-1.089-0.239-2.123-0.669-3.059h6.196C317.694,61.492,321.031,58.152,321.031,54.048 M284.262,54.048
			c0-1.863,1.516-3.386,3.378-3.386h25.95c1.866,0,3.382,1.522,3.382,3.386c0,1.866-1.516,3.387-3.382,3.387h-10.797
			c-0.691-0.213-1.423-0.326-2.176-0.326c-0.754,0-1.489,0.113-2.177,0.326H287.64C285.777,57.435,284.262,55.914,284.262,54.048
			 M318.891,272.375v85.444c-0.093,0.314-1.6,1.688-7.357,2.548c-12.609,1.88-29.594-0.363-31.446-2.721v-83.875l13.084-14.808
			v47.872c0,4.108,3.342,7.45,7.446,7.45c4.104,0,7.445-3.342,7.445-7.45v-47.584L318.891,272.375z M303.998,64.551v242.285
			c0,1.87-1.516,3.386-3.381,3.386c-1.871,0-3.387-1.516-3.387-3.386V64.551c0-1.353,0.798-2.514,1.941-3.059h2.886
			C303.205,62.037,303.998,63.198,303.998,64.551"/>
	</g>
	<g>
		<path fill="#4AB9E6" d="M168.208,400c-15.81,0-30.177-7.574-39.418-20.778C95.427,331.55,77.054,267.903,77.054,200
			S95.429,68.448,128.79,20.778C138.029,7.575,152.396,0,168.208,0c15.813,0,30.181,7.575,39.417,20.78
			c33.361,47.661,51.737,111.31,51.737,179.22c0,67.907-18.376,131.554-51.737,179.222C198.387,392.426,184.02,400,168.208,400z
			 M168.208,6.152c-13.775,0-26.308,6.615-34.379,18.152C101.182,70.95,83.205,133.347,83.205,200s17.977,129.05,50.624,175.694
			c8.073,11.536,20.604,18.154,34.379,18.154s26.307-6.618,34.38-18.154C235.233,329.054,253.21,266.658,253.21,200
			c0-66.66-17.977-129.057-50.622-175.694C194.518,12.767,181.985,6.152,168.208,6.152z"/>
	</g>
	<g>
		<path fill="#4AB9E6" d="M168.208,389.593c-12.53,0-23.914-6.001-31.236-16.461C104.841,327.224,87.146,265.74,87.146,200
			c0-65.738,17.695-127.224,49.826-173.134c7.322-10.46,18.706-16.459,31.236-16.459c12.529,0,23.913,5.999,31.237,16.459
			C231.576,72.778,249.274,134.264,249.274,200s-17.698,127.224-49.829,173.132C192.124,383.592,180.737,389.593,168.208,389.593z
			 M168.208,16.557c-10.493,0-20.043,5.043-26.196,13.837C110.596,75.278,93.297,135.512,93.297,200
			c0,64.486,17.299,124.724,48.715,169.604c6.153,8.798,15.703,13.842,26.196,13.842c10.495,0,20.044-5.044,26.198-13.842
			C225.823,324.72,243.122,264.486,243.122,200S225.823,75.28,194.406,30.394C188.252,21.6,178.703,16.557,168.208,16.557z"/>
	</g>
	<g>
		<path fill="#4AB9E6" d="M185.313,93.237h-34.212c-7.408,0-13.434-6.025-13.434-13.434c0-7.411,6.025-13.438,13.434-13.438h34.212
			c7.408,0,13.435,6.023,13.435,13.43C198.748,87.208,192.722,93.237,185.313,93.237z M151.102,71.737
			c-4.445,0-8.062,3.614-8.062,8.058c0,4.45,3.616,8.071,8.062,8.071h34.212c4.445,0,8.063-3.617,8.063-8.063
			c0-4.447-3.617-8.066-8.063-8.066H151.102z"/>
	</g>
	<g>
		<path fill="#4AB9E6" d="M185.313,333.637h-34.212c-7.408,0-13.434-6.027-13.434-13.434c0-7.411,6.025-13.438,13.434-13.438h34.212
			c7.408,0,13.435,6.023,13.435,13.43C198.748,327.609,192.722,333.637,185.313,333.637z M151.102,312.137
			c-4.445,0-8.062,3.616-8.062,8.058c0,4.449,3.616,8.07,8.062,8.07h34.212c4.445,0,8.063-3.616,8.063-8.062
			s-3.617-8.066-8.063-8.066H151.102z"/>
	</g>
	<g>
		<path fill="#4AB9E6" d="M168.21,264.265c-23.848,0-43.247-28.832-43.247-64.265c0-35.436,19.399-64.265,43.247-64.265
			c23.845,0,43.244,28.829,43.244,64.265C211.454,235.433,192.055,264.265,168.21,264.265z M168.21,141.413
			c-20.716,0-37.569,26.283-37.569,58.587s16.854,58.582,37.569,58.582c20.714,0,37.563-26.278,37.563-58.582
			S188.924,141.413,168.21,141.413z"/>
	</g>
	<g>
		<path fill="#4AB9E6" d="M168.208,284.36c-30.356,0-55.05-37.843-55.05-84.36c0-46.516,24.693-84.36,55.05-84.36
			c30.355,0,55.05,37.845,55.05,84.36C223.258,246.518,198.563,284.36,168.208,284.36z M168.208,121.181
			c-27.301,0-49.51,35.357-49.51,78.819c0,43.46,22.209,78.819,49.51,78.819c27.3,0,49.509-35.359,49.509-78.819
			C217.717,156.538,195.508,121.181,168.208,121.181z"/>
	</g>
	<g>
		<rect x="111.99" y="76.728" fill="#4AB9E6" width="28.365" height="6.152"/>
	</g>
	<g>
		<rect x="196.062" y="76.728" fill="#4AB9E6" width="28.366" height="6.152"/>
	</g>
	<g>
		<rect x="196.062" y="317.118" fill="#4AB9E6" width="28.091" height="6.152"/>
	</g>
	<g>
		<rect x="112.263" y="317.118" fill="#4AB9E6" width="28.093" height="6.152"/>
	</g>
</g>
</svg>
