<?xml version="1.0" encoding="utf-8"?>
<!-- Generator: Adobe Illustrator 16.0.0, SVG Export Plug-In . SVG Version: 6.00 Build 0)  -->
<!DOCTYPE svg PUBLIC "-//W3C//DTD SVG 1.1//EN" "http://www.w3.org/Graphics/SVG/1.1/DTD/svg11.dtd">
<svg version="1.1" id="Layer_1" xmlns="http://www.w3.org/2000/svg" xmlns:xlink="http://www.w3.org/1999/xlink" x="0px" y="0px"
	 width="400px" height="400px" viewBox="-136 -136 400 400" enable-background="new -136 -136 400 400" xml:space="preserve">
<g>
	<g>
		<path fill="#232323" d="M63.995,264c-76.603,0-134.369-60.662-134.369-141.103c0-30.494,21.646-82.92,64.335-155.823
			c16.926-28.904,33.281-54.313,44.024-70.539C59.523-136,59.692-136,63.995-136c4.322,0,4.404,0,25.929,32.537
			c10.78,16.295,27.17,41.759,44.035,70.535c42.743,72.932,64.415,125.357,64.415,155.825C198.374,203.338,140.603,264,63.995,264z
			 M63.968-117.965C39.943-83.833-56.937,63.288-56.937,122.897c0,72.78,51.989,127.665,120.932,127.665
			c68.947,0,120.941-54.885,120.941-127.665C184.937,64.02,88.096-83.502,63.968-117.965z"/>
	</g>
	<g>
		<path fill="#232323" d="M63.995,201.747c-38.898,0-70.545-31.648-70.545-70.55c0-38.898,31.646-70.544,70.545-70.544
			c38.9,0,70.548,31.646,70.548,70.544C134.543,170.099,102.896,201.747,63.995,201.747z M63.995,74.091
			c-31.489,0-57.107,25.619-57.107,57.106c0,31.49,25.618,57.112,57.107,57.112c31.492,0,57.11-25.622,57.11-57.112
			C121.105,99.71,95.487,74.091,63.995,74.091z"/>
	</g>
</g>
</svg>
