<?xml version="1.0" encoding="utf-8"?>
<!-- Generator: Adobe Illustrator 16.0.0, SVG Export Plug-In . SVG Version: 6.00 Build 0)  -->
<!DOCTYPE svg PUBLIC "-//W3C//DTD SVG 1.1//EN" "http://www.w3.org/Graphics/SVG/1.1/DTD/svg11.dtd">
<svg version="1.1" id="Layer_1" xmlns="http://www.w3.org/2000/svg" xmlns:xlink="http://www.w3.org/1999/xlink" x="0px" y="0px"
	 width="400px" height="400px" viewBox="0 0 400 400" enable-background="new 0 0 400 400" xml:space="preserve">
<path fill="#4AB9E6" d="M278.007,125.441C253.23,81.04,228.601,43.37,225.821,39.145L200,0l-25.818,39.146
	c-1.071,1.62-26.476,40.225-52.18,86.295c-36.951,66.203-54.914,112.536-54.914,141.646C67.088,340.377,126.711,400,200,400
	s132.912-59.623,132.912-132.912C332.912,237.982,314.951,191.649,278.007,125.441z M200,382.32
	c-63.538,0-115.232-51.694-115.232-115.232c0-25.652,17.722-70.41,52.674-133.031c25.388-45.506,50.444-83.577,51.498-85.177
	L200,32.11l11.098,16.819c2.689,4.094,26.995,41.27,51.474,85.127c34.941,62.623,52.661,107.383,52.661,133.031
	C315.232,330.626,263.538,382.32,200,382.32z"/>
</svg>
