<?xml version="1.0" encoding="utf-8"?>
<!-- Generator: Adobe Illustrator 16.0.0, SVG Export Plug-In . SVG Version: 6.00 Build 0)  -->
<!DOCTYPE svg PUBLIC "-//W3C//DTD SVG 1.1//EN" "http://www.w3.org/Graphics/SVG/1.1/DTD/svg11.dtd">
<svg version="1.1" id="Layer_1" xmlns="http://www.w3.org/2000/svg" xmlns:xlink="http://www.w3.org/1999/xlink" x="0px" y="0px"
	 width="400px" height="400px" viewBox="0 0 400 400" enable-background="new 0 0 400 400" xml:space="preserve">
<path fill="#4AB9E6" d="M200,400c-73.289,0-132.912-59.623-132.912-132.912c0-29.11,17.963-75.443,54.914-141.646
	c25.704-46.07,51.108-84.675,52.18-86.295L200,0l25.821,39.145c2.779,4.226,27.409,41.896,52.186,86.297
	c36.944,66.208,54.905,112.541,54.905,141.646C332.912,340.377,273.289,400,200,400z M200,32.11l-11.061,16.77
	c-1.054,1.6-26.11,39.671-51.498,85.177c-34.952,62.621-52.674,107.379-52.674,133.031c0,63.538,51.694,115.232,115.232,115.232
	s115.232-51.694,115.232-115.232c0-25.648-17.72-70.408-52.661-133.031c-24.479-43.857-48.784-81.033-51.474-85.127L200,32.11z"/>
<path fill="#4AB9E6" d="M200,341.076c-40.339,0-73.157-32.813-73.157-73.15c0-40.338,32.818-73.156,73.157-73.156
	c40.337,0,73.155,32.818,73.155,73.156C273.155,308.263,240.337,341.076,200,341.076z M200,212.45
	c-30.591,0-55.478,24.885-55.478,55.476c0,30.586,24.887,55.471,55.478,55.471s55.476-24.885,55.476-55.471
	C255.476,237.335,230.591,212.45,200,212.45z"/>
</svg>
