<?xml version="1.0" encoding="utf-8"?>
<!-- Generator: Adobe Illustrator 17.0.0, SVG Export Plug-In . SVG Version: 6.00 Build 0)  -->
<!DOCTYPE svg PUBLIC "-//W3C//DTD SVG 1.1//EN" "http://www.w3.org/Graphics/SVG/1.1/DTD/svg11.dtd">
<svg version="1.1" id="Layer_1" xmlns="http://www.w3.org/2000/svg" xmlns:xlink="http://www.w3.org/1999/xlink" x="0px" y="0px"
	 width="400px" height="400px" viewBox="0 0 400 400" enable-background="new 0 0 400 400" xml:space="preserve">
<path fill="#4AB9E6" d="M200,400c-54.573,0-98.97-44.397-98.97-98.97c0-21.676,13.376-56.177,40.891-105.474
	c19.14-34.305,38.057-63.052,38.855-64.258L200,102.148l19.227,29.149c2.069,3.147,20.41,31.197,38.859,64.259
	c27.51,49.3,40.884,83.801,40.884,105.474C298.97,355.603,254.573,400,200,400z M200,126.058l-8.236,12.487
	c-0.785,1.191-19.442,29.54-38.347,63.425c-26.026,46.63-39.223,79.958-39.223,99.059c0,47.312,38.493,85.805,85.805,85.805
	s85.805-38.493,85.805-85.805c0-19.098-13.195-52.428-39.213-99.059c-18.228-32.657-36.326-60.34-38.329-63.388L200,126.058z"/>
<path fill="#4AB9E6" d="M200,356.123c-30.038,0-54.475-24.434-54.475-54.47c0-30.037,24.437-54.474,54.475-54.474
	c30.036,0,54.473,24.437,54.473,54.474C254.473,331.69,230.036,356.123,200,356.123z M200,260.345
	c-22.779,0-41.311,18.53-41.311,41.309c0,22.775,18.532,41.305,41.311,41.305s41.309-18.53,41.309-41.305
	C241.309,278.875,222.779,260.345,200,260.345z"/>
<g>
	<path fill="#4AB9E6" d="M193.55,114.459c-0.645-1.4-14.598-35.492,2.054-53.418C217.206,37.784,194.749,1.397,193.832,0h13.144
		c0.28,0.424,4.934,7.229,8.289,20.981c4.617,18.925,0.858,35.601-10.868,48.227c-11.065,11.912-0.071,39.962,0.054,40.232
		L193.55,114.459z"/>
</g>
</svg>
