<?xml version="1.0" encoding="utf-8"?>
<!-- Generator: Adobe Illustrator 17.0.0, SVG Export Plug-In . SVG Version: 6.00 Build 0)  -->
<!DOCTYPE svg PUBLIC "-//W3C//DTD SVG 1.1//EN" "http://www.w3.org/Graphics/SVG/1.1/DTD/svg11.dtd">
<svg version="1.1" id="Layer_1" xmlns="http://www.w3.org/2000/svg" xmlns:xlink="http://www.w3.org/1999/xlink" x="0px" y="0px"
	 width="400px" height="400px" viewBox="0 0 400 400" enable-background="new 0 0 400 400" xml:space="preserve">
<path fill="#DF1C48" d="M200.039,215.352c-17.587,0-31.896,14.309-31.896,31.896s14.308,31.896,31.896,31.896
	c17.587,0,31.896-14.309,31.896-31.896S217.626,215.352,200.039,215.352z M200.039,269.143c-12.073,0-21.896-9.822-21.896-21.896
	s9.822-21.896,21.896-21.896s21.896,9.822,21.896,21.896S212.112,269.143,200.039,269.143z"/>
<path fill="#DF1C48" d="M256.927,246.897c0-12.571-7.35-31.595-23.129-59.871c-10.499-18.814-20.736-34.445-21.871-36.17
	l-11.888-18.017l-11.885,18.017c-0.447,0.677-11.066,16.804-21.872,36.17c-15.779,28.275-23.129,47.298-23.129,59.869
	c0,31.368,25.519,56.888,56.886,56.888C231.407,303.783,256.927,278.265,256.927,246.897z M200.039,293.783
	c-25.853,0-46.886-21.034-46.886-46.888c0-10.5,7.355-29.003,21.861-54.996c10.626-19.044,21.047-34.87,21.486-35.535L200.04,151
	l3.538,5.361c1.111,1.689,11.163,17.036,21.488,35.54c14.506,25.994,21.861,44.498,21.861,54.998
	C246.927,272.75,225.893,293.783,200.039,293.783z"/>
<path fill="#DF1C48" d="M295.686,26.287l-95.431,47.944l-97.163-47.897L1.354,76.243v296.964l101.228-52.293l97.44,52.511
	l95.654-52.48l103.522,55.115V80.439L295.686,26.287z M195.04,313.147v46.233l-87.866-47.351V39.495l87.866,43.314v39.632h10V83.018
	l85.6-43.005v272.287l-85.6,46.964v-46.117H195.04z M11.354,82.476l85.82-42.1v272.076l-85.82,44.333V82.476z M389.198,359.407
	l-88.559-47.149V40.164l88.559,46.329V359.407z"/>
</svg>
