<?xml version="1.0" encoding="utf-8"?>
<!-- Generator: Adobe Illustrator 16.0.0, SVG Export Plug-In . SVG Version: 6.00 Build 0)  -->
<!DOCTYPE svg PUBLIC "-//W3C//DTD SVG 1.1//EN" "http://www.w3.org/Graphics/SVG/1.1/DTD/svg11.dtd">
<svg version="1.1" id="Layer_1" xmlns="http://www.w3.org/2000/svg" xmlns:xlink="http://www.w3.org/1999/xlink" x="0px" y="0px"
	 width="400px" height="400px" viewBox="0 0 400 400" enable-background="new 0 0 400 400" xml:space="preserve">
<path fill="#4AB9E6" d="M277.291,219.267c-0.609-0.937-1.529-2.092-1.774-2.092c-1.402-0.563-2.806-1.218-3.837-2.433
	c-0.562-0.468-1.216-0.936-1.779-1.218c-0.839-0.467-1.495-1.216-2.242-1.871c-0.844-0.749-1.967-1.216-2.716-2.153
	c-0.748-0.934-3.367-2.993-3.367-3.461c-0.655-2.716-5.989-0.843-8.518-3.742c-0.561-0.562-1.686-1.03-2.337-1.593
	c-1.216-1.216-3.275-2.339-4.774-4.209c-1.122-1.966-4.679-2.621-7.203-2.996c-0.469,0-0.75,0.188-0.936,0.188
	c-0.655,0-1.685-0.563-2.527-0.563c-1.777,0.094-4.679-2.711-6.177-3.929c-1.122-0.843-2.713-0.935-3.835-1.497
	c-0.843,0-2.152,0.374-2.809,1.122c-0.375,0.562-1.495,1.312-1.87,1.312c-0.562,0-2.061-0.844-2.62-1.404
	c-0.656-0.749-1.593-1.312-2.528-1.873c0.188,0.281-1.496-1.685-3.462-3.367c-1.686-1.404-2.433-5.988-5.238-5.988
	c-1.312,0,0.561-0.376-5.989,4.21c-2.34,2.059-4.493,3.928-6.739,5.801c-2.058,1.685-4.023,4.116-6.176,4.116
	c-2.338,0-3.555-2.056-4.865-2.056c0.187,0-2.059,1.496-3.088,2.338c-1.872,1.029-3.368,2.62-5.147,3.837
	c-0.935,0.749-5.708,5.053-7.578,5.053c-1.124,0-2.527-0.842-3.744-1.218c-0.842-0.187-1.497-1.029-1.964-1.029h-0.188
	c-1.403,0-2.62-2.151-3.557-2.151c-0.374,0-1.028,0.467-1.309,0.654c-2.807,1.966-5.801,4.867-8.983,6.457
	c-0.655,0.187-1.403,1.404-2.434,1.966c-1.216,0.843-2.245,1.872-3.46,2.714c-4.118,2.713-7.112,4.771-13.101,8.421
	c0.156-0.053-3.032,1.291-5.885,2.654H0v2.491h118.27c-0.016,0.031-0.051,0.069-0.051,0.094c0,0.469,0.188,0.656,0.468,0.656
	c0.303,0,0.896-0.282,1.597-0.603c0.057,0.284,0.191,0.449,0.416,0.449c0.301,0,0.888-0.277,1.583-0.597h1.43v-0.603
	c1.224-0.454,3.036-1.012,4.192-2.168c2.62-1.312,5.708-2.716,8.235-4.68c0,0.189,2.901-1.684,3.836-2.62
	c0.843-0.749,6.737-3.556,7.205-4.396c1.779-1.404,3.836-2.621,5.615-4.119c1.216-1.027,2.62-1.777,3.649-3.088
	c0.306-0.237,0.648-0.431,0.99-0.628c0.146,0.424,0.272,0.858,0.272,1.343c0,0.28-0.187,0.654-0.187,0.937
	c0,0.375,0.094,1.122,0.187,1.588c0,0.281-0.093,0.562-0.093,0.844c0,1.59,1.311,1.029,1.311,2.62c0,0.374-0.375,0.749-0.375,1.124
	v0.562c0,0.653-0.188,1.308-0.188,1.965c0,0.748,0.375,1.402,1.029,1.402c1.31,0,3.649-1.966,4.866-3.273
	c0.187-0.188,3.369-3.089,4.21-3.37c0.187,0.561,0.561,1.218,0.936,1.218c1.778-0.281,2.152-1.125,2.901-2.06
	c1.498-1.871,2.807-3.837,4.399-5.708c-0.187,0.187,3.087-4.772,5.146-4.772c0.375,0,0.469,1.122,0.469,1.779
	c0,1.401-2.059,6.082-2.059,8.514c0,0.468,0.468,1.029,1.029,1.029c0.374,0,1.778-1.217,1.872-2.06c0,0.843,2.434-3.087,4.678-5.801
	c1.124-1.309,3.462-2.9,3.744-3.93c0.374-1.872,2.245-3.368,3.556-4.678c0.654-0.749,1.684-1.029,2.058-1.685
	c0.094-0.188,3.182-1.966,3.37-3.18c0-0.281,2.621-2.622,3.181-2.622c0.093,0,0.187,0.092,0.187,0.187
	c0,0.188-0.094,0.282-0.279,0.469c-1.778,2.06-4.96,5.239-4.96,7.392c0.094,0.563,0.468,0.937,1.029,0.937
	c1.031,0,2.623-1.404,3.37-1.404c0.095,0,0.188,0,0.373,0.094c0,0.656-1.309,2.151-1.87,2.806c-0.749,1.03-2.808,3.743-2.808,4.68
	c0.093,0.188,0.093,0.281,0.093,0.467c0,0.842-1.778,3.183-2.526,4.586c-0.374,0.937-1.309,2.059-1.309,3.088v0.28
	c0,0.095,0,0.188-0.094,0.281c-0.468,1.03-1.217,2.621-1.217,3.742c0,0.375,0.28,0.748,0.656,0.748c1.029,0,1.497-0.654,2.338-0.934
	c2.247-0.748,5.24-3.743,7.392-3.743c1.498,0,2.809,0.935,2.809,2.152c0,0.937-1.216,2.338-1.216,3.649
	c0,2.152,3.37,2.433,4.958,2.433h0.282c1.309-0.093,4.211,0.28,4.771,1.685c0.562,1.309,1.404,0.934,1.404,2.151v0.28
	c-0.093,1.218,0.748,1.125,1.309,2.34c0.657,1.497,3.743,1.872,5.71,1.872c1.966,0,4.022-0.468,6.081-0.468
	c1.686,0,3.369,0.279,5.054,0.279c0.843,0,1.684-0.373,2.62-0.373c1.496,0,3.181,0.187,4.771,0.187h0.937
	c0.375,0,0.656,0.187,1.029,0.187c0.281,0,0.653-0.187,1.216-0.187h0.654c3.277,0,6.364-0.467,9.734-0.467
	c0.747,0.186,1.401,0.186,2.151,0.186c1.216-0.091,2.339-0.091,3.556-0.091c2.245,0,4.865-0.188,7.206,0.186
	c2.313,0.369,4.813-0.171,7.131,0.634v0.207H400v-2.491H277.291z M246.508,206.787h-0.28c-0.843,0-2.244,0.654-3.367,0.654
	c-2.154,0-5.053-0.654-7.299-1.591c-0.47-0.187-3.463-1.589-5.054-1.589c-0.468,0-0.749,0.187-1.311,0.187
	c-1.029-0.281-8.514-0.563-8.514-1.87c0-0.656,2.243-1.218,2.243-2.341c0-1.686-3.553-2.434-4.771-4.023
	c0.374-0.093,0.656-0.093,1.03-0.093c2.62,0,5.146,0.84,8.142,0.84c0.935,0,1.776-0.372,2.62-0.372c0.841,0,4.021,0.559,4.396,1.12
	c0.281,0.75,1.404,0.843,1.685,1.312c2.526,3.276,9.356,4.303,12.354,7.205C247.726,206.601,247.163,206.787,246.508,206.787"/>
</svg>
