<?xml version="1.0" encoding="utf-8"?>
<!-- Generator: Adobe Illustrator 16.0.0, SVG Export Plug-In . SVG Version: 6.00 Build 0)  -->
<!DOCTYPE svg PUBLIC "-//W3C//DTD SVG 1.1//EN" "http://www.w3.org/Graphics/SVG/1.1/DTD/svg11.dtd">
<svg version="1.1" id="Layer_1" xmlns:sketch="http://www.bohemiancoding.com/sketch/ns"
	 xmlns="http://www.w3.org/2000/svg" xmlns:xlink="http://www.w3.org/1999/xlink" x="0px" y="0px" width="400px" height="400px"
	 viewBox="-190 -190 400 400" enable-background="new -190 -190 400 400" xml:space="preserve">
<path id="Shape" d="M-30,100L90,10L-30-80V100L-30,100z M10-190c-110,0-200,90-200,200s90,200,200,200s200-90,200-200
	S120-190,10-190L10-190z M10,170c-87.998,0-160-71.992-160-160c0-87.998,72.002-160,160-160c88.008,0,160,72.002,160,160
	C170,98.008,98.008,170,10,170L10,170z"/>
</svg>
