<?xml version="1.0" encoding="utf-8"?>
<!-- Generator: Adobe Illustrator 16.0.0, SVG Export Plug-In . SVG Version: 6.00 Build 0)  -->
<!DOCTYPE svg PUBLIC "-//W3C//DTD SVG 1.1//EN" "http://www.w3.org/Graphics/SVG/1.1/DTD/svg11.dtd">
<svg version="1.1" id="Layer_1" xmlns="http://www.w3.org/2000/svg" xmlns:xlink="http://www.w3.org/1999/xlink" x="0px" y="0px"
	 width="400px" height="400px" viewBox="0 0 400 400" enable-background="new 0 0 400 400" xml:space="preserve">
<g>
	<path fill="#4AB9E6" d="M399.124,289.182c-0.452-7.631-5.12-14.361-11.912-17.558c-0.406-4.124-1.311-9.566-3.272-15.246
		c-5.47-15.787-16.442-25.748-31.728-28.807c-8.467-1.69-18.565-2.89-29.259-4.155c-30.953-3.671-69.388-8.232-88.236-27.971
		c-3.81-12.882-13.564-22.524-28.987-28.219c-40.927-15.113-49.129-63.404-54.031-92.258c-1.374-8.101-2.46-14.49-4-18.717
		c-0.542-1.495-1.88-2.554-3.457-2.738c-18.23-2.146-47.56,0.914-87.192,9.093C27.726,68.658,3.321,75.424,3.082,75.495
		c-2.139,0.592-3.45,2.746-2.99,4.921c0.153,0.711,15.015,71.209,14.202,93.968c-0.184,5.239-1.035,12.163-1.966,19.392
		l-0.462,3.587c-3.321,25.601-7.379,56.944,1.282,76.887c-1.6,0.739-3.076,1.759-4.356,3.055c-2.802,2.848-4.31,6.615-4.243,10.608
		l0.55,34.146c0.098,6.229,5.048,11.406,11.269,11.782l90.137,5.446c2.104,0.126,3.948-1.304,4.37-3.347l4.359-21.068
		c8.066,0.031,29.993,0.912,52.527,8.7c6.68,2.308,11.68,8.003,13.054,14.863c0.33,1.648,1.602,2.937,3.242,3.289
		c1.091,0.237,25.708,5.427,62.026,5.427c2.277,0,4.607-0.022,6.969-0.065c37.054-0.678,91.896-7.42,142.775-35.693
		c2.71-1.503,4.339-4.484,4.158-7.589L399.124,289.182z M231.401,234.976c3.537-9.773,5.239-18.761,5.147-26.844
		c22.106,16.116,56.815,20.236,85.415,23.628c10.521,1.254,20.459,2.431,28.593,4.052c12.303,2.468,20.838,10.233,25.356,23.092
		c2.477,7.056,3.059,13.848,3.189,17.313c-6.125,2.936-26.891,11.751-76.616,23.686c-60.511,14.519-118.762-0.536-148.103-10.808
		c-42.771-14.971-107.408-16.259-128.401-16.259c-1.704,0-3.124,0.008-4.214,0.016c-7.065-13.756-5.91-37.055-3.568-58.157
		l2.183,0.406c0.259,0.046,0.517,0.068,0.769,0.068c1.991,0,3.752-1.41,4.133-3.434c0.42-2.284-1.086-4.477-3.367-4.906
		l-2.725-0.498c0.303-2.422,0.605-4.787,0.898-7.075l206.593,38.419C228.707,238.05,230.7,236.907,231.401,234.976 M140.557,61.594
		c0.626,2.378,1.225,5.431,1.836,8.884l-15.377-3.445c-2.265-0.506-4.513,0.914-5.019,3.183c-0.511,2.265,0.918,4.513,3.178,5.021
		l18.761,4.203c1.225,7.167,2.716,15.404,4.851,24.002l-14.183,2.509c-2.284,0.4-3.812,2.583-3.407,4.867
		c0.362,2.041,2.135,3.473,4.133,3.473c0.244,0,0.491-0.02,0.738-0.063l14.913-2.637c1.57,5.325,3.423,10.702,5.644,15.982
		l-11.985,4.438c-2.175,0.805-3.287,3.221-2.482,5.399c0.628,1.696,2.234,2.748,3.94,2.748c0.483,0,0.978-0.088,1.46-0.264
		l12.613-4.671c3.152,6.205,6.729,11.79,10.728,16.735l-9.651,8.266c-1.763,1.51-1.966,4.168-0.456,5.926
		c0.828,0.974,2.006,1.472,3.194,1.472c0.966,0,1.936-0.334,2.733-1.012l9.791-8.392c4.333,4.338,9.082,8.027,14.212,11.092
		l-9.8,9.635c-1.66,1.625-1.679,4.289-0.054,5.942c0.824,0.84,1.907,1.26,2.997,1.26c1.063,0,2.127-0.404,2.943-1.21l11.767-11.557
		c1.389,0.615,2.802,1.201,4.243,1.73c7.892,2.916,13.954,6.966,18.167,12.096l-8.194,5.737c-1.905,1.33-2.365,3.957-1.031,5.856
		c0.813,1.169,2.123,1.794,3.445,1.794c0.832,0,1.671-0.247,2.403-0.763l7.765-5.431c0.802,1.853,1.434,3.808,1.878,5.863
		c1.752,8.089,0.874,17.655-2.605,28.479L21.166,190.907c0.751-5.988,1.37-11.624,1.531-16.224
		c0.307-8.545-1.386-22.96-3.705-38.063c22.17-5.325,58.698-9.693,79.209-11.888c5.074-0.542,9.595-3.065,12.723-7.1
		c3.131-4.03,4.448-9.033,3.71-14.085l-5.95-40.895C120.579,61.377,131.623,60.856,140.557,61.594 M100.336,63.658l5.984,41.104
		c0.401,2.766-0.322,5.514-2.037,7.723c-1.719,2.214-4.195,3.592-6.978,3.891c-20.507,2.198-56.904,6.546-79.64,11.918
		c-3.153-19.093-6.905-37.775-8.538-45.727C21.756,79.207,63.581,68.493,100.336,63.658 M253.137,338.681
		c-32.433,0.606-57.083-3.296-64.786-4.69c-2.648-8.505-9.277-15.404-17.845-18.366c-29.809-10.295-57.713-9.16-58.89-9.11
		c-1.924,0.088-3.538,1.464-3.924,3.346l-4.306,20.819l-86.508-5.231c-1.865-0.111-3.344-1.66-3.375-3.522l-0.55-34.149
		c-0.023-1.721,0.625-3.346,1.832-4.576c1.213-1.227,2.827-1.909,4.553-1.909c0,0,0.573-0.008,1.351-0.015
		c10.611-0.115,85.119-0.276,130.919,15.752c21.224,7.428,57.161,17.289,98.37,17.289c17.45,0,35.844-1.771,54.471-6.243
		c62.948-15.108,80.329-25.272,81.038-25.702c0.479-0.283,0.89-0.659,1.211-1.096c2.342,2.131,3.845,5.124,4.036,8.4l0.847,14.457
		C342.343,331.445,289.126,337.991,253.137,338.681"/>
	<path fill="#4AB9E6" d="M86.046,218.76l-13.5-2.507c-2.277-0.429-4.479,1.077-4.902,3.361c-0.423,2.284,1.079,4.477,3.367,4.898
		l13.497,2.514c0.264,0.05,0.523,0.069,0.774,0.069c1.985,0,3.752-1.41,4.124-3.434C89.833,221.377,88.33,219.188,86.046,218.76"/>
	<path fill="#4AB9E6" d="M118.103,224.728l-13.497-2.511c-2.277-0.426-4.477,1.077-4.898,3.361
		c-0.427,2.284,1.077,4.477,3.359,4.898l13.503,2.514c0.259,0.05,0.517,0.069,0.768,0.069c1.989,0,3.756-1.41,4.134-3.435
		C121.892,227.341,120.383,225.148,118.103,224.728"/>
	<path fill="#4AB9E6" d="M53.985,212.8l-13.497-2.515c-2.277-0.425-4.479,1.089-4.898,3.365c-0.427,2.284,1.079,4.477,3.359,4.902
		l13.501,2.511c0.258,0.05,0.517,0.072,0.768,0.072c1.991,0,3.752-1.414,4.134-3.434C57.772,215.418,56.27,213.222,53.985,212.8"/>
	<path fill="#4AB9E6" d="M182.22,236.646l-13.497-2.506c-2.276-0.43-4.477,1.08-4.898,3.365c-0.428,2.276,1.081,4.477,3.359,4.897
		l13.502,2.511c0.259,0.05,0.518,0.069,0.772,0.069c1.985,0,3.748-1.415,4.129-3.435
		C186.009,239.269,184.504,237.076,182.22,236.646"/>
	<path fill="#4AB9E6" d="M232.118,252.764c0.391,0,0.789-0.058,1.188-0.173c5.695-1.679,10.359-5.982,12.482-11.506
		c0.832-2.169-0.249-4.599-2.414-5.431c-2.17-0.828-4.604,0.249-5.436,2.418c-1.184,3.101-3.806,5.512-7.01,6.455
		c-2.223,0.651-3.499,2.989-2.844,5.22C228.626,251.579,230.302,252.764,232.118,252.764"/>
	<path fill="#4AB9E6" d="M214.28,242.61l-13.499-2.51c-2.273-0.426-4.475,1.084-4.902,3.361c-0.422,2.284,1.083,4.479,3.367,4.905
		l13.5,2.511c0.261,0.046,0.518,0.072,0.767,0.072c1.993,0,3.757-1.418,4.136-3.434C218.067,245.232,216.564,243.036,214.28,242.61"
		/>
	<path fill="#4AB9E6" d="M150.163,230.688l-13.5-2.511c-2.273-0.43-4.475,1.081-4.898,3.365c-0.424,2.284,1.083,4.477,3.363,4.897
		l13.501,2.507c0.259,0.054,0.519,0.077,0.774,0.077c1.981,0,3.749-1.418,4.128-3.435
		C153.95,233.305,152.448,231.112,150.163,230.688"/>
</g>
</svg>
