<?xml version="1.0" encoding="utf-8"?>
<!-- Generator: Adobe Illustrator 17.0.0, SVG Export Plug-In . SVG Version: 6.00 Build 0)  -->
<!DOCTYPE svg PUBLIC "-//W3C//DTD SVG 1.1//EN" "http://www.w3.org/Graphics/SVG/1.1/DTD/svg11.dtd">
<svg version="1.1" id="Untitled-Page_x25_201" xmlns="http://www.w3.org/2000/svg" xmlns:xlink="http://www.w3.org/1999/xlink"
	 x="0px" y="0px" width="400px" height="400px" viewBox="0 0 400 400" enable-background="new 0 0 400 400" xml:space="preserve">
<path fill="#302100" d="M199.978,0C89.532,0,0,89.585,0,200.022C0,310.501,89.532,400,199.978,400
	C310.501,400,400,310.501,400,200.022C400,89.585,310.501,0,199.978,0z M300.778,159.659c0.107,2.204,0.153,4.387,0.153,6.547
	c0,66.573-50.714,143.431-143.432,143.431c-28.479,0-54.928-8.34-77.293-22.667c3.978,0.497,7.986,0.691,12.036,0.691
	c23.627,0,45.368-8.059,62.577-21.565c-22.019-0.388-40.601-15.016-47.019-35.004c3.069,0.584,6.181,0.908,9.453,0.908
	c4.573,0,9.054-0.627,13.311-1.772c-23.12-4.646-40.482-25-40.482-49.374c0-0.281,0-0.475,0-0.669
	c6.819,3.781,14.563,6.006,22.838,6.287c-13.502-9.053-22.405-24.438-22.405-41.962c0-9.227,2.485-17.912,6.818-25.324
	c24.837,30.467,61.968,50.561,103.942,52.614c-0.905-3.63-1.339-7.498-1.339-11.43c0-27.831,22.561-50.433,50.401-50.433
	c14.53,0,27.601,6.137,36.775,15.947c11.538-2.291,22.289-6.504,32.055-12.252c-3.782,11.776-11.777,21.651-22.169,27.874
	c10.155-1.21,19.835-3.933,28.931-7.952C319.199,143.669,310.621,152.528,300.778,159.659z"/>
</svg>
